<?xml version="1.0" encoding="utf-8" standalone="no"?>
<!DOCTYPE svg PUBLIC "-//W3C//DTD SVG 1.1//EN"
  "http://www.w3.org/Graphics/SVG/1.1/DTD/svg11.dtd">
<svg xmlns:xlink="http://www.w3.org/1999/xlink" width="851.4pt" height="191.1pt" viewBox="0 0 851.4 191.1" xmlns="http://www.w3.org/2000/svg" version="1.1">
 <metadata>
  <rdf:RDF xmlns:dc="http://purl.org/dc/elements/1.1/" xmlns:cc="http://creativecommons.org/ns#" xmlns:rdf="http://www.w3.org/1999/02/22-rdf-syntax-ns#">
   <cc:Work>
    <dc:type rdf:resource="http://purl.org/dc/dcmitype/StillImage"/>
    <dc:date>2026-04-28T16:19:49.491664</dc:date>
    <dc:format>image/svg+xml</dc:format>
    <dc:creator>
     <cc:Agent>
      <dc:title>Matplotlib v3.10.8, https://matplotlib.org/</dc:title>
     </cc:Agent>
    </dc:creator>
   </cc:Work>
  </rdf:RDF>
 </metadata>
 <defs>
  <style type="text/css">*{stroke-linejoin: round; stroke-linecap: butt}</style>
 </defs>
 <g id="figure_1">
  <g id="patch_1">
   <path d="M 0 191.1 
L 851.4 191.1 
L 851.4 0 
L 0 0 
z
" style="fill: #ffffff"/>
  </g>
  <g id="axes_1">
   <g id="patch_2">
    <path d="M 34.635 141.12 
L 130.425 141.12 
Q 134.145 141.12 134.145 137.4 
L 134.145 74.16 
Q 134.145 70.44 130.425 70.44 
L 34.635 70.44 
Q 30.915 70.44 30.915 74.16 
L 30.915 137.4 
Q 30.915 141.12 34.635 141.12 
z
" clip-path="url(#p2aa5bb735b)" style="fill: #0a1620; opacity: 0.1"/>
   </g>
   <g id="patch_3">
    <path d="M 178.785 139.37625 
L 274.575 139.37625 
Q 278.295 139.37625 278.295 135.65625 
L 278.295 75.90375 
Q 278.295 72.18375 274.575 72.18375 
L 178.785 72.18375 
Q 175.065 72.18375 175.065 75.90375 
L 175.065 135.65625 
Q 175.065 139.37625 178.785 139.37625 
z
" clip-path="url(#p2aa5bb735b)" style="fill: #0a1620; opacity: 0.1"/>
   </g>
   <g id="patch_4">
    <path d="M 322.935 134.72625 
L 418.725 134.72625 
Q 422.445 134.72625 422.445 131.00625 
L 422.445 80.55375 
Q 422.445 76.83375 418.725 76.83375 
L 322.935 76.83375 
Q 319.215 76.83375 319.215 80.55375 
L 319.215 131.00625 
Q 319.215 134.72625 322.935 134.72625 
z
" clip-path="url(#p2aa5bb735b)" style="fill: #0a1620; opacity: 0.1"/>
   </g>
   <g id="patch_5">
    <path d="M 467.085 130.6575 
L 562.875 130.6575 
Q 566.595 130.6575 566.595 126.9375 
L 566.595 84.6225 
Q 566.595 80.9025 562.875 80.9025 
L 467.085 80.9025 
Q 463.365 80.9025 463.365 84.6225 
L 463.365 126.9375 
Q 463.365 130.6575 467.085 130.6575 
z
" clip-path="url(#p2aa5bb735b)" style="fill: #0a1620; opacity: 0.1"/>
   </g>
   <g id="patch_6">
    <path d="M 611.235 126.58875 
L 707.025 126.58875 
Q 710.745 126.58875 710.745 122.86875 
L 710.745 88.69125 
Q 710.745 84.97125 707.025 84.97125 
L 611.235 84.97125 
Q 607.515 84.97125 607.515 88.69125 
L 607.515 122.86875 
Q 607.515 126.58875 611.235 126.58875 
z
" clip-path="url(#p2aa5bb735b)" style="fill: #0a1620; opacity: 0.1"/>
   </g>
   <g id="patch_7">
    <path d="M 746.085 122.52 
L 832.575 122.52 
Q 836.295 122.52 836.295 118.8 
L 836.295 92.76 
Q 836.295 89.04 832.575 89.04 
L 746.085 89.04 
Q 742.365 89.04 742.365 92.76 
L 742.365 118.8 
Q 742.365 122.52 746.085 122.52 
z
" clip-path="url(#p2aa5bb735b)" style="fill: #0a1620; opacity: 0.1"/>
   </g>
   <g id="patch_8">
    <path d="M 33.705 140.19 
L 129.495 140.19 
Q 133.215 140.19 133.215 136.47 
L 133.215 73.23 
Q 133.215 69.51 129.495 69.51 
L 33.705 69.51 
Q 29.985 69.51 29.985 73.23 
L 29.985 136.47 
Q 29.985 140.19 33.705 140.19 
z
" clip-path="url(#p2aa5bb735b)" style="fill: #fdf3d8; stroke: #b88a25; stroke-width: 1.5; stroke-linejoin: miter"/>
   </g>
   <g id="patch_9">
    <path d="M 177.855 138.44625 
L 273.645 138.44625 
Q 277.365 138.44625 277.365 134.72625 
L 277.365 74.97375 
Q 277.365 71.25375 273.645 71.25375 
L 177.855 71.25375 
Q 174.135 71.25375 174.135 74.97375 
L 174.135 134.72625 
Q 174.135 138.44625 177.855 138.44625 
z
" clip-path="url(#p2aa5bb735b)" style="fill: #dde6e9; stroke: #27445d; stroke-width: 1.5; stroke-linejoin: miter"/>
   </g>
   <g id="patch_10">
    <path d="M 322.005 133.79625 
L 417.795 133.79625 
Q 421.515 133.79625 421.515 130.07625 
L 421.515 79.62375 
Q 421.515 75.90375 417.795 75.90375 
L 322.005 75.90375 
Q 318.285 75.90375 318.285 79.62375 
L 318.285 130.07625 
Q 318.285 133.79625 322.005 133.79625 
z
" clip-path="url(#p2aa5bb735b)" style="fill: #fdf3d8; stroke: #b88a25; stroke-width: 1.5; stroke-linejoin: miter"/>
   </g>
   <g id="patch_11">
    <path d="M 466.155 129.7275 
L 561.945 129.7275 
Q 565.665 129.7275 565.665 126.0075 
L 565.665 83.6925 
Q 565.665 79.9725 561.945 79.9725 
L 466.155 79.9725 
Q 462.435 79.9725 462.435 83.6925 
L 462.435 126.0075 
Q 462.435 129.7275 466.155 129.7275 
z
" clip-path="url(#p2aa5bb735b)" style="fill: #f7e6e6; stroke: #aa3a3a; stroke-width: 1.5; stroke-linejoin: miter"/>
   </g>
   <g id="patch_12">
    <path d="M 610.305 125.65875 
L 706.095 125.65875 
Q 709.815 125.65875 709.815 121.93875 
L 709.815 87.76125 
Q 709.815 84.04125 706.095 84.04125 
L 610.305 84.04125 
Q 606.585 84.04125 606.585 87.76125 
L 606.585 121.93875 
Q 606.585 125.65875 610.305 125.65875 
z
" clip-path="url(#p2aa5bb735b)" style="fill: #e3f1e3; stroke: #3a7a4a; stroke-width: 1.5; stroke-linejoin: miter"/>
   </g>
   <g id="patch_13">
    <path d="M 745.155 121.59 
L 831.645 121.59 
Q 835.365 121.59 835.365 117.87 
L 835.365 91.83 
Q 835.365 88.11 831.645 88.11 
L 745.155 88.11 
Q 741.435 88.11 741.435 91.83 
L 741.435 117.87 
Q 741.435 121.59 745.155 121.59 
z
" clip-path="url(#p2aa5bb735b)" style="fill: #fdf3d8; stroke: #b88a25; stroke-width: 1.5; stroke-linejoin: miter"/>
   </g>
   <g id="text_1">
    <!-- $z_0$ -->
    <g style="fill: #1f2c3a" transform="translate(76.2 95.275125) scale(0.108 -0.108)">
     <defs>
      <path id="DejaVuSans-Oblique-7a" d="M 744 3500 
L 3475 3500 
L 3372 2975 
L 738 459 
L 2913 459 
L 2822 0 
L -19 0 
L 84 525 
L 2719 3041 
L 653 3041 
L 744 3500 
z
" transform="scale(0.015625)"/>
      <path id="DejaVuSans-30" d="M 2034 4250 
Q 1547 4250 1301 3770 
Q 1056 3291 1056 2328 
Q 1056 1369 1301 889 
Q 1547 409 2034 409 
Q 2525 409 2770 889 
Q 3016 1369 3016 2328 
Q 3016 3291 2770 3770 
Q 2525 4250 2034 4250 
z
M 2034 4750 
Q 2819 4750 3233 4129 
Q 3647 3509 3647 2328 
Q 3647 1150 3233 529 
Q 2819 -91 2034 -91 
Q 1250 -91 836 529 
Q 422 1150 422 2328 
Q 422 3509 836 4129 
Q 1250 4750 2034 4750 
z
" transform="scale(0.015625)"/>
     </defs>
     <use xlink:href="#DejaVuSans-Oblique-7a" transform="translate(0 0.3125)"/>
     <use xlink:href="#DejaVuSans-30" transform="translate(52.490234 -16.09375) scale(0.7)"/>
    </g>
   </g>
   <g id="text_2">
    <!-- denoised latent (1024-d) -->
    <g style="fill: #5a6a7a" transform="translate(30.604328 122.457688) scale(0.082 -0.082)">
     <defs>
      <path id="DejaVuSerif-Italic-64" d="M 3841 4863 
L 2897 0 
L 2322 0 
L 2422 519 
Q 2191 206 1902 57 
Q 1613 -91 1228 -91 
Q 616 -91 322 394 
Q 125 716 125 1166 
Q 125 1397 178 1663 
Q 331 2444 812 2928 
Q 1294 3413 1909 3413 
Q 2294 3413 2525 3264 
Q 2756 3116 2866 2803 
L 3200 4531 
L 2656 4531 
L 2722 4863 
L 3841 4863 
z
M 2613 1497 
L 2675 1825 
Q 2722 2069 2722 2266 
Q 2722 2550 2622 2738 
Q 2456 3053 2019 3053 
Q 1575 3053 1279 2703 
Q 984 2353 850 1663 
Q 788 1347 788 1103 
Q 788 813 875 622 
Q 1031 269 1475 269 
Q 1913 269 2203 583 
Q 2494 897 2613 1497 
z
" transform="scale(0.015625)"/>
      <path id="DejaVuSerif-Italic-65" d="M 938 1275 
Q 925 1156 925 1050 
Q 925 756 1031 563 
Q 1216 219 1709 219 
Q 2072 219 2250 328 
Q 2569 525 2644 778 
L 3066 778 
Q 2941 381 2475 103 
Q 2150 -91 1506 -91 
Q 863 -91 516 388 
Q 272 722 272 1206 
Q 272 1419 319 1659 
Q 472 2450 1000 2931 
Q 1528 3413 2278 3413 
Q 3500 3413 3500 2547 
Q 3500 1913 2859 1603 
Q 2206 1288 938 1275 
z
M 2541 1975 
Q 2891 2181 2891 2569 
Q 2891 3103 2181 3103 
Q 1763 3103 1472 2784 
Q 1181 2466 1003 1606 
Q 2006 1653 2541 1975 
z
" transform="scale(0.015625)"/>
      <path id="DejaVuSerif-Italic-6e" d="M 450 0 
L 1031 2988 
L 481 2988 
L 544 3322 
L 1669 3322 
L 1556 2731 
Q 1781 3069 2068 3241 
Q 2356 3413 2694 3413 
Q 3244 3413 3444 3097 
Q 3563 2906 3563 2588 
Q 3563 2378 3509 2113 
L 3163 331 
L 3675 331 
L 3613 0 
L 2522 0 
L 2897 1931 
Q 2959 2253 2959 2469 
Q 2959 2659 2909 2769 
Q 2803 2994 2425 2994 
Q 2025 2994 1759 2701 
Q 1494 2409 1384 1850 
L 1025 0 
L 450 0 
z
" transform="scale(0.015625)"/>
      <path id="DejaVuSerif-Italic-6f" d="M 1644 219 
Q 2106 219 2414 584 
Q 2722 950 2859 1663 
Q 2922 1988 2922 2241 
Q 2922 2541 2834 2738 
Q 2669 3103 2206 3103 
Q 1744 3103 1436 2739 
Q 1128 2375 991 1663 
Q 928 1338 928 1088 
Q 928 784 1019 584 
Q 1184 219 1644 219 
z
M 1584 -91 
Q 859 -91 513 388 
Q 272 722 272 1203 
Q 272 1419 319 1663 
Q 472 2456 1005 2934 
Q 1538 3413 2266 3413 
Q 2994 3413 3341 2934 
Q 3578 2603 3578 2122 
Q 3578 1906 3531 1663 
Q 3378 869 2845 389 
Q 2313 -91 1584 -91 
z
" transform="scale(0.015625)"/>
      <path id="DejaVuSerif-Italic-69" d="M 1009 4353 
Q 1038 4497 1163 4603 
Q 1288 4709 1434 4709 
Q 1578 4709 1663 4603 
Q 1728 4522 1728 4422 
Q 1728 4388 1719 4353 
Q 1691 4206 1567 4103 
Q 1444 4000 1297 4000 
Q 1150 4000 1066 4103 
Q 1003 4181 1003 4281 
Q 1003 4316 1009 4353 
z
M 963 331 
L 1506 331 
L 1444 0 
L 325 0 
L 903 2988 
L 353 2988 
L 419 3322 
L 1544 3322 
L 963 331 
z
" transform="scale(0.015625)"/>
      <path id="DejaVuSerif-Italic-73" d="M 222 959 
L 553 959 
Q 541 869 541 788 
Q 541 219 1313 219 
Q 2088 219 2200 788 
Q 2209 844 2209 944 
Q 2209 1041 2103 1158 
Q 1997 1275 1550 1428 
L 1159 1569 
Q 759 1706 629 1882 
Q 500 2059 500 2263 
Q 500 2344 516 2438 
Q 606 2894 990 3153 
Q 1375 3413 1931 3413 
Q 2484 3413 3066 3144 
L 2925 2419 
L 2594 2419 
Q 2606 2491 2606 2553 
Q 2606 2781 2448 2942 
Q 2291 3103 1925 3103 
Q 1191 3103 1091 2591 
Q 1078 2538 1078 2444 
Q 1078 2347 1179 2237 
Q 1281 2128 1678 1997 
L 2106 1856 
Q 2550 1709 2716 1488 
Q 2831 1331 2831 1178 
Q 2831 522 2306 181 
Q 1894 -91 1262 -91 
Q 631 -91 72 184 
L 222 959 
z
" transform="scale(0.015625)"/>
      <path id="DejaVuSerif-Italic-20" transform="scale(0.015625)"/>
      <path id="DejaVuSerif-Italic-6c" d="M 903 331 
L 1447 331 
L 1384 0 
L 266 0 
L 1147 4531 
L 594 4531 
L 656 4863 
L 1784 4863 
L 903 331 
z
" transform="scale(0.015625)"/>
      <path id="DejaVuSerif-Italic-61" d="M 2325 519 
Q 1909 -91 1238 -91 
Q 688 -91 409 281 
Q 216 544 216 919 
Q 216 1078 250 1256 
Q 463 2359 1231 2928 
Q 1884 3413 2675 3413 
Q 3206 3413 3388 3322 
L 2806 331 
L 3300 331 
L 3238 0 
L 2225 0 
L 2325 519 
z
M 822 938 
Q 822 269 1469 269 
Q 1863 269 2130 583 
Q 2397 897 2516 1497 
L 2806 3003 
L 2806 3003 
Q 2806 3094 2556 3094 
Q 1956 3094 1491 2625 
Q 1028 2153 863 1297 
Q 822 1097 822 938 
z
" transform="scale(0.015625)"/>
      <path id="DejaVuSerif-Italic-74" d="M 856 2988 
L 350 2988 
L 416 3322 
L 922 3322 
L 1122 4353 
L 1700 4353 
L 1500 3322 
L 2581 3322 
L 2516 2988 
L 1434 2988 
L 1025 878 
Q 978 631 978 488 
Q 978 388 1000 338 
Q 1059 219 1278 219 
Q 1503 219 1633 351 
Q 1763 484 1825 781 
L 2259 781 
Q 2147 328 1884 118 
Q 1622 -91 1169 -91 
Q 672 -91 506 131 
Q 406 266 406 516 
Q 406 675 447 878 
L 856 2988 
z
" transform="scale(0.015625)"/>
      <path id="DejaVuSerif-Italic-28" d="M 1472 -997 
Q 778 -656 534 83 
Q 291 822 506 1931 
Q 722 3044 1253 3783 
Q 1784 4522 2609 4863 
L 2550 4556 
Q 2006 4225 1679 3623 
Q 1353 3022 1141 1931 
Q 928 844 1020 242 
Q 1113 -359 1531 -691 
L 1472 -997 
z
" transform="scale(0.015625)"/>
      <path id="DejaVuSerif-Italic-31" d="M 447 0 
L 513 331 
L 1325 331 
L 2078 4213 
L 1019 3603 
L 1100 4013 
L 2381 4750 
L 2813 4750 
L 1953 331 
L 2766 331 
L 2700 0 
L 447 0 
z
" transform="scale(0.015625)"/>
      <path id="DejaVuSerif-Italic-30" d="M 1011 744 
Q 1147 219 1625 219 
Q 2103 219 2442 744 
Q 2781 1269 2988 2328 
Q 3194 3391 3058 3916 
Q 2922 4441 2444 4441 
Q 1966 4441 1627 3916 
Q 1288 3391 1081 2328 
Q 875 1269 1011 744 
z
M 1563 -91 
Q 803 -91 501 546 
Q 200 1184 422 2328 
Q 644 3475 1195 4112 
Q 1747 4750 2506 4750 
Q 3269 4750 3569 4112 
Q 3869 3475 3647 2328 
Q 3425 1184 2875 546 
Q 2325 -91 1563 -91 
z
" transform="scale(0.015625)"/>
      <path id="DejaVuSerif-Italic-32" d="M 1050 3553 
L 700 3553 
L 863 4384 
Q 1231 4563 1589 4656 
Q 1947 4750 2272 4750 
Q 3000 4750 3353 4397 
Q 3706 4044 3588 3438 
Q 3456 2753 2313 1800 
Q 2225 1728 2178 1691 
L 772 513 
L 2719 513 
L 2831 1088 
L 3197 1088 
L 2984 0 
L -25 0 
L 41 341 
L 1731 1753 
Q 2291 2222 2567 2614 
Q 2844 3006 2928 3438 
Q 3019 3909 2825 4175 
Q 2631 4441 2200 4441 
Q 1753 4441 1467 4219 
Q 1181 3997 1050 3553 
z
" transform="scale(0.015625)"/>
      <path id="DejaVuSerif-Italic-34" d="M 2084 1581 
L 2566 4063 
L 491 1581 
L 2084 1581 
z
M 3150 0 
L 1025 0 
L 1091 331 
L 1841 331 
L 2019 1247 
L -19 1247 
L 47 1588 
L 2706 4750 
L 3325 4750 
L 2709 1581 
L 3600 1581 
L 3534 1247 
L 2644 1247 
L 2466 331 
L 3216 331 
L 3150 0 
z
" transform="scale(0.015625)"/>
      <path id="DejaVuSerif-Italic-2d" d="M 328 1959 
L 1928 1959 
L 1834 1472 
L 234 1472 
L 328 1959 
z
" transform="scale(0.015625)"/>
      <path id="DejaVuSerif-Italic-29" d="M -113 -997 
L -53 -691 
Q 491 -359 819 242 
Q 1147 844 1359 1931 
Q 1572 3022 1478 3623 
Q 1384 4225 966 4556 
L 1025 4863 
Q 1722 4522 1965 3783 
Q 2209 3044 1994 1931 
Q 1778 822 1247 83 
Q 716 -656 -113 -997 
z
" transform="scale(0.015625)"/>
     </defs>
     <use xlink:href="#DejaVuSerif-Italic-64"/>
     <use xlink:href="#DejaVuSerif-Italic-65" transform="translate(64.013672 0)"/>
     <use xlink:href="#DejaVuSerif-Italic-6e" transform="translate(123.193359 0)"/>
     <use xlink:href="#DejaVuSerif-Italic-6f" transform="translate(187.597656 0)"/>
     <use xlink:href="#DejaVuSerif-Italic-69" transform="translate(247.802734 0)"/>
     <use xlink:href="#DejaVuSerif-Italic-73" transform="translate(279.785156 0)"/>
     <use xlink:href="#DejaVuSerif-Italic-65" transform="translate(331.103516 0)"/>
     <use xlink:href="#DejaVuSerif-Italic-64" transform="translate(390.283203 0)"/>
     <use xlink:href="#DejaVuSerif-Italic-20" transform="translate(454.296875 0)"/>
     <use xlink:href="#DejaVuSerif-Italic-6c" transform="translate(486.083984 0)"/>
     <use xlink:href="#DejaVuSerif-Italic-61" transform="translate(518.066406 0)"/>
     <use xlink:href="#DejaVuSerif-Italic-74" transform="translate(577.685547 0)"/>
     <use xlink:href="#DejaVuSerif-Italic-65" transform="translate(617.871094 0)"/>
     <use xlink:href="#DejaVuSerif-Italic-6e" transform="translate(677.050781 0)"/>
     <use xlink:href="#DejaVuSerif-Italic-74" transform="translate(741.455078 0)"/>
     <use xlink:href="#DejaVuSerif-Italic-20" transform="translate(781.640625 0)"/>
     <use xlink:href="#DejaVuSerif-Italic-28" transform="translate(813.427734 0)"/>
     <use xlink:href="#DejaVuSerif-Italic-31" transform="translate(852.441406 0)"/>
     <use xlink:href="#DejaVuSerif-Italic-30" transform="translate(916.064453 0)"/>
     <use xlink:href="#DejaVuSerif-Italic-32" transform="translate(979.6875 0)"/>
     <use xlink:href="#DejaVuSerif-Italic-34" transform="translate(1043.310547 0)"/>
     <use xlink:href="#DejaVuSerif-Italic-2d" transform="translate(1106.933594 0)"/>
     <use xlink:href="#DejaVuSerif-Italic-64" transform="translate(1140.722656 0)"/>
     <use xlink:href="#DejaVuSerif-Italic-29" transform="translate(1204.736328 0)"/>
    </g>
   </g>
   <g id="text_3">
    <!-- LIMO decoder -->
    <g style="fill: #1f2c3a" transform="translate(182.707781 95.902875) scale(0.108 -0.108)">
     <defs>
      <path id="DejaVuSerif-Bold-4c" d="M 300 0 
L 300 378 
L 897 378 
L 897 4288 
L 300 4288 
L 300 4666 
L 2700 4666 
L 2700 4288 
L 2100 4288 
L 2100 428 
L 3938 428 
L 3938 1166 
L 4359 1166 
L 4359 0 
L 300 0 
z
" transform="scale(0.015625)"/>
      <path id="DejaVuSerif-Bold-49" d="M 300 0 
L 300 378 
L 897 378 
L 897 4288 
L 300 4288 
L 300 4666 
L 2700 4666 
L 2700 4288 
L 2100 4288 
L 2100 378 
L 2700 378 
L 2700 0 
L 300 0 
z
" transform="scale(0.015625)"/>
      <path id="DejaVuSerif-Bold-4d" d="M 269 0 
L 269 378 
L 863 378 
L 863 4288 
L 269 4288 
L 269 4666 
L 2194 4666 
L 3525 1672 
L 4863 4666 
L 6784 4666 
L 6784 4288 
L 6188 4288 
L 6188 378 
L 6784 378 
L 6784 0 
L 4384 0 
L 4384 378 
L 4978 378 
L 4978 3938 
L 3531 684 
L 2741 684 
L 1300 3938 
L 1300 378 
L 1894 378 
L 1894 0 
L 269 0 
z
" transform="scale(0.015625)"/>
      <path id="DejaVuSerif-Bold-4f" d="M 2784 288 
Q 3381 288 3672 791 
Q 3963 1294 3963 2328 
Q 3963 3366 3672 3869 
Q 3381 4372 2784 4372 
Q 2191 4372 1898 3864 
Q 1606 3356 1606 2328 
Q 1606 1303 1898 795 
Q 2191 288 2784 288 
z
M 2784 -91 
Q 1606 -91 937 553 
Q 269 1197 269 2328 
Q 269 3459 939 4104 
Q 1609 4750 2784 4750 
Q 3963 4750 4631 4106 
Q 5300 3463 5300 2328 
Q 5300 1197 4629 553 
Q 3959 -91 2784 -91 
z
" transform="scale(0.015625)"/>
      <path id="DejaVuSerif-Bold-20" transform="scale(0.015625)"/>
      <path id="DejaVuSerif-Bold-64" d="M 2747 1497 
L 2747 1825 
Q 2747 2406 2597 2665 
Q 2447 2925 2119 2925 
Q 1775 2925 1636 2651 
Q 1497 2378 1497 1663 
Q 1497 947 1637 672 
Q 1778 397 2119 397 
Q 2447 397 2597 656 
Q 2747 916 2747 1497 
z
M 3853 378 
L 4325 378 
L 4325 0 
L 2747 0 
L 2747 422 
Q 2606 163 2367 36 
Q 2128 -91 1778 -91 
Q 1072 -91 667 378 
Q 263 847 263 1663 
Q 263 2481 667 2947 
Q 1072 3413 1778 3413 
Q 2128 3413 2367 3286 
Q 2606 3159 2747 2900 
L 2747 4488 
L 2272 4488 
L 2272 4863 
L 3853 4863 
L 3853 378 
z
" transform="scale(0.015625)"/>
      <path id="DejaVuSerif-Bold-65" d="M 2566 1875 
Q 2566 2531 2444 2795 
Q 2322 3059 2028 3059 
Q 1744 3059 1620 2800 
Q 1497 2541 1497 1931 
L 1497 1875 
L 2566 1875 
z
M 3781 1503 
L 1497 1503 
L 1497 1478 
Q 1497 834 1690 548 
Q 1884 263 2316 263 
Q 2675 263 2897 453 
Q 3119 644 3181 1006 
L 3700 1006 
Q 3566 441 3166 175 
Q 2766 -91 2047 -91 
Q 1184 -91 723 364 
Q 263 819 263 1663 
Q 263 2488 734 2950 
Q 1206 3413 2047 3413 
Q 2872 3413 3312 2927 
Q 3753 2441 3781 1503 
z
" transform="scale(0.015625)"/>
      <path id="DejaVuSerif-Bold-63" d="M 3609 1038 
Q 3491 469 3123 189 
Q 2756 -91 2125 -91 
Q 1238 -91 750 368 
Q 263 828 263 1663 
Q 263 2488 744 2950 
Q 1225 3413 2081 3413 
Q 2428 3413 2781 3347 
Q 3134 3281 3500 3150 
L 3500 2228 
L 3150 2228 
Q 3100 2650 2903 2854 
Q 2706 3059 2350 3059 
Q 1888 3059 1692 2746 
Q 1497 2434 1497 1663 
Q 1497 909 1687 586 
Q 1878 263 2309 263 
Q 2644 263 2845 463 
Q 3047 663 3091 1038 
L 3609 1038 
z
" transform="scale(0.015625)"/>
      <path id="DejaVuSerif-Bold-6f" d="M 2138 263 
Q 2488 263 2630 563 
Q 2772 863 2772 1663 
Q 2772 2463 2631 2761 
Q 2491 3059 2138 3059 
Q 1784 3059 1640 2757 
Q 1497 2456 1497 1663 
Q 1497 869 1640 566 
Q 1784 263 2138 263 
z
M 2138 -91 
Q 1259 -91 761 376 
Q 263 844 263 1663 
Q 263 2484 761 2948 
Q 1259 3413 2138 3413 
Q 3019 3413 3516 2948 
Q 4013 2484 4013 1663 
Q 4013 844 3514 376 
Q 3016 -91 2138 -91 
z
" transform="scale(0.015625)"/>
      <path id="DejaVuSerif-Bold-72" d="M 3438 3359 
L 3438 2369 
L 3084 2369 
Q 3066 2634 2941 2764 
Q 2816 2894 2578 2894 
Q 2216 2894 2006 2575 
Q 1797 2256 1797 1691 
L 1797 378 
L 2400 378 
L 2400 0 
L 219 0 
L 219 378 
L 691 378 
L 691 2944 
L 184 2944 
L 184 3322 
L 1797 3322 
L 1797 2731 
Q 1959 3078 2226 3245 
Q 2494 3413 2881 3413 
Q 2978 3413 3117 3398 
Q 3256 3384 3438 3359 
z
" transform="scale(0.015625)"/>
     </defs>
     <use xlink:href="#DejaVuSerif-Bold-4c"/>
     <use xlink:href="#DejaVuSerif-Bold-49" transform="translate(70.3125 0)"/>
     <use xlink:href="#DejaVuSerif-Bold-4d" transform="translate(117.089844 0)"/>
     <use xlink:href="#DejaVuSerif-Bold-4f" transform="translate(227.783203 0)"/>
     <use xlink:href="#DejaVuSerif-Bold-20" transform="translate(314.892578 0)"/>
     <use xlink:href="#DejaVuSerif-Bold-64" transform="translate(349.707031 0)"/>
     <use xlink:href="#DejaVuSerif-Bold-65" transform="translate(419.628906 0)"/>
     <use xlink:href="#DejaVuSerif-Bold-63" transform="translate(483.251953 0)"/>
     <use xlink:href="#DejaVuSerif-Bold-6f" transform="translate(544.140625 0)"/>
     <use xlink:href="#DejaVuSerif-Bold-64" transform="translate(610.839844 0)"/>
     <use xlink:href="#DejaVuSerif-Bold-65" transform="translate(680.761719 0)"/>
     <use xlink:href="#DejaVuSerif-Bold-72" transform="translate(744.384766 0)"/>
    </g>
   </g>
   <g id="text_4">
    <!-- frozen NAR (latent $\to$ SMILES) -->
    <g style="fill: #5a6a7a" transform="translate(160.191 121.68275) scale(0.082 -0.082)">
     <defs>
      <path id="DejaVuSerif-Italic-66" d="M 3191 4078 
L 2888 4078 
Q 2900 4144 2900 4203 
Q 2900 4347 2825 4434 
Q 2719 4556 2472 4556 
Q 2150 4556 1984 4379 
Q 1819 4203 1731 3750 
L 1647 3322 
L 2575 3322 
L 2509 2988 
L 1581 2988 
L 963 -206 
Q 853 -763 509 -1047 
Q 166 -1331 -394 -1331 
L -356 -1025 
Q -28 -1025 131 -850 
Q 297 -663 388 -206 
L 1006 2988 
L 456 2988 
L 522 3322 
L 1072 3322 
L 1153 3738 
Q 1263 4297 1606 4578 
Q 1950 4863 2509 4863 
Q 2719 4863 2920 4825 
Q 3122 4788 3316 4709 
L 3191 4078 
z
" transform="scale(0.015625)"/>
      <path id="DejaVuSerif-Italic-72" d="M 3375 3328 
L 3213 2497 
L 2881 2497 
Q 2891 2559 2891 2613 
Q 2891 2775 2816 2866 
Q 2719 2988 2484 2988 
Q 2059 2988 1775 2694 
Q 1491 2400 1384 1850 
L 1025 0 
L 450 0 
L 1031 2994 
L 481 2994 
L 544 3322 
L 1669 3322 
L 1556 2731 
Q 1791 3078 2089 3245 
Q 2388 3413 2769 3413 
Q 2909 3413 3059 3391 
Q 3209 3369 3375 3328 
z
" transform="scale(0.015625)"/>
      <path id="DejaVuSerif-Italic-7a" d="M 2550 3047 
Q 2888 3047 3216 3322 
L 3403 3322 
L 3353 3053 
L 1081 684 
Q 1113 675 1203 647 
Q 1309 613 1416 544 
L 1569 450 
Q 1863 272 2075 272 
Q 2484 272 2966 741 
L 2891 363 
Q 2356 -163 1950 -163 
Q 1703 -156 1356 59 
Q 1009 275 791 275 
Q 453 275 125 0 
L -63 0 
L -13 269 
L 2263 2634 
Q 2228 2647 2138 2675 
Q 2031 2709 1925 2778 
L 1772 2872 
Q 1478 3050 1266 3050 
Q 856 3050 375 2581 
L 450 2959 
Q 984 3484 1391 3484 
Q 1638 3478 1984 3262 
Q 2331 3047 2550 3047 
z
" transform="scale(0.015625)"/>
      <path id="DejaVuSerif-Italic-4e" d="M -128 0 
L -66 331 
L 563 331 
L 1341 4331 
L 713 4331 
L 778 4666 
L 1975 4666 
L 4056 984 
L 4706 4331 
L 4081 4331 
L 4147 4666 
L 5784 4666 
L 5719 4331 
L 5091 4331 
L 4231 -91 
L 3853 -91 
L 1631 3841 
L 947 331 
L 1575 331 
L 1513 0 
L -128 0 
z
" transform="scale(0.015625)"/>
      <path id="DejaVuSerif-Italic-41" d="M 1159 1691 
L 2872 1691 
L 2447 3909 
L 1159 1691 
z
M -488 0 
L -425 331 
L -16 331 
L 2491 4666 
L 3016 4666 
L 3841 331 
L 4297 331 
L 4234 0 
L 2538 0 
L 2600 331 
L 3119 331 
L 2928 1356 
L 966 1356 
L 375 331 
L 888 331 
L 825 0 
L -488 0 
z
" transform="scale(0.015625)"/>
      <path id="DejaVuSerif-Italic-52" d="M 3066 2316 
Q 3272 2256 3403 2114 
Q 3534 1972 3609 1716 
L 4016 331 
L 4584 331 
L 4522 0 
L 3422 0 
L 2981 1484 
Q 2856 1916 2706 2042 
Q 2556 2169 2250 2169 
L 1553 2169 
L 1194 331 
L 1853 331 
L 1791 0 
L -97 0 
L -34 331 
L 559 331 
L 1338 4331 
L 744 4331 
L 809 4666 
L 3175 4666 
Q 3856 4666 4164 4341 
Q 4472 4016 4356 3419 
Q 4263 2938 3938 2661 
Q 3613 2384 3066 2316 
z
M 1619 2503 
L 2541 2503 
Q 3013 2503 3280 2726 
Q 3547 2950 3639 3419 
Q 3731 3888 3548 4109 
Q 3366 4331 2894 4331 
L 1972 4331 
L 1619 2503 
z
" transform="scale(0.015625)"/>
      <path id="DejaVuSans-2192" d="M 5050 2147 
L 5050 1866 
L 3822 638 
L 3447 1013 
L 4175 1741 
L 366 1741 
L 366 2272 
L 4175 2272 
L 3447 3000 
L 3822 3375 
L 5050 2147 
z
" transform="scale(0.015625)"/>
      <path id="DejaVuSerif-Italic-53" d="M 184 225 
L 391 1288 
L 750 1284 
Q 663 753 905 498 
Q 1147 244 1744 244 
Q 2300 244 2636 464 
Q 2972 684 3053 1106 
Q 3119 1444 2976 1625 
Q 2834 1806 2300 1978 
L 1722 2163 
Q 1091 2366 877 2669 
Q 663 2972 766 3500 
Q 881 4094 1367 4422 
Q 1853 4750 2616 4750 
Q 2941 4750 3314 4679 
Q 3688 4609 4097 4475 
L 3906 3481 
L 3553 3481 
Q 3594 3975 3361 4195 
Q 3128 4416 2563 4416 
Q 2069 4416 1772 4214 
Q 1475 4013 1400 3628 
Q 1334 3294 1490 3103 
Q 1647 2913 2241 2725 
L 2784 2553 
Q 3381 2363 3593 2067 
Q 3806 1772 3709 1275 
Q 3578 597 3076 253 
Q 2575 -91 1716 -91 
Q 1331 -91 948 -12 
Q 566 66 184 225 
z
" transform="scale(0.015625)"/>
      <path id="DejaVuSerif-Italic-4d" d="M -97 0 
L -34 331 
L 559 331 
L 1338 4331 
L 709 4331 
L 775 4666 
L 2134 4666 
L 3125 1344 
L 5409 4666 
L 6684 4666 
L 6619 4331 
L 5997 4331 
L 5222 331 
L 5816 331 
L 5753 0 
L 3928 0 
L 3991 331 
L 4584 331 
L 5288 3938 
L 3053 684 
L 2613 684 
L 1647 3938 
L 944 331 
L 1538 331 
L 1475 0 
L -97 0 
z
" transform="scale(0.015625)"/>
      <path id="DejaVuSerif-Italic-49" d="M 1194 331 
L 1788 331 
L 1725 0 
L -97 0 
L -34 331 
L 559 331 
L 1338 4331 
L 744 4331 
L 809 4666 
L 2631 4666 
L 2566 4331 
L 1972 4331 
L 1194 331 
z
" transform="scale(0.015625)"/>
      <path id="DejaVuSerif-Italic-4c" d="M -97 0 
L -34 331 
L 559 331 
L 1338 4331 
L 744 4331 
L 809 4666 
L 2631 4666 
L 2566 4331 
L 1972 4331 
L 1206 384 
L 3338 384 
L 3488 1166 
L 3872 1166 
L 3647 0 
L -97 0 
z
" transform="scale(0.015625)"/>
      <path id="DejaVuSerif-Italic-45" d="M -97 0 
L -34 331 
L 559 331 
L 1338 4331 
L 744 4331 
L 809 4666 
L 4566 4666 
L 4366 3628 
L 3981 3628 
L 4106 4281 
L 1963 4281 
L 1659 2719 
L 3188 2719 
L 3300 3303 
L 3684 3303 
L 3384 1753 
L 3000 1753 
L 3113 2338 
L 1584 2338 
L 1206 384 
L 3400 384 
L 3525 1038 
L 3909 1038 
L 3709 0 
L -97 0 
z
" transform="scale(0.015625)"/>
     </defs>
     <use xlink:href="#DejaVuSerif-Italic-66" transform="translate(0 0.015625)"/>
     <use xlink:href="#DejaVuSerif-Italic-72" transform="translate(37.011719 0.015625)"/>
     <use xlink:href="#DejaVuSerif-Italic-6f" transform="translate(84.814453 0.015625)"/>
     <use xlink:href="#DejaVuSerif-Italic-7a" transform="translate(145.019531 0.015625)"/>
     <use xlink:href="#DejaVuSerif-Italic-65" transform="translate(197.705078 0.015625)"/>
     <use xlink:href="#DejaVuSerif-Italic-6e" transform="translate(256.884766 0.015625)"/>
     <use xlink:href="#DejaVuSerif-Italic-20" transform="translate(321.289062 0.015625)"/>
     <use xlink:href="#DejaVuSerif-Italic-4e" transform="translate(353.076172 0.015625)"/>
     <use xlink:href="#DejaVuSerif-Italic-41" transform="translate(440.576172 0.015625)"/>
     <use xlink:href="#DejaVuSerif-Italic-52" transform="translate(512.792969 0.015625)"/>
     <use xlink:href="#DejaVuSerif-Italic-20" transform="translate(588.085938 0.015625)"/>
     <use xlink:href="#DejaVuSerif-Italic-28" transform="translate(619.873047 0.015625)"/>
     <use xlink:href="#DejaVuSerif-Italic-6c" transform="translate(658.886719 0.015625)"/>
     <use xlink:href="#DejaVuSerif-Italic-61" transform="translate(690.869141 0.015625)"/>
     <use xlink:href="#DejaVuSerif-Italic-74" transform="translate(750.488281 0.015625)"/>
     <use xlink:href="#DejaVuSerif-Italic-65" transform="translate(790.673828 0.015625)"/>
     <use xlink:href="#DejaVuSerif-Italic-6e" transform="translate(849.853516 0.015625)"/>
     <use xlink:href="#DejaVuSerif-Italic-74" transform="translate(914.257812 0.015625)"/>
     <use xlink:href="#DejaVuSerif-Italic-20" transform="translate(954.443359 0.015625)"/>
     <use xlink:href="#DejaVuSans-2192" transform="translate(1005.712891 0.015625)"/>
     <use xlink:href="#DejaVuSerif-Italic-20" transform="translate(1108.984375 0.015625)"/>
     <use xlink:href="#DejaVuSerif-Italic-53" transform="translate(1140.771484 0.015625)"/>
     <use xlink:href="#DejaVuSerif-Italic-4d" transform="translate(1209.277344 0.015625)"/>
     <use xlink:href="#DejaVuSerif-Italic-49" transform="translate(1311.669922 0.015625)"/>
     <use xlink:href="#DejaVuSerif-Italic-4c" transform="translate(1351.171875 0.015625)"/>
     <use xlink:href="#DejaVuSerif-Italic-45" transform="translate(1417.578125 0.015625)"/>
     <use xlink:href="#DejaVuSerif-Italic-53" transform="translate(1490.576172 0.015625)"/>
     <use xlink:href="#DejaVuSerif-Italic-29" transform="translate(1559.082031 0.015625)"/>
    </g>
   </g>
   <g id="text_5">
    <!-- SMILES -->
    <g style="fill: #1f2c3a" transform="translate(345.684375 97.576875) scale(0.108 -0.108)">
     <defs>
      <path id="DejaVuSerif-Bold-53" d="M 494 225 
L 494 1331 
L 891 1331 
Q 981 806 1318 547 
Q 1656 288 2253 288 
Q 2738 288 2991 472 
Q 3244 656 3244 1013 
Q 3244 1294 3072 1450 
Q 2900 1606 2363 1741 
L 1663 1913 
Q 978 2088 700 2398 
Q 422 2709 422 3284 
Q 422 3978 883 4364 
Q 1344 4750 2175 4750 
Q 2584 4750 3026 4681 
Q 3469 4613 3944 4475 
L 3944 3444 
L 3547 3444 
Q 3456 3925 3150 4148 
Q 2844 4372 2278 4372 
Q 1816 4372 1580 4211 
Q 1344 4050 1344 3731 
Q 1344 3441 1506 3289 
Q 1669 3138 2303 2975 
L 3003 2803 
Q 3653 2641 3945 2297 
Q 4238 1953 4238 1350 
Q 4238 644 3750 276 
Q 3263 -91 2316 -91 
Q 1859 -91 1409 -12 
Q 959 66 494 225 
z
" transform="scale(0.015625)"/>
      <path id="DejaVuSerif-Bold-45" d="M 300 0 
L 300 378 
L 897 378 
L 897 4288 
L 300 4288 
L 300 4666 
L 4494 4666 
L 4494 3566 
L 4063 3566 
L 4063 4238 
L 2100 4238 
L 2100 2741 
L 3322 2741 
L 3322 3334 
L 3750 3334 
L 3750 1722 
L 3322 1722 
L 3322 2316 
L 2100 2316 
L 2100 428 
L 4122 428 
L 4122 1100 
L 4550 1100 
L 4550 0 
L 300 0 
z
" transform="scale(0.015625)"/>
     </defs>
     <use xlink:href="#DejaVuSerif-Bold-53"/>
     <use xlink:href="#DejaVuSerif-Bold-4d" transform="translate(72.216797 0)"/>
     <use xlink:href="#DejaVuSerif-Bold-49" transform="translate(182.910156 0)"/>
     <use xlink:href="#DejaVuSerif-Bold-4c" transform="translate(229.6875 0)"/>
     <use xlink:href="#DejaVuSerif-Bold-45" transform="translate(300 0)"/>
     <use xlink:href="#DejaVuSerif-Bold-53" transform="translate(376.220703 0)"/>
    </g>
   </g>
   <g id="text_6">
    <!-- RDKit canonical + valence -->
    <g style="fill: #5a6a7a" transform="translate(314.443016 119.644438) scale(0.082 -0.082)">
     <defs>
      <path id="DejaVuSerif-Italic-44" d="M 1194 331 
L 1775 331 
Q 2684 331 3271 850 
Q 3859 1369 4048 2337 
Q 4238 3306 3852 3818 
Q 3466 4331 2553 4331 
L 1972 4331 
L 1194 331 
z
M -97 0 
L -34 331 
L 559 331 
L 1338 4331 
L 744 4331 
L 809 4666 
L 2666 4666 
Q 3872 4666 4426 4050 
Q 4981 3434 4766 2338 
Q 4553 1238 3758 619 
Q 2963 0 1759 0 
L -97 0 
z
" transform="scale(0.015625)"/>
      <path id="DejaVuSerif-Italic-4b" d="M -97 0 
L -34 331 
L 559 331 
L 1338 4331 
L 744 4331 
L 809 4666 
L 2631 4666 
L 2566 4331 
L 1972 4331 
L 1628 2566 
L 3981 4331 
L 3475 4331 
L 3541 4666 
L 5091 4666 
L 5025 4331 
L 4500 4331 
L 2156 2572 
L 3959 331 
L 4491 331 
L 4428 0 
L 3344 0 
L 1563 2216 
L 1194 331 
L 1788 331 
L 1725 0 
L -97 0 
z
" transform="scale(0.015625)"/>
      <path id="DejaVuSerif-Italic-63" d="M 3163 997 
Q 2938 466 2536 187 
Q 2134 -91 1584 -91 
Q 859 -91 513 388 
Q 272 722 272 1203 
Q 272 1419 319 1663 
Q 475 2459 1008 2936 
Q 1541 3413 2266 3413 
Q 2581 3413 2879 3339 
Q 3178 3266 3463 3116 
L 3300 2266 
L 2966 2266 
Q 2966 2309 2966 2347 
Q 2966 2722 2803 2903 
Q 2622 3103 2213 3103 
Q 1747 3103 1439 2742 
Q 1131 2381 991 1663 
Q 928 1334 928 1078 
Q 928 778 1016 581 
Q 1181 219 1650 219 
Q 2022 219 2281 412 
Q 2541 606 2700 997 
L 3163 997 
z
" transform="scale(0.015625)"/>
      <path id="DejaVuSerif-Italic-2b" d="M 2931 4013 
L 2931 2259 
L 4684 2259 
L 4684 1753 
L 2931 1753 
L 2931 0 
L 2431 0 
L 2431 1753 
L 678 1753 
L 678 2259 
L 2431 2259 
L 2431 4013 
L 2931 4013 
z
" transform="scale(0.015625)"/>
      <path id="DejaVuSerif-Italic-76" d="M 1681 0 
L 1259 0 
L 619 2988 
L 241 2988 
L 303 3322 
L 1163 3322 
L 1725 703 
Q 2084 1016 2325 1413 
Q 2825 2238 3003 2988 
L 2622 2988 
L 2688 3322 
L 3547 3322 
Q 3206 2034 2775 1313 
Q 2400 688 1681 0 
z
" transform="scale(0.015625)"/>
     </defs>
     <use xlink:href="#DejaVuSerif-Italic-52"/>
     <use xlink:href="#DejaVuSerif-Italic-44" transform="translate(75.292969 0)"/>
     <use xlink:href="#DejaVuSerif-Italic-4b" transform="translate(155.46875 0)"/>
     <use xlink:href="#DejaVuSerif-Italic-69" transform="translate(230.175781 0)"/>
     <use xlink:href="#DejaVuSerif-Italic-74" transform="translate(262.158203 0)"/>
     <use xlink:href="#DejaVuSerif-Italic-20" transform="translate(302.34375 0)"/>
     <use xlink:href="#DejaVuSerif-Italic-63" transform="translate(334.130859 0)"/>
     <use xlink:href="#DejaVuSerif-Italic-61" transform="translate(390.136719 0)"/>
     <use xlink:href="#DejaVuSerif-Italic-6e" transform="translate(449.755859 0)"/>
     <use xlink:href="#DejaVuSerif-Italic-6f" transform="translate(514.160156 0)"/>
     <use xlink:href="#DejaVuSerif-Italic-6e" transform="translate(574.365234 0)"/>
     <use xlink:href="#DejaVuSerif-Italic-69" transform="translate(638.769531 0)"/>
     <use xlink:href="#DejaVuSerif-Italic-63" transform="translate(670.751953 0)"/>
     <use xlink:href="#DejaVuSerif-Italic-61" transform="translate(726.757812 0)"/>
     <use xlink:href="#DejaVuSerif-Italic-6c" transform="translate(786.376953 0)"/>
     <use xlink:href="#DejaVuSerif-Italic-20" transform="translate(818.359375 0)"/>
     <use xlink:href="#DejaVuSerif-Italic-2b" transform="translate(850.146484 0)"/>
     <use xlink:href="#DejaVuSerif-Italic-20" transform="translate(933.935547 0)"/>
     <use xlink:href="#DejaVuSerif-Italic-76" transform="translate(965.722656 0)"/>
     <use xlink:href="#DejaVuSerif-Italic-61" transform="translate(1022.216797 0)"/>
     <use xlink:href="#DejaVuSerif-Italic-6c" transform="translate(1081.835938 0)"/>
     <use xlink:href="#DejaVuSerif-Italic-65" transform="translate(1113.818359 0)"/>
     <use xlink:href="#DejaVuSerif-Italic-6e" transform="translate(1172.998047 0)"/>
     <use xlink:href="#DejaVuSerif-Italic-63" transform="translate(1237.402344 0)"/>
     <use xlink:href="#DejaVuSerif-Italic-65" transform="translate(1293.408203 0)"/>
    </g>
   </g>
   <g id="text_7">
    <!-- SMARTS gate -->
    <g style="fill: #1f2c3a" transform="translate(472.586438 98.888063) scale(0.108 -0.108)">
     <defs>
      <path id="DejaVuSerif-Bold-41" d="M -50 0 
L -50 378 
L 331 378 
L 2088 4666 
L 2834 4666 
L 4594 378 
L 5038 378 
L 5038 0 
L 2853 0 
L 2853 378 
L 3309 378 
L 2925 1331 
L 1172 1331 
L 781 378 
L 1338 378 
L 1338 0 
L -50 0 
z
M 1325 1709 
L 2772 1709 
L 2053 3494 
L 1325 1709 
z
" transform="scale(0.015625)"/>
      <path id="DejaVuSerif-Bold-52" d="M 3397 2278 
Q 3675 2238 3865 2094 
Q 4056 1950 4197 1678 
L 4878 378 
L 5356 378 
L 5356 0 
L 3822 0 
L 3078 1409 
Q 2863 1847 2711 1967 
Q 2559 2088 2291 2088 
L 2100 2088 
L 2100 378 
L 2700 378 
L 2700 0 
L 300 0 
L 300 378 
L 897 378 
L 897 4288 
L 300 4288 
L 300 4666 
L 2963 4666 
Q 3775 4666 4217 4339 
Q 4659 4013 4659 3413 
Q 4659 2925 4345 2642 
Q 4031 2359 3397 2278 
z
M 2100 2463 
L 2509 2463 
Q 2947 2463 3183 2700 
Q 3419 2938 3419 3378 
Q 3419 3819 3183 4053 
Q 2947 4288 2509 4288 
L 2100 4288 
L 2100 2463 
z
" transform="scale(0.015625)"/>
      <path id="DejaVuSerif-Bold-54" d="M 1159 0 
L 1159 378 
L 1778 378 
L 1778 4238 
L 500 4238 
L 500 3500 
L 72 3500 
L 72 4666 
L 4697 4666 
L 4697 3500 
L 4275 3500 
L 4275 4238 
L 2988 4238 
L 2988 378 
L 3609 378 
L 3609 0 
L 1159 0 
z
" transform="scale(0.015625)"/>
      <path id="DejaVuSerif-Bold-67" d="M 3853 2944 
L 3853 44 
Q 3853 -656 3354 -1039 
Q 2856 -1422 1947 -1422 
Q 1616 -1422 1275 -1370 
Q 934 -1319 575 -1216 
L 575 -422 
L 928 -422 
Q 975 -750 1192 -909 
Q 1409 -1069 1813 -1069 
Q 2325 -1069 2536 -823 
Q 2747 -578 2747 44 
L 2747 422 
Q 2606 163 2367 36 
Q 2128 -91 1778 -91 
Q 1072 -91 667 378 
Q 263 847 263 1663 
Q 263 2481 667 2947 
Q 1072 3413 1778 3413 
Q 2128 3413 2367 3286 
Q 2606 3159 2747 2900 
L 2747 3322 
L 4325 3322 
L 4325 2944 
L 3853 2944 
z
M 2747 1825 
Q 2747 2406 2597 2665 
Q 2447 2925 2119 2925 
Q 1775 2925 1636 2651 
Q 1497 2378 1497 1663 
Q 1497 947 1637 672 
Q 1778 397 2119 397 
Q 2447 397 2597 656 
Q 2747 916 2747 1497 
L 2747 1825 
z
" transform="scale(0.015625)"/>
      <path id="DejaVuSerif-Bold-61" d="M 3525 2041 
L 3525 378 
L 4000 378 
L 4000 0 
L 2419 0 
L 2419 422 
Q 2200 159 1931 34 
Q 1663 -91 1319 -91 
Q 809 -91 536 182 
Q 263 456 263 966 
Q 263 1525 655 1803 
Q 1047 2081 1838 2081 
L 2419 2081 
L 2419 2278 
Q 2419 2681 2228 2873 
Q 2038 3066 1638 3066 
Q 1306 3066 1126 2930 
Q 947 2794 872 2484 
L 519 2484 
L 519 3200 
Q 816 3306 1134 3359 
Q 1453 3413 1806 3413 
Q 2697 3413 3111 3081 
Q 3525 2750 3525 2041 
z
M 2419 1044 
L 2419 1709 
L 2003 1709 
Q 1694 1709 1528 1540 
Q 1363 1372 1363 1056 
Q 1363 741 1483 584 
Q 1603 428 1850 428 
Q 2106 428 2262 597 
Q 2419 766 2419 1044 
z
" transform="scale(0.015625)"/>
      <path id="DejaVuSerif-Bold-74" d="M 634 2944 
L 153 2944 
L 153 3322 
L 634 3322 
L 634 4353 
L 1741 4353 
L 1741 3322 
L 2663 3322 
L 2663 2944 
L 1741 2944 
L 1741 909 
Q 1741 475 1809 369 
Q 1878 263 2059 263 
Q 2259 263 2356 397 
Q 2453 531 2459 813 
L 2925 813 
Q 2897 313 2651 111 
Q 2406 -91 1806 -91 
Q 1122 -91 878 123 
Q 634 338 634 909 
L 634 2944 
z
" transform="scale(0.015625)"/>
     </defs>
     <use xlink:href="#DejaVuSerif-Bold-53"/>
     <use xlink:href="#DejaVuSerif-Bold-4d" transform="translate(72.216797 0)"/>
     <use xlink:href="#DejaVuSerif-Bold-41" transform="translate(182.910156 0)"/>
     <use xlink:href="#DejaVuSerif-Bold-52" transform="translate(260.498047 0)"/>
     <use xlink:href="#DejaVuSerif-Bold-54" transform="translate(341.853516 0)"/>
     <use xlink:href="#DejaVuSerif-Bold-53" transform="translate(416.267578 0)"/>
     <use xlink:href="#DejaVuSerif-Bold-20" transform="translate(488.484375 0)"/>
     <use xlink:href="#DejaVuSerif-Bold-67" transform="translate(523.298828 0)"/>
     <use xlink:href="#DejaVuSerif-Bold-61" transform="translate(593.220703 0)"/>
     <use xlink:href="#DejaVuSerif-Bold-74" transform="translate(658.015625 0)"/>
     <use xlink:href="#DejaVuSerif-Bold-65" transform="translate(704.207031 0)"/>
    </g>
   </g>
   <g id="text_8">
    <!-- Stage 1: rules + red-flags -->
    <g style="fill: #5a6a7a" transform="translate(460.619313 117.795891) scale(0.082 -0.082)">
     <defs>
      <path id="DejaVuSerif-Italic-67" d="M 3822 3322 
L 3188 72 
Q 3044 -672 2581 -1031 
Q 2078 -1422 1381 -1422 
Q 1053 -1422 765 -1362 
Q 478 -1303 225 -1184 
L 363 -488 
L 663 -488 
Q 653 -813 834 -963 
Q 1016 -1113 1406 -1113 
Q 1913 -1113 2203 -825 
Q 2494 -544 2613 72 
L 2700 519 
Q 2472 206 2181 57 
Q 1891 -91 1525 -91 
Q 975 -91 697 281 
Q 522 516 503 841 
Q 491 1031 534 1256 
Q 750 2359 1516 2928 
Q 2169 3409 2931 3413 
Q 3631 3416 3822 3322 
z
M 3184 2988 
Q 3181 3094 2844 3094 
Q 2234 3094 1775 2625 
Q 1316 2153 1147 1297 
Q 1100 1044 1113 853 
Q 1125 659 1203 528 
Q 1356 269 1756 269 
Q 2194 269 2484 583 
Q 2775 897 2891 1497 
L 2953 1825 
L 3184 2988 
z
" transform="scale(0.015625)"/>
      <path id="DejaVuSerif-Italic-3a" d="M 529 29 
Q 434 150 468 325 
Q 503 500 647 622 
Q 791 744 966 744 
Q 1141 744 1237 622 
Q 1334 500 1300 325 
Q 1266 150 1123 29 
Q 981 -91 803 -91 
Q 625 -91 529 29 
z
M 926 2067 
Q 828 2188 862 2363 
Q 897 2538 1040 2658 
Q 1184 2778 1359 2778 
Q 1538 2778 1633 2659 
Q 1728 2541 1693 2362 
Q 1659 2184 1518 2065 
Q 1378 1947 1200 1947 
Q 1025 1947 926 2067 
z
" transform="scale(0.015625)"/>
      <path id="DejaVuSerif-Italic-75" d="M 3097 3322 
L 3672 3322 
L 3091 331 
L 3634 331 
L 3572 0 
L 2453 0 
L 2566 588 
Q 2341 256 2055 82 
Q 1769 -91 1434 -91 
Q 881 -91 681 225 
Q 559 413 559 734 
Q 559 944 613 1209 
L 956 2988 
L 438 2988 
L 503 3322 
L 1600 3322 
L 1225 1388 
Q 1163 1066 1163 853 
Q 1163 663 1213 556 
Q 1316 331 1697 331 
Q 2097 331 2364 625 
Q 2631 919 2738 1478 
L 3097 3322 
z
" transform="scale(0.015625)"/>
     </defs>
     <use xlink:href="#DejaVuSerif-Italic-53"/>
     <use xlink:href="#DejaVuSerif-Italic-74" transform="translate(68.505859 0)"/>
     <use xlink:href="#DejaVuSerif-Italic-61" transform="translate(108.691406 0)"/>
     <use xlink:href="#DejaVuSerif-Italic-67" transform="translate(168.310547 0)"/>
     <use xlink:href="#DejaVuSerif-Italic-65" transform="translate(232.324219 0)"/>
     <use xlink:href="#DejaVuSerif-Italic-20" transform="translate(291.503906 0)"/>
     <use xlink:href="#DejaVuSerif-Italic-31" transform="translate(323.291016 0)"/>
     <use xlink:href="#DejaVuSerif-Italic-3a" transform="translate(386.914062 0)"/>
     <use xlink:href="#DejaVuSerif-Italic-20" transform="translate(420.605469 0)"/>
     <use xlink:href="#DejaVuSerif-Italic-72" transform="translate(452.392578 0)"/>
     <use xlink:href="#DejaVuSerif-Italic-75" transform="translate(500.195312 0)"/>
     <use xlink:href="#DejaVuSerif-Italic-6c" transform="translate(564.599609 0)"/>
     <use xlink:href="#DejaVuSerif-Italic-65" transform="translate(596.582031 0)"/>
     <use xlink:href="#DejaVuSerif-Italic-73" transform="translate(655.761719 0)"/>
     <use xlink:href="#DejaVuSerif-Italic-20" transform="translate(707.080078 0)"/>
     <use xlink:href="#DejaVuSerif-Italic-2b" transform="translate(738.867188 0)"/>
     <use xlink:href="#DejaVuSerif-Italic-20" transform="translate(822.65625 0)"/>
     <use xlink:href="#DejaVuSerif-Italic-72" transform="translate(854.443359 0)"/>
     <use xlink:href="#DejaVuSerif-Italic-65" transform="translate(902.246094 0)"/>
     <use xlink:href="#DejaVuSerif-Italic-64" transform="translate(961.425781 0)"/>
     <use xlink:href="#DejaVuSerif-Italic-2d" transform="translate(1025.439453 0)"/>
     <use xlink:href="#DejaVuSerif-Italic-66" transform="translate(1059.228516 0)"/>
     <use xlink:href="#DejaVuSerif-Italic-6c" transform="translate(1096.240234 0)"/>
     <use xlink:href="#DejaVuSerif-Italic-61" transform="translate(1128.222656 0)"/>
     <use xlink:href="#DejaVuSerif-Italic-67" transform="translate(1187.841797 0)"/>
     <use xlink:href="#DejaVuSerif-Italic-73" transform="translate(1251.855469 0)"/>
    </g>
   </g>
   <g id="text_9">
    <!-- Pareto reranker -->
    <g style="fill: #1f2c3a" transform="translate(609.951844 100.506375) scale(0.108 -0.108)">
     <defs>
      <path id="DejaVuSerif-Bold-50" d="M 300 0 
L 300 378 
L 897 378 
L 897 4288 
L 300 4288 
L 300 4666 
L 2956 4666 
Q 3734 4666 4193 4295 
Q 4653 3925 4653 3303 
Q 4653 2678 4192 2304 
Q 3731 1931 2956 1931 
L 2100 1931 
L 2100 378 
L 2853 378 
L 2853 0 
L 300 0 
z
M 2100 2309 
L 2450 2309 
Q 2856 2309 3098 2579 
Q 3341 2850 3341 3303 
Q 3341 3753 3100 4020 
Q 2859 4288 2450 4288 
L 2100 4288 
L 2100 2309 
z
" transform="scale(0.015625)"/>
      <path id="DejaVuSerif-Bold-6e" d="M 219 0 
L 219 378 
L 691 378 
L 691 2944 
L 219 2944 
L 219 3322 
L 1797 3322 
L 1797 2853 
Q 1997 3150 2253 3281 
Q 2509 3413 2900 3413 
Q 3459 3413 3745 3083 
Q 4031 2753 4031 2113 
L 4031 378 
L 4506 378 
L 4506 0 
L 2522 0 
L 2522 378 
L 2925 378 
L 2925 2144 
Q 2925 2566 2817 2730 
Q 2709 2894 2444 2894 
Q 2109 2894 1953 2648 
Q 1797 2403 1797 1869 
L 1797 378 
L 2203 378 
L 2203 0 
L 219 0 
z
" transform="scale(0.015625)"/>
      <path id="DejaVuSerif-Bold-6b" d="M 2216 0 
L 219 0 
L 219 378 
L 691 378 
L 691 4488 
L 219 4488 
L 219 4863 
L 1797 4863 
L 1797 1741 
L 3138 2944 
L 2741 2944 
L 2741 3322 
L 4256 3322 
L 4256 2944 
L 3641 2944 
L 2784 2175 
L 4184 378 
L 4544 378 
L 4544 0 
L 2638 0 
L 2638 378 
L 3028 378 
L 2106 1563 
L 1797 1288 
L 1797 378 
L 2216 378 
L 2216 0 
z
" transform="scale(0.015625)"/>
     </defs>
     <use xlink:href="#DejaVuSerif-Bold-50"/>
     <use xlink:href="#DejaVuSerif-Bold-61" transform="translate(72.570312 0)"/>
     <use xlink:href="#DejaVuSerif-Bold-72" transform="translate(137.365234 0)"/>
     <use xlink:href="#DejaVuSerif-Bold-65" transform="translate(190.050781 0)"/>
     <use xlink:href="#DejaVuSerif-Bold-74" transform="translate(253.673828 0)"/>
     <use xlink:href="#DejaVuSerif-Bold-6f" transform="translate(299.865234 0)"/>
     <use xlink:href="#DejaVuSerif-Bold-20" transform="translate(366.564453 0)"/>
     <use xlink:href="#DejaVuSerif-Bold-72" transform="translate(401.378906 0)"/>
     <use xlink:href="#DejaVuSerif-Bold-65" transform="translate(454.064453 0)"/>
     <use xlink:href="#DejaVuSerif-Bold-72" transform="translate(517.6875 0)"/>
     <use xlink:href="#DejaVuSerif-Bold-61" transform="translate(570.373047 0)"/>
     <use xlink:href="#DejaVuSerif-Bold-6e" transform="translate(635.167969 0)"/>
     <use xlink:href="#DejaVuSerif-Bold-6b" transform="translate(707.873047 0)"/>
     <use xlink:href="#DejaVuSerif-Bold-65" transform="translate(777.160156 0)"/>
     <use xlink:href="#DejaVuSerif-Bold-72" transform="translate(840.783203 0)"/>
    </g>
   </g>
   <g id="text_10">
    <!-- Stage 2: composite score -->
    <g style="fill: #5a6a7a" transform="translate(605.859656 115.947344) scale(0.082 -0.082)">
     <defs>
      <path id="DejaVuSerif-Italic-6d" d="M 3503 2675 
Q 3741 3041 4034 3227 
Q 4328 3413 4672 3413 
Q 5194 3413 5388 3088 
Q 5503 2894 5503 2578 
Q 5503 2372 5453 2113 
L 5106 331 
L 5625 331 
L 5563 0 
L 4469 0 
L 4866 2047 
Q 4913 2291 4913 2466 
Q 4913 2659 4856 2772 
Q 4750 2988 4403 2988 
Q 4019 2988 3761 2697 
Q 3503 2406 3394 1850 
L 3034 0 
L 2459 0 
L 2863 2069 
Q 2906 2303 2906 2472 
Q 2906 2666 2850 2775 
Q 2741 2988 2394 2988 
Q 2009 2988 1751 2697 
Q 1494 2406 1384 1850 
L 1025 0 
L 450 0 
L 1031 2994 
L 481 2994 
L 544 3322 
L 1669 3322 
L 1556 2731 
Q 1778 3063 2059 3238 
Q 2341 3413 2653 3413 
Q 3041 3413 3262 3220 
Q 3484 3028 3503 2675 
z
" transform="scale(0.015625)"/>
      <path id="DejaVuSerif-Italic-70" d="M 1466 1825 
L 1400 1497 
Q 1353 1250 1353 1053 
Q 1353 769 1453 581 
Q 1622 269 2059 269 
Q 2500 269 2795 622 
Q 3091 975 3225 1663 
Q 3284 1978 3284 2225 
Q 3284 2513 3200 2703 
Q 3041 3053 2600 3053 
Q 2163 3053 1872 2737 
Q 1581 2422 1466 1825 
z
M 1116 2988 
L 563 2988 
L 628 3322 
L 1756 3322 
L 1656 2803 
Q 1884 3116 2175 3264 
Q 2466 3413 2850 3413 
Q 3463 3413 3753 2928 
Q 3947 2609 3947 2163 
Q 3947 1928 3897 1663 
Q 3744 881 3262 395 
Q 2781 -91 2169 -91 
Q 1784 -91 1551 57 
Q 1319 206 1213 519 
L 850 -1331 
L 275 -1331 
L 1116 2988 
z
" transform="scale(0.015625)"/>
     </defs>
     <use xlink:href="#DejaVuSerif-Italic-53"/>
     <use xlink:href="#DejaVuSerif-Italic-74" transform="translate(68.505859 0)"/>
     <use xlink:href="#DejaVuSerif-Italic-61" transform="translate(108.691406 0)"/>
     <use xlink:href="#DejaVuSerif-Italic-67" transform="translate(168.310547 0)"/>
     <use xlink:href="#DejaVuSerif-Italic-65" transform="translate(232.324219 0)"/>
     <use xlink:href="#DejaVuSerif-Italic-20" transform="translate(291.503906 0)"/>
     <use xlink:href="#DejaVuSerif-Italic-32" transform="translate(323.291016 0)"/>
     <use xlink:href="#DejaVuSerif-Italic-3a" transform="translate(386.914062 0)"/>
     <use xlink:href="#DejaVuSerif-Italic-20" transform="translate(420.605469 0)"/>
     <use xlink:href="#DejaVuSerif-Italic-63" transform="translate(452.392578 0)"/>
     <use xlink:href="#DejaVuSerif-Italic-6f" transform="translate(508.398438 0)"/>
     <use xlink:href="#DejaVuSerif-Italic-6d" transform="translate(568.603516 0)"/>
     <use xlink:href="#DejaVuSerif-Italic-70" transform="translate(663.427734 0)"/>
     <use xlink:href="#DejaVuSerif-Italic-6f" transform="translate(727.441406 0)"/>
     <use xlink:href="#DejaVuSerif-Italic-73" transform="translate(787.646484 0)"/>
     <use xlink:href="#DejaVuSerif-Italic-69" transform="translate(838.964844 0)"/>
     <use xlink:href="#DejaVuSerif-Italic-74" transform="translate(870.947266 0)"/>
     <use xlink:href="#DejaVuSerif-Italic-65" transform="translate(911.132812 0)"/>
     <use xlink:href="#DejaVuSerif-Italic-20" transform="translate(970.3125 0)"/>
     <use xlink:href="#DejaVuSerif-Italic-73" transform="translate(1002.099609 0)"/>
     <use xlink:href="#DejaVuSerif-Italic-63" transform="translate(1053.417969 0)"/>
     <use xlink:href="#DejaVuSerif-Italic-6f" transform="translate(1109.423828 0)"/>
     <use xlink:href="#DejaVuSerif-Italic-72" transform="translate(1169.628906 0)"/>
     <use xlink:href="#DejaVuSerif-Italic-65" transform="translate(1217.431641 0)"/>
    </g>
   </g>
   <g id="text_11">
    <!-- top-$K$ leads -->
    <g style="fill: #1f2c3a" transform="translate(755.028 101.961) scale(0.108 -0.108)">
     <defs>
      <path id="DejaVuSerif-Bold-70" d="M 1728 1825 
L 1728 1497 
Q 1728 916 1876 656 
Q 2025 397 2356 397 
Q 2697 397 2836 672 
Q 2975 947 2975 1663 
Q 2975 2378 2836 2651 
Q 2697 2925 2356 2925 
Q 2025 2925 1876 2665 
Q 1728 2406 1728 1825 
z
M 622 2944 
L 147 2944 
L 147 3322 
L 1728 3322 
L 1728 2900 
Q 1869 3159 2106 3286 
Q 2344 3413 2694 3413 
Q 3403 3413 3811 2945 
Q 4219 2478 4219 1663 
Q 4219 847 3811 378 
Q 3403 -91 2694 -91 
Q 2344 -91 2106 36 
Q 1869 163 1728 422 
L 1728 -953 
L 2241 -953 
L 2241 -1331 
L 147 -1331 
L 147 -953 
L 622 -953 
L 622 2944 
z
" transform="scale(0.015625)"/>
      <path id="DejaVuSerif-Bold-2d" d="M 347 2138 
L 2309 2138 
L 2309 1294 
L 347 1294 
L 347 2138 
z
" transform="scale(0.015625)"/>
      <path id="DejaVuSans-Oblique-4b" d="M 1081 4666 
L 1716 4666 
L 1331 2700 
L 3781 4666 
L 4622 4666 
L 1850 2438 
L 3878 0 
L 3109 0 
L 1247 2272 
L 806 0 
L 172 0 
L 1081 4666 
z
" transform="scale(0.015625)"/>
      <path id="DejaVuSerif-Bold-6c" d="M 1797 378 
L 2272 378 
L 2272 0 
L 219 0 
L 219 378 
L 691 378 
L 691 4488 
L 219 4488 
L 219 4863 
L 1797 4863 
L 1797 378 
z
" transform="scale(0.015625)"/>
      <path id="DejaVuSerif-Bold-73" d="M 300 97 
L 300 1025 
L 653 1025 
Q 697 653 931 458 
Q 1166 263 1569 263 
Q 1906 263 2086 380 
Q 2266 497 2266 716 
Q 2266 916 2152 1025 
Q 2038 1134 1709 1216 
L 1253 1331 
Q 738 1459 506 1698 
Q 275 1938 275 2344 
Q 275 2884 650 3148 
Q 1025 3413 1806 3413 
Q 2100 3413 2433 3364 
Q 2766 3316 3169 3213 
L 3169 2375 
L 2816 2375 
Q 2788 2716 2573 2887 
Q 2359 3059 1959 3059 
Q 1622 3059 1448 2951 
Q 1275 2844 1275 2638 
Q 1275 2469 1375 2372 
Q 1475 2275 1734 2209 
L 2188 2094 
Q 2841 1928 3091 1684 
Q 3341 1441 3341 1006 
Q 3341 444 2939 176 
Q 2538 -91 1691 -91 
Q 1381 -91 1034 -44 
Q 688 3 300 97 
z
" transform="scale(0.015625)"/>
     </defs>
     <use xlink:href="#DejaVuSerif-Bold-74" transform="translate(0 0.015625)"/>
     <use xlink:href="#DejaVuSerif-Bold-6f" transform="translate(46.191406 0.015625)"/>
     <use xlink:href="#DejaVuSerif-Bold-70" transform="translate(112.890625 0.015625)"/>
     <use xlink:href="#DejaVuSerif-Bold-2d" transform="translate(182.8125 0.015625)"/>
     <use xlink:href="#DejaVuSans-Oblique-4b" transform="translate(224.316406 0.015625)"/>
     <use xlink:href="#DejaVuSerif-Bold-20" transform="translate(289.892578 0.015625)"/>
     <use xlink:href="#DejaVuSerif-Bold-6c" transform="translate(324.707031 0.015625)"/>
     <use xlink:href="#DejaVuSerif-Bold-65" transform="translate(362.695312 0.015625)"/>
     <use xlink:href="#DejaVuSerif-Bold-61" transform="translate(426.318359 0.015625)"/>
     <use xlink:href="#DejaVuSerif-Bold-64" transform="translate(491.113281 0.015625)"/>
     <use xlink:href="#DejaVuSerif-Bold-73" transform="translate(561.035156 0.015625)"/>
    </g>
   </g>
   <g id="text_12">
    <!-- to xTB + DFT audit -->
    <g style="fill: #5a6a7a" transform="translate(748.040625 114.273688) scale(0.082 -0.082)">
     <defs>
      <path id="DejaVuSerif-Italic-78" d="M 409 0 
L 19 0 
L 1484 1594 
L 747 2988 
L 338 2988 
L 400 3322 
L 1244 3322 
L 1934 2028 
L 3125 3322 
L 3516 3322 
L 2078 1759 
L 2838 331 
L 3272 331 
L 3209 0 
L 2338 0 
L 1631 1325 
L 409 0 
z
" transform="scale(0.015625)"/>
      <path id="DejaVuSerif-Italic-54" d="M 769 0 
L 831 331 
L 1428 331 
L 2200 4294 
L 828 4294 
L 688 3566 
L 303 3566 
L 516 4666 
L 4659 4666 
L 4447 3566 
L 4063 3566 
L 4203 4294 
L 2831 4294 
L 2059 331 
L 2656 331 
L 2594 0 
L 769 0 
z
" transform="scale(0.015625)"/>
      <path id="DejaVuSerif-Italic-42" d="M 1194 331 
L 2128 331 
Q 2691 331 2998 575 
Q 3306 819 3409 1350 
Q 3513 1878 3302 2120 
Q 3091 2363 2525 2363 
L 1591 2363 
L 1194 331 
z
M 1653 2694 
L 2447 2694 
Q 2959 2694 3234 2891 
Q 3509 3088 3591 3513 
Q 3675 3941 3476 4136 
Q 3278 4331 2766 4331 
L 1972 4331 
L 1653 2694 
z
M -97 0 
L -34 331 
L 559 331 
L 1338 4331 
L 744 4331 
L 809 4666 
L 3113 4666 
Q 3819 4666 4120 4377 
Q 4422 4088 4309 3513 
Q 4231 3097 3934 2850 
Q 3638 2603 3147 2547 
Q 3728 2472 3976 2167 
Q 4225 1863 4125 1350 
Q 3991 656 3489 328 
Q 2988 0 2059 0 
L -97 0 
z
" transform="scale(0.015625)"/>
      <path id="DejaVuSerif-Italic-46" d="M -97 0 
L -34 331 
L 559 331 
L 1338 4331 
L 744 4331 
L 809 4666 
L 4628 4666 
L 4428 3628 
L 4044 3628 
L 4169 4281 
L 1963 4281 
L 1659 2719 
L 3253 2719 
L 3366 3303 
L 3750 3303 
L 3450 1753 
L 3066 1753 
L 3178 2338 
L 1584 2338 
L 1194 331 
L 1941 331 
L 1878 0 
L -97 0 
z
" transform="scale(0.015625)"/>
     </defs>
     <use xlink:href="#DejaVuSerif-Italic-74"/>
     <use xlink:href="#DejaVuSerif-Italic-6f" transform="translate(40.185547 0)"/>
     <use xlink:href="#DejaVuSerif-Italic-20" transform="translate(100.390625 0)"/>
     <use xlink:href="#DejaVuSerif-Italic-78" transform="translate(132.177734 0)"/>
     <use xlink:href="#DejaVuSerif-Italic-54" transform="translate(188.574219 0)"/>
     <use xlink:href="#DejaVuSerif-Italic-42" transform="translate(255.273438 0)"/>
     <use xlink:href="#DejaVuSerif-Italic-20" transform="translate(328.759766 0)"/>
     <use xlink:href="#DejaVuSerif-Italic-2b" transform="translate(360.546875 0)"/>
     <use xlink:href="#DejaVuSerif-Italic-20" transform="translate(444.335938 0)"/>
     <use xlink:href="#DejaVuSerif-Italic-44" transform="translate(476.123047 0)"/>
     <use xlink:href="#DejaVuSerif-Italic-46" transform="translate(556.298828 0)"/>
     <use xlink:href="#DejaVuSerif-Italic-54" transform="translate(625.683594 0)"/>
     <use xlink:href="#DejaVuSerif-Italic-20" transform="translate(692.382812 0)"/>
     <use xlink:href="#DejaVuSerif-Italic-61" transform="translate(724.169922 0)"/>
     <use xlink:href="#DejaVuSerif-Italic-75" transform="translate(783.789062 0)"/>
     <use xlink:href="#DejaVuSerif-Italic-64" transform="translate(848.193359 0)"/>
     <use xlink:href="#DejaVuSerif-Italic-69" transform="translate(912.207031 0)"/>
     <use xlink:href="#DejaVuSerif-Italic-74" transform="translate(944.189453 0)"/>
    </g>
   </g>
   <g id="text_13">
    <!-- 40,000 -->
    <g style="fill: #5a6a7a" transform="translate(139.328844 55.326388) scale(0.082 -0.082)">
     <defs>
      <path id="DejaVuSerif-Italic-2c" d="M 125 -622 
Q 463 -406 656 -114 
Q 850 178 931 594 
L 953 709 
L 1569 709 
Q 1441 175 1139 -208 
Q 838 -591 328 -872 
L 125 -622 
z
" transform="scale(0.015625)"/>
     </defs>
     <use xlink:href="#DejaVuSerif-Italic-34"/>
     <use xlink:href="#DejaVuSerif-Italic-30" transform="translate(63.623047 0)"/>
     <use xlink:href="#DejaVuSerif-Italic-2c" transform="translate(127.246094 0)"/>
     <use xlink:href="#DejaVuSerif-Italic-30" transform="translate(159.033203 0)"/>
     <use xlink:href="#DejaVuSerif-Italic-30" transform="translate(222.65625 0)"/>
     <use xlink:href="#DejaVuSerif-Italic-30" transform="translate(286.279297 0)"/>
    </g>
    <!-- samples -->
    <g style="fill: #5a6a7a" transform="translate(136.772109 63.573987) scale(0.082 -0.082)">
     <use xlink:href="#DejaVuSerif-Italic-73"/>
     <use xlink:href="#DejaVuSerif-Italic-61" transform="translate(51.318359 0)"/>
     <use xlink:href="#DejaVuSerif-Italic-6d" transform="translate(110.9375 0)"/>
     <use xlink:href="#DejaVuSerif-Italic-70" transform="translate(205.761719 0)"/>
     <use xlink:href="#DejaVuSerif-Italic-6c" transform="translate(269.775391 0)"/>
     <use xlink:href="#DejaVuSerif-Italic-65" transform="translate(301.757812 0)"/>
     <use xlink:href="#DejaVuSerif-Italic-73" transform="translate(360.9375 0)"/>
    </g>
   </g>
   <g id="text_14">
    <!-- 30,000 -->
    <g style="fill: #5a6a7a" transform="translate(283.478844 55.326388) scale(0.082 -0.082)">
     <defs>
      <path id="DejaVuSerif-Italic-33" d="M 1038 4469 
Q 1431 4606 1781 4678 
Q 2131 4750 2425 4750 
Q 3109 4750 3436 4454 
Q 3763 4159 3659 3634 
Q 3578 3213 3258 2930 
Q 2938 2647 2431 2547 
Q 2988 2466 3241 2130 
Q 3494 1794 3388 1259 
Q 3263 606 2755 257 
Q 2247 -91 1422 -91 
Q 1056 -91 723 -12 
Q 391 66 78 225 
L 253 1131 
L 603 1131 
Q 547 681 775 450 
Q 1003 219 1497 219 
Q 1975 219 2304 495 
Q 2634 772 2728 1253 
Q 2834 1803 2604 2086 
Q 2375 2369 1825 2369 
L 1528 2369 
L 1591 2688 
L 1747 2688 
Q 2294 2688 2611 2914 
Q 2928 3141 3019 3597 
Q 3097 4006 2914 4223 
Q 2731 4441 2309 4441 
Q 1888 4441 1616 4241 
Q 1344 4041 1228 3647 
L 878 3647 
L 1038 4469 
z
" transform="scale(0.015625)"/>
     </defs>
     <use xlink:href="#DejaVuSerif-Italic-33"/>
     <use xlink:href="#DejaVuSerif-Italic-30" transform="translate(63.623047 0)"/>
     <use xlink:href="#DejaVuSerif-Italic-2c" transform="translate(127.246094 0)"/>
     <use xlink:href="#DejaVuSerif-Italic-30" transform="translate(159.033203 0)"/>
     <use xlink:href="#DejaVuSerif-Italic-30" transform="translate(222.65625 0)"/>
     <use xlink:href="#DejaVuSerif-Italic-30" transform="translate(286.279297 0)"/>
    </g>
    <!-- parse-valid -->
    <g style="fill: #5a6a7a" transform="translate(274.871406 63.573987) scale(0.082 -0.082)">
     <use xlink:href="#DejaVuSerif-Italic-70"/>
     <use xlink:href="#DejaVuSerif-Italic-61" transform="translate(64.013672 0)"/>
     <use xlink:href="#DejaVuSerif-Italic-72" transform="translate(123.632812 0)"/>
     <use xlink:href="#DejaVuSerif-Italic-73" transform="translate(171.435547 0)"/>
     <use xlink:href="#DejaVuSerif-Italic-65" transform="translate(222.753906 0)"/>
     <use xlink:href="#DejaVuSerif-Italic-2d" transform="translate(281.933594 0)"/>
     <use xlink:href="#DejaVuSerif-Italic-76" transform="translate(315.722656 0)"/>
     <use xlink:href="#DejaVuSerif-Italic-61" transform="translate(372.216797 0)"/>
     <use xlink:href="#DejaVuSerif-Italic-6c" transform="translate(431.835938 0)"/>
     <use xlink:href="#DejaVuSerif-Italic-69" transform="translate(463.818359 0)"/>
     <use xlink:href="#DejaVuSerif-Italic-64" transform="translate(495.800781 0)"/>
    </g>
   </g>
   <g id="text_15">
    <!-- 12,000 -->
    <g style="fill: #5a6a7a" transform="translate(427.628844 55.326388) scale(0.082 -0.082)">
     <use xlink:href="#DejaVuSerif-Italic-31"/>
     <use xlink:href="#DejaVuSerif-Italic-32" transform="translate(63.623047 0)"/>
     <use xlink:href="#DejaVuSerif-Italic-2c" transform="translate(127.246094 0)"/>
     <use xlink:href="#DejaVuSerif-Italic-30" transform="translate(159.033203 0)"/>
     <use xlink:href="#DejaVuSerif-Italic-30" transform="translate(222.65625 0)"/>
     <use xlink:href="#DejaVuSerif-Italic-30" transform="translate(286.279297 0)"/>
    </g>
    <!-- SMILES -->
    <g style="fill: #5a6a7a" transform="translate(424.824828 63.573987) scale(0.082 -0.082)">
     <use xlink:href="#DejaVuSerif-Italic-53"/>
     <use xlink:href="#DejaVuSerif-Italic-4d" transform="translate(68.505859 0)"/>
     <use xlink:href="#DejaVuSerif-Italic-49" transform="translate(170.898438 0)"/>
     <use xlink:href="#DejaVuSerif-Italic-4c" transform="translate(210.400391 0)"/>
     <use xlink:href="#DejaVuSerif-Italic-45" transform="translate(276.806641 0)"/>
     <use xlink:href="#DejaVuSerif-Italic-53" transform="translate(349.804688 0)"/>
    </g>
   </g>
   <g id="text_16">
    <!-- 8,000 -->
    <g style="fill: #5a6a7a" transform="translate(574.387469 55.326388) scale(0.082 -0.082)">
     <defs>
      <path id="DejaVuSerif-Italic-38" d="M 2775 1275 
Q 2872 1775 2678 2051 
Q 2484 2328 2034 2328 
Q 1584 2328 1281 2051 
Q 978 1775 881 1275 
Q 784 772 979 495 
Q 1175 219 1625 219 
Q 2075 219 2376 495 
Q 2678 772 2775 1275 
z
M 3088 3541 
Q 3172 3966 3001 4203 
Q 2831 4441 2444 4441 
Q 2059 4441 1796 4203 
Q 1534 3966 1450 3541 
Q 1369 3113 1539 2875 
Q 1709 2638 2094 2638 
Q 2481 2638 2743 2875 
Q 3006 3113 3088 3541 
z
M 2547 2484 
Q 3063 2413 3297 2092 
Q 3531 1772 3434 1275 
Q 3309 619 2823 264 
Q 2338 -91 1563 -91 
Q 791 -91 444 264 
Q 97 619 222 1275 
Q 319 1772 678 2092 
Q 1038 2413 1588 2484 
Q 1131 2569 932 2842 
Q 734 3116 816 3541 
Q 925 4103 1376 4426 
Q 1828 4750 2506 4750 
Q 3184 4750 3507 4426 
Q 3831 4103 3722 3541 
Q 3641 3116 3336 2842 
Q 3031 2569 2547 2484 
z
" transform="scale(0.015625)"/>
     </defs>
     <use xlink:href="#DejaVuSerif-Italic-38"/>
     <use xlink:href="#DejaVuSerif-Italic-2c" transform="translate(63.623047 0)"/>
     <use xlink:href="#DejaVuSerif-Italic-30" transform="translate(95.410156 0)"/>
     <use xlink:href="#DejaVuSerif-Italic-30" transform="translate(159.033203 0)"/>
     <use xlink:href="#DejaVuSerif-Italic-30" transform="translate(222.65625 0)"/>
    </g>
    <!-- chem-pass -->
    <g style="fill: #5a6a7a" transform="translate(564.211141 63.573987) scale(0.082 -0.082)">
     <defs>
      <path id="DejaVuSerif-Italic-68" d="M 309 0 
L 1191 4531 
L 641 4531 
L 703 4863 
L 1828 4863 
L 1416 2731 
Q 1641 3069 1928 3241 
Q 2216 3413 2553 3413 
Q 3103 3413 3300 3097 
Q 3422 2906 3422 2588 
Q 3422 2378 3369 2113 
L 3022 331 
L 3534 331 
L 3472 0 
L 2381 0 
L 2756 1931 
Q 2819 2253 2819 2469 
Q 2819 2659 2769 2763 
Q 2666 2988 2284 2988 
Q 1884 2988 1617 2697 
Q 1350 2406 1244 1850 
L 884 0 
L 309 0 
z
" transform="scale(0.015625)"/>
     </defs>
     <use xlink:href="#DejaVuSerif-Italic-63"/>
     <use xlink:href="#DejaVuSerif-Italic-68" transform="translate(56.005859 0)"/>
     <use xlink:href="#DejaVuSerif-Italic-65" transform="translate(120.410156 0)"/>
     <use xlink:href="#DejaVuSerif-Italic-6d" transform="translate(179.589844 0)"/>
     <use xlink:href="#DejaVuSerif-Italic-2d" transform="translate(274.414062 0)"/>
     <use xlink:href="#DejaVuSerif-Italic-70" transform="translate(308.203125 0)"/>
     <use xlink:href="#DejaVuSerif-Italic-61" transform="translate(372.216797 0)"/>
     <use xlink:href="#DejaVuSerif-Italic-73" transform="translate(431.835938 0)"/>
     <use xlink:href="#DejaVuSerif-Italic-73" transform="translate(483.154297 0)"/>
    </g>
   </g>
   <g id="text_17">
    <!-- 100 -->
    <g style="fill: #5a6a7a" transform="translate(717.799125 55.326388) scale(0.082 -0.082)">
     <use xlink:href="#DejaVuSerif-Italic-31"/>
     <use xlink:href="#DejaVuSerif-Italic-30" transform="translate(63.623047 0)"/>
     <use xlink:href="#DejaVuSerif-Italic-30" transform="translate(127.246094 0)"/>
    </g>
    <!-- leads -->
    <g style="fill: #5a6a7a" transform="translate(714.713875 63.573987) scale(0.082 -0.082)">
     <use xlink:href="#DejaVuSerif-Italic-6c"/>
     <use xlink:href="#DejaVuSerif-Italic-65" transform="translate(31.982422 0)"/>
     <use xlink:href="#DejaVuSerif-Italic-61" transform="translate(91.162109 0)"/>
     <use xlink:href="#DejaVuSerif-Italic-64" transform="translate(150.78125 0)"/>
     <use xlink:href="#DejaVuSerif-Italic-73" transform="translate(214.794922 0)"/>
    </g>
   </g>
   <g id="text_18">
    <!-- candidates surviving each stage  (illustrative scale) -->
    <g style="fill: #5a6a7a" transform="translate(14.175 42.115688) scale(0.088 -0.088)">
     <defs>
      <path id="DejaVuSerif-BoldItalic-63" d="M 3488 1038 
Q 3259 469 2837 189 
Q 2416 -91 1784 -91 
Q 897 -91 500 369 
Q 216 694 216 1213 
Q 216 1422 263 1663 
Q 422 2488 994 2950 
Q 1566 3413 2422 3413 
Q 2769 3413 3109 3347 
Q 3450 3281 3791 3150 
L 3609 2228 
L 3259 2228 
Q 3266 2300 3266 2366 
Q 3266 2684 3134 2856 
Q 2978 3059 2622 3059 
Q 2159 3059 1903 2746 
Q 1647 2434 1497 1663 
Q 1419 1259 1419 981 
Q 1419 738 1478 588 
Q 1606 263 2038 263 
Q 2372 263 2612 463 
Q 2853 663 2969 1038 
L 3488 1038 
z
" transform="scale(0.015625)"/>
      <path id="DejaVuSerif-BoldItalic-61" d="M 2628 2738 
Q 2619 2925 2441 2925 
Q 2022 2925 1613 2425 
Q 1422 2194 1272 1422 
Q 1159 844 1240 620 
Q 1322 397 1619 397 
Q 1909 397 2092 656 
Q 2275 916 2388 1497 
L 2628 2738 
z
M 3691 3222 
L 3144 378 
L 3559 384 
L 3484 0 
L 2097 0 
L 2178 422 
Q 1834 -91 1225 -91 
Q 622 -91 353 307 
Q 84 706 222 1400 
Q 356 2097 956 2700 
Q 1666 3413 2616 3413 
Q 3553 3413 3691 3222 
z
" transform="scale(0.015625)"/>
      <path id="DejaVuSerif-BoldItalic-6e" d="M 359 0 
L 931 2944 
L 459 2944 
L 531 3322 
L 2109 3322 
L 2019 2853 
Q 2278 3150 2559 3281 
Q 2841 3413 3231 3413 
Q 3791 3413 4013 3081 
Q 4156 2872 4156 2534 
Q 4156 2344 4109 2113 
L 3772 378 
L 4247 378 
L 4175 0 
L 2594 0 
L 3009 2144 
Q 3053 2363 3053 2513 
Q 3053 2650 3016 2731 
Q 2941 2894 2675 2894 
Q 2341 2894 2136 2648 
Q 1931 2403 1828 1869 
L 1466 0 
L 359 0 
z
" transform="scale(0.015625)"/>
      <path id="DejaVuSerif-BoldItalic-64" d="M 2575 1497 
L 2638 1825 
Q 2697 2134 2697 2353 
Q 2697 2544 2650 2666 
Q 2553 2925 2225 2925 
Q 1881 2925 1689 2651 
Q 1497 2378 1356 1663 
Q 1272 1222 1272 950 
Q 1272 778 1303 672 
Q 1391 397 1731 397 
Q 2059 397 2261 656 
Q 2463 916 2575 1497 
z
M 4334 4863 
L 3391 0 
L 2284 0 
L 2366 422 
Q 2175 163 1911 36 
Q 1647 -91 1297 -91 
Q 591 -91 278 378 
Q 69 691 69 1153 
Q 69 1388 122 1663 
Q 281 2481 776 2947 
Q 1272 3413 1978 3413 
Q 2328 3413 2542 3286 
Q 2756 3159 2847 2900 
L 3156 4488 
L 2681 4488 
L 2753 4863 
L 4334 4863 
z
" transform="scale(0.015625)"/>
      <path id="DejaVuSerif-BoldItalic-69" d="M 944 4263 
Q 994 4516 1201 4689 
Q 1409 4863 1663 4863 
Q 1909 4863 2050 4688 
Q 2153 4559 2153 4388 
Q 2153 4328 2141 4263 
Q 2094 4016 1886 3842 
Q 1678 3669 1431 3669 
Q 1178 3669 1038 3841 
Q 931 3969 931 4141 
Q 931 4200 944 4263 
z
M 1397 378 
L 1872 378 
L 1800 0 
L 219 0 
L 791 2944 
L 319 2944 
L 391 3322 
L 1969 3322 
L 1397 378 
z
" transform="scale(0.015625)"/>
      <path id="DejaVuSerif-BoldItalic-74" d="M 794 2944 
L 313 2944 
L 384 3322 
L 866 3322 
L 1066 4353 
L 2172 4353 
L 1972 3322 
L 2894 3322 
L 2822 2944 
L 1900 2944 
L 1503 909 
Q 1450 631 1450 491 
Q 1450 406 1466 369 
Q 1516 263 1697 263 
Q 1897 263 2019 397 
Q 2141 531 2203 813 
L 2669 813 
Q 2544 313 2259 111 
Q 1975 -91 1375 -91 
Q 691 -91 488 125 
Q 356 263 356 550 
Q 356 706 397 909 
L 794 2944 
z
" transform="scale(0.015625)"/>
      <path id="DejaVuSerif-BoldItalic-65" d="M 2688 2600 
Q 2688 3059 2300 3059 
Q 2003 3059 1828 2779 
Q 1653 2500 1494 1622 
Q 1494 1622 1563 1622 
Q 2519 1622 2666 2381 
Q 2688 2500 2688 2600 
z
M 1419 1250 
Q 1400 1144 1400 922 
Q 1403 263 2044 263 
Q 2403 263 2662 453 
Q 2922 644 3053 1006 
L 3572 1006 
Q 3328 441 2876 175 
Q 2425 -91 1706 -91 
Q 844 -91 472 363 
Q 213 681 213 1184 
Q 213 1400 263 1653 
Q 422 2488 984 2950 
Q 1547 3413 2372 3413 
Q 2969 3413 3383 3180 
Q 3797 2947 3797 2525 
Q 3797 2441 3778 2350 
Q 3581 1338 1419 1250 
z
" transform="scale(0.015625)"/>
      <path id="DejaVuSerif-BoldItalic-73" d="M 175 1025 
L 528 1025 
Q 525 978 525 934 
Q 525 628 709 445 
Q 894 263 1266 263 
Q 1994 263 2081 716 
Q 2094 775 2094 863 
Q 2094 947 2014 1040 
Q 1934 1134 1622 1216 
L 1188 1331 
Q 697 1459 540 1662 
Q 384 1866 384 2116 
Q 384 2222 406 2344 
Q 513 2884 939 3148 
Q 1366 3413 2047 3413 
Q 2728 3413 3472 3213 
L 3306 2375 
L 2953 2375 
Q 2963 2434 2963 2488 
Q 2963 3059 2256 3059 
Q 1547 3059 1466 2638 
Q 1456 2588 1456 2516 
Q 1456 2313 1841 2209 
L 2272 2094 
Q 2894 1928 3066 1720 
Q 3238 1513 3238 1244 
Q 3238 1134 3213 1006 
Q 3103 444 2650 176 
Q 2197 -91 1350 -91 
Q 734 -91 -3 97 
L 175 1025 
z
" transform="scale(0.015625)"/>
      <path id="DejaVuSerif-BoldItalic-20" transform="scale(0.015625)"/>
      <path id="DejaVuSerif-BoldItalic-75" d="M 4294 3322 
L 3722 378 
L 4194 378 
L 4122 0 
L 2541 0 
L 2631 469 
Q 2375 172 2094 40 
Q 1813 -91 1422 -91 
Q 863 -91 641 238 
Q 497 450 497 788 
Q 497 978 544 1209 
L 881 2944 
L 406 2944 
L 478 3322 
L 2059 3322 
L 1681 1381 
Q 1606 991 1606 781 
Q 1606 656 1634 594 
Q 1703 428 1978 428 
Q 2313 428 2516 675 
Q 2719 922 2822 1459 
L 3184 3322 
L 4294 3322 
z
" transform="scale(0.015625)"/>
      <path id="DejaVuSerif-BoldItalic-72" d="M 3759 3359 
L 3566 2369 
L 3213 2369 
Q 3222 2434 3222 2491 
Q 3222 2666 3147 2763 
Q 3047 2894 2809 2894 
Q 2447 2894 2175 2575 
Q 1903 2256 1794 1691 
L 1466 0 
L 359 0 
L 931 2944 
L 425 2944 
L 497 3322 
L 2109 3322 
L 1997 2731 
Q 2225 3078 2525 3245 
Q 2825 3413 3213 3413 
Q 3309 3413 3445 3398 
Q 3581 3384 3759 3359 
z
" transform="scale(0.015625)"/>
      <path id="DejaVuSerif-BoldItalic-76" d="M 1994 0 
L 1106 0 
L 500 2944 
L 134 2944 
L 206 3322 
L 1559 3322 
L 2069 844 
Q 2150 844 2653 1513 
Q 3113 2150 3316 2944 
L 2950 2944 
L 3025 3328 
L 3766 3322 
Q 3775 2544 3144 1500 
Q 2550 513 1994 0 
z
" transform="scale(0.015625)"/>
      <path id="DejaVuSerif-BoldItalic-67" d="M 3084 2738 
Q 3069 2925 2869 2925 
Q 2300 2925 1944 2425 
Q 1722 2109 1588 1422 
Q 1475 844 1570 620 
Q 1666 397 2006 397 
Q 2331 397 2531 656 
Q 2731 916 2844 1497 
L 3084 2738 
z
M 4266 3113 
L 3669 44 
Q 3519 -725 2959 -1038 
Q 2278 -1422 1478 -1422 
Q 1147 -1422 815 -1370 
Q 484 -1319 144 -1216 
L 300 -422 
L 653 -422 
Q 650 -450 650 -475 
Q 650 -763 822 -909 
Q 1009 -1069 1413 -1069 
Q 1925 -1069 2183 -823 
Q 2441 -578 2563 44 
L 2634 422 
Q 2253 -91 1550 -91 
Q 853 -91 531 307 
Q 209 706 344 1400 
Q 509 2250 1300 2863 
Q 2009 3413 3050 3413 
Q 3891 3413 4266 3113 
z
" transform="scale(0.015625)"/>
      <path id="DejaVuSerif-BoldItalic-68" d="M 219 0 
L 1091 4488 
L 597 4488 
L 669 4863 
L 2269 4863 
L 1878 2853 
Q 2138 3150 2419 3281 
Q 2700 3413 3091 3413 
Q 3650 3413 3872 3081 
Q 4013 2872 4013 2534 
Q 4013 2344 3969 2113 
L 3631 378 
L 4106 378 
L 4034 0 
L 2453 0 
L 2869 2144 
Q 2913 2363 2913 2513 
Q 2913 2650 2875 2731 
Q 2800 2894 2534 2894 
Q 2200 2894 1995 2648 
Q 1791 2403 1688 1869 
L 1325 0 
L 219 0 
z
" transform="scale(0.015625)"/>
      <path id="DejaVuSerif-BoldItalic-28" d="M 2125 -997 
Q 1147 -606 770 122 
Q 394 850 603 1931 
Q 813 3013 1466 3731 
Q 2119 4450 3263 4863 
L 3191 4488 
Q 2638 4188 2306 3598 
Q 1975 3009 1766 1931 
Q 1556 856 1659 267 
Q 1763 -322 2197 -622 
L 2125 -997 
z
" transform="scale(0.015625)"/>
      <path id="DejaVuSerif-BoldItalic-6c" d="M 1397 378 
L 1872 378 
L 1800 0 
L 219 0 
L 1091 4488 
L 619 4488 
L 691 4863 
L 2269 4863 
L 1397 378 
z
" transform="scale(0.015625)"/>
      <path id="DejaVuSerif-BoldItalic-29" d="M -241 -997 
L -169 -622 
Q 384 -322 715 267 
Q 1047 856 1256 1931 
Q 1466 3009 1362 3598 
Q 1259 4188 825 4488 
L 897 4863 
Q 1884 4450 2257 3731 
Q 2631 3013 2422 1931 
Q 2213 850 1550 122 
Q 888 -606 -241 -997 
z
" transform="scale(0.015625)"/>
     </defs>
     <use xlink:href="#DejaVuSerif-BoldItalic-63"/>
     <use xlink:href="#DejaVuSerif-BoldItalic-61" transform="translate(60.888672 0)"/>
     <use xlink:href="#DejaVuSerif-BoldItalic-6e" transform="translate(125.683594 0)"/>
     <use xlink:href="#DejaVuSerif-BoldItalic-64" transform="translate(198.388672 0)"/>
     <use xlink:href="#DejaVuSerif-BoldItalic-69" transform="translate(268.310547 0)"/>
     <use xlink:href="#DejaVuSerif-BoldItalic-64" transform="translate(306.298828 0)"/>
     <use xlink:href="#DejaVuSerif-BoldItalic-61" transform="translate(376.220703 0)"/>
     <use xlink:href="#DejaVuSerif-BoldItalic-74" transform="translate(441.015625 0)"/>
     <use xlink:href="#DejaVuSerif-BoldItalic-65" transform="translate(487.207031 0)"/>
     <use xlink:href="#DejaVuSerif-BoldItalic-73" transform="translate(550.830078 0)"/>
     <use xlink:href="#DejaVuSerif-BoldItalic-20" transform="translate(607.128906 0)"/>
     <use xlink:href="#DejaVuSerif-BoldItalic-73" transform="translate(641.943359 0)"/>
     <use xlink:href="#DejaVuSerif-BoldItalic-75" transform="translate(698.242188 0)"/>
     <use xlink:href="#DejaVuSerif-BoldItalic-72" transform="translate(770.947266 0)"/>
     <use xlink:href="#DejaVuSerif-BoldItalic-76" transform="translate(823.632812 0)"/>
     <use xlink:href="#DejaVuSerif-BoldItalic-69" transform="translate(881.738281 0)"/>
     <use xlink:href="#DejaVuSerif-BoldItalic-76" transform="translate(919.726562 0)"/>
     <use xlink:href="#DejaVuSerif-BoldItalic-69" transform="translate(977.832031 0)"/>
     <use xlink:href="#DejaVuSerif-BoldItalic-6e" transform="translate(1015.820312 0)"/>
     <use xlink:href="#DejaVuSerif-BoldItalic-67" transform="translate(1088.525391 0)"/>
     <use xlink:href="#DejaVuSerif-BoldItalic-20" transform="translate(1158.447266 0)"/>
     <use xlink:href="#DejaVuSerif-BoldItalic-65" transform="translate(1193.261719 0)"/>
     <use xlink:href="#DejaVuSerif-BoldItalic-61" transform="translate(1256.884766 0)"/>
     <use xlink:href="#DejaVuSerif-BoldItalic-63" transform="translate(1321.679688 0)"/>
     <use xlink:href="#DejaVuSerif-BoldItalic-68" transform="translate(1382.568359 0)"/>
     <use xlink:href="#DejaVuSerif-BoldItalic-20" transform="translate(1455.273438 0)"/>
     <use xlink:href="#DejaVuSerif-BoldItalic-73" transform="translate(1490.087891 0)"/>
     <use xlink:href="#DejaVuSerif-BoldItalic-74" transform="translate(1546.386719 0)"/>
     <use xlink:href="#DejaVuSerif-BoldItalic-61" transform="translate(1592.578125 0)"/>
     <use xlink:href="#DejaVuSerif-BoldItalic-67" transform="translate(1657.373047 0)"/>
     <use xlink:href="#DejaVuSerif-BoldItalic-65" transform="translate(1727.294922 0)"/>
     <use xlink:href="#DejaVuSerif-BoldItalic-20" transform="translate(1790.917969 0)"/>
     <use xlink:href="#DejaVuSerif-BoldItalic-20" transform="translate(1825.732422 0)"/>
     <use xlink:href="#DejaVuSerif-BoldItalic-28" transform="translate(1860.546875 0)"/>
     <use xlink:href="#DejaVuSerif-BoldItalic-69" transform="translate(1907.861328 0)"/>
     <use xlink:href="#DejaVuSerif-BoldItalic-6c" transform="translate(1945.849609 0)"/>
     <use xlink:href="#DejaVuSerif-BoldItalic-6c" transform="translate(1983.837891 0)"/>
     <use xlink:href="#DejaVuSerif-BoldItalic-75" transform="translate(2021.826172 0)"/>
     <use xlink:href="#DejaVuSerif-BoldItalic-73" transform="translate(2094.53125 0)"/>
     <use xlink:href="#DejaVuSerif-BoldItalic-74" transform="translate(2150.830078 0)"/>
     <use xlink:href="#DejaVuSerif-BoldItalic-72" transform="translate(2197.021484 0)"/>
     <use xlink:href="#DejaVuSerif-BoldItalic-61" transform="translate(2249.707031 0)"/>
     <use xlink:href="#DejaVuSerif-BoldItalic-74" transform="translate(2314.501953 0)"/>
     <use xlink:href="#DejaVuSerif-BoldItalic-69" transform="translate(2360.693359 0)"/>
     <use xlink:href="#DejaVuSerif-BoldItalic-76" transform="translate(2398.681641 0)"/>
     <use xlink:href="#DejaVuSerif-BoldItalic-65" transform="translate(2456.787109 0)"/>
     <use xlink:href="#DejaVuSerif-BoldItalic-20" transform="translate(2520.410156 0)"/>
     <use xlink:href="#DejaVuSerif-BoldItalic-73" transform="translate(2555.224609 0)"/>
     <use xlink:href="#DejaVuSerif-BoldItalic-63" transform="translate(2611.523438 0)"/>
     <use xlink:href="#DejaVuSerif-BoldItalic-61" transform="translate(2672.412109 0)"/>
     <use xlink:href="#DejaVuSerif-BoldItalic-6c" transform="translate(2737.207031 0)"/>
     <use xlink:href="#DejaVuSerif-BoldItalic-65" transform="translate(2775.195312 0)"/>
     <use xlink:href="#DejaVuSerif-BoldItalic-29" transform="translate(2838.818359 0)"/>
    </g>
   </g>
   <g id="patch_14">
    <path d="M 134.145 104.85 
Q 153.675 104.85 171.416146 104.85 
" style="fill: none; stroke: #27445d; stroke-width: 1.6; stroke-linecap: round"/>
    <path d="M 166.616146 102.45 
L 171.416146 104.85 
L 166.616146 107.25 
z
" style="fill: #27445d; stroke: #27445d; stroke-width: 1.6; stroke-linecap: round"/>
   </g>
   <g id="patch_15">
    <path d="M 278.295 104.85 
Q 297.825 104.85 315.566146 104.85 
" style="fill: none; stroke: #27445d; stroke-width: 1.6; stroke-linecap: round"/>
    <path d="M 310.766146 102.45 
L 315.566146 104.85 
L 310.766146 107.25 
z
" style="fill: #27445d; stroke: #27445d; stroke-width: 1.6; stroke-linecap: round"/>
   </g>
   <g id="patch_16">
    <path d="M 422.445 104.85 
Q 441.975 104.85 459.716146 104.85 
" style="fill: none; stroke: #27445d; stroke-width: 1.6; stroke-linecap: round"/>
    <path d="M 454.916146 102.45 
L 459.716146 104.85 
L 454.916146 107.25 
z
" style="fill: #27445d; stroke: #27445d; stroke-width: 1.6; stroke-linecap: round"/>
   </g>
   <g id="patch_17">
    <path d="M 566.595 104.85 
Q 586.125 104.85 603.866146 104.85 
" style="fill: none; stroke: #27445d; stroke-width: 1.6; stroke-linecap: round"/>
    <path d="M 599.066146 102.45 
L 603.866146 104.85 
L 599.066146 107.25 
z
" style="fill: #27445d; stroke: #27445d; stroke-width: 1.6; stroke-linecap: round"/>
   </g>
   <g id="patch_18">
    <path d="M 710.745 104.85 
Q 725.625 104.85 738.716146 104.85 
" style="fill: none; stroke: #27445d; stroke-width: 1.6; stroke-linecap: round"/>
    <path d="M 733.916146 102.45 
L 738.716146 104.85 
L 733.916146 107.25 
z
" style="fill: #27445d; stroke: #27445d; stroke-width: 1.6; stroke-linecap: round"/>
   </g>
  </g>
 </g>
 <defs>
  <clipPath id="p2aa5bb735b">
   <rect x="7.2" y="7.2" width="837" height="176.7"/>
  </clipPath>
 </defs>
</svg>
