<?xml version="1.0" encoding="utf-8" standalone="no"?>
<!DOCTYPE svg PUBLIC "-//W3C//DTD SVG 1.1//EN"
  "http://www.w3.org/Graphics/SVG/1.1/DTD/svg11.dtd">
<svg xmlns:xlink="http://www.w3.org/1999/xlink" width="638.1pt" height="291.6pt" viewBox="0 0 638.1 291.6" xmlns="http://www.w3.org/2000/svg" version="1.1">
 <metadata>
  <rdf:RDF xmlns:dc="http://purl.org/dc/elements/1.1/" xmlns:cc="http://creativecommons.org/ns#" xmlns:rdf="http://www.w3.org/1999/02/22-rdf-syntax-ns#">
   <cc:Work>
    <dc:type rdf:resource="http://purl.org/dc/dcmitype/StillImage"/>
    <dc:date>2026-04-28T16:19:49.044672</dc:date>
    <dc:format>image/svg+xml</dc:format>
    <dc:creator>
     <cc:Agent>
      <dc:title>Matplotlib v3.10.8, https://matplotlib.org/</dc:title>
     </cc:Agent>
    </dc:creator>
   </cc:Work>
  </rdf:RDF>
 </metadata>
 <defs>
  <style type="text/css">*{stroke-linejoin: round; stroke-linecap: butt}</style>
 </defs>
 <g id="figure_1">
  <g id="patch_1">
   <path d="M 0 291.6 
L 638.1 291.6 
L 638.1 0 
L 0 0 
z
" style="fill: #ffffff"/>
  </g>
  <g id="axes_1">
   <g id="patch_2">
    <path d="M 69.2928 110.8728 
L 535.5432 110.8728 
Q 540.5328 110.8728 540.5328 105.8832 
L 540.5328 41.5728 
Q 540.5328 36.5832 535.5432 36.5832 
L 69.2928 36.5832 
Q 64.3032 36.5832 64.3032 41.5728 
L 64.3032 105.8832 
Q 64.3032 110.8728 69.2928 110.8728 
z
" clip-path="url(#p2dc4674140)" style="fill: #0a1620; opacity: 0.08"/>
   </g>
   <g id="patch_3">
    <path d="M 75.9456 100.3392 
L 162.432 100.3392 
Q 166.8672 100.3392 166.8672 95.904 
L 166.8672 64.8576 
Q 166.8672 60.4224 162.432 60.4224 
L 75.9456 60.4224 
Q 71.5104 60.4224 71.5104 64.8576 
L 71.5104 95.904 
Q 71.5104 100.3392 75.9456 100.3392 
z
" clip-path="url(#p2dc4674140)" style="fill: #0a1620; opacity: 0.1"/>
   </g>
   <g id="patch_4">
    <path d="M 197.9136 100.3392 
L 284.4 100.3392 
Q 288.8352 100.3392 288.8352 95.904 
L 288.8352 64.8576 
Q 288.8352 60.4224 284.4 60.4224 
L 197.9136 60.4224 
Q 193.4784 60.4224 193.4784 64.8576 
L 193.4784 95.904 
Q 193.4784 100.3392 197.9136 100.3392 
z
" clip-path="url(#p2dc4674140)" style="fill: #0a1620; opacity: 0.1"/>
   </g>
   <g id="patch_5">
    <path d="M 319.8816 100.3392 
L 406.368 100.3392 
Q 410.8032 100.3392 410.8032 95.904 
L 410.8032 64.8576 
Q 410.8032 60.4224 406.368 60.4224 
L 319.8816 60.4224 
Q 315.4464 60.4224 315.4464 64.8576 
L 315.4464 95.904 
Q 315.4464 100.3392 319.8816 100.3392 
z
" clip-path="url(#p2dc4674140)" style="fill: #0a1620; opacity: 0.1"/>
   </g>
   <g id="patch_6">
    <path d="M 441.8496 100.3392 
L 528.336 100.3392 
Q 532.7712 100.3392 532.7712 95.904 
L 532.7712 64.8576 
Q 532.7712 60.4224 528.336 60.4224 
L 441.8496 60.4224 
Q 437.4144 60.4224 437.4144 64.8576 
L 437.4144 95.904 
Q 437.4144 100.3392 441.8496 100.3392 
z
" clip-path="url(#p2dc4674140)" style="fill: #0a1620; opacity: 0.1"/>
   </g>
   <g id="patch_7">
    <path d="M 34.3656 226.4652 
L 104.22 226.4652 
Q 108.6552 226.4652 108.6552 222.03 
L 108.6552 182.6676 
Q 108.6552 178.2324 104.22 178.2324 
L 34.3656 178.2324 
Q 29.9304 178.2324 29.9304 182.6676 
L 29.9304 222.03 
Q 29.9304 226.4652 34.3656 226.4652 
z
" clip-path="url(#p2dc4674140)" style="fill: #0a1620; opacity: 0.1"/>
   </g>
   <g id="patch_8">
    <path d="M 195.1416 237.5532 
L 409.14 237.5532 
Q 413.5752 237.5532 413.5752 233.118 
L 413.5752 171.5796 
Q 413.5752 167.1444 409.14 167.1444 
L 195.1416 167.1444 
Q 190.7064 167.1444 190.7064 171.5796 
L 190.7064 233.118 
Q 190.7064 237.5532 195.1416 237.5532 
z
" clip-path="url(#p2dc4674140)" style="fill: #0a1620; opacity: 0.1"/>
   </g>
   <g id="patch_9">
    <path d="M 511.1496 226.4652 
L 581.004 226.4652 
Q 585.4392 226.4652 585.4392 222.03 
L 585.4392 182.6676 
Q 585.4392 178.2324 581.004 178.2324 
L 511.1496 178.2324 
Q 506.7144 178.2324 506.7144 182.6676 
L 506.7144 222.03 
Q 506.7144 226.4652 511.1496 226.4652 
z
" clip-path="url(#p2dc4674140)" style="fill: #0a1620; opacity: 0.1"/>
   </g>
   <g id="patch_10">
    <path d="M 67.9068 109.4868 
L 534.1572 109.4868 
Q 539.1468 109.4868 539.1468 104.4972 
L 539.1468 40.1868 
Q 539.1468 35.1972 534.1572 35.1972 
L 67.9068 35.1972 
Q 62.9172 35.1972 62.9172 40.1868 
L 62.9172 104.4972 
Q 62.9172 109.4868 67.9068 109.4868 
z
" clip-path="url(#p2dc4674140)" style="fill: #f4faf5; stroke: #3a7a4a; stroke-width: 1.6; stroke-linejoin: miter"/>
   </g>
   <g id="patch_11">
    <path d="M 74.8368 99.2304 
L 161.3232 99.2304 
Q 165.7584 99.2304 165.7584 94.7952 
L 165.7584 63.7488 
Q 165.7584 59.3136 161.3232 59.3136 
L 74.8368 59.3136 
Q 70.4016 59.3136 70.4016 63.7488 
L 70.4016 94.7952 
Q 70.4016 99.2304 74.8368 99.2304 
z
" clip-path="url(#p2dc4674140)" style="fill: #e3f1e3; stroke: #3a7a4a; stroke-width: 1.5; stroke-linejoin: miter"/>
   </g>
   <g id="patch_12">
    <path d="M 196.8048 99.2304 
L 283.2912 99.2304 
Q 287.7264 99.2304 287.7264 94.7952 
L 287.7264 63.7488 
Q 287.7264 59.3136 283.2912 59.3136 
L 196.8048 59.3136 
Q 192.3696 59.3136 192.3696 63.7488 
L 192.3696 94.7952 
Q 192.3696 99.2304 196.8048 99.2304 
z
" clip-path="url(#p2dc4674140)" style="fill: #e3f1e3; stroke: #3a7a4a; stroke-width: 1.5; stroke-linejoin: miter"/>
   </g>
   <g id="patch_13">
    <path d="M 318.7728 99.2304 
L 405.2592 99.2304 
Q 409.6944 99.2304 409.6944 94.7952 
L 409.6944 63.7488 
Q 409.6944 59.3136 405.2592 59.3136 
L 318.7728 59.3136 
Q 314.3376 59.3136 314.3376 63.7488 
L 314.3376 94.7952 
Q 314.3376 99.2304 318.7728 99.2304 
z
" clip-path="url(#p2dc4674140)" style="fill: #e3f1e3; stroke: #3a7a4a; stroke-width: 1.5; stroke-linejoin: miter"/>
   </g>
   <g id="patch_14">
    <path d="M 440.7408 99.2304 
L 527.2272 99.2304 
Q 531.6624 99.2304 531.6624 94.7952 
L 531.6624 63.7488 
Q 531.6624 59.3136 527.2272 59.3136 
L 440.7408 59.3136 
Q 436.3056 59.3136 436.3056 63.7488 
L 436.3056 94.7952 
Q 436.3056 99.2304 440.7408 99.2304 
z
" clip-path="url(#p2dc4674140)" style="fill: #e3f1e3; stroke: #3a7a4a; stroke-width: 1.5; stroke-linejoin: miter"/>
   </g>
   <g id="patch_15">
    <path d="M 33.2568 225.3564 
L 103.1112 225.3564 
Q 107.5464 225.3564 107.5464 220.9212 
L 107.5464 181.5588 
Q 107.5464 177.1236 103.1112 177.1236 
L 33.2568 177.1236 
Q 28.8216 177.1236 28.8216 181.5588 
L 28.8216 220.9212 
Q 28.8216 225.3564 33.2568 225.3564 
z
" clip-path="url(#p2dc4674140)" style="fill: #f6f3ed; stroke: #27445d; stroke-width: 1.5; stroke-linejoin: miter"/>
   </g>
   <g id="patch_16">
    <path d="M 194.0328 236.4444 
L 408.0312 236.4444 
Q 412.4664 236.4444 412.4664 232.0092 
L 412.4664 170.4708 
Q 412.4664 166.0356 408.0312 166.0356 
L 194.0328 166.0356 
Q 189.5976 166.0356 189.5976 170.4708 
L 189.5976 232.0092 
Q 189.5976 236.4444 194.0328 236.4444 
z
" clip-path="url(#p2dc4674140)" style="fill: #dde6e9; stroke: #27445d; stroke-width: 1.5; stroke-linejoin: miter"/>
   </g>
   <g id="patch_17">
    <path d="M 510.0408 225.3564 
L 579.8952 225.3564 
Q 584.3304 225.3564 584.3304 220.9212 
L 584.3304 181.5588 
Q 584.3304 177.1236 579.8952 177.1236 
L 510.0408 177.1236 
Q 505.6056 177.1236 505.6056 181.5588 
L 505.6056 220.9212 
Q 505.6056 225.3564 510.0408 225.3564 
z
" clip-path="url(#p2dc4674140)" style="fill: #fdf3d8; stroke: #b88a25; stroke-width: 1.5; stroke-linejoin: miter"/>
   </g>
   <g id="text_1">
    <!-- 4-head classifier (multi-head guidance) -->
    <g style="fill: #3a7a4a" transform="translate(190.106219 47.864681) scale(0.1 -0.1)">
     <defs>
      <path id="DejaVuSerif-Bold-34" d="M 4084 0 
L 1516 0 
L 1516 378 
L 2209 378 
L 2209 1228 
L 263 1228 
L 263 1588 
L 2216 4750 
L 3391 4750 
L 3391 1631 
L 4191 1631 
L 4191 1228 
L 3391 1228 
L 3391 378 
L 4084 378 
L 4084 0 
z
M 2209 1631 
L 2209 3897 
L 819 1631 
L 2209 1631 
z
" transform="scale(0.015625)"/>
      <path id="DejaVuSerif-Bold-2d" d="M 347 2138 
L 2309 2138 
L 2309 1294 
L 347 1294 
L 347 2138 
z
" transform="scale(0.015625)"/>
      <path id="DejaVuSerif-Bold-68" d="M 219 0 
L 219 378 
L 691 378 
L 691 4488 
L 197 4488 
L 197 4863 
L 1797 4863 
L 1797 2853 
Q 1997 3150 2253 3281 
Q 2509 3413 2900 3413 
Q 3459 3413 3745 3083 
Q 4031 2753 4031 2113 
L 4031 378 
L 4506 378 
L 4506 0 
L 2522 0 
L 2522 378 
L 2925 378 
L 2925 2144 
Q 2925 2566 2817 2730 
Q 2709 2894 2444 2894 
Q 2109 2894 1953 2648 
Q 1797 2403 1797 1869 
L 1797 378 
L 2203 378 
L 2203 0 
L 219 0 
z
" transform="scale(0.015625)"/>
      <path id="DejaVuSerif-Bold-65" d="M 2566 1875 
Q 2566 2531 2444 2795 
Q 2322 3059 2028 3059 
Q 1744 3059 1620 2800 
Q 1497 2541 1497 1931 
L 1497 1875 
L 2566 1875 
z
M 3781 1503 
L 1497 1503 
L 1497 1478 
Q 1497 834 1690 548 
Q 1884 263 2316 263 
Q 2675 263 2897 453 
Q 3119 644 3181 1006 
L 3700 1006 
Q 3566 441 3166 175 
Q 2766 -91 2047 -91 
Q 1184 -91 723 364 
Q 263 819 263 1663 
Q 263 2488 734 2950 
Q 1206 3413 2047 3413 
Q 2872 3413 3312 2927 
Q 3753 2441 3781 1503 
z
" transform="scale(0.015625)"/>
      <path id="DejaVuSerif-Bold-61" d="M 3525 2041 
L 3525 378 
L 4000 378 
L 4000 0 
L 2419 0 
L 2419 422 
Q 2200 159 1931 34 
Q 1663 -91 1319 -91 
Q 809 -91 536 182 
Q 263 456 263 966 
Q 263 1525 655 1803 
Q 1047 2081 1838 2081 
L 2419 2081 
L 2419 2278 
Q 2419 2681 2228 2873 
Q 2038 3066 1638 3066 
Q 1306 3066 1126 2930 
Q 947 2794 872 2484 
L 519 2484 
L 519 3200 
Q 816 3306 1134 3359 
Q 1453 3413 1806 3413 
Q 2697 3413 3111 3081 
Q 3525 2750 3525 2041 
z
M 2419 1044 
L 2419 1709 
L 2003 1709 
Q 1694 1709 1528 1540 
Q 1363 1372 1363 1056 
Q 1363 741 1483 584 
Q 1603 428 1850 428 
Q 2106 428 2262 597 
Q 2419 766 2419 1044 
z
" transform="scale(0.015625)"/>
      <path id="DejaVuSerif-Bold-64" d="M 2747 1497 
L 2747 1825 
Q 2747 2406 2597 2665 
Q 2447 2925 2119 2925 
Q 1775 2925 1636 2651 
Q 1497 2378 1497 1663 
Q 1497 947 1637 672 
Q 1778 397 2119 397 
Q 2447 397 2597 656 
Q 2747 916 2747 1497 
z
M 3853 378 
L 4325 378 
L 4325 0 
L 2747 0 
L 2747 422 
Q 2606 163 2367 36 
Q 2128 -91 1778 -91 
Q 1072 -91 667 378 
Q 263 847 263 1663 
Q 263 2481 667 2947 
Q 1072 3413 1778 3413 
Q 2128 3413 2367 3286 
Q 2606 3159 2747 2900 
L 2747 4488 
L 2272 4488 
L 2272 4863 
L 3853 4863 
L 3853 378 
z
" transform="scale(0.015625)"/>
      <path id="DejaVuSerif-Bold-20" transform="scale(0.015625)"/>
      <path id="DejaVuSerif-Bold-63" d="M 3609 1038 
Q 3491 469 3123 189 
Q 2756 -91 2125 -91 
Q 1238 -91 750 368 
Q 263 828 263 1663 
Q 263 2488 744 2950 
Q 1225 3413 2081 3413 
Q 2428 3413 2781 3347 
Q 3134 3281 3500 3150 
L 3500 2228 
L 3150 2228 
Q 3100 2650 2903 2854 
Q 2706 3059 2350 3059 
Q 1888 3059 1692 2746 
Q 1497 2434 1497 1663 
Q 1497 909 1687 586 
Q 1878 263 2309 263 
Q 2644 263 2845 463 
Q 3047 663 3091 1038 
L 3609 1038 
z
" transform="scale(0.015625)"/>
      <path id="DejaVuSerif-Bold-6c" d="M 1797 378 
L 2272 378 
L 2272 0 
L 219 0 
L 219 378 
L 691 378 
L 691 4488 
L 219 4488 
L 219 4863 
L 1797 4863 
L 1797 378 
z
" transform="scale(0.015625)"/>
      <path id="DejaVuSerif-Bold-73" d="M 300 97 
L 300 1025 
L 653 1025 
Q 697 653 931 458 
Q 1166 263 1569 263 
Q 1906 263 2086 380 
Q 2266 497 2266 716 
Q 2266 916 2152 1025 
Q 2038 1134 1709 1216 
L 1253 1331 
Q 738 1459 506 1698 
Q 275 1938 275 2344 
Q 275 2884 650 3148 
Q 1025 3413 1806 3413 
Q 2100 3413 2433 3364 
Q 2766 3316 3169 3213 
L 3169 2375 
L 2816 2375 
Q 2788 2716 2573 2887 
Q 2359 3059 1959 3059 
Q 1622 3059 1448 2951 
Q 1275 2844 1275 2638 
Q 1275 2469 1375 2372 
Q 1475 2275 1734 2209 
L 2188 2094 
Q 2841 1928 3091 1684 
Q 3341 1441 3341 1006 
Q 3341 444 2939 176 
Q 2538 -91 1691 -91 
Q 1381 -91 1034 -44 
Q 688 3 300 97 
z
" transform="scale(0.015625)"/>
      <path id="DejaVuSerif-Bold-69" d="M 588 4263 
Q 588 4516 763 4689 
Q 938 4863 1191 4863 
Q 1438 4863 1611 4689 
Q 1784 4516 1784 4263 
Q 1784 4016 1611 3842 
Q 1438 3669 1191 3669 
Q 938 3669 763 3841 
Q 588 4013 588 4263 
z
M 1797 378 
L 2272 378 
L 2272 0 
L 219 0 
L 219 378 
L 691 378 
L 691 2944 
L 219 2944 
L 219 3322 
L 1797 3322 
L 1797 378 
z
" transform="scale(0.015625)"/>
      <path id="DejaVuSerif-Bold-66" d="M 3097 4031 
L 2747 4031 
Q 2722 4275 2605 4394 
Q 2488 4513 2272 4513 
Q 2022 4513 1909 4333 
Q 1797 4153 1797 3750 
L 1797 3322 
L 2631 3322 
L 2631 2944 
L 1797 2944 
L 1797 378 
L 2438 378 
L 2438 0 
L 219 0 
L 219 378 
L 691 378 
L 691 2944 
L 197 2944 
L 197 3322 
L 691 3322 
L 691 3738 
Q 691 4291 1044 4577 
Q 1397 4863 2081 4863 
Q 2347 4863 2600 4833 
Q 2853 4803 3097 4744 
L 3097 4031 
z
" transform="scale(0.015625)"/>
      <path id="DejaVuSerif-Bold-72" d="M 3438 3359 
L 3438 2369 
L 3084 2369 
Q 3066 2634 2941 2764 
Q 2816 2894 2578 2894 
Q 2216 2894 2006 2575 
Q 1797 2256 1797 1691 
L 1797 378 
L 2400 378 
L 2400 0 
L 219 0 
L 219 378 
L 691 378 
L 691 2944 
L 184 2944 
L 184 3322 
L 1797 3322 
L 1797 2731 
Q 1959 3078 2226 3245 
Q 2494 3413 2881 3413 
Q 2978 3413 3117 3398 
Q 3256 3384 3438 3359 
z
" transform="scale(0.015625)"/>
      <path id="DejaVuSerif-Bold-28" d="M 2694 -997 
Q 1641 -606 1122 122 
Q 603 850 603 1931 
Q 603 3013 1115 3731 
Q 1628 4450 2694 4863 
L 2694 4488 
Q 2200 4188 1983 3598 
Q 1766 3009 1766 1931 
Q 1766 856 1983 267 
Q 2200 -322 2694 -622 
L 2694 -997 
z
" transform="scale(0.015625)"/>
      <path id="DejaVuSerif-Bold-6d" d="M 3884 2778 
Q 4116 3109 4384 3261 
Q 4653 3413 5013 3413 
Q 5584 3413 5867 3089 
Q 6150 2766 6150 2113 
L 6150 378 
L 6625 378 
L 6625 0 
L 4647 0 
L 4647 378 
L 5044 378 
L 5044 1947 
Q 5044 2569 4948 2731 
Q 4853 2894 4594 2894 
Q 4300 2894 4137 2667 
Q 3975 2441 3975 2022 
L 3975 378 
L 4372 378 
L 4372 0 
L 2472 0 
L 2472 378 
L 2869 378 
L 2869 1947 
Q 2869 2569 2772 2731 
Q 2675 2894 2419 2894 
Q 2122 2894 1959 2667 
Q 1797 2441 1797 2022 
L 1797 378 
L 2194 378 
L 2194 0 
L 219 0 
L 219 378 
L 691 378 
L 691 2944 
L 219 2944 
L 219 3322 
L 1797 3322 
L 1797 2853 
Q 1991 3144 2241 3278 
Q 2491 3413 2834 3413 
Q 3241 3413 3494 3258 
Q 3747 3103 3884 2778 
z
" transform="scale(0.015625)"/>
      <path id="DejaVuSerif-Bold-75" d="M 3963 3322 
L 3963 378 
L 4434 378 
L 4434 0 
L 2853 0 
L 2853 469 
Q 2656 172 2400 40 
Q 2144 -91 1753 -91 
Q 1194 -91 908 239 
Q 622 569 622 1209 
L 622 2944 
L 147 2944 
L 147 3322 
L 1728 3322 
L 1728 1381 
Q 1728 763 1831 595 
Q 1934 428 2209 428 
Q 2544 428 2698 675 
Q 2853 922 2853 1459 
L 2853 2944 
L 2450 2944 
L 2450 3322 
L 3963 3322 
z
" transform="scale(0.015625)"/>
      <path id="DejaVuSerif-Bold-74" d="M 634 2944 
L 153 2944 
L 153 3322 
L 634 3322 
L 634 4353 
L 1741 4353 
L 1741 3322 
L 2663 3322 
L 2663 2944 
L 1741 2944 
L 1741 909 
Q 1741 475 1809 369 
Q 1878 263 2059 263 
Q 2259 263 2356 397 
Q 2453 531 2459 813 
L 2925 813 
Q 2897 313 2651 111 
Q 2406 -91 1806 -91 
Q 1122 -91 878 123 
Q 634 338 634 909 
L 634 2944 
z
" transform="scale(0.015625)"/>
      <path id="DejaVuSerif-Bold-67" d="M 3853 2944 
L 3853 44 
Q 3853 -656 3354 -1039 
Q 2856 -1422 1947 -1422 
Q 1616 -1422 1275 -1370 
Q 934 -1319 575 -1216 
L 575 -422 
L 928 -422 
Q 975 -750 1192 -909 
Q 1409 -1069 1813 -1069 
Q 2325 -1069 2536 -823 
Q 2747 -578 2747 44 
L 2747 422 
Q 2606 163 2367 36 
Q 2128 -91 1778 -91 
Q 1072 -91 667 378 
Q 263 847 263 1663 
Q 263 2481 667 2947 
Q 1072 3413 1778 3413 
Q 2128 3413 2367 3286 
Q 2606 3159 2747 2900 
L 2747 3322 
L 4325 3322 
L 4325 2944 
L 3853 2944 
z
M 2747 1825 
Q 2747 2406 2597 2665 
Q 2447 2925 2119 2925 
Q 1775 2925 1636 2651 
Q 1497 2378 1497 1663 
Q 1497 947 1637 672 
Q 1778 397 2119 397 
Q 2447 397 2597 656 
Q 2747 916 2747 1497 
L 2747 1825 
z
" transform="scale(0.015625)"/>
      <path id="DejaVuSerif-Bold-6e" d="M 219 0 
L 219 378 
L 691 378 
L 691 2944 
L 219 2944 
L 219 3322 
L 1797 3322 
L 1797 2853 
Q 1997 3150 2253 3281 
Q 2509 3413 2900 3413 
Q 3459 3413 3745 3083 
Q 4031 2753 4031 2113 
L 4031 378 
L 4506 378 
L 4506 0 
L 2522 0 
L 2522 378 
L 2925 378 
L 2925 2144 
Q 2925 2566 2817 2730 
Q 2709 2894 2444 2894 
Q 2109 2894 1953 2648 
Q 1797 2403 1797 1869 
L 1797 378 
L 2203 378 
L 2203 0 
L 219 0 
z
" transform="scale(0.015625)"/>
      <path id="DejaVuSerif-Bold-29" d="M 325 -997 
L 325 -622 
Q 819 -322 1036 267 
Q 1253 856 1253 1931 
Q 1253 3009 1036 3598 
Q 819 4188 325 4488 
L 325 4863 
Q 1391 4450 1905 3731 
Q 2419 3013 2419 1931 
Q 2419 850 1898 122 
Q 1378 -606 325 -997 
z
" transform="scale(0.015625)"/>
     </defs>
     <use xlink:href="#DejaVuSerif-Bold-34"/>
     <use xlink:href="#DejaVuSerif-Bold-2d" transform="translate(69.580078 0)"/>
     <use xlink:href="#DejaVuSerif-Bold-68" transform="translate(111.083984 0)"/>
     <use xlink:href="#DejaVuSerif-Bold-65" transform="translate(183.789062 0)"/>
     <use xlink:href="#DejaVuSerif-Bold-61" transform="translate(247.412109 0)"/>
     <use xlink:href="#DejaVuSerif-Bold-64" transform="translate(312.207031 0)"/>
     <use xlink:href="#DejaVuSerif-Bold-20" transform="translate(382.128906 0)"/>
     <use xlink:href="#DejaVuSerif-Bold-63" transform="translate(416.943359 0)"/>
     <use xlink:href="#DejaVuSerif-Bold-6c" transform="translate(477.832031 0)"/>
     <use xlink:href="#DejaVuSerif-Bold-61" transform="translate(515.820312 0)"/>
     <use xlink:href="#DejaVuSerif-Bold-73" transform="translate(580.615234 0)"/>
     <use xlink:href="#DejaVuSerif-Bold-73" transform="translate(636.914062 0)"/>
     <use xlink:href="#DejaVuSerif-Bold-69" transform="translate(693.212891 0)"/>
     <use xlink:href="#DejaVuSerif-Bold-66" transform="translate(731.201172 0)"/>
     <use xlink:href="#DejaVuSerif-Bold-69" transform="translate(774.21875 0)"/>
     <use xlink:href="#DejaVuSerif-Bold-65" transform="translate(812.207031 0)"/>
     <use xlink:href="#DejaVuSerif-Bold-72" transform="translate(875.830078 0)"/>
     <use xlink:href="#DejaVuSerif-Bold-20" transform="translate(928.515625 0)"/>
     <use xlink:href="#DejaVuSerif-Bold-28" transform="translate(963.330078 0)"/>
     <use xlink:href="#DejaVuSerif-Bold-6d" transform="translate(1010.644531 0)"/>
     <use xlink:href="#DejaVuSerif-Bold-75" transform="translate(1116.455078 0)"/>
     <use xlink:href="#DejaVuSerif-Bold-6c" transform="translate(1189.160156 0)"/>
     <use xlink:href="#DejaVuSerif-Bold-74" transform="translate(1227.148438 0)"/>
     <use xlink:href="#DejaVuSerif-Bold-69" transform="translate(1273.339844 0)"/>
     <use xlink:href="#DejaVuSerif-Bold-2d" transform="translate(1311.328125 0)"/>
     <use xlink:href="#DejaVuSerif-Bold-68" transform="translate(1352.832031 0)"/>
     <use xlink:href="#DejaVuSerif-Bold-65" transform="translate(1425.537109 0)"/>
     <use xlink:href="#DejaVuSerif-Bold-61" transform="translate(1489.160156 0)"/>
     <use xlink:href="#DejaVuSerif-Bold-64" transform="translate(1553.955078 0)"/>
     <use xlink:href="#DejaVuSerif-Bold-20" transform="translate(1623.876953 0)"/>
     <use xlink:href="#DejaVuSerif-Bold-67" transform="translate(1658.691406 0)"/>
     <use xlink:href="#DejaVuSerif-Bold-75" transform="translate(1728.613281 0)"/>
     <use xlink:href="#DejaVuSerif-Bold-69" transform="translate(1801.318359 0)"/>
     <use xlink:href="#DejaVuSerif-Bold-64" transform="translate(1839.306641 0)"/>
     <use xlink:href="#DejaVuSerif-Bold-61" transform="translate(1909.228516 0)"/>
     <use xlink:href="#DejaVuSerif-Bold-6e" transform="translate(1974.023438 0)"/>
     <use xlink:href="#DejaVuSerif-Bold-63" transform="translate(2046.728516 0)"/>
     <use xlink:href="#DejaVuSerif-Bold-65" transform="translate(2107.617188 0)"/>
     <use xlink:href="#DejaVuSerif-Bold-29" transform="translate(2171.240234 0)"/>
    </g>
   </g>
   <g id="text_2">
    <!-- Viability -->
    <g style="fill: #1f2c3a" transform="translate(94.273359 75.028607) scale(0.102 -0.102)">
     <defs>
      <path id="DejaVuSerif-Bold-56" d="M 5056 4666 
L 5056 4288 
L 4666 4288 
L 2906 0 
L 2163 0 
L 403 4288 
L -38 4288 
L -38 4666 
L 2150 4666 
L 2150 4288 
L 1697 4288 
L 2956 1197 
L 4225 4288 
L 3669 4288 
L 3669 4666 
L 5056 4666 
z
" transform="scale(0.015625)"/>
      <path id="DejaVuSerif-Bold-62" d="M 622 378 
L 622 4488 
L 147 4488 
L 147 4863 
L 1728 4863 
L 1728 2900 
Q 1869 3159 2106 3286 
Q 2344 3413 2694 3413 
Q 3403 3413 3811 2945 
Q 4219 2478 4219 1663 
Q 4219 847 3811 378 
Q 3403 -91 2694 -91 
Q 2344 -91 2106 36 
Q 1869 163 1728 422 
L 1728 0 
L 147 0 
L 147 378 
L 622 378 
z
M 1728 1497 
Q 1728 916 1876 656 
Q 2025 397 2356 397 
Q 2697 397 2836 672 
Q 2975 947 2975 1663 
Q 2975 2378 2836 2651 
Q 2697 2925 2356 2925 
Q 2025 2925 1876 2665 
Q 1728 2406 1728 1825 
L 1728 1497 
z
" transform="scale(0.015625)"/>
      <path id="DejaVuSerif-Bold-79" d="M 1997 -750 
Q 1847 -1116 1634 -1269 
Q 1422 -1422 1063 -1422 
Q 909 -1422 721 -1387 
Q 534 -1353 313 -1288 
L 313 -594 
L 666 -597 
Q 675 -838 779 -953 
Q 884 -1069 1094 -1069 
Q 1297 -1069 1422 -958 
Q 1547 -847 1672 -538 
L 1722 -422 
L 275 2944 
L -84 2944 
L -84 3322 
L 1831 3322 
L 1831 2944 
L 1434 2944 
L 2278 978 
L 3066 2944 
L 2625 2944 
L 2625 3322 
L 3872 3322 
L 3872 2944 
L 3469 2944 
L 1997 -750 
z
" transform="scale(0.015625)"/>
     </defs>
     <use xlink:href="#DejaVuSerif-Bold-56"/>
     <use xlink:href="#DejaVuSerif-Bold-69" transform="translate(75.837891 0)"/>
     <use xlink:href="#DejaVuSerif-Bold-61" transform="translate(113.826172 0)"/>
     <use xlink:href="#DejaVuSerif-Bold-62" transform="translate(178.621094 0)"/>
     <use xlink:href="#DejaVuSerif-Bold-69" transform="translate(248.542969 0)"/>
     <use xlink:href="#DejaVuSerif-Bold-6c" transform="translate(286.53125 0)"/>
     <use xlink:href="#DejaVuSerif-Bold-69" transform="translate(324.519531 0)"/>
     <use xlink:href="#DejaVuSerif-Bold-74" transform="translate(362.507812 0)"/>
     <use xlink:href="#DejaVuSerif-Bold-79" transform="translate(408.699219 0)"/>
    </g>
   </g>
   <g id="text_3">
    <!-- decoded validity -->
    <g style="fill: #5a6a7a" transform="translate(83.170125 90.067916) scale(0.084 -0.084)">
     <defs>
      <path id="DejaVuSerif-Italic-64" d="M 3841 4863 
L 2897 0 
L 2322 0 
L 2422 519 
Q 2191 206 1902 57 
Q 1613 -91 1228 -91 
Q 616 -91 322 394 
Q 125 716 125 1166 
Q 125 1397 178 1663 
Q 331 2444 812 2928 
Q 1294 3413 1909 3413 
Q 2294 3413 2525 3264 
Q 2756 3116 2866 2803 
L 3200 4531 
L 2656 4531 
L 2722 4863 
L 3841 4863 
z
M 2613 1497 
L 2675 1825 
Q 2722 2069 2722 2266 
Q 2722 2550 2622 2738 
Q 2456 3053 2019 3053 
Q 1575 3053 1279 2703 
Q 984 2353 850 1663 
Q 788 1347 788 1103 
Q 788 813 875 622 
Q 1031 269 1475 269 
Q 1913 269 2203 583 
Q 2494 897 2613 1497 
z
" transform="scale(0.015625)"/>
      <path id="DejaVuSerif-Italic-65" d="M 938 1275 
Q 925 1156 925 1050 
Q 925 756 1031 563 
Q 1216 219 1709 219 
Q 2072 219 2250 328 
Q 2569 525 2644 778 
L 3066 778 
Q 2941 381 2475 103 
Q 2150 -91 1506 -91 
Q 863 -91 516 388 
Q 272 722 272 1206 
Q 272 1419 319 1659 
Q 472 2450 1000 2931 
Q 1528 3413 2278 3413 
Q 3500 3413 3500 2547 
Q 3500 1913 2859 1603 
Q 2206 1288 938 1275 
z
M 2541 1975 
Q 2891 2181 2891 2569 
Q 2891 3103 2181 3103 
Q 1763 3103 1472 2784 
Q 1181 2466 1003 1606 
Q 2006 1653 2541 1975 
z
" transform="scale(0.015625)"/>
      <path id="DejaVuSerif-Italic-63" d="M 3163 997 
Q 2938 466 2536 187 
Q 2134 -91 1584 -91 
Q 859 -91 513 388 
Q 272 722 272 1203 
Q 272 1419 319 1663 
Q 475 2459 1008 2936 
Q 1541 3413 2266 3413 
Q 2581 3413 2879 3339 
Q 3178 3266 3463 3116 
L 3300 2266 
L 2966 2266 
Q 2966 2309 2966 2347 
Q 2966 2722 2803 2903 
Q 2622 3103 2213 3103 
Q 1747 3103 1439 2742 
Q 1131 2381 991 1663 
Q 928 1334 928 1078 
Q 928 778 1016 581 
Q 1181 219 1650 219 
Q 2022 219 2281 412 
Q 2541 606 2700 997 
L 3163 997 
z
" transform="scale(0.015625)"/>
      <path id="DejaVuSerif-Italic-6f" d="M 1644 219 
Q 2106 219 2414 584 
Q 2722 950 2859 1663 
Q 2922 1988 2922 2241 
Q 2922 2541 2834 2738 
Q 2669 3103 2206 3103 
Q 1744 3103 1436 2739 
Q 1128 2375 991 1663 
Q 928 1338 928 1088 
Q 928 784 1019 584 
Q 1184 219 1644 219 
z
M 1584 -91 
Q 859 -91 513 388 
Q 272 722 272 1203 
Q 272 1419 319 1663 
Q 472 2456 1005 2934 
Q 1538 3413 2266 3413 
Q 2994 3413 3341 2934 
Q 3578 2603 3578 2122 
Q 3578 1906 3531 1663 
Q 3378 869 2845 389 
Q 2313 -91 1584 -91 
z
" transform="scale(0.015625)"/>
      <path id="DejaVuSerif-Italic-20" transform="scale(0.015625)"/>
      <path id="DejaVuSerif-Italic-76" d="M 1681 0 
L 1259 0 
L 619 2988 
L 241 2988 
L 303 3322 
L 1163 3322 
L 1725 703 
Q 2084 1016 2325 1413 
Q 2825 2238 3003 2988 
L 2622 2988 
L 2688 3322 
L 3547 3322 
Q 3206 2034 2775 1313 
Q 2400 688 1681 0 
z
" transform="scale(0.015625)"/>
      <path id="DejaVuSerif-Italic-61" d="M 2325 519 
Q 1909 -91 1238 -91 
Q 688 -91 409 281 
Q 216 544 216 919 
Q 216 1078 250 1256 
Q 463 2359 1231 2928 
Q 1884 3413 2675 3413 
Q 3206 3413 3388 3322 
L 2806 331 
L 3300 331 
L 3238 0 
L 2225 0 
L 2325 519 
z
M 822 938 
Q 822 269 1469 269 
Q 1863 269 2130 583 
Q 2397 897 2516 1497 
L 2806 3003 
L 2806 3003 
Q 2806 3094 2556 3094 
Q 1956 3094 1491 2625 
Q 1028 2153 863 1297 
Q 822 1097 822 938 
z
" transform="scale(0.015625)"/>
      <path id="DejaVuSerif-Italic-6c" d="M 903 331 
L 1447 331 
L 1384 0 
L 266 0 
L 1147 4531 
L 594 4531 
L 656 4863 
L 1784 4863 
L 903 331 
z
" transform="scale(0.015625)"/>
      <path id="DejaVuSerif-Italic-69" d="M 1009 4353 
Q 1038 4497 1163 4603 
Q 1288 4709 1434 4709 
Q 1578 4709 1663 4603 
Q 1728 4522 1728 4422 
Q 1728 4388 1719 4353 
Q 1691 4206 1567 4103 
Q 1444 4000 1297 4000 
Q 1150 4000 1066 4103 
Q 1003 4181 1003 4281 
Q 1003 4316 1009 4353 
z
M 963 331 
L 1506 331 
L 1444 0 
L 325 0 
L 903 2988 
L 353 2988 
L 419 3322 
L 1544 3322 
L 963 331 
z
" transform="scale(0.015625)"/>
      <path id="DejaVuSerif-Italic-74" d="M 856 2988 
L 350 2988 
L 416 3322 
L 922 3322 
L 1122 4353 
L 1700 4353 
L 1500 3322 
L 2581 3322 
L 2516 2988 
L 1434 2988 
L 1025 878 
Q 978 631 978 488 
Q 978 388 1000 338 
Q 1059 219 1278 219 
Q 1503 219 1633 351 
Q 1763 484 1825 781 
L 2259 781 
Q 2147 328 1884 118 
Q 1622 -91 1169 -91 
Q 672 -91 506 131 
Q 406 266 406 516 
Q 406 675 447 878 
L 856 2988 
z
" transform="scale(0.015625)"/>
      <path id="DejaVuSerif-Italic-79" d="M 3681 3294 
Q 3372 1506 2828 563 
Q 2031 -822 1391 -1238 
Q 1106 -1422 356 -1422 
Q 209 -1422 60 -1397 
Q -88 -1372 -238 -1325 
L -113 -691 
L 181 -691 
Q 175 -741 175 -788 
Q 175 -919 231 -994 
Q 309 -1100 513 -1100 
Q 1063 -1100 1541 -622 
L 756 2988 
L 378 2988 
L 444 3322 
L 1303 3322 
L 2041 25 
Q 2544 778 2666 1088 
Q 3059 2059 3138 2959 
L 2759 2959 
L 2825 3294 
L 3681 3294 
z
" transform="scale(0.015625)"/>
     </defs>
     <use xlink:href="#DejaVuSerif-Italic-64"/>
     <use xlink:href="#DejaVuSerif-Italic-65" transform="translate(64.013672 0)"/>
     <use xlink:href="#DejaVuSerif-Italic-63" transform="translate(123.193359 0)"/>
     <use xlink:href="#DejaVuSerif-Italic-6f" transform="translate(179.199219 0)"/>
     <use xlink:href="#DejaVuSerif-Italic-64" transform="translate(239.404297 0)"/>
     <use xlink:href="#DejaVuSerif-Italic-65" transform="translate(303.417969 0)"/>
     <use xlink:href="#DejaVuSerif-Italic-64" transform="translate(362.597656 0)"/>
     <use xlink:href="#DejaVuSerif-Italic-20" transform="translate(426.611328 0)"/>
     <use xlink:href="#DejaVuSerif-Italic-76" transform="translate(458.398438 0)"/>
     <use xlink:href="#DejaVuSerif-Italic-61" transform="translate(514.892578 0)"/>
     <use xlink:href="#DejaVuSerif-Italic-6c" transform="translate(574.511719 0)"/>
     <use xlink:href="#DejaVuSerif-Italic-69" transform="translate(606.494141 0)"/>
     <use xlink:href="#DejaVuSerif-Italic-64" transform="translate(638.476562 0)"/>
     <use xlink:href="#DejaVuSerif-Italic-69" transform="translate(702.490234 0)"/>
     <use xlink:href="#DejaVuSerif-Italic-74" transform="translate(734.472656 0)"/>
     <use xlink:href="#DejaVuSerif-Italic-79" transform="translate(774.658203 0)"/>
    </g>
   </g>
   <g id="text_4">
    <!-- Sensitivity -->
    <g style="fill: #1f2c3a" transform="translate(210.091078 75.028607) scale(0.102 -0.102)">
     <defs>
      <path id="DejaVuSerif-Bold-53" d="M 494 225 
L 494 1331 
L 891 1331 
Q 981 806 1318 547 
Q 1656 288 2253 288 
Q 2738 288 2991 472 
Q 3244 656 3244 1013 
Q 3244 1294 3072 1450 
Q 2900 1606 2363 1741 
L 1663 1913 
Q 978 2088 700 2398 
Q 422 2709 422 3284 
Q 422 3978 883 4364 
Q 1344 4750 2175 4750 
Q 2584 4750 3026 4681 
Q 3469 4613 3944 4475 
L 3944 3444 
L 3547 3444 
Q 3456 3925 3150 4148 
Q 2844 4372 2278 4372 
Q 1816 4372 1580 4211 
Q 1344 4050 1344 3731 
Q 1344 3441 1506 3289 
Q 1669 3138 2303 2975 
L 3003 2803 
Q 3653 2641 3945 2297 
Q 4238 1953 4238 1350 
Q 4238 644 3750 276 
Q 3263 -91 2316 -91 
Q 1859 -91 1409 -12 
Q 959 66 494 225 
z
" transform="scale(0.015625)"/>
      <path id="DejaVuSerif-Bold-76" d="M 1428 0 
L 250 2944 
L -116 2944 
L -116 3322 
L 1791 3322 
L 1791 2944 
L 1388 2944 
L 2228 844 
L 3066 2944 
L 2631 2944 
L 2631 3322 
L 3878 3322 
L 3878 2944 
L 3494 2944 
L 2316 0 
L 1428 0 
z
" transform="scale(0.015625)"/>
     </defs>
     <use xlink:href="#DejaVuSerif-Bold-53"/>
     <use xlink:href="#DejaVuSerif-Bold-65" transform="translate(72.216797 0)"/>
     <use xlink:href="#DejaVuSerif-Bold-6e" transform="translate(135.839844 0)"/>
     <use xlink:href="#DejaVuSerif-Bold-73" transform="translate(208.544922 0)"/>
     <use xlink:href="#DejaVuSerif-Bold-69" transform="translate(264.84375 0)"/>
     <use xlink:href="#DejaVuSerif-Bold-74" transform="translate(302.832031 0)"/>
     <use xlink:href="#DejaVuSerif-Bold-69" transform="translate(349.023438 0)"/>
     <use xlink:href="#DejaVuSerif-Bold-76" transform="translate(387.011719 0)"/>
     <use xlink:href="#DejaVuSerif-Bold-69" transform="translate(445.117188 0)"/>
     <use xlink:href="#DejaVuSerif-Bold-74" transform="translate(483.105469 0)"/>
     <use xlink:href="#DejaVuSerif-Bold-79" transform="translate(529.296875 0)"/>
    </g>
   </g>
   <g id="text_5">
    <!-- $h_{50}$ Huang-Massa -->
    <g style="fill: #5a6a7a" transform="translate(202.878 90.03576) scale(0.084 -0.084)">
     <defs>
      <path id="DejaVuSans-Oblique-68" d="M 3566 2113 
L 3156 0 
L 2578 0 
L 2988 2091 
Q 3016 2238 3031 2350 
Q 3047 2463 3047 2528 
Q 3047 2791 2881 2937 
Q 2716 3084 2419 3084 
Q 1956 3084 1617 2771 
Q 1278 2459 1178 1941 
L 800 0 
L 225 0 
L 1172 4863 
L 1747 4863 
L 1375 2950 
Q 1594 3244 1934 3414 
Q 2275 3584 2650 3584 
Q 3113 3584 3367 3334 
Q 3622 3084 3622 2631 
Q 3622 2519 3608 2391 
Q 3594 2263 3566 2113 
z
" transform="scale(0.015625)"/>
      <path id="DejaVuSans-35" d="M 691 4666 
L 3169 4666 
L 3169 4134 
L 1269 4134 
L 1269 2991 
Q 1406 3038 1543 3061 
Q 1681 3084 1819 3084 
Q 2600 3084 3056 2656 
Q 3513 2228 3513 1497 
Q 3513 744 3044 326 
Q 2575 -91 1722 -91 
Q 1428 -91 1123 -41 
Q 819 9 494 109 
L 494 744 
Q 775 591 1075 516 
Q 1375 441 1709 441 
Q 2250 441 2565 725 
Q 2881 1009 2881 1497 
Q 2881 1984 2565 2268 
Q 2250 2553 1709 2553 
Q 1456 2553 1204 2497 
Q 953 2441 691 2322 
L 691 4666 
z
" transform="scale(0.015625)"/>
      <path id="DejaVuSans-30" d="M 2034 4250 
Q 1547 4250 1301 3770 
Q 1056 3291 1056 2328 
Q 1056 1369 1301 889 
Q 1547 409 2034 409 
Q 2525 409 2770 889 
Q 3016 1369 3016 2328 
Q 3016 3291 2770 3770 
Q 2525 4250 2034 4250 
z
M 2034 4750 
Q 2819 4750 3233 4129 
Q 3647 3509 3647 2328 
Q 3647 1150 3233 529 
Q 2819 -91 2034 -91 
Q 1250 -91 836 529 
Q 422 1150 422 2328 
Q 422 3509 836 4129 
Q 1250 4750 2034 4750 
z
" transform="scale(0.015625)"/>
      <path id="DejaVuSerif-Italic-48" d="M -97 0 
L -34 331 
L 559 331 
L 1338 4331 
L 744 4331 
L 809 4666 
L 2631 4666 
L 2566 4331 
L 1972 4331 
L 1659 2719 
L 4078 2719 
L 4391 4331 
L 3797 4331 
L 3863 4666 
L 5684 4666 
L 5619 4331 
L 5025 4331 
L 4247 331 
L 4841 331 
L 4778 0 
L 2956 0 
L 3019 331 
L 3616 331 
L 4003 2338 
L 1584 2338 
L 1194 331 
L 1788 331 
L 1725 0 
L -97 0 
z
" transform="scale(0.015625)"/>
      <path id="DejaVuSerif-Italic-75" d="M 3097 3322 
L 3672 3322 
L 3091 331 
L 3634 331 
L 3572 0 
L 2453 0 
L 2566 588 
Q 2341 256 2055 82 
Q 1769 -91 1434 -91 
Q 881 -91 681 225 
Q 559 413 559 734 
Q 559 944 613 1209 
L 956 2988 
L 438 2988 
L 503 3322 
L 1600 3322 
L 1225 1388 
Q 1163 1066 1163 853 
Q 1163 663 1213 556 
Q 1316 331 1697 331 
Q 2097 331 2364 625 
Q 2631 919 2738 1478 
L 3097 3322 
z
" transform="scale(0.015625)"/>
      <path id="DejaVuSerif-Italic-6e" d="M 450 0 
L 1031 2988 
L 481 2988 
L 544 3322 
L 1669 3322 
L 1556 2731 
Q 1781 3069 2068 3241 
Q 2356 3413 2694 3413 
Q 3244 3413 3444 3097 
Q 3563 2906 3563 2588 
Q 3563 2378 3509 2113 
L 3163 331 
L 3675 331 
L 3613 0 
L 2522 0 
L 2897 1931 
Q 2959 2253 2959 2469 
Q 2959 2659 2909 2769 
Q 2803 2994 2425 2994 
Q 2025 2994 1759 2701 
Q 1494 2409 1384 1850 
L 1025 0 
L 450 0 
z
" transform="scale(0.015625)"/>
      <path id="DejaVuSerif-Italic-67" d="M 3822 3322 
L 3188 72 
Q 3044 -672 2581 -1031 
Q 2078 -1422 1381 -1422 
Q 1053 -1422 765 -1362 
Q 478 -1303 225 -1184 
L 363 -488 
L 663 -488 
Q 653 -813 834 -963 
Q 1016 -1113 1406 -1113 
Q 1913 -1113 2203 -825 
Q 2494 -544 2613 72 
L 2700 519 
Q 2472 206 2181 57 
Q 1891 -91 1525 -91 
Q 975 -91 697 281 
Q 522 516 503 841 
Q 491 1031 534 1256 
Q 750 2359 1516 2928 
Q 2169 3409 2931 3413 
Q 3631 3416 3822 3322 
z
M 3184 2988 
Q 3181 3094 2844 3094 
Q 2234 3094 1775 2625 
Q 1316 2153 1147 1297 
Q 1100 1044 1113 853 
Q 1125 659 1203 528 
Q 1356 269 1756 269 
Q 2194 269 2484 583 
Q 2775 897 2891 1497 
L 2953 1825 
L 3184 2988 
z
" transform="scale(0.015625)"/>
      <path id="DejaVuSerif-Italic-2d" d="M 328 1959 
L 1928 1959 
L 1834 1472 
L 234 1472 
L 328 1959 
z
" transform="scale(0.015625)"/>
      <path id="DejaVuSerif-Italic-4d" d="M -97 0 
L -34 331 
L 559 331 
L 1338 4331 
L 709 4331 
L 775 4666 
L 2134 4666 
L 3125 1344 
L 5409 4666 
L 6684 4666 
L 6619 4331 
L 5997 4331 
L 5222 331 
L 5816 331 
L 5753 0 
L 3928 0 
L 3991 331 
L 4584 331 
L 5288 3938 
L 3053 684 
L 2613 684 
L 1647 3938 
L 944 331 
L 1538 331 
L 1475 0 
L -97 0 
z
" transform="scale(0.015625)"/>
      <path id="DejaVuSerif-Italic-73" d="M 222 959 
L 553 959 
Q 541 869 541 788 
Q 541 219 1313 219 
Q 2088 219 2200 788 
Q 2209 844 2209 944 
Q 2209 1041 2103 1158 
Q 1997 1275 1550 1428 
L 1159 1569 
Q 759 1706 629 1882 
Q 500 2059 500 2263 
Q 500 2344 516 2438 
Q 606 2894 990 3153 
Q 1375 3413 1931 3413 
Q 2484 3413 3066 3144 
L 2925 2419 
L 2594 2419 
Q 2606 2491 2606 2553 
Q 2606 2781 2448 2942 
Q 2291 3103 1925 3103 
Q 1191 3103 1091 2591 
Q 1078 2538 1078 2444 
Q 1078 2347 1179 2237 
Q 1281 2128 1678 1997 
L 2106 1856 
Q 2550 1709 2716 1488 
Q 2831 1331 2831 1178 
Q 2831 522 2306 181 
Q 1894 -91 1262 -91 
Q 631 -91 72 184 
L 222 959 
z
" transform="scale(0.015625)"/>
     </defs>
     <use xlink:href="#DejaVuSans-Oblique-68" transform="translate(0 0.015625)"/>
     <use xlink:href="#DejaVuSans-35" transform="translate(63.378906 -16.390625) scale(0.7)"/>
     <use xlink:href="#DejaVuSans-30" transform="translate(107.915039 -16.390625) scale(0.7)"/>
     <use xlink:href="#DejaVuSerif-Italic-20" transform="translate(155.185547 0.015625)"/>
     <use xlink:href="#DejaVuSerif-Italic-48" transform="translate(186.972656 0.015625)"/>
     <use xlink:href="#DejaVuSerif-Italic-75" transform="translate(274.179688 0.015625)"/>
     <use xlink:href="#DejaVuSerif-Italic-61" transform="translate(338.583984 0.015625)"/>
     <use xlink:href="#DejaVuSerif-Italic-6e" transform="translate(398.203125 0.015625)"/>
     <use xlink:href="#DejaVuSerif-Italic-67" transform="translate(462.607422 0.015625)"/>
     <use xlink:href="#DejaVuSerif-Italic-2d" transform="translate(526.621094 0.015625)"/>
     <use xlink:href="#DejaVuSerif-Italic-4d" transform="translate(560.410156 0.015625)"/>
     <use xlink:href="#DejaVuSerif-Italic-61" transform="translate(662.802734 0.015625)"/>
     <use xlink:href="#DejaVuSerif-Italic-73" transform="translate(722.421875 0.015625)"/>
     <use xlink:href="#DejaVuSerif-Italic-73" transform="translate(773.740234 0.015625)"/>
     <use xlink:href="#DejaVuSerif-Italic-61" transform="translate(825.058594 0.015625)"/>
    </g>
   </g>
   <g id="text_6">
    <!-- Hazard -->
    <g style="fill: #1f2c3a" transform="translate(341.439094 75.101122) scale(0.102 -0.102)">
     <defs>
      <path id="DejaVuSerif-Bold-48" d="M 300 0 
L 300 378 
L 897 378 
L 897 4288 
L 300 4288 
L 300 4666 
L 2700 4666 
L 2700 4288 
L 2100 4288 
L 2100 2719 
L 3956 2719 
L 3956 4288 
L 3359 4288 
L 3359 4666 
L 5759 4666 
L 5759 4288 
L 5159 4288 
L 5159 378 
L 5759 378 
L 5759 0 
L 3359 0 
L 3359 378 
L 3956 378 
L 3956 2291 
L 2100 2291 
L 2100 378 
L 2700 378 
L 2700 0 
L 300 0 
z
" transform="scale(0.015625)"/>
      <path id="DejaVuSerif-Bold-7a" d="M 225 0 
L 225 378 
L 2131 2956 
L 697 2956 
L 697 2388 
L 325 2388 
L 325 3322 
L 3419 3322 
L 3419 2950 
L 1509 372 
L 3047 372 
L 3047 972 
L 3419 972 
L 3419 0 
L 225 0 
z
" transform="scale(0.015625)"/>
     </defs>
     <use xlink:href="#DejaVuSerif-Bold-48"/>
     <use xlink:href="#DejaVuSerif-Bold-61" transform="translate(94.482422 0)"/>
     <use xlink:href="#DejaVuSerif-Bold-7a" transform="translate(159.277344 0)"/>
     <use xlink:href="#DejaVuSerif-Bold-61" transform="translate(216.064453 0)"/>
     <use xlink:href="#DejaVuSerif-Bold-72" transform="translate(280.859375 0)"/>
     <use xlink:href="#DejaVuSerif-Bold-64" transform="translate(333.544922 0)"/>
    </g>
   </g>
   <g id="text_7">
    <!-- SMARTS-aware -->
    <g style="fill: #5a6a7a" transform="translate(328.369406 90.127635) scale(0.084 -0.084)">
     <defs>
      <path id="DejaVuSerif-Italic-53" d="M 184 225 
L 391 1288 
L 750 1284 
Q 663 753 905 498 
Q 1147 244 1744 244 
Q 2300 244 2636 464 
Q 2972 684 3053 1106 
Q 3119 1444 2976 1625 
Q 2834 1806 2300 1978 
L 1722 2163 
Q 1091 2366 877 2669 
Q 663 2972 766 3500 
Q 881 4094 1367 4422 
Q 1853 4750 2616 4750 
Q 2941 4750 3314 4679 
Q 3688 4609 4097 4475 
L 3906 3481 
L 3553 3481 
Q 3594 3975 3361 4195 
Q 3128 4416 2563 4416 
Q 2069 4416 1772 4214 
Q 1475 4013 1400 3628 
Q 1334 3294 1490 3103 
Q 1647 2913 2241 2725 
L 2784 2553 
Q 3381 2363 3593 2067 
Q 3806 1772 3709 1275 
Q 3578 597 3076 253 
Q 2575 -91 1716 -91 
Q 1331 -91 948 -12 
Q 566 66 184 225 
z
" transform="scale(0.015625)"/>
      <path id="DejaVuSerif-Italic-41" d="M 1159 1691 
L 2872 1691 
L 2447 3909 
L 1159 1691 
z
M -488 0 
L -425 331 
L -16 331 
L 2491 4666 
L 3016 4666 
L 3841 331 
L 4297 331 
L 4234 0 
L 2538 0 
L 2600 331 
L 3119 331 
L 2928 1356 
L 966 1356 
L 375 331 
L 888 331 
L 825 0 
L -488 0 
z
" transform="scale(0.015625)"/>
      <path id="DejaVuSerif-Italic-52" d="M 3066 2316 
Q 3272 2256 3403 2114 
Q 3534 1972 3609 1716 
L 4016 331 
L 4584 331 
L 4522 0 
L 3422 0 
L 2981 1484 
Q 2856 1916 2706 2042 
Q 2556 2169 2250 2169 
L 1553 2169 
L 1194 331 
L 1853 331 
L 1791 0 
L -97 0 
L -34 331 
L 559 331 
L 1338 4331 
L 744 4331 
L 809 4666 
L 3175 4666 
Q 3856 4666 4164 4341 
Q 4472 4016 4356 3419 
Q 4263 2938 3938 2661 
Q 3613 2384 3066 2316 
z
M 1619 2503 
L 2541 2503 
Q 3013 2503 3280 2726 
Q 3547 2950 3639 3419 
Q 3731 3888 3548 4109 
Q 3366 4331 2894 4331 
L 1972 4331 
L 1619 2503 
z
" transform="scale(0.015625)"/>
      <path id="DejaVuSerif-Italic-54" d="M 769 0 
L 831 331 
L 1428 331 
L 2200 4294 
L 828 4294 
L 688 3566 
L 303 3566 
L 516 4666 
L 4659 4666 
L 4447 3566 
L 4063 3566 
L 4203 4294 
L 2831 4294 
L 2059 331 
L 2656 331 
L 2594 0 
L 769 0 
z
" transform="scale(0.015625)"/>
      <path id="DejaVuSerif-Italic-77" d="M 3741 728 
Q 4156 1178 4250 1344 
Q 4594 1969 4931 2988 
L 4447 2984 
L 4513 3322 
L 5347 3322 
L 5281 2984 
L 5278 2984 
Q 4959 1825 4656 1266 
Q 4209 469 3719 0 
L 3241 0 
L 2900 2484 
L 1597 0 
L 1138 0 
L 734 2988 
L 359 2981 
L 425 3322 
L 1281 3322 
L 1631 728 
L 2991 3322 
L 3394 3322 
L 3741 728 
z
" transform="scale(0.015625)"/>
      <path id="DejaVuSerif-Italic-72" d="M 3375 3328 
L 3213 2497 
L 2881 2497 
Q 2891 2559 2891 2613 
Q 2891 2775 2816 2866 
Q 2719 2988 2484 2988 
Q 2059 2988 1775 2694 
Q 1491 2400 1384 1850 
L 1025 0 
L 450 0 
L 1031 2994 
L 481 2994 
L 544 3322 
L 1669 3322 
L 1556 2731 
Q 1791 3078 2089 3245 
Q 2388 3413 2769 3413 
Q 2909 3413 3059 3391 
Q 3209 3369 3375 3328 
z
" transform="scale(0.015625)"/>
     </defs>
     <use xlink:href="#DejaVuSerif-Italic-53"/>
     <use xlink:href="#DejaVuSerif-Italic-4d" transform="translate(68.505859 0)"/>
     <use xlink:href="#DejaVuSerif-Italic-41" transform="translate(170.898438 0)"/>
     <use xlink:href="#DejaVuSerif-Italic-52" transform="translate(243.115234 0)"/>
     <use xlink:href="#DejaVuSerif-Italic-54" transform="translate(316.658203 0)"/>
     <use xlink:href="#DejaVuSerif-Italic-53" transform="translate(383.357422 0)"/>
     <use xlink:href="#DejaVuSerif-Italic-2d" transform="translate(455.488281 0)"/>
     <use xlink:href="#DejaVuSerif-Italic-61" transform="translate(489.277344 0)"/>
     <use xlink:href="#DejaVuSerif-Italic-77" transform="translate(548.896484 0)"/>
     <use xlink:href="#DejaVuSerif-Italic-61" transform="translate(634.492188 0)"/>
     <use xlink:href="#DejaVuSerif-Italic-72" transform="translate(694.111328 0)"/>
     <use xlink:href="#DejaVuSerif-Italic-65" transform="translate(741.914062 0)"/>
    </g>
   </g>
   <g id="text_8">
    <!-- Performance -->
    <g style="fill: #1f2c3a" transform="translate(447.308625 75.101122) scale(0.102 -0.102)">
     <defs>
      <path id="DejaVuSerif-Bold-50" d="M 300 0 
L 300 378 
L 897 378 
L 897 4288 
L 300 4288 
L 300 4666 
L 2956 4666 
Q 3734 4666 4193 4295 
Q 4653 3925 4653 3303 
Q 4653 2678 4192 2304 
Q 3731 1931 2956 1931 
L 2100 1931 
L 2100 378 
L 2853 378 
L 2853 0 
L 300 0 
z
M 2100 2309 
L 2450 2309 
Q 2856 2309 3098 2579 
Q 3341 2850 3341 3303 
Q 3341 3753 3100 4020 
Q 2859 4288 2450 4288 
L 2100 4288 
L 2100 2309 
z
" transform="scale(0.015625)"/>
      <path id="DejaVuSerif-Bold-6f" d="M 2138 263 
Q 2488 263 2630 563 
Q 2772 863 2772 1663 
Q 2772 2463 2631 2761 
Q 2491 3059 2138 3059 
Q 1784 3059 1640 2757 
Q 1497 2456 1497 1663 
Q 1497 869 1640 566 
Q 1784 263 2138 263 
z
M 2138 -91 
Q 1259 -91 761 376 
Q 263 844 263 1663 
Q 263 2484 761 2948 
Q 1259 3413 2138 3413 
Q 3019 3413 3516 2948 
Q 4013 2484 4013 1663 
Q 4013 844 3514 376 
Q 3016 -91 2138 -91 
z
" transform="scale(0.015625)"/>
     </defs>
     <use xlink:href="#DejaVuSerif-Bold-50"/>
     <use xlink:href="#DejaVuSerif-Bold-65" transform="translate(72.570312 0)"/>
     <use xlink:href="#DejaVuSerif-Bold-72" transform="translate(136.193359 0)"/>
     <use xlink:href="#DejaVuSerif-Bold-66" transform="translate(188.878906 0)"/>
     <use xlink:href="#DejaVuSerif-Bold-6f" transform="translate(231.896484 0)"/>
     <use xlink:href="#DejaVuSerif-Bold-72" transform="translate(298.595703 0)"/>
     <use xlink:href="#DejaVuSerif-Bold-6d" transform="translate(351.28125 0)"/>
     <use xlink:href="#DejaVuSerif-Bold-61" transform="translate(457.091797 0)"/>
     <use xlink:href="#DejaVuSerif-Bold-6e" transform="translate(521.886719 0)"/>
     <use xlink:href="#DejaVuSerif-Bold-63" transform="translate(594.591797 0)"/>
     <use xlink:href="#DejaVuSerif-Bold-65" transform="translate(655.480469 0)"/>
    </g>
   </g>
   <g id="text_9">
    <!-- $\rho,\ D,\ P$ regressors -->
    <g style="fill: #5a6a7a" transform="translate(444.504 89.942572) scale(0.084 -0.084)">
     <defs>
      <path id="DejaVuSans-Oblique-3c1" d="M 1203 2875 
Q 1453 3194 1981 3475 
Q 2188 3584 2756 3584 
Q 3394 3584 3694 3078 
Q 3994 2572 3834 1747 
Q 3672 922 3175 415 
Q 2678 -91 2041 -91 
Q 1656 -91 1409 63 
Q 1163 213 1044 525 
L 681 -1331 
L 103 -1331 
L 697 1716 
Q 838 2438 1203 2875 
z
M 3238 1747 
Q 3359 2381 3169 2744 
Q 2978 3103 2522 3103 
Q 2066 3103 1734 2744 
Q 1403 2381 1281 1747 
Q 1156 1113 1347 750 
Q 1538 391 1994 391 
Q 2450 391 2781 750 
Q 3113 1113 3238 1747 
z
" transform="scale(0.015625)"/>
      <path id="DejaVuSans-2c" d="M 750 794 
L 1409 794 
L 1409 256 
L 897 -744 
L 494 -744 
L 750 256 
L 750 794 
z
" transform="scale(0.015625)"/>
      <path id="DejaVuSans-Oblique-44" d="M 1081 4666 
L 2438 4666 
Q 3519 4666 4070 4208 
Q 4622 3750 4622 2847 
Q 4622 2250 4412 1698 
Q 4203 1147 3834 769 
Q 3463 381 2891 190 
Q 2319 0 1538 0 
L 172 0 
L 1081 4666 
z
M 1613 4147 
L 909 519 
L 1734 519 
Q 2794 519 3375 1128 
Q 3956 1738 3956 2847 
Q 3956 3519 3581 3833 
Q 3206 4147 2406 4147 
L 1613 4147 
z
" transform="scale(0.015625)"/>
      <path id="DejaVuSans-Oblique-50" d="M 1081 4666 
L 2541 4666 
Q 3178 4666 3512 4369 
Q 3847 4072 3847 3500 
Q 3847 2731 3353 2303 
Q 2859 1875 1966 1875 
L 1172 1875 
L 806 0 
L 172 0 
L 1081 4666 
z
M 1613 4147 
L 1275 2394 
L 2069 2394 
Q 2606 2394 2893 2669 
Q 3181 2944 3181 3456 
Q 3181 3784 2986 3965 
Q 2791 4147 2438 4147 
L 1613 4147 
z
" transform="scale(0.015625)"/>
     </defs>
     <use xlink:href="#DejaVuSans-Oblique-3c1" transform="translate(0 0.09375)"/>
     <use xlink:href="#DejaVuSans-2c" transform="translate(63.476562 0.09375)"/>
     <use xlink:href="#DejaVuSans-Oblique-44" transform="translate(147.216472 0.09375)"/>
     <use xlink:href="#DejaVuSans-2c" transform="translate(224.218425 0.09375)"/>
     <use xlink:href="#DejaVuSans-Oblique-50" transform="translate(307.958335 0.09375)"/>
     <use xlink:href="#DejaVuSerif-Italic-20" transform="translate(368.261069 0.09375)"/>
     <use xlink:href="#DejaVuSerif-Italic-72" transform="translate(400.048179 0.09375)"/>
     <use xlink:href="#DejaVuSerif-Italic-65" transform="translate(447.850913 0.09375)"/>
     <use xlink:href="#DejaVuSerif-Italic-67" transform="translate(507.030601 0.09375)"/>
     <use xlink:href="#DejaVuSerif-Italic-72" transform="translate(571.044272 0.09375)"/>
     <use xlink:href="#DejaVuSerif-Italic-65" transform="translate(618.847007 0.09375)"/>
     <use xlink:href="#DejaVuSerif-Italic-73" transform="translate(678.026694 0.09375)"/>
     <use xlink:href="#DejaVuSerif-Italic-73" transform="translate(729.345054 0.09375)"/>
     <use xlink:href="#DejaVuSerif-Italic-6f" transform="translate(780.663413 0.09375)"/>
     <use xlink:href="#DejaVuSerif-Italic-72" transform="translate(840.868491 0.09375)"/>
     <use xlink:href="#DejaVuSerif-Italic-73" transform="translate(888.671226 0.09375)"/>
    </g>
   </g>
   <g id="text_10">
    <!-- $z_T$ -->
    <g style="fill: #1f2c3a" transform="translate(62.549 195.930961) scale(0.115 -0.115)">
     <defs>
      <path id="DejaVuSans-Oblique-7a" d="M 744 3500 
L 3475 3500 
L 3372 2975 
L 738 459 
L 2913 459 
L 2822 0 
L -19 0 
L 84 525 
L 2719 3041 
L 653 3041 
L 744 3500 
z
" transform="scale(0.015625)"/>
      <path id="DejaVuSans-Oblique-54" d="M 378 4666 
L 4325 4666 
L 4225 4134 
L 2559 4134 
L 1759 0 
L 1125 0 
L 1925 4134 
L 275 4134 
L 378 4666 
z
" transform="scale(0.015625)"/>
     </defs>
     <use xlink:href="#DejaVuSans-Oblique-7a" transform="translate(0 0.3125)"/>
     <use xlink:href="#DejaVuSans-Oblique-54" transform="translate(52.490234 -16.09375) scale(0.7)"/>
    </g>
   </g>
   <g id="text_11">
    <!-- $\mathcal{N}(0,\ I_{1024})$ -->
    <g style="fill: #5a6a7a" transform="translate(44.244 214.145561) scale(0.09 -0.09)">
     <defs>
      <path id="STIXNonUnicode-Italic-e23a" d="M 4294 800 
L 4301 800 
Q 5293 4070 5408 4378 
Q 5472 4538 5523 4614 
Q 5830 5088 6253 5088 
Q 6490 5088 6650 4931 
Q 6810 4774 6810 4550 
Q 6810 4378 6720 4272 
Q 6630 4166 6470 4166 
Q 6368 4166 6297 4224 
Q 6227 4282 6198 4349 
Q 6170 4416 6118 4473 
Q 6067 4531 6003 4531 
Q 5939 4531 5881 4508 
Q 5824 4486 5785 4457 
Q 5747 4429 5705 4371 
Q 5664 4314 5638 4275 
Q 5613 4237 5584 4163 
Q 5555 4090 5545 4058 
Q 5536 4026 5510 3952 
Q 5485 3878 5485 3866 
L 4262 -154 
L 4134 -154 
Q 3078 1280 2483 2893 
L 2470 2893 
Q 2406 2579 2358 2361 
Q 2310 2144 2214 1792 
Q 2118 1440 2028 1190 
Q 1939 941 1804 653 
Q 1670 365 1529 185 
Q 1389 6 1203 -115 
Q 1018 -237 813 -237 
Q 576 -237 416 -80 
Q 256 77 256 301 
Q 256 474 345 579 
Q 435 685 595 685 
Q 698 685 768 627 
Q 838 570 867 502 
Q 896 435 947 377 
Q 998 320 1062 320 
Q 1222 320 1369 480 
Q 1517 640 1638 928 
Q 1760 1216 1862 1542 
Q 1965 1869 2057 2288 
Q 2150 2707 2214 3033 
Q 2278 3360 2348 3741 
Q 2419 4122 2458 4294 
L 2630 4294 
Q 2682 4166 2874 3680 
Q 3066 3194 3142 3008 
Q 3219 2822 3392 2422 
Q 3565 2022 3683 1798 
Q 3802 1574 3968 1292 
Q 4134 1011 4294 800 
z
" transform="scale(0.015625)"/>
      <path id="DejaVuSans-28" d="M 1984 4856 
Q 1566 4138 1362 3434 
Q 1159 2731 1159 2009 
Q 1159 1288 1364 580 
Q 1569 -128 1984 -844 
L 1484 -844 
Q 1016 -109 783 600 
Q 550 1309 550 2009 
Q 550 2706 781 3412 
Q 1013 4119 1484 4856 
L 1984 4856 
z
" transform="scale(0.015625)"/>
      <path id="DejaVuSans-Oblique-49" d="M 1081 4666 
L 1716 4666 
L 806 0 
L 172 0 
L 1081 4666 
z
" transform="scale(0.015625)"/>
      <path id="DejaVuSans-31" d="M 794 531 
L 1825 531 
L 1825 4091 
L 703 3866 
L 703 4441 
L 1819 4666 
L 2450 4666 
L 2450 531 
L 3481 531 
L 3481 0 
L 794 0 
L 794 531 
z
" transform="scale(0.015625)"/>
      <path id="DejaVuSans-32" d="M 1228 531 
L 3431 531 
L 3431 0 
L 469 0 
L 469 531 
Q 828 903 1448 1529 
Q 2069 2156 2228 2338 
Q 2531 2678 2651 2914 
Q 2772 3150 2772 3378 
Q 2772 3750 2511 3984 
Q 2250 4219 1831 4219 
Q 1534 4219 1204 4116 
Q 875 4013 500 3803 
L 500 4441 
Q 881 4594 1212 4672 
Q 1544 4750 1819 4750 
Q 2544 4750 2975 4387 
Q 3406 4025 3406 3419 
Q 3406 3131 3298 2873 
Q 3191 2616 2906 2266 
Q 2828 2175 2409 1742 
Q 1991 1309 1228 531 
z
" transform="scale(0.015625)"/>
      <path id="DejaVuSans-34" d="M 2419 4116 
L 825 1625 
L 2419 1625 
L 2419 4116 
z
M 2253 4666 
L 3047 4666 
L 3047 1625 
L 3713 1625 
L 3713 1100 
L 3047 1100 
L 3047 0 
L 2419 0 
L 2419 1100 
L 313 1100 
L 313 1709 
L 2253 4666 
z
" transform="scale(0.015625)"/>
      <path id="DejaVuSans-29" d="M 513 4856 
L 1013 4856 
Q 1481 4119 1714 3412 
Q 1947 2706 1947 2009 
Q 1947 1309 1714 600 
Q 1481 -109 1013 -844 
L 513 -844 
Q 928 -128 1133 580 
Q 1338 1288 1338 2009 
Q 1338 2731 1133 3434 
Q 928 4138 513 4856 
z
" transform="scale(0.015625)"/>
     </defs>
     <use xlink:href="#STIXNonUnicode-Italic-e23a" transform="translate(0 0.5)"/>
     <use xlink:href="#DejaVuSans-28" transform="translate(95.699982 0.5)"/>
     <use xlink:href="#DejaVuSans-30" transform="translate(134.713654 0.5)"/>
     <use xlink:href="#DejaVuSans-2c" transform="translate(198.3367 0.5)"/>
     <use xlink:href="#DejaVuSans-Oblique-49" transform="translate(282.07661 0.5)"/>
     <use xlink:href="#DejaVuSans-31" transform="translate(311.568798 -15.90625) scale(0.7)"/>
     <use xlink:href="#DejaVuSans-30" transform="translate(356.10493 -15.90625) scale(0.7)"/>
     <use xlink:href="#DejaVuSans-32" transform="translate(400.641063 -15.90625) scale(0.7)"/>
     <use xlink:href="#DejaVuSans-34" transform="translate(445.177196 -15.90625) scale(0.7)"/>
     <use xlink:href="#DejaVuSans-29" transform="translate(492.447704 0.5)"/>
    </g>
   </g>
   <g id="text_12">
    <!-- DDIM denoise step -->
    <g style="fill: #1f2c3a" transform="translate(242.323797 183.485312) scale(0.11 -0.11)">
     <defs>
      <path id="DejaVuSerif-Bold-44" d="M 2100 378 
L 2534 378 
Q 3266 378 3605 847 
Q 3944 1316 3944 2338 
Q 3944 3353 3606 3820 
Q 3269 4288 2534 4288 
L 2100 4288 
L 2100 378 
z
M 300 0 
L 300 378 
L 897 378 
L 897 4288 
L 300 4288 
L 300 4666 
L 2694 4666 
Q 3950 4666 4615 4066 
Q 5281 3466 5281 2338 
Q 5281 1203 4614 601 
Q 3947 0 2694 0 
L 300 0 
z
" transform="scale(0.015625)"/>
      <path id="DejaVuSerif-Bold-49" d="M 300 0 
L 300 378 
L 897 378 
L 897 4288 
L 300 4288 
L 300 4666 
L 2700 4666 
L 2700 4288 
L 2100 4288 
L 2100 378 
L 2700 378 
L 2700 0 
L 300 0 
z
" transform="scale(0.015625)"/>
      <path id="DejaVuSerif-Bold-4d" d="M 269 0 
L 269 378 
L 863 378 
L 863 4288 
L 269 4288 
L 269 4666 
L 2194 4666 
L 3525 1672 
L 4863 4666 
L 6784 4666 
L 6784 4288 
L 6188 4288 
L 6188 378 
L 6784 378 
L 6784 0 
L 4384 0 
L 4384 378 
L 4978 378 
L 4978 3938 
L 3531 684 
L 2741 684 
L 1300 3938 
L 1300 378 
L 1894 378 
L 1894 0 
L 269 0 
z
" transform="scale(0.015625)"/>
      <path id="DejaVuSerif-Bold-70" d="M 1728 1825 
L 1728 1497 
Q 1728 916 1876 656 
Q 2025 397 2356 397 
Q 2697 397 2836 672 
Q 2975 947 2975 1663 
Q 2975 2378 2836 2651 
Q 2697 2925 2356 2925 
Q 2025 2925 1876 2665 
Q 1728 2406 1728 1825 
z
M 622 2944 
L 147 2944 
L 147 3322 
L 1728 3322 
L 1728 2900 
Q 1869 3159 2106 3286 
Q 2344 3413 2694 3413 
Q 3403 3413 3811 2945 
Q 4219 2478 4219 1663 
Q 4219 847 3811 378 
Q 3403 -91 2694 -91 
Q 2344 -91 2106 36 
Q 1869 163 1728 422 
L 1728 -953 
L 2241 -953 
L 2241 -1331 
L 147 -1331 
L 147 -953 
L 622 -953 
L 622 2944 
z
" transform="scale(0.015625)"/>
     </defs>
     <use xlink:href="#DejaVuSerif-Bold-44"/>
     <use xlink:href="#DejaVuSerif-Bold-44" transform="translate(86.71875 0)"/>
     <use xlink:href="#DejaVuSerif-Bold-49" transform="translate(173.4375 0)"/>
     <use xlink:href="#DejaVuSerif-Bold-4d" transform="translate(220.214844 0)"/>
     <use xlink:href="#DejaVuSerif-Bold-20" transform="translate(330.908203 0)"/>
     <use xlink:href="#DejaVuSerif-Bold-64" transform="translate(365.722656 0)"/>
     <use xlink:href="#DejaVuSerif-Bold-65" transform="translate(435.644531 0)"/>
     <use xlink:href="#DejaVuSerif-Bold-6e" transform="translate(499.267578 0)"/>
     <use xlink:href="#DejaVuSerif-Bold-6f" transform="translate(571.972656 0)"/>
     <use xlink:href="#DejaVuSerif-Bold-69" transform="translate(638.671875 0)"/>
     <use xlink:href="#DejaVuSerif-Bold-73" transform="translate(676.660156 0)"/>
     <use xlink:href="#DejaVuSerif-Bold-65" transform="translate(732.958984 0)"/>
     <use xlink:href="#DejaVuSerif-Bold-20" transform="translate(796.582031 0)"/>
     <use xlink:href="#DejaVuSerif-Bold-73" transform="translate(831.396484 0)"/>
     <use xlink:href="#DejaVuSerif-Bold-74" transform="translate(887.695312 0)"/>
     <use xlink:href="#DejaVuSerif-Bold-65" transform="translate(933.886719 0)"/>
     <use xlink:href="#DejaVuSerif-Bold-70" transform="translate(997.509766 0)"/>
    </g>
   </g>
   <g id="text_13">
    <!-- $z_{t-1} = \frac{1}{\sqrt{\alpha_t}}\!\left(z_t - \frac{1-\alpha_t}{\sqrt{1-\bar\alpha_t}}\,(\hat\varepsilon_\theta - g_t)\right) + \sigma_t\,\eta$ -->
    <g style="fill: #1f2c3a" transform="translate(216.12 200.3664) scale(0.096 -0.096)">
     <defs>
      <path id="DejaVuSans-Oblique-74" d="M 2706 3500 
L 2619 3053 
L 1472 3053 
L 1100 1153 
Q 1081 1047 1072 975 
Q 1063 903 1063 863 
Q 1063 663 1183 572 
Q 1303 481 1569 481 
L 2150 481 
L 2053 0 
L 1503 0 
Q 991 0 739 200 
Q 488 400 488 806 
Q 488 878 497 964 
Q 506 1050 525 1153 
L 897 3053 
L 409 3053 
L 500 3500 
L 978 3500 
L 1172 4494 
L 1747 4494 
L 1556 3500 
L 2706 3500 
z
" transform="scale(0.015625)"/>
      <path id="DejaVuSans-2212" d="M 678 2272 
L 4684 2272 
L 4684 1741 
L 678 1741 
L 678 2272 
z
" transform="scale(0.015625)"/>
      <path id="DejaVuSans-3d" d="M 678 2906 
L 4684 2906 
L 4684 2381 
L 678 2381 
L 678 2906 
z
M 678 1631 
L 4684 1631 
L 4684 1100 
L 678 1100 
L 678 1631 
z
" transform="scale(0.015625)"/>
      <path id="STIXSizeOneSym-Regular-221a" d="M 6970 9933 
L 3373 -1888 
L 3104 -1888 
L 1626 2918 
Q 1555 3149 1465 3251 
Q 1376 3354 1229 3354 
Q 1011 3354 794 3181 
L 717 3309 
L 1766 4115 
L 1926 4115 
L 3379 -602 
L 3405 -602 
L 6605 9933 
L 6970 9933 
z
" transform="scale(0.015625)"/>
      <path id="DejaVuSans-Oblique-3b1" d="M 2619 1628 
L 2622 2350 
Q 2625 3088 2069 3091 
Q 1653 3094 1394 2747 
Q 1069 2319 959 1747 
Q 825 1059 994 731 
Q 1169 397 1547 397 
Q 1966 397 2319 1063 
L 2619 1628 
z
M 2166 3578 
Q 3141 3594 3128 2584 
Q 3128 2584 3616 3500 
L 4128 3500 
L 3119 1603 
L 3109 919 
Q 3109 766 3194 638 
Q 3291 488 3391 488 
L 3669 488 
L 3575 0 
L 3228 0 
Q 2934 0 2722 263 
Q 2622 394 2619 669 
Q 2416 334 2066 50 
Q 1900 -81 1453 -78 
Q 722 -72 456 397 
Q 184 884 353 1747 
Q 534 2675 1009 3097 
Q 1544 3569 2166 3578 
z
" transform="scale(0.015625)"/>
      <path id="STIXSizeTwoSym-Regular-28" d="M 3219 -1555 
L 3219 -1786 
Q 2144 -774 1517 730 
Q 890 2234 890 4115 
Q 890 6003 1533 7593 
Q 2176 9184 3219 10022 
L 3219 9811 
Q 2490 9062 1994 7606 
Q 1498 6150 1498 4115 
Q 1498 563 3219 -1555 
z
" transform="scale(0.015625)"/>
      <path id="DejaVuSans-304" d="M -2518 4769 
L -650 4769 
L -650 4306 
L -2518 4306 
L -2518 4769 
z
" transform="scale(0.015625)"/>
      <path id="DejaVuSans-302" d="M -1831 5119 
L -1369 5119 
L -603 3944 
L -1038 3944 
L -1600 4709 
L -2163 3944 
L -2597 3944 
L -1831 5119 
z
M -1600 3584 
L -1600 3584 
z
" transform="scale(0.015625)"/>
      <path id="DejaVuSans-Oblique-3b5" d="M 1263 1888 
Q 925 1963 778 2166 
Q 669 2309 669 2503 
Q 669 3034 1175 3344 
Q 1575 3588 2188 3588 
Q 2425 3588 2684 3550 
Q 2944 3513 3234 3438 
L 3134 2916 
Q 2847 3006 2606 3047 
Q 2359 3088 2138 3088 
Q 1766 3088 1522 2944 
Q 1228 2772 1228 2522 
Q 1228 2356 1381 2241 
Q 1563 2103 1925 2103 
L 2409 2103 
L 2319 1628 
L 1856 1628 
Q 1425 1628 1172 1469 
Q 828 1253 828 916 
Q 828 703 1013 563 
Q 1244 388 1716 388 
Q 2006 388 2284 444 
Q 2563 503 2806 619 
L 2700 84 
Q 2403 -3 2131 -47 
Q 1859 -91 1609 -91 
Q 866 -91 516 194 
Q 250 413 250 781 
Q 250 1278 600 1584 
Q 859 1813 1263 1888 
z
" transform="scale(0.015625)"/>
      <path id="DejaVuSans-Oblique-3b8" d="M 2913 2219 
L 925 2219 
Q 791 1284 928 888 
Q 1100 400 1566 400 
Q 2034 400 2391 891 
Q 2703 1322 2913 2219 
z
M 3009 2750 
Q 3094 3638 2984 3950 
Q 2813 4444 2353 4444 
Q 1875 4444 1525 3956 
Q 1250 3563 1034 2750 
L 3009 2750 
z
M 2444 4913 
Q 3194 4913 3494 4250 
Q 3794 3591 3566 2422 
Q 3341 1256 2781 594 
Q 2225 -72 1475 -72 
Q 722 -72 425 594 
Q 128 1256 353 2422 
Q 581 3591 1134 4250 
Q 1691 4913 2444 4913 
z
" transform="scale(0.015625)"/>
      <path id="DejaVuSans-Oblique-67" d="M 3816 3500 
L 3219 434 
Q 3047 -456 2561 -893 
Q 2075 -1331 1253 -1331 
Q 950 -1331 690 -1286 
Q 431 -1241 206 -1147 
L 313 -588 
Q 525 -725 762 -790 
Q 1000 -856 1269 -856 
Q 1816 -856 2167 -557 
Q 2519 -259 2631 300 
L 2681 563 
Q 2441 288 2122 144 
Q 1803 0 1434 0 
Q 903 0 598 351 
Q 294 703 294 1319 
Q 294 1803 478 2267 
Q 663 2731 997 3091 
Q 1219 3328 1514 3456 
Q 1809 3584 2131 3584 
Q 2484 3584 2746 3420 
Q 3009 3256 3138 2956 
L 3238 3500 
L 3816 3500 
z
M 2950 2216 
Q 2950 2641 2750 2872 
Q 2550 3103 2181 3103 
Q 1953 3103 1747 3012 
Q 1541 2922 1394 2759 
Q 1156 2491 1023 2127 
Q 891 1763 891 1375 
Q 891 944 1092 712 
Q 1294 481 1672 481 
Q 2219 481 2584 976 
Q 2950 1472 2950 2216 
z
" transform="scale(0.015625)"/>
      <path id="STIXSizeTwoSym-Regular-29" d="M 730 9792 
L 730 10022 
Q 1805 9011 2432 7507 
Q 3059 6003 3059 4115 
Q 3059 2234 2416 643 
Q 1773 -947 730 -1786 
L 730 -1574 
Q 1459 -826 1955 633 
Q 2451 2093 2451 4115 
Q 2451 7674 730 9792 
z
" transform="scale(0.015625)"/>
      <path id="DejaVuSans-2b" d="M 2944 4013 
L 2944 2272 
L 4684 2272 
L 4684 1741 
L 2944 1741 
L 2944 0 
L 2419 0 
L 2419 1741 
L 678 1741 
L 678 2272 
L 2419 2272 
L 2419 4013 
L 2944 4013 
z
" transform="scale(0.015625)"/>
      <path id="DejaVuSans-Oblique-3c3" d="M 2219 3044 
Q 1744 3044 1422 2700 
Q 1081 2341 969 1747 
Q 844 1119 1044 756 
Q 1241 397 1706 397 
Q 2166 397 2503 759 
Q 2844 1122 2966 1747 
Q 3075 2319 2881 2700 
Q 2700 3044 2219 3044 
z
M 2309 3503 
L 4219 3500 
L 4106 2925 
L 3463 2925 
Q 3706 2438 3575 1747 
Q 3406 888 2884 400 
Q 2359 -91 1609 -91 
Q 856 -91 525 400 
Q 194 888 363 1747 
Q 528 2609 1050 3097 
Q 1484 3503 2309 3503 
z
" transform="scale(0.015625)"/>
      <path id="DejaVuSans-Oblique-3b7" d="M 3703 2113 
L 3034 -1331 
L 2459 -1331 
L 3125 2094 
Q 3222 2591 3075 2838 
Q 2931 3084 2544 3084 
Q 2078 3084 1750 2788 
Q 1425 2491 1325 1978 
L 941 0 
L 363 0 
L 1044 3500 
L 1622 3500 
L 1516 2956 
Q 1781 3272 2094 3428 
Q 2403 3584 2769 3584 
Q 3372 3584 3609 3213 
Q 3844 2838 3703 2113 
z
" transform="scale(0.015625)"/>
     </defs>
     <use xlink:href="#DejaVuSans-Oblique-7a" transform="translate(0 0.684375)"/>
     <use xlink:href="#DejaVuSans-Oblique-74" transform="translate(52.490234 -15.721875) scale(0.7)"/>
     <use xlink:href="#DejaVuSans-2212" transform="translate(93.574219 -15.721875) scale(0.7)"/>
     <use xlink:href="#DejaVuSans-31" transform="translate(165.864258 -15.721875) scale(0.7)"/>
     <use xlink:href="#DejaVuSans-3d" transform="translate(232.617188 0.684375)"/>
     <use xlink:href="#DejaVuSans-31" transform="translate(376.888672 44.48125) scale(0.7)"/>
     <use xlink:href="#STIXSizeOneSym-Regular-221a" transform="translate(335.888672 -51.803125) scale(0.393435)"/>
     <use xlink:href="#DejaVuSans-Oblique-3b1" transform="translate(386.258049 -51.453125) scale(0.7)"/>
     <use xlink:href="#DejaVuSans-Oblique-74" transform="translate(432.400627 -62.9375) scale(0.49)"/>
     <use xlink:href="#STIXSizeTwoSym-Regular-28" transform="translate(458.541416 -49.6875) scale(1.000508)"/>
     <use xlink:href="#DejaVuSans-Oblique-7a" transform="translate(517.44141 0.684375)"/>
     <use xlink:href="#DejaVuSans-Oblique-74" transform="translate(569.931644 -15.721875) scale(0.7)"/>
     <use xlink:href="#DejaVuSans-2212" transform="translate(619.59473 0.684375)"/>
     <use xlink:href="#DejaVuSans-31" transform="translate(756.866214 55.965625) scale(0.7)"/>
     <use xlink:href="#DejaVuSans-2212" transform="translate(815.040042 55.965625) scale(0.7)"/>
     <use xlink:href="#DejaVuSans-Oblique-3b1" transform="translate(887.330081 55.965625) scale(0.7)"/>
     <use xlink:href="#DejaVuSans-Oblique-74" transform="translate(933.47266 44.48125) scale(0.49)"/>
     <use xlink:href="#STIXSizeOneSym-Regular-221a" transform="translate(722.866214 -63.757812) scale(0.468226)"/>
     <use xlink:href="#DejaVuSans-31" transform="translate(781.097026 -66.267187) scale(0.7)"/>
     <use xlink:href="#DejaVuSans-2212" transform="translate(839.270854 -66.267187) scale(0.7)"/>
     <use xlink:href="#DejaVuSans-304" transform="translate(955.936284 -65.301562) scale(0.7)"/>
     <use xlink:href="#DejaVuSans-Oblique-3b1" transform="translate(911.560894 -66.267187) scale(0.7)"/>
     <use xlink:href="#DejaVuSans-Oblique-74" transform="translate(958.373394 -77.751562) scale(0.49)"/>
     <use xlink:href="#DejaVuSans-28" transform="translate(1016.985535 0.684375)"/>
     <use xlink:href="#DejaVuSans-302" transform="translate(1110.233582 13.246875)"/>
     <use xlink:href="#DejaVuSans-Oblique-3b5" transform="translate(1055.999207 0.684375)"/>
     <use xlink:href="#DejaVuSans-Oblique-3b8" transform="translate(1111.008972 -15.721875) scale(0.7)"/>
     <use xlink:href="#DejaVuSans-2212" transform="translate(1176.052917 0.684375)"/>
     <use xlink:href="#DejaVuSans-Oblique-67" transform="translate(1279.324402 0.684375)"/>
     <use xlink:href="#DejaVuSans-Oblique-74" transform="translate(1342.800964 -15.721875) scale(0.7)"/>
     <use xlink:href="#DejaVuSans-29" transform="translate(1372.981628 0.684375)"/>
     <use xlink:href="#STIXSizeTwoSym-Regular-29" transform="translate(1411.9953 -49.6875) scale(1.000508)"/>
     <use xlink:href="#DejaVuSans-2b" transform="translate(1492.27771 0.684375)"/>
     <use xlink:href="#DejaVuSans-Oblique-3c3" transform="translate(1595.549194 0.684375)"/>
     <use xlink:href="#DejaVuSans-Oblique-74" transform="translate(1658.928101 -15.721875) scale(0.7)"/>
     <use xlink:href="#DejaVuSans-Oblique-3b7" transform="translate(1705.344441 0.684375)"/>
     <path d="M 335.888672 19.48125 
L 335.888672 25.73125 
L 462.277092 25.73125 
L 462.277092 19.48125 
L 335.888672 19.48125 
z
"/>
     <path d="M 377.508049 4.48125 
L 377.508049 8.85625 
L 462.277092 8.85625 
L 462.277092 4.48125 
L 377.508049 4.48125 
z
"/>
     <path d="M 722.866214 19.48125 
L 722.866214 25.73125 
L 988.249858 25.73125 
L 988.249858 19.48125 
L 722.866214 19.48125 
z
"/>
     <path d="M 772.347026 4.48125 
L 772.347026 8.85625 
L 988.249858 8.85625 
L 988.249858 4.48125 
L 772.347026 4.48125 
z
"/>
    </g>
   </g>
   <g id="text_14">
    <!-- $t = T \to 1$,  40 steps,  $\eta = 0.1$ -->
    <g style="fill: #5a6a7a" transform="translate(240.708 225.826375) scale(0.088 -0.088)">
     <defs>
      <path id="DejaVuSans-2192" d="M 5050 2147 
L 5050 1866 
L 3822 638 
L 3447 1013 
L 4175 1741 
L 366 1741 
L 366 2272 
L 4175 2272 
L 3447 3000 
L 3822 3375 
L 5050 2147 
z
" transform="scale(0.015625)"/>
      <path id="DejaVuSerif-Italic-2c" d="M 125 -622 
Q 463 -406 656 -114 
Q 850 178 931 594 
L 953 709 
L 1569 709 
Q 1441 175 1139 -208 
Q 838 -591 328 -872 
L 125 -622 
z
" transform="scale(0.015625)"/>
      <path id="DejaVuSerif-Italic-34" d="M 2084 1581 
L 2566 4063 
L 491 1581 
L 2084 1581 
z
M 3150 0 
L 1025 0 
L 1091 331 
L 1841 331 
L 2019 1247 
L -19 1247 
L 47 1588 
L 2706 4750 
L 3325 4750 
L 2709 1581 
L 3600 1581 
L 3534 1247 
L 2644 1247 
L 2466 331 
L 3216 331 
L 3150 0 
z
" transform="scale(0.015625)"/>
      <path id="DejaVuSerif-Italic-30" d="M 1011 744 
Q 1147 219 1625 219 
Q 2103 219 2442 744 
Q 2781 1269 2988 2328 
Q 3194 3391 3058 3916 
Q 2922 4441 2444 4441 
Q 1966 4441 1627 3916 
Q 1288 3391 1081 2328 
Q 875 1269 1011 744 
z
M 1563 -91 
Q 803 -91 501 546 
Q 200 1184 422 2328 
Q 644 3475 1195 4112 
Q 1747 4750 2506 4750 
Q 3269 4750 3569 4112 
Q 3869 3475 3647 2328 
Q 3425 1184 2875 546 
Q 2325 -91 1563 -91 
z
" transform="scale(0.015625)"/>
      <path id="DejaVuSerif-Italic-70" d="M 1466 1825 
L 1400 1497 
Q 1353 1250 1353 1053 
Q 1353 769 1453 581 
Q 1622 269 2059 269 
Q 2500 269 2795 622 
Q 3091 975 3225 1663 
Q 3284 1978 3284 2225 
Q 3284 2513 3200 2703 
Q 3041 3053 2600 3053 
Q 2163 3053 1872 2737 
Q 1581 2422 1466 1825 
z
M 1116 2988 
L 563 2988 
L 628 3322 
L 1756 3322 
L 1656 2803 
Q 1884 3116 2175 3264 
Q 2466 3413 2850 3413 
Q 3463 3413 3753 2928 
Q 3947 2609 3947 2163 
Q 3947 1928 3897 1663 
Q 3744 881 3262 395 
Q 2781 -91 2169 -91 
Q 1784 -91 1551 57 
Q 1319 206 1213 519 
L 850 -1331 
L 275 -1331 
L 1116 2988 
z
" transform="scale(0.015625)"/>
      <path id="DejaVuSans-2e" d="M 684 794 
L 1344 794 
L 1344 0 
L 684 0 
L 684 794 
z
" transform="scale(0.015625)"/>
     </defs>
     <use xlink:href="#DejaVuSans-Oblique-74" transform="translate(0 0.78125)"/>
     <use xlink:href="#DejaVuSans-3d" transform="translate(58.691406 0.78125)"/>
     <use xlink:href="#DejaVuSans-Oblique-54" transform="translate(161.962891 0.78125)"/>
     <use xlink:href="#DejaVuSans-2192" transform="translate(242.529297 0.78125)"/>
     <use xlink:href="#DejaVuSans-31" transform="translate(345.800781 0.78125)"/>
     <use xlink:href="#DejaVuSerif-Italic-2c" transform="translate(409.423828 0.78125)"/>
     <use xlink:href="#DejaVuSerif-Italic-20" transform="translate(441.210938 0.78125)"/>
     <use xlink:href="#DejaVuSerif-Italic-20" transform="translate(472.998047 0.78125)"/>
     <use xlink:href="#DejaVuSerif-Italic-34" transform="translate(504.785156 0.78125)"/>
     <use xlink:href="#DejaVuSerif-Italic-30" transform="translate(568.408203 0.78125)"/>
     <use xlink:href="#DejaVuSerif-Italic-20" transform="translate(632.03125 0.78125)"/>
     <use xlink:href="#DejaVuSerif-Italic-73" transform="translate(663.818359 0.78125)"/>
     <use xlink:href="#DejaVuSerif-Italic-74" transform="translate(715.136719 0.78125)"/>
     <use xlink:href="#DejaVuSerif-Italic-65" transform="translate(755.322266 0.78125)"/>
     <use xlink:href="#DejaVuSerif-Italic-70" transform="translate(814.501953 0.78125)"/>
     <use xlink:href="#DejaVuSerif-Italic-73" transform="translate(878.515625 0.78125)"/>
     <use xlink:href="#DejaVuSerif-Italic-2c" transform="translate(929.833984 0.78125)"/>
     <use xlink:href="#DejaVuSerif-Italic-20" transform="translate(961.621094 0.78125)"/>
     <use xlink:href="#DejaVuSerif-Italic-20" transform="translate(993.408203 0.78125)"/>
     <use xlink:href="#DejaVuSans-Oblique-3b7" transform="translate(1025.195312 0.78125)"/>
     <use xlink:href="#DejaVuSans-3d" transform="translate(1108.056641 0.78125)"/>
     <use xlink:href="#DejaVuSans-30" transform="translate(1211.328125 0.78125)"/>
     <use xlink:href="#DejaVuSans-2e" transform="translate(1274.951172 0.78125)"/>
     <use xlink:href="#DejaVuSans-31" transform="translate(1306.738281 0.78125)"/>
    </g>
   </g>
   <g id="text_15">
    <!-- $z_0$ -->
    <g style="fill: #1f2c3a" transform="translate(539.218 195.930961) scale(0.115 -0.115)">
     <use xlink:href="#DejaVuSans-Oblique-7a" transform="translate(0 0.3125)"/>
     <use xlink:href="#DejaVuSans-30" transform="translate(52.490234 -16.09375) scale(0.7)"/>
    </g>
   </g>
   <g id="text_16">
    <!-- denoised latent -->
    <g style="fill: #5a6a7a" transform="translate(509.792766 214.090717) scale(0.09 -0.09)">
     <use xlink:href="#DejaVuSerif-Italic-64"/>
     <use xlink:href="#DejaVuSerif-Italic-65" transform="translate(64.013672 0)"/>
     <use xlink:href="#DejaVuSerif-Italic-6e" transform="translate(123.193359 0)"/>
     <use xlink:href="#DejaVuSerif-Italic-6f" transform="translate(187.597656 0)"/>
     <use xlink:href="#DejaVuSerif-Italic-69" transform="translate(247.802734 0)"/>
     <use xlink:href="#DejaVuSerif-Italic-73" transform="translate(279.785156 0)"/>
     <use xlink:href="#DejaVuSerif-Italic-65" transform="translate(331.103516 0)"/>
     <use xlink:href="#DejaVuSerif-Italic-64" transform="translate(390.283203 0)"/>
     <use xlink:href="#DejaVuSerif-Italic-20" transform="translate(454.296875 0)"/>
     <use xlink:href="#DejaVuSerif-Italic-6c" transform="translate(486.083984 0)"/>
     <use xlink:href="#DejaVuSerif-Italic-61" transform="translate(518.066406 0)"/>
     <use xlink:href="#DejaVuSerif-Italic-74" transform="translate(577.685547 0)"/>
     <use xlink:href="#DejaVuSerif-Italic-65" transform="translate(617.871094 0)"/>
     <use xlink:href="#DejaVuSerif-Italic-6e" transform="translate(677.050781 0)"/>
     <use xlink:href="#DejaVuSerif-Italic-74" transform="translate(741.455078 0)"/>
    </g>
   </g>
   <g id="text_17">
    <!-- $g_t = \sum_h s_h\,\nabla_{z_t}\log p_h(c\!\mid\!z_t)$ -->
    <g style="fill: #b88a25" transform="translate(310.734 145.197) scale(0.09 -0.09)">
     <defs>
      <path id="DejaVuSansDisplay-2211" d="M 244 6509 
L 5803 6509 
L 5803 5656 
L 1566 5656 
L 4534 2488 
L 1469 -888 
L 5919 -888 
L 5919 -1738 
L 109 -1738 
L 109 -1078 
L 3316 2463 
L 244 5728 
L 244 6509 
z
" transform="scale(0.015625)"/>
      <path id="DejaVuSans-Oblique-73" d="M 3200 3397 
L 3091 2853 
Q 2863 2978 2609 3040 
Q 2356 3103 2088 3103 
Q 1634 3103 1373 2948 
Q 1113 2794 1113 2528 
Q 1113 2219 1719 2053 
Q 1766 2041 1788 2034 
L 1972 1978 
Q 2547 1819 2739 1644 
Q 2931 1469 2931 1166 
Q 2931 609 2489 259 
Q 2047 -91 1331 -91 
Q 1053 -91 747 -37 
Q 441 16 72 128 
L 184 722 
Q 500 559 806 475 
Q 1113 391 1394 391 
Q 1816 391 2080 572 
Q 2344 753 2344 1031 
Q 2344 1331 1650 1516 
L 1591 1531 
L 1394 1581 
Q 956 1697 753 1886 
Q 550 2075 550 2369 
Q 550 2928 970 3256 
Q 1391 3584 2113 3584 
Q 2397 3584 2667 3537 
Q 2938 3491 3200 3397 
z
" transform="scale(0.015625)"/>
      <path id="DejaVuSans-2207" d="M 2138 659 
L 3444 4047 
L 831 4047 
L 2138 659 
z
M 1791 0 
L -19 4603 
L 4300 4603 
L 2491 0 
L 1791 0 
z
" transform="scale(0.015625)"/>
      <path id="DejaVuSans-6c" d="M 603 4863 
L 1178 4863 
L 1178 0 
L 603 0 
L 603 4863 
z
" transform="scale(0.015625)"/>
      <path id="DejaVuSans-6f" d="M 1959 3097 
Q 1497 3097 1228 2736 
Q 959 2375 959 1747 
Q 959 1119 1226 758 
Q 1494 397 1959 397 
Q 2419 397 2687 759 
Q 2956 1122 2956 1747 
Q 2956 2369 2687 2733 
Q 2419 3097 1959 3097 
z
M 1959 3584 
Q 2709 3584 3137 3096 
Q 3566 2609 3566 1747 
Q 3566 888 3137 398 
Q 2709 -91 1959 -91 
Q 1206 -91 779 398 
Q 353 888 353 1747 
Q 353 2609 779 3096 
Q 1206 3584 1959 3584 
z
" transform="scale(0.015625)"/>
      <path id="DejaVuSans-67" d="M 2906 1791 
Q 2906 2416 2648 2759 
Q 2391 3103 1925 3103 
Q 1463 3103 1205 2759 
Q 947 2416 947 1791 
Q 947 1169 1205 825 
Q 1463 481 1925 481 
Q 2391 481 2648 825 
Q 2906 1169 2906 1791 
z
M 3481 434 
Q 3481 -459 3084 -895 
Q 2688 -1331 1869 -1331 
Q 1566 -1331 1297 -1286 
Q 1028 -1241 775 -1147 
L 775 -588 
Q 1028 -725 1275 -790 
Q 1522 -856 1778 -856 
Q 2344 -856 2625 -561 
Q 2906 -266 2906 331 
L 2906 616 
Q 2728 306 2450 153 
Q 2172 0 1784 0 
Q 1141 0 747 490 
Q 353 981 353 1791 
Q 353 2603 747 3093 
Q 1141 3584 1784 3584 
Q 2172 3584 2450 3431 
Q 2728 3278 2906 2969 
L 2906 3500 
L 3481 3500 
L 3481 434 
z
" transform="scale(0.015625)"/>
      <path id="DejaVuSans-Oblique-70" d="M 3175 2156 
Q 3175 2616 2975 2859 
Q 2775 3103 2400 3103 
Q 2144 3103 1911 2972 
Q 1678 2841 1497 2591 
Q 1319 2344 1212 1994 
Q 1106 1644 1106 1300 
Q 1106 863 1306 627 
Q 1506 391 1875 391 
Q 2147 391 2380 519 
Q 2613 647 2778 891 
Q 2956 1147 3065 1494 
Q 3175 1841 3175 2156 
z
M 1394 2969 
Q 1625 3272 1939 3428 
Q 2253 3584 2638 3584 
Q 3175 3584 3472 3232 
Q 3769 2881 3769 2247 
Q 3769 1728 3584 1258 
Q 3400 788 3053 416 
Q 2822 169 2531 39 
Q 2241 -91 1919 -91 
Q 1547 -91 1294 64 
Q 1041 219 916 525 
L 556 -1331 
L -19 -1331 
L 922 3500 
L 1497 3500 
L 1394 2969 
z
" transform="scale(0.015625)"/>
      <path id="DejaVuSans-Oblique-63" d="M 3431 3366 
L 3316 2797 
Q 3109 2947 2876 3022 
Q 2644 3097 2394 3097 
Q 2119 3097 1870 3000 
Q 1622 2903 1453 2725 
Q 1184 2453 1037 2087 
Q 891 1722 891 1331 
Q 891 859 1127 628 
Q 1363 397 1844 397 
Q 2081 397 2348 469 
Q 2616 541 2906 684 
L 2797 116 
Q 2547 13 2283 -39 
Q 2019 -91 1741 -91 
Q 1044 -91 669 257 
Q 294 606 294 1253 
Q 294 1797 489 2255 
Q 684 2713 1069 3078 
Q 1331 3328 1684 3456 
Q 2038 3584 2456 3584 
Q 2700 3584 2940 3529 
Q 3181 3475 3431 3366 
z
" transform="scale(0.015625)"/>
      <path id="DejaVuSans-2223" d="M 1350 4934 
L 1850 4934 
L 1850 -1369 
L 1350 -1369 
L 1350 4934 
z
" transform="scale(0.015625)"/>
     </defs>
     <use xlink:href="#DejaVuSans-Oblique-67" transform="translate(0 0.296875)"/>
     <use xlink:href="#DejaVuSans-Oblique-74" transform="translate(63.476562 -16.109375) scale(0.7)"/>
     <use xlink:href="#DejaVuSans-3d" transform="translate(113.139648 0.296875)"/>
     <use xlink:href="#DejaVuSansDisplay-2211" transform="translate(216.411133 0.296875)"/>
     <use xlink:href="#DejaVuSans-Oblique-68" transform="translate(243.411133 -98.798438) scale(0.7)"/>
     <use xlink:href="#DejaVuSans-Oblique-73" transform="translate(307.176758 0.296875)"/>
     <use xlink:href="#DejaVuSans-Oblique-68" transform="translate(359.276367 -16.109375) scale(0.7)"/>
     <use xlink:href="#DejaVuSans-2207" transform="translate(422.611653 0.296875)"/>
     <use xlink:href="#DejaVuSans-Oblique-7a" transform="translate(490.463215 -16.109375) scale(0.7)"/>
     <use xlink:href="#DejaVuSans-Oblique-74" transform="translate(527.206379 -27.59375) scale(0.49)"/>
     <use xlink:href="#DejaVuSans-6c" transform="translate(551.067219 0.296875)"/>
     <use xlink:href="#DejaVuSans-6f" transform="translate(578.850422 0.296875)"/>
     <use xlink:href="#DejaVuSans-67" transform="translate(640.032063 0.296875)"/>
     <use xlink:href="#DejaVuSans-Oblique-70" transform="translate(719.744302 0.296875)"/>
     <use xlink:href="#DejaVuSans-Oblique-68" transform="translate(783.220864 -16.109375) scale(0.7)"/>
     <use xlink:href="#DejaVuSans-28" transform="translate(830.320474 0.296875)"/>
     <use xlink:href="#DejaVuSans-Oblique-63" transform="translate(869.334146 0.296875)"/>
     <use xlink:href="#DejaVuSans-2223" transform="translate(927.56136 0.296875)"/>
     <use xlink:href="#DejaVuSans-Oblique-7a" transform="translate(980.808105 0.296875)"/>
     <use xlink:href="#DejaVuSans-Oblique-74" transform="translate(1033.29834 -16.109375) scale(0.7)"/>
     <use xlink:href="#DejaVuSans-29" transform="translate(1063.479004 0.296875)"/>
    </g>
   </g>
   <g id="patch_18">
    <path d="M 108.6552 201.24 
Q 147.186 201.24 183.704339 201.24 
" style="fill: none; stroke: #27445d; stroke-width: 1.8; stroke-linecap: round"/>
    <path d="M 178.904339 198.84 
L 183.704339 201.24 
L 178.904339 203.64 
z
" style="fill: #27445d; stroke: #27445d; stroke-width: 1.8; stroke-linecap: round"/>
   </g>
   <g id="patch_19">
    <path d="M 416.3472 201.24 
Q 460.422 201.24 502.484339 201.24 
" style="fill: none; stroke: #27445d; stroke-width: 1.8; stroke-linecap: round"/>
    <path d="M 497.684339 198.84 
L 502.484339 201.24 
L 497.684339 203.64 
z
" style="fill: #27445d; stroke: #27445d; stroke-width: 1.8; stroke-linecap: round"/>
   </g>
   <g id="line2d_1">
    <path d="M 118.08 95.3496 
L 118.08 120.2976 
" clip-path="url(#p2dc4674140)" style="fill: none; stroke-dasharray: 5.2,3.9; stroke-dashoffset: 0; stroke: #b88a25; stroke-width: 1.3"/>
   </g>
   <g id="line2d_2">
    <path d="M 240.048 95.3496 
L 240.048 120.2976 
" clip-path="url(#p2dc4674140)" style="fill: none; stroke-dasharray: 5.2,3.9; stroke-dashoffset: 0; stroke: #b88a25; stroke-width: 1.3"/>
   </g>
   <g id="line2d_3">
    <path d="M 362.016 95.3496 
L 362.016 120.2976 
" clip-path="url(#p2dc4674140)" style="fill: none; stroke-dasharray: 5.2,3.9; stroke-dashoffset: 0; stroke: #b88a25; stroke-width: 1.3"/>
   </g>
   <g id="line2d_4">
    <path d="M 483.984 95.3496 
L 483.984 120.2976 
" clip-path="url(#p2dc4674140)" style="fill: none; stroke-dasharray: 5.2,3.9; stroke-dashoffset: 0; stroke: #b88a25; stroke-width: 1.3"/>
   </g>
   <g id="line2d_5">
    <path d="M 118.08 120.852 
L 483.984 120.852 
" clip-path="url(#p2dc4674140)" style="fill: none; stroke: #b88a25; stroke-width: 2; stroke-linecap: square"/>
   </g>
   <g id="patch_20">
    <path d="M 301.032 128.0592 
Q 301.032 145.8 301.032 161.304732 
" style="fill: none; stroke-dasharray: 10,6; stroke-dashoffset: 0; stroke: #b88a25; stroke-width: 2; stroke-linecap: round"/>
    <path d="M 303.432 156.504732 
L 301.032 161.304732 
L 298.632 156.504732 
z
" style="fill: #b88a25; stroke-dasharray: 10,6; stroke-dashoffset: 0; stroke: #b88a25; stroke-width: 2; stroke-linecap: round"/>
   </g>
   <g id="line2d_6">
    <path d="M 118.08 120.852 
" clip-path="url(#p2dc4674140)" style="fill: none; stroke: #1f77b4; stroke-width: 1.5; stroke-linecap: square"/>
    <defs>
     <path id="m9895ea7224" d="M 0 1.8 
C 0.477366 1.8 0.935244 1.610341 1.272792 1.272792 
C 1.610341 0.935244 1.8 0.477366 1.8 0 
C 1.8 -0.477366 1.610341 -0.935244 1.272792 -1.272792 
C 0.935244 -1.610341 0.477366 -1.8 0 -1.8 
C -0.477366 -1.8 -0.935244 -1.610341 -1.272792 -1.272792 
C -1.610341 -0.935244 -1.8 -0.477366 -1.8 0 
C -1.8 0.477366 -1.610341 0.935244 -1.272792 1.272792 
C -0.935244 1.610341 -0.477366 1.8 0 1.8 
z
" style="stroke: #b88a25"/>
    </defs>
    <g clip-path="url(#p2dc4674140)">
     <use xlink:href="#m9895ea7224" x="118.08" y="120.852" style="fill: #b88a25; stroke: #b88a25"/>
    </g>
   </g>
   <g id="line2d_7">
    <path d="M 240.048 120.852 
" clip-path="url(#p2dc4674140)" style="fill: none; stroke: #ff7f0e; stroke-width: 1.5; stroke-linecap: square"/>
    <g clip-path="url(#p2dc4674140)">
     <use xlink:href="#m9895ea7224" x="240.048" y="120.852" style="fill: #b88a25; stroke: #b88a25"/>
    </g>
   </g>
   <g id="line2d_8">
    <path d="M 362.016 120.852 
" clip-path="url(#p2dc4674140)" style="fill: none; stroke: #2ca02c; stroke-width: 1.5; stroke-linecap: square"/>
    <g clip-path="url(#p2dc4674140)">
     <use xlink:href="#m9895ea7224" x="362.016" y="120.852" style="fill: #b88a25; stroke: #b88a25"/>
    </g>
   </g>
   <g id="line2d_9">
    <path d="M 483.984 120.852 
" clip-path="url(#p2dc4674140)" style="fill: none; stroke: #d62728; stroke-width: 1.5; stroke-linecap: square"/>
    <g clip-path="url(#p2dc4674140)">
     <use xlink:href="#m9895ea7224" x="483.984" y="120.852" style="fill: #b88a25; stroke: #b88a25"/>
    </g>
   </g>
   <g id="line2d_10">
    <path d="M 301.032 120.852 
" clip-path="url(#p2dc4674140)" style="fill: none; stroke: #9467bd; stroke-width: 1.5; stroke-linecap: square"/>
    <defs>
     <path id="me9f91268aa" d="M 0 5.5 
C 1.458617 5.5 2.857689 4.920485 3.889087 3.889087 
C 4.920485 2.857689 5.5 1.458617 5.5 0 
C 5.5 -1.458617 4.920485 -2.857689 3.889087 -3.889087 
C 2.857689 -4.920485 1.458617 -5.5 0 -5.5 
C -1.458617 -5.5 -2.857689 -4.920485 -3.889087 -3.889087 
C -4.920485 -2.857689 -5.5 -1.458617 -5.5 0 
C -5.5 1.458617 -4.920485 2.857689 -3.889087 3.889087 
C -2.857689 4.920485 -1.458617 5.5 0 5.5 
z
" style="stroke: #b88a25; stroke-width: 1.8"/>
    </defs>
    <g clip-path="url(#p2dc4674140)">
     <use xlink:href="#me9f91268aa" x="301.032" y="120.852" style="fill: #ffffff; stroke: #b88a25; stroke-width: 1.8"/>
    </g>
   </g>
   <g id="text_18">
    <!-- $\Sigma$ -->
    <g style="fill: #b88a25" transform="translate(297.672 123.749344) scale(0.105 -0.105)">
     <defs>
      <path id="DejaVuSans-3a3" d="M 1353 531 
L 3634 531 
L 3634 0 
L 628 0 
L 628 531 
L 2125 2481 
L 628 4134 
L 628 4666 
L 3578 4666 
L 3578 4134 
L 1353 4134 
L 2850 2494 
L 1353 531 
z
" transform="scale(0.015625)"/>
     </defs>
     <use xlink:href="#DejaVuSans-3a3" transform="translate(0 0.09375)"/>
    </g>
   </g>
  </g>
 </g>
 <defs>
  <clipPath id="p2dc4674140">
   <rect x="7.2" y="7.2" width="623.7" height="277.2"/>
  </clipPath>
 </defs>
</svg>
