<?xml version="1.0" encoding="utf-8" standalone="no"?>
<!DOCTYPE svg PUBLIC "-//W3C//DTD SVG 1.1//EN"
  "http://www.w3.org/Graphics/SVG/1.1/DTD/svg11.dtd">
<svg xmlns:xlink="http://www.w3.org/1999/xlink" width="922.32pt" height="273.850435pt" viewBox="0 0 922.32 273.850435" xmlns="http://www.w3.org/2000/svg" version="1.1">
 <metadata>
  <rdf:RDF xmlns:dc="http://purl.org/dc/elements/1.1/" xmlns:cc="http://creativecommons.org/ns#" xmlns:rdf="http://www.w3.org/1999/02/22-rdf-syntax-ns#">
   <cc:Work>
    <dc:type rdf:resource="http://purl.org/dc/dcmitype/StillImage"/>
    <dc:date>2026-04-28T14:48:22.538811</dc:date>
    <dc:format>image/svg+xml</dc:format>
    <dc:creator>
     <cc:Agent>
      <dc:title>Matplotlib v3.10.8, https://matplotlib.org/</dc:title>
     </cc:Agent>
    </dc:creator>
   </cc:Work>
  </rdf:RDF>
 </metadata>
 <defs>
  <style type="text/css">*{stroke-linejoin: round; stroke-linecap: butt}</style>
 </defs>
 <g id="figure_1">
  <g id="patch_1">
   <path d="M 0 273.850435 
L 922.32 273.850435 
L 922.32 0 
L 0 0 
z
" style="fill: #ffffff"/>
  </g>
  <g id="axes_1">
   <g id="patch_2">
    <path d="M 31.324383 181.905809 
L 96.893217 181.905809 
Q 101.841809 181.905809 101.841809 176.957217 
L 101.841809 136.131339 
Q 101.841809 131.182748 96.893217 131.182748 
L 31.324383 131.182748 
Q 26.375791 131.182748 26.375791 136.131339 
L 26.375791 176.957217 
Q 26.375791 181.905809 31.324383 181.905809 
z
" clip-path="url(#p9179b84603)" style="fill: #0a1620; opacity: 0.1"/>
   </g>
   <g id="patch_3">
    <path d="M 145.760557 181.905809 
L 217.51513 181.905809 
Q 222.463722 181.905809 222.463722 176.957217 
L 222.463722 136.131339 
Q 222.463722 131.182748 217.51513 131.182748 
L 145.760557 131.182748 
Q 140.811965 131.182748 140.811965 136.131339 
L 140.811965 176.957217 
Q 140.811965 181.905809 145.760557 181.905809 
z
" clip-path="url(#p9179b84603)" style="fill: #0a1620; opacity: 0.1"/>
   </g>
   <g id="patch_4">
    <path d="M 269.475339 181.905809 
L 341.229913 181.905809 
Q 346.178504 181.905809 346.178504 176.957217 
L 346.178504 136.131339 
Q 346.178504 131.182748 341.229913 131.182748 
L 269.475339 131.182748 
Q 264.526748 131.182748 264.526748 136.131339 
L 264.526748 176.957217 
Q 264.526748 181.905809 269.475339 181.905809 
z
" clip-path="url(#p9179b84603)" style="fill: #0a1620; opacity: 0.1"/>
   </g>
   <g id="patch_5">
    <path d="M 390.097252 181.905809 
L 468.037565 181.905809 
Q 472.986157 181.905809 472.986157 176.957217 
L 472.986157 136.131339 
Q 472.986157 131.182748 468.037565 131.182748 
L 390.097252 131.182748 
Q 385.148661 131.182748 385.148661 136.131339 
L 385.148661 176.957217 
Q 385.148661 181.905809 390.097252 181.905809 
z
" clip-path="url(#p9179b84603)" style="fill: #0a1620; opacity: 0.1"/>
   </g>
   <g id="patch_6">
    <path d="M 516.904904 181.905809 
L 594.845217 181.905809 
Q 599.793809 181.905809 599.793809 176.957217 
L 599.793809 136.131339 
Q 599.793809 131.182748 594.845217 131.182748 
L 516.904904 131.182748 
Q 511.956313 131.182748 511.956313 136.131339 
L 511.956313 176.957217 
Q 511.956313 181.905809 516.904904 181.905809 
z
" clip-path="url(#p9179b84603)" style="fill: #0a1620; opacity: 0.1"/>
   </g>
   <g id="patch_7">
    <path d="M 649.898296 181.905809 
L 709.281391 181.905809 
Q 714.229983 181.905809 714.229983 176.957217 
L 714.229983 136.131339 
Q 714.229983 131.182748 709.281391 131.182748 
L 649.898296 131.182748 
Q 644.949704 131.182748 644.949704 136.131339 
L 644.949704 176.957217 
Q 644.949704 181.905809 649.898296 181.905809 
z
" clip-path="url(#p9179b84603)" style="fill: #0a1620; opacity: 0.1"/>
   </g>
   <g id="patch_8">
    <path d="M 30.087235 180.668661 
L 95.65607 180.668661 
Q 100.604661 180.668661 100.604661 175.72007 
L 100.604661 134.894191 
Q 100.604661 129.9456 95.65607 129.9456 
L 30.087235 129.9456 
Q 25.138643 129.9456 25.138643 134.894191 
L 25.138643 175.72007 
Q 25.138643 180.668661 30.087235 180.668661 
z
" clip-path="url(#p9179b84603)" style="fill: #fdf3d8; stroke: #b88a25; stroke-width: 1.5; stroke-linejoin: miter"/>
   </g>
   <g id="patch_9">
    <path d="M 144.523409 180.668661 
L 216.277983 180.668661 
Q 221.226574 180.668661 221.226574 175.72007 
L 221.226574 134.894191 
Q 221.226574 129.9456 216.277983 129.9456 
L 144.523409 129.9456 
Q 139.574817 129.9456 139.574817 134.894191 
L 139.574817 175.72007 
Q 139.574817 180.668661 144.523409 180.668661 
z
" clip-path="url(#p9179b84603)" style="fill: #dde6e9; stroke: #27445d; stroke-width: 1.5; stroke-linejoin: miter"/>
   </g>
   <g id="patch_10">
    <path d="M 268.238191 180.668661 
L 339.992765 180.668661 
Q 344.941357 180.668661 344.941357 175.72007 
L 344.941357 134.894191 
Q 344.941357 129.9456 339.992765 129.9456 
L 268.238191 129.9456 
Q 263.2896 129.9456 263.2896 134.894191 
L 263.2896 175.72007 
Q 263.2896 180.668661 268.238191 180.668661 
z
" clip-path="url(#p9179b84603)" style="fill: #f6f3ed; stroke: #27445d; stroke-width: 1.5; stroke-linejoin: miter"/>
   </g>
   <g id="patch_11">
    <path d="M 388.860104 180.668661 
L 466.800417 180.668661 
Q 471.749009 180.668661 471.749009 175.72007 
L 471.749009 134.894191 
Q 471.749009 129.9456 466.800417 129.9456 
L 388.860104 129.9456 
Q 383.911513 129.9456 383.911513 134.894191 
L 383.911513 175.72007 
Q 383.911513 180.668661 388.860104 180.668661 
z
" clip-path="url(#p9179b84603)" style="fill: #f7e6e6; stroke: #aa3a3a; stroke-width: 1.5; stroke-linejoin: miter"/>
   </g>
   <g id="patch_12">
    <path d="M 515.667757 180.668661 
L 593.60807 180.668661 
Q 598.556661 180.668661 598.556661 175.72007 
L 598.556661 134.894191 
Q 598.556661 129.9456 593.60807 129.9456 
L 515.667757 129.9456 
Q 510.719165 129.9456 510.719165 134.894191 
L 510.719165 175.72007 
Q 510.719165 180.668661 515.667757 180.668661 
z
" clip-path="url(#p9179b84603)" style="fill: #e3f1e3; stroke: #3a7a4a; stroke-width: 1.5; stroke-linejoin: miter"/>
   </g>
   <g id="patch_13">
    <path d="M 648.661148 180.668661 
L 708.044243 180.668661 
Q 712.992835 180.668661 712.992835 175.72007 
L 712.992835 134.894191 
Q 712.992835 129.9456 708.044243 129.9456 
L 648.661148 129.9456 
Q 643.712557 129.9456 643.712557 134.894191 
L 643.712557 175.72007 
Q 643.712557 180.668661 648.661148 180.668661 
z
" clip-path="url(#p9179b84603)" style="fill: #fdf3d8; stroke: #b88a25; stroke-width: 1.5; stroke-linejoin: miter"/>
   </g>
   <g id="text_1">
    <!-- $z_0$ -->
    <g style="fill: #1f2c3a" transform="translate(57.121652 149.572947) scale(0.115 -0.115)">
     <defs>
      <path id="DejaVuSans-Oblique-7a" d="M 744 3500 
L 3475 3500 
L 3372 2975 
L 738 459 
L 2913 459 
L 2822 0 
L -19 0 
L 84 525 
L 2719 3041 
L 653 3041 
L 744 3500 
z
" transform="scale(0.015625)"/>
      <path id="DejaVuSans-30" d="M 2034 4250 
Q 1547 4250 1301 3770 
Q 1056 3291 1056 2328 
Q 1056 1369 1301 889 
Q 1547 409 2034 409 
Q 2525 409 2770 889 
Q 3016 1369 3016 2328 
Q 3016 3291 2770 3770 
Q 2525 4250 2034 4250 
z
M 2034 4750 
Q 2819 4750 3233 4129 
Q 3647 3509 3647 2328 
Q 3647 1150 3233 529 
Q 2819 -91 2034 -91 
Q 1250 -91 836 529 
Q 422 1150 422 2328 
Q 422 3509 836 4129 
Q 1250 4750 2034 4750 
z
" transform="scale(0.015625)"/>
     </defs>
     <use xlink:href="#DejaVuSans-Oblique-7a" transform="translate(0 0.3125)"/>
     <use xlink:href="#DejaVuSans-30" transform="translate(52.490234 -16.09375) scale(0.7)"/>
    </g>
   </g>
   <g id="text_2">
    <!-- denoised latent -->
    <g style="fill: #5a6a7a" transform="translate(27.696418 168.677469) scale(0.09 -0.09)">
     <defs>
      <path id="DejaVuSerif-Italic-64" d="M 3841 4863 
L 2897 0 
L 2322 0 
L 2422 519 
Q 2191 206 1902 57 
Q 1613 -91 1228 -91 
Q 616 -91 322 394 
Q 125 716 125 1166 
Q 125 1397 178 1663 
Q 331 2444 812 2928 
Q 1294 3413 1909 3413 
Q 2294 3413 2525 3264 
Q 2756 3116 2866 2803 
L 3200 4531 
L 2656 4531 
L 2722 4863 
L 3841 4863 
z
M 2613 1497 
L 2675 1825 
Q 2722 2069 2722 2266 
Q 2722 2550 2622 2738 
Q 2456 3053 2019 3053 
Q 1575 3053 1279 2703 
Q 984 2353 850 1663 
Q 788 1347 788 1103 
Q 788 813 875 622 
Q 1031 269 1475 269 
Q 1913 269 2203 583 
Q 2494 897 2613 1497 
z
" transform="scale(0.015625)"/>
      <path id="DejaVuSerif-Italic-65" d="M 938 1275 
Q 925 1156 925 1050 
Q 925 756 1031 563 
Q 1216 219 1709 219 
Q 2072 219 2250 328 
Q 2569 525 2644 778 
L 3066 778 
Q 2941 381 2475 103 
Q 2150 -91 1506 -91 
Q 863 -91 516 388 
Q 272 722 272 1206 
Q 272 1419 319 1659 
Q 472 2450 1000 2931 
Q 1528 3413 2278 3413 
Q 3500 3413 3500 2547 
Q 3500 1913 2859 1603 
Q 2206 1288 938 1275 
z
M 2541 1975 
Q 2891 2181 2891 2569 
Q 2891 3103 2181 3103 
Q 1763 3103 1472 2784 
Q 1181 2466 1003 1606 
Q 2006 1653 2541 1975 
z
" transform="scale(0.015625)"/>
      <path id="DejaVuSerif-Italic-6e" d="M 450 0 
L 1031 2988 
L 481 2988 
L 544 3322 
L 1669 3322 
L 1556 2731 
Q 1781 3069 2068 3241 
Q 2356 3413 2694 3413 
Q 3244 3413 3444 3097 
Q 3563 2906 3563 2588 
Q 3563 2378 3509 2113 
L 3163 331 
L 3675 331 
L 3613 0 
L 2522 0 
L 2897 1931 
Q 2959 2253 2959 2469 
Q 2959 2659 2909 2769 
Q 2803 2994 2425 2994 
Q 2025 2994 1759 2701 
Q 1494 2409 1384 1850 
L 1025 0 
L 450 0 
z
" transform="scale(0.015625)"/>
      <path id="DejaVuSerif-Italic-6f" d="M 1644 219 
Q 2106 219 2414 584 
Q 2722 950 2859 1663 
Q 2922 1988 2922 2241 
Q 2922 2541 2834 2738 
Q 2669 3103 2206 3103 
Q 1744 3103 1436 2739 
Q 1128 2375 991 1663 
Q 928 1338 928 1088 
Q 928 784 1019 584 
Q 1184 219 1644 219 
z
M 1584 -91 
Q 859 -91 513 388 
Q 272 722 272 1203 
Q 272 1419 319 1663 
Q 472 2456 1005 2934 
Q 1538 3413 2266 3413 
Q 2994 3413 3341 2934 
Q 3578 2603 3578 2122 
Q 3578 1906 3531 1663 
Q 3378 869 2845 389 
Q 2313 -91 1584 -91 
z
" transform="scale(0.015625)"/>
      <path id="DejaVuSerif-Italic-69" d="M 1009 4353 
Q 1038 4497 1163 4603 
Q 1288 4709 1434 4709 
Q 1578 4709 1663 4603 
Q 1728 4522 1728 4422 
Q 1728 4388 1719 4353 
Q 1691 4206 1567 4103 
Q 1444 4000 1297 4000 
Q 1150 4000 1066 4103 
Q 1003 4181 1003 4281 
Q 1003 4316 1009 4353 
z
M 963 331 
L 1506 331 
L 1444 0 
L 325 0 
L 903 2988 
L 353 2988 
L 419 3322 
L 1544 3322 
L 963 331 
z
" transform="scale(0.015625)"/>
      <path id="DejaVuSerif-Italic-73" d="M 222 959 
L 553 959 
Q 541 869 541 788 
Q 541 219 1313 219 
Q 2088 219 2200 788 
Q 2209 844 2209 944 
Q 2209 1041 2103 1158 
Q 1997 1275 1550 1428 
L 1159 1569 
Q 759 1706 629 1882 
Q 500 2059 500 2263 
Q 500 2344 516 2438 
Q 606 2894 990 3153 
Q 1375 3413 1931 3413 
Q 2484 3413 3066 3144 
L 2925 2419 
L 2594 2419 
Q 2606 2491 2606 2553 
Q 2606 2781 2448 2942 
Q 2291 3103 1925 3103 
Q 1191 3103 1091 2591 
Q 1078 2538 1078 2444 
Q 1078 2347 1179 2237 
Q 1281 2128 1678 1997 
L 2106 1856 
Q 2550 1709 2716 1488 
Q 2831 1331 2831 1178 
Q 2831 522 2306 181 
Q 1894 -91 1262 -91 
Q 631 -91 72 184 
L 222 959 
z
" transform="scale(0.015625)"/>
      <path id="DejaVuSerif-Italic-20" transform="scale(0.015625)"/>
      <path id="DejaVuSerif-Italic-6c" d="M 903 331 
L 1447 331 
L 1384 0 
L 266 0 
L 1147 4531 
L 594 4531 
L 656 4863 
L 1784 4863 
L 903 331 
z
" transform="scale(0.015625)"/>
      <path id="DejaVuSerif-Italic-61" d="M 2325 519 
Q 1909 -91 1238 -91 
Q 688 -91 409 281 
Q 216 544 216 919 
Q 216 1078 250 1256 
Q 463 2359 1231 2928 
Q 1884 3413 2675 3413 
Q 3206 3413 3388 3322 
L 2806 331 
L 3300 331 
L 3238 0 
L 2225 0 
L 2325 519 
z
M 822 938 
Q 822 269 1469 269 
Q 1863 269 2130 583 
Q 2397 897 2516 1497 
L 2806 3003 
L 2806 3003 
Q 2806 3094 2556 3094 
Q 1956 3094 1491 2625 
Q 1028 2153 863 1297 
Q 822 1097 822 938 
z
" transform="scale(0.015625)"/>
      <path id="DejaVuSerif-Italic-74" d="M 856 2988 
L 350 2988 
L 416 3322 
L 922 3322 
L 1122 4353 
L 1700 4353 
L 1500 3322 
L 2581 3322 
L 2516 2988 
L 1434 2988 
L 1025 878 
Q 978 631 978 488 
Q 978 388 1000 338 
Q 1059 219 1278 219 
Q 1503 219 1633 351 
Q 1763 484 1825 781 
L 2259 781 
Q 2147 328 1884 118 
Q 1622 -91 1169 -91 
Q 672 -91 506 131 
Q 406 266 406 516 
Q 406 675 447 878 
L 856 2988 
z
" transform="scale(0.015625)"/>
     </defs>
     <use xlink:href="#DejaVuSerif-Italic-64"/>
     <use xlink:href="#DejaVuSerif-Italic-65" transform="translate(64.013672 0)"/>
     <use xlink:href="#DejaVuSerif-Italic-6e" transform="translate(123.193359 0)"/>
     <use xlink:href="#DejaVuSerif-Italic-6f" transform="translate(187.597656 0)"/>
     <use xlink:href="#DejaVuSerif-Italic-69" transform="translate(247.802734 0)"/>
     <use xlink:href="#DejaVuSerif-Italic-73" transform="translate(279.785156 0)"/>
     <use xlink:href="#DejaVuSerif-Italic-65" transform="translate(331.103516 0)"/>
     <use xlink:href="#DejaVuSerif-Italic-64" transform="translate(390.283203 0)"/>
     <use xlink:href="#DejaVuSerif-Italic-20" transform="translate(454.296875 0)"/>
     <use xlink:href="#DejaVuSerif-Italic-6c" transform="translate(486.083984 0)"/>
     <use xlink:href="#DejaVuSerif-Italic-61" transform="translate(518.066406 0)"/>
     <use xlink:href="#DejaVuSerif-Italic-74" transform="translate(577.685547 0)"/>
     <use xlink:href="#DejaVuSerif-Italic-65" transform="translate(617.871094 0)"/>
     <use xlink:href="#DejaVuSerif-Italic-6e" transform="translate(677.050781 0)"/>
     <use xlink:href="#DejaVuSerif-Italic-74" transform="translate(741.455078 0)"/>
    </g>
   </g>
   <g id="text_3">
    <!-- LIMO decoder -->
    <g style="fill: #1f2c3a" transform="translate(134.568703 149.572947) scale(0.115 -0.115)">
     <defs>
      <path id="DejaVuSerif-Bold-4c" d="M 300 0 
L 300 378 
L 897 378 
L 897 4288 
L 300 4288 
L 300 4666 
L 2700 4666 
L 2700 4288 
L 2100 4288 
L 2100 428 
L 3938 428 
L 3938 1166 
L 4359 1166 
L 4359 0 
L 300 0 
z
" transform="scale(0.015625)"/>
      <path id="DejaVuSerif-Bold-49" d="M 300 0 
L 300 378 
L 897 378 
L 897 4288 
L 300 4288 
L 300 4666 
L 2700 4666 
L 2700 4288 
L 2100 4288 
L 2100 378 
L 2700 378 
L 2700 0 
L 300 0 
z
" transform="scale(0.015625)"/>
      <path id="DejaVuSerif-Bold-4d" d="M 269 0 
L 269 378 
L 863 378 
L 863 4288 
L 269 4288 
L 269 4666 
L 2194 4666 
L 3525 1672 
L 4863 4666 
L 6784 4666 
L 6784 4288 
L 6188 4288 
L 6188 378 
L 6784 378 
L 6784 0 
L 4384 0 
L 4384 378 
L 4978 378 
L 4978 3938 
L 3531 684 
L 2741 684 
L 1300 3938 
L 1300 378 
L 1894 378 
L 1894 0 
L 269 0 
z
" transform="scale(0.015625)"/>
      <path id="DejaVuSerif-Bold-4f" d="M 2784 288 
Q 3381 288 3672 791 
Q 3963 1294 3963 2328 
Q 3963 3366 3672 3869 
Q 3381 4372 2784 4372 
Q 2191 4372 1898 3864 
Q 1606 3356 1606 2328 
Q 1606 1303 1898 795 
Q 2191 288 2784 288 
z
M 2784 -91 
Q 1606 -91 937 553 
Q 269 1197 269 2328 
Q 269 3459 939 4104 
Q 1609 4750 2784 4750 
Q 3963 4750 4631 4106 
Q 5300 3463 5300 2328 
Q 5300 1197 4629 553 
Q 3959 -91 2784 -91 
z
" transform="scale(0.015625)"/>
      <path id="DejaVuSerif-Bold-20" transform="scale(0.015625)"/>
      <path id="DejaVuSerif-Bold-64" d="M 2747 1497 
L 2747 1825 
Q 2747 2406 2597 2665 
Q 2447 2925 2119 2925 
Q 1775 2925 1636 2651 
Q 1497 2378 1497 1663 
Q 1497 947 1637 672 
Q 1778 397 2119 397 
Q 2447 397 2597 656 
Q 2747 916 2747 1497 
z
M 3853 378 
L 4325 378 
L 4325 0 
L 2747 0 
L 2747 422 
Q 2606 163 2367 36 
Q 2128 -91 1778 -91 
Q 1072 -91 667 378 
Q 263 847 263 1663 
Q 263 2481 667 2947 
Q 1072 3413 1778 3413 
Q 2128 3413 2367 3286 
Q 2606 3159 2747 2900 
L 2747 4488 
L 2272 4488 
L 2272 4863 
L 3853 4863 
L 3853 378 
z
" transform="scale(0.015625)"/>
      <path id="DejaVuSerif-Bold-65" d="M 2566 1875 
Q 2566 2531 2444 2795 
Q 2322 3059 2028 3059 
Q 1744 3059 1620 2800 
Q 1497 2541 1497 1931 
L 1497 1875 
L 2566 1875 
z
M 3781 1503 
L 1497 1503 
L 1497 1478 
Q 1497 834 1690 548 
Q 1884 263 2316 263 
Q 2675 263 2897 453 
Q 3119 644 3181 1006 
L 3700 1006 
Q 3566 441 3166 175 
Q 2766 -91 2047 -91 
Q 1184 -91 723 364 
Q 263 819 263 1663 
Q 263 2488 734 2950 
Q 1206 3413 2047 3413 
Q 2872 3413 3312 2927 
Q 3753 2441 3781 1503 
z
" transform="scale(0.015625)"/>
      <path id="DejaVuSerif-Bold-63" d="M 3609 1038 
Q 3491 469 3123 189 
Q 2756 -91 2125 -91 
Q 1238 -91 750 368 
Q 263 828 263 1663 
Q 263 2488 744 2950 
Q 1225 3413 2081 3413 
Q 2428 3413 2781 3347 
Q 3134 3281 3500 3150 
L 3500 2228 
L 3150 2228 
Q 3100 2650 2903 2854 
Q 2706 3059 2350 3059 
Q 1888 3059 1692 2746 
Q 1497 2434 1497 1663 
Q 1497 909 1687 586 
Q 1878 263 2309 263 
Q 2644 263 2845 463 
Q 3047 663 3091 1038 
L 3609 1038 
z
" transform="scale(0.015625)"/>
      <path id="DejaVuSerif-Bold-6f" d="M 2138 263 
Q 2488 263 2630 563 
Q 2772 863 2772 1663 
Q 2772 2463 2631 2761 
Q 2491 3059 2138 3059 
Q 1784 3059 1640 2757 
Q 1497 2456 1497 1663 
Q 1497 869 1640 566 
Q 1784 263 2138 263 
z
M 2138 -91 
Q 1259 -91 761 376 
Q 263 844 263 1663 
Q 263 2484 761 2948 
Q 1259 3413 2138 3413 
Q 3019 3413 3516 2948 
Q 4013 2484 4013 1663 
Q 4013 844 3514 376 
Q 3016 -91 2138 -91 
z
" transform="scale(0.015625)"/>
      <path id="DejaVuSerif-Bold-72" d="M 3438 3359 
L 3438 2369 
L 3084 2369 
Q 3066 2634 2941 2764 
Q 2816 2894 2578 2894 
Q 2216 2894 2006 2575 
Q 1797 2256 1797 1691 
L 1797 378 
L 2400 378 
L 2400 0 
L 219 0 
L 219 378 
L 691 378 
L 691 2944 
L 184 2944 
L 184 3322 
L 1797 3322 
L 1797 2731 
Q 1959 3078 2226 3245 
Q 2494 3413 2881 3413 
Q 2978 3413 3117 3398 
Q 3256 3384 3438 3359 
z
" transform="scale(0.015625)"/>
     </defs>
     <use xlink:href="#DejaVuSerif-Bold-4c"/>
     <use xlink:href="#DejaVuSerif-Bold-49" transform="translate(70.3125 0)"/>
     <use xlink:href="#DejaVuSerif-Bold-4d" transform="translate(117.089844 0)"/>
     <use xlink:href="#DejaVuSerif-Bold-4f" transform="translate(227.783203 0)"/>
     <use xlink:href="#DejaVuSerif-Bold-20" transform="translate(314.892578 0)"/>
     <use xlink:href="#DejaVuSerif-Bold-64" transform="translate(349.707031 0)"/>
     <use xlink:href="#DejaVuSerif-Bold-65" transform="translate(419.628906 0)"/>
     <use xlink:href="#DejaVuSerif-Bold-63" transform="translate(483.251953 0)"/>
     <use xlink:href="#DejaVuSerif-Bold-6f" transform="translate(544.140625 0)"/>
     <use xlink:href="#DejaVuSerif-Bold-64" transform="translate(610.839844 0)"/>
     <use xlink:href="#DejaVuSerif-Bold-65" transform="translate(680.761719 0)"/>
     <use xlink:href="#DejaVuSerif-Bold-72" transform="translate(744.384766 0)"/>
    </g>
   </g>
   <g id="text_4">
    <!-- non-autoregressive -->
    <g style="fill: #5a6a7a" transform="translate(136.502493 168.5495) scale(0.09 -0.09)">
     <defs>
      <path id="DejaVuSerif-Italic-2d" d="M 328 1959 
L 1928 1959 
L 1834 1472 
L 234 1472 
L 328 1959 
z
" transform="scale(0.015625)"/>
      <path id="DejaVuSerif-Italic-75" d="M 3097 3322 
L 3672 3322 
L 3091 331 
L 3634 331 
L 3572 0 
L 2453 0 
L 2566 588 
Q 2341 256 2055 82 
Q 1769 -91 1434 -91 
Q 881 -91 681 225 
Q 559 413 559 734 
Q 559 944 613 1209 
L 956 2988 
L 438 2988 
L 503 3322 
L 1600 3322 
L 1225 1388 
Q 1163 1066 1163 853 
Q 1163 663 1213 556 
Q 1316 331 1697 331 
Q 2097 331 2364 625 
Q 2631 919 2738 1478 
L 3097 3322 
z
" transform="scale(0.015625)"/>
      <path id="DejaVuSerif-Italic-72" d="M 3375 3328 
L 3213 2497 
L 2881 2497 
Q 2891 2559 2891 2613 
Q 2891 2775 2816 2866 
Q 2719 2988 2484 2988 
Q 2059 2988 1775 2694 
Q 1491 2400 1384 1850 
L 1025 0 
L 450 0 
L 1031 2994 
L 481 2994 
L 544 3322 
L 1669 3322 
L 1556 2731 
Q 1791 3078 2089 3245 
Q 2388 3413 2769 3413 
Q 2909 3413 3059 3391 
Q 3209 3369 3375 3328 
z
" transform="scale(0.015625)"/>
      <path id="DejaVuSerif-Italic-67" d="M 3822 3322 
L 3188 72 
Q 3044 -672 2581 -1031 
Q 2078 -1422 1381 -1422 
Q 1053 -1422 765 -1362 
Q 478 -1303 225 -1184 
L 363 -488 
L 663 -488 
Q 653 -813 834 -963 
Q 1016 -1113 1406 -1113 
Q 1913 -1113 2203 -825 
Q 2494 -544 2613 72 
L 2700 519 
Q 2472 206 2181 57 
Q 1891 -91 1525 -91 
Q 975 -91 697 281 
Q 522 516 503 841 
Q 491 1031 534 1256 
Q 750 2359 1516 2928 
Q 2169 3409 2931 3413 
Q 3631 3416 3822 3322 
z
M 3184 2988 
Q 3181 3094 2844 3094 
Q 2234 3094 1775 2625 
Q 1316 2153 1147 1297 
Q 1100 1044 1113 853 
Q 1125 659 1203 528 
Q 1356 269 1756 269 
Q 2194 269 2484 583 
Q 2775 897 2891 1497 
L 2953 1825 
L 3184 2988 
z
" transform="scale(0.015625)"/>
      <path id="DejaVuSerif-Italic-76" d="M 1681 0 
L 1259 0 
L 619 2988 
L 241 2988 
L 303 3322 
L 1163 3322 
L 1725 703 
Q 2084 1016 2325 1413 
Q 2825 2238 3003 2988 
L 2622 2988 
L 2688 3322 
L 3547 3322 
Q 3206 2034 2775 1313 
Q 2400 688 1681 0 
z
" transform="scale(0.015625)"/>
     </defs>
     <use xlink:href="#DejaVuSerif-Italic-6e"/>
     <use xlink:href="#DejaVuSerif-Italic-6f" transform="translate(64.404297 0)"/>
     <use xlink:href="#DejaVuSerif-Italic-6e" transform="translate(124.609375 0)"/>
     <use xlink:href="#DejaVuSerif-Italic-2d" transform="translate(189.013672 0)"/>
     <use xlink:href="#DejaVuSerif-Italic-61" transform="translate(222.802734 0)"/>
     <use xlink:href="#DejaVuSerif-Italic-75" transform="translate(282.421875 0)"/>
     <use xlink:href="#DejaVuSerif-Italic-74" transform="translate(346.826172 0)"/>
     <use xlink:href="#DejaVuSerif-Italic-6f" transform="translate(387.011719 0)"/>
     <use xlink:href="#DejaVuSerif-Italic-72" transform="translate(447.216797 0)"/>
     <use xlink:href="#DejaVuSerif-Italic-65" transform="translate(495.019531 0)"/>
     <use xlink:href="#DejaVuSerif-Italic-67" transform="translate(554.199219 0)"/>
     <use xlink:href="#DejaVuSerif-Italic-72" transform="translate(618.212891 0)"/>
     <use xlink:href="#DejaVuSerif-Italic-65" transform="translate(666.015625 0)"/>
     <use xlink:href="#DejaVuSerif-Italic-73" transform="translate(725.195312 0)"/>
     <use xlink:href="#DejaVuSerif-Italic-73" transform="translate(776.513672 0)"/>
     <use xlink:href="#DejaVuSerif-Italic-69" transform="translate(827.832031 0)"/>
     <use xlink:href="#DejaVuSerif-Italic-76" transform="translate(859.814453 0)"/>
     <use xlink:href="#DejaVuSerif-Italic-65" transform="translate(916.308594 0)"/>
    </g>
   </g>
   <g id="text_5">
    <!-- SMILES pool -->
    <g style="fill: #1f2c3a" transform="translate(262.453135 149.572947) scale(0.115 -0.115)">
     <defs>
      <path id="DejaVuSerif-Bold-53" d="M 494 225 
L 494 1331 
L 891 1331 
Q 981 806 1318 547 
Q 1656 288 2253 288 
Q 2738 288 2991 472 
Q 3244 656 3244 1013 
Q 3244 1294 3072 1450 
Q 2900 1606 2363 1741 
L 1663 1913 
Q 978 2088 700 2398 
Q 422 2709 422 3284 
Q 422 3978 883 4364 
Q 1344 4750 2175 4750 
Q 2584 4750 3026 4681 
Q 3469 4613 3944 4475 
L 3944 3444 
L 3547 3444 
Q 3456 3925 3150 4148 
Q 2844 4372 2278 4372 
Q 1816 4372 1580 4211 
Q 1344 4050 1344 3731 
Q 1344 3441 1506 3289 
Q 1669 3138 2303 2975 
L 3003 2803 
Q 3653 2641 3945 2297 
Q 4238 1953 4238 1350 
Q 4238 644 3750 276 
Q 3263 -91 2316 -91 
Q 1859 -91 1409 -12 
Q 959 66 494 225 
z
" transform="scale(0.015625)"/>
      <path id="DejaVuSerif-Bold-45" d="M 300 0 
L 300 378 
L 897 378 
L 897 4288 
L 300 4288 
L 300 4666 
L 4494 4666 
L 4494 3566 
L 4063 3566 
L 4063 4238 
L 2100 4238 
L 2100 2741 
L 3322 2741 
L 3322 3334 
L 3750 3334 
L 3750 1722 
L 3322 1722 
L 3322 2316 
L 2100 2316 
L 2100 428 
L 4122 428 
L 4122 1100 
L 4550 1100 
L 4550 0 
L 300 0 
z
" transform="scale(0.015625)"/>
      <path id="DejaVuSerif-Bold-70" d="M 1728 1825 
L 1728 1497 
Q 1728 916 1876 656 
Q 2025 397 2356 397 
Q 2697 397 2836 672 
Q 2975 947 2975 1663 
Q 2975 2378 2836 2651 
Q 2697 2925 2356 2925 
Q 2025 2925 1876 2665 
Q 1728 2406 1728 1825 
z
M 622 2944 
L 147 2944 
L 147 3322 
L 1728 3322 
L 1728 2900 
Q 1869 3159 2106 3286 
Q 2344 3413 2694 3413 
Q 3403 3413 3811 2945 
Q 4219 2478 4219 1663 
Q 4219 847 3811 378 
Q 3403 -91 2694 -91 
Q 2344 -91 2106 36 
Q 1869 163 1728 422 
L 1728 -953 
L 2241 -953 
L 2241 -1331 
L 147 -1331 
L 147 -953 
L 622 -953 
L 622 2944 
z
" transform="scale(0.015625)"/>
      <path id="DejaVuSerif-Bold-6c" d="M 1797 378 
L 2272 378 
L 2272 0 
L 219 0 
L 219 378 
L 691 378 
L 691 4488 
L 219 4488 
L 219 4863 
L 1797 4863 
L 1797 378 
z
" transform="scale(0.015625)"/>
     </defs>
     <use xlink:href="#DejaVuSerif-Bold-53"/>
     <use xlink:href="#DejaVuSerif-Bold-4d" transform="translate(72.216797 0)"/>
     <use xlink:href="#DejaVuSerif-Bold-49" transform="translate(182.910156 0)"/>
     <use xlink:href="#DejaVuSerif-Bold-4c" transform="translate(229.6875 0)"/>
     <use xlink:href="#DejaVuSerif-Bold-45" transform="translate(300 0)"/>
     <use xlink:href="#DejaVuSerif-Bold-53" transform="translate(376.220703 0)"/>
     <use xlink:href="#DejaVuSerif-Bold-20" transform="translate(448.4375 0)"/>
     <use xlink:href="#DejaVuSerif-Bold-70" transform="translate(483.251953 0)"/>
     <use xlink:href="#DejaVuSerif-Bold-6f" transform="translate(553.173828 0)"/>
     <use xlink:href="#DejaVuSerif-Bold-6f" transform="translate(619.873047 0)"/>
     <use xlink:href="#DejaVuSerif-Bold-6c" transform="translate(686.572266 0)"/>
    </g>
   </g>
   <g id="text_6">
    <!-- $\sim 10^4$ candidates -->
    <g style="fill: #5a6a7a" transform="translate(264.470478 168.677469) scale(0.09 -0.09)">
     <defs>
      <path id="DejaVuSans-223c" d="M 4684 2556 
L 4684 1997 
Q 4356 1753 4076 1645 
Q 3797 1538 3494 1538 
Q 3150 1538 2694 1722 
Q 2663 1734 2641 1744 
Q 2622 1750 2575 1769 
Q 2091 1959 1797 1959 
Q 1522 1959 1253 1840 
Q 984 1722 678 1459 
L 678 2019 
Q 1006 2263 1286 2370 
Q 1566 2478 1869 2478 
Q 2213 2478 2672 2294 
Q 2706 2278 2722 2272 
Q 2741 2266 2788 2247 
Q 3272 2056 3566 2056 
Q 3834 2056 4098 2173 
Q 4363 2291 4684 2556 
z
" transform="scale(0.015625)"/>
      <path id="DejaVuSans-31" d="M 794 531 
L 1825 531 
L 1825 4091 
L 703 3866 
L 703 4441 
L 1819 4666 
L 2450 4666 
L 2450 531 
L 3481 531 
L 3481 0 
L 794 0 
L 794 531 
z
" transform="scale(0.015625)"/>
      <path id="DejaVuSans-34" d="M 2419 4116 
L 825 1625 
L 2419 1625 
L 2419 4116 
z
M 2253 4666 
L 3047 4666 
L 3047 1625 
L 3713 1625 
L 3713 1100 
L 3047 1100 
L 3047 0 
L 2419 0 
L 2419 1100 
L 313 1100 
L 313 1709 
L 2253 4666 
z
" transform="scale(0.015625)"/>
      <path id="DejaVuSerif-Italic-63" d="M 3163 997 
Q 2938 466 2536 187 
Q 2134 -91 1584 -91 
Q 859 -91 513 388 
Q 272 722 272 1203 
Q 272 1419 319 1663 
Q 475 2459 1008 2936 
Q 1541 3413 2266 3413 
Q 2581 3413 2879 3339 
Q 3178 3266 3463 3116 
L 3300 2266 
L 2966 2266 
Q 2966 2309 2966 2347 
Q 2966 2722 2803 2903 
Q 2622 3103 2213 3103 
Q 1747 3103 1439 2742 
Q 1131 2381 991 1663 
Q 928 1334 928 1078 
Q 928 778 1016 581 
Q 1181 219 1650 219 
Q 2022 219 2281 412 
Q 2541 606 2700 997 
L 3163 997 
z
" transform="scale(0.015625)"/>
     </defs>
     <use xlink:href="#DejaVuSans-223c" transform="translate(19.482422 0.684375)"/>
     <use xlink:href="#DejaVuSans-31" transform="translate(122.753906 0.684375)"/>
     <use xlink:href="#DejaVuSans-30" transform="translate(186.376953 0.684375)"/>
     <use xlink:href="#DejaVuSans-34" transform="translate(250.957031 38.965625) scale(0.7)"/>
     <use xlink:href="#DejaVuSerif-Italic-20" transform="translate(298.227539 0.684375)"/>
     <use xlink:href="#DejaVuSerif-Italic-63" transform="translate(330.014648 0.684375)"/>
     <use xlink:href="#DejaVuSerif-Italic-61" transform="translate(386.020508 0.684375)"/>
     <use xlink:href="#DejaVuSerif-Italic-6e" transform="translate(445.639648 0.684375)"/>
     <use xlink:href="#DejaVuSerif-Italic-64" transform="translate(510.043945 0.684375)"/>
     <use xlink:href="#DejaVuSerif-Italic-69" transform="translate(574.057617 0.684375)"/>
     <use xlink:href="#DejaVuSerif-Italic-64" transform="translate(606.040039 0.684375)"/>
     <use xlink:href="#DejaVuSerif-Italic-61" transform="translate(670.053711 0.684375)"/>
     <use xlink:href="#DejaVuSerif-Italic-74" transform="translate(729.672852 0.684375)"/>
     <use xlink:href="#DejaVuSerif-Italic-65" transform="translate(769.858398 0.684375)"/>
     <use xlink:href="#DejaVuSerif-Italic-73" transform="translate(829.038086 0.684375)"/>
    </g>
   </g>
   <g id="text_7">
    <!-- chem filter -->
    <g style="fill: #1f2c3a" transform="translate(392.218894 149.572947) scale(0.115 -0.115)">
     <defs>
      <path id="DejaVuSerif-Bold-68" d="M 219 0 
L 219 378 
L 691 378 
L 691 4488 
L 197 4488 
L 197 4863 
L 1797 4863 
L 1797 2853 
Q 1997 3150 2253 3281 
Q 2509 3413 2900 3413 
Q 3459 3413 3745 3083 
Q 4031 2753 4031 2113 
L 4031 378 
L 4506 378 
L 4506 0 
L 2522 0 
L 2522 378 
L 2925 378 
L 2925 2144 
Q 2925 2566 2817 2730 
Q 2709 2894 2444 2894 
Q 2109 2894 1953 2648 
Q 1797 2403 1797 1869 
L 1797 378 
L 2203 378 
L 2203 0 
L 219 0 
z
" transform="scale(0.015625)"/>
      <path id="DejaVuSerif-Bold-6d" d="M 3884 2778 
Q 4116 3109 4384 3261 
Q 4653 3413 5013 3413 
Q 5584 3413 5867 3089 
Q 6150 2766 6150 2113 
L 6150 378 
L 6625 378 
L 6625 0 
L 4647 0 
L 4647 378 
L 5044 378 
L 5044 1947 
Q 5044 2569 4948 2731 
Q 4853 2894 4594 2894 
Q 4300 2894 4137 2667 
Q 3975 2441 3975 2022 
L 3975 378 
L 4372 378 
L 4372 0 
L 2472 0 
L 2472 378 
L 2869 378 
L 2869 1947 
Q 2869 2569 2772 2731 
Q 2675 2894 2419 2894 
Q 2122 2894 1959 2667 
Q 1797 2441 1797 2022 
L 1797 378 
L 2194 378 
L 2194 0 
L 219 0 
L 219 378 
L 691 378 
L 691 2944 
L 219 2944 
L 219 3322 
L 1797 3322 
L 1797 2853 
Q 1991 3144 2241 3278 
Q 2491 3413 2834 3413 
Q 3241 3413 3494 3258 
Q 3747 3103 3884 2778 
z
" transform="scale(0.015625)"/>
      <path id="DejaVuSerif-Bold-66" d="M 3097 4031 
L 2747 4031 
Q 2722 4275 2605 4394 
Q 2488 4513 2272 4513 
Q 2022 4513 1909 4333 
Q 1797 4153 1797 3750 
L 1797 3322 
L 2631 3322 
L 2631 2944 
L 1797 2944 
L 1797 378 
L 2438 378 
L 2438 0 
L 219 0 
L 219 378 
L 691 378 
L 691 2944 
L 197 2944 
L 197 3322 
L 691 3322 
L 691 3738 
Q 691 4291 1044 4577 
Q 1397 4863 2081 4863 
Q 2347 4863 2600 4833 
Q 2853 4803 3097 4744 
L 3097 4031 
z
" transform="scale(0.015625)"/>
      <path id="DejaVuSerif-Bold-69" d="M 588 4263 
Q 588 4516 763 4689 
Q 938 4863 1191 4863 
Q 1438 4863 1611 4689 
Q 1784 4516 1784 4263 
Q 1784 4016 1611 3842 
Q 1438 3669 1191 3669 
Q 938 3669 763 3841 
Q 588 4013 588 4263 
z
M 1797 378 
L 2272 378 
L 2272 0 
L 219 0 
L 219 378 
L 691 378 
L 691 2944 
L 219 2944 
L 219 3322 
L 1797 3322 
L 1797 378 
z
" transform="scale(0.015625)"/>
      <path id="DejaVuSerif-Bold-74" d="M 634 2944 
L 153 2944 
L 153 3322 
L 634 3322 
L 634 4353 
L 1741 4353 
L 1741 3322 
L 2663 3322 
L 2663 2944 
L 1741 2944 
L 1741 909 
Q 1741 475 1809 369 
Q 1878 263 2059 263 
Q 2259 263 2356 397 
Q 2453 531 2459 813 
L 2925 813 
Q 2897 313 2651 111 
Q 2406 -91 1806 -91 
Q 1122 -91 878 123 
Q 634 338 634 909 
L 634 2944 
z
" transform="scale(0.015625)"/>
     </defs>
     <use xlink:href="#DejaVuSerif-Bold-63"/>
     <use xlink:href="#DejaVuSerif-Bold-68" transform="translate(60.888672 0)"/>
     <use xlink:href="#DejaVuSerif-Bold-65" transform="translate(133.59375 0)"/>
     <use xlink:href="#DejaVuSerif-Bold-6d" transform="translate(197.216797 0)"/>
     <use xlink:href="#DejaVuSerif-Bold-20" transform="translate(303.027344 0)"/>
     <use xlink:href="#DejaVuSerif-Bold-66" transform="translate(337.841797 0)"/>
     <use xlink:href="#DejaVuSerif-Bold-69" transform="translate(380.859375 0)"/>
     <use xlink:href="#DejaVuSerif-Bold-6c" transform="translate(418.847656 0)"/>
     <use xlink:href="#DejaVuSerif-Bold-74" transform="translate(456.835938 0)"/>
     <use xlink:href="#DejaVuSerif-Bold-65" transform="translate(503.027344 0)"/>
     <use xlink:href="#DejaVuSerif-Bold-72" transform="translate(566.650391 0)"/>
    </g>
   </g>
   <g id="text_8">
    <!-- SMARTS + redflags -->
    <g style="fill: #5a6a7a" transform="translate(382.192526 168.613484) scale(0.09 -0.09)">
     <defs>
      <path id="DejaVuSerif-Italic-53" d="M 184 225 
L 391 1288 
L 750 1284 
Q 663 753 905 498 
Q 1147 244 1744 244 
Q 2300 244 2636 464 
Q 2972 684 3053 1106 
Q 3119 1444 2976 1625 
Q 2834 1806 2300 1978 
L 1722 2163 
Q 1091 2366 877 2669 
Q 663 2972 766 3500 
Q 881 4094 1367 4422 
Q 1853 4750 2616 4750 
Q 2941 4750 3314 4679 
Q 3688 4609 4097 4475 
L 3906 3481 
L 3553 3481 
Q 3594 3975 3361 4195 
Q 3128 4416 2563 4416 
Q 2069 4416 1772 4214 
Q 1475 4013 1400 3628 
Q 1334 3294 1490 3103 
Q 1647 2913 2241 2725 
L 2784 2553 
Q 3381 2363 3593 2067 
Q 3806 1772 3709 1275 
Q 3578 597 3076 253 
Q 2575 -91 1716 -91 
Q 1331 -91 948 -12 
Q 566 66 184 225 
z
" transform="scale(0.015625)"/>
      <path id="DejaVuSerif-Italic-4d" d="M -97 0 
L -34 331 
L 559 331 
L 1338 4331 
L 709 4331 
L 775 4666 
L 2134 4666 
L 3125 1344 
L 5409 4666 
L 6684 4666 
L 6619 4331 
L 5997 4331 
L 5222 331 
L 5816 331 
L 5753 0 
L 3928 0 
L 3991 331 
L 4584 331 
L 5288 3938 
L 3053 684 
L 2613 684 
L 1647 3938 
L 944 331 
L 1538 331 
L 1475 0 
L -97 0 
z
" transform="scale(0.015625)"/>
      <path id="DejaVuSerif-Italic-41" d="M 1159 1691 
L 2872 1691 
L 2447 3909 
L 1159 1691 
z
M -488 0 
L -425 331 
L -16 331 
L 2491 4666 
L 3016 4666 
L 3841 331 
L 4297 331 
L 4234 0 
L 2538 0 
L 2600 331 
L 3119 331 
L 2928 1356 
L 966 1356 
L 375 331 
L 888 331 
L 825 0 
L -488 0 
z
" transform="scale(0.015625)"/>
      <path id="DejaVuSerif-Italic-52" d="M 3066 2316 
Q 3272 2256 3403 2114 
Q 3534 1972 3609 1716 
L 4016 331 
L 4584 331 
L 4522 0 
L 3422 0 
L 2981 1484 
Q 2856 1916 2706 2042 
Q 2556 2169 2250 2169 
L 1553 2169 
L 1194 331 
L 1853 331 
L 1791 0 
L -97 0 
L -34 331 
L 559 331 
L 1338 4331 
L 744 4331 
L 809 4666 
L 3175 4666 
Q 3856 4666 4164 4341 
Q 4472 4016 4356 3419 
Q 4263 2938 3938 2661 
Q 3613 2384 3066 2316 
z
M 1619 2503 
L 2541 2503 
Q 3013 2503 3280 2726 
Q 3547 2950 3639 3419 
Q 3731 3888 3548 4109 
Q 3366 4331 2894 4331 
L 1972 4331 
L 1619 2503 
z
" transform="scale(0.015625)"/>
      <path id="DejaVuSerif-Italic-54" d="M 769 0 
L 831 331 
L 1428 331 
L 2200 4294 
L 828 4294 
L 688 3566 
L 303 3566 
L 516 4666 
L 4659 4666 
L 4447 3566 
L 4063 3566 
L 4203 4294 
L 2831 4294 
L 2059 331 
L 2656 331 
L 2594 0 
L 769 0 
z
" transform="scale(0.015625)"/>
      <path id="DejaVuSerif-Italic-2b" d="M 2931 4013 
L 2931 2259 
L 4684 2259 
L 4684 1753 
L 2931 1753 
L 2931 0 
L 2431 0 
L 2431 1753 
L 678 1753 
L 678 2259 
L 2431 2259 
L 2431 4013 
L 2931 4013 
z
" transform="scale(0.015625)"/>
      <path id="DejaVuSerif-Italic-66" d="M 3191 4078 
L 2888 4078 
Q 2900 4144 2900 4203 
Q 2900 4347 2825 4434 
Q 2719 4556 2472 4556 
Q 2150 4556 1984 4379 
Q 1819 4203 1731 3750 
L 1647 3322 
L 2575 3322 
L 2509 2988 
L 1581 2988 
L 963 -206 
Q 853 -763 509 -1047 
Q 166 -1331 -394 -1331 
L -356 -1025 
Q -28 -1025 131 -850 
Q 297 -663 388 -206 
L 1006 2988 
L 456 2988 
L 522 3322 
L 1072 3322 
L 1153 3738 
Q 1263 4297 1606 4578 
Q 1950 4863 2509 4863 
Q 2719 4863 2920 4825 
Q 3122 4788 3316 4709 
L 3191 4078 
z
" transform="scale(0.015625)"/>
     </defs>
     <use xlink:href="#DejaVuSerif-Italic-53"/>
     <use xlink:href="#DejaVuSerif-Italic-4d" transform="translate(68.505859 0)"/>
     <use xlink:href="#DejaVuSerif-Italic-41" transform="translate(170.898438 0)"/>
     <use xlink:href="#DejaVuSerif-Italic-52" transform="translate(243.115234 0)"/>
     <use xlink:href="#DejaVuSerif-Italic-54" transform="translate(316.658203 0)"/>
     <use xlink:href="#DejaVuSerif-Italic-53" transform="translate(383.357422 0)"/>
     <use xlink:href="#DejaVuSerif-Italic-20" transform="translate(451.863281 0)"/>
     <use xlink:href="#DejaVuSerif-Italic-2b" transform="translate(483.650391 0)"/>
     <use xlink:href="#DejaVuSerif-Italic-20" transform="translate(567.439453 0)"/>
     <use xlink:href="#DejaVuSerif-Italic-72" transform="translate(599.226562 0)"/>
     <use xlink:href="#DejaVuSerif-Italic-65" transform="translate(647.029297 0)"/>
     <use xlink:href="#DejaVuSerif-Italic-64" transform="translate(706.208984 0)"/>
     <use xlink:href="#DejaVuSerif-Italic-66" transform="translate(770.222656 0)"/>
     <use xlink:href="#DejaVuSerif-Italic-6c" transform="translate(807.234375 0)"/>
     <use xlink:href="#DejaVuSerif-Italic-61" transform="translate(839.216797 0)"/>
     <use xlink:href="#DejaVuSerif-Italic-67" transform="translate(898.835938 0)"/>
     <use xlink:href="#DejaVuSerif-Italic-73" transform="translate(962.849609 0)"/>
    </g>
   </g>
   <g id="text_9">
    <!-- Phase-A reranker -->
    <g style="fill: #1f2c3a" transform="translate(498.366976 149.572947) scale(0.115 -0.115)">
     <defs>
      <path id="DejaVuSerif-Bold-50" d="M 300 0 
L 300 378 
L 897 378 
L 897 4288 
L 300 4288 
L 300 4666 
L 2956 4666 
Q 3734 4666 4193 4295 
Q 4653 3925 4653 3303 
Q 4653 2678 4192 2304 
Q 3731 1931 2956 1931 
L 2100 1931 
L 2100 378 
L 2853 378 
L 2853 0 
L 300 0 
z
M 2100 2309 
L 2450 2309 
Q 2856 2309 3098 2579 
Q 3341 2850 3341 3303 
Q 3341 3753 3100 4020 
Q 2859 4288 2450 4288 
L 2100 4288 
L 2100 2309 
z
" transform="scale(0.015625)"/>
      <path id="DejaVuSerif-Bold-61" d="M 3525 2041 
L 3525 378 
L 4000 378 
L 4000 0 
L 2419 0 
L 2419 422 
Q 2200 159 1931 34 
Q 1663 -91 1319 -91 
Q 809 -91 536 182 
Q 263 456 263 966 
Q 263 1525 655 1803 
Q 1047 2081 1838 2081 
L 2419 2081 
L 2419 2278 
Q 2419 2681 2228 2873 
Q 2038 3066 1638 3066 
Q 1306 3066 1126 2930 
Q 947 2794 872 2484 
L 519 2484 
L 519 3200 
Q 816 3306 1134 3359 
Q 1453 3413 1806 3413 
Q 2697 3413 3111 3081 
Q 3525 2750 3525 2041 
z
M 2419 1044 
L 2419 1709 
L 2003 1709 
Q 1694 1709 1528 1540 
Q 1363 1372 1363 1056 
Q 1363 741 1483 584 
Q 1603 428 1850 428 
Q 2106 428 2262 597 
Q 2419 766 2419 1044 
z
" transform="scale(0.015625)"/>
      <path id="DejaVuSerif-Bold-73" d="M 300 97 
L 300 1025 
L 653 1025 
Q 697 653 931 458 
Q 1166 263 1569 263 
Q 1906 263 2086 380 
Q 2266 497 2266 716 
Q 2266 916 2152 1025 
Q 2038 1134 1709 1216 
L 1253 1331 
Q 738 1459 506 1698 
Q 275 1938 275 2344 
Q 275 2884 650 3148 
Q 1025 3413 1806 3413 
Q 2100 3413 2433 3364 
Q 2766 3316 3169 3213 
L 3169 2375 
L 2816 2375 
Q 2788 2716 2573 2887 
Q 2359 3059 1959 3059 
Q 1622 3059 1448 2951 
Q 1275 2844 1275 2638 
Q 1275 2469 1375 2372 
Q 1475 2275 1734 2209 
L 2188 2094 
Q 2841 1928 3091 1684 
Q 3341 1441 3341 1006 
Q 3341 444 2939 176 
Q 2538 -91 1691 -91 
Q 1381 -91 1034 -44 
Q 688 3 300 97 
z
" transform="scale(0.015625)"/>
      <path id="DejaVuSerif-Bold-2d" d="M 347 2138 
L 2309 2138 
L 2309 1294 
L 347 1294 
L 347 2138 
z
" transform="scale(0.015625)"/>
      <path id="DejaVuSerif-Bold-41" d="M -50 0 
L -50 378 
L 331 378 
L 2088 4666 
L 2834 4666 
L 4594 378 
L 5038 378 
L 5038 0 
L 2853 0 
L 2853 378 
L 3309 378 
L 2925 1331 
L 1172 1331 
L 781 378 
L 1338 378 
L 1338 0 
L -50 0 
z
M 1325 1709 
L 2772 1709 
L 2053 3494 
L 1325 1709 
z
" transform="scale(0.015625)"/>
      <path id="DejaVuSerif-Bold-6e" d="M 219 0 
L 219 378 
L 691 378 
L 691 2944 
L 219 2944 
L 219 3322 
L 1797 3322 
L 1797 2853 
Q 1997 3150 2253 3281 
Q 2509 3413 2900 3413 
Q 3459 3413 3745 3083 
Q 4031 2753 4031 2113 
L 4031 378 
L 4506 378 
L 4506 0 
L 2522 0 
L 2522 378 
L 2925 378 
L 2925 2144 
Q 2925 2566 2817 2730 
Q 2709 2894 2444 2894 
Q 2109 2894 1953 2648 
Q 1797 2403 1797 1869 
L 1797 378 
L 2203 378 
L 2203 0 
L 219 0 
z
" transform="scale(0.015625)"/>
      <path id="DejaVuSerif-Bold-6b" d="M 2216 0 
L 219 0 
L 219 378 
L 691 378 
L 691 4488 
L 219 4488 
L 219 4863 
L 1797 4863 
L 1797 1741 
L 3138 2944 
L 2741 2944 
L 2741 3322 
L 4256 3322 
L 4256 2944 
L 3641 2944 
L 2784 2175 
L 4184 378 
L 4544 378 
L 4544 0 
L 2638 0 
L 2638 378 
L 3028 378 
L 2106 1563 
L 1797 1288 
L 1797 378 
L 2216 378 
L 2216 0 
z
" transform="scale(0.015625)"/>
     </defs>
     <use xlink:href="#DejaVuSerif-Bold-50"/>
     <use xlink:href="#DejaVuSerif-Bold-68" transform="translate(75.195312 0)"/>
     <use xlink:href="#DejaVuSerif-Bold-61" transform="translate(147.900391 0)"/>
     <use xlink:href="#DejaVuSerif-Bold-73" transform="translate(212.695312 0)"/>
     <use xlink:href="#DejaVuSerif-Bold-65" transform="translate(268.994141 0)"/>
     <use xlink:href="#DejaVuSerif-Bold-2d" transform="translate(332.617188 0)"/>
     <use xlink:href="#DejaVuSerif-Bold-41" transform="translate(374.121094 0)"/>
     <use xlink:href="#DejaVuSerif-Bold-20" transform="translate(451.708984 0)"/>
     <use xlink:href="#DejaVuSerif-Bold-72" transform="translate(486.523438 0)"/>
     <use xlink:href="#DejaVuSerif-Bold-65" transform="translate(539.208984 0)"/>
     <use xlink:href="#DejaVuSerif-Bold-72" transform="translate(602.832031 0)"/>
     <use xlink:href="#DejaVuSerif-Bold-61" transform="translate(655.517578 0)"/>
     <use xlink:href="#DejaVuSerif-Bold-6e" transform="translate(720.3125 0)"/>
     <use xlink:href="#DejaVuSerif-Bold-6b" transform="translate(793.017578 0)"/>
     <use xlink:href="#DejaVuSerif-Bold-65" transform="translate(862.304688 0)"/>
     <use xlink:href="#DejaVuSerif-Bold-72" transform="translate(925.927734 0)"/>
    </g>
   </g>
   <g id="text_10">
    <!-- scaffold-aware composite -->
    <g style="fill: #5a6a7a" transform="translate(496.475413 168.677469) scale(0.09 -0.09)">
     <defs>
      <path id="DejaVuSerif-Italic-77" d="M 3741 728 
Q 4156 1178 4250 1344 
Q 4594 1969 4931 2988 
L 4447 2984 
L 4513 3322 
L 5347 3322 
L 5281 2984 
L 5278 2984 
Q 4959 1825 4656 1266 
Q 4209 469 3719 0 
L 3241 0 
L 2900 2484 
L 1597 0 
L 1138 0 
L 734 2988 
L 359 2981 
L 425 3322 
L 1281 3322 
L 1631 728 
L 2991 3322 
L 3394 3322 
L 3741 728 
z
" transform="scale(0.015625)"/>
      <path id="DejaVuSerif-Italic-6d" d="M 3503 2675 
Q 3741 3041 4034 3227 
Q 4328 3413 4672 3413 
Q 5194 3413 5388 3088 
Q 5503 2894 5503 2578 
Q 5503 2372 5453 2113 
L 5106 331 
L 5625 331 
L 5563 0 
L 4469 0 
L 4866 2047 
Q 4913 2291 4913 2466 
Q 4913 2659 4856 2772 
Q 4750 2988 4403 2988 
Q 4019 2988 3761 2697 
Q 3503 2406 3394 1850 
L 3034 0 
L 2459 0 
L 2863 2069 
Q 2906 2303 2906 2472 
Q 2906 2666 2850 2775 
Q 2741 2988 2394 2988 
Q 2009 2988 1751 2697 
Q 1494 2406 1384 1850 
L 1025 0 
L 450 0 
L 1031 2994 
L 481 2994 
L 544 3322 
L 1669 3322 
L 1556 2731 
Q 1778 3063 2059 3238 
Q 2341 3413 2653 3413 
Q 3041 3413 3262 3220 
Q 3484 3028 3503 2675 
z
" transform="scale(0.015625)"/>
      <path id="DejaVuSerif-Italic-70" d="M 1466 1825 
L 1400 1497 
Q 1353 1250 1353 1053 
Q 1353 769 1453 581 
Q 1622 269 2059 269 
Q 2500 269 2795 622 
Q 3091 975 3225 1663 
Q 3284 1978 3284 2225 
Q 3284 2513 3200 2703 
Q 3041 3053 2600 3053 
Q 2163 3053 1872 2737 
Q 1581 2422 1466 1825 
z
M 1116 2988 
L 563 2988 
L 628 3322 
L 1756 3322 
L 1656 2803 
Q 1884 3116 2175 3264 
Q 2466 3413 2850 3413 
Q 3463 3413 3753 2928 
Q 3947 2609 3947 2163 
Q 3947 1928 3897 1663 
Q 3744 881 3262 395 
Q 2781 -91 2169 -91 
Q 1784 -91 1551 57 
Q 1319 206 1213 519 
L 850 -1331 
L 275 -1331 
L 1116 2988 
z
" transform="scale(0.015625)"/>
     </defs>
     <use xlink:href="#DejaVuSerif-Italic-73"/>
     <use xlink:href="#DejaVuSerif-Italic-63" transform="translate(51.318359 0)"/>
     <use xlink:href="#DejaVuSerif-Italic-61" transform="translate(107.324219 0)"/>
     <use xlink:href="#DejaVuSerif-Italic-66" transform="translate(166.943359 0)"/>
     <use xlink:href="#DejaVuSerif-Italic-66" transform="translate(203.955078 0)"/>
     <use xlink:href="#DejaVuSerif-Italic-6f" transform="translate(240.966797 0)"/>
     <use xlink:href="#DejaVuSerif-Italic-6c" transform="translate(301.171875 0)"/>
     <use xlink:href="#DejaVuSerif-Italic-64" transform="translate(333.154297 0)"/>
     <use xlink:href="#DejaVuSerif-Italic-2d" transform="translate(397.167969 0)"/>
     <use xlink:href="#DejaVuSerif-Italic-61" transform="translate(430.957031 0)"/>
     <use xlink:href="#DejaVuSerif-Italic-77" transform="translate(490.576172 0)"/>
     <use xlink:href="#DejaVuSerif-Italic-61" transform="translate(576.171875 0)"/>
     <use xlink:href="#DejaVuSerif-Italic-72" transform="translate(635.791016 0)"/>
     <use xlink:href="#DejaVuSerif-Italic-65" transform="translate(683.59375 0)"/>
     <use xlink:href="#DejaVuSerif-Italic-20" transform="translate(742.773438 0)"/>
     <use xlink:href="#DejaVuSerif-Italic-63" transform="translate(774.560547 0)"/>
     <use xlink:href="#DejaVuSerif-Italic-6f" transform="translate(830.566406 0)"/>
     <use xlink:href="#DejaVuSerif-Italic-6d" transform="translate(890.771484 0)"/>
     <use xlink:href="#DejaVuSerif-Italic-70" transform="translate(985.595703 0)"/>
     <use xlink:href="#DejaVuSerif-Italic-6f" transform="translate(1049.609375 0)"/>
     <use xlink:href="#DejaVuSerif-Italic-73" transform="translate(1109.814453 0)"/>
     <use xlink:href="#DejaVuSerif-Italic-69" transform="translate(1161.132812 0)"/>
     <use xlink:href="#DejaVuSerif-Italic-74" transform="translate(1193.115234 0)"/>
     <use xlink:href="#DejaVuSerif-Italic-65" transform="translate(1233.300781 0)"/>
    </g>
   </g>
   <g id="text_11">
    <!-- top-$K$ leads -->
    <g style="fill: #1f2c3a" transform="translate(642.817696 149.562166) scale(0.115 -0.115)">
     <defs>
      <path id="DejaVuSans-Oblique-4b" d="M 1081 4666 
L 1716 4666 
L 1331 2700 
L 3781 4666 
L 4622 4666 
L 1850 2438 
L 3878 0 
L 3109 0 
L 1247 2272 
L 806 0 
L 172 0 
L 1081 4666 
z
" transform="scale(0.015625)"/>
     </defs>
     <use xlink:href="#DejaVuSerif-Bold-74" transform="translate(0 0.015625)"/>
     <use xlink:href="#DejaVuSerif-Bold-6f" transform="translate(46.191406 0.015625)"/>
     <use xlink:href="#DejaVuSerif-Bold-70" transform="translate(112.890625 0.015625)"/>
     <use xlink:href="#DejaVuSerif-Bold-2d" transform="translate(182.8125 0.015625)"/>
     <use xlink:href="#DejaVuSans-Oblique-4b" transform="translate(224.316406 0.015625)"/>
     <use xlink:href="#DejaVuSerif-Bold-20" transform="translate(289.892578 0.015625)"/>
     <use xlink:href="#DejaVuSerif-Bold-6c" transform="translate(324.707031 0.015625)"/>
     <use xlink:href="#DejaVuSerif-Bold-65" transform="translate(362.695312 0.015625)"/>
     <use xlink:href="#DejaVuSerif-Bold-61" transform="translate(426.318359 0.015625)"/>
     <use xlink:href="#DejaVuSerif-Bold-64" transform="translate(491.113281 0.015625)"/>
     <use xlink:href="#DejaVuSerif-Bold-73" transform="translate(561.035156 0.015625)"/>
    </g>
   </g>
   <g id="text_12">
    <!-- $K \approx 100$ -->
    <g style="fill: #5a6a7a" transform="translate(661.252696 168.677469) scale(0.09 -0.09)">
     <defs>
      <path id="DejaVuSans-2248" d="M 4684 1947 
L 4684 1388 
Q 4356 1144 4076 1036 
Q 3797 928 3494 928 
Q 3150 928 2694 1113 
Q 2663 1125 2641 1134 
Q 2622 1141 2575 1159 
Q 2091 1350 1797 1350 
Q 1522 1350 1253 1231 
Q 984 1113 678 850 
L 678 1409 
Q 1006 1653 1286 1761 
Q 1566 1869 1869 1869 
Q 2213 1869 2672 1684 
Q 2706 1669 2722 1663 
Q 2741 1656 2788 1638 
Q 3272 1447 3566 1447 
Q 3834 1447 4098 1564 
Q 4363 1681 4684 1947 
z
M 4684 3163 
L 4684 2606 
Q 4356 2359 4076 2251 
Q 3797 2144 3494 2144 
Q 3150 2144 2694 2328 
Q 2663 2341 2641 2350 
Q 2622 2356 2575 2375 
Q 2091 2566 1797 2566 
Q 1522 2566 1253 2447 
Q 984 2328 678 2069 
L 678 2625 
Q 1006 2869 1286 2976 
Q 1566 3084 1869 3084 
Q 2213 3084 2672 2900 
Q 2703 2888 2719 2881 
Q 2741 2872 2788 2853 
Q 3272 2663 3566 2663 
Q 3834 2663 4098 2780 
Q 4363 2897 4684 3163 
z
" transform="scale(0.015625)"/>
     </defs>
     <use xlink:href="#DejaVuSans-Oblique-4b" transform="translate(0 0.78125)"/>
     <use xlink:href="#DejaVuSans-2248" transform="translate(85.058594 0.78125)"/>
     <use xlink:href="#DejaVuSans-31" transform="translate(188.330078 0.78125)"/>
     <use xlink:href="#DejaVuSans-30" transform="translate(251.953125 0.78125)"/>
     <use xlink:href="#DejaVuSans-30" transform="translate(315.576172 0.78125)"/>
    </g>
   </g>
   <g id="text_13">
    <!-- hard-reject SMARTS catalog removes infeasible / unsafe candidates; reranker scores on $\rho, D, P$, SA, scaffold novelty. -->
    <g style="fill: #8a9aaa" transform="translate(16.478609 247.226348) scale(0.084 -0.084)">
     <defs>
      <path id="DejaVuSerif-Italic-68" d="M 309 0 
L 1191 4531 
L 641 4531 
L 703 4863 
L 1828 4863 
L 1416 2731 
Q 1641 3069 1928 3241 
Q 2216 3413 2553 3413 
Q 3103 3413 3300 3097 
Q 3422 2906 3422 2588 
Q 3422 2378 3369 2113 
L 3022 331 
L 3534 331 
L 3472 0 
L 2381 0 
L 2756 1931 
Q 2819 2253 2819 2469 
Q 2819 2659 2769 2763 
Q 2666 2988 2284 2988 
Q 1884 2988 1617 2697 
Q 1350 2406 1244 1850 
L 884 0 
L 309 0 
z
" transform="scale(0.015625)"/>
      <path id="DejaVuSerif-Italic-6a" d="M 1172 4353 
Q 1197 4497 1323 4603 
Q 1450 4709 1597 4709 
Q 1741 4709 1825 4603 
Q 1888 4522 1888 4422 
Q 1888 4388 1881 4353 
Q 1850 4206 1729 4103 
Q 1609 4000 1459 4000 
Q 1313 4000 1225 4103 
Q 1163 4181 1163 4281 
Q 1163 4316 1172 4353 
z
M 1047 2988 
L 503 2988 
L 566 3322 
L 1684 3322 
L 978 -325 
Q 878 -838 515 -1130 
Q 153 -1422 -381 -1422 
Q -606 -1422 -800 -1370 
Q -994 -1319 -1169 -1216 
L -1034 -531 
L -738 -531 
Q -747 -609 -747 -675 
Q -747 -869 -669 -972 
Q -563 -1113 -306 -1113 
Q -22 -1113 150 -920 
Q 322 -728 403 -325 
L 1047 2988 
z
" transform="scale(0.015625)"/>
      <path id="DejaVuSerif-Italic-62" d="M 1153 4531 
L 600 4531 
L 666 4863 
L 1794 4863 
L 1394 2803 
Q 1622 3116 1912 3264 
Q 2203 3413 2588 3413 
Q 3200 3413 3494 2928 
Q 3688 2609 3688 2163 
Q 3688 1928 3634 1663 
Q 3481 881 3000 395 
Q 2519 -91 1906 -91 
Q 1522 -91 1289 57 
Q 1056 206 950 519 
L 850 0 
L 275 0 
L 1153 4531 
z
M 1141 1497 
Q 1091 1250 1091 1053 
Q 1091 769 1191 581 
Q 1359 269 1797 269 
Q 2238 269 2533 622 
Q 2828 975 2963 1663 
Q 3025 1978 3025 2225 
Q 3025 2513 2938 2703 
Q 2781 3053 2338 3053 
Q 1900 3053 1609 2737 
Q 1319 2422 1203 1825 
L 1141 1497 
z
" transform="scale(0.015625)"/>
      <path id="DejaVuSerif-Italic-2f" d="M 2172 4666 
L 2672 4666 
L -9 -594 
L -509 -594 
L 2172 4666 
z
" transform="scale(0.015625)"/>
      <path id="DejaVuSerif-Italic-3b" d="M -72 -622 
Q 263 -406 458 -114 
Q 653 178 734 594 
L 756 709 
L 1372 709 
Q 1244 175 942 -208 
Q 641 -591 128 -872 
L -72 -622 
z
M 1019 2067 
Q 922 2188 956 2363 
Q 991 2538 1134 2658 
Q 1278 2778 1453 2778 
Q 1628 2778 1723 2656 
Q 1819 2534 1788 2363 
Q 1753 2188 1609 2067 
Q 1466 1947 1291 1947 
Q 1116 1947 1019 2067 
z
" transform="scale(0.015625)"/>
      <path id="DejaVuSerif-Italic-6b" d="M 2113 2075 
L 3034 331 
L 3513 331 
L 3450 0 
L 2528 0 
L 1622 1697 
L 1088 1275 
L 841 0 
L 266 0 
L 1147 4531 
L 594 4531 
L 656 4863 
L 1784 4863 
L 1169 1697 
L 2822 2988 
L 2344 2988 
L 2406 3322 
L 3341 3322 
L 3278 2988 
L 2113 2075 
z
" transform="scale(0.015625)"/>
      <path id="DejaVuSans-Oblique-3c1" d="M 1203 2875 
Q 1453 3194 1981 3475 
Q 2188 3584 2756 3584 
Q 3394 3584 3694 3078 
Q 3994 2572 3834 1747 
Q 3672 922 3175 415 
Q 2678 -91 2041 -91 
Q 1656 -91 1409 63 
Q 1163 213 1044 525 
L 681 -1331 
L 103 -1331 
L 697 1716 
Q 838 2438 1203 2875 
z
M 3238 1747 
Q 3359 2381 3169 2744 
Q 2978 3103 2522 3103 
Q 2066 3103 1734 2744 
Q 1403 2381 1281 1747 
Q 1156 1113 1347 750 
Q 1538 391 1994 391 
Q 2450 391 2781 750 
Q 3113 1113 3238 1747 
z
" transform="scale(0.015625)"/>
      <path id="DejaVuSans-2c" d="M 750 794 
L 1409 794 
L 1409 256 
L 897 -744 
L 494 -744 
L 750 256 
L 750 794 
z
" transform="scale(0.015625)"/>
      <path id="DejaVuSans-Oblique-44" d="M 1081 4666 
L 2438 4666 
Q 3519 4666 4070 4208 
Q 4622 3750 4622 2847 
Q 4622 2250 4412 1698 
Q 4203 1147 3834 769 
Q 3463 381 2891 190 
Q 2319 0 1538 0 
L 172 0 
L 1081 4666 
z
M 1613 4147 
L 909 519 
L 1734 519 
Q 2794 519 3375 1128 
Q 3956 1738 3956 2847 
Q 3956 3519 3581 3833 
Q 3206 4147 2406 4147 
L 1613 4147 
z
" transform="scale(0.015625)"/>
      <path id="DejaVuSans-Oblique-50" d="M 1081 4666 
L 2541 4666 
Q 3178 4666 3512 4369 
Q 3847 4072 3847 3500 
Q 3847 2731 3353 2303 
Q 2859 1875 1966 1875 
L 1172 1875 
L 806 0 
L 172 0 
L 1081 4666 
z
M 1613 4147 
L 1275 2394 
L 2069 2394 
Q 2606 2394 2893 2669 
Q 3181 2944 3181 3456 
Q 3181 3784 2986 3965 
Q 2791 4147 2438 4147 
L 1613 4147 
z
" transform="scale(0.015625)"/>
      <path id="DejaVuSerif-Italic-2c" d="M 125 -622 
Q 463 -406 656 -114 
Q 850 178 931 594 
L 953 709 
L 1569 709 
Q 1441 175 1139 -208 
Q 838 -591 328 -872 
L 125 -622 
z
" transform="scale(0.015625)"/>
      <path id="DejaVuSerif-Italic-79" d="M 3681 3294 
Q 3372 1506 2828 563 
Q 2031 -822 1391 -1238 
Q 1106 -1422 356 -1422 
Q 209 -1422 60 -1397 
Q -88 -1372 -238 -1325 
L -113 -691 
L 181 -691 
Q 175 -741 175 -788 
Q 175 -919 231 -994 
Q 309 -1100 513 -1100 
Q 1063 -1100 1541 -622 
L 756 2988 
L 378 2988 
L 444 3322 
L 1303 3322 
L 2041 25 
Q 2544 778 2666 1088 
Q 3059 2059 3138 2959 
L 2759 2959 
L 2825 3294 
L 3681 3294 
z
" transform="scale(0.015625)"/>
      <path id="DejaVuSerif-Italic-2e" d="M 664 29 
Q 569 150 603 325 
Q 638 500 780 622 
Q 922 744 1100 744 
Q 1272 744 1370 622 
Q 1469 500 1434 325 
Q 1400 153 1254 31 
Q 1109 -91 938 -91 
Q 759 -91 664 29 
z
" transform="scale(0.015625)"/>
     </defs>
     <use xlink:href="#DejaVuSerif-Italic-68" transform="translate(0 0.015625)"/>
     <use xlink:href="#DejaVuSerif-Italic-61" transform="translate(64.404297 0.015625)"/>
     <use xlink:href="#DejaVuSerif-Italic-72" transform="translate(124.023438 0.015625)"/>
     <use xlink:href="#DejaVuSerif-Italic-64" transform="translate(171.826172 0.015625)"/>
     <use xlink:href="#DejaVuSerif-Italic-2d" transform="translate(235.839844 0.015625)"/>
     <use xlink:href="#DejaVuSerif-Italic-72" transform="translate(269.628906 0.015625)"/>
     <use xlink:href="#DejaVuSerif-Italic-65" transform="translate(317.431641 0.015625)"/>
     <use xlink:href="#DejaVuSerif-Italic-6a" transform="translate(376.611328 0.015625)"/>
     <use xlink:href="#DejaVuSerif-Italic-65" transform="translate(407.617188 0.015625)"/>
     <use xlink:href="#DejaVuSerif-Italic-63" transform="translate(466.796875 0.015625)"/>
     <use xlink:href="#DejaVuSerif-Italic-74" transform="translate(522.802734 0.015625)"/>
     <use xlink:href="#DejaVuSerif-Italic-20" transform="translate(562.988281 0.015625)"/>
     <use xlink:href="#DejaVuSerif-Italic-53" transform="translate(594.775391 0.015625)"/>
     <use xlink:href="#DejaVuSerif-Italic-4d" transform="translate(663.28125 0.015625)"/>
     <use xlink:href="#DejaVuSerif-Italic-41" transform="translate(765.673828 0.015625)"/>
     <use xlink:href="#DejaVuSerif-Italic-52" transform="translate(837.890625 0.015625)"/>
     <use xlink:href="#DejaVuSerif-Italic-54" transform="translate(913.183594 0.015625)"/>
     <use xlink:href="#DejaVuSerif-Italic-53" transform="translate(979.882812 0.015625)"/>
     <use xlink:href="#DejaVuSerif-Italic-20" transform="translate(1048.388672 0.015625)"/>
     <use xlink:href="#DejaVuSerif-Italic-63" transform="translate(1080.175781 0.015625)"/>
     <use xlink:href="#DejaVuSerif-Italic-61" transform="translate(1136.181641 0.015625)"/>
     <use xlink:href="#DejaVuSerif-Italic-74" transform="translate(1195.800781 0.015625)"/>
     <use xlink:href="#DejaVuSerif-Italic-61" transform="translate(1235.986328 0.015625)"/>
     <use xlink:href="#DejaVuSerif-Italic-6c" transform="translate(1295.605469 0.015625)"/>
     <use xlink:href="#DejaVuSerif-Italic-6f" transform="translate(1327.587891 0.015625)"/>
     <use xlink:href="#DejaVuSerif-Italic-67" transform="translate(1387.792969 0.015625)"/>
     <use xlink:href="#DejaVuSerif-Italic-20" transform="translate(1451.806641 0.015625)"/>
     <use xlink:href="#DejaVuSerif-Italic-72" transform="translate(1483.59375 0.015625)"/>
     <use xlink:href="#DejaVuSerif-Italic-65" transform="translate(1531.396484 0.015625)"/>
     <use xlink:href="#DejaVuSerif-Italic-6d" transform="translate(1590.576172 0.015625)"/>
     <use xlink:href="#DejaVuSerif-Italic-6f" transform="translate(1685.400391 0.015625)"/>
     <use xlink:href="#DejaVuSerif-Italic-76" transform="translate(1745.605469 0.015625)"/>
     <use xlink:href="#DejaVuSerif-Italic-65" transform="translate(1802.099609 0.015625)"/>
     <use xlink:href="#DejaVuSerif-Italic-73" transform="translate(1861.279297 0.015625)"/>
     <use xlink:href="#DejaVuSerif-Italic-20" transform="translate(1912.597656 0.015625)"/>
     <use xlink:href="#DejaVuSerif-Italic-69" transform="translate(1944.384766 0.015625)"/>
     <use xlink:href="#DejaVuSerif-Italic-6e" transform="translate(1976.367188 0.015625)"/>
     <use xlink:href="#DejaVuSerif-Italic-66" transform="translate(2040.771484 0.015625)"/>
     <use xlink:href="#DejaVuSerif-Italic-65" transform="translate(2077.783203 0.015625)"/>
     <use xlink:href="#DejaVuSerif-Italic-61" transform="translate(2136.962891 0.015625)"/>
     <use xlink:href="#DejaVuSerif-Italic-73" transform="translate(2196.582031 0.015625)"/>
     <use xlink:href="#DejaVuSerif-Italic-69" transform="translate(2247.900391 0.015625)"/>
     <use xlink:href="#DejaVuSerif-Italic-62" transform="translate(2279.882812 0.015625)"/>
     <use xlink:href="#DejaVuSerif-Italic-6c" transform="translate(2343.896484 0.015625)"/>
     <use xlink:href="#DejaVuSerif-Italic-65" transform="translate(2375.878906 0.015625)"/>
     <use xlink:href="#DejaVuSerif-Italic-20" transform="translate(2435.058594 0.015625)"/>
     <use xlink:href="#DejaVuSerif-Italic-2f" transform="translate(2466.845703 0.015625)"/>
     <use xlink:href="#DejaVuSerif-Italic-20" transform="translate(2500.537109 0.015625)"/>
     <use xlink:href="#DejaVuSerif-Italic-75" transform="translate(2532.324219 0.015625)"/>
     <use xlink:href="#DejaVuSerif-Italic-6e" transform="translate(2596.728516 0.015625)"/>
     <use xlink:href="#DejaVuSerif-Italic-73" transform="translate(2661.132812 0.015625)"/>
     <use xlink:href="#DejaVuSerif-Italic-61" transform="translate(2712.451172 0.015625)"/>
     <use xlink:href="#DejaVuSerif-Italic-66" transform="translate(2772.070312 0.015625)"/>
     <use xlink:href="#DejaVuSerif-Italic-65" transform="translate(2809.082031 0.015625)"/>
     <use xlink:href="#DejaVuSerif-Italic-20" transform="translate(2868.261719 0.015625)"/>
     <use xlink:href="#DejaVuSerif-Italic-63" transform="translate(2900.048828 0.015625)"/>
     <use xlink:href="#DejaVuSerif-Italic-61" transform="translate(2956.054688 0.015625)"/>
     <use xlink:href="#DejaVuSerif-Italic-6e" transform="translate(3015.673828 0.015625)"/>
     <use xlink:href="#DejaVuSerif-Italic-64" transform="translate(3080.078125 0.015625)"/>
     <use xlink:href="#DejaVuSerif-Italic-69" transform="translate(3144.091797 0.015625)"/>
     <use xlink:href="#DejaVuSerif-Italic-64" transform="translate(3176.074219 0.015625)"/>
     <use xlink:href="#DejaVuSerif-Italic-61" transform="translate(3240.087891 0.015625)"/>
     <use xlink:href="#DejaVuSerif-Italic-74" transform="translate(3299.707031 0.015625)"/>
     <use xlink:href="#DejaVuSerif-Italic-65" transform="translate(3339.892578 0.015625)"/>
     <use xlink:href="#DejaVuSerif-Italic-73" transform="translate(3399.072266 0.015625)"/>
     <use xlink:href="#DejaVuSerif-Italic-3b" transform="translate(3450.390625 0.015625)"/>
     <use xlink:href="#DejaVuSerif-Italic-20" transform="translate(3484.082031 0.015625)"/>
     <use xlink:href="#DejaVuSerif-Italic-72" transform="translate(3515.869141 0.015625)"/>
     <use xlink:href="#DejaVuSerif-Italic-65" transform="translate(3563.671875 0.015625)"/>
     <use xlink:href="#DejaVuSerif-Italic-72" transform="translate(3622.851562 0.015625)"/>
     <use xlink:href="#DejaVuSerif-Italic-61" transform="translate(3670.654297 0.015625)"/>
     <use xlink:href="#DejaVuSerif-Italic-6e" transform="translate(3730.273438 0.015625)"/>
     <use xlink:href="#DejaVuSerif-Italic-6b" transform="translate(3794.677734 0.015625)"/>
     <use xlink:href="#DejaVuSerif-Italic-65" transform="translate(3855.273438 0.015625)"/>
     <use xlink:href="#DejaVuSerif-Italic-72" transform="translate(3914.453125 0.015625)"/>
     <use xlink:href="#DejaVuSerif-Italic-20" transform="translate(3962.255859 0.015625)"/>
     <use xlink:href="#DejaVuSerif-Italic-73" transform="translate(3994.042969 0.015625)"/>
     <use xlink:href="#DejaVuSerif-Italic-63" transform="translate(4045.361328 0.015625)"/>
     <use xlink:href="#DejaVuSerif-Italic-6f" transform="translate(4101.367188 0.015625)"/>
     <use xlink:href="#DejaVuSerif-Italic-72" transform="translate(4161.572266 0.015625)"/>
     <use xlink:href="#DejaVuSerif-Italic-65" transform="translate(4209.375 0.015625)"/>
     <use xlink:href="#DejaVuSerif-Italic-73" transform="translate(4268.554688 0.015625)"/>
     <use xlink:href="#DejaVuSerif-Italic-20" transform="translate(4319.873047 0.015625)"/>
     <use xlink:href="#DejaVuSerif-Italic-6f" transform="translate(4351.660156 0.015625)"/>
     <use xlink:href="#DejaVuSerif-Italic-6e" transform="translate(4411.865234 0.015625)"/>
     <use xlink:href="#DejaVuSerif-Italic-20" transform="translate(4476.269531 0.015625)"/>
     <use xlink:href="#DejaVuSans-Oblique-3c1" transform="translate(4508.056641 0.015625)"/>
     <use xlink:href="#DejaVuSans-2c" transform="translate(4571.533203 0.015625)"/>
     <use xlink:href="#DejaVuSans-Oblique-44" transform="translate(4622.802734 0.015625)"/>
     <use xlink:href="#DejaVuSans-2c" transform="translate(4699.804688 0.015625)"/>
     <use xlink:href="#DejaVuSans-Oblique-50" transform="translate(4751.074219 0.015625)"/>
     <use xlink:href="#DejaVuSerif-Italic-2c" transform="translate(4811.376953 0.015625)"/>
     <use xlink:href="#DejaVuSerif-Italic-20" transform="translate(4843.164062 0.015625)"/>
     <use xlink:href="#DejaVuSerif-Italic-53" transform="translate(4874.951172 0.015625)"/>
     <use xlink:href="#DejaVuSerif-Italic-41" transform="translate(4943.457031 0.015625)"/>
     <use xlink:href="#DejaVuSerif-Italic-2c" transform="translate(5015.673828 0.015625)"/>
     <use xlink:href="#DejaVuSerif-Italic-20" transform="translate(5047.460938 0.015625)"/>
     <use xlink:href="#DejaVuSerif-Italic-73" transform="translate(5079.248047 0.015625)"/>
     <use xlink:href="#DejaVuSerif-Italic-63" transform="translate(5130.566406 0.015625)"/>
     <use xlink:href="#DejaVuSerif-Italic-61" transform="translate(5186.572266 0.015625)"/>
     <use xlink:href="#DejaVuSerif-Italic-66" transform="translate(5246.191406 0.015625)"/>
     <use xlink:href="#DejaVuSerif-Italic-66" transform="translate(5283.203125 0.015625)"/>
     <use xlink:href="#DejaVuSerif-Italic-6f" transform="translate(5320.214844 0.015625)"/>
     <use xlink:href="#DejaVuSerif-Italic-6c" transform="translate(5380.419922 0.015625)"/>
     <use xlink:href="#DejaVuSerif-Italic-64" transform="translate(5412.402344 0.015625)"/>
     <use xlink:href="#DejaVuSerif-Italic-20" transform="translate(5476.416016 0.015625)"/>
     <use xlink:href="#DejaVuSerif-Italic-6e" transform="translate(5508.203125 0.015625)"/>
     <use xlink:href="#DejaVuSerif-Italic-6f" transform="translate(5572.607422 0.015625)"/>
     <use xlink:href="#DejaVuSerif-Italic-76" transform="translate(5632.8125 0.015625)"/>
     <use xlink:href="#DejaVuSerif-Italic-65" transform="translate(5689.306641 0.015625)"/>
     <use xlink:href="#DejaVuSerif-Italic-6c" transform="translate(5748.486328 0.015625)"/>
     <use xlink:href="#DejaVuSerif-Italic-74" transform="translate(5780.46875 0.015625)"/>
     <use xlink:href="#DejaVuSerif-Italic-79" transform="translate(5820.654297 0.015625)"/>
     <use xlink:href="#DejaVuSerif-Italic-2e" transform="translate(5877.148438 0.015625)"/>
    </g>
   </g>
   <g id="patch_14">
    <path d="M 101.841809 155.30713 
Q 120.089739 155.30713 136.325208 155.30713 
" style="fill: none; stroke: #27445d; stroke-width: 1.8; stroke-linecap: round"/>
    <path d="M 131.525208 152.90713 
L 136.325208 155.30713 
L 131.525208 157.70713 
z
" style="fill: #27445d; stroke: #27445d; stroke-width: 1.8; stroke-linecap: round"/>
   </g>
   <g id="patch_15">
    <path d="M 222.463722 155.30713 
Q 242.258087 155.30713 260.039991 155.30713 
" style="fill: none; stroke: #27445d; stroke-width: 1.8; stroke-linecap: round"/>
    <path d="M 255.239991 152.90713 
L 260.039991 155.30713 
L 255.239991 157.70713 
z
" style="fill: #27445d; stroke: #27445d; stroke-width: 1.8; stroke-linecap: round"/>
   </g>
   <g id="patch_16">
    <path d="M 346.178504 155.30713 
Q 365.97287 155.30713 383.754774 155.30713 
" style="fill: none; stroke: #27445d; stroke-width: 1.8; stroke-linecap: round"/>
    <path d="M 378.954774 152.90713 
L 383.754774 155.30713 
L 378.954774 157.70713 
z
" style="fill: #27445d; stroke: #27445d; stroke-width: 1.8; stroke-linecap: round"/>
   </g>
   <g id="patch_17">
    <path d="M 472.986157 155.30713 
Q 491.234087 155.30713 507.469556 155.30713 
" style="fill: none; stroke: #27445d; stroke-width: 1.8; stroke-linecap: round"/>
    <path d="M 502.669556 152.90713 
L 507.469556 155.30713 
L 502.669556 157.70713 
z
" style="fill: #27445d; stroke: #27445d; stroke-width: 1.8; stroke-linecap: round"/>
   </g>
   <g id="patch_18">
    <path d="M 599.793809 155.30713 
Q 621.134609 155.30713 640.462948 155.30713 
" style="fill: none; stroke: #27445d; stroke-width: 1.8; stroke-linecap: round"/>
    <path d="M 635.662948 152.90713 
L 640.462948 155.30713 
L 635.662948 157.70713 
z
" style="fill: #27445d; stroke: #27445d; stroke-width: 1.8; stroke-linecap: round"/>
   </g>
  </g>
  <g id="axes_2">
   <g id="patch_19">
    <path d="M 756 230.4 
L 915.12 230.4 
L 915.12 72 
L 756 72 
z
" style="fill: #eef1f3"/>
   </g>
   <g id="patch_20">
    <path d="M 763.232727 230.4 
L 769.807934 230.4 
L 769.807934 227.843099 
L 763.232727 227.843099 
z
" clip-path="url(#pb86bb1add3)" style="fill: #b88a25; opacity: 0.85; stroke: #27445d; stroke-width: 0.6; stroke-linejoin: miter"/>
   </g>
   <g id="patch_21">
    <path d="M 769.807934 230.4 
L 776.38314 230.4 
L 776.38314 227.843099 
L 769.807934 227.843099 
z
" clip-path="url(#pb86bb1add3)" style="fill: #b88a25; opacity: 0.85; stroke: #27445d; stroke-width: 0.6; stroke-linejoin: miter"/>
   </g>
   <g id="patch_22">
    <path d="M 776.38314 230.4 
L 782.958347 230.4 
L 782.958347 227.843099 
L 776.38314 227.843099 
z
" clip-path="url(#pb86bb1add3)" style="fill: #b88a25; opacity: 0.85; stroke: #27445d; stroke-width: 0.6; stroke-linejoin: miter"/>
   </g>
   <g id="patch_23">
    <path d="M 782.958347 230.4 
L 789.533554 230.4 
L 789.533554 212.501695 
L 782.958347 212.501695 
z
" clip-path="url(#pb86bb1add3)" style="fill: #b88a25; opacity: 0.85; stroke: #27445d; stroke-width: 0.6; stroke-linejoin: miter"/>
   </g>
   <g id="patch_24">
    <path d="M 789.533554 230.4 
L 796.10876 230.4 
L 796.10876 207.387893 
L 789.533554 207.387893 
z
" clip-path="url(#pb86bb1add3)" style="fill: #b88a25; opacity: 0.85; stroke: #27445d; stroke-width: 0.6; stroke-linejoin: miter"/>
   </g>
   <g id="patch_25">
    <path d="M 796.10876 230.4 
L 802.683967 230.4 
L 802.683967 189.489588 
L 796.10876 189.489588 
z
" clip-path="url(#pb86bb1add3)" style="fill: #b88a25; opacity: 0.85; stroke: #27445d; stroke-width: 0.6; stroke-linejoin: miter"/>
   </g>
   <g id="patch_26">
    <path d="M 802.683967 230.4 
L 809.259174 230.4 
L 809.259174 169.034383 
L 802.683967 169.034383 
z
" clip-path="url(#pb86bb1add3)" style="fill: #b88a25; opacity: 0.85; stroke: #27445d; stroke-width: 0.6; stroke-linejoin: miter"/>
   </g>
   <g id="patch_27">
    <path d="M 809.259174 230.4 
L 815.83438 230.4 
L 815.83438 163.920581 
L 809.259174 163.920581 
z
" clip-path="url(#pb86bb1add3)" style="fill: #b88a25; opacity: 0.85; stroke: #27445d; stroke-width: 0.6; stroke-linejoin: miter"/>
   </g>
   <g id="patch_28">
    <path d="M 815.83438 230.4 
L 822.409587 230.4 
L 822.409587 140.908475 
L 815.83438 140.908475 
z
" clip-path="url(#pb86bb1add3)" style="fill: #b88a25; opacity: 0.85; stroke: #27445d; stroke-width: 0.6; stroke-linejoin: miter"/>
   </g>
   <g id="patch_29">
    <path d="M 822.409587 230.4 
L 828.984793 230.4 
L 828.984793 79.542857 
L 822.409587 79.542857 
z
" clip-path="url(#pb86bb1add3)" style="fill: #b88a25; opacity: 0.85; stroke: #27445d; stroke-width: 0.6; stroke-linejoin: miter"/>
   </g>
   <g id="patch_30">
    <path d="M 828.984793 230.4 
L 835.56 230.4 
L 835.56 125.56707 
L 828.984793 125.56707 
z
" clip-path="url(#pb86bb1add3)" style="fill: #b88a25; opacity: 0.85; stroke: #27445d; stroke-width: 0.6; stroke-linejoin: miter"/>
   </g>
   <g id="patch_31">
    <path d="M 835.56 230.4 
L 842.135207 230.4 
L 842.135207 158.80678 
L 835.56 158.80678 
z
" clip-path="url(#pb86bb1add3)" style="fill: #b88a25; opacity: 0.85; stroke: #27445d; stroke-width: 0.6; stroke-linejoin: miter"/>
   </g>
   <g id="patch_32">
    <path d="M 842.135207 230.4 
L 848.710413 230.4 
L 848.710413 133.237772 
L 842.135207 133.237772 
z
" clip-path="url(#pb86bb1add3)" style="fill: #b88a25; opacity: 0.85; stroke: #27445d; stroke-width: 0.6; stroke-linejoin: miter"/>
   </g>
   <g id="patch_33">
    <path d="M 848.710413 230.4 
L 855.28562 230.4 
L 855.28562 153.692978 
L 848.710413 153.692978 
z
" clip-path="url(#pb86bb1add3)" style="fill: #b88a25; opacity: 0.85; stroke: #27445d; stroke-width: 0.6; stroke-linejoin: miter"/>
   </g>
   <g id="patch_34">
    <path d="M 855.28562 230.4 
L 861.860826 230.4 
L 861.860826 135.794673 
L 855.28562 135.794673 
z
" clip-path="url(#pb86bb1add3)" style="fill: #b88a25; opacity: 0.85; stroke: #27445d; stroke-width: 0.6; stroke-linejoin: miter"/>
   </g>
   <g id="patch_35">
    <path d="M 861.860826 230.4 
L 868.436033 230.4 
L 868.436033 161.36368 
L 861.860826 161.36368 
z
" clip-path="url(#pb86bb1add3)" style="fill: #b88a25; opacity: 0.85; stroke: #27445d; stroke-width: 0.6; stroke-linejoin: miter"/>
   </g>
   <g id="patch_36">
    <path d="M 868.436033 230.4 
L 875.01124 230.4 
L 875.01124 166.477482 
L 868.436033 166.477482 
z
" clip-path="url(#pb86bb1add3)" style="fill: #b88a25; opacity: 0.85; stroke: #27445d; stroke-width: 0.6; stroke-linejoin: miter"/>
   </g>
   <g id="patch_37">
    <path d="M 875.01124 230.4 
L 881.586446 230.4 
L 881.586446 174.148184 
L 875.01124 174.148184 
z
" clip-path="url(#pb86bb1add3)" style="fill: #b88a25; opacity: 0.85; stroke: #27445d; stroke-width: 0.6; stroke-linejoin: miter"/>
   </g>
   <g id="patch_38">
    <path d="M 881.586446 230.4 
L 888.161653 230.4 
L 888.161653 171.591283 
L 881.586446 171.591283 
z
" clip-path="url(#pb86bb1add3)" style="fill: #b88a25; opacity: 0.85; stroke: #27445d; stroke-width: 0.6; stroke-linejoin: miter"/>
   </g>
   <g id="patch_39">
    <path d="M 888.161653 230.4 
L 894.73686 230.4 
L 894.73686 186.932688 
L 888.161653 186.932688 
z
" clip-path="url(#pb86bb1add3)" style="fill: #b88a25; opacity: 0.85; stroke: #27445d; stroke-width: 0.6; stroke-linejoin: miter"/>
   </g>
   <g id="patch_40">
    <path d="M 894.73686 230.4 
L 901.312066 230.4 
L 901.312066 202.274092 
L 894.73686 202.274092 
z
" clip-path="url(#pb86bb1add3)" style="fill: #b88a25; opacity: 0.85; stroke: #27445d; stroke-width: 0.6; stroke-linejoin: miter"/>
   </g>
   <g id="patch_41">
    <path d="M 901.312066 230.4 
L 907.887273 230.4 
L 907.887273 225.286199 
L 901.312066 225.286199 
z
" clip-path="url(#pb86bb1add3)" style="fill: #b88a25; opacity: 0.85; stroke: #27445d; stroke-width: 0.6; stroke-linejoin: miter"/>
   </g>
   <g id="matplotlib.axis_1">
    <g id="xtick_1">
     <g id="line2d_1">
      <defs>
       <path id="mafd34bcfff" d="M 0 0 
L 0 2 
" style="stroke: #5a6a7a; stroke-width: 0.8"/>
      </defs>
      <g>
       <use xlink:href="#mafd34bcfff" x="774.864247" y="230.4" style="fill: #5a6a7a; stroke: #5a6a7a; stroke-width: 0.8"/>
      </g>
     </g>
     <g id="text_14">
      <!-- 7 -->
      <g style="fill: #5a6a7a" transform="translate(772.47831 241.598828) scale(0.075 -0.075)">
       <defs>
        <path id="DejaVuSans-37" d="M 525 4666 
L 3525 4666 
L 3525 4397 
L 1831 0 
L 1172 0 
L 2766 4134 
L 525 4134 
L 525 4666 
z
" transform="scale(0.015625)"/>
       </defs>
       <use xlink:href="#DejaVuSans-37"/>
      </g>
     </g>
    </g>
    <g id="xtick_2">
     <g id="line2d_2">
      <g>
       <use xlink:href="#mafd34bcfff" x="819.065806" y="230.4" style="fill: #5a6a7a; stroke: #5a6a7a; stroke-width: 0.8"/>
      </g>
     </g>
     <g id="text_15">
      <!-- 8 -->
      <g style="fill: #5a6a7a" transform="translate(816.679868 241.598828) scale(0.075 -0.075)">
       <defs>
        <path id="DejaVuSans-38" d="M 2034 2216 
Q 1584 2216 1326 1975 
Q 1069 1734 1069 1313 
Q 1069 891 1326 650 
Q 1584 409 2034 409 
Q 2484 409 2743 651 
Q 3003 894 3003 1313 
Q 3003 1734 2745 1975 
Q 2488 2216 2034 2216 
z
M 1403 2484 
Q 997 2584 770 2862 
Q 544 3141 544 3541 
Q 544 4100 942 4425 
Q 1341 4750 2034 4750 
Q 2731 4750 3128 4425 
Q 3525 4100 3525 3541 
Q 3525 3141 3298 2862 
Q 3072 2584 2669 2484 
Q 3125 2378 3379 2068 
Q 3634 1759 3634 1313 
Q 3634 634 3220 271 
Q 2806 -91 2034 -91 
Q 1263 -91 848 271 
Q 434 634 434 1313 
Q 434 1759 690 2068 
Q 947 2378 1403 2484 
z
M 1172 3481 
Q 1172 3119 1398 2916 
Q 1625 2713 2034 2713 
Q 2441 2713 2670 2916 
Q 2900 3119 2900 3481 
Q 2900 3844 2670 4047 
Q 2441 4250 2034 4250 
Q 1625 4250 1398 4047 
Q 1172 3844 1172 3481 
z
" transform="scale(0.015625)"/>
       </defs>
       <use xlink:href="#DejaVuSans-38"/>
      </g>
     </g>
    </g>
    <g id="xtick_3">
     <g id="line2d_3">
      <g>
       <use xlink:href="#mafd34bcfff" x="863.267364" y="230.4" style="fill: #5a6a7a; stroke: #5a6a7a; stroke-width: 0.8"/>
      </g>
     </g>
     <g id="text_16">
      <!-- 9 -->
      <g style="fill: #5a6a7a" transform="translate(860.881426 241.598828) scale(0.075 -0.075)">
       <defs>
        <path id="DejaVuSans-39" d="M 703 97 
L 703 672 
Q 941 559 1184 500 
Q 1428 441 1663 441 
Q 2288 441 2617 861 
Q 2947 1281 2994 2138 
Q 2813 1869 2534 1725 
Q 2256 1581 1919 1581 
Q 1219 1581 811 2004 
Q 403 2428 403 3163 
Q 403 3881 828 4315 
Q 1253 4750 1959 4750 
Q 2769 4750 3195 4129 
Q 3622 3509 3622 2328 
Q 3622 1225 3098 567 
Q 2575 -91 1691 -91 
Q 1453 -91 1209 -44 
Q 966 3 703 97 
z
M 1959 2075 
Q 2384 2075 2632 2365 
Q 2881 2656 2881 3163 
Q 2881 3666 2632 3958 
Q 2384 4250 1959 4250 
Q 1534 4250 1286 3958 
Q 1038 3666 1038 3163 
Q 1038 2656 1286 2365 
Q 1534 2075 1959 2075 
z
" transform="scale(0.015625)"/>
       </defs>
       <use xlink:href="#DejaVuSans-39"/>
      </g>
     </g>
    </g>
    <g id="xtick_4">
     <g id="line2d_4">
      <g>
       <use xlink:href="#mafd34bcfff" x="907.468922" y="230.4" style="fill: #5a6a7a; stroke: #5a6a7a; stroke-width: 0.8"/>
      </g>
     </g>
     <g id="text_17">
      <!-- 10 -->
      <g style="fill: #5a6a7a" transform="translate(902.697047 241.598828) scale(0.075 -0.075)">
       <use xlink:href="#DejaVuSans-31"/>
       <use xlink:href="#DejaVuSans-30" transform="translate(63.623047 0)"/>
      </g>
     </g>
    </g>
    <g id="text_18">
     <!-- $D$  (km/s) -->
     <g style="fill: #5a6a7a" transform="translate(816.01 253.617266) scale(0.085 -0.085)">
      <defs>
       <path id="DejaVuSerif-20" transform="scale(0.015625)"/>
       <path id="DejaVuSerif-28" d="M 2041 -997 
Q 1281 -656 893 83 
Q 506 822 506 1931 
Q 506 3044 893 3783 
Q 1281 4522 2041 4863 
L 2041 4556 
Q 1559 4225 1350 3623 
Q 1141 3022 1141 1931 
Q 1141 844 1350 242 
Q 1559 -359 2041 -691 
L 2041 -997 
z
" transform="scale(0.015625)"/>
       <path id="DejaVuSerif-6b" d="M 1831 0 
L 219 0 
L 219 331 
L 738 331 
L 738 4531 
L 184 4531 
L 184 4863 
L 1313 4863 
L 1313 1697 
L 2713 2988 
L 2234 2988 
L 2234 3322 
L 3738 3322 
L 3738 2988 
L 3169 2988 
L 2181 2075 
L 3444 331 
L 3922 331 
L 3922 0 
L 2284 0 
L 2284 331 
L 2759 331 
L 1766 1697 
L 1313 1275 
L 1313 331 
L 1831 331 
L 1831 0 
z
" transform="scale(0.015625)"/>
       <path id="DejaVuSerif-6d" d="M 3316 2675 
Q 3481 3041 3739 3227 
Q 3997 3413 4341 3413 
Q 4863 3413 5119 3089 
Q 5375 2766 5375 2113 
L 5375 331 
L 5894 331 
L 5894 0 
L 4300 0 
L 4300 331 
L 4800 331 
L 4800 2047 
Q 4800 2556 4650 2772 
Q 4500 2988 4153 2988 
Q 3769 2988 3567 2697 
Q 3366 2406 3366 1850 
L 3366 331 
L 3866 331 
L 3866 0 
L 2291 0 
L 2291 331 
L 2791 331 
L 2791 2069 
Q 2791 2566 2641 2777 
Q 2491 2988 2144 2988 
Q 1759 2988 1557 2697 
Q 1356 2406 1356 1850 
L 1356 331 
L 1856 331 
L 1856 0 
L 263 0 
L 263 331 
L 781 331 
L 781 2994 
L 231 2994 
L 231 3322 
L 1356 3322 
L 1356 2731 
Q 1516 3063 1762 3238 
Q 2009 3413 2322 3413 
Q 2709 3413 2968 3220 
Q 3228 3028 3316 2675 
z
" transform="scale(0.015625)"/>
       <path id="DejaVuSerif-2f" d="M 1656 4666 
L 2156 4666 
L 500 -594 
L 0 -594 
L 1656 4666 
z
" transform="scale(0.015625)"/>
       <path id="DejaVuSerif-73" d="M 359 184 
L 359 959 
L 691 959 
Q 703 588 923 403 
Q 1144 219 1575 219 
Q 1963 219 2166 364 
Q 2369 509 2369 788 
Q 2369 1006 2220 1140 
Q 2072 1275 1594 1428 
L 1178 1569 
Q 750 1706 558 1912 
Q 366 2119 366 2438 
Q 366 2894 700 3153 
Q 1034 3413 1625 3413 
Q 1888 3413 2178 3344 
Q 2469 3275 2778 3144 
L 2778 2419 
L 2447 2419 
Q 2434 2741 2221 2922 
Q 2009 3103 1644 3103 
Q 1281 3103 1095 2975 
Q 909 2847 909 2591 
Q 909 2381 1050 2254 
Q 1191 2128 1613 1997 
L 2069 1856 
Q 2541 1709 2748 1489 
Q 2956 1269 2956 922 
Q 2956 450 2595 179 
Q 2234 -91 1600 -91 
Q 1278 -91 972 -22 
Q 666 47 359 184 
z
" transform="scale(0.015625)"/>
       <path id="DejaVuSerif-29" d="M 453 -997 
L 453 -691 
Q 934 -359 1145 242 
Q 1356 844 1356 1931 
Q 1356 3022 1145 3623 
Q 934 4225 453 4556 
L 453 4863 
Q 1216 4522 1603 3783 
Q 1991 3044 1991 1931 
Q 1991 822 1603 83 
Q 1216 -656 453 -997 
z
" transform="scale(0.015625)"/>
      </defs>
      <use xlink:href="#DejaVuSans-Oblique-44" transform="translate(0 0.015625)"/>
      <use xlink:href="#DejaVuSerif-20" transform="translate(77.001953 0.015625)"/>
      <use xlink:href="#DejaVuSerif-20" transform="translate(108.789062 0.015625)"/>
      <use xlink:href="#DejaVuSerif-28" transform="translate(140.576172 0.015625)"/>
      <use xlink:href="#DejaVuSerif-6b" transform="translate(179.589844 0.015625)"/>
      <use xlink:href="#DejaVuSerif-6d" transform="translate(240.185547 0.015625)"/>
      <use xlink:href="#DejaVuSerif-2f" transform="translate(335.009766 0.015625)"/>
      <use xlink:href="#DejaVuSerif-73" transform="translate(368.701172 0.015625)"/>
      <use xlink:href="#DejaVuSerif-29" transform="translate(420.019531 0.015625)"/>
     </g>
    </g>
   </g>
   <g id="matplotlib.axis_2"/>
   <g id="patch_42">
    <path d="M 756 230.4 
L 756 72 
" style="fill: none; stroke: #8a9aaa; stroke-width: 0.6; stroke-linejoin: miter; stroke-linecap: square"/>
   </g>
   <g id="patch_43">
    <path d="M 915.12 230.4 
L 915.12 72 
" style="fill: none; stroke: #8a9aaa; stroke-width: 0.6; stroke-linejoin: miter; stroke-linecap: square"/>
   </g>
   <g id="patch_44">
    <path d="M 756 230.4 
L 915.12 230.4 
" style="fill: none; stroke: #8a9aaa; stroke-width: 0.6; stroke-linejoin: miter; stroke-linecap: square"/>
   </g>
   <g id="patch_45">
    <path d="M 756 72 
L 915.12 72 
" style="fill: none; stroke: #8a9aaa; stroke-width: 0.6; stroke-linejoin: miter; stroke-linecap: square"/>
   </g>
   <g id="text_19">
    <!-- top-$K$ candidate $D$ -->
    <g style="fill: #1f2c3a" transform="translate(791.1 68) scale(0.09 -0.09)">
     <use xlink:href="#DejaVuSerif-Bold-74" transform="translate(0 0.015625)"/>
     <use xlink:href="#DejaVuSerif-Bold-6f" transform="translate(46.191406 0.015625)"/>
     <use xlink:href="#DejaVuSerif-Bold-70" transform="translate(112.890625 0.015625)"/>
     <use xlink:href="#DejaVuSerif-Bold-2d" transform="translate(182.8125 0.015625)"/>
     <use xlink:href="#DejaVuSans-Oblique-4b" transform="translate(224.316406 0.015625)"/>
     <use xlink:href="#DejaVuSerif-Bold-20" transform="translate(289.892578 0.015625)"/>
     <use xlink:href="#DejaVuSerif-Bold-63" transform="translate(324.707031 0.015625)"/>
     <use xlink:href="#DejaVuSerif-Bold-61" transform="translate(385.595703 0.015625)"/>
     <use xlink:href="#DejaVuSerif-Bold-6e" transform="translate(450.390625 0.015625)"/>
     <use xlink:href="#DejaVuSerif-Bold-64" transform="translate(523.095703 0.015625)"/>
     <use xlink:href="#DejaVuSerif-Bold-69" transform="translate(593.017578 0.015625)"/>
     <use xlink:href="#DejaVuSerif-Bold-64" transform="translate(631.005859 0.015625)"/>
     <use xlink:href="#DejaVuSerif-Bold-61" transform="translate(700.927734 0.015625)"/>
     <use xlink:href="#DejaVuSerif-Bold-74" transform="translate(765.722656 0.015625)"/>
     <use xlink:href="#DejaVuSerif-Bold-65" transform="translate(811.914062 0.015625)"/>
     <use xlink:href="#DejaVuSerif-Bold-20" transform="translate(875.537109 0.015625)"/>
     <use xlink:href="#DejaVuSans-Oblique-44" transform="translate(910.351562 0.015625)"/>
    </g>
   </g>
  </g>
  <g id="text_20">
   <!-- Figure 4(d). Post-sampling: decode, filter, rerank -->
   <g style="fill: #1f2c3a" transform="translate(309.080625 16.318125) scale(0.12 -0.12)">
    <defs>
     <path id="DejaVuSans-Bold-46" d="M 588 4666 
L 3834 4666 
L 3834 3756 
L 1791 3756 
L 1791 2888 
L 3713 2888 
L 3713 1978 
L 1791 1978 
L 1791 0 
L 588 0 
L 588 4666 
z
" transform="scale(0.015625)"/>
     <path id="DejaVuSans-Bold-69" d="M 538 3500 
L 1656 3500 
L 1656 0 
L 538 0 
L 538 3500 
z
M 538 4863 
L 1656 4863 
L 1656 3950 
L 538 3950 
L 538 4863 
z
" transform="scale(0.015625)"/>
     <path id="DejaVuSans-Bold-67" d="M 2919 594 
Q 2688 288 2409 144 
Q 2131 0 1766 0 
Q 1125 0 706 504 
Q 288 1009 288 1791 
Q 288 2575 706 3076 
Q 1125 3578 1766 3578 
Q 2131 3578 2409 3434 
Q 2688 3291 2919 2981 
L 2919 3500 
L 4044 3500 
L 4044 353 
Q 4044 -491 3511 -936 
Q 2978 -1381 1966 -1381 
Q 1638 -1381 1331 -1331 
Q 1025 -1281 716 -1178 
L 716 -306 
Q 1009 -475 1290 -558 
Q 1572 -641 1856 -641 
Q 2406 -641 2662 -400 
Q 2919 -159 2919 353 
L 2919 594 
z
M 2181 2772 
Q 1834 2772 1640 2515 
Q 1447 2259 1447 1791 
Q 1447 1309 1634 1061 
Q 1822 813 2181 813 
Q 2531 813 2725 1069 
Q 2919 1325 2919 1791 
Q 2919 2259 2725 2515 
Q 2531 2772 2181 2772 
z
" transform="scale(0.015625)"/>
     <path id="DejaVuSans-Bold-75" d="M 500 1363 
L 500 3500 
L 1625 3500 
L 1625 3150 
Q 1625 2866 1622 2436 
Q 1619 2006 1619 1863 
Q 1619 1441 1641 1255 
Q 1663 1069 1716 984 
Q 1784 875 1895 815 
Q 2006 756 2150 756 
Q 2500 756 2700 1025 
Q 2900 1294 2900 1772 
L 2900 3500 
L 4019 3500 
L 4019 0 
L 2900 0 
L 2900 506 
Q 2647 200 2364 54 
Q 2081 -91 1741 -91 
Q 1134 -91 817 281 
Q 500 653 500 1363 
z
" transform="scale(0.015625)"/>
     <path id="DejaVuSans-Bold-72" d="M 3138 2547 
Q 2991 2616 2845 2648 
Q 2700 2681 2553 2681 
Q 2122 2681 1889 2404 
Q 1656 2128 1656 1613 
L 1656 0 
L 538 0 
L 538 3500 
L 1656 3500 
L 1656 2925 
Q 1872 3269 2151 3426 
Q 2431 3584 2822 3584 
Q 2878 3584 2943 3579 
Q 3009 3575 3134 3559 
L 3138 2547 
z
" transform="scale(0.015625)"/>
     <path id="DejaVuSans-Bold-65" d="M 4031 1759 
L 4031 1441 
L 1416 1441 
Q 1456 1047 1700 850 
Q 1944 653 2381 653 
Q 2734 653 3104 758 
Q 3475 863 3866 1075 
L 3866 213 
Q 3469 63 3072 -14 
Q 2675 -91 2278 -91 
Q 1328 -91 801 392 
Q 275 875 275 1747 
Q 275 2603 792 3093 
Q 1309 3584 2216 3584 
Q 3041 3584 3536 3087 
Q 4031 2591 4031 1759 
z
M 2881 2131 
Q 2881 2450 2695 2645 
Q 2509 2841 2209 2841 
Q 1884 2841 1681 2658 
Q 1478 2475 1428 2131 
L 2881 2131 
z
" transform="scale(0.015625)"/>
     <path id="DejaVuSans-Bold-20" transform="scale(0.015625)"/>
     <path id="DejaVuSans-Bold-34" d="M 2356 3675 
L 1038 1722 
L 2356 1722 
L 2356 3675 
z
M 2156 4666 
L 3494 4666 
L 3494 1722 
L 4159 1722 
L 4159 850 
L 3494 850 
L 3494 0 
L 2356 0 
L 2356 850 
L 288 850 
L 288 1881 
L 2156 4666 
z
" transform="scale(0.015625)"/>
     <path id="DejaVuSans-Bold-28" d="M 2413 -844 
L 1484 -844 
Q 1006 -72 778 623 
Q 550 1319 550 2003 
Q 550 2688 779 3389 
Q 1009 4091 1484 4856 
L 2413 4856 
Q 2013 4116 1813 3408 
Q 1613 2700 1613 2009 
Q 1613 1319 1811 609 
Q 2009 -100 2413 -844 
z
" transform="scale(0.015625)"/>
     <path id="DejaVuSans-Bold-64" d="M 2919 2988 
L 2919 4863 
L 4044 4863 
L 4044 0 
L 2919 0 
L 2919 506 
Q 2688 197 2409 53 
Q 2131 -91 1766 -91 
Q 1119 -91 703 423 
Q 288 938 288 1747 
Q 288 2556 703 3070 
Q 1119 3584 1766 3584 
Q 2128 3584 2408 3439 
Q 2688 3294 2919 2988 
z
M 2181 722 
Q 2541 722 2730 984 
Q 2919 1247 2919 1747 
Q 2919 2247 2730 2509 
Q 2541 2772 2181 2772 
Q 1825 2772 1636 2509 
Q 1447 2247 1447 1747 
Q 1447 1247 1636 984 
Q 1825 722 2181 722 
z
" transform="scale(0.015625)"/>
     <path id="DejaVuSans-Bold-29" d="M 513 -844 
Q 913 -100 1113 609 
Q 1313 1319 1313 2009 
Q 1313 2700 1113 3408 
Q 913 4116 513 4856 
L 1441 4856 
Q 1916 4091 2145 3389 
Q 2375 2688 2375 2003 
Q 2375 1319 2147 623 
Q 1919 -72 1441 -844 
L 513 -844 
z
" transform="scale(0.015625)"/>
     <path id="DejaVuSans-Bold-2e" d="M 653 1209 
L 1778 1209 
L 1778 0 
L 653 0 
L 653 1209 
z
" transform="scale(0.015625)"/>
     <path id="DejaVuSans-Bold-50" d="M 588 4666 
L 2584 4666 
Q 3475 4666 3951 4270 
Q 4428 3875 4428 3144 
Q 4428 2409 3951 2014 
Q 3475 1619 2584 1619 
L 1791 1619 
L 1791 0 
L 588 0 
L 588 4666 
z
M 1791 3794 
L 1791 2491 
L 2456 2491 
Q 2806 2491 2997 2661 
Q 3188 2831 3188 3144 
Q 3188 3456 2997 3625 
Q 2806 3794 2456 3794 
L 1791 3794 
z
" transform="scale(0.015625)"/>
     <path id="DejaVuSans-Bold-6f" d="M 2203 2784 
Q 1831 2784 1636 2517 
Q 1441 2250 1441 1747 
Q 1441 1244 1636 976 
Q 1831 709 2203 709 
Q 2569 709 2762 976 
Q 2956 1244 2956 1747 
Q 2956 2250 2762 2517 
Q 2569 2784 2203 2784 
z
M 2203 3584 
Q 3106 3584 3614 3096 
Q 4122 2609 4122 1747 
Q 4122 884 3614 396 
Q 3106 -91 2203 -91 
Q 1297 -91 786 396 
Q 275 884 275 1747 
Q 275 2609 786 3096 
Q 1297 3584 2203 3584 
z
" transform="scale(0.015625)"/>
     <path id="DejaVuSans-Bold-73" d="M 3272 3391 
L 3272 2541 
Q 2913 2691 2578 2766 
Q 2244 2841 1947 2841 
Q 1628 2841 1473 2761 
Q 1319 2681 1319 2516 
Q 1319 2381 1436 2309 
Q 1553 2238 1856 2203 
L 2053 2175 
Q 2913 2066 3209 1816 
Q 3506 1566 3506 1031 
Q 3506 472 3093 190 
Q 2681 -91 1863 -91 
Q 1516 -91 1145 -36 
Q 775 19 384 128 
L 384 978 
Q 719 816 1070 734 
Q 1422 653 1784 653 
Q 2113 653 2278 743 
Q 2444 834 2444 1013 
Q 2444 1163 2330 1236 
Q 2216 1309 1875 1350 
L 1678 1375 
Q 931 1469 631 1722 
Q 331 1975 331 2491 
Q 331 3047 712 3315 
Q 1094 3584 1881 3584 
Q 2191 3584 2531 3537 
Q 2872 3491 3272 3391 
z
" transform="scale(0.015625)"/>
     <path id="DejaVuSans-Bold-74" d="M 1759 4494 
L 1759 3500 
L 2913 3500 
L 2913 2700 
L 1759 2700 
L 1759 1216 
Q 1759 972 1856 886 
Q 1953 800 2241 800 
L 2816 800 
L 2816 0 
L 1856 0 
Q 1194 0 917 276 
Q 641 553 641 1216 
L 641 2700 
L 84 2700 
L 84 3500 
L 641 3500 
L 641 4494 
L 1759 4494 
z
" transform="scale(0.015625)"/>
     <path id="DejaVuSans-Bold-2d" d="M 347 2297 
L 2309 2297 
L 2309 1388 
L 347 1388 
L 347 2297 
z
" transform="scale(0.015625)"/>
     <path id="DejaVuSans-Bold-61" d="M 2106 1575 
Q 1756 1575 1579 1456 
Q 1403 1338 1403 1106 
Q 1403 894 1545 773 
Q 1688 653 1941 653 
Q 2256 653 2472 879 
Q 2688 1106 2688 1447 
L 2688 1575 
L 2106 1575 
z
M 3816 1997 
L 3816 0 
L 2688 0 
L 2688 519 
Q 2463 200 2181 54 
Q 1900 -91 1497 -91 
Q 953 -91 614 226 
Q 275 544 275 1050 
Q 275 1666 698 1953 
Q 1122 2241 2028 2241 
L 2688 2241 
L 2688 2328 
Q 2688 2594 2478 2717 
Q 2269 2841 1825 2841 
Q 1466 2841 1156 2769 
Q 847 2697 581 2553 
L 581 3406 
Q 941 3494 1303 3539 
Q 1666 3584 2028 3584 
Q 2975 3584 3395 3211 
Q 3816 2838 3816 1997 
z
" transform="scale(0.015625)"/>
     <path id="DejaVuSans-Bold-6d" d="M 3781 2919 
Q 3994 3244 4286 3414 
Q 4578 3584 4928 3584 
Q 5531 3584 5847 3212 
Q 6163 2841 6163 2131 
L 6163 0 
L 5038 0 
L 5038 1825 
Q 5041 1866 5042 1909 
Q 5044 1953 5044 2034 
Q 5044 2406 4934 2573 
Q 4825 2741 4581 2741 
Q 4263 2741 4089 2478 
Q 3916 2216 3909 1719 
L 3909 0 
L 2784 0 
L 2784 1825 
Q 2784 2406 2684 2573 
Q 2584 2741 2328 2741 
Q 2006 2741 1831 2477 
Q 1656 2213 1656 1722 
L 1656 0 
L 531 0 
L 531 3500 
L 1656 3500 
L 1656 2988 
Q 1863 3284 2130 3434 
Q 2397 3584 2719 3584 
Q 3081 3584 3359 3409 
Q 3638 3234 3781 2919 
z
" transform="scale(0.015625)"/>
     <path id="DejaVuSans-Bold-70" d="M 1656 506 
L 1656 -1331 
L 538 -1331 
L 538 3500 
L 1656 3500 
L 1656 2988 
Q 1888 3294 2169 3439 
Q 2450 3584 2816 3584 
Q 3463 3584 3878 3070 
Q 4294 2556 4294 1747 
Q 4294 938 3878 423 
Q 3463 -91 2816 -91 
Q 2450 -91 2169 54 
Q 1888 200 1656 506 
z
M 2400 2772 
Q 2041 2772 1848 2508 
Q 1656 2244 1656 1747 
Q 1656 1250 1848 986 
Q 2041 722 2400 722 
Q 2759 722 2948 984 
Q 3138 1247 3138 1747 
Q 3138 2247 2948 2509 
Q 2759 2772 2400 2772 
z
" transform="scale(0.015625)"/>
     <path id="DejaVuSans-Bold-6c" d="M 538 4863 
L 1656 4863 
L 1656 0 
L 538 0 
L 538 4863 
z
" transform="scale(0.015625)"/>
     <path id="DejaVuSans-Bold-6e" d="M 4056 2131 
L 4056 0 
L 2931 0 
L 2931 347 
L 2931 1631 
Q 2931 2084 2911 2256 
Q 2891 2428 2841 2509 
Q 2775 2619 2662 2680 
Q 2550 2741 2406 2741 
Q 2056 2741 1856 2470 
Q 1656 2200 1656 1722 
L 1656 0 
L 538 0 
L 538 3500 
L 1656 3500 
L 1656 2988 
Q 1909 3294 2193 3439 
Q 2478 3584 2822 3584 
Q 3428 3584 3742 3212 
Q 4056 2841 4056 2131 
z
" transform="scale(0.015625)"/>
     <path id="DejaVuSans-Bold-3a" d="M 716 3500 
L 1844 3500 
L 1844 2291 
L 716 2291 
L 716 3500 
z
M 716 1209 
L 1844 1209 
L 1844 0 
L 716 0 
L 716 1209 
z
" transform="scale(0.015625)"/>
     <path id="DejaVuSans-Bold-63" d="M 3366 3391 
L 3366 2478 
Q 3138 2634 2908 2709 
Q 2678 2784 2431 2784 
Q 1963 2784 1702 2511 
Q 1441 2238 1441 1747 
Q 1441 1256 1702 982 
Q 1963 709 2431 709 
Q 2694 709 2930 787 
Q 3166 866 3366 1019 
L 3366 103 
Q 3103 6 2833 -42 
Q 2563 -91 2291 -91 
Q 1344 -91 809 395 
Q 275 881 275 1747 
Q 275 2613 809 3098 
Q 1344 3584 2291 3584 
Q 2566 3584 2833 3536 
Q 3100 3488 3366 3391 
z
" transform="scale(0.015625)"/>
     <path id="DejaVuSans-Bold-2c" d="M 653 1209 
L 1778 1209 
L 1778 256 
L 1006 -909 
L 341 -909 
L 653 256 
L 653 1209 
z
" transform="scale(0.015625)"/>
     <path id="DejaVuSans-Bold-66" d="M 2841 4863 
L 2841 4128 
L 2222 4128 
Q 1984 4128 1890 4042 
Q 1797 3956 1797 3744 
L 1797 3500 
L 2753 3500 
L 2753 2700 
L 1797 2700 
L 1797 0 
L 678 0 
L 678 2700 
L 122 2700 
L 122 3500 
L 678 3500 
L 678 3744 
Q 678 4316 997 4589 
Q 1316 4863 1984 4863 
L 2841 4863 
z
" transform="scale(0.015625)"/>
     <path id="DejaVuSans-Bold-6b" d="M 538 4863 
L 1656 4863 
L 1656 2216 
L 2944 3500 
L 4244 3500 
L 2534 1894 
L 4378 0 
L 3022 0 
L 1656 1459 
L 1656 0 
L 538 0 
L 538 4863 
z
" transform="scale(0.015625)"/>
    </defs>
    <use xlink:href="#DejaVuSans-Bold-46"/>
    <use xlink:href="#DejaVuSans-Bold-69" transform="translate(68.310547 0)"/>
    <use xlink:href="#DejaVuSans-Bold-67" transform="translate(102.587891 0)"/>
    <use xlink:href="#DejaVuSans-Bold-75" transform="translate(174.169922 0)"/>
    <use xlink:href="#DejaVuSans-Bold-72" transform="translate(245.361328 0)"/>
    <use xlink:href="#DejaVuSans-Bold-65" transform="translate(294.677734 0)"/>
    <use xlink:href="#DejaVuSans-Bold-20" transform="translate(362.5 0)"/>
    <use xlink:href="#DejaVuSans-Bold-34" transform="translate(397.314453 0)"/>
    <use xlink:href="#DejaVuSans-Bold-28" transform="translate(466.894531 0)"/>
    <use xlink:href="#DejaVuSans-Bold-64" transform="translate(512.597656 0)"/>
    <use xlink:href="#DejaVuSans-Bold-29" transform="translate(584.179688 0)"/>
    <use xlink:href="#DejaVuSans-Bold-2e" transform="translate(629.882812 0)"/>
    <use xlink:href="#DejaVuSans-Bold-20" transform="translate(667.871094 0)"/>
    <use xlink:href="#DejaVuSans-Bold-50" transform="translate(702.685547 0)"/>
    <use xlink:href="#DejaVuSans-Bold-6f" transform="translate(775.976562 0)"/>
    <use xlink:href="#DejaVuSans-Bold-73" transform="translate(844.677734 0)"/>
    <use xlink:href="#DejaVuSans-Bold-74" transform="translate(904.199219 0)"/>
    <use xlink:href="#DejaVuSans-Bold-2d" transform="translate(952.001953 0)"/>
    <use xlink:href="#DejaVuSans-Bold-73" transform="translate(993.505859 0)"/>
    <use xlink:href="#DejaVuSans-Bold-61" transform="translate(1053.027344 0)"/>
    <use xlink:href="#DejaVuSans-Bold-6d" transform="translate(1120.507812 0)"/>
    <use xlink:href="#DejaVuSans-Bold-70" transform="translate(1224.707031 0)"/>
    <use xlink:href="#DejaVuSans-Bold-6c" transform="translate(1296.289062 0)"/>
    <use xlink:href="#DejaVuSans-Bold-69" transform="translate(1330.566406 0)"/>
    <use xlink:href="#DejaVuSans-Bold-6e" transform="translate(1364.84375 0)"/>
    <use xlink:href="#DejaVuSans-Bold-67" transform="translate(1436.035156 0)"/>
    <use xlink:href="#DejaVuSans-Bold-3a" transform="translate(1507.617188 0)"/>
    <use xlink:href="#DejaVuSans-Bold-20" transform="translate(1547.607422 0)"/>
    <use xlink:href="#DejaVuSans-Bold-64" transform="translate(1582.421875 0)"/>
    <use xlink:href="#DejaVuSans-Bold-65" transform="translate(1654.003906 0)"/>
    <use xlink:href="#DejaVuSans-Bold-63" transform="translate(1721.826172 0)"/>
    <use xlink:href="#DejaVuSans-Bold-6f" transform="translate(1781.103516 0)"/>
    <use xlink:href="#DejaVuSans-Bold-64" transform="translate(1849.804688 0)"/>
    <use xlink:href="#DejaVuSans-Bold-65" transform="translate(1921.386719 0)"/>
    <use xlink:href="#DejaVuSans-Bold-2c" transform="translate(1989.208984 0)"/>
    <use xlink:href="#DejaVuSans-Bold-20" transform="translate(2027.197266 0)"/>
    <use xlink:href="#DejaVuSans-Bold-66" transform="translate(2062.011719 0)"/>
    <use xlink:href="#DejaVuSans-Bold-69" transform="translate(2105.517578 0)"/>
    <use xlink:href="#DejaVuSans-Bold-6c" transform="translate(2139.794922 0)"/>
    <use xlink:href="#DejaVuSans-Bold-74" transform="translate(2174.072266 0)"/>
    <use xlink:href="#DejaVuSans-Bold-65" transform="translate(2221.875 0)"/>
    <use xlink:href="#DejaVuSans-Bold-72" transform="translate(2289.697266 0)"/>
    <use xlink:href="#DejaVuSans-Bold-2c" transform="translate(2324.263672 0)"/>
    <use xlink:href="#DejaVuSans-Bold-20" transform="translate(2362.251953 0)"/>
    <use xlink:href="#DejaVuSans-Bold-72" transform="translate(2397.066406 0)"/>
    <use xlink:href="#DejaVuSans-Bold-65" transform="translate(2446.382812 0)"/>
    <use xlink:href="#DejaVuSans-Bold-72" transform="translate(2514.205078 0)"/>
    <use xlink:href="#DejaVuSans-Bold-61" transform="translate(2563.521484 0)"/>
    <use xlink:href="#DejaVuSans-Bold-6e" transform="translate(2631.001953 0)"/>
    <use xlink:href="#DejaVuSans-Bold-6b" transform="translate(2702.193359 0)"/>
   </g>
  </g>
 </g>
 <defs>
  <clipPath id="p9179b84603">
   <rect x="7.2" y="50.149565" width="711.36" height="216.50087"/>
  </clipPath>
  <clipPath id="pb86bb1add3">
   <rect x="756" y="72" width="159.12" height="158.4"/>
  </clipPath>
 </defs>
</svg>
