<?xml version="1.0" encoding="utf-8" standalone="no"?>
<!DOCTYPE svg PUBLIC "-//W3C//DTD SVG 1.1//EN"
  "http://www.w3.org/Graphics/SVG/1.1/DTD/svg11.dtd">
<svg xmlns:xlink="http://www.w3.org/1999/xlink" width="638.1pt" height="293.184pt" viewBox="0 0 638.1 293.184" xmlns="http://www.w3.org/2000/svg" version="1.1">
 <metadata>
  <rdf:RDF xmlns:dc="http://purl.org/dc/elements/1.1/" xmlns:cc="http://creativecommons.org/ns#" xmlns:rdf="http://www.w3.org/1999/02/22-rdf-syntax-ns#">
   <cc:Work>
    <dc:type rdf:resource="http://purl.org/dc/dcmitype/StillImage"/>
    <dc:date>2026-04-28T14:48:20.651850</dc:date>
    <dc:format>image/svg+xml</dc:format>
    <dc:creator>
     <cc:Agent>
      <dc:title>Matplotlib v3.10.8, https://matplotlib.org/</dc:title>
     </cc:Agent>
    </dc:creator>
   </cc:Work>
  </rdf:RDF>
 </metadata>
 <defs>
  <style type="text/css">*{stroke-linejoin: round; stroke-linecap: butt}</style>
 </defs>
 <g id="figure_1">
  <g id="patch_1">
   <path d="M 0 293.184 
L 638.1 293.184 
L 638.1 0 
L 0 0 
z
" style="fill: #ffffff"/>
  </g>
  <g id="axes_1">
   <g id="patch_2">
    <path d="M 31.5936 160.1352 
L 106.992 160.1352 
Q 111.4272 160.1352 111.4272 155.7 
L 111.4272 119.1096 
Q 111.4272 114.6744 106.992 114.6744 
L 31.5936 114.6744 
Q 27.1584 114.6744 27.1584 119.1096 
L 27.1584 155.7 
Q 27.1584 160.1352 31.5936 160.1352 
z
" clip-path="url(#p5d8fec7bb7)" style="fill: #0a1620; opacity: 0.1"/>
   </g>
   <g id="patch_3">
    <path d="M 148.0176 160.1352 
L 223.416 160.1352 
Q 227.8512 160.1352 227.8512 155.7 
L 227.8512 119.1096 
Q 227.8512 114.6744 223.416 114.6744 
L 148.0176 114.6744 
Q 143.5824 114.6744 143.5824 119.1096 
L 143.5824 155.7 
Q 143.5824 160.1352 148.0176 160.1352 
z
" clip-path="url(#p5d8fec7bb7)" style="fill: #0a1620; opacity: 0.1"/>
   </g>
   <g id="patch_4">
    <path d="M 264.4416 160.1352 
L 339.84 160.1352 
Q 344.2752 160.1352 344.2752 155.7 
L 344.2752 119.1096 
Q 344.2752 114.6744 339.84 114.6744 
L 264.4416 114.6744 
Q 260.0064 114.6744 260.0064 119.1096 
L 260.0064 155.7 
Q 260.0064 160.1352 264.4416 160.1352 
z
" clip-path="url(#p5d8fec7bb7)" style="fill: #0a1620; opacity: 0.1"/>
   </g>
   <g id="patch_5">
    <path d="M 380.8656 162.9072 
L 456.264 162.9072 
Q 460.6992 162.9072 460.6992 158.472 
L 460.6992 116.3376 
Q 460.6992 111.9024 456.264 111.9024 
L 380.8656 111.9024 
Q 376.4304 111.9024 376.4304 116.3376 
L 376.4304 158.472 
Q 376.4304 162.9072 380.8656 162.9072 
z
" clip-path="url(#p5d8fec7bb7)" style="fill: #0a1620; opacity: 0.1"/>
   </g>
   <g id="patch_6">
    <path d="M 516.6936 162.9072 
L 592.092 162.9072 
Q 596.5272 162.9072 596.5272 158.472 
L 596.5272 116.3376 
Q 596.5272 111.9024 592.092 111.9024 
L 516.6936 111.9024 
Q 512.2584 111.9024 512.2584 116.3376 
L 512.2584 158.472 
Q 512.2584 162.9072 516.6936 162.9072 
z
" clip-path="url(#p5d8fec7bb7)" style="fill: #0a1620; opacity: 0.1"/>
   </g>
   <g id="patch_7">
    <path d="M 30.4848 159.0264 
L 105.8832 159.0264 
Q 110.3184 159.0264 110.3184 154.5912 
L 110.3184 118.0008 
Q 110.3184 113.5656 105.8832 113.5656 
L 30.4848 113.5656 
Q 26.0496 113.5656 26.0496 118.0008 
L 26.0496 154.5912 
Q 26.0496 159.0264 30.4848 159.0264 
z
" clip-path="url(#p5d8fec7bb7)" style="fill: #f6f3ed; stroke: #27445d; stroke-width: 1.5; stroke-linejoin: miter"/>
   </g>
   <g id="patch_8">
    <path d="M 146.9088 159.0264 
L 222.3072 159.0264 
Q 226.7424 159.0264 226.7424 154.5912 
L 226.7424 118.0008 
Q 226.7424 113.5656 222.3072 113.5656 
L 146.9088 113.5656 
Q 142.4736 113.5656 142.4736 118.0008 
L 142.4736 154.5912 
Q 142.4736 159.0264 146.9088 159.0264 
z
" clip-path="url(#p5d8fec7bb7)" style="fill: #dde6e9; stroke: #27445d; stroke-width: 1.5; stroke-linejoin: miter"/>
   </g>
   <g id="patch_9">
    <path d="M 263.3328 159.0264 
L 338.7312 159.0264 
Q 343.1664 159.0264 343.1664 154.5912 
L 343.1664 118.0008 
Q 343.1664 113.5656 338.7312 113.5656 
L 263.3328 113.5656 
Q 258.8976 113.5656 258.8976 118.0008 
L 258.8976 154.5912 
Q 258.8976 159.0264 263.3328 159.0264 
z
" clip-path="url(#p5d8fec7bb7)" style="fill: #fdf3d8; stroke: #b88a25; stroke-width: 1.5; stroke-linejoin: miter"/>
   </g>
   <g id="patch_10">
    <path d="M 379.7568 161.7984 
L 455.1552 161.7984 
Q 459.5904 161.7984 459.5904 157.3632 
L 459.5904 115.2288 
Q 459.5904 110.7936 455.1552 110.7936 
L 379.7568 110.7936 
Q 375.3216 110.7936 375.3216 115.2288 
L 375.3216 157.3632 
Q 375.3216 161.7984 379.7568 161.7984 
z
" clip-path="url(#p5d8fec7bb7)" style="fill: #fdf3d8; stroke: #b88a25; stroke-width: 1.5; stroke-linejoin: miter"/>
   </g>
   <g id="patch_11">
    <path d="M 515.5848 161.7984 
L 590.9832 161.7984 
Q 595.4184 161.7984 595.4184 157.3632 
L 595.4184 115.2288 
Q 595.4184 110.7936 590.9832 110.7936 
L 515.5848 110.7936 
Q 511.1496 110.7936 511.1496 115.2288 
L 511.1496 157.3632 
Q 511.1496 161.7984 515.5848 161.7984 
z
" clip-path="url(#p5d8fec7bb7)" style="fill: #eef1f3; stroke: #27445d; stroke-width: 1.5; stroke-linejoin: miter"/>
   </g>
   <g id="text_1">
    <!-- Labelled SMILES -->
    <g style="fill: #1f2c3a" transform="translate(12.902242 131.485921) scale(0.115 -0.115)">
     <defs>
      <path id="DejaVuSerif-Bold-4c" d="M 300 0 
L 300 378 
L 897 378 
L 897 4288 
L 300 4288 
L 300 4666 
L 2700 4666 
L 2700 4288 
L 2100 4288 
L 2100 428 
L 3938 428 
L 3938 1166 
L 4359 1166 
L 4359 0 
L 300 0 
z
" transform="scale(0.015625)"/>
      <path id="DejaVuSerif-Bold-61" d="M 3525 2041 
L 3525 378 
L 4000 378 
L 4000 0 
L 2419 0 
L 2419 422 
Q 2200 159 1931 34 
Q 1663 -91 1319 -91 
Q 809 -91 536 182 
Q 263 456 263 966 
Q 263 1525 655 1803 
Q 1047 2081 1838 2081 
L 2419 2081 
L 2419 2278 
Q 2419 2681 2228 2873 
Q 2038 3066 1638 3066 
Q 1306 3066 1126 2930 
Q 947 2794 872 2484 
L 519 2484 
L 519 3200 
Q 816 3306 1134 3359 
Q 1453 3413 1806 3413 
Q 2697 3413 3111 3081 
Q 3525 2750 3525 2041 
z
M 2419 1044 
L 2419 1709 
L 2003 1709 
Q 1694 1709 1528 1540 
Q 1363 1372 1363 1056 
Q 1363 741 1483 584 
Q 1603 428 1850 428 
Q 2106 428 2262 597 
Q 2419 766 2419 1044 
z
" transform="scale(0.015625)"/>
      <path id="DejaVuSerif-Bold-62" d="M 622 378 
L 622 4488 
L 147 4488 
L 147 4863 
L 1728 4863 
L 1728 2900 
Q 1869 3159 2106 3286 
Q 2344 3413 2694 3413 
Q 3403 3413 3811 2945 
Q 4219 2478 4219 1663 
Q 4219 847 3811 378 
Q 3403 -91 2694 -91 
Q 2344 -91 2106 36 
Q 1869 163 1728 422 
L 1728 0 
L 147 0 
L 147 378 
L 622 378 
z
M 1728 1497 
Q 1728 916 1876 656 
Q 2025 397 2356 397 
Q 2697 397 2836 672 
Q 2975 947 2975 1663 
Q 2975 2378 2836 2651 
Q 2697 2925 2356 2925 
Q 2025 2925 1876 2665 
Q 1728 2406 1728 1825 
L 1728 1497 
z
" transform="scale(0.015625)"/>
      <path id="DejaVuSerif-Bold-65" d="M 2566 1875 
Q 2566 2531 2444 2795 
Q 2322 3059 2028 3059 
Q 1744 3059 1620 2800 
Q 1497 2541 1497 1931 
L 1497 1875 
L 2566 1875 
z
M 3781 1503 
L 1497 1503 
L 1497 1478 
Q 1497 834 1690 548 
Q 1884 263 2316 263 
Q 2675 263 2897 453 
Q 3119 644 3181 1006 
L 3700 1006 
Q 3566 441 3166 175 
Q 2766 -91 2047 -91 
Q 1184 -91 723 364 
Q 263 819 263 1663 
Q 263 2488 734 2950 
Q 1206 3413 2047 3413 
Q 2872 3413 3312 2927 
Q 3753 2441 3781 1503 
z
" transform="scale(0.015625)"/>
      <path id="DejaVuSerif-Bold-6c" d="M 1797 378 
L 2272 378 
L 2272 0 
L 219 0 
L 219 378 
L 691 378 
L 691 4488 
L 219 4488 
L 219 4863 
L 1797 4863 
L 1797 378 
z
" transform="scale(0.015625)"/>
      <path id="DejaVuSerif-Bold-64" d="M 2747 1497 
L 2747 1825 
Q 2747 2406 2597 2665 
Q 2447 2925 2119 2925 
Q 1775 2925 1636 2651 
Q 1497 2378 1497 1663 
Q 1497 947 1637 672 
Q 1778 397 2119 397 
Q 2447 397 2597 656 
Q 2747 916 2747 1497 
z
M 3853 378 
L 4325 378 
L 4325 0 
L 2747 0 
L 2747 422 
Q 2606 163 2367 36 
Q 2128 -91 1778 -91 
Q 1072 -91 667 378 
Q 263 847 263 1663 
Q 263 2481 667 2947 
Q 1072 3413 1778 3413 
Q 2128 3413 2367 3286 
Q 2606 3159 2747 2900 
L 2747 4488 
L 2272 4488 
L 2272 4863 
L 3853 4863 
L 3853 378 
z
" transform="scale(0.015625)"/>
      <path id="DejaVuSerif-Bold-20" transform="scale(0.015625)"/>
      <path id="DejaVuSerif-Bold-53" d="M 494 225 
L 494 1331 
L 891 1331 
Q 981 806 1318 547 
Q 1656 288 2253 288 
Q 2738 288 2991 472 
Q 3244 656 3244 1013 
Q 3244 1294 3072 1450 
Q 2900 1606 2363 1741 
L 1663 1913 
Q 978 2088 700 2398 
Q 422 2709 422 3284 
Q 422 3978 883 4364 
Q 1344 4750 2175 4750 
Q 2584 4750 3026 4681 
Q 3469 4613 3944 4475 
L 3944 3444 
L 3547 3444 
Q 3456 3925 3150 4148 
Q 2844 4372 2278 4372 
Q 1816 4372 1580 4211 
Q 1344 4050 1344 3731 
Q 1344 3441 1506 3289 
Q 1669 3138 2303 2975 
L 3003 2803 
Q 3653 2641 3945 2297 
Q 4238 1953 4238 1350 
Q 4238 644 3750 276 
Q 3263 -91 2316 -91 
Q 1859 -91 1409 -12 
Q 959 66 494 225 
z
" transform="scale(0.015625)"/>
      <path id="DejaVuSerif-Bold-4d" d="M 269 0 
L 269 378 
L 863 378 
L 863 4288 
L 269 4288 
L 269 4666 
L 2194 4666 
L 3525 1672 
L 4863 4666 
L 6784 4666 
L 6784 4288 
L 6188 4288 
L 6188 378 
L 6784 378 
L 6784 0 
L 4384 0 
L 4384 378 
L 4978 378 
L 4978 3938 
L 3531 684 
L 2741 684 
L 1300 3938 
L 1300 378 
L 1894 378 
L 1894 0 
L 269 0 
z
" transform="scale(0.015625)"/>
      <path id="DejaVuSerif-Bold-49" d="M 300 0 
L 300 378 
L 897 378 
L 897 4288 
L 300 4288 
L 300 4666 
L 2700 4666 
L 2700 4288 
L 2100 4288 
L 2100 378 
L 2700 378 
L 2700 0 
L 300 0 
z
" transform="scale(0.015625)"/>
      <path id="DejaVuSerif-Bold-45" d="M 300 0 
L 300 378 
L 897 378 
L 897 4288 
L 300 4288 
L 300 4666 
L 4494 4666 
L 4494 3566 
L 4063 3566 
L 4063 4238 
L 2100 4238 
L 2100 2741 
L 3322 2741 
L 3322 3334 
L 3750 3334 
L 3750 1722 
L 3322 1722 
L 3322 2316 
L 2100 2316 
L 2100 428 
L 4122 428 
L 4122 1100 
L 4550 1100 
L 4550 0 
L 300 0 
z
" transform="scale(0.015625)"/>
     </defs>
     <use xlink:href="#DejaVuSerif-Bold-4c"/>
     <use xlink:href="#DejaVuSerif-Bold-61" transform="translate(70.3125 0)"/>
     <use xlink:href="#DejaVuSerif-Bold-62" transform="translate(135.107422 0)"/>
     <use xlink:href="#DejaVuSerif-Bold-65" transform="translate(205.029297 0)"/>
     <use xlink:href="#DejaVuSerif-Bold-6c" transform="translate(268.652344 0)"/>
     <use xlink:href="#DejaVuSerif-Bold-6c" transform="translate(306.640625 0)"/>
     <use xlink:href="#DejaVuSerif-Bold-65" transform="translate(344.628906 0)"/>
     <use xlink:href="#DejaVuSerif-Bold-64" transform="translate(408.251953 0)"/>
     <use xlink:href="#DejaVuSerif-Bold-20" transform="translate(478.173828 0)"/>
     <use xlink:href="#DejaVuSerif-Bold-53" transform="translate(512.988281 0)"/>
     <use xlink:href="#DejaVuSerif-Bold-4d" transform="translate(585.205078 0)"/>
     <use xlink:href="#DejaVuSerif-Bold-49" transform="translate(695.898438 0)"/>
     <use xlink:href="#DejaVuSerif-Bold-4c" transform="translate(742.675781 0)"/>
     <use xlink:href="#DejaVuSerif-Bold-45" transform="translate(812.988281 0)"/>
     <use xlink:href="#DejaVuSerif-Bold-53" transform="translate(889.208984 0)"/>
    </g>
   </g>
   <g id="text_2">
    <!-- energetics corpus, 326k -->
    <g style="fill: #5a6a7a" transform="translate(13.112437 148.472893) scale(0.09 -0.09)">
     <defs>
      <path id="DejaVuSerif-Italic-65" d="M 938 1275 
Q 925 1156 925 1050 
Q 925 756 1031 563 
Q 1216 219 1709 219 
Q 2072 219 2250 328 
Q 2569 525 2644 778 
L 3066 778 
Q 2941 381 2475 103 
Q 2150 -91 1506 -91 
Q 863 -91 516 388 
Q 272 722 272 1206 
Q 272 1419 319 1659 
Q 472 2450 1000 2931 
Q 1528 3413 2278 3413 
Q 3500 3413 3500 2547 
Q 3500 1913 2859 1603 
Q 2206 1288 938 1275 
z
M 2541 1975 
Q 2891 2181 2891 2569 
Q 2891 3103 2181 3103 
Q 1763 3103 1472 2784 
Q 1181 2466 1003 1606 
Q 2006 1653 2541 1975 
z
" transform="scale(0.015625)"/>
      <path id="DejaVuSerif-Italic-6e" d="M 450 0 
L 1031 2988 
L 481 2988 
L 544 3322 
L 1669 3322 
L 1556 2731 
Q 1781 3069 2068 3241 
Q 2356 3413 2694 3413 
Q 3244 3413 3444 3097 
Q 3563 2906 3563 2588 
Q 3563 2378 3509 2113 
L 3163 331 
L 3675 331 
L 3613 0 
L 2522 0 
L 2897 1931 
Q 2959 2253 2959 2469 
Q 2959 2659 2909 2769 
Q 2803 2994 2425 2994 
Q 2025 2994 1759 2701 
Q 1494 2409 1384 1850 
L 1025 0 
L 450 0 
z
" transform="scale(0.015625)"/>
      <path id="DejaVuSerif-Italic-72" d="M 3375 3328 
L 3213 2497 
L 2881 2497 
Q 2891 2559 2891 2613 
Q 2891 2775 2816 2866 
Q 2719 2988 2484 2988 
Q 2059 2988 1775 2694 
Q 1491 2400 1384 1850 
L 1025 0 
L 450 0 
L 1031 2994 
L 481 2994 
L 544 3322 
L 1669 3322 
L 1556 2731 
Q 1791 3078 2089 3245 
Q 2388 3413 2769 3413 
Q 2909 3413 3059 3391 
Q 3209 3369 3375 3328 
z
" transform="scale(0.015625)"/>
      <path id="DejaVuSerif-Italic-67" d="M 3822 3322 
L 3188 72 
Q 3044 -672 2581 -1031 
Q 2078 -1422 1381 -1422 
Q 1053 -1422 765 -1362 
Q 478 -1303 225 -1184 
L 363 -488 
L 663 -488 
Q 653 -813 834 -963 
Q 1016 -1113 1406 -1113 
Q 1913 -1113 2203 -825 
Q 2494 -544 2613 72 
L 2700 519 
Q 2472 206 2181 57 
Q 1891 -91 1525 -91 
Q 975 -91 697 281 
Q 522 516 503 841 
Q 491 1031 534 1256 
Q 750 2359 1516 2928 
Q 2169 3409 2931 3413 
Q 3631 3416 3822 3322 
z
M 3184 2988 
Q 3181 3094 2844 3094 
Q 2234 3094 1775 2625 
Q 1316 2153 1147 1297 
Q 1100 1044 1113 853 
Q 1125 659 1203 528 
Q 1356 269 1756 269 
Q 2194 269 2484 583 
Q 2775 897 2891 1497 
L 2953 1825 
L 3184 2988 
z
" transform="scale(0.015625)"/>
      <path id="DejaVuSerif-Italic-74" d="M 856 2988 
L 350 2988 
L 416 3322 
L 922 3322 
L 1122 4353 
L 1700 4353 
L 1500 3322 
L 2581 3322 
L 2516 2988 
L 1434 2988 
L 1025 878 
Q 978 631 978 488 
Q 978 388 1000 338 
Q 1059 219 1278 219 
Q 1503 219 1633 351 
Q 1763 484 1825 781 
L 2259 781 
Q 2147 328 1884 118 
Q 1622 -91 1169 -91 
Q 672 -91 506 131 
Q 406 266 406 516 
Q 406 675 447 878 
L 856 2988 
z
" transform="scale(0.015625)"/>
      <path id="DejaVuSerif-Italic-69" d="M 1009 4353 
Q 1038 4497 1163 4603 
Q 1288 4709 1434 4709 
Q 1578 4709 1663 4603 
Q 1728 4522 1728 4422 
Q 1728 4388 1719 4353 
Q 1691 4206 1567 4103 
Q 1444 4000 1297 4000 
Q 1150 4000 1066 4103 
Q 1003 4181 1003 4281 
Q 1003 4316 1009 4353 
z
M 963 331 
L 1506 331 
L 1444 0 
L 325 0 
L 903 2988 
L 353 2988 
L 419 3322 
L 1544 3322 
L 963 331 
z
" transform="scale(0.015625)"/>
      <path id="DejaVuSerif-Italic-63" d="M 3163 997 
Q 2938 466 2536 187 
Q 2134 -91 1584 -91 
Q 859 -91 513 388 
Q 272 722 272 1203 
Q 272 1419 319 1663 
Q 475 2459 1008 2936 
Q 1541 3413 2266 3413 
Q 2581 3413 2879 3339 
Q 3178 3266 3463 3116 
L 3300 2266 
L 2966 2266 
Q 2966 2309 2966 2347 
Q 2966 2722 2803 2903 
Q 2622 3103 2213 3103 
Q 1747 3103 1439 2742 
Q 1131 2381 991 1663 
Q 928 1334 928 1078 
Q 928 778 1016 581 
Q 1181 219 1650 219 
Q 2022 219 2281 412 
Q 2541 606 2700 997 
L 3163 997 
z
" transform="scale(0.015625)"/>
      <path id="DejaVuSerif-Italic-73" d="M 222 959 
L 553 959 
Q 541 869 541 788 
Q 541 219 1313 219 
Q 2088 219 2200 788 
Q 2209 844 2209 944 
Q 2209 1041 2103 1158 
Q 1997 1275 1550 1428 
L 1159 1569 
Q 759 1706 629 1882 
Q 500 2059 500 2263 
Q 500 2344 516 2438 
Q 606 2894 990 3153 
Q 1375 3413 1931 3413 
Q 2484 3413 3066 3144 
L 2925 2419 
L 2594 2419 
Q 2606 2491 2606 2553 
Q 2606 2781 2448 2942 
Q 2291 3103 1925 3103 
Q 1191 3103 1091 2591 
Q 1078 2538 1078 2444 
Q 1078 2347 1179 2237 
Q 1281 2128 1678 1997 
L 2106 1856 
Q 2550 1709 2716 1488 
Q 2831 1331 2831 1178 
Q 2831 522 2306 181 
Q 1894 -91 1262 -91 
Q 631 -91 72 184 
L 222 959 
z
" transform="scale(0.015625)"/>
      <path id="DejaVuSerif-Italic-20" transform="scale(0.015625)"/>
      <path id="DejaVuSerif-Italic-6f" d="M 1644 219 
Q 2106 219 2414 584 
Q 2722 950 2859 1663 
Q 2922 1988 2922 2241 
Q 2922 2541 2834 2738 
Q 2669 3103 2206 3103 
Q 1744 3103 1436 2739 
Q 1128 2375 991 1663 
Q 928 1338 928 1088 
Q 928 784 1019 584 
Q 1184 219 1644 219 
z
M 1584 -91 
Q 859 -91 513 388 
Q 272 722 272 1203 
Q 272 1419 319 1663 
Q 472 2456 1005 2934 
Q 1538 3413 2266 3413 
Q 2994 3413 3341 2934 
Q 3578 2603 3578 2122 
Q 3578 1906 3531 1663 
Q 3378 869 2845 389 
Q 2313 -91 1584 -91 
z
" transform="scale(0.015625)"/>
      <path id="DejaVuSerif-Italic-70" d="M 1466 1825 
L 1400 1497 
Q 1353 1250 1353 1053 
Q 1353 769 1453 581 
Q 1622 269 2059 269 
Q 2500 269 2795 622 
Q 3091 975 3225 1663 
Q 3284 1978 3284 2225 
Q 3284 2513 3200 2703 
Q 3041 3053 2600 3053 
Q 2163 3053 1872 2737 
Q 1581 2422 1466 1825 
z
M 1116 2988 
L 563 2988 
L 628 3322 
L 1756 3322 
L 1656 2803 
Q 1884 3116 2175 3264 
Q 2466 3413 2850 3413 
Q 3463 3413 3753 2928 
Q 3947 2609 3947 2163 
Q 3947 1928 3897 1663 
Q 3744 881 3262 395 
Q 2781 -91 2169 -91 
Q 1784 -91 1551 57 
Q 1319 206 1213 519 
L 850 -1331 
L 275 -1331 
L 1116 2988 
z
" transform="scale(0.015625)"/>
      <path id="DejaVuSerif-Italic-75" d="M 3097 3322 
L 3672 3322 
L 3091 331 
L 3634 331 
L 3572 0 
L 2453 0 
L 2566 588 
Q 2341 256 2055 82 
Q 1769 -91 1434 -91 
Q 881 -91 681 225 
Q 559 413 559 734 
Q 559 944 613 1209 
L 956 2988 
L 438 2988 
L 503 3322 
L 1600 3322 
L 1225 1388 
Q 1163 1066 1163 853 
Q 1163 663 1213 556 
Q 1316 331 1697 331 
Q 2097 331 2364 625 
Q 2631 919 2738 1478 
L 3097 3322 
z
" transform="scale(0.015625)"/>
      <path id="DejaVuSerif-Italic-2c" d="M 125 -622 
Q 463 -406 656 -114 
Q 850 178 931 594 
L 953 709 
L 1569 709 
Q 1441 175 1139 -208 
Q 838 -591 328 -872 
L 125 -622 
z
" transform="scale(0.015625)"/>
      <path id="DejaVuSerif-Italic-33" d="M 1038 4469 
Q 1431 4606 1781 4678 
Q 2131 4750 2425 4750 
Q 3109 4750 3436 4454 
Q 3763 4159 3659 3634 
Q 3578 3213 3258 2930 
Q 2938 2647 2431 2547 
Q 2988 2466 3241 2130 
Q 3494 1794 3388 1259 
Q 3263 606 2755 257 
Q 2247 -91 1422 -91 
Q 1056 -91 723 -12 
Q 391 66 78 225 
L 253 1131 
L 603 1131 
Q 547 681 775 450 
Q 1003 219 1497 219 
Q 1975 219 2304 495 
Q 2634 772 2728 1253 
Q 2834 1803 2604 2086 
Q 2375 2369 1825 2369 
L 1528 2369 
L 1591 2688 
L 1747 2688 
Q 2294 2688 2611 2914 
Q 2928 3141 3019 3597 
Q 3097 4006 2914 4223 
Q 2731 4441 2309 4441 
Q 1888 4441 1616 4241 
Q 1344 4041 1228 3647 
L 878 3647 
L 1038 4469 
z
" transform="scale(0.015625)"/>
      <path id="DejaVuSerif-Italic-32" d="M 1050 3553 
L 700 3553 
L 863 4384 
Q 1231 4563 1589 4656 
Q 1947 4750 2272 4750 
Q 3000 4750 3353 4397 
Q 3706 4044 3588 3438 
Q 3456 2753 2313 1800 
Q 2225 1728 2178 1691 
L 772 513 
L 2719 513 
L 2831 1088 
L 3197 1088 
L 2984 0 
L -25 0 
L 41 341 
L 1731 1753 
Q 2291 2222 2567 2614 
Q 2844 3006 2928 3438 
Q 3019 3909 2825 4175 
Q 2631 4441 2200 4441 
Q 1753 4441 1467 4219 
Q 1181 3997 1050 3553 
z
" transform="scale(0.015625)"/>
      <path id="DejaVuSerif-Italic-36" d="M 1070 553 
Q 1244 219 1684 219 
Q 2125 219 2425 542 
Q 2725 866 2842 1472 
Q 2959 2078 2786 2401 
Q 2613 2725 2172 2725 
Q 1725 2725 1429 2412 
Q 1134 2100 1019 1509 
Q 897 888 1070 553 
z
M 1122 2569 
Q 1378 2803 1670 2918 
Q 1963 3034 2300 3034 
Q 2997 3034 3320 2615 
Q 3644 2197 3503 1472 
Q 3366 763 2845 336 
Q 2325 -91 1597 -91 
Q 806 -91 497 498 
Q 188 1088 400 2181 
Q 638 3406 1272 4078 
Q 1906 4750 2822 4750 
Q 3069 4750 3331 4703 
Q 3594 4656 3859 4563 
L 3709 3794 
L 3356 3794 
Q 3381 4109 3209 4275 
Q 3038 4441 2694 4441 
Q 2088 4441 1702 3981 
Q 1316 3522 1122 2569 
z
" transform="scale(0.015625)"/>
      <path id="DejaVuSerif-Italic-6b" d="M 2113 2075 
L 3034 331 
L 3513 331 
L 3450 0 
L 2528 0 
L 1622 1697 
L 1088 1275 
L 841 0 
L 266 0 
L 1147 4531 
L 594 4531 
L 656 4863 
L 1784 4863 
L 1169 1697 
L 2822 2988 
L 2344 2988 
L 2406 3322 
L 3341 3322 
L 3278 2988 
L 2113 2075 
z
" transform="scale(0.015625)"/>
     </defs>
     <use xlink:href="#DejaVuSerif-Italic-65"/>
     <use xlink:href="#DejaVuSerif-Italic-6e" transform="translate(59.179688 0)"/>
     <use xlink:href="#DejaVuSerif-Italic-65" transform="translate(123.583984 0)"/>
     <use xlink:href="#DejaVuSerif-Italic-72" transform="translate(182.763672 0)"/>
     <use xlink:href="#DejaVuSerif-Italic-67" transform="translate(230.566406 0)"/>
     <use xlink:href="#DejaVuSerif-Italic-65" transform="translate(294.580078 0)"/>
     <use xlink:href="#DejaVuSerif-Italic-74" transform="translate(353.759766 0)"/>
     <use xlink:href="#DejaVuSerif-Italic-69" transform="translate(393.945312 0)"/>
     <use xlink:href="#DejaVuSerif-Italic-63" transform="translate(425.927734 0)"/>
     <use xlink:href="#DejaVuSerif-Italic-73" transform="translate(481.933594 0)"/>
     <use xlink:href="#DejaVuSerif-Italic-20" transform="translate(533.251953 0)"/>
     <use xlink:href="#DejaVuSerif-Italic-63" transform="translate(565.039062 0)"/>
     <use xlink:href="#DejaVuSerif-Italic-6f" transform="translate(621.044922 0)"/>
     <use xlink:href="#DejaVuSerif-Italic-72" transform="translate(681.25 0)"/>
     <use xlink:href="#DejaVuSerif-Italic-70" transform="translate(729.052734 0)"/>
     <use xlink:href="#DejaVuSerif-Italic-75" transform="translate(793.066406 0)"/>
     <use xlink:href="#DejaVuSerif-Italic-73" transform="translate(857.470703 0)"/>
     <use xlink:href="#DejaVuSerif-Italic-2c" transform="translate(908.789062 0)"/>
     <use xlink:href="#DejaVuSerif-Italic-20" transform="translate(940.576172 0)"/>
     <use xlink:href="#DejaVuSerif-Italic-33" transform="translate(972.363281 0)"/>
     <use xlink:href="#DejaVuSerif-Italic-32" transform="translate(1035.986328 0)"/>
     <use xlink:href="#DejaVuSerif-Italic-36" transform="translate(1099.609375 0)"/>
     <use xlink:href="#DejaVuSerif-Italic-6b" transform="translate(1163.232422 0)"/>
    </g>
   </g>
   <g id="text_3">
    <!-- LIMO encoder -->
    <g style="fill: #1f2c3a" transform="translate(138.616086 131.485921) scale(0.115 -0.115)">
     <defs>
      <path id="DejaVuSerif-Bold-4f" d="M 2784 288 
Q 3381 288 3672 791 
Q 3963 1294 3963 2328 
Q 3963 3366 3672 3869 
Q 3381 4372 2784 4372 
Q 2191 4372 1898 3864 
Q 1606 3356 1606 2328 
Q 1606 1303 1898 795 
Q 2191 288 2784 288 
z
M 2784 -91 
Q 1606 -91 937 553 
Q 269 1197 269 2328 
Q 269 3459 939 4104 
Q 1609 4750 2784 4750 
Q 3963 4750 4631 4106 
Q 5300 3463 5300 2328 
Q 5300 1197 4629 553 
Q 3959 -91 2784 -91 
z
" transform="scale(0.015625)"/>
      <path id="DejaVuSerif-Bold-6e" d="M 219 0 
L 219 378 
L 691 378 
L 691 2944 
L 219 2944 
L 219 3322 
L 1797 3322 
L 1797 2853 
Q 1997 3150 2253 3281 
Q 2509 3413 2900 3413 
Q 3459 3413 3745 3083 
Q 4031 2753 4031 2113 
L 4031 378 
L 4506 378 
L 4506 0 
L 2522 0 
L 2522 378 
L 2925 378 
L 2925 2144 
Q 2925 2566 2817 2730 
Q 2709 2894 2444 2894 
Q 2109 2894 1953 2648 
Q 1797 2403 1797 1869 
L 1797 378 
L 2203 378 
L 2203 0 
L 219 0 
z
" transform="scale(0.015625)"/>
      <path id="DejaVuSerif-Bold-63" d="M 3609 1038 
Q 3491 469 3123 189 
Q 2756 -91 2125 -91 
Q 1238 -91 750 368 
Q 263 828 263 1663 
Q 263 2488 744 2950 
Q 1225 3413 2081 3413 
Q 2428 3413 2781 3347 
Q 3134 3281 3500 3150 
L 3500 2228 
L 3150 2228 
Q 3100 2650 2903 2854 
Q 2706 3059 2350 3059 
Q 1888 3059 1692 2746 
Q 1497 2434 1497 1663 
Q 1497 909 1687 586 
Q 1878 263 2309 263 
Q 2644 263 2845 463 
Q 3047 663 3091 1038 
L 3609 1038 
z
" transform="scale(0.015625)"/>
      <path id="DejaVuSerif-Bold-6f" d="M 2138 263 
Q 2488 263 2630 563 
Q 2772 863 2772 1663 
Q 2772 2463 2631 2761 
Q 2491 3059 2138 3059 
Q 1784 3059 1640 2757 
Q 1497 2456 1497 1663 
Q 1497 869 1640 566 
Q 1784 263 2138 263 
z
M 2138 -91 
Q 1259 -91 761 376 
Q 263 844 263 1663 
Q 263 2484 761 2948 
Q 1259 3413 2138 3413 
Q 3019 3413 3516 2948 
Q 4013 2484 4013 1663 
Q 4013 844 3514 376 
Q 3016 -91 2138 -91 
z
" transform="scale(0.015625)"/>
      <path id="DejaVuSerif-Bold-72" d="M 3438 3359 
L 3438 2369 
L 3084 2369 
Q 3066 2634 2941 2764 
Q 2816 2894 2578 2894 
Q 2216 2894 2006 2575 
Q 1797 2256 1797 1691 
L 1797 378 
L 2400 378 
L 2400 0 
L 219 0 
L 219 378 
L 691 378 
L 691 2944 
L 184 2944 
L 184 3322 
L 1797 3322 
L 1797 2731 
Q 1959 3078 2226 3245 
Q 2494 3413 2881 3413 
Q 2978 3413 3117 3398 
Q 3256 3384 3438 3359 
z
" transform="scale(0.015625)"/>
     </defs>
     <use xlink:href="#DejaVuSerif-Bold-4c"/>
     <use xlink:href="#DejaVuSerif-Bold-49" transform="translate(70.3125 0)"/>
     <use xlink:href="#DejaVuSerif-Bold-4d" transform="translate(117.089844 0)"/>
     <use xlink:href="#DejaVuSerif-Bold-4f" transform="translate(227.783203 0)"/>
     <use xlink:href="#DejaVuSerif-Bold-20" transform="translate(314.892578 0)"/>
     <use xlink:href="#DejaVuSerif-Bold-65" transform="translate(349.707031 0)"/>
     <use xlink:href="#DejaVuSerif-Bold-6e" transform="translate(413.330078 0)"/>
     <use xlink:href="#DejaVuSerif-Bold-63" transform="translate(486.035156 0)"/>
     <use xlink:href="#DejaVuSerif-Bold-6f" transform="translate(546.923828 0)"/>
     <use xlink:href="#DejaVuSerif-Bold-64" transform="translate(613.623047 0)"/>
     <use xlink:href="#DejaVuSerif-Bold-65" transform="translate(683.544922 0)"/>
     <use xlink:href="#DejaVuSerif-Bold-72" transform="translate(747.167969 0)"/>
    </g>
   </g>
   <g id="text_4">
    <!-- frozen, fine-tuned -->
    <g style="fill: #5a6a7a" transform="translate(143.952609 148.536878) scale(0.09 -0.09)">
     <defs>
      <path id="DejaVuSerif-Italic-66" d="M 3191 4078 
L 2888 4078 
Q 2900 4144 2900 4203 
Q 2900 4347 2825 4434 
Q 2719 4556 2472 4556 
Q 2150 4556 1984 4379 
Q 1819 4203 1731 3750 
L 1647 3322 
L 2575 3322 
L 2509 2988 
L 1581 2988 
L 963 -206 
Q 853 -763 509 -1047 
Q 166 -1331 -394 -1331 
L -356 -1025 
Q -28 -1025 131 -850 
Q 297 -663 388 -206 
L 1006 2988 
L 456 2988 
L 522 3322 
L 1072 3322 
L 1153 3738 
Q 1263 4297 1606 4578 
Q 1950 4863 2509 4863 
Q 2719 4863 2920 4825 
Q 3122 4788 3316 4709 
L 3191 4078 
z
" transform="scale(0.015625)"/>
      <path id="DejaVuSerif-Italic-7a" d="M 2550 3047 
Q 2888 3047 3216 3322 
L 3403 3322 
L 3353 3053 
L 1081 684 
Q 1113 675 1203 647 
Q 1309 613 1416 544 
L 1569 450 
Q 1863 272 2075 272 
Q 2484 272 2966 741 
L 2891 363 
Q 2356 -163 1950 -163 
Q 1703 -156 1356 59 
Q 1009 275 791 275 
Q 453 275 125 0 
L -63 0 
L -13 269 
L 2263 2634 
Q 2228 2647 2138 2675 
Q 2031 2709 1925 2778 
L 1772 2872 
Q 1478 3050 1266 3050 
Q 856 3050 375 2581 
L 450 2959 
Q 984 3484 1391 3484 
Q 1638 3478 1984 3262 
Q 2331 3047 2550 3047 
z
" transform="scale(0.015625)"/>
      <path id="DejaVuSerif-Italic-2d" d="M 328 1959 
L 1928 1959 
L 1834 1472 
L 234 1472 
L 328 1959 
z
" transform="scale(0.015625)"/>
      <path id="DejaVuSerif-Italic-64" d="M 3841 4863 
L 2897 0 
L 2322 0 
L 2422 519 
Q 2191 206 1902 57 
Q 1613 -91 1228 -91 
Q 616 -91 322 394 
Q 125 716 125 1166 
Q 125 1397 178 1663 
Q 331 2444 812 2928 
Q 1294 3413 1909 3413 
Q 2294 3413 2525 3264 
Q 2756 3116 2866 2803 
L 3200 4531 
L 2656 4531 
L 2722 4863 
L 3841 4863 
z
M 2613 1497 
L 2675 1825 
Q 2722 2069 2722 2266 
Q 2722 2550 2622 2738 
Q 2456 3053 2019 3053 
Q 1575 3053 1279 2703 
Q 984 2353 850 1663 
Q 788 1347 788 1103 
Q 788 813 875 622 
Q 1031 269 1475 269 
Q 1913 269 2203 583 
Q 2494 897 2613 1497 
z
" transform="scale(0.015625)"/>
     </defs>
     <use xlink:href="#DejaVuSerif-Italic-66"/>
     <use xlink:href="#DejaVuSerif-Italic-72" transform="translate(37.011719 0)"/>
     <use xlink:href="#DejaVuSerif-Italic-6f" transform="translate(84.814453 0)"/>
     <use xlink:href="#DejaVuSerif-Italic-7a" transform="translate(145.019531 0)"/>
     <use xlink:href="#DejaVuSerif-Italic-65" transform="translate(197.705078 0)"/>
     <use xlink:href="#DejaVuSerif-Italic-6e" transform="translate(256.884766 0)"/>
     <use xlink:href="#DejaVuSerif-Italic-2c" transform="translate(321.289062 0)"/>
     <use xlink:href="#DejaVuSerif-Italic-20" transform="translate(353.076172 0)"/>
     <use xlink:href="#DejaVuSerif-Italic-66" transform="translate(384.863281 0)"/>
     <use xlink:href="#DejaVuSerif-Italic-69" transform="translate(421.875 0)"/>
     <use xlink:href="#DejaVuSerif-Italic-6e" transform="translate(453.857422 0)"/>
     <use xlink:href="#DejaVuSerif-Italic-65" transform="translate(518.261719 0)"/>
     <use xlink:href="#DejaVuSerif-Italic-2d" transform="translate(577.441406 0)"/>
     <use xlink:href="#DejaVuSerif-Italic-74" transform="translate(611.230469 0)"/>
     <use xlink:href="#DejaVuSerif-Italic-75" transform="translate(651.416016 0)"/>
     <use xlink:href="#DejaVuSerif-Italic-6e" transform="translate(715.820312 0)"/>
     <use xlink:href="#DejaVuSerif-Italic-65" transform="translate(780.224609 0)"/>
     <use xlink:href="#DejaVuSerif-Italic-64" transform="translate(839.404297 0)"/>
    </g>
   </g>
   <g id="text_5">
    <!-- latent $z_0$ -->
    <g style="fill: #1f2c3a" transform="translate(274.1795 131.485921) scale(0.115 -0.115)">
     <defs>
      <path id="DejaVuSerif-Bold-74" d="M 634 2944 
L 153 2944 
L 153 3322 
L 634 3322 
L 634 4353 
L 1741 4353 
L 1741 3322 
L 2663 3322 
L 2663 2944 
L 1741 2944 
L 1741 909 
Q 1741 475 1809 369 
Q 1878 263 2059 263 
Q 2259 263 2356 397 
Q 2453 531 2459 813 
L 2925 813 
Q 2897 313 2651 111 
Q 2406 -91 1806 -91 
Q 1122 -91 878 123 
Q 634 338 634 909 
L 634 2944 
z
" transform="scale(0.015625)"/>
      <path id="DejaVuSans-Oblique-7a" d="M 744 3500 
L 3475 3500 
L 3372 2975 
L 738 459 
L 2913 459 
L 2822 0 
L -19 0 
L 84 525 
L 2719 3041 
L 653 3041 
L 744 3500 
z
" transform="scale(0.015625)"/>
      <path id="DejaVuSans-30" d="M 2034 4250 
Q 1547 4250 1301 3770 
Q 1056 3291 1056 2328 
Q 1056 1369 1301 889 
Q 1547 409 2034 409 
Q 2525 409 2770 889 
Q 3016 1369 3016 2328 
Q 3016 3291 2770 3770 
Q 2525 4250 2034 4250 
z
M 2034 4750 
Q 2819 4750 3233 4129 
Q 3647 3509 3647 2328 
Q 3647 1150 3233 529 
Q 2819 -91 2034 -91 
Q 1250 -91 836 529 
Q 422 1150 422 2328 
Q 422 3509 836 4129 
Q 1250 4750 2034 4750 
z
" transform="scale(0.015625)"/>
     </defs>
     <use xlink:href="#DejaVuSerif-Bold-6c" transform="translate(0 0.015625)"/>
     <use xlink:href="#DejaVuSerif-Bold-61" transform="translate(37.988281 0.015625)"/>
     <use xlink:href="#DejaVuSerif-Bold-74" transform="translate(102.783203 0.015625)"/>
     <use xlink:href="#DejaVuSerif-Bold-65" transform="translate(148.974609 0.015625)"/>
     <use xlink:href="#DejaVuSerif-Bold-6e" transform="translate(212.597656 0.015625)"/>
     <use xlink:href="#DejaVuSerif-Bold-74" transform="translate(285.302734 0.015625)"/>
     <use xlink:href="#DejaVuSerif-Bold-20" transform="translate(331.494141 0.015625)"/>
     <use xlink:href="#DejaVuSans-Oblique-7a" transform="translate(366.308594 0.015625)"/>
     <use xlink:href="#DejaVuSans-30" transform="translate(418.798828 -16.390625) scale(0.7)"/>
    </g>
   </g>
   <g id="text_6">
    <!-- deterministic $\mu \in \mathbb{R}^{1024}$ -->
    <g style="fill: #5a6a7a" transform="translate(249.237 149.20344) scale(0.09 -0.09)">
     <defs>
      <path id="DejaVuSerif-Italic-6d" d="M 3503 2675 
Q 3741 3041 4034 3227 
Q 4328 3413 4672 3413 
Q 5194 3413 5388 3088 
Q 5503 2894 5503 2578 
Q 5503 2372 5453 2113 
L 5106 331 
L 5625 331 
L 5563 0 
L 4469 0 
L 4866 2047 
Q 4913 2291 4913 2466 
Q 4913 2659 4856 2772 
Q 4750 2988 4403 2988 
Q 4019 2988 3761 2697 
Q 3503 2406 3394 1850 
L 3034 0 
L 2459 0 
L 2863 2069 
Q 2906 2303 2906 2472 
Q 2906 2666 2850 2775 
Q 2741 2988 2394 2988 
Q 2009 2988 1751 2697 
Q 1494 2406 1384 1850 
L 1025 0 
L 450 0 
L 1031 2994 
L 481 2994 
L 544 3322 
L 1669 3322 
L 1556 2731 
Q 1778 3063 2059 3238 
Q 2341 3413 2653 3413 
Q 3041 3413 3262 3220 
Q 3484 3028 3503 2675 
z
" transform="scale(0.015625)"/>
      <path id="DejaVuSans-Oblique-3bc" d="M -84 -1331 
L 856 3500 
L 1434 3500 
L 1009 1322 
Q 997 1256 987 1175 
Q 978 1094 978 1013 
Q 978 722 1161 565 
Q 1344 409 1684 409 
Q 2147 409 2431 671 
Q 2716 934 2816 1459 
L 3213 3500 
L 3788 3500 
L 3266 809 
Q 3253 750 3248 706 
Q 3244 663 3244 628 
Q 3244 531 3283 486 
Q 3322 441 3406 441 
Q 3438 441 3492 456 
Q 3547 472 3647 513 
L 3559 50 
Q 3422 -19 3297 -55 
Q 3172 -91 3053 -91 
Q 2847 -91 2730 40 
Q 2613 172 2613 403 
Q 2438 153 2195 31 
Q 1953 -91 1625 -91 
Q 1334 -91 1117 43 
Q 900 178 831 397 
L 494 -1331 
L -84 -1331 
z
" transform="scale(0.015625)"/>
      <path id="DejaVuSans-2208" d="M 1072 1959 
Q 1094 1728 1291 1353 
Q 1522 919 1959 675 
Q 2388 438 2850 434 
L 5028 434 
L 5028 -63 
L 2850 -63 
Q 2250 -63 1695 246 
Q 1141 556 844 1106 
Q 547 1656 547 2241 
Q 547 2819 844 3369 
Q 1141 3919 1695 4231 
Q 2250 4544 2850 4544 
L 5028 4544 
L 5028 4047 
L 2850 4047 
Q 2388 4044 1959 3803 
Q 1525 3556 1291 3125 
Q 1091 2750 1063 2459 
L 5028 2459 
L 5028 1959 
L 1072 1959 
z
" transform="scale(0.015625)"/>
      <path id="STIXGeneral-Italic-211d" d="M 1229 4179 
L 3360 4179 
Q 3827 4179 4108 3894 
Q 4390 3610 4390 3142 
Q 4390 2554 4060 2186 
Q 3731 1818 3149 1715 
L 4026 0 
L 2925 0 
L 2125 1690 
L 1549 1690 
L 1094 0 
L 109 0 
L 1229 4179 
z
M 3866 3821 
L 3392 2022 
Q 3770 2144 3962 2438 
Q 4154 2733 4154 3136 
Q 4154 3584 3866 3821 
z
M 3142 1978 
L 3648 3872 
Q 3450 3942 3296 3942 
L 2150 3942 
L 1613 1926 
L 2630 1926 
Q 2957 1926 3142 1978 
z
M 3629 237 
L 2899 1696 
Q 2829 1683 2682 1683 
Q 2630 1683 2531 1686 
Q 2432 1690 2387 1690 
L 3072 237 
L 3629 237 
z
M 1907 3942 
L 1408 3942 
L 416 237 
L 915 237 
L 1907 3942 
z
" transform="scale(0.015625)"/>
      <path id="DejaVuSans-31" d="M 794 531 
L 1825 531 
L 1825 4091 
L 703 3866 
L 703 4441 
L 1819 4666 
L 2450 4666 
L 2450 531 
L 3481 531 
L 3481 0 
L 794 0 
L 794 531 
z
" transform="scale(0.015625)"/>
      <path id="DejaVuSans-32" d="M 1228 531 
L 3431 531 
L 3431 0 
L 469 0 
L 469 531 
Q 828 903 1448 1529 
Q 2069 2156 2228 2338 
Q 2531 2678 2651 2914 
Q 2772 3150 2772 3378 
Q 2772 3750 2511 3984 
Q 2250 4219 1831 4219 
Q 1534 4219 1204 4116 
Q 875 4013 500 3803 
L 500 4441 
Q 881 4594 1212 4672 
Q 1544 4750 1819 4750 
Q 2544 4750 2975 4387 
Q 3406 4025 3406 3419 
Q 3406 3131 3298 2873 
Q 3191 2616 2906 2266 
Q 2828 2175 2409 1742 
Q 1991 1309 1228 531 
z
" transform="scale(0.015625)"/>
      <path id="DejaVuSans-34" d="M 2419 4116 
L 825 1625 
L 2419 1625 
L 2419 4116 
z
M 2253 4666 
L 3047 4666 
L 3047 1625 
L 3713 1625 
L 3713 1100 
L 3047 1100 
L 3047 0 
L 2419 0 
L 2419 1100 
L 313 1100 
L 313 1709 
L 2253 4666 
z
" transform="scale(0.015625)"/>
     </defs>
     <use xlink:href="#DejaVuSerif-Italic-64" transform="translate(0 0.765625)"/>
     <use xlink:href="#DejaVuSerif-Italic-65" transform="translate(64.013672 0.765625)"/>
     <use xlink:href="#DejaVuSerif-Italic-74" transform="translate(123.193359 0.765625)"/>
     <use xlink:href="#DejaVuSerif-Italic-65" transform="translate(163.378906 0.765625)"/>
     <use xlink:href="#DejaVuSerif-Italic-72" transform="translate(222.558594 0.765625)"/>
     <use xlink:href="#DejaVuSerif-Italic-6d" transform="translate(270.361328 0.765625)"/>
     <use xlink:href="#DejaVuSerif-Italic-69" transform="translate(365.185547 0.765625)"/>
     <use xlink:href="#DejaVuSerif-Italic-6e" transform="translate(397.167969 0.765625)"/>
     <use xlink:href="#DejaVuSerif-Italic-69" transform="translate(461.572266 0.765625)"/>
     <use xlink:href="#DejaVuSerif-Italic-73" transform="translate(493.554688 0.765625)"/>
     <use xlink:href="#DejaVuSerif-Italic-74" transform="translate(544.873047 0.765625)"/>
     <use xlink:href="#DejaVuSerif-Italic-69" transform="translate(585.058594 0.765625)"/>
     <use xlink:href="#DejaVuSerif-Italic-63" transform="translate(617.041016 0.765625)"/>
     <use xlink:href="#DejaVuSerif-Italic-20" transform="translate(673.046875 0.765625)"/>
     <use xlink:href="#DejaVuSans-Oblique-3bc" transform="translate(704.833984 0.765625)"/>
     <use xlink:href="#DejaVuSans-2208" transform="translate(787.939453 0.765625)"/>
     <use xlink:href="#STIXGeneral-Italic-211d" transform="translate(894.53125 0.765625)"/>
     <use xlink:href="#DejaVuSans-31" transform="translate(969.18269 39.046875) scale(0.7)"/>
     <use xlink:href="#DejaVuSans-30" transform="translate(1013.718823 39.046875) scale(0.7)"/>
     <use xlink:href="#DejaVuSans-32" transform="translate(1058.254956 39.046875) scale(0.7)"/>
     <use xlink:href="#DejaVuSans-34" transform="translate(1102.791088 39.046875) scale(0.7)"/>
    </g>
   </g>
   <g id="text_7">
    <!-- properties $p$ + mask $m$ -->
    <g style="fill: #1f2c3a" transform="translate(345.006 130.47722) scale(0.115 -0.115)">
     <defs>
      <path id="DejaVuSerif-Bold-70" d="M 1728 1825 
L 1728 1497 
Q 1728 916 1876 656 
Q 2025 397 2356 397 
Q 2697 397 2836 672 
Q 2975 947 2975 1663 
Q 2975 2378 2836 2651 
Q 2697 2925 2356 2925 
Q 2025 2925 1876 2665 
Q 1728 2406 1728 1825 
z
M 622 2944 
L 147 2944 
L 147 3322 
L 1728 3322 
L 1728 2900 
Q 1869 3159 2106 3286 
Q 2344 3413 2694 3413 
Q 3403 3413 3811 2945 
Q 4219 2478 4219 1663 
Q 4219 847 3811 378 
Q 3403 -91 2694 -91 
Q 2344 -91 2106 36 
Q 1869 163 1728 422 
L 1728 -953 
L 2241 -953 
L 2241 -1331 
L 147 -1331 
L 147 -953 
L 622 -953 
L 622 2944 
z
" transform="scale(0.015625)"/>
      <path id="DejaVuSerif-Bold-69" d="M 588 4263 
Q 588 4516 763 4689 
Q 938 4863 1191 4863 
Q 1438 4863 1611 4689 
Q 1784 4516 1784 4263 
Q 1784 4016 1611 3842 
Q 1438 3669 1191 3669 
Q 938 3669 763 3841 
Q 588 4013 588 4263 
z
M 1797 378 
L 2272 378 
L 2272 0 
L 219 0 
L 219 378 
L 691 378 
L 691 2944 
L 219 2944 
L 219 3322 
L 1797 3322 
L 1797 378 
z
" transform="scale(0.015625)"/>
      <path id="DejaVuSerif-Bold-73" d="M 300 97 
L 300 1025 
L 653 1025 
Q 697 653 931 458 
Q 1166 263 1569 263 
Q 1906 263 2086 380 
Q 2266 497 2266 716 
Q 2266 916 2152 1025 
Q 2038 1134 1709 1216 
L 1253 1331 
Q 738 1459 506 1698 
Q 275 1938 275 2344 
Q 275 2884 650 3148 
Q 1025 3413 1806 3413 
Q 2100 3413 2433 3364 
Q 2766 3316 3169 3213 
L 3169 2375 
L 2816 2375 
Q 2788 2716 2573 2887 
Q 2359 3059 1959 3059 
Q 1622 3059 1448 2951 
Q 1275 2844 1275 2638 
Q 1275 2469 1375 2372 
Q 1475 2275 1734 2209 
L 2188 2094 
Q 2841 1928 3091 1684 
Q 3341 1441 3341 1006 
Q 3341 444 2939 176 
Q 2538 -91 1691 -91 
Q 1381 -91 1034 -44 
Q 688 3 300 97 
z
" transform="scale(0.015625)"/>
      <path id="DejaVuSans-Oblique-70" d="M 3175 2156 
Q 3175 2616 2975 2859 
Q 2775 3103 2400 3103 
Q 2144 3103 1911 2972 
Q 1678 2841 1497 2591 
Q 1319 2344 1212 1994 
Q 1106 1644 1106 1300 
Q 1106 863 1306 627 
Q 1506 391 1875 391 
Q 2147 391 2380 519 
Q 2613 647 2778 891 
Q 2956 1147 3065 1494 
Q 3175 1841 3175 2156 
z
M 1394 2969 
Q 1625 3272 1939 3428 
Q 2253 3584 2638 3584 
Q 3175 3584 3472 3232 
Q 3769 2881 3769 2247 
Q 3769 1728 3584 1258 
Q 3400 788 3053 416 
Q 2822 169 2531 39 
Q 2241 -91 1919 -91 
Q 1547 -91 1294 64 
Q 1041 219 916 525 
L 556 -1331 
L -19 -1331 
L 922 3500 
L 1497 3500 
L 1394 2969 
z
" transform="scale(0.015625)"/>
      <path id="DejaVuSerif-Bold-2b" d="M 3041 4013 
L 3041 2369 
L 4684 2369 
L 4684 1650 
L 3041 1650 
L 3041 6 
L 2322 6 
L 2322 1650 
L 678 1650 
L 678 2369 
L 2322 2369 
L 2322 4013 
L 3041 4013 
z
" transform="scale(0.015625)"/>
      <path id="DejaVuSerif-Bold-6d" d="M 3884 2778 
Q 4116 3109 4384 3261 
Q 4653 3413 5013 3413 
Q 5584 3413 5867 3089 
Q 6150 2766 6150 2113 
L 6150 378 
L 6625 378 
L 6625 0 
L 4647 0 
L 4647 378 
L 5044 378 
L 5044 1947 
Q 5044 2569 4948 2731 
Q 4853 2894 4594 2894 
Q 4300 2894 4137 2667 
Q 3975 2441 3975 2022 
L 3975 378 
L 4372 378 
L 4372 0 
L 2472 0 
L 2472 378 
L 2869 378 
L 2869 1947 
Q 2869 2569 2772 2731 
Q 2675 2894 2419 2894 
Q 2122 2894 1959 2667 
Q 1797 2441 1797 2022 
L 1797 378 
L 2194 378 
L 2194 0 
L 219 0 
L 219 378 
L 691 378 
L 691 2944 
L 219 2944 
L 219 3322 
L 1797 3322 
L 1797 2853 
Q 1991 3144 2241 3278 
Q 2491 3413 2834 3413 
Q 3241 3413 3494 3258 
Q 3747 3103 3884 2778 
z
" transform="scale(0.015625)"/>
      <path id="DejaVuSerif-Bold-6b" d="M 2216 0 
L 219 0 
L 219 378 
L 691 378 
L 691 4488 
L 219 4488 
L 219 4863 
L 1797 4863 
L 1797 1741 
L 3138 2944 
L 2741 2944 
L 2741 3322 
L 4256 3322 
L 4256 2944 
L 3641 2944 
L 2784 2175 
L 4184 378 
L 4544 378 
L 4544 0 
L 2638 0 
L 2638 378 
L 3028 378 
L 2106 1563 
L 1797 1288 
L 1797 378 
L 2216 378 
L 2216 0 
z
" transform="scale(0.015625)"/>
      <path id="DejaVuSans-Oblique-6d" d="M 5747 2113 
L 5338 0 
L 4763 0 
L 5166 2094 
Q 5191 2228 5203 2325 
Q 5216 2422 5216 2491 
Q 5216 2772 5059 2928 
Q 4903 3084 4622 3084 
Q 4203 3084 3875 2770 
Q 3547 2456 3450 1953 
L 3066 0 
L 2491 0 
L 2900 2094 
Q 2925 2209 2937 2307 
Q 2950 2406 2950 2484 
Q 2950 2769 2794 2926 
Q 2638 3084 2363 3084 
Q 1938 3084 1609 2770 
Q 1281 2456 1184 1953 
L 800 0 
L 225 0 
L 909 3500 
L 1484 3500 
L 1375 2956 
Q 1609 3263 1923 3423 
Q 2238 3584 2597 3584 
Q 2978 3584 3223 3384 
Q 3469 3184 3519 2828 
Q 3781 3197 4126 3390 
Q 4472 3584 4856 3584 
Q 5306 3584 5551 3325 
Q 5797 3066 5797 2591 
Q 5797 2488 5784 2364 
Q 5772 2241 5747 2113 
z
" transform="scale(0.015625)"/>
     </defs>
     <use xlink:href="#DejaVuSerif-Bold-70" transform="translate(0 0.015625)"/>
     <use xlink:href="#DejaVuSerif-Bold-72" transform="translate(69.921875 0.015625)"/>
     <use xlink:href="#DejaVuSerif-Bold-6f" transform="translate(122.607422 0.015625)"/>
     <use xlink:href="#DejaVuSerif-Bold-70" transform="translate(189.306641 0.015625)"/>
     <use xlink:href="#DejaVuSerif-Bold-65" transform="translate(259.228516 0.015625)"/>
     <use xlink:href="#DejaVuSerif-Bold-72" transform="translate(322.851562 0.015625)"/>
     <use xlink:href="#DejaVuSerif-Bold-74" transform="translate(375.537109 0.015625)"/>
     <use xlink:href="#DejaVuSerif-Bold-69" transform="translate(421.728516 0.015625)"/>
     <use xlink:href="#DejaVuSerif-Bold-65" transform="translate(459.716797 0.015625)"/>
     <use xlink:href="#DejaVuSerif-Bold-73" transform="translate(523.339844 0.015625)"/>
     <use xlink:href="#DejaVuSerif-Bold-20" transform="translate(579.638672 0.015625)"/>
     <use xlink:href="#DejaVuSans-Oblique-70" transform="translate(614.453125 0.015625)"/>
     <use xlink:href="#DejaVuSerif-Bold-20" transform="translate(677.929688 0.015625)"/>
     <use xlink:href="#DejaVuSerif-Bold-2b" transform="translate(712.744141 0.015625)"/>
     <use xlink:href="#DejaVuSerif-Bold-20" transform="translate(796.533203 0.015625)"/>
     <use xlink:href="#DejaVuSerif-Bold-6d" transform="translate(831.347656 0.015625)"/>
     <use xlink:href="#DejaVuSerif-Bold-61" transform="translate(937.158203 0.015625)"/>
     <use xlink:href="#DejaVuSerif-Bold-73" transform="translate(1001.953125 0.015625)"/>
     <use xlink:href="#DejaVuSerif-Bold-6b" transform="translate(1058.251953 0.015625)"/>
     <use xlink:href="#DejaVuSerif-Bold-20" transform="translate(1127.539062 0.015625)"/>
     <use xlink:href="#DejaVuSans-Oblique-6d" transform="translate(1162.353516 0.015625)"/>
    </g>
   </g>
   <g id="text_8">
    <!-- $\rho, \mathrm{HOF}, D, P$;  Tier-A/B = 1 -->
    <g style="fill: #5a6a7a" transform="translate(359.226 149.738276) scale(0.09 -0.09)">
     <defs>
      <path id="DejaVuSans-Oblique-3c1" d="M 1203 2875 
Q 1453 3194 1981 3475 
Q 2188 3584 2756 3584 
Q 3394 3584 3694 3078 
Q 3994 2572 3834 1747 
Q 3672 922 3175 415 
Q 2678 -91 2041 -91 
Q 1656 -91 1409 63 
Q 1163 213 1044 525 
L 681 -1331 
L 103 -1331 
L 697 1716 
Q 838 2438 1203 2875 
z
M 3238 1747 
Q 3359 2381 3169 2744 
Q 2978 3103 2522 3103 
Q 2066 3103 1734 2744 
Q 1403 2381 1281 1747 
Q 1156 1113 1347 750 
Q 1538 391 1994 391 
Q 2450 391 2781 750 
Q 3113 1113 3238 1747 
z
" transform="scale(0.015625)"/>
      <path id="DejaVuSans-2c" d="M 750 794 
L 1409 794 
L 1409 256 
L 897 -744 
L 494 -744 
L 750 256 
L 750 794 
z
" transform="scale(0.015625)"/>
      <path id="DejaVuSans-48" d="M 628 4666 
L 1259 4666 
L 1259 2753 
L 3553 2753 
L 3553 4666 
L 4184 4666 
L 4184 0 
L 3553 0 
L 3553 2222 
L 1259 2222 
L 1259 0 
L 628 0 
L 628 4666 
z
" transform="scale(0.015625)"/>
      <path id="DejaVuSans-4f" d="M 2522 4238 
Q 1834 4238 1429 3725 
Q 1025 3213 1025 2328 
Q 1025 1447 1429 934 
Q 1834 422 2522 422 
Q 3209 422 3611 934 
Q 4013 1447 4013 2328 
Q 4013 3213 3611 3725 
Q 3209 4238 2522 4238 
z
M 2522 4750 
Q 3503 4750 4090 4092 
Q 4678 3434 4678 2328 
Q 4678 1225 4090 567 
Q 3503 -91 2522 -91 
Q 1538 -91 948 565 
Q 359 1222 359 2328 
Q 359 3434 948 4092 
Q 1538 4750 2522 4750 
z
" transform="scale(0.015625)"/>
      <path id="DejaVuSans-46" d="M 628 4666 
L 3309 4666 
L 3309 4134 
L 1259 4134 
L 1259 2759 
L 3109 2759 
L 3109 2228 
L 1259 2228 
L 1259 0 
L 628 0 
L 628 4666 
z
" transform="scale(0.015625)"/>
      <path id="DejaVuSans-Oblique-44" d="M 1081 4666 
L 2438 4666 
Q 3519 4666 4070 4208 
Q 4622 3750 4622 2847 
Q 4622 2250 4412 1698 
Q 4203 1147 3834 769 
Q 3463 381 2891 190 
Q 2319 0 1538 0 
L 172 0 
L 1081 4666 
z
M 1613 4147 
L 909 519 
L 1734 519 
Q 2794 519 3375 1128 
Q 3956 1738 3956 2847 
Q 3956 3519 3581 3833 
Q 3206 4147 2406 4147 
L 1613 4147 
z
" transform="scale(0.015625)"/>
      <path id="DejaVuSans-Oblique-50" d="M 1081 4666 
L 2541 4666 
Q 3178 4666 3512 4369 
Q 3847 4072 3847 3500 
Q 3847 2731 3353 2303 
Q 2859 1875 1966 1875 
L 1172 1875 
L 806 0 
L 172 0 
L 1081 4666 
z
M 1613 4147 
L 1275 2394 
L 2069 2394 
Q 2606 2394 2893 2669 
Q 3181 2944 3181 3456 
Q 3181 3784 2986 3965 
Q 2791 4147 2438 4147 
L 1613 4147 
z
" transform="scale(0.015625)"/>
      <path id="DejaVuSerif-Italic-3b" d="M -72 -622 
Q 263 -406 458 -114 
Q 653 178 734 594 
L 756 709 
L 1372 709 
Q 1244 175 942 -208 
Q 641 -591 128 -872 
L -72 -622 
z
M 1019 2067 
Q 922 2188 956 2363 
Q 991 2538 1134 2658 
Q 1278 2778 1453 2778 
Q 1628 2778 1723 2656 
Q 1819 2534 1788 2363 
Q 1753 2188 1609 2067 
Q 1466 1947 1291 1947 
Q 1116 1947 1019 2067 
z
" transform="scale(0.015625)"/>
      <path id="DejaVuSerif-Italic-54" d="M 769 0 
L 831 331 
L 1428 331 
L 2200 4294 
L 828 4294 
L 688 3566 
L 303 3566 
L 516 4666 
L 4659 4666 
L 4447 3566 
L 4063 3566 
L 4203 4294 
L 2831 4294 
L 2059 331 
L 2656 331 
L 2594 0 
L 769 0 
z
" transform="scale(0.015625)"/>
      <path id="DejaVuSerif-Italic-41" d="M 1159 1691 
L 2872 1691 
L 2447 3909 
L 1159 1691 
z
M -488 0 
L -425 331 
L -16 331 
L 2491 4666 
L 3016 4666 
L 3841 331 
L 4297 331 
L 4234 0 
L 2538 0 
L 2600 331 
L 3119 331 
L 2928 1356 
L 966 1356 
L 375 331 
L 888 331 
L 825 0 
L -488 0 
z
" transform="scale(0.015625)"/>
      <path id="DejaVuSerif-Italic-2f" d="M 2172 4666 
L 2672 4666 
L -9 -594 
L -509 -594 
L 2172 4666 
z
" transform="scale(0.015625)"/>
      <path id="DejaVuSerif-Italic-42" d="M 1194 331 
L 2128 331 
Q 2691 331 2998 575 
Q 3306 819 3409 1350 
Q 3513 1878 3302 2120 
Q 3091 2363 2525 2363 
L 1591 2363 
L 1194 331 
z
M 1653 2694 
L 2447 2694 
Q 2959 2694 3234 2891 
Q 3509 3088 3591 3513 
Q 3675 3941 3476 4136 
Q 3278 4331 2766 4331 
L 1972 4331 
L 1653 2694 
z
M -97 0 
L -34 331 
L 559 331 
L 1338 4331 
L 744 4331 
L 809 4666 
L 3113 4666 
Q 3819 4666 4120 4377 
Q 4422 4088 4309 3513 
Q 4231 3097 3934 2850 
Q 3638 2603 3147 2547 
Q 3728 2472 3976 2167 
Q 4225 1863 4125 1350 
Q 3991 656 3489 328 
Q 2988 0 2059 0 
L -97 0 
z
" transform="scale(0.015625)"/>
      <path id="DejaVuSerif-Italic-3d" d="M 678 2894 
L 4684 2894 
L 4684 2394 
L 678 2394 
L 678 2894 
z
M 678 1619 
L 4684 1619 
L 4684 1119 
L 678 1119 
L 678 1619 
z
" transform="scale(0.015625)"/>
      <path id="DejaVuSerif-Italic-31" d="M 447 0 
L 513 331 
L 1325 331 
L 2078 4213 
L 1019 3603 
L 1100 4013 
L 2381 4750 
L 2813 4750 
L 1953 331 
L 2766 331 
L 2700 0 
L 447 0 
z
" transform="scale(0.015625)"/>
     </defs>
     <use xlink:href="#DejaVuSans-Oblique-3c1" transform="translate(0 0.78125)"/>
     <use xlink:href="#DejaVuSans-2c" transform="translate(63.476562 0.78125)"/>
     <use xlink:href="#DejaVuSans-48" transform="translate(114.746094 0.78125)"/>
     <use xlink:href="#DejaVuSans-4f" transform="translate(189.941406 0.78125)"/>
     <use xlink:href="#DejaVuSans-46" transform="translate(268.652344 0.78125)"/>
     <use xlink:href="#DejaVuSans-2c" transform="translate(326.171875 0.78125)"/>
     <use xlink:href="#DejaVuSans-Oblique-44" transform="translate(377.441406 0.78125)"/>
     <use xlink:href="#DejaVuSans-2c" transform="translate(454.443359 0.78125)"/>
     <use xlink:href="#DejaVuSans-Oblique-50" transform="translate(505.712891 0.78125)"/>
     <use xlink:href="#DejaVuSerif-Italic-3b" transform="translate(566.015625 0.78125)"/>
     <use xlink:href="#DejaVuSerif-Italic-20" transform="translate(599.707031 0.78125)"/>
     <use xlink:href="#DejaVuSerif-Italic-20" transform="translate(631.494141 0.78125)"/>
     <use xlink:href="#DejaVuSerif-Italic-54" transform="translate(663.28125 0.78125)"/>
     <use xlink:href="#DejaVuSerif-Italic-69" transform="translate(729.980469 0.78125)"/>
     <use xlink:href="#DejaVuSerif-Italic-65" transform="translate(761.962891 0.78125)"/>
     <use xlink:href="#DejaVuSerif-Italic-72" transform="translate(821.142578 0.78125)"/>
     <use xlink:href="#DejaVuSerif-Italic-2d" transform="translate(868.945312 0.78125)"/>
     <use xlink:href="#DejaVuSerif-Italic-41" transform="translate(902.734375 0.78125)"/>
     <use xlink:href="#DejaVuSerif-Italic-2f" transform="translate(974.951172 0.78125)"/>
     <use xlink:href="#DejaVuSerif-Italic-42" transform="translate(1008.642578 0.78125)"/>
     <use xlink:href="#DejaVuSerif-Italic-20" transform="translate(1082.128906 0.78125)"/>
     <use xlink:href="#DejaVuSerif-Italic-3d" transform="translate(1113.916016 0.78125)"/>
     <use xlink:href="#DejaVuSerif-Italic-20" transform="translate(1197.705078 0.78125)"/>
     <use xlink:href="#DejaVuSerif-Italic-31" transform="translate(1229.492188 0.78125)"/>
    </g>
   </g>
   <g id="text_9">
    <!-- cache $\mathcal{D}_\mathrm{cache}$ -->
    <g style="fill: #1f2c3a" transform="translate(515.9665 130.488001) scale(0.115 -0.115)">
     <defs>
      <path id="DejaVuSerif-Bold-68" d="M 219 0 
L 219 378 
L 691 378 
L 691 4488 
L 197 4488 
L 197 4863 
L 1797 4863 
L 1797 2853 
Q 1997 3150 2253 3281 
Q 2509 3413 2900 3413 
Q 3459 3413 3745 3083 
Q 4031 2753 4031 2113 
L 4031 378 
L 4506 378 
L 4506 0 
L 2522 0 
L 2522 378 
L 2925 378 
L 2925 2144 
Q 2925 2566 2817 2730 
Q 2709 2894 2444 2894 
Q 2109 2894 1953 2648 
Q 1797 2403 1797 1869 
L 1797 378 
L 2203 378 
L 2203 0 
L 219 0 
z
" transform="scale(0.015625)"/>
      <path id="STIXNonUnicode-Italic-e230" d="M 314 3418 
L 218 3539 
Q 621 3923 1126 4083 
Q 1619 4237 2490 4237 
Q 3475 4237 4028 4080 
Q 4582 3923 4812 3596 
Q 5043 3270 5043 2701 
Q 5043 2349 4950 1993 
Q 4858 1638 4634 1273 
Q 4410 909 4070 630 
Q 3731 352 3190 176 
Q 2650 0 1978 0 
L 333 0 
L 378 154 
Q 576 154 678 275 
Q 781 397 870 710 
L 1491 2867 
Q 1517 2957 1581 3155 
Q 1645 3354 1673 3466 
Q 1702 3578 1702 3642 
Q 1702 3878 1414 3878 
Q 877 3878 314 3418 
z
M 2438 3750 
L 1510 557 
Q 1478 454 1478 390 
Q 1478 307 1568 281 
Q 1658 256 1856 256 
Q 2093 256 2355 297 
Q 2618 339 2989 489 
Q 3360 640 3645 886 
Q 3930 1133 4134 1597 
Q 4339 2061 4339 2675 
Q 4339 3328 3977 3654 
Q 3616 3981 2758 3981 
Q 2643 3981 2553 3913 
Q 2464 3846 2438 3750 
z
" transform="scale(0.015625)"/>
      <path id="DejaVuSans-63" d="M 3122 3366 
L 3122 2828 
Q 2878 2963 2633 3030 
Q 2388 3097 2138 3097 
Q 1578 3097 1268 2742 
Q 959 2388 959 1747 
Q 959 1106 1268 751 
Q 1578 397 2138 397 
Q 2388 397 2633 464 
Q 2878 531 3122 666 
L 3122 134 
Q 2881 22 2623 -34 
Q 2366 -91 2075 -91 
Q 1284 -91 818 406 
Q 353 903 353 1747 
Q 353 2603 823 3093 
Q 1294 3584 2113 3584 
Q 2378 3584 2631 3529 
Q 2884 3475 3122 3366 
z
" transform="scale(0.015625)"/>
      <path id="DejaVuSans-61" d="M 2194 1759 
Q 1497 1759 1228 1600 
Q 959 1441 959 1056 
Q 959 750 1161 570 
Q 1363 391 1709 391 
Q 2188 391 2477 730 
Q 2766 1069 2766 1631 
L 2766 1759 
L 2194 1759 
z
M 3341 1997 
L 3341 0 
L 2766 0 
L 2766 531 
Q 2569 213 2275 61 
Q 1981 -91 1556 -91 
Q 1019 -91 701 211 
Q 384 513 384 1019 
Q 384 1609 779 1909 
Q 1175 2209 1959 2209 
L 2766 2209 
L 2766 2266 
Q 2766 2663 2505 2880 
Q 2244 3097 1772 3097 
Q 1472 3097 1187 3025 
Q 903 2953 641 2809 
L 641 3341 
Q 956 3463 1253 3523 
Q 1550 3584 1831 3584 
Q 2591 3584 2966 3190 
Q 3341 2797 3341 1997 
z
" transform="scale(0.015625)"/>
      <path id="DejaVuSans-68" d="M 3513 2113 
L 3513 0 
L 2938 0 
L 2938 2094 
Q 2938 2591 2744 2837 
Q 2550 3084 2163 3084 
Q 1697 3084 1428 2787 
Q 1159 2491 1159 1978 
L 1159 0 
L 581 0 
L 581 4863 
L 1159 4863 
L 1159 2956 
Q 1366 3272 1645 3428 
Q 1925 3584 2291 3584 
Q 2894 3584 3203 3211 
Q 3513 2838 3513 2113 
z
" transform="scale(0.015625)"/>
      <path id="DejaVuSans-65" d="M 3597 1894 
L 3597 1613 
L 953 1613 
Q 991 1019 1311 708 
Q 1631 397 2203 397 
Q 2534 397 2845 478 
Q 3156 559 3463 722 
L 3463 178 
Q 3153 47 2828 -22 
Q 2503 -91 2169 -91 
Q 1331 -91 842 396 
Q 353 884 353 1716 
Q 353 2575 817 3079 
Q 1281 3584 2069 3584 
Q 2775 3584 3186 3129 
Q 3597 2675 3597 1894 
z
M 3022 2063 
Q 3016 2534 2758 2815 
Q 2500 3097 2075 3097 
Q 1594 3097 1305 2825 
Q 1016 2553 972 2059 
L 3022 2063 
z
" transform="scale(0.015625)"/>
     </defs>
     <use xlink:href="#DejaVuSerif-Bold-63" transform="translate(0 0.015625)"/>
     <use xlink:href="#DejaVuSerif-Bold-61" transform="translate(60.888672 0.015625)"/>
     <use xlink:href="#DejaVuSerif-Bold-63" transform="translate(125.683594 0.015625)"/>
     <use xlink:href="#DejaVuSerif-Bold-68" transform="translate(186.572266 0.015625)"/>
     <use xlink:href="#DejaVuSerif-Bold-65" transform="translate(259.277344 0.015625)"/>
     <use xlink:href="#DejaVuSerif-Bold-20" transform="translate(322.900391 0.015625)"/>
     <use xlink:href="#STIXNonUnicode-Italic-e230" transform="translate(357.714844 0.015625)"/>
     <use xlink:href="#DejaVuSans-63" transform="translate(438.771866 -16.390625) scale(0.7)"/>
     <use xlink:href="#DejaVuSans-61" transform="translate(477.258194 -16.390625) scale(0.7)"/>
     <use xlink:href="#DejaVuSans-63" transform="translate(520.153702 -16.390625) scale(0.7)"/>
     <use xlink:href="#DejaVuSans-68" transform="translate(558.64003 -16.390625) scale(0.7)"/>
     <use xlink:href="#DejaVuSans-65" transform="translate(603.005264 -16.390625) scale(0.7)"/>
    </g>
   </g>
   <g id="text_10">
    <!-- $\{(z_0, p, m)\}$ on disk -->
    <g style="fill: #5a6a7a" transform="translate(509.859 149.74812) scale(0.09 -0.09)">
     <defs>
      <path id="DejaVuSans-7b" d="M 3272 -594 
L 3272 -1044 
L 3078 -1044 
Q 2300 -1044 2036 -812 
Q 1772 -581 1772 109 
L 1772 856 
Q 1772 1328 1603 1509 
Q 1434 1691 991 1691 
L 800 1691 
L 800 2138 
L 991 2138 
Q 1438 2138 1605 2317 
Q 1772 2497 1772 2963 
L 1772 3713 
Q 1772 4403 2036 4633 
Q 2300 4863 3078 4863 
L 3272 4863 
L 3272 4416 
L 3059 4416 
Q 2619 4416 2484 4278 
Q 2350 4141 2350 3700 
L 2350 2925 
Q 2350 2434 2208 2212 
Q 2066 1991 1722 1913 
Q 2069 1828 2209 1606 
Q 2350 1384 2350 897 
L 2350 122 
Q 2350 -319 2484 -456 
Q 2619 -594 3059 -594 
L 3272 -594 
z
" transform="scale(0.015625)"/>
      <path id="DejaVuSans-28" d="M 1984 4856 
Q 1566 4138 1362 3434 
Q 1159 2731 1159 2009 
Q 1159 1288 1364 580 
Q 1569 -128 1984 -844 
L 1484 -844 
Q 1016 -109 783 600 
Q 550 1309 550 2009 
Q 550 2706 781 3412 
Q 1013 4119 1484 4856 
L 1984 4856 
z
" transform="scale(0.015625)"/>
      <path id="DejaVuSans-29" d="M 513 4856 
L 1013 4856 
Q 1481 4119 1714 3412 
Q 1947 2706 1947 2009 
Q 1947 1309 1714 600 
Q 1481 -109 1013 -844 
L 513 -844 
Q 928 -128 1133 580 
Q 1338 1288 1338 2009 
Q 1338 2731 1133 3434 
Q 928 4138 513 4856 
z
" transform="scale(0.015625)"/>
      <path id="DejaVuSans-7d" d="M 800 -594 
L 1019 -594 
Q 1456 -594 1589 -459 
Q 1722 -325 1722 122 
L 1722 897 
Q 1722 1384 1862 1606 
Q 2003 1828 2350 1913 
Q 2003 1991 1862 2212 
Q 1722 2434 1722 2925 
L 1722 3700 
Q 1722 4144 1589 4280 
Q 1456 4416 1019 4416 
L 800 4416 
L 800 4863 
L 997 4863 
Q 1775 4863 2036 4633 
Q 2297 4403 2297 3713 
L 2297 2963 
Q 2297 2497 2465 2317 
Q 2634 2138 3078 2138 
L 3272 2138 
L 3272 1691 
L 3078 1691 
Q 2634 1691 2465 1509 
Q 2297 1328 2297 856 
L 2297 109 
Q 2297 -581 2036 -812 
Q 1775 -1044 997 -1044 
L 800 -1044 
L 800 -594 
z
" transform="scale(0.015625)"/>
     </defs>
     <use xlink:href="#DejaVuSans-7b" transform="translate(0 0.015625)"/>
     <use xlink:href="#DejaVuSans-28" transform="translate(63.623047 0.015625)"/>
     <use xlink:href="#DejaVuSans-Oblique-7a" transform="translate(102.636719 0.015625)"/>
     <use xlink:href="#DejaVuSans-30" transform="translate(155.126953 -16.390625) scale(0.7)"/>
     <use xlink:href="#DejaVuSans-2c" transform="translate(202.397461 0.015625)"/>
     <use xlink:href="#DejaVuSans-Oblique-70" transform="translate(253.666992 0.015625)"/>
     <use xlink:href="#DejaVuSans-2c" transform="translate(317.143555 0.015625)"/>
     <use xlink:href="#DejaVuSans-Oblique-6d" transform="translate(368.413086 0.015625)"/>
     <use xlink:href="#DejaVuSans-29" transform="translate(465.825195 0.015625)"/>
     <use xlink:href="#DejaVuSans-7d" transform="translate(504.838867 0.015625)"/>
     <use xlink:href="#DejaVuSerif-Italic-20" transform="translate(568.461914 0.015625)"/>
     <use xlink:href="#DejaVuSerif-Italic-6f" transform="translate(600.249023 0.015625)"/>
     <use xlink:href="#DejaVuSerif-Italic-6e" transform="translate(660.454102 0.015625)"/>
     <use xlink:href="#DejaVuSerif-Italic-20" transform="translate(724.858398 0.015625)"/>
     <use xlink:href="#DejaVuSerif-Italic-64" transform="translate(756.645508 0.015625)"/>
     <use xlink:href="#DejaVuSerif-Italic-69" transform="translate(820.65918 0.015625)"/>
     <use xlink:href="#DejaVuSerif-Italic-73" transform="translate(852.641602 0.015625)"/>
     <use xlink:href="#DejaVuSerif-Italic-6b" transform="translate(903.959961 0.015625)"/>
    </g>
   </g>
   <g id="text_11">
    <!-- encoder posterior variance discarded -->
    <g style="fill: #8a9aaa" transform="translate(102.826031 188.565062) scale(0.086 -0.086)">
     <defs>
      <path id="DejaVuSerif-Italic-76" d="M 1681 0 
L 1259 0 
L 619 2988 
L 241 2988 
L 303 3322 
L 1163 3322 
L 1725 703 
Q 2084 1016 2325 1413 
Q 2825 2238 3003 2988 
L 2622 2988 
L 2688 3322 
L 3547 3322 
Q 3206 2034 2775 1313 
Q 2400 688 1681 0 
z
" transform="scale(0.015625)"/>
      <path id="DejaVuSerif-Italic-61" d="M 2325 519 
Q 1909 -91 1238 -91 
Q 688 -91 409 281 
Q 216 544 216 919 
Q 216 1078 250 1256 
Q 463 2359 1231 2928 
Q 1884 3413 2675 3413 
Q 3206 3413 3388 3322 
L 2806 331 
L 3300 331 
L 3238 0 
L 2225 0 
L 2325 519 
z
M 822 938 
Q 822 269 1469 269 
Q 1863 269 2130 583 
Q 2397 897 2516 1497 
L 2806 3003 
L 2806 3003 
Q 2806 3094 2556 3094 
Q 1956 3094 1491 2625 
Q 1028 2153 863 1297 
Q 822 1097 822 938 
z
" transform="scale(0.015625)"/>
     </defs>
     <use xlink:href="#DejaVuSerif-Italic-65"/>
     <use xlink:href="#DejaVuSerif-Italic-6e" transform="translate(59.179688 0)"/>
     <use xlink:href="#DejaVuSerif-Italic-63" transform="translate(123.583984 0)"/>
     <use xlink:href="#DejaVuSerif-Italic-6f" transform="translate(179.589844 0)"/>
     <use xlink:href="#DejaVuSerif-Italic-64" transform="translate(239.794922 0)"/>
     <use xlink:href="#DejaVuSerif-Italic-65" transform="translate(303.808594 0)"/>
     <use xlink:href="#DejaVuSerif-Italic-72" transform="translate(362.988281 0)"/>
     <use xlink:href="#DejaVuSerif-Italic-20" transform="translate(410.791016 0)"/>
     <use xlink:href="#DejaVuSerif-Italic-70" transform="translate(442.578125 0)"/>
     <use xlink:href="#DejaVuSerif-Italic-6f" transform="translate(506.591797 0)"/>
     <use xlink:href="#DejaVuSerif-Italic-73" transform="translate(566.796875 0)"/>
     <use xlink:href="#DejaVuSerif-Italic-74" transform="translate(618.115234 0)"/>
     <use xlink:href="#DejaVuSerif-Italic-65" transform="translate(658.300781 0)"/>
     <use xlink:href="#DejaVuSerif-Italic-72" transform="translate(717.480469 0)"/>
     <use xlink:href="#DejaVuSerif-Italic-69" transform="translate(765.283203 0)"/>
     <use xlink:href="#DejaVuSerif-Italic-6f" transform="translate(797.265625 0)"/>
     <use xlink:href="#DejaVuSerif-Italic-72" transform="translate(857.470703 0)"/>
     <use xlink:href="#DejaVuSerif-Italic-20" transform="translate(905.273438 0)"/>
     <use xlink:href="#DejaVuSerif-Italic-76" transform="translate(937.060547 0)"/>
     <use xlink:href="#DejaVuSerif-Italic-61" transform="translate(993.554688 0)"/>
     <use xlink:href="#DejaVuSerif-Italic-72" transform="translate(1053.173828 0)"/>
     <use xlink:href="#DejaVuSerif-Italic-69" transform="translate(1100.976562 0)"/>
     <use xlink:href="#DejaVuSerif-Italic-61" transform="translate(1132.958984 0)"/>
     <use xlink:href="#DejaVuSerif-Italic-6e" transform="translate(1192.578125 0)"/>
     <use xlink:href="#DejaVuSerif-Italic-63" transform="translate(1256.982422 0)"/>
     <use xlink:href="#DejaVuSerif-Italic-65" transform="translate(1312.988281 0)"/>
     <use xlink:href="#DejaVuSerif-Italic-20" transform="translate(1372.167969 0)"/>
     <use xlink:href="#DejaVuSerif-Italic-64" transform="translate(1403.955078 0)"/>
     <use xlink:href="#DejaVuSerif-Italic-69" transform="translate(1467.96875 0)"/>
     <use xlink:href="#DejaVuSerif-Italic-73" transform="translate(1499.951172 0)"/>
     <use xlink:href="#DejaVuSerif-Italic-63" transform="translate(1551.269531 0)"/>
     <use xlink:href="#DejaVuSerif-Italic-61" transform="translate(1607.275391 0)"/>
     <use xlink:href="#DejaVuSerif-Italic-72" transform="translate(1666.894531 0)"/>
     <use xlink:href="#DejaVuSerif-Italic-64" transform="translate(1714.697266 0)"/>
     <use xlink:href="#DejaVuSerif-Italic-65" transform="translate(1778.710938 0)"/>
     <use xlink:href="#DejaVuSerif-Italic-64" transform="translate(1837.890625 0)"/>
    </g>
   </g>
   <g id="text_12">
    <!-- z-scored properties; mask gates the conditional gradient -->
    <g style="fill: #8a9aaa" transform="translate(293.79875 188.503922) scale(0.086 -0.086)">
     <defs>
      <path id="DejaVuSerif-Italic-68" d="M 309 0 
L 1191 4531 
L 641 4531 
L 703 4863 
L 1828 4863 
L 1416 2731 
Q 1641 3069 1928 3241 
Q 2216 3413 2553 3413 
Q 3103 3413 3300 3097 
Q 3422 2906 3422 2588 
Q 3422 2378 3369 2113 
L 3022 331 
L 3534 331 
L 3472 0 
L 2381 0 
L 2756 1931 
Q 2819 2253 2819 2469 
Q 2819 2659 2769 2763 
Q 2666 2988 2284 2988 
Q 1884 2988 1617 2697 
Q 1350 2406 1244 1850 
L 884 0 
L 309 0 
z
" transform="scale(0.015625)"/>
      <path id="DejaVuSerif-Italic-6c" d="M 903 331 
L 1447 331 
L 1384 0 
L 266 0 
L 1147 4531 
L 594 4531 
L 656 4863 
L 1784 4863 
L 903 331 
z
" transform="scale(0.015625)"/>
     </defs>
     <use xlink:href="#DejaVuSerif-Italic-7a"/>
     <use xlink:href="#DejaVuSerif-Italic-2d" transform="translate(52.685547 0)"/>
     <use xlink:href="#DejaVuSerif-Italic-73" transform="translate(86.474609 0)"/>
     <use xlink:href="#DejaVuSerif-Italic-63" transform="translate(137.792969 0)"/>
     <use xlink:href="#DejaVuSerif-Italic-6f" transform="translate(193.798828 0)"/>
     <use xlink:href="#DejaVuSerif-Italic-72" transform="translate(254.003906 0)"/>
     <use xlink:href="#DejaVuSerif-Italic-65" transform="translate(301.806641 0)"/>
     <use xlink:href="#DejaVuSerif-Italic-64" transform="translate(360.986328 0)"/>
     <use xlink:href="#DejaVuSerif-Italic-20" transform="translate(425 0)"/>
     <use xlink:href="#DejaVuSerif-Italic-70" transform="translate(456.787109 0)"/>
     <use xlink:href="#DejaVuSerif-Italic-72" transform="translate(520.800781 0)"/>
     <use xlink:href="#DejaVuSerif-Italic-6f" transform="translate(568.603516 0)"/>
     <use xlink:href="#DejaVuSerif-Italic-70" transform="translate(628.808594 0)"/>
     <use xlink:href="#DejaVuSerif-Italic-65" transform="translate(692.822266 0)"/>
     <use xlink:href="#DejaVuSerif-Italic-72" transform="translate(752.001953 0)"/>
     <use xlink:href="#DejaVuSerif-Italic-74" transform="translate(799.804688 0)"/>
     <use xlink:href="#DejaVuSerif-Italic-69" transform="translate(839.990234 0)"/>
     <use xlink:href="#DejaVuSerif-Italic-65" transform="translate(871.972656 0)"/>
     <use xlink:href="#DejaVuSerif-Italic-73" transform="translate(931.152344 0)"/>
     <use xlink:href="#DejaVuSerif-Italic-3b" transform="translate(982.470703 0)"/>
     <use xlink:href="#DejaVuSerif-Italic-20" transform="translate(1016.162109 0)"/>
     <use xlink:href="#DejaVuSerif-Italic-6d" transform="translate(1047.949219 0)"/>
     <use xlink:href="#DejaVuSerif-Italic-61" transform="translate(1142.773438 0)"/>
     <use xlink:href="#DejaVuSerif-Italic-73" transform="translate(1202.392578 0)"/>
     <use xlink:href="#DejaVuSerif-Italic-6b" transform="translate(1253.710938 0)"/>
     <use xlink:href="#DejaVuSerif-Italic-20" transform="translate(1314.306641 0)"/>
     <use xlink:href="#DejaVuSerif-Italic-67" transform="translate(1346.09375 0)"/>
     <use xlink:href="#DejaVuSerif-Italic-61" transform="translate(1410.107422 0)"/>
     <use xlink:href="#DejaVuSerif-Italic-74" transform="translate(1469.726562 0)"/>
     <use xlink:href="#DejaVuSerif-Italic-65" transform="translate(1509.912109 0)"/>
     <use xlink:href="#DejaVuSerif-Italic-73" transform="translate(1569.091797 0)"/>
     <use xlink:href="#DejaVuSerif-Italic-20" transform="translate(1620.410156 0)"/>
     <use xlink:href="#DejaVuSerif-Italic-74" transform="translate(1652.197266 0)"/>
     <use xlink:href="#DejaVuSerif-Italic-68" transform="translate(1692.382812 0)"/>
     <use xlink:href="#DejaVuSerif-Italic-65" transform="translate(1756.787109 0)"/>
     <use xlink:href="#DejaVuSerif-Italic-20" transform="translate(1815.966797 0)"/>
     <use xlink:href="#DejaVuSerif-Italic-63" transform="translate(1847.753906 0)"/>
     <use xlink:href="#DejaVuSerif-Italic-6f" transform="translate(1903.759766 0)"/>
     <use xlink:href="#DejaVuSerif-Italic-6e" transform="translate(1963.964844 0)"/>
     <use xlink:href="#DejaVuSerif-Italic-64" transform="translate(2028.369141 0)"/>
     <use xlink:href="#DejaVuSerif-Italic-69" transform="translate(2092.382812 0)"/>
     <use xlink:href="#DejaVuSerif-Italic-74" transform="translate(2124.365234 0)"/>
     <use xlink:href="#DejaVuSerif-Italic-69" transform="translate(2164.550781 0)"/>
     <use xlink:href="#DejaVuSerif-Italic-6f" transform="translate(2196.533203 0)"/>
     <use xlink:href="#DejaVuSerif-Italic-6e" transform="translate(2256.738281 0)"/>
     <use xlink:href="#DejaVuSerif-Italic-61" transform="translate(2321.142578 0)"/>
     <use xlink:href="#DejaVuSerif-Italic-6c" transform="translate(2380.761719 0)"/>
     <use xlink:href="#DejaVuSerif-Italic-20" transform="translate(2412.744141 0)"/>
     <use xlink:href="#DejaVuSerif-Italic-67" transform="translate(2444.53125 0)"/>
     <use xlink:href="#DejaVuSerif-Italic-72" transform="translate(2508.544922 0)"/>
     <use xlink:href="#DejaVuSerif-Italic-61" transform="translate(2556.347656 0)"/>
     <use xlink:href="#DejaVuSerif-Italic-64" transform="translate(2615.966797 0)"/>
     <use xlink:href="#DejaVuSerif-Italic-69" transform="translate(2679.980469 0)"/>
     <use xlink:href="#DejaVuSerif-Italic-65" transform="translate(2711.962891 0)"/>
     <use xlink:href="#DejaVuSerif-Italic-6e" transform="translate(2771.142578 0)"/>
     <use xlink:href="#DejaVuSerif-Italic-74" transform="translate(2835.546875 0)"/>
    </g>
   </g>
   <g id="text_13">
    <!-- color key -->
    <g style="fill: #5a6a7a" transform="translate(18.288 228.536625) scale(0.08 -0.08)">
     <defs>
      <path id="DejaVuSerif-Bold-79" d="M 1997 -750 
Q 1847 -1116 1634 -1269 
Q 1422 -1422 1063 -1422 
Q 909 -1422 721 -1387 
Q 534 -1353 313 -1288 
L 313 -594 
L 666 -597 
Q 675 -838 779 -953 
Q 884 -1069 1094 -1069 
Q 1297 -1069 1422 -958 
Q 1547 -847 1672 -538 
L 1722 -422 
L 275 2944 
L -84 2944 
L -84 3322 
L 1831 3322 
L 1831 2944 
L 1434 2944 
L 2278 978 
L 3066 2944 
L 2625 2944 
L 2625 3322 
L 3872 3322 
L 3872 2944 
L 3469 2944 
L 1997 -750 
z
" transform="scale(0.015625)"/>
     </defs>
     <use xlink:href="#DejaVuSerif-Bold-63"/>
     <use xlink:href="#DejaVuSerif-Bold-6f" transform="translate(60.888672 0)"/>
     <use xlink:href="#DejaVuSerif-Bold-6c" transform="translate(127.587891 0)"/>
     <use xlink:href="#DejaVuSerif-Bold-6f" transform="translate(165.576172 0)"/>
     <use xlink:href="#DejaVuSerif-Bold-72" transform="translate(232.275391 0)"/>
     <use xlink:href="#DejaVuSerif-Bold-20" transform="translate(284.960938 0)"/>
     <use xlink:href="#DejaVuSerif-Bold-6b" transform="translate(319.775391 0)"/>
     <use xlink:href="#DejaVuSerif-Bold-65" transform="translate(389.0625 0)"/>
     <use xlink:href="#DejaVuSerif-Bold-79" transform="translate(452.685547 0)"/>
    </g>
   </g>
   <g id="line2d_1">
    <path d="M 19.3968 236.088 
L 48.78 236.088 
" clip-path="url(#p5d8fec7bb7)" style="fill: none; stroke: #27445d; stroke-width: 2; stroke-linecap: square"/>
   </g>
   <g id="text_14">
    <!-- data flow -->
    <g style="fill: #5a6a7a" transform="translate(52.938 238.350687) scale(0.082 -0.082)">
     <defs>
      <path id="DejaVuSerif-Italic-77" d="M 3741 728 
Q 4156 1178 4250 1344 
Q 4594 1969 4931 2988 
L 4447 2984 
L 4513 3322 
L 5347 3322 
L 5281 2984 
L 5278 2984 
Q 4959 1825 4656 1266 
Q 4209 469 3719 0 
L 3241 0 
L 2900 2484 
L 1597 0 
L 1138 0 
L 734 2988 
L 359 2981 
L 425 3322 
L 1281 3322 
L 1631 728 
L 2991 3322 
L 3394 3322 
L 3741 728 
z
" transform="scale(0.015625)"/>
     </defs>
     <use xlink:href="#DejaVuSerif-Italic-64"/>
     <use xlink:href="#DejaVuSerif-Italic-61" transform="translate(64.013672 0)"/>
     <use xlink:href="#DejaVuSerif-Italic-74" transform="translate(123.632812 0)"/>
     <use xlink:href="#DejaVuSerif-Italic-61" transform="translate(163.818359 0)"/>
     <use xlink:href="#DejaVuSerif-Italic-20" transform="translate(223.4375 0)"/>
     <use xlink:href="#DejaVuSerif-Italic-66" transform="translate(255.224609 0)"/>
     <use xlink:href="#DejaVuSerif-Italic-6c" transform="translate(292.236328 0)"/>
     <use xlink:href="#DejaVuSerif-Italic-6f" transform="translate(324.21875 0)"/>
     <use xlink:href="#DejaVuSerif-Italic-77" transform="translate(384.423828 0)"/>
    </g>
   </g>
   <g id="line2d_2">
    <path d="M 19.3968 247.176 
L 48.78 247.176 
" clip-path="url(#p5d8fec7bb7)" style="fill: none; stroke-dasharray: 10,6; stroke-dashoffset: 0; stroke: #b88a25; stroke-width: 2"/>
   </g>
   <g id="text_15">
    <!-- conditioning / guidance -->
    <g style="fill: #5a6a7a" transform="translate(52.938 249.380391) scale(0.082 -0.082)">
     <use xlink:href="#DejaVuSerif-Italic-63"/>
     <use xlink:href="#DejaVuSerif-Italic-6f" transform="translate(56.005859 0)"/>
     <use xlink:href="#DejaVuSerif-Italic-6e" transform="translate(116.210938 0)"/>
     <use xlink:href="#DejaVuSerif-Italic-64" transform="translate(180.615234 0)"/>
     <use xlink:href="#DejaVuSerif-Italic-69" transform="translate(244.628906 0)"/>
     <use xlink:href="#DejaVuSerif-Italic-74" transform="translate(276.611328 0)"/>
     <use xlink:href="#DejaVuSerif-Italic-69" transform="translate(316.796875 0)"/>
     <use xlink:href="#DejaVuSerif-Italic-6f" transform="translate(348.779297 0)"/>
     <use xlink:href="#DejaVuSerif-Italic-6e" transform="translate(408.984375 0)"/>
     <use xlink:href="#DejaVuSerif-Italic-69" transform="translate(473.388672 0)"/>
     <use xlink:href="#DejaVuSerif-Italic-6e" transform="translate(505.371094 0)"/>
     <use xlink:href="#DejaVuSerif-Italic-67" transform="translate(569.775391 0)"/>
     <use xlink:href="#DejaVuSerif-Italic-20" transform="translate(633.789062 0)"/>
     <use xlink:href="#DejaVuSerif-Italic-2f" transform="translate(665.576172 0)"/>
     <use xlink:href="#DejaVuSerif-Italic-20" transform="translate(699.267578 0)"/>
     <use xlink:href="#DejaVuSerif-Italic-67" transform="translate(731.054688 0)"/>
     <use xlink:href="#DejaVuSerif-Italic-75" transform="translate(795.068359 0)"/>
     <use xlink:href="#DejaVuSerif-Italic-69" transform="translate(859.472656 0)"/>
     <use xlink:href="#DejaVuSerif-Italic-64" transform="translate(891.455078 0)"/>
     <use xlink:href="#DejaVuSerif-Italic-61" transform="translate(955.46875 0)"/>
     <use xlink:href="#DejaVuSerif-Italic-6e" transform="translate(1015.087891 0)"/>
     <use xlink:href="#DejaVuSerif-Italic-63" transform="translate(1079.492188 0)"/>
     <use xlink:href="#DejaVuSerif-Italic-65" transform="translate(1135.498047 0)"/>
    </g>
   </g>
   <g id="line2d_3">
    <path d="M 19.3968 258.264 
L 48.78 258.264 
" clip-path="url(#p5d8fec7bb7)" style="fill: none; stroke-dasharray: 10,6; stroke-dashoffset: 0; stroke: #6a4a8a; stroke-width: 2"/>
   </g>
   <g id="text_16">
    <!-- stochastic sampling -->
    <g style="fill: #5a6a7a" transform="translate(52.938 260.468391) scale(0.082 -0.082)">
     <use xlink:href="#DejaVuSerif-Italic-73"/>
     <use xlink:href="#DejaVuSerif-Italic-74" transform="translate(51.318359 0)"/>
     <use xlink:href="#DejaVuSerif-Italic-6f" transform="translate(91.503906 0)"/>
     <use xlink:href="#DejaVuSerif-Italic-63" transform="translate(151.708984 0)"/>
     <use xlink:href="#DejaVuSerif-Italic-68" transform="translate(207.714844 0)"/>
     <use xlink:href="#DejaVuSerif-Italic-61" transform="translate(272.119141 0)"/>
     <use xlink:href="#DejaVuSerif-Italic-73" transform="translate(331.738281 0)"/>
     <use xlink:href="#DejaVuSerif-Italic-74" transform="translate(383.056641 0)"/>
     <use xlink:href="#DejaVuSerif-Italic-69" transform="translate(423.242188 0)"/>
     <use xlink:href="#DejaVuSerif-Italic-63" transform="translate(455.224609 0)"/>
     <use xlink:href="#DejaVuSerif-Italic-20" transform="translate(511.230469 0)"/>
     <use xlink:href="#DejaVuSerif-Italic-73" transform="translate(543.017578 0)"/>
     <use xlink:href="#DejaVuSerif-Italic-61" transform="translate(594.335938 0)"/>
     <use xlink:href="#DejaVuSerif-Italic-6d" transform="translate(653.955078 0)"/>
     <use xlink:href="#DejaVuSerif-Italic-70" transform="translate(748.779297 0)"/>
     <use xlink:href="#DejaVuSerif-Italic-6c" transform="translate(812.792969 0)"/>
     <use xlink:href="#DejaVuSerif-Italic-69" transform="translate(844.775391 0)"/>
     <use xlink:href="#DejaVuSerif-Italic-6e" transform="translate(876.757812 0)"/>
     <use xlink:href="#DejaVuSerif-Italic-67" transform="translate(941.162109 0)"/>
    </g>
   </g>
   <g id="line2d_4">
    <path d="M 19.3968 269.352 
L 48.78 269.352 
" clip-path="url(#p5d8fec7bb7)" style="fill: none; stroke: #aa3a3a; stroke-width: 2; stroke-linecap: square"/>
   </g>
   <g id="text_17">
    <!-- loss / gradient -->
    <g style="fill: #5a6a7a" transform="translate(52.938 271.556391) scale(0.082 -0.082)">
     <use xlink:href="#DejaVuSerif-Italic-6c"/>
     <use xlink:href="#DejaVuSerif-Italic-6f" transform="translate(31.982422 0)"/>
     <use xlink:href="#DejaVuSerif-Italic-73" transform="translate(92.1875 0)"/>
     <use xlink:href="#DejaVuSerif-Italic-73" transform="translate(143.505859 0)"/>
     <use xlink:href="#DejaVuSerif-Italic-20" transform="translate(194.824219 0)"/>
     <use xlink:href="#DejaVuSerif-Italic-2f" transform="translate(226.611328 0)"/>
     <use xlink:href="#DejaVuSerif-Italic-20" transform="translate(260.302734 0)"/>
     <use xlink:href="#DejaVuSerif-Italic-67" transform="translate(292.089844 0)"/>
     <use xlink:href="#DejaVuSerif-Italic-72" transform="translate(356.103516 0)"/>
     <use xlink:href="#DejaVuSerif-Italic-61" transform="translate(403.90625 0)"/>
     <use xlink:href="#DejaVuSerif-Italic-64" transform="translate(463.525391 0)"/>
     <use xlink:href="#DejaVuSerif-Italic-69" transform="translate(527.539062 0)"/>
     <use xlink:href="#DejaVuSerif-Italic-65" transform="translate(559.521484 0)"/>
     <use xlink:href="#DejaVuSerif-Italic-6e" transform="translate(618.701172 0)"/>
     <use xlink:href="#DejaVuSerif-Italic-74" transform="translate(683.105469 0)"/>
    </g>
   </g>
   <g id="patch_12">
    <path d="M 111.4272 136.296 
Q 126.396 136.296 139.352339 136.296 
" style="fill: none; stroke: #27445d; stroke-width: 1.8; stroke-linecap: round"/>
    <path d="M 134.552339 133.896 
L 139.352339 136.296 
L 134.552339 138.696 
z
" style="fill: #27445d; stroke: #27445d; stroke-width: 1.8; stroke-linecap: round"/>
   </g>
   <g id="patch_13">
    <path d="M 227.8512 136.296 
Q 242.82 136.296 255.776339 136.296 
" style="fill: none; stroke: #27445d; stroke-width: 1.8; stroke-linecap: round"/>
    <path d="M 250.976339 133.896 
L 255.776339 136.296 
L 250.976339 138.696 
z
" style="fill: #27445d; stroke: #27445d; stroke-width: 1.8; stroke-linecap: round"/>
   </g>
   <g id="patch_14">
    <path d="M 344.2752 136.296 
Q 359.244 136.296 372.200339 136.296 
" style="fill: none; stroke: #27445d; stroke-width: 1.8; stroke-linecap: round"/>
    <path d="M 367.400339 133.896 
L 372.200339 136.296 
L 367.400339 138.696 
z
" style="fill: #27445d; stroke: #27445d; stroke-width: 1.8; stroke-linecap: round"/>
   </g>
   <g id="patch_15">
    <path d="M 460.6992 136.296 
Q 485.37 136.296 508.028339 136.296 
" style="fill: none; stroke: #27445d; stroke-width: 1.8; stroke-linecap: round"/>
    <path d="M 503.228339 133.896 
L 508.028339 136.296 
L 503.228339 138.696 
z
" style="fill: #27445d; stroke: #27445d; stroke-width: 1.8; stroke-linecap: round"/>
   </g>
  </g>
  <g id="text_18">
   <!-- Figure 4(a). Training Phase 1: data preparation (run once) -->
   <g style="fill: #1f2c3a" transform="translate(111.669375 16.318125) scale(0.12 -0.12)">
    <defs>
     <path id="DejaVuSans-Bold-46" d="M 588 4666 
L 3834 4666 
L 3834 3756 
L 1791 3756 
L 1791 2888 
L 3713 2888 
L 3713 1978 
L 1791 1978 
L 1791 0 
L 588 0 
L 588 4666 
z
" transform="scale(0.015625)"/>
     <path id="DejaVuSans-Bold-69" d="M 538 3500 
L 1656 3500 
L 1656 0 
L 538 0 
L 538 3500 
z
M 538 4863 
L 1656 4863 
L 1656 3950 
L 538 3950 
L 538 4863 
z
" transform="scale(0.015625)"/>
     <path id="DejaVuSans-Bold-67" d="M 2919 594 
Q 2688 288 2409 144 
Q 2131 0 1766 0 
Q 1125 0 706 504 
Q 288 1009 288 1791 
Q 288 2575 706 3076 
Q 1125 3578 1766 3578 
Q 2131 3578 2409 3434 
Q 2688 3291 2919 2981 
L 2919 3500 
L 4044 3500 
L 4044 353 
Q 4044 -491 3511 -936 
Q 2978 -1381 1966 -1381 
Q 1638 -1381 1331 -1331 
Q 1025 -1281 716 -1178 
L 716 -306 
Q 1009 -475 1290 -558 
Q 1572 -641 1856 -641 
Q 2406 -641 2662 -400 
Q 2919 -159 2919 353 
L 2919 594 
z
M 2181 2772 
Q 1834 2772 1640 2515 
Q 1447 2259 1447 1791 
Q 1447 1309 1634 1061 
Q 1822 813 2181 813 
Q 2531 813 2725 1069 
Q 2919 1325 2919 1791 
Q 2919 2259 2725 2515 
Q 2531 2772 2181 2772 
z
" transform="scale(0.015625)"/>
     <path id="DejaVuSans-Bold-75" d="M 500 1363 
L 500 3500 
L 1625 3500 
L 1625 3150 
Q 1625 2866 1622 2436 
Q 1619 2006 1619 1863 
Q 1619 1441 1641 1255 
Q 1663 1069 1716 984 
Q 1784 875 1895 815 
Q 2006 756 2150 756 
Q 2500 756 2700 1025 
Q 2900 1294 2900 1772 
L 2900 3500 
L 4019 3500 
L 4019 0 
L 2900 0 
L 2900 506 
Q 2647 200 2364 54 
Q 2081 -91 1741 -91 
Q 1134 -91 817 281 
Q 500 653 500 1363 
z
" transform="scale(0.015625)"/>
     <path id="DejaVuSans-Bold-72" d="M 3138 2547 
Q 2991 2616 2845 2648 
Q 2700 2681 2553 2681 
Q 2122 2681 1889 2404 
Q 1656 2128 1656 1613 
L 1656 0 
L 538 0 
L 538 3500 
L 1656 3500 
L 1656 2925 
Q 1872 3269 2151 3426 
Q 2431 3584 2822 3584 
Q 2878 3584 2943 3579 
Q 3009 3575 3134 3559 
L 3138 2547 
z
" transform="scale(0.015625)"/>
     <path id="DejaVuSans-Bold-65" d="M 4031 1759 
L 4031 1441 
L 1416 1441 
Q 1456 1047 1700 850 
Q 1944 653 2381 653 
Q 2734 653 3104 758 
Q 3475 863 3866 1075 
L 3866 213 
Q 3469 63 3072 -14 
Q 2675 -91 2278 -91 
Q 1328 -91 801 392 
Q 275 875 275 1747 
Q 275 2603 792 3093 
Q 1309 3584 2216 3584 
Q 3041 3584 3536 3087 
Q 4031 2591 4031 1759 
z
M 2881 2131 
Q 2881 2450 2695 2645 
Q 2509 2841 2209 2841 
Q 1884 2841 1681 2658 
Q 1478 2475 1428 2131 
L 2881 2131 
z
" transform="scale(0.015625)"/>
     <path id="DejaVuSans-Bold-20" transform="scale(0.015625)"/>
     <path id="DejaVuSans-Bold-34" d="M 2356 3675 
L 1038 1722 
L 2356 1722 
L 2356 3675 
z
M 2156 4666 
L 3494 4666 
L 3494 1722 
L 4159 1722 
L 4159 850 
L 3494 850 
L 3494 0 
L 2356 0 
L 2356 850 
L 288 850 
L 288 1881 
L 2156 4666 
z
" transform="scale(0.015625)"/>
     <path id="DejaVuSans-Bold-28" d="M 2413 -844 
L 1484 -844 
Q 1006 -72 778 623 
Q 550 1319 550 2003 
Q 550 2688 779 3389 
Q 1009 4091 1484 4856 
L 2413 4856 
Q 2013 4116 1813 3408 
Q 1613 2700 1613 2009 
Q 1613 1319 1811 609 
Q 2009 -100 2413 -844 
z
" transform="scale(0.015625)"/>
     <path id="DejaVuSans-Bold-61" d="M 2106 1575 
Q 1756 1575 1579 1456 
Q 1403 1338 1403 1106 
Q 1403 894 1545 773 
Q 1688 653 1941 653 
Q 2256 653 2472 879 
Q 2688 1106 2688 1447 
L 2688 1575 
L 2106 1575 
z
M 3816 1997 
L 3816 0 
L 2688 0 
L 2688 519 
Q 2463 200 2181 54 
Q 1900 -91 1497 -91 
Q 953 -91 614 226 
Q 275 544 275 1050 
Q 275 1666 698 1953 
Q 1122 2241 2028 2241 
L 2688 2241 
L 2688 2328 
Q 2688 2594 2478 2717 
Q 2269 2841 1825 2841 
Q 1466 2841 1156 2769 
Q 847 2697 581 2553 
L 581 3406 
Q 941 3494 1303 3539 
Q 1666 3584 2028 3584 
Q 2975 3584 3395 3211 
Q 3816 2838 3816 1997 
z
" transform="scale(0.015625)"/>
     <path id="DejaVuSans-Bold-29" d="M 513 -844 
Q 913 -100 1113 609 
Q 1313 1319 1313 2009 
Q 1313 2700 1113 3408 
Q 913 4116 513 4856 
L 1441 4856 
Q 1916 4091 2145 3389 
Q 2375 2688 2375 2003 
Q 2375 1319 2147 623 
Q 1919 -72 1441 -844 
L 513 -844 
z
" transform="scale(0.015625)"/>
     <path id="DejaVuSans-Bold-2e" d="M 653 1209 
L 1778 1209 
L 1778 0 
L 653 0 
L 653 1209 
z
" transform="scale(0.015625)"/>
     <path id="DejaVuSans-Bold-54" d="M 31 4666 
L 4331 4666 
L 4331 3756 
L 2784 3756 
L 2784 0 
L 1581 0 
L 1581 3756 
L 31 3756 
L 31 4666 
z
" transform="scale(0.015625)"/>
     <path id="DejaVuSans-Bold-6e" d="M 4056 2131 
L 4056 0 
L 2931 0 
L 2931 347 
L 2931 1631 
Q 2931 2084 2911 2256 
Q 2891 2428 2841 2509 
Q 2775 2619 2662 2680 
Q 2550 2741 2406 2741 
Q 2056 2741 1856 2470 
Q 1656 2200 1656 1722 
L 1656 0 
L 538 0 
L 538 3500 
L 1656 3500 
L 1656 2988 
Q 1909 3294 2193 3439 
Q 2478 3584 2822 3584 
Q 3428 3584 3742 3212 
Q 4056 2841 4056 2131 
z
" transform="scale(0.015625)"/>
     <path id="DejaVuSans-Bold-50" d="M 588 4666 
L 2584 4666 
Q 3475 4666 3951 4270 
Q 4428 3875 4428 3144 
Q 4428 2409 3951 2014 
Q 3475 1619 2584 1619 
L 1791 1619 
L 1791 0 
L 588 0 
L 588 4666 
z
M 1791 3794 
L 1791 2491 
L 2456 2491 
Q 2806 2491 2997 2661 
Q 3188 2831 3188 3144 
Q 3188 3456 2997 3625 
Q 2806 3794 2456 3794 
L 1791 3794 
z
" transform="scale(0.015625)"/>
     <path id="DejaVuSans-Bold-68" d="M 4056 2131 
L 4056 0 
L 2931 0 
L 2931 347 
L 2931 1625 
Q 2931 2084 2911 2256 
Q 2891 2428 2841 2509 
Q 2775 2619 2662 2680 
Q 2550 2741 2406 2741 
Q 2056 2741 1856 2470 
Q 1656 2200 1656 1722 
L 1656 0 
L 538 0 
L 538 4863 
L 1656 4863 
L 1656 2988 
Q 1909 3294 2193 3439 
Q 2478 3584 2822 3584 
Q 3428 3584 3742 3212 
Q 4056 2841 4056 2131 
z
" transform="scale(0.015625)"/>
     <path id="DejaVuSans-Bold-73" d="M 3272 3391 
L 3272 2541 
Q 2913 2691 2578 2766 
Q 2244 2841 1947 2841 
Q 1628 2841 1473 2761 
Q 1319 2681 1319 2516 
Q 1319 2381 1436 2309 
Q 1553 2238 1856 2203 
L 2053 2175 
Q 2913 2066 3209 1816 
Q 3506 1566 3506 1031 
Q 3506 472 3093 190 
Q 2681 -91 1863 -91 
Q 1516 -91 1145 -36 
Q 775 19 384 128 
L 384 978 
Q 719 816 1070 734 
Q 1422 653 1784 653 
Q 2113 653 2278 743 
Q 2444 834 2444 1013 
Q 2444 1163 2330 1236 
Q 2216 1309 1875 1350 
L 1678 1375 
Q 931 1469 631 1722 
Q 331 1975 331 2491 
Q 331 3047 712 3315 
Q 1094 3584 1881 3584 
Q 2191 3584 2531 3537 
Q 2872 3491 3272 3391 
z
" transform="scale(0.015625)"/>
     <path id="DejaVuSans-Bold-31" d="M 750 831 
L 1813 831 
L 1813 3847 
L 722 3622 
L 722 4441 
L 1806 4666 
L 2950 4666 
L 2950 831 
L 4013 831 
L 4013 0 
L 750 0 
L 750 831 
z
" transform="scale(0.015625)"/>
     <path id="DejaVuSans-Bold-3a" d="M 716 3500 
L 1844 3500 
L 1844 2291 
L 716 2291 
L 716 3500 
z
M 716 1209 
L 1844 1209 
L 1844 0 
L 716 0 
L 716 1209 
z
" transform="scale(0.015625)"/>
     <path id="DejaVuSans-Bold-64" d="M 2919 2988 
L 2919 4863 
L 4044 4863 
L 4044 0 
L 2919 0 
L 2919 506 
Q 2688 197 2409 53 
Q 2131 -91 1766 -91 
Q 1119 -91 703 423 
Q 288 938 288 1747 
Q 288 2556 703 3070 
Q 1119 3584 1766 3584 
Q 2128 3584 2408 3439 
Q 2688 3294 2919 2988 
z
M 2181 722 
Q 2541 722 2730 984 
Q 2919 1247 2919 1747 
Q 2919 2247 2730 2509 
Q 2541 2772 2181 2772 
Q 1825 2772 1636 2509 
Q 1447 2247 1447 1747 
Q 1447 1247 1636 984 
Q 1825 722 2181 722 
z
" transform="scale(0.015625)"/>
     <path id="DejaVuSans-Bold-74" d="M 1759 4494 
L 1759 3500 
L 2913 3500 
L 2913 2700 
L 1759 2700 
L 1759 1216 
Q 1759 972 1856 886 
Q 1953 800 2241 800 
L 2816 800 
L 2816 0 
L 1856 0 
Q 1194 0 917 276 
Q 641 553 641 1216 
L 641 2700 
L 84 2700 
L 84 3500 
L 641 3500 
L 641 4494 
L 1759 4494 
z
" transform="scale(0.015625)"/>
     <path id="DejaVuSans-Bold-70" d="M 1656 506 
L 1656 -1331 
L 538 -1331 
L 538 3500 
L 1656 3500 
L 1656 2988 
Q 1888 3294 2169 3439 
Q 2450 3584 2816 3584 
Q 3463 3584 3878 3070 
Q 4294 2556 4294 1747 
Q 4294 938 3878 423 
Q 3463 -91 2816 -91 
Q 2450 -91 2169 54 
Q 1888 200 1656 506 
z
M 2400 2772 
Q 2041 2772 1848 2508 
Q 1656 2244 1656 1747 
Q 1656 1250 1848 986 
Q 2041 722 2400 722 
Q 2759 722 2948 984 
Q 3138 1247 3138 1747 
Q 3138 2247 2948 2509 
Q 2759 2772 2400 2772 
z
" transform="scale(0.015625)"/>
     <path id="DejaVuSans-Bold-6f" d="M 2203 2784 
Q 1831 2784 1636 2517 
Q 1441 2250 1441 1747 
Q 1441 1244 1636 976 
Q 1831 709 2203 709 
Q 2569 709 2762 976 
Q 2956 1244 2956 1747 
Q 2956 2250 2762 2517 
Q 2569 2784 2203 2784 
z
M 2203 3584 
Q 3106 3584 3614 3096 
Q 4122 2609 4122 1747 
Q 4122 884 3614 396 
Q 3106 -91 2203 -91 
Q 1297 -91 786 396 
Q 275 884 275 1747 
Q 275 2609 786 3096 
Q 1297 3584 2203 3584 
z
" transform="scale(0.015625)"/>
     <path id="DejaVuSans-Bold-63" d="M 3366 3391 
L 3366 2478 
Q 3138 2634 2908 2709 
Q 2678 2784 2431 2784 
Q 1963 2784 1702 2511 
Q 1441 2238 1441 1747 
Q 1441 1256 1702 982 
Q 1963 709 2431 709 
Q 2694 709 2930 787 
Q 3166 866 3366 1019 
L 3366 103 
Q 3103 6 2833 -42 
Q 2563 -91 2291 -91 
Q 1344 -91 809 395 
Q 275 881 275 1747 
Q 275 2613 809 3098 
Q 1344 3584 2291 3584 
Q 2566 3584 2833 3536 
Q 3100 3488 3366 3391 
z
" transform="scale(0.015625)"/>
    </defs>
    <use xlink:href="#DejaVuSans-Bold-46"/>
    <use xlink:href="#DejaVuSans-Bold-69" transform="translate(68.310547 0)"/>
    <use xlink:href="#DejaVuSans-Bold-67" transform="translate(102.587891 0)"/>
    <use xlink:href="#DejaVuSans-Bold-75" transform="translate(174.169922 0)"/>
    <use xlink:href="#DejaVuSans-Bold-72" transform="translate(245.361328 0)"/>
    <use xlink:href="#DejaVuSans-Bold-65" transform="translate(294.677734 0)"/>
    <use xlink:href="#DejaVuSans-Bold-20" transform="translate(362.5 0)"/>
    <use xlink:href="#DejaVuSans-Bold-34" transform="translate(397.314453 0)"/>
    <use xlink:href="#DejaVuSans-Bold-28" transform="translate(466.894531 0)"/>
    <use xlink:href="#DejaVuSans-Bold-61" transform="translate(512.597656 0)"/>
    <use xlink:href="#DejaVuSans-Bold-29" transform="translate(580.078125 0)"/>
    <use xlink:href="#DejaVuSans-Bold-2e" transform="translate(625.78125 0)"/>
    <use xlink:href="#DejaVuSans-Bold-20" transform="translate(663.769531 0)"/>
    <use xlink:href="#DejaVuSans-Bold-54" transform="translate(698.583984 0)"/>
    <use xlink:href="#DejaVuSans-Bold-72" transform="translate(755.796875 0)"/>
    <use xlink:href="#DejaVuSans-Bold-61" transform="translate(805.113281 0)"/>
    <use xlink:href="#DejaVuSans-Bold-69" transform="translate(872.59375 0)"/>
    <use xlink:href="#DejaVuSans-Bold-6e" transform="translate(906.871094 0)"/>
    <use xlink:href="#DejaVuSans-Bold-69" transform="translate(978.0625 0)"/>
    <use xlink:href="#DejaVuSans-Bold-6e" transform="translate(1012.339844 0)"/>
    <use xlink:href="#DejaVuSans-Bold-67" transform="translate(1083.53125 0)"/>
    <use xlink:href="#DejaVuSans-Bold-20" transform="translate(1155.113281 0)"/>
    <use xlink:href="#DejaVuSans-Bold-50" transform="translate(1189.927734 0)"/>
    <use xlink:href="#DejaVuSans-Bold-68" transform="translate(1263.21875 0)"/>
    <use xlink:href="#DejaVuSans-Bold-61" transform="translate(1334.410156 0)"/>
    <use xlink:href="#DejaVuSans-Bold-73" transform="translate(1401.890625 0)"/>
    <use xlink:href="#DejaVuSans-Bold-65" transform="translate(1461.412109 0)"/>
    <use xlink:href="#DejaVuSans-Bold-20" transform="translate(1529.234375 0)"/>
    <use xlink:href="#DejaVuSans-Bold-31" transform="translate(1564.048828 0)"/>
    <use xlink:href="#DejaVuSans-Bold-3a" transform="translate(1633.628906 0)"/>
    <use xlink:href="#DejaVuSans-Bold-20" transform="translate(1673.619141 0)"/>
    <use xlink:href="#DejaVuSans-Bold-64" transform="translate(1708.433594 0)"/>
    <use xlink:href="#DejaVuSans-Bold-61" transform="translate(1780.015625 0)"/>
    <use xlink:href="#DejaVuSans-Bold-74" transform="translate(1847.496094 0)"/>
    <use xlink:href="#DejaVuSans-Bold-61" transform="translate(1895.298828 0)"/>
    <use xlink:href="#DejaVuSans-Bold-20" transform="translate(1962.779297 0)"/>
    <use xlink:href="#DejaVuSans-Bold-70" transform="translate(1997.59375 0)"/>
    <use xlink:href="#DejaVuSans-Bold-72" transform="translate(2069.175781 0)"/>
    <use xlink:href="#DejaVuSans-Bold-65" transform="translate(2118.492188 0)"/>
    <use xlink:href="#DejaVuSans-Bold-70" transform="translate(2186.314453 0)"/>
    <use xlink:href="#DejaVuSans-Bold-61" transform="translate(2257.896484 0)"/>
    <use xlink:href="#DejaVuSans-Bold-72" transform="translate(2325.376953 0)"/>
    <use xlink:href="#DejaVuSans-Bold-61" transform="translate(2374.693359 0)"/>
    <use xlink:href="#DejaVuSans-Bold-74" transform="translate(2442.173828 0)"/>
    <use xlink:href="#DejaVuSans-Bold-69" transform="translate(2489.976562 0)"/>
    <use xlink:href="#DejaVuSans-Bold-6f" transform="translate(2524.253906 0)"/>
    <use xlink:href="#DejaVuSans-Bold-6e" transform="translate(2592.955078 0)"/>
    <use xlink:href="#DejaVuSans-Bold-20" transform="translate(2664.146484 0)"/>
    <use xlink:href="#DejaVuSans-Bold-28" transform="translate(2698.960938 0)"/>
    <use xlink:href="#DejaVuSans-Bold-72" transform="translate(2744.664062 0)"/>
    <use xlink:href="#DejaVuSans-Bold-75" transform="translate(2793.980469 0)"/>
    <use xlink:href="#DejaVuSans-Bold-6e" transform="translate(2865.171875 0)"/>
    <use xlink:href="#DejaVuSans-Bold-20" transform="translate(2936.363281 0)"/>
    <use xlink:href="#DejaVuSans-Bold-6f" transform="translate(2971.177734 0)"/>
    <use xlink:href="#DejaVuSans-Bold-6e" transform="translate(3039.878906 0)"/>
    <use xlink:href="#DejaVuSans-Bold-63" transform="translate(3111.070312 0)"/>
    <use xlink:href="#DejaVuSans-Bold-65" transform="translate(3170.347656 0)"/>
    <use xlink:href="#DejaVuSans-Bold-29" transform="translate(3238.169922 0)"/>
   </g>
  </g>
 </g>
 <defs>
  <clipPath id="p5d8fec7bb7">
   <rect x="7.2" y="42.048" width="623.7" height="243.936"/>
  </clipPath>
 </defs>
</svg>
