<?xml version="1.0" encoding="utf-8" standalone="no"?>
<!DOCTYPE svg PUBLIC "-//W3C//DTD SVG 1.1//EN"
  "http://www.w3.org/Graphics/SVG/1.1/DTD/svg11.dtd">
<svg xmlns:xlink="http://www.w3.org/1999/xlink" width="743.2pt" height="305.92pt" viewBox="0 0 743.2 305.92" xmlns="http://www.w3.org/2000/svg" version="1.1">
 <metadata>
  <rdf:RDF xmlns:dc="http://purl.org/dc/elements/1.1/" xmlns:cc="http://creativecommons.org/ns#" xmlns:rdf="http://www.w3.org/1999/02/22-rdf-syntax-ns#">
   <cc:Work>
    <dc:type rdf:resource="http://purl.org/dc/dcmitype/StillImage"/>
    <dc:date>2026-04-28T13:38:45.244630</dc:date>
    <dc:format>image/svg+xml</dc:format>
    <dc:creator>
     <cc:Agent>
      <dc:title>Matplotlib v3.10.8, https://matplotlib.org/</dc:title>
     </cc:Agent>
    </dc:creator>
   </cc:Work>
  </rdf:RDF>
 </metadata>
 <defs>
  <style type="text/css">*{stroke-linejoin: round; stroke-linecap: butt}</style>
 </defs>
 <g id="figure_1">
  <g id="patch_1">
   <path d="M 0 305.92 
L 743.2 305.92 
L 743.2 0 
L 0 0 
z
" style="fill: #ffffff"/>
  </g>
  <g id="axes_1">
   <g id="patch_2">
    <path d="M 166.625 120.6195 
L 270.479 120.6195 
Q 278.678 120.6195 278.678 112.4205 
L 278.678 63.2265 
Q 278.678 55.0275 270.479 55.0275 
L 166.625 55.0275 
Q 158.426 55.0275 158.426 63.2265 
L 158.426 112.4205 
Q 158.426 120.6195 166.625 120.6195 
z
" clip-path="url(#p82e5db8612)" style="fill: #0a1620; opacity: 0.13"/>
   </g>
   <g id="patch_3">
    <path d="M 307.83 120.6195 
L 439.014 120.6195 
Q 447.213 120.6195 447.213 112.4205 
L 447.213 63.2265 
Q 447.213 55.0275 439.014 55.0275 
L 307.83 55.0275 
Q 299.631 55.0275 299.631 63.2265 
L 299.631 112.4205 
Q 299.631 120.6195 307.83 120.6195 
z
" clip-path="url(#p82e5db8612)" style="fill: #0a1620; opacity: 0.13"/>
   </g>
   <g id="patch_4">
    <path d="M 29.975 266.3795 
L 133.829 266.3795 
Q 142.028 266.3795 142.028 258.1805 
L 142.028 208.9865 
Q 142.028 200.7875 133.829 200.7875 
L 29.975 200.7875 
Q 21.776 200.7875 21.776 208.9865 
L 21.776 258.1805 
Q 21.776 266.3795 29.975 266.3795 
z
" clip-path="url(#p82e5db8612)" style="fill: #0a1620; opacity: 0.13"/>
   </g>
   <g id="patch_5">
    <path d="M 166.625 266.3795 
L 270.479 266.3795 
Q 278.678 266.3795 278.678 258.1805 
L 278.678 208.9865 
Q 278.678 200.7875 270.479 200.7875 
L 166.625 200.7875 
Q 158.426 200.7875 158.426 208.9865 
L 158.426 258.1805 
Q 158.426 266.3795 166.625 266.3795 
z
" clip-path="url(#p82e5db8612)" style="fill: #0a1620; opacity: 0.13"/>
   </g>
   <g id="patch_6">
    <path d="M 307.83 266.3795 
L 439.014 266.3795 
Q 447.213 266.3795 447.213 258.1805 
L 447.213 208.9865 
Q 447.213 200.7875 439.014 200.7875 
L 307.83 200.7875 
Q 299.631 200.7875 299.631 208.9865 
L 299.631 258.1805 
Q 299.631 266.3795 307.83 266.3795 
z
" clip-path="url(#p82e5db8612)" style="fill: #0a1620; opacity: 0.13"/>
   </g>
   <g id="patch_7">
    <path d="M 476.365 266.3795 
L 580.219 266.3795 
Q 588.418 266.3795 588.418 258.1805 
L 588.418 208.9865 
Q 588.418 200.7875 580.219 200.7875 
L 476.365 200.7875 
Q 468.166 200.7875 468.166 208.9865 
L 468.166 258.1805 
Q 468.166 266.3795 476.365 266.3795 
z
" clip-path="url(#p82e5db8612)" style="fill: #0a1620; opacity: 0.13"/>
   </g>
   <g id="patch_8">
    <path d="M 613.015 266.3795 
L 716.869 266.3795 
Q 725.068 266.3795 725.068 258.1805 
L 725.068 208.9865 
Q 725.068 200.7875 716.869 200.7875 
L 613.015 200.7875 
Q 604.816 200.7875 604.816 208.9865 
L 604.816 258.1805 
Q 604.816 266.3795 613.015 266.3795 
z
" clip-path="url(#p82e5db8612)" style="fill: #0a1620; opacity: 0.13"/>
   </g>
   <g id="patch_9">
    <path d="M 164.803 117.431 
L 268.657 117.431 
Q 276.856 117.431 276.856 109.232 
L 276.856 60.038 
Q 276.856 51.839 268.657 51.839 
L 164.803 51.839 
Q 156.604 51.839 156.604 60.038 
L 156.604 109.232 
Q 156.604 117.431 164.803 117.431 
z
" clip-path="url(#p82e5db8612)" style="fill: #fdf3d8; stroke: #b88a25; stroke-width: 1.6; stroke-linejoin: miter"/>
   </g>
   <g id="patch_10">
    <path d="M 306.008 117.431 
L 437.192 117.431 
Q 445.391 117.431 445.391 109.232 
L 445.391 60.038 
Q 445.391 51.839 437.192 51.839 
L 306.008 51.839 
Q 297.809 51.839 297.809 60.038 
L 297.809 109.232 
Q 297.809 117.431 306.008 117.431 
z
" clip-path="url(#p82e5db8612)" style="fill: #dde6e9; stroke: #27445d; stroke-width: 1.6; stroke-linejoin: miter"/>
   </g>
   <g id="patch_11">
    <path d="M 28.153 263.191 
L 132.007 263.191 
Q 140.206 263.191 140.206 254.992 
L 140.206 205.798 
Q 140.206 197.599 132.007 197.599 
L 28.153 197.599 
Q 19.954 197.599 19.954 205.798 
L 19.954 254.992 
Q 19.954 263.191 28.153 263.191 
z
" clip-path="url(#p82e5db8612)" style="fill: #f6f3ed; stroke: #27445d; stroke-width: 1.6; stroke-linejoin: miter"/>
   </g>
   <g id="patch_12">
    <path d="M 164.803 263.191 
L 268.657 263.191 
Q 276.856 263.191 276.856 254.992 
L 276.856 205.798 
Q 276.856 197.599 268.657 197.599 
L 164.803 197.599 
Q 156.604 197.599 156.604 205.798 
L 156.604 254.992 
Q 156.604 263.191 164.803 263.191 
z
" clip-path="url(#p82e5db8612)" style="fill: #dde6e9; stroke: #27445d; stroke-width: 1.6; stroke-linejoin: miter"/>
   </g>
   <g id="patch_13">
    <path d="M 306.008 263.191 
L 437.192 263.191 
Q 445.391 263.191 445.391 254.992 
L 445.391 205.798 
Q 445.391 197.599 437.192 197.599 
L 306.008 197.599 
Q 297.809 197.599 297.809 205.798 
L 297.809 254.992 
Q 297.809 263.191 306.008 263.191 
z
" clip-path="url(#p82e5db8612)" style="fill: #fdf3d8; stroke: #b88a25; stroke-width: 1.6; stroke-linejoin: miter"/>
   </g>
   <g id="patch_14">
    <path d="M 474.543 263.191 
L 578.397 263.191 
Q 586.596 263.191 586.596 254.992 
L 586.596 205.798 
Q 586.596 197.599 578.397 197.599 
L 474.543 197.599 
Q 466.344 197.599 466.344 205.798 
L 466.344 254.992 
Q 466.344 263.191 474.543 263.191 
z
" clip-path="url(#p82e5db8612)" style="fill: #dde6e9; stroke: #27445d; stroke-width: 1.6; stroke-linejoin: miter"/>
   </g>
   <g id="patch_15">
    <path d="M 611.193 263.191 
L 715.047 263.191 
Q 723.246 263.191 723.246 254.992 
L 723.246 205.798 
Q 723.246 197.599 715.047 197.599 
L 611.193 197.599 
Q 602.994 197.599 602.994 205.798 
L 602.994 254.992 
Q 602.994 263.191 611.193 263.191 
z
" clip-path="url(#p82e5db8612)" style="fill: #f6f3ed; stroke: #27445d; stroke-width: 1.6; stroke-linejoin: miter"/>
   </g>
   <g id="text_1">
    <!-- CONDITIONING -->
    <g style="fill: #8a9aaa" transform="translate(25.42 34.735937) scale(0.09 -0.09)">
     <defs>
      <path id="DejaVuSerif-43" d="M 4513 1234 
Q 4306 581 3820 245 
Q 3334 -91 2591 -91 
Q 2134 -91 1743 65 
Q 1353 222 1050 525 
Q 700 875 529 1320 
Q 359 1766 359 2328 
Q 359 3416 987 4083 
Q 1616 4750 2644 4750 
Q 3025 4750 3456 4650 
Q 3888 4550 4384 4347 
L 4384 3272 
L 4031 3272 
Q 3916 3859 3567 4137 
Q 3219 4416 2591 4416 
Q 1844 4416 1459 3886 
Q 1075 3356 1075 2328 
Q 1075 1303 1459 773 
Q 1844 244 2591 244 
Q 3113 244 3450 492 
Q 3788 741 3938 1234 
L 4513 1234 
z
" transform="scale(0.015625)"/>
      <path id="DejaVuSerif-4f" d="M 2625 244 
Q 3391 244 3781 770 
Q 4172 1297 4172 2328 
Q 4172 3363 3781 3889 
Q 3391 4416 2625 4416 
Q 1856 4416 1465 3889 
Q 1075 3363 1075 2328 
Q 1075 1297 1465 770 
Q 1856 244 2625 244 
z
M 2625 -91 
Q 2150 -91 1751 65 
Q 1353 222 1050 525 
Q 700 875 529 1319 
Q 359 1763 359 2328 
Q 359 2894 529 3339 
Q 700 3784 1050 4134 
Q 1356 4441 1750 4595 
Q 2144 4750 2625 4750 
Q 3641 4750 4266 4084 
Q 4891 3419 4891 2328 
Q 4891 1769 4719 1320 
Q 4547 872 4197 525 
Q 3891 219 3497 64 
Q 3103 -91 2625 -91 
z
" transform="scale(0.015625)"/>
      <path id="DejaVuSerif-4e" d="M 313 0 
L 313 331 
L 941 331 
L 941 4331 
L 313 4331 
L 313 4666 
L 1509 4666 
L 4306 984 
L 4306 4331 
L 3681 4331 
L 3681 4666 
L 5319 4666 
L 5319 4331 
L 4691 4331 
L 4691 -91 
L 4313 -91 
L 1325 3841 
L 1325 331 
L 1953 331 
L 1953 0 
L 313 0 
z
" transform="scale(0.015625)"/>
      <path id="DejaVuSerif-44" d="M 1581 331 
L 2163 331 
Q 3072 331 3558 850 
Q 4044 1369 4044 2338 
Q 4044 3306 3559 3818 
Q 3075 4331 2163 4331 
L 1581 4331 
L 1581 331 
z
M 353 0 
L 353 331 
L 947 331 
L 947 4331 
L 353 4331 
L 353 4666 
L 2209 4666 
Q 3416 4666 4089 4050 
Q 4763 3434 4763 2338 
Q 4763 1238 4088 619 
Q 3413 0 2209 0 
L 353 0 
z
" transform="scale(0.015625)"/>
      <path id="DejaVuSerif-49" d="M 1581 331 
L 2175 331 
L 2175 0 
L 353 0 
L 353 331 
L 947 331 
L 947 4331 
L 353 4331 
L 353 4666 
L 2175 4666 
L 2175 4331 
L 1581 4331 
L 1581 331 
z
" transform="scale(0.015625)"/>
      <path id="DejaVuSerif-54" d="M 1222 0 
L 1222 331 
L 1819 331 
L 1819 4294 
L 447 4294 
L 447 3566 
L 63 3566 
L 63 4666 
L 4206 4666 
L 4206 3566 
L 3822 3566 
L 3822 4294 
L 2450 4294 
L 2450 331 
L 3047 331 
L 3047 0 
L 1222 0 
z
" transform="scale(0.015625)"/>
      <path id="DejaVuSerif-47" d="M 4097 3272 
Q 3988 3856 3641 4136 
Q 3294 4416 2675 4416 
Q 1869 4416 1472 3897 
Q 1075 3378 1075 2328 
Q 1075 1300 1484 772 
Q 1894 244 2688 244 
Q 3041 244 3362 331 
Q 3684 419 3975 594 
L 3975 1797 
L 3097 1797 
L 3097 2131 
L 4609 2131 
L 4609 391 
Q 4194 150 3714 29 
Q 3234 -91 2688 -91 
Q 1631 -91 995 570 
Q 359 1231 359 2328 
Q 359 3434 996 4092 
Q 1634 4750 2713 4750 
Q 3113 4750 3539 4658 
Q 3966 4566 4447 4378 
L 4447 3272 
L 4097 3272 
z
" transform="scale(0.015625)"/>
     </defs>
     <use xlink:href="#DejaVuSerif-43"/>
     <use xlink:href="#DejaVuSerif-4f" transform="translate(76.513672 0)"/>
     <use xlink:href="#DejaVuSerif-4e" transform="translate(158.496094 0)"/>
     <use xlink:href="#DejaVuSerif-44" transform="translate(245.996094 0)"/>
     <use xlink:href="#DejaVuSerif-49" transform="translate(326.171875 0)"/>
     <use xlink:href="#DejaVuSerif-54" transform="translate(365.673828 0)"/>
     <use xlink:href="#DejaVuSerif-49" transform="translate(432.373047 0)"/>
     <use xlink:href="#DejaVuSerif-4f" transform="translate(471.875 0)"/>
     <use xlink:href="#DejaVuSerif-4e" transform="translate(553.857422 0)"/>
     <use xlink:href="#DejaVuSerif-49" transform="translate(641.357422 0)"/>
     <use xlink:href="#DejaVuSerif-4e" transform="translate(680.859375 0)"/>
     <use xlink:href="#DejaVuSerif-47" transform="translate(768.359375 0)"/>
    </g>
   </g>
   <g id="text_2">
    <!-- ENCODE  /  DECODE  PIPELINE -->
    <g style="fill: #8a9aaa" transform="translate(25.42 180.495937) scale(0.09 -0.09)">
     <defs>
      <path id="DejaVuSerif-45" d="M 353 0 
L 353 331 
L 947 331 
L 947 4331 
L 353 4331 
L 353 4666 
L 4109 4666 
L 4109 3628 
L 3725 3628 
L 3725 4281 
L 1581 4281 
L 1581 2719 
L 3109 2719 
L 3109 3303 
L 3494 3303 
L 3494 1753 
L 3109 1753 
L 3109 2338 
L 1581 2338 
L 1581 384 
L 3775 384 
L 3775 1038 
L 4159 1038 
L 4159 0 
L 353 0 
z
" transform="scale(0.015625)"/>
      <path id="DejaVuSerif-20" transform="scale(0.015625)"/>
      <path id="DejaVuSerif-2f" d="M 1656 4666 
L 2156 4666 
L 500 -594 
L 0 -594 
L 1656 4666 
z
" transform="scale(0.015625)"/>
      <path id="DejaVuSerif-50" d="M 1581 2375 
L 2406 2375 
Q 2872 2375 3115 2626 
Q 3359 2878 3359 3353 
Q 3359 3831 3115 4081 
Q 2872 4331 2406 4331 
L 1581 4331 
L 1581 2375 
z
M 353 0 
L 353 331 
L 947 331 
L 947 4331 
L 353 4331 
L 353 4666 
L 2559 4666 
Q 3259 4666 3668 4311 
Q 4078 3956 4078 3353 
Q 4078 2753 3668 2397 
Q 3259 2041 2559 2041 
L 1581 2041 
L 1581 331 
L 2303 331 
L 2303 0 
L 353 0 
z
" transform="scale(0.015625)"/>
      <path id="DejaVuSerif-4c" d="M 353 0 
L 353 331 
L 947 331 
L 947 4331 
L 353 4331 
L 353 4666 
L 2175 4666 
L 2175 4331 
L 1581 4331 
L 1581 384 
L 3713 384 
L 3713 1166 
L 4097 1166 
L 4097 0 
L 353 0 
z
" transform="scale(0.015625)"/>
     </defs>
     <use xlink:href="#DejaVuSerif-45"/>
     <use xlink:href="#DejaVuSerif-4e" transform="translate(72.998047 0)"/>
     <use xlink:href="#DejaVuSerif-43" transform="translate(160.498047 0)"/>
     <use xlink:href="#DejaVuSerif-4f" transform="translate(237.011719 0)"/>
     <use xlink:href="#DejaVuSerif-44" transform="translate(318.994141 0)"/>
     <use xlink:href="#DejaVuSerif-45" transform="translate(399.169922 0)"/>
     <use xlink:href="#DejaVuSerif-20" transform="translate(472.167969 0)"/>
     <use xlink:href="#DejaVuSerif-20" transform="translate(503.955078 0)"/>
     <use xlink:href="#DejaVuSerif-2f" transform="translate(535.742188 0)"/>
     <use xlink:href="#DejaVuSerif-20" transform="translate(569.433594 0)"/>
     <use xlink:href="#DejaVuSerif-20" transform="translate(601.220703 0)"/>
     <use xlink:href="#DejaVuSerif-44" transform="translate(633.007812 0)"/>
     <use xlink:href="#DejaVuSerif-45" transform="translate(713.183594 0)"/>
     <use xlink:href="#DejaVuSerif-43" transform="translate(786.181641 0)"/>
     <use xlink:href="#DejaVuSerif-4f" transform="translate(862.695312 0)"/>
     <use xlink:href="#DejaVuSerif-44" transform="translate(944.677734 0)"/>
     <use xlink:href="#DejaVuSerif-45" transform="translate(1024.853516 0)"/>
     <use xlink:href="#DejaVuSerif-20" transform="translate(1097.851562 0)"/>
     <use xlink:href="#DejaVuSerif-20" transform="translate(1129.638672 0)"/>
     <use xlink:href="#DejaVuSerif-50" transform="translate(1161.425781 0)"/>
     <use xlink:href="#DejaVuSerif-49" transform="translate(1228.710938 0)"/>
     <use xlink:href="#DejaVuSerif-50" transform="translate(1268.212891 0)"/>
     <use xlink:href="#DejaVuSerif-45" transform="translate(1335.498047 0)"/>
     <use xlink:href="#DejaVuSerif-4c" transform="translate(1408.496094 0)"/>
     <use xlink:href="#DejaVuSerif-49" transform="translate(1474.902344 0)"/>
     <use xlink:href="#DejaVuSerif-4e" transform="translate(1514.404297 0)"/>
     <use xlink:href="#DejaVuSerif-45" transform="translate(1601.904297 0)"/>
    </g>
   </g>
   <g id="text_3">
    <!-- Cond. mask m -->
    <g style="fill: #1f2c3a" transform="translate(167.020039 78.063219) scale(0.125 -0.125)">
     <defs>
      <path id="DejaVuSerif-Bold-43" d="M 4769 1331 
Q 4584 609 4106 259 
Q 3628 -91 2822 -91 
Q 1641 -91 955 561 
Q 269 1213 269 2328 
Q 269 3447 955 4098 
Q 1641 4750 2822 4750 
Q 3238 4750 3688 4650 
Q 4138 4550 4641 4347 
L 4641 3200 
L 4244 3200 
Q 4122 3788 3800 4080 
Q 3478 4372 2950 4372 
Q 2269 4372 1937 3870 
Q 1606 3369 1606 2328 
Q 1606 1288 1937 788 
Q 2269 288 2956 288 
Q 3422 288 3717 547 
Q 4013 806 4147 1331 
L 4769 1331 
z
" transform="scale(0.015625)"/>
      <path id="DejaVuSerif-Bold-6f" d="M 2138 263 
Q 2488 263 2630 563 
Q 2772 863 2772 1663 
Q 2772 2463 2631 2761 
Q 2491 3059 2138 3059 
Q 1784 3059 1640 2757 
Q 1497 2456 1497 1663 
Q 1497 869 1640 566 
Q 1784 263 2138 263 
z
M 2138 -91 
Q 1259 -91 761 376 
Q 263 844 263 1663 
Q 263 2484 761 2948 
Q 1259 3413 2138 3413 
Q 3019 3413 3516 2948 
Q 4013 2484 4013 1663 
Q 4013 844 3514 376 
Q 3016 -91 2138 -91 
z
" transform="scale(0.015625)"/>
      <path id="DejaVuSerif-Bold-6e" d="M 219 0 
L 219 378 
L 691 378 
L 691 2944 
L 219 2944 
L 219 3322 
L 1797 3322 
L 1797 2853 
Q 1997 3150 2253 3281 
Q 2509 3413 2900 3413 
Q 3459 3413 3745 3083 
Q 4031 2753 4031 2113 
L 4031 378 
L 4506 378 
L 4506 0 
L 2522 0 
L 2522 378 
L 2925 378 
L 2925 2144 
Q 2925 2566 2817 2730 
Q 2709 2894 2444 2894 
Q 2109 2894 1953 2648 
Q 1797 2403 1797 1869 
L 1797 378 
L 2203 378 
L 2203 0 
L 219 0 
z
" transform="scale(0.015625)"/>
      <path id="DejaVuSerif-Bold-64" d="M 2747 1497 
L 2747 1825 
Q 2747 2406 2597 2665 
Q 2447 2925 2119 2925 
Q 1775 2925 1636 2651 
Q 1497 2378 1497 1663 
Q 1497 947 1637 672 
Q 1778 397 2119 397 
Q 2447 397 2597 656 
Q 2747 916 2747 1497 
z
M 3853 378 
L 4325 378 
L 4325 0 
L 2747 0 
L 2747 422 
Q 2606 163 2367 36 
Q 2128 -91 1778 -91 
Q 1072 -91 667 378 
Q 263 847 263 1663 
Q 263 2481 667 2947 
Q 1072 3413 1778 3413 
Q 2128 3413 2367 3286 
Q 2606 3159 2747 2900 
L 2747 4488 
L 2272 4488 
L 2272 4863 
L 3853 4863 
L 3853 378 
z
" transform="scale(0.015625)"/>
      <path id="DejaVuSerif-Bold-2e" d="M 519 506 
Q 519 750 694 925 
Q 869 1100 1113 1100 
Q 1359 1100 1534 925 
Q 1709 750 1709 506 
Q 1709 259 1534 84 
Q 1359 -91 1113 -91 
Q 869 -91 694 84 
Q 519 259 519 506 
z
" transform="scale(0.015625)"/>
      <path id="DejaVuSerif-Bold-20" transform="scale(0.015625)"/>
      <path id="DejaVuSerif-Bold-6d" d="M 3884 2778 
Q 4116 3109 4384 3261 
Q 4653 3413 5013 3413 
Q 5584 3413 5867 3089 
Q 6150 2766 6150 2113 
L 6150 378 
L 6625 378 
L 6625 0 
L 4647 0 
L 4647 378 
L 5044 378 
L 5044 1947 
Q 5044 2569 4948 2731 
Q 4853 2894 4594 2894 
Q 4300 2894 4137 2667 
Q 3975 2441 3975 2022 
L 3975 378 
L 4372 378 
L 4372 0 
L 2472 0 
L 2472 378 
L 2869 378 
L 2869 1947 
Q 2869 2569 2772 2731 
Q 2675 2894 2419 2894 
Q 2122 2894 1959 2667 
Q 1797 2441 1797 2022 
L 1797 378 
L 2194 378 
L 2194 0 
L 219 0 
L 219 378 
L 691 378 
L 691 2944 
L 219 2944 
L 219 3322 
L 1797 3322 
L 1797 2853 
Q 1991 3144 2241 3278 
Q 2491 3413 2834 3413 
Q 3241 3413 3494 3258 
Q 3747 3103 3884 2778 
z
" transform="scale(0.015625)"/>
      <path id="DejaVuSerif-Bold-61" d="M 3525 2041 
L 3525 378 
L 4000 378 
L 4000 0 
L 2419 0 
L 2419 422 
Q 2200 159 1931 34 
Q 1663 -91 1319 -91 
Q 809 -91 536 182 
Q 263 456 263 966 
Q 263 1525 655 1803 
Q 1047 2081 1838 2081 
L 2419 2081 
L 2419 2278 
Q 2419 2681 2228 2873 
Q 2038 3066 1638 3066 
Q 1306 3066 1126 2930 
Q 947 2794 872 2484 
L 519 2484 
L 519 3200 
Q 816 3306 1134 3359 
Q 1453 3413 1806 3413 
Q 2697 3413 3111 3081 
Q 3525 2750 3525 2041 
z
M 2419 1044 
L 2419 1709 
L 2003 1709 
Q 1694 1709 1528 1540 
Q 1363 1372 1363 1056 
Q 1363 741 1483 584 
Q 1603 428 1850 428 
Q 2106 428 2262 597 
Q 2419 766 2419 1044 
z
" transform="scale(0.015625)"/>
      <path id="DejaVuSerif-Bold-73" d="M 300 97 
L 300 1025 
L 653 1025 
Q 697 653 931 458 
Q 1166 263 1569 263 
Q 1906 263 2086 380 
Q 2266 497 2266 716 
Q 2266 916 2152 1025 
Q 2038 1134 1709 1216 
L 1253 1331 
Q 738 1459 506 1698 
Q 275 1938 275 2344 
Q 275 2884 650 3148 
Q 1025 3413 1806 3413 
Q 2100 3413 2433 3364 
Q 2766 3316 3169 3213 
L 3169 2375 
L 2816 2375 
Q 2788 2716 2573 2887 
Q 2359 3059 1959 3059 
Q 1622 3059 1448 2951 
Q 1275 2844 1275 2638 
Q 1275 2469 1375 2372 
Q 1475 2275 1734 2209 
L 2188 2094 
Q 2841 1928 3091 1684 
Q 3341 1441 3341 1006 
Q 3341 444 2939 176 
Q 2538 -91 1691 -91 
Q 1381 -91 1034 -44 
Q 688 3 300 97 
z
" transform="scale(0.015625)"/>
      <path id="DejaVuSerif-Bold-6b" d="M 2216 0 
L 219 0 
L 219 378 
L 691 378 
L 691 4488 
L 219 4488 
L 219 4863 
L 1797 4863 
L 1797 1741 
L 3138 2944 
L 2741 2944 
L 2741 3322 
L 4256 3322 
L 4256 2944 
L 3641 2944 
L 2784 2175 
L 4184 378 
L 4544 378 
L 4544 0 
L 2638 0 
L 2638 378 
L 3028 378 
L 2106 1563 
L 1797 1288 
L 1797 378 
L 2216 378 
L 2216 0 
z
" transform="scale(0.015625)"/>
     </defs>
     <use xlink:href="#DejaVuSerif-Bold-43"/>
     <use xlink:href="#DejaVuSerif-Bold-6f" transform="translate(79.589844 0)"/>
     <use xlink:href="#DejaVuSerif-Bold-6e" transform="translate(146.289062 0)"/>
     <use xlink:href="#DejaVuSerif-Bold-64" transform="translate(218.994141 0)"/>
     <use xlink:href="#DejaVuSerif-Bold-2e" transform="translate(288.916016 0)"/>
     <use xlink:href="#DejaVuSerif-Bold-20" transform="translate(323.730469 0)"/>
     <use xlink:href="#DejaVuSerif-Bold-6d" transform="translate(358.544922 0)"/>
     <use xlink:href="#DejaVuSerif-Bold-61" transform="translate(464.355469 0)"/>
     <use xlink:href="#DejaVuSerif-Bold-73" transform="translate(529.150391 0)"/>
     <use xlink:href="#DejaVuSerif-Bold-6b" transform="translate(585.449219 0)"/>
     <use xlink:href="#DejaVuSerif-Bold-20" transform="translate(654.736328 0)"/>
     <use xlink:href="#DejaVuSerif-Bold-6d" transform="translate(689.550781 0)"/>
    </g>
   </g>
   <g id="text_4">
    <!-- Tier-A/B → 1, else 0 -->
    <g style="fill: #5a6a7a" transform="translate(169.681992 100.010406) scale(0.095 -0.095)">
     <defs>
      <path id="DejaVuSerif-Italic-54" d="M 769 0 
L 831 331 
L 1428 331 
L 2200 4294 
L 828 4294 
L 688 3566 
L 303 3566 
L 516 4666 
L 4659 4666 
L 4447 3566 
L 4063 3566 
L 4203 4294 
L 2831 4294 
L 2059 331 
L 2656 331 
L 2594 0 
L 769 0 
z
" transform="scale(0.015625)"/>
      <path id="DejaVuSerif-Italic-69" d="M 1009 4353 
Q 1038 4497 1163 4603 
Q 1288 4709 1434 4709 
Q 1578 4709 1663 4603 
Q 1728 4522 1728 4422 
Q 1728 4388 1719 4353 
Q 1691 4206 1567 4103 
Q 1444 4000 1297 4000 
Q 1150 4000 1066 4103 
Q 1003 4181 1003 4281 
Q 1003 4316 1009 4353 
z
M 963 331 
L 1506 331 
L 1444 0 
L 325 0 
L 903 2988 
L 353 2988 
L 419 3322 
L 1544 3322 
L 963 331 
z
" transform="scale(0.015625)"/>
      <path id="DejaVuSerif-Italic-65" d="M 938 1275 
Q 925 1156 925 1050 
Q 925 756 1031 563 
Q 1216 219 1709 219 
Q 2072 219 2250 328 
Q 2569 525 2644 778 
L 3066 778 
Q 2941 381 2475 103 
Q 2150 -91 1506 -91 
Q 863 -91 516 388 
Q 272 722 272 1206 
Q 272 1419 319 1659 
Q 472 2450 1000 2931 
Q 1528 3413 2278 3413 
Q 3500 3413 3500 2547 
Q 3500 1913 2859 1603 
Q 2206 1288 938 1275 
z
M 2541 1975 
Q 2891 2181 2891 2569 
Q 2891 3103 2181 3103 
Q 1763 3103 1472 2784 
Q 1181 2466 1003 1606 
Q 2006 1653 2541 1975 
z
" transform="scale(0.015625)"/>
      <path id="DejaVuSerif-Italic-72" d="M 3375 3328 
L 3213 2497 
L 2881 2497 
Q 2891 2559 2891 2613 
Q 2891 2775 2816 2866 
Q 2719 2988 2484 2988 
Q 2059 2988 1775 2694 
Q 1491 2400 1384 1850 
L 1025 0 
L 450 0 
L 1031 2994 
L 481 2994 
L 544 3322 
L 1669 3322 
L 1556 2731 
Q 1791 3078 2089 3245 
Q 2388 3413 2769 3413 
Q 2909 3413 3059 3391 
Q 3209 3369 3375 3328 
z
" transform="scale(0.015625)"/>
      <path id="DejaVuSerif-Italic-2d" d="M 328 1959 
L 1928 1959 
L 1834 1472 
L 234 1472 
L 328 1959 
z
" transform="scale(0.015625)"/>
      <path id="DejaVuSerif-Italic-41" d="M 1159 1691 
L 2872 1691 
L 2447 3909 
L 1159 1691 
z
M -488 0 
L -425 331 
L -16 331 
L 2491 4666 
L 3016 4666 
L 3841 331 
L 4297 331 
L 4234 0 
L 2538 0 
L 2600 331 
L 3119 331 
L 2928 1356 
L 966 1356 
L 375 331 
L 888 331 
L 825 0 
L -488 0 
z
" transform="scale(0.015625)"/>
      <path id="DejaVuSerif-Italic-2f" d="M 2172 4666 
L 2672 4666 
L -9 -594 
L -509 -594 
L 2172 4666 
z
" transform="scale(0.015625)"/>
      <path id="DejaVuSerif-Italic-42" d="M 1194 331 
L 2128 331 
Q 2691 331 2998 575 
Q 3306 819 3409 1350 
Q 3513 1878 3302 2120 
Q 3091 2363 2525 2363 
L 1591 2363 
L 1194 331 
z
M 1653 2694 
L 2447 2694 
Q 2959 2694 3234 2891 
Q 3509 3088 3591 3513 
Q 3675 3941 3476 4136 
Q 3278 4331 2766 4331 
L 1972 4331 
L 1653 2694 
z
M -97 0 
L -34 331 
L 559 331 
L 1338 4331 
L 744 4331 
L 809 4666 
L 3113 4666 
Q 3819 4666 4120 4377 
Q 4422 4088 4309 3513 
Q 4231 3097 3934 2850 
Q 3638 2603 3147 2547 
Q 3728 2472 3976 2167 
Q 4225 1863 4125 1350 
Q 3991 656 3489 328 
Q 2988 0 2059 0 
L -97 0 
z
" transform="scale(0.015625)"/>
      <path id="DejaVuSerif-Italic-20" transform="scale(0.015625)"/>
      <path id="DejaVuSerif-Italic-2192" d="M 366 2322 
L 4391 2322 
L 3788 3375 
L 3822 3375 
L 5125 2084 
L 5125 2053 
L 3822 763 
L 3788 763 
L 4391 1816 
L 366 1816 
L 366 2322 
z
" transform="scale(0.015625)"/>
      <path id="DejaVuSerif-Italic-31" d="M 447 0 
L 513 331 
L 1325 331 
L 2078 4213 
L 1019 3603 
L 1100 4013 
L 2381 4750 
L 2813 4750 
L 1953 331 
L 2766 331 
L 2700 0 
L 447 0 
z
" transform="scale(0.015625)"/>
      <path id="DejaVuSerif-Italic-2c" d="M 125 -622 
Q 463 -406 656 -114 
Q 850 178 931 594 
L 953 709 
L 1569 709 
Q 1441 175 1139 -208 
Q 838 -591 328 -872 
L 125 -622 
z
" transform="scale(0.015625)"/>
      <path id="DejaVuSerif-Italic-6c" d="M 903 331 
L 1447 331 
L 1384 0 
L 266 0 
L 1147 4531 
L 594 4531 
L 656 4863 
L 1784 4863 
L 903 331 
z
" transform="scale(0.015625)"/>
      <path id="DejaVuSerif-Italic-73" d="M 222 959 
L 553 959 
Q 541 869 541 788 
Q 541 219 1313 219 
Q 2088 219 2200 788 
Q 2209 844 2209 944 
Q 2209 1041 2103 1158 
Q 1997 1275 1550 1428 
L 1159 1569 
Q 759 1706 629 1882 
Q 500 2059 500 2263 
Q 500 2344 516 2438 
Q 606 2894 990 3153 
Q 1375 3413 1931 3413 
Q 2484 3413 3066 3144 
L 2925 2419 
L 2594 2419 
Q 2606 2491 2606 2553 
Q 2606 2781 2448 2942 
Q 2291 3103 1925 3103 
Q 1191 3103 1091 2591 
Q 1078 2538 1078 2444 
Q 1078 2347 1179 2237 
Q 1281 2128 1678 1997 
L 2106 1856 
Q 2550 1709 2716 1488 
Q 2831 1331 2831 1178 
Q 2831 522 2306 181 
Q 1894 -91 1262 -91 
Q 631 -91 72 184 
L 222 959 
z
" transform="scale(0.015625)"/>
      <path id="DejaVuSerif-Italic-30" d="M 1011 744 
Q 1147 219 1625 219 
Q 2103 219 2442 744 
Q 2781 1269 2988 2328 
Q 3194 3391 3058 3916 
Q 2922 4441 2444 4441 
Q 1966 4441 1627 3916 
Q 1288 3391 1081 2328 
Q 875 1269 1011 744 
z
M 1563 -91 
Q 803 -91 501 546 
Q 200 1184 422 2328 
Q 644 3475 1195 4112 
Q 1747 4750 2506 4750 
Q 3269 4750 3569 4112 
Q 3869 3475 3647 2328 
Q 3425 1184 2875 546 
Q 2325 -91 1563 -91 
z
" transform="scale(0.015625)"/>
     </defs>
     <use xlink:href="#DejaVuSerif-Italic-54"/>
     <use xlink:href="#DejaVuSerif-Italic-69" transform="translate(66.699219 0)"/>
     <use xlink:href="#DejaVuSerif-Italic-65" transform="translate(98.681641 0)"/>
     <use xlink:href="#DejaVuSerif-Italic-72" transform="translate(157.861328 0)"/>
     <use xlink:href="#DejaVuSerif-Italic-2d" transform="translate(205.664062 0)"/>
     <use xlink:href="#DejaVuSerif-Italic-41" transform="translate(239.453125 0)"/>
     <use xlink:href="#DejaVuSerif-Italic-2f" transform="translate(311.669922 0)"/>
     <use xlink:href="#DejaVuSerif-Italic-42" transform="translate(345.361328 0)"/>
     <use xlink:href="#DejaVuSerif-Italic-20" transform="translate(418.847656 0)"/>
     <use xlink:href="#DejaVuSerif-Italic-2192" transform="translate(450.634766 0)"/>
     <use xlink:href="#DejaVuSerif-Italic-20" transform="translate(534.423828 0)"/>
     <use xlink:href="#DejaVuSerif-Italic-31" transform="translate(566.210938 0)"/>
     <use xlink:href="#DejaVuSerif-Italic-2c" transform="translate(629.833984 0)"/>
     <use xlink:href="#DejaVuSerif-Italic-20" transform="translate(661.621094 0)"/>
     <use xlink:href="#DejaVuSerif-Italic-65" transform="translate(693.408203 0)"/>
     <use xlink:href="#DejaVuSerif-Italic-6c" transform="translate(752.587891 0)"/>
     <use xlink:href="#DejaVuSerif-Italic-73" transform="translate(784.570312 0)"/>
     <use xlink:href="#DejaVuSerif-Italic-65" transform="translate(835.888672 0)"/>
     <use xlink:href="#DejaVuSerif-Italic-20" transform="translate(895.068359 0)"/>
     <use xlink:href="#DejaVuSerif-Italic-30" transform="translate(926.855469 0)"/>
    </g>
   </g>
   <g id="text_5">
    <!-- Conditional DDPM -->
    <g style="fill: #1f2c3a" transform="translate(306.137109 78.063219) scale(0.125 -0.125)">
     <defs>
      <path id="DejaVuSerif-Bold-69" d="M 588 4263 
Q 588 4516 763 4689 
Q 938 4863 1191 4863 
Q 1438 4863 1611 4689 
Q 1784 4516 1784 4263 
Q 1784 4016 1611 3842 
Q 1438 3669 1191 3669 
Q 938 3669 763 3841 
Q 588 4013 588 4263 
z
M 1797 378 
L 2272 378 
L 2272 0 
L 219 0 
L 219 378 
L 691 378 
L 691 2944 
L 219 2944 
L 219 3322 
L 1797 3322 
L 1797 378 
z
" transform="scale(0.015625)"/>
      <path id="DejaVuSerif-Bold-74" d="M 634 2944 
L 153 2944 
L 153 3322 
L 634 3322 
L 634 4353 
L 1741 4353 
L 1741 3322 
L 2663 3322 
L 2663 2944 
L 1741 2944 
L 1741 909 
Q 1741 475 1809 369 
Q 1878 263 2059 263 
Q 2259 263 2356 397 
Q 2453 531 2459 813 
L 2925 813 
Q 2897 313 2651 111 
Q 2406 -91 1806 -91 
Q 1122 -91 878 123 
Q 634 338 634 909 
L 634 2944 
z
" transform="scale(0.015625)"/>
      <path id="DejaVuSerif-Bold-6c" d="M 1797 378 
L 2272 378 
L 2272 0 
L 219 0 
L 219 378 
L 691 378 
L 691 4488 
L 219 4488 
L 219 4863 
L 1797 4863 
L 1797 378 
z
" transform="scale(0.015625)"/>
      <path id="DejaVuSerif-Bold-44" d="M 2100 378 
L 2534 378 
Q 3266 378 3605 847 
Q 3944 1316 3944 2338 
Q 3944 3353 3606 3820 
Q 3269 4288 2534 4288 
L 2100 4288 
L 2100 378 
z
M 300 0 
L 300 378 
L 897 378 
L 897 4288 
L 300 4288 
L 300 4666 
L 2694 4666 
Q 3950 4666 4615 4066 
Q 5281 3466 5281 2338 
Q 5281 1203 4614 601 
Q 3947 0 2694 0 
L 300 0 
z
" transform="scale(0.015625)"/>
      <path id="DejaVuSerif-Bold-50" d="M 300 0 
L 300 378 
L 897 378 
L 897 4288 
L 300 4288 
L 300 4666 
L 2956 4666 
Q 3734 4666 4193 4295 
Q 4653 3925 4653 3303 
Q 4653 2678 4192 2304 
Q 3731 1931 2956 1931 
L 2100 1931 
L 2100 378 
L 2853 378 
L 2853 0 
L 300 0 
z
M 2100 2309 
L 2450 2309 
Q 2856 2309 3098 2579 
Q 3341 2850 3341 3303 
Q 3341 3753 3100 4020 
Q 2859 4288 2450 4288 
L 2100 4288 
L 2100 2309 
z
" transform="scale(0.015625)"/>
      <path id="DejaVuSerif-Bold-4d" d="M 269 0 
L 269 378 
L 863 378 
L 863 4288 
L 269 4288 
L 269 4666 
L 2194 4666 
L 3525 1672 
L 4863 4666 
L 6784 4666 
L 6784 4288 
L 6188 4288 
L 6188 378 
L 6784 378 
L 6784 0 
L 4384 0 
L 4384 378 
L 4978 378 
L 4978 3938 
L 3531 684 
L 2741 684 
L 1300 3938 
L 1300 378 
L 1894 378 
L 1894 0 
L 269 0 
z
" transform="scale(0.015625)"/>
     </defs>
     <use xlink:href="#DejaVuSerif-Bold-43"/>
     <use xlink:href="#DejaVuSerif-Bold-6f" transform="translate(79.589844 0)"/>
     <use xlink:href="#DejaVuSerif-Bold-6e" transform="translate(146.289062 0)"/>
     <use xlink:href="#DejaVuSerif-Bold-64" transform="translate(218.994141 0)"/>
     <use xlink:href="#DejaVuSerif-Bold-69" transform="translate(288.916016 0)"/>
     <use xlink:href="#DejaVuSerif-Bold-74" transform="translate(326.904297 0)"/>
     <use xlink:href="#DejaVuSerif-Bold-69" transform="translate(373.095703 0)"/>
     <use xlink:href="#DejaVuSerif-Bold-6f" transform="translate(411.083984 0)"/>
     <use xlink:href="#DejaVuSerif-Bold-6e" transform="translate(477.783203 0)"/>
     <use xlink:href="#DejaVuSerif-Bold-61" transform="translate(550.488281 0)"/>
     <use xlink:href="#DejaVuSerif-Bold-6c" transform="translate(615.283203 0)"/>
     <use xlink:href="#DejaVuSerif-Bold-20" transform="translate(653.271484 0)"/>
     <use xlink:href="#DejaVuSerif-Bold-44" transform="translate(688.085938 0)"/>
     <use xlink:href="#DejaVuSerif-Bold-44" transform="translate(774.804688 0)"/>
     <use xlink:href="#DejaVuSerif-Bold-50" transform="translate(861.523438 0)"/>
     <use xlink:href="#DejaVuSerif-Bold-4d" transform="translate(936.71875 0)"/>
    </g>
   </g>
   <g id="text_6">
    <!-- FiLM ResNet, latent diffusion -->
    <g style="fill: #5a6a7a" transform="translate(299.975195 100.010406) scale(0.095 -0.095)">
     <defs>
      <path id="DejaVuSerif-Italic-46" d="M -97 0 
L -34 331 
L 559 331 
L 1338 4331 
L 744 4331 
L 809 4666 
L 4628 4666 
L 4428 3628 
L 4044 3628 
L 4169 4281 
L 1963 4281 
L 1659 2719 
L 3253 2719 
L 3366 3303 
L 3750 3303 
L 3450 1753 
L 3066 1753 
L 3178 2338 
L 1584 2338 
L 1194 331 
L 1941 331 
L 1878 0 
L -97 0 
z
" transform="scale(0.015625)"/>
      <path id="DejaVuSerif-Italic-4c" d="M -97 0 
L -34 331 
L 559 331 
L 1338 4331 
L 744 4331 
L 809 4666 
L 2631 4666 
L 2566 4331 
L 1972 4331 
L 1206 384 
L 3338 384 
L 3488 1166 
L 3872 1166 
L 3647 0 
L -97 0 
z
" transform="scale(0.015625)"/>
      <path id="DejaVuSerif-Italic-4d" d="M -97 0 
L -34 331 
L 559 331 
L 1338 4331 
L 709 4331 
L 775 4666 
L 2134 4666 
L 3125 1344 
L 5409 4666 
L 6684 4666 
L 6619 4331 
L 5997 4331 
L 5222 331 
L 5816 331 
L 5753 0 
L 3928 0 
L 3991 331 
L 4584 331 
L 5288 3938 
L 3053 684 
L 2613 684 
L 1647 3938 
L 944 331 
L 1538 331 
L 1475 0 
L -97 0 
z
" transform="scale(0.015625)"/>
      <path id="DejaVuSerif-Italic-52" d="M 3066 2316 
Q 3272 2256 3403 2114 
Q 3534 1972 3609 1716 
L 4016 331 
L 4584 331 
L 4522 0 
L 3422 0 
L 2981 1484 
Q 2856 1916 2706 2042 
Q 2556 2169 2250 2169 
L 1553 2169 
L 1194 331 
L 1853 331 
L 1791 0 
L -97 0 
L -34 331 
L 559 331 
L 1338 4331 
L 744 4331 
L 809 4666 
L 3175 4666 
Q 3856 4666 4164 4341 
Q 4472 4016 4356 3419 
Q 4263 2938 3938 2661 
Q 3613 2384 3066 2316 
z
M 1619 2503 
L 2541 2503 
Q 3013 2503 3280 2726 
Q 3547 2950 3639 3419 
Q 3731 3888 3548 4109 
Q 3366 4331 2894 4331 
L 1972 4331 
L 1619 2503 
z
" transform="scale(0.015625)"/>
      <path id="DejaVuSerif-Italic-4e" d="M -128 0 
L -66 331 
L 563 331 
L 1341 4331 
L 713 4331 
L 778 4666 
L 1975 4666 
L 4056 984 
L 4706 4331 
L 4081 4331 
L 4147 4666 
L 5784 4666 
L 5719 4331 
L 5091 4331 
L 4231 -91 
L 3853 -91 
L 1631 3841 
L 947 331 
L 1575 331 
L 1513 0 
L -128 0 
z
" transform="scale(0.015625)"/>
      <path id="DejaVuSerif-Italic-74" d="M 856 2988 
L 350 2988 
L 416 3322 
L 922 3322 
L 1122 4353 
L 1700 4353 
L 1500 3322 
L 2581 3322 
L 2516 2988 
L 1434 2988 
L 1025 878 
Q 978 631 978 488 
Q 978 388 1000 338 
Q 1059 219 1278 219 
Q 1503 219 1633 351 
Q 1763 484 1825 781 
L 2259 781 
Q 2147 328 1884 118 
Q 1622 -91 1169 -91 
Q 672 -91 506 131 
Q 406 266 406 516 
Q 406 675 447 878 
L 856 2988 
z
" transform="scale(0.015625)"/>
      <path id="DejaVuSerif-Italic-61" d="M 2325 519 
Q 1909 -91 1238 -91 
Q 688 -91 409 281 
Q 216 544 216 919 
Q 216 1078 250 1256 
Q 463 2359 1231 2928 
Q 1884 3413 2675 3413 
Q 3206 3413 3388 3322 
L 2806 331 
L 3300 331 
L 3238 0 
L 2225 0 
L 2325 519 
z
M 822 938 
Q 822 269 1469 269 
Q 1863 269 2130 583 
Q 2397 897 2516 1497 
L 2806 3003 
L 2806 3003 
Q 2806 3094 2556 3094 
Q 1956 3094 1491 2625 
Q 1028 2153 863 1297 
Q 822 1097 822 938 
z
" transform="scale(0.015625)"/>
      <path id="DejaVuSerif-Italic-6e" d="M 450 0 
L 1031 2988 
L 481 2988 
L 544 3322 
L 1669 3322 
L 1556 2731 
Q 1781 3069 2068 3241 
Q 2356 3413 2694 3413 
Q 3244 3413 3444 3097 
Q 3563 2906 3563 2588 
Q 3563 2378 3509 2113 
L 3163 331 
L 3675 331 
L 3613 0 
L 2522 0 
L 2897 1931 
Q 2959 2253 2959 2469 
Q 2959 2659 2909 2769 
Q 2803 2994 2425 2994 
Q 2025 2994 1759 2701 
Q 1494 2409 1384 1850 
L 1025 0 
L 450 0 
z
" transform="scale(0.015625)"/>
      <path id="DejaVuSerif-Italic-64" d="M 3841 4863 
L 2897 0 
L 2322 0 
L 2422 519 
Q 2191 206 1902 57 
Q 1613 -91 1228 -91 
Q 616 -91 322 394 
Q 125 716 125 1166 
Q 125 1397 178 1663 
Q 331 2444 812 2928 
Q 1294 3413 1909 3413 
Q 2294 3413 2525 3264 
Q 2756 3116 2866 2803 
L 3200 4531 
L 2656 4531 
L 2722 4863 
L 3841 4863 
z
M 2613 1497 
L 2675 1825 
Q 2722 2069 2722 2266 
Q 2722 2550 2622 2738 
Q 2456 3053 2019 3053 
Q 1575 3053 1279 2703 
Q 984 2353 850 1663 
Q 788 1347 788 1103 
Q 788 813 875 622 
Q 1031 269 1475 269 
Q 1913 269 2203 583 
Q 2494 897 2613 1497 
z
" transform="scale(0.015625)"/>
      <path id="DejaVuSerif-Italic-66" d="M 3191 4078 
L 2888 4078 
Q 2900 4144 2900 4203 
Q 2900 4347 2825 4434 
Q 2719 4556 2472 4556 
Q 2150 4556 1984 4379 
Q 1819 4203 1731 3750 
L 1647 3322 
L 2575 3322 
L 2509 2988 
L 1581 2988 
L 963 -206 
Q 853 -763 509 -1047 
Q 166 -1331 -394 -1331 
L -356 -1025 
Q -28 -1025 131 -850 
Q 297 -663 388 -206 
L 1006 2988 
L 456 2988 
L 522 3322 
L 1072 3322 
L 1153 3738 
Q 1263 4297 1606 4578 
Q 1950 4863 2509 4863 
Q 2719 4863 2920 4825 
Q 3122 4788 3316 4709 
L 3191 4078 
z
" transform="scale(0.015625)"/>
      <path id="DejaVuSerif-Italic-75" d="M 3097 3322 
L 3672 3322 
L 3091 331 
L 3634 331 
L 3572 0 
L 2453 0 
L 2566 588 
Q 2341 256 2055 82 
Q 1769 -91 1434 -91 
Q 881 -91 681 225 
Q 559 413 559 734 
Q 559 944 613 1209 
L 956 2988 
L 438 2988 
L 503 3322 
L 1600 3322 
L 1225 1388 
Q 1163 1066 1163 853 
Q 1163 663 1213 556 
Q 1316 331 1697 331 
Q 2097 331 2364 625 
Q 2631 919 2738 1478 
L 3097 3322 
z
" transform="scale(0.015625)"/>
      <path id="DejaVuSerif-Italic-6f" d="M 1644 219 
Q 2106 219 2414 584 
Q 2722 950 2859 1663 
Q 2922 1988 2922 2241 
Q 2922 2541 2834 2738 
Q 2669 3103 2206 3103 
Q 1744 3103 1436 2739 
Q 1128 2375 991 1663 
Q 928 1338 928 1088 
Q 928 784 1019 584 
Q 1184 219 1644 219 
z
M 1584 -91 
Q 859 -91 513 388 
Q 272 722 272 1203 
Q 272 1419 319 1663 
Q 472 2456 1005 2934 
Q 1538 3413 2266 3413 
Q 2994 3413 3341 2934 
Q 3578 2603 3578 2122 
Q 3578 1906 3531 1663 
Q 3378 869 2845 389 
Q 2313 -91 1584 -91 
z
" transform="scale(0.015625)"/>
     </defs>
     <use xlink:href="#DejaVuSerif-Italic-46"/>
     <use xlink:href="#DejaVuSerif-Italic-69" transform="translate(69.384766 0)"/>
     <use xlink:href="#DejaVuSerif-Italic-4c" transform="translate(101.367188 0)"/>
     <use xlink:href="#DejaVuSerif-Italic-4d" transform="translate(167.773438 0)"/>
     <use xlink:href="#DejaVuSerif-Italic-20" transform="translate(270.166016 0)"/>
     <use xlink:href="#DejaVuSerif-Italic-52" transform="translate(301.953125 0)"/>
     <use xlink:href="#DejaVuSerif-Italic-65" transform="translate(377.246094 0)"/>
     <use xlink:href="#DejaVuSerif-Italic-73" transform="translate(436.425781 0)"/>
     <use xlink:href="#DejaVuSerif-Italic-4e" transform="translate(487.744141 0)"/>
     <use xlink:href="#DejaVuSerif-Italic-65" transform="translate(575.244141 0)"/>
     <use xlink:href="#DejaVuSerif-Italic-74" transform="translate(634.423828 0)"/>
     <use xlink:href="#DejaVuSerif-Italic-2c" transform="translate(674.609375 0)"/>
     <use xlink:href="#DejaVuSerif-Italic-20" transform="translate(706.396484 0)"/>
     <use xlink:href="#DejaVuSerif-Italic-6c" transform="translate(738.183594 0)"/>
     <use xlink:href="#DejaVuSerif-Italic-61" transform="translate(770.166016 0)"/>
     <use xlink:href="#DejaVuSerif-Italic-74" transform="translate(829.785156 0)"/>
     <use xlink:href="#DejaVuSerif-Italic-65" transform="translate(869.970703 0)"/>
     <use xlink:href="#DejaVuSerif-Italic-6e" transform="translate(929.150391 0)"/>
     <use xlink:href="#DejaVuSerif-Italic-74" transform="translate(993.554688 0)"/>
     <use xlink:href="#DejaVuSerif-Italic-20" transform="translate(1033.740234 0)"/>
     <use xlink:href="#DejaVuSerif-Italic-64" transform="translate(1065.527344 0)"/>
     <use xlink:href="#DejaVuSerif-Italic-69" transform="translate(1129.541016 0)"/>
     <use xlink:href="#DejaVuSerif-Italic-66" transform="translate(1161.523438 0)"/>
     <use xlink:href="#DejaVuSerif-Italic-66" transform="translate(1198.535156 0)"/>
     <use xlink:href="#DejaVuSerif-Italic-75" transform="translate(1235.546875 0)"/>
     <use xlink:href="#DejaVuSerif-Italic-73" transform="translate(1299.951172 0)"/>
     <use xlink:href="#DejaVuSerif-Italic-69" transform="translate(1351.269531 0)"/>
     <use xlink:href="#DejaVuSerif-Italic-6f" transform="translate(1383.251953 0)"/>
     <use xlink:href="#DejaVuSerif-Italic-6e" transform="translate(1443.457031 0)"/>
    </g>
   </g>
   <g id="text_7">
    <!-- SMILES -->
    <g style="fill: #1f2c3a" transform="translate(52.052656 223.823219) scale(0.125 -0.125)">
     <defs>
      <path id="DejaVuSerif-Bold-53" d="M 494 225 
L 494 1331 
L 891 1331 
Q 981 806 1318 547 
Q 1656 288 2253 288 
Q 2738 288 2991 472 
Q 3244 656 3244 1013 
Q 3244 1294 3072 1450 
Q 2900 1606 2363 1741 
L 1663 1913 
Q 978 2088 700 2398 
Q 422 2709 422 3284 
Q 422 3978 883 4364 
Q 1344 4750 2175 4750 
Q 2584 4750 3026 4681 
Q 3469 4613 3944 4475 
L 3944 3444 
L 3547 3444 
Q 3456 3925 3150 4148 
Q 2844 4372 2278 4372 
Q 1816 4372 1580 4211 
Q 1344 4050 1344 3731 
Q 1344 3441 1506 3289 
Q 1669 3138 2303 2975 
L 3003 2803 
Q 3653 2641 3945 2297 
Q 4238 1953 4238 1350 
Q 4238 644 3750 276 
Q 3263 -91 2316 -91 
Q 1859 -91 1409 -12 
Q 959 66 494 225 
z
" transform="scale(0.015625)"/>
      <path id="DejaVuSerif-Bold-49" d="M 300 0 
L 300 378 
L 897 378 
L 897 4288 
L 300 4288 
L 300 4666 
L 2700 4666 
L 2700 4288 
L 2100 4288 
L 2100 378 
L 2700 378 
L 2700 0 
L 300 0 
z
" transform="scale(0.015625)"/>
      <path id="DejaVuSerif-Bold-4c" d="M 300 0 
L 300 378 
L 897 378 
L 897 4288 
L 300 4288 
L 300 4666 
L 2700 4666 
L 2700 4288 
L 2100 4288 
L 2100 428 
L 3938 428 
L 3938 1166 
L 4359 1166 
L 4359 0 
L 300 0 
z
" transform="scale(0.015625)"/>
      <path id="DejaVuSerif-Bold-45" d="M 300 0 
L 300 378 
L 897 378 
L 897 4288 
L 300 4288 
L 300 4666 
L 4494 4666 
L 4494 3566 
L 4063 3566 
L 4063 4238 
L 2100 4238 
L 2100 2741 
L 3322 2741 
L 3322 3334 
L 3750 3334 
L 3750 1722 
L 3322 1722 
L 3322 2316 
L 2100 2316 
L 2100 428 
L 4122 428 
L 4122 1100 
L 4550 1100 
L 4550 0 
L 300 0 
z
" transform="scale(0.015625)"/>
     </defs>
     <use xlink:href="#DejaVuSerif-Bold-53"/>
     <use xlink:href="#DejaVuSerif-Bold-4d" transform="translate(72.216797 0)"/>
     <use xlink:href="#DejaVuSerif-Bold-49" transform="translate(182.910156 0)"/>
     <use xlink:href="#DejaVuSerif-Bold-4c" transform="translate(229.6875 0)"/>
     <use xlink:href="#DejaVuSerif-Bold-45" transform="translate(300 0)"/>
     <use xlink:href="#DejaVuSerif-Bold-53" transform="translate(376.220703 0)"/>
    </g>
   </g>
   <g id="text_8">
    <!-- SELFIES tokens -->
    <g style="fill: #5a6a7a" transform="translate(40.846484 245.770406) scale(0.095 -0.095)">
     <defs>
      <path id="DejaVuSerif-Italic-53" d="M 184 225 
L 391 1288 
L 750 1284 
Q 663 753 905 498 
Q 1147 244 1744 244 
Q 2300 244 2636 464 
Q 2972 684 3053 1106 
Q 3119 1444 2976 1625 
Q 2834 1806 2300 1978 
L 1722 2163 
Q 1091 2366 877 2669 
Q 663 2972 766 3500 
Q 881 4094 1367 4422 
Q 1853 4750 2616 4750 
Q 2941 4750 3314 4679 
Q 3688 4609 4097 4475 
L 3906 3481 
L 3553 3481 
Q 3594 3975 3361 4195 
Q 3128 4416 2563 4416 
Q 2069 4416 1772 4214 
Q 1475 4013 1400 3628 
Q 1334 3294 1490 3103 
Q 1647 2913 2241 2725 
L 2784 2553 
Q 3381 2363 3593 2067 
Q 3806 1772 3709 1275 
Q 3578 597 3076 253 
Q 2575 -91 1716 -91 
Q 1331 -91 948 -12 
Q 566 66 184 225 
z
" transform="scale(0.015625)"/>
      <path id="DejaVuSerif-Italic-45" d="M -97 0 
L -34 331 
L 559 331 
L 1338 4331 
L 744 4331 
L 809 4666 
L 4566 4666 
L 4366 3628 
L 3981 3628 
L 4106 4281 
L 1963 4281 
L 1659 2719 
L 3188 2719 
L 3300 3303 
L 3684 3303 
L 3384 1753 
L 3000 1753 
L 3113 2338 
L 1584 2338 
L 1206 384 
L 3400 384 
L 3525 1038 
L 3909 1038 
L 3709 0 
L -97 0 
z
" transform="scale(0.015625)"/>
      <path id="DejaVuSerif-Italic-49" d="M 1194 331 
L 1788 331 
L 1725 0 
L -97 0 
L -34 331 
L 559 331 
L 1338 4331 
L 744 4331 
L 809 4666 
L 2631 4666 
L 2566 4331 
L 1972 4331 
L 1194 331 
z
" transform="scale(0.015625)"/>
      <path id="DejaVuSerif-Italic-6b" d="M 2113 2075 
L 3034 331 
L 3513 331 
L 3450 0 
L 2528 0 
L 1622 1697 
L 1088 1275 
L 841 0 
L 266 0 
L 1147 4531 
L 594 4531 
L 656 4863 
L 1784 4863 
L 1169 1697 
L 2822 2988 
L 2344 2988 
L 2406 3322 
L 3341 3322 
L 3278 2988 
L 2113 2075 
z
" transform="scale(0.015625)"/>
     </defs>
     <use xlink:href="#DejaVuSerif-Italic-53"/>
     <use xlink:href="#DejaVuSerif-Italic-45" transform="translate(68.505859 0)"/>
     <use xlink:href="#DejaVuSerif-Italic-4c" transform="translate(141.503906 0)"/>
     <use xlink:href="#DejaVuSerif-Italic-46" transform="translate(207.910156 0)"/>
     <use xlink:href="#DejaVuSerif-Italic-49" transform="translate(277.294922 0)"/>
     <use xlink:href="#DejaVuSerif-Italic-45" transform="translate(316.796875 0)"/>
     <use xlink:href="#DejaVuSerif-Italic-53" transform="translate(389.794922 0)"/>
     <use xlink:href="#DejaVuSerif-Italic-20" transform="translate(458.300781 0)"/>
     <use xlink:href="#DejaVuSerif-Italic-74" transform="translate(490.087891 0)"/>
     <use xlink:href="#DejaVuSerif-Italic-6f" transform="translate(530.273438 0)"/>
     <use xlink:href="#DejaVuSerif-Italic-6b" transform="translate(590.478516 0)"/>
     <use xlink:href="#DejaVuSerif-Italic-65" transform="translate(651.074219 0)"/>
     <use xlink:href="#DejaVuSerif-Italic-6e" transform="translate(710.253906 0)"/>
     <use xlink:href="#DejaVuSerif-Italic-73" transform="translate(774.658203 0)"/>
    </g>
   </g>
   <g id="text_9">
    <!-- LIMO encoder -->
    <g style="fill: #1f2c3a" transform="translate(166.738789 223.823219) scale(0.125 -0.125)">
     <defs>
      <path id="DejaVuSerif-Bold-4f" d="M 2784 288 
Q 3381 288 3672 791 
Q 3963 1294 3963 2328 
Q 3963 3366 3672 3869 
Q 3381 4372 2784 4372 
Q 2191 4372 1898 3864 
Q 1606 3356 1606 2328 
Q 1606 1303 1898 795 
Q 2191 288 2784 288 
z
M 2784 -91 
Q 1606 -91 937 553 
Q 269 1197 269 2328 
Q 269 3459 939 4104 
Q 1609 4750 2784 4750 
Q 3963 4750 4631 4106 
Q 5300 3463 5300 2328 
Q 5300 1197 4629 553 
Q 3959 -91 2784 -91 
z
" transform="scale(0.015625)"/>
      <path id="DejaVuSerif-Bold-65" d="M 2566 1875 
Q 2566 2531 2444 2795 
Q 2322 3059 2028 3059 
Q 1744 3059 1620 2800 
Q 1497 2541 1497 1931 
L 1497 1875 
L 2566 1875 
z
M 3781 1503 
L 1497 1503 
L 1497 1478 
Q 1497 834 1690 548 
Q 1884 263 2316 263 
Q 2675 263 2897 453 
Q 3119 644 3181 1006 
L 3700 1006 
Q 3566 441 3166 175 
Q 2766 -91 2047 -91 
Q 1184 -91 723 364 
Q 263 819 263 1663 
Q 263 2488 734 2950 
Q 1206 3413 2047 3413 
Q 2872 3413 3312 2927 
Q 3753 2441 3781 1503 
z
" transform="scale(0.015625)"/>
      <path id="DejaVuSerif-Bold-63" d="M 3609 1038 
Q 3491 469 3123 189 
Q 2756 -91 2125 -91 
Q 1238 -91 750 368 
Q 263 828 263 1663 
Q 263 2488 744 2950 
Q 1225 3413 2081 3413 
Q 2428 3413 2781 3347 
Q 3134 3281 3500 3150 
L 3500 2228 
L 3150 2228 
Q 3100 2650 2903 2854 
Q 2706 3059 2350 3059 
Q 1888 3059 1692 2746 
Q 1497 2434 1497 1663 
Q 1497 909 1687 586 
Q 1878 263 2309 263 
Q 2644 263 2845 463 
Q 3047 663 3091 1038 
L 3609 1038 
z
" transform="scale(0.015625)"/>
      <path id="DejaVuSerif-Bold-72" d="M 3438 3359 
L 3438 2369 
L 3084 2369 
Q 3066 2634 2941 2764 
Q 2816 2894 2578 2894 
Q 2216 2894 2006 2575 
Q 1797 2256 1797 1691 
L 1797 378 
L 2400 378 
L 2400 0 
L 219 0 
L 219 378 
L 691 378 
L 691 2944 
L 184 2944 
L 184 3322 
L 1797 3322 
L 1797 2731 
Q 1959 3078 2226 3245 
Q 2494 3413 2881 3413 
Q 2978 3413 3117 3398 
Q 3256 3384 3438 3359 
z
" transform="scale(0.015625)"/>
     </defs>
     <use xlink:href="#DejaVuSerif-Bold-4c"/>
     <use xlink:href="#DejaVuSerif-Bold-49" transform="translate(70.3125 0)"/>
     <use xlink:href="#DejaVuSerif-Bold-4d" transform="translate(117.089844 0)"/>
     <use xlink:href="#DejaVuSerif-Bold-4f" transform="translate(227.783203 0)"/>
     <use xlink:href="#DejaVuSerif-Bold-20" transform="translate(314.892578 0)"/>
     <use xlink:href="#DejaVuSerif-Bold-65" transform="translate(349.707031 0)"/>
     <use xlink:href="#DejaVuSerif-Bold-6e" transform="translate(413.330078 0)"/>
     <use xlink:href="#DejaVuSerif-Bold-63" transform="translate(486.035156 0)"/>
     <use xlink:href="#DejaVuSerif-Bold-6f" transform="translate(546.923828 0)"/>
     <use xlink:href="#DejaVuSerif-Bold-64" transform="translate(613.623047 0)"/>
     <use xlink:href="#DejaVuSerif-Bold-65" transform="translate(683.544922 0)"/>
     <use xlink:href="#DejaVuSerif-Bold-72" transform="translate(747.167969 0)"/>
    </g>
   </g>
   <g id="text_10">
    <!-- frozen, fine-tuned -->
    <g style="fill: #5a6a7a" transform="translate(173.815977 245.770406) scale(0.095 -0.095)">
     <defs>
      <path id="DejaVuSerif-Italic-7a" d="M 2550 3047 
Q 2888 3047 3216 3322 
L 3403 3322 
L 3353 3053 
L 1081 684 
Q 1113 675 1203 647 
Q 1309 613 1416 544 
L 1569 450 
Q 1863 272 2075 272 
Q 2484 272 2966 741 
L 2891 363 
Q 2356 -163 1950 -163 
Q 1703 -156 1356 59 
Q 1009 275 791 275 
Q 453 275 125 0 
L -63 0 
L -13 269 
L 2263 2634 
Q 2228 2647 2138 2675 
Q 2031 2709 1925 2778 
L 1772 2872 
Q 1478 3050 1266 3050 
Q 856 3050 375 2581 
L 450 2959 
Q 984 3484 1391 3484 
Q 1638 3478 1984 3262 
Q 2331 3047 2550 3047 
z
" transform="scale(0.015625)"/>
     </defs>
     <use xlink:href="#DejaVuSerif-Italic-66"/>
     <use xlink:href="#DejaVuSerif-Italic-72" transform="translate(37.011719 0)"/>
     <use xlink:href="#DejaVuSerif-Italic-6f" transform="translate(84.814453 0)"/>
     <use xlink:href="#DejaVuSerif-Italic-7a" transform="translate(145.019531 0)"/>
     <use xlink:href="#DejaVuSerif-Italic-65" transform="translate(197.705078 0)"/>
     <use xlink:href="#DejaVuSerif-Italic-6e" transform="translate(256.884766 0)"/>
     <use xlink:href="#DejaVuSerif-Italic-2c" transform="translate(321.289062 0)"/>
     <use xlink:href="#DejaVuSerif-Italic-20" transform="translate(353.076172 0)"/>
     <use xlink:href="#DejaVuSerif-Italic-66" transform="translate(384.863281 0)"/>
     <use xlink:href="#DejaVuSerif-Italic-69" transform="translate(421.875 0)"/>
     <use xlink:href="#DejaVuSerif-Italic-6e" transform="translate(453.857422 0)"/>
     <use xlink:href="#DejaVuSerif-Italic-65" transform="translate(518.261719 0)"/>
     <use xlink:href="#DejaVuSerif-Italic-2d" transform="translate(577.441406 0)"/>
     <use xlink:href="#DejaVuSerif-Italic-74" transform="translate(611.230469 0)"/>
     <use xlink:href="#DejaVuSerif-Italic-75" transform="translate(651.416016 0)"/>
     <use xlink:href="#DejaVuSerif-Italic-6e" transform="translate(715.820312 0)"/>
     <use xlink:href="#DejaVuSerif-Italic-65" transform="translate(780.224609 0)"/>
     <use xlink:href="#DejaVuSerif-Italic-64" transform="translate(839.404297 0)"/>
    </g>
   </g>
   <g id="text_11">
    <!-- Latent z (1024-d) -->
    <g style="fill: #1f2c3a" transform="translate(310.688867 223.823219) scale(0.125 -0.125)">
     <defs>
      <path id="DejaVuSerif-Bold-7a" d="M 225 0 
L 225 378 
L 2131 2956 
L 697 2956 
L 697 2388 
L 325 2388 
L 325 3322 
L 3419 3322 
L 3419 2950 
L 1509 372 
L 3047 372 
L 3047 972 
L 3419 972 
L 3419 0 
L 225 0 
z
" transform="scale(0.015625)"/>
      <path id="DejaVuSerif-Bold-28" d="M 2694 -997 
Q 1641 -606 1122 122 
Q 603 850 603 1931 
Q 603 3013 1115 3731 
Q 1628 4450 2694 4863 
L 2694 4488 
Q 2200 4188 1983 3598 
Q 1766 3009 1766 1931 
Q 1766 856 1983 267 
Q 2200 -322 2694 -622 
L 2694 -997 
z
" transform="scale(0.015625)"/>
      <path id="DejaVuSerif-Bold-31" d="M 878 0 
L 878 378 
L 1753 378 
L 1753 4153 
L 781 3578 
L 781 4044 
L 1953 4750 
L 2938 4750 
L 2938 378 
L 3816 378 
L 3816 0 
L 878 0 
z
" transform="scale(0.015625)"/>
      <path id="DejaVuSerif-Bold-30" d="M 2228 275 
Q 2603 275 2742 615 
Q 2881 956 2881 2328 
Q 2881 3691 2742 4037 
Q 2603 4384 2228 4384 
Q 1853 4384 1714 4043 
Q 1575 3703 1575 2328 
Q 1575 956 1714 615 
Q 1853 275 2228 275 
z
M 2228 -91 
Q 1294 -91 797 532 
Q 300 1156 300 2328 
Q 300 3500 797 4125 
Q 1294 4750 2228 4750 
Q 3159 4750 3656 4125 
Q 4153 3500 4153 2328 
Q 4153 1156 3656 532 
Q 3159 -91 2228 -91 
z
" transform="scale(0.015625)"/>
      <path id="DejaVuSerif-Bold-32" d="M 844 3513 
L 469 3513 
L 469 4519 
Q 850 4634 1223 4692 
Q 1597 4750 1978 4750 
Q 2869 4750 3367 4386 
Q 3866 4022 3866 3372 
Q 3866 2909 3591 2542 
Q 3316 2175 2541 1672 
L 1241 819 
L 3450 819 
L 3450 1369 
L 3878 1369 
L 3878 0 
L 428 0 
L 428 763 
L 1119 1241 
Q 2003 1850 2297 2278 
Q 2591 2706 2591 3278 
Q 2591 3819 2367 4101 
Q 2144 4384 1716 4384 
Q 1347 4384 1125 4161 
Q 903 3938 844 3513 
z
" transform="scale(0.015625)"/>
      <path id="DejaVuSerif-Bold-34" d="M 4084 0 
L 1516 0 
L 1516 378 
L 2209 378 
L 2209 1228 
L 263 1228 
L 263 1588 
L 2216 4750 
L 3391 4750 
L 3391 1631 
L 4191 1631 
L 4191 1228 
L 3391 1228 
L 3391 378 
L 4084 378 
L 4084 0 
z
M 2209 1631 
L 2209 3897 
L 819 1631 
L 2209 1631 
z
" transform="scale(0.015625)"/>
      <path id="DejaVuSerif-Bold-2d" d="M 347 2138 
L 2309 2138 
L 2309 1294 
L 347 1294 
L 347 2138 
z
" transform="scale(0.015625)"/>
      <path id="DejaVuSerif-Bold-29" d="M 325 -997 
L 325 -622 
Q 819 -322 1036 267 
Q 1253 856 1253 1931 
Q 1253 3009 1036 3598 
Q 819 4188 325 4488 
L 325 4863 
Q 1391 4450 1905 3731 
Q 2419 3013 2419 1931 
Q 2419 850 1898 122 
Q 1378 -606 325 -997 
z
" transform="scale(0.015625)"/>
     </defs>
     <use xlink:href="#DejaVuSerif-Bold-4c"/>
     <use xlink:href="#DejaVuSerif-Bold-61" transform="translate(70.3125 0)"/>
     <use xlink:href="#DejaVuSerif-Bold-74" transform="translate(135.107422 0)"/>
     <use xlink:href="#DejaVuSerif-Bold-65" transform="translate(181.298828 0)"/>
     <use xlink:href="#DejaVuSerif-Bold-6e" transform="translate(244.921875 0)"/>
     <use xlink:href="#DejaVuSerif-Bold-74" transform="translate(317.626953 0)"/>
     <use xlink:href="#DejaVuSerif-Bold-20" transform="translate(363.818359 0)"/>
     <use xlink:href="#DejaVuSerif-Bold-7a" transform="translate(398.632812 0)"/>
     <use xlink:href="#DejaVuSerif-Bold-20" transform="translate(455.419922 0)"/>
     <use xlink:href="#DejaVuSerif-Bold-28" transform="translate(490.234375 0)"/>
     <use xlink:href="#DejaVuSerif-Bold-31" transform="translate(537.548828 0)"/>
     <use xlink:href="#DejaVuSerif-Bold-30" transform="translate(607.128906 0)"/>
     <use xlink:href="#DejaVuSerif-Bold-32" transform="translate(676.708984 0)"/>
     <use xlink:href="#DejaVuSerif-Bold-34" transform="translate(746.289062 0)"/>
     <use xlink:href="#DejaVuSerif-Bold-2d" transform="translate(815.869141 0)"/>
     <use xlink:href="#DejaVuSerif-Bold-64" transform="translate(857.373047 0)"/>
     <use xlink:href="#DejaVuSerif-Bold-29" transform="translate(927.294922 0)"/>
    </g>
   </g>
   <g id="text_12">
    <!-- N(μ, σ²) -->
    <g style="fill: #5a6a7a" transform="translate(352.484219 245.770406) scale(0.095 -0.095)">
     <defs>
      <path id="DejaVuSerif-Italic-28" d="M 1472 -997 
Q 778 -656 534 83 
Q 291 822 506 1931 
Q 722 3044 1253 3783 
Q 1784 4522 2609 4863 
L 2550 4556 
Q 2006 4225 1679 3623 
Q 1353 3022 1141 1931 
Q 928 844 1020 242 
Q 1113 -359 1531 -691 
L 1472 -997 
z
" transform="scale(0.015625)"/>
      <path id="DejaVuSerif-Italic-3bc" d="M 284 -1331 
L 1125 2988 
L 606 2988 
L 672 3322 
L 1766 3322 
L 1388 1388 
Q 1272 781 1378 556 
Q 1484 331 1863 331 
Q 2263 331 2528 625 
Q 2794 919 2903 1478 
L 3197 2988 
L 2697 2988 
L 2763 3322 
L 3838 3322 
L 3253 325 
L 3797 325 
L 3734 0 
L 2616 0 
L 2731 588 
Q 2503 256 2239 82 
Q 1975 -91 1694 -91 
Q 1516 -91 1380 -34 
Q 1244 22 1144 134 
L 859 -1331 
L 284 -1331 
z
" transform="scale(0.015625)"/>
      <path id="DejaVuSerif-Italic-3c3" d="M 1653 219 
Q 2116 219 2423 584 
Q 2731 950 2869 1663 
Q 2994 2309 2834 2706 
Q 2694 3044 2203 3047 
Q 1725 3047 1438 2706 
Q 1131 2341 1000 1663 
Q 863 950 1028 584 
Q 1194 219 1653 219 
z
M 2263 3322 
Q 3538 3322 4513 3322 
L 4447 2988 
L 3303 2988 
Q 3706 2509 3541 1663 
Q 3388 869 2855 389 
Q 2322 -91 1594 -91 
Q 869 -91 522 389 
Q 175 869 328 1662 
Q 481 2456 1016 2934 
Q 1447 3322 2263 3322 
z
" transform="scale(0.015625)"/>
      <path id="DejaVuSerif-Italic-b2" d="M 653 4050 
L 434 4050 
L 531 4544 
Q 756 4644 986 4697 
Q 1216 4750 1431 4750 
Q 1863 4750 2089 4544 
Q 2316 4338 2253 4013 
Q 2178 3631 1466 3088 
L 1397 3034 
L 522 2363 
L 1725 2363 
L 1791 2700 
L 2022 2700 
L 1903 2088 
L 22 2088 
L 69 2322 
L 1113 3116 
Q 1428 3356 1581 3547 
Q 1734 3738 1775 3944 
Q 1825 4209 1703 4364 
Q 1581 4519 1319 4519 
Q 1075 4519 906 4400 
Q 738 4281 653 4050 
z
" transform="scale(0.015625)"/>
      <path id="DejaVuSerif-Italic-29" d="M -113 -997 
L -53 -691 
Q 491 -359 819 242 
Q 1147 844 1359 1931 
Q 1572 3022 1478 3623 
Q 1384 4225 966 4556 
L 1025 4863 
Q 1722 4522 1965 3783 
Q 2209 3044 1994 1931 
Q 1778 822 1247 83 
Q 716 -656 -113 -997 
z
" transform="scale(0.015625)"/>
     </defs>
     <use xlink:href="#DejaVuSerif-Italic-4e"/>
     <use xlink:href="#DejaVuSerif-Italic-28" transform="translate(87.5 0)"/>
     <use xlink:href="#DejaVuSerif-Italic-3bc" transform="translate(126.513672 0)"/>
     <use xlink:href="#DejaVuSerif-Italic-2c" transform="translate(191.503906 0)"/>
     <use xlink:href="#DejaVuSerif-Italic-20" transform="translate(223.291016 0)"/>
     <use xlink:href="#DejaVuSerif-Italic-3c3" transform="translate(255.078125 0)"/>
     <use xlink:href="#DejaVuSerif-Italic-b2" transform="translate(323.339844 0)"/>
     <use xlink:href="#DejaVuSerif-Italic-29" transform="translate(363.427734 0)"/>
    </g>
   </g>
   <g id="text_13">
    <!-- LIMO decoder -->
    <g style="fill: #1f2c3a" transform="translate(476.652617 223.823219) scale(0.125 -0.125)">
     <use xlink:href="#DejaVuSerif-Bold-4c"/>
     <use xlink:href="#DejaVuSerif-Bold-49" transform="translate(70.3125 0)"/>
     <use xlink:href="#DejaVuSerif-Bold-4d" transform="translate(117.089844 0)"/>
     <use xlink:href="#DejaVuSerif-Bold-4f" transform="translate(227.783203 0)"/>
     <use xlink:href="#DejaVuSerif-Bold-20" transform="translate(314.892578 0)"/>
     <use xlink:href="#DejaVuSerif-Bold-64" transform="translate(349.707031 0)"/>
     <use xlink:href="#DejaVuSerif-Bold-65" transform="translate(419.628906 0)"/>
     <use xlink:href="#DejaVuSerif-Bold-63" transform="translate(483.251953 0)"/>
     <use xlink:href="#DejaVuSerif-Bold-6f" transform="translate(544.140625 0)"/>
     <use xlink:href="#DejaVuSerif-Bold-64" transform="translate(610.839844 0)"/>
     <use xlink:href="#DejaVuSerif-Bold-65" transform="translate(680.761719 0)"/>
     <use xlink:href="#DejaVuSerif-Bold-72" transform="translate(744.384766 0)"/>
    </g>
   </g>
   <g id="text_14">
    <!-- non-autoregressive -->
    <g style="fill: #5a6a7a" transform="translate(480.133008 245.635328) scale(0.095 -0.095)">
     <defs>
      <path id="DejaVuSerif-Italic-67" d="M 3822 3322 
L 3188 72 
Q 3044 -672 2581 -1031 
Q 2078 -1422 1381 -1422 
Q 1053 -1422 765 -1362 
Q 478 -1303 225 -1184 
L 363 -488 
L 663 -488 
Q 653 -813 834 -963 
Q 1016 -1113 1406 -1113 
Q 1913 -1113 2203 -825 
Q 2494 -544 2613 72 
L 2700 519 
Q 2472 206 2181 57 
Q 1891 -91 1525 -91 
Q 975 -91 697 281 
Q 522 516 503 841 
Q 491 1031 534 1256 
Q 750 2359 1516 2928 
Q 2169 3409 2931 3413 
Q 3631 3416 3822 3322 
z
M 3184 2988 
Q 3181 3094 2844 3094 
Q 2234 3094 1775 2625 
Q 1316 2153 1147 1297 
Q 1100 1044 1113 853 
Q 1125 659 1203 528 
Q 1356 269 1756 269 
Q 2194 269 2484 583 
Q 2775 897 2891 1497 
L 2953 1825 
L 3184 2988 
z
" transform="scale(0.015625)"/>
      <path id="DejaVuSerif-Italic-76" d="M 1681 0 
L 1259 0 
L 619 2988 
L 241 2988 
L 303 3322 
L 1163 3322 
L 1725 703 
Q 2084 1016 2325 1413 
Q 2825 2238 3003 2988 
L 2622 2988 
L 2688 3322 
L 3547 3322 
Q 3206 2034 2775 1313 
Q 2400 688 1681 0 
z
" transform="scale(0.015625)"/>
     </defs>
     <use xlink:href="#DejaVuSerif-Italic-6e"/>
     <use xlink:href="#DejaVuSerif-Italic-6f" transform="translate(64.404297 0)"/>
     <use xlink:href="#DejaVuSerif-Italic-6e" transform="translate(124.609375 0)"/>
     <use xlink:href="#DejaVuSerif-Italic-2d" transform="translate(189.013672 0)"/>
     <use xlink:href="#DejaVuSerif-Italic-61" transform="translate(222.802734 0)"/>
     <use xlink:href="#DejaVuSerif-Italic-75" transform="translate(282.421875 0)"/>
     <use xlink:href="#DejaVuSerif-Italic-74" transform="translate(346.826172 0)"/>
     <use xlink:href="#DejaVuSerif-Italic-6f" transform="translate(387.011719 0)"/>
     <use xlink:href="#DejaVuSerif-Italic-72" transform="translate(447.216797 0)"/>
     <use xlink:href="#DejaVuSerif-Italic-65" transform="translate(495.019531 0)"/>
     <use xlink:href="#DejaVuSerif-Italic-67" transform="translate(554.199219 0)"/>
     <use xlink:href="#DejaVuSerif-Italic-72" transform="translate(618.212891 0)"/>
     <use xlink:href="#DejaVuSerif-Italic-65" transform="translate(666.015625 0)"/>
     <use xlink:href="#DejaVuSerif-Italic-73" transform="translate(725.195312 0)"/>
     <use xlink:href="#DejaVuSerif-Italic-73" transform="translate(776.513672 0)"/>
     <use xlink:href="#DejaVuSerif-Italic-69" transform="translate(827.832031 0)"/>
     <use xlink:href="#DejaVuSerif-Italic-76" transform="translate(859.814453 0)"/>
     <use xlink:href="#DejaVuSerif-Italic-65" transform="translate(916.308594 0)"/>
    </g>
   </g>
   <g id="text_15">
    <!-- SMILES′ -->
    <g style="fill: #1f2c3a" transform="translate(633.444219 223.823219) scale(0.125 -0.125)">
     <defs>
      <path id="DejaVuSerif-Bold-2032" d="M 125 3500 
L 666 4666 
L 1534 4666 
L 631 3500 
L 125 3500 
z
" transform="scale(0.015625)"/>
     </defs>
     <use xlink:href="#DejaVuSerif-Bold-53"/>
     <use xlink:href="#DejaVuSerif-Bold-4d" transform="translate(72.216797 0)"/>
     <use xlink:href="#DejaVuSerif-Bold-49" transform="translate(182.910156 0)"/>
     <use xlink:href="#DejaVuSerif-Bold-4c" transform="translate(229.6875 0)"/>
     <use xlink:href="#DejaVuSerif-Bold-45" transform="translate(300 0)"/>
     <use xlink:href="#DejaVuSerif-Bold-53" transform="translate(376.220703 0)"/>
     <use xlink:href="#DejaVuSerif-Bold-2032" transform="translate(448.4375 0)"/>
    </g>
   </g>
   <g id="text_16">
    <!-- candidate -->
    <g style="fill: #5a6a7a" transform="translate(639.415273 245.770406) scale(0.095 -0.095)">
     <defs>
      <path id="DejaVuSerif-Italic-63" d="M 3163 997 
Q 2938 466 2536 187 
Q 2134 -91 1584 -91 
Q 859 -91 513 388 
Q 272 722 272 1203 
Q 272 1419 319 1663 
Q 475 2459 1008 2936 
Q 1541 3413 2266 3413 
Q 2581 3413 2879 3339 
Q 3178 3266 3463 3116 
L 3300 2266 
L 2966 2266 
Q 2966 2309 2966 2347 
Q 2966 2722 2803 2903 
Q 2622 3103 2213 3103 
Q 1747 3103 1439 2742 
Q 1131 2381 991 1663 
Q 928 1334 928 1078 
Q 928 778 1016 581 
Q 1181 219 1650 219 
Q 2022 219 2281 412 
Q 2541 606 2700 997 
L 3163 997 
z
" transform="scale(0.015625)"/>
     </defs>
     <use xlink:href="#DejaVuSerif-Italic-63"/>
     <use xlink:href="#DejaVuSerif-Italic-61" transform="translate(56.005859 0)"/>
     <use xlink:href="#DejaVuSerif-Italic-6e" transform="translate(115.625 0)"/>
     <use xlink:href="#DejaVuSerif-Italic-64" transform="translate(180.029297 0)"/>
     <use xlink:href="#DejaVuSerif-Italic-69" transform="translate(244.042969 0)"/>
     <use xlink:href="#DejaVuSerif-Italic-64" transform="translate(276.025391 0)"/>
     <use xlink:href="#DejaVuSerif-Italic-61" transform="translate(340.039062 0)"/>
     <use xlink:href="#DejaVuSerif-Italic-74" transform="translate(399.658203 0)"/>
     <use xlink:href="#DejaVuSerif-Italic-65" transform="translate(439.84375 0)"/>
    </g>
   </g>
   <g id="patch_16">
    <path d="M 141.5725 230.395 
Q 148.405 230.395 153.225039 230.395 
" style="fill: none; stroke: #27445d; stroke-width: 1.8; stroke-linecap: round"/>
    <path d="M 148.425039 227.995 
L 153.225039 230.395 
L 148.425039 232.795 
z
" style="fill: #27445d; stroke: #27445d; stroke-width: 1.8; stroke-linecap: round"/>
   </g>
   <g id="patch_17">
    <path d="M 278.2225 230.395 
Q 287.3325 230.395 294.430039 230.395 
" style="fill: none; stroke: #27445d; stroke-width: 1.8; stroke-linecap: round"/>
    <path d="M 289.630039 227.995 
L 294.430039 230.395 
L 289.630039 232.795 
z
" style="fill: #27445d; stroke: #27445d; stroke-width: 1.8; stroke-linecap: round"/>
   </g>
   <g id="patch_18">
    <path d="M 446.7575 230.395 
Q 455.8675 230.395 462.965039 230.395 
" style="fill: none; stroke: #27445d; stroke-width: 1.8; stroke-linecap: round"/>
    <path d="M 458.165039 227.995 
L 462.965039 230.395 
L 458.165039 232.795 
z
" style="fill: #27445d; stroke: #27445d; stroke-width: 1.8; stroke-linecap: round"/>
   </g>
   <g id="patch_19">
    <path d="M 587.9625 230.395 
Q 594.795 230.395 599.615039 230.395 
" style="fill: none; stroke: #27445d; stroke-width: 1.8; stroke-linecap: round"/>
    <path d="M 594.815039 227.995 
L 599.615039 230.395 
L 594.815039 232.795 
z
" style="fill: #27445d; stroke: #27445d; stroke-width: 1.8; stroke-linecap: round"/>
   </g>
   <g id="patch_20">
    <path d="M 278.2225 84.635 
Q 287.3325 84.635 294.430039 84.635 
" style="fill: none; stroke-dasharray: 9,5.4; stroke-dashoffset: 0; stroke: #b88a25; stroke-width: 1.8; stroke-linecap: round"/>
    <path d="M 289.630039 82.235 
L 294.430039 84.635 
L 289.630039 87.035 
z
" style="fill: #b88a25; stroke-dasharray: 9,5.4; stroke-dashoffset: 0; stroke: #b88a25; stroke-width: 1.8; stroke-linecap: round"/>
   </g>
   <g id="patch_21">
    <path d="M 371.6 118.7975 
Q 371.6 157.515 371.6 194.220039 
" style="fill: none; stroke: #27445d; stroke-width: 1.8; stroke-linecap: round"/>
    <path d="M 374 189.420039 
L 371.6 194.220039 
L 369.2 189.420039 
z
" style="fill: #27445d; stroke: #27445d; stroke-width: 1.8; stroke-linecap: round"/>
   </g>
  </g>
 </g>
 <defs>
  <clipPath id="p82e5db8612">
   <rect x="7.2" y="7.2" width="728.8" height="291.52"/>
  </clipPath>
 </defs>
</svg>
