<?xml version="1.0" encoding="utf-8" standalone="no"?>
<!DOCTYPE svg PUBLIC "-//W3C//DTD SVG 1.1//EN"
  "http://www.w3.org/Graphics/SVG/1.1/DTD/svg11.dtd">
<svg xmlns:xlink="http://www.w3.org/1999/xlink" width="767.7pt" height="337.242857pt" viewBox="0 0 767.7 337.242857" xmlns="http://www.w3.org/2000/svg" version="1.1">
 <metadata>
  <rdf:RDF xmlns:dc="http://purl.org/dc/elements/1.1/" xmlns:cc="http://creativecommons.org/ns#" xmlns:rdf="http://www.w3.org/1999/02/22-rdf-syntax-ns#">
   <cc:Work>
    <dc:type rdf:resource="http://purl.org/dc/dcmitype/StillImage"/>
    <dc:date>2026-04-28T16:19:48.419759</dc:date>
    <dc:format>image/svg+xml</dc:format>
    <dc:creator>
     <cc:Agent>
      <dc:title>Matplotlib v3.10.8, https://matplotlib.org/</dc:title>
     </cc:Agent>
    </dc:creator>
   </cc:Work>
  </rdf:RDF>
 </metadata>
 <defs>
  <style type="text/css">*{stroke-linejoin: round; stroke-linecap: butt}</style>
 </defs>
 <g id="figure_1">
  <g id="patch_1">
   <path d="M 0 337.242857 
L 767.7 337.242857 
L 767.7 -0 
L 0 -0 
z
" style="fill: #ffffff"/>
  </g>
  <g id="axes_1">
   <g id="patch_2">
    <path d="M 36.255857 178.306714 
L 109.433571 178.306714 
Q 113.738143 178.306714 113.738143 174.002143 
L 113.738143 133.108714 
Q 113.738143 128.804143 109.433571 128.804143 
L 36.255857 128.804143 
Q 31.951286 128.804143 31.951286 133.108714 
L 31.951286 174.002143 
Q 31.951286 178.306714 36.255857 178.306714 
z
" clip-path="url(#p94de3fd3a1)" style="fill: #0a1620; opacity: 0.1"/>
   </g>
   <g id="patch_3">
    <path d="M 151.941214 92.215286 
L 184.763571 92.215286 
Q 189.068143 92.215286 189.068143 87.910714 
L 189.068143 57.778714 
Q 189.068143 53.474143 184.763571 53.474143 
L 151.941214 53.474143 
Q 147.636643 53.474143 147.636643 57.778714 
L 147.636643 87.910714 
Q 147.636643 92.215286 151.941214 92.215286 
z
" clip-path="url(#p94de3fd3a1)" style="fill: #0a1620; opacity: 0.1"/>
   </g>
   <g id="patch_4">
    <path d="M 208.438714 92.215286 
L 241.261071 92.215286 
Q 245.565643 92.215286 245.565643 87.910714 
L 245.565643 57.778714 
Q 245.565643 53.474143 241.261071 53.474143 
L 208.438714 53.474143 
Q 204.134143 53.474143 204.134143 57.778714 
L 204.134143 87.910714 
Q 204.134143 92.215286 208.438714 92.215286 
z
" clip-path="url(#p94de3fd3a1)" style="fill: #0a1620; opacity: 0.1"/>
   </g>
   <g id="patch_5">
    <path d="M 281.078357 178.306714 
L 359.636786 178.306714 
Q 363.941357 178.306714 363.941357 174.002143 
L 363.941357 133.108714 
Q 363.941357 128.804143 359.636786 128.804143 
L 281.078357 128.804143 
Q 276.773786 128.804143 276.773786 133.108714 
L 276.773786 174.002143 
Q 276.773786 178.306714 281.078357 178.306714 
z
" clip-path="url(#p94de3fd3a1)" style="fill: #0a1620; opacity: 0.1"/>
   </g>
   <g id="patch_6">
    <path d="M 160.012286 256.327071 
L 233.19 256.327071 
Q 237.494571 256.327071 237.494571 252.0225 
L 237.494571 216.509786 
Q 237.494571 212.205214 233.19 212.205214 
L 160.012286 212.205214 
Q 155.707714 212.205214 155.707714 216.509786 
L 155.707714 252.0225 
Q 155.707714 256.327071 160.012286 256.327071 
z
" clip-path="url(#p94de3fd3a1)" style="fill: #0a1620; opacity: 0.1"/>
   </g>
   <g id="patch_7">
    <path d="M 404.834786 178.306714 
L 483.393214 178.306714 
Q 487.697786 178.306714 487.697786 174.002143 
L 487.697786 133.108714 
Q 487.697786 128.804143 483.393214 128.804143 
L 404.834786 128.804143 
Q 400.530214 128.804143 400.530214 133.108714 
L 400.530214 174.002143 
Q 400.530214 178.306714 404.834786 178.306714 
z
" clip-path="url(#p94de3fd3a1)" style="fill: #0a1620; opacity: 0.1"/>
   </g>
   <g id="patch_8">
    <path d="M 528.591214 178.306714 
L 607.149643 178.306714 
Q 611.454214 178.306714 611.454214 174.002143 
L 611.454214 133.108714 
Q 611.454214 128.804143 607.149643 128.804143 
L 528.591214 128.804143 
Q 524.286643 128.804143 524.286643 133.108714 
L 524.286643 174.002143 
Q 524.286643 178.306714 528.591214 178.306714 
z
" clip-path="url(#p94de3fd3a1)" style="fill: #0a1620; opacity: 0.1"/>
   </g>
   <g id="patch_9">
    <path d="M 660.418714 178.306714 
L 733.596429 178.306714 
Q 737.901 178.306714 737.901 174.002143 
L 737.901 133.108714 
Q 737.901 128.804143 733.596429 128.804143 
L 660.418714 128.804143 
Q 656.114143 128.804143 656.114143 133.108714 
L 656.114143 174.002143 
Q 656.114143 178.306714 660.418714 178.306714 
z
" clip-path="url(#p94de3fd3a1)" style="fill: #0a1620; opacity: 0.1"/>
   </g>
   <g id="patch_10">
    <path d="M 35.179714 177.230571 
L 108.357429 177.230571 
Q 112.662 177.230571 112.662 172.926 
L 112.662 132.032571 
Q 112.662 127.728 108.357429 127.728 
L 35.179714 127.728 
Q 30.875143 127.728 30.875143 132.032571 
L 30.875143 172.926 
Q 30.875143 177.230571 35.179714 177.230571 
z
" clip-path="url(#p94de3fd3a1)" style="fill: #eef1f3; stroke: #27445d; stroke-width: 1.5; stroke-linejoin: miter"/>
   </g>
   <g id="patch_11">
    <path d="M 150.865071 91.139143 
L 183.687429 91.139143 
Q 187.992 91.139143 187.992 86.834571 
L 187.992 56.702571 
Q 187.992 52.398 183.687429 52.398 
L 150.865071 52.398 
Q 146.5605 52.398 146.5605 56.702571 
L 146.5605 86.834571 
Q 146.5605 91.139143 150.865071 91.139143 
z
" clip-path="url(#p94de3fd3a1)" style="fill: #ece4f3; stroke: #6a4a8a; stroke-width: 1.5; stroke-linejoin: miter"/>
   </g>
   <g id="patch_12">
    <path d="M 207.362571 91.139143 
L 240.184929 91.139143 
Q 244.4895 91.139143 244.4895 86.834571 
L 244.4895 56.702571 
Q 244.4895 52.398 240.184929 52.398 
L 207.362571 52.398 
Q 203.058 52.398 203.058 56.702571 
L 203.058 86.834571 
Q 203.058 91.139143 207.362571 91.139143 
z
" clip-path="url(#p94de3fd3a1)" style="fill: #ece4f3; stroke: #6a4a8a; stroke-width: 1.5; stroke-linejoin: miter"/>
   </g>
   <g id="patch_13">
    <path d="M 280.002214 177.230571 
L 358.560643 177.230571 
Q 362.865214 177.230571 362.865214 172.926 
L 362.865214 132.032571 
Q 362.865214 127.728 358.560643 127.728 
L 280.002214 127.728 
Q 275.697643 127.728 275.697643 132.032571 
L 275.697643 172.926 
Q 275.697643 177.230571 280.002214 177.230571 
z
" clip-path="url(#p94de3fd3a1)" style="fill: #dde6e9; stroke: #27445d; stroke-width: 1.5; stroke-linejoin: miter"/>
   </g>
   <g id="patch_14">
    <path d="M 158.936143 255.250929 
L 232.113857 255.250929 
Q 236.418429 255.250929 236.418429 250.946357 
L 236.418429 215.433643 
Q 236.418429 211.129071 232.113857 211.129071 
L 158.936143 211.129071 
Q 154.631571 211.129071 154.631571 215.433643 
L 154.631571 250.946357 
Q 154.631571 255.250929 158.936143 255.250929 
z
" clip-path="url(#p94de3fd3a1)" style="fill: #f7e6e6; stroke: #aa3a3a; stroke-width: 1.5; stroke-linejoin: miter"/>
   </g>
   <g id="patch_15">
    <path d="M 403.758643 177.230571 
L 482.317071 177.230571 
Q 486.621643 177.230571 486.621643 172.926 
L 486.621643 132.032571 
Q 486.621643 127.728 482.317071 127.728 
L 403.758643 127.728 
Q 399.454071 127.728 399.454071 132.032571 
L 399.454071 172.926 
Q 399.454071 177.230571 403.758643 177.230571 
z
" clip-path="url(#p94de3fd3a1)" style="fill: #dde6e9; stroke: #27445d; stroke-width: 1.5; stroke-linejoin: miter"/>
   </g>
   <g id="patch_16">
    <path d="M 527.515071 177.230571 
L 606.0735 177.230571 
Q 610.378071 177.230571 610.378071 172.926 
L 610.378071 132.032571 
Q 610.378071 127.728 606.0735 127.728 
L 527.515071 127.728 
Q 523.2105 127.728 523.2105 132.032571 
L 523.2105 172.926 
Q 523.2105 177.230571 527.515071 177.230571 
z
" clip-path="url(#p94de3fd3a1)" style="fill: #f7e6e6; stroke: #aa3a3a; stroke-width: 1.5; stroke-linejoin: miter"/>
   </g>
   <g id="patch_17">
    <path d="M 659.342571 177.230571 
L 732.520286 177.230571 
Q 736.824857 177.230571 736.824857 172.926 
L 736.824857 132.032571 
Q 736.824857 127.728 732.520286 127.728 
L 659.342571 127.728 
Q 655.038 127.728 655.038 132.032571 
L 655.038 172.926 
Q 655.038 177.230571 659.342571 177.230571 
z
" clip-path="url(#p94de3fd3a1)" style="fill: #ece4f3; stroke: #6a4a8a; stroke-width: 1.5; stroke-linejoin: miter"/>
   </g>
   <g id="text_1">
    <!-- mini-batch -->
    <g style="fill: #1f2c3a" transform="translate(36.66572 146.93581) scale(0.115 -0.115)">
     <defs>
      <path id="DejaVuSerif-Bold-6d" d="M 3884 2778 
Q 4116 3109 4384 3261 
Q 4653 3413 5013 3413 
Q 5584 3413 5867 3089 
Q 6150 2766 6150 2113 
L 6150 378 
L 6625 378 
L 6625 0 
L 4647 0 
L 4647 378 
L 5044 378 
L 5044 1947 
Q 5044 2569 4948 2731 
Q 4853 2894 4594 2894 
Q 4300 2894 4137 2667 
Q 3975 2441 3975 2022 
L 3975 378 
L 4372 378 
L 4372 0 
L 2472 0 
L 2472 378 
L 2869 378 
L 2869 1947 
Q 2869 2569 2772 2731 
Q 2675 2894 2419 2894 
Q 2122 2894 1959 2667 
Q 1797 2441 1797 2022 
L 1797 378 
L 2194 378 
L 2194 0 
L 219 0 
L 219 378 
L 691 378 
L 691 2944 
L 219 2944 
L 219 3322 
L 1797 3322 
L 1797 2853 
Q 1991 3144 2241 3278 
Q 2491 3413 2834 3413 
Q 3241 3413 3494 3258 
Q 3747 3103 3884 2778 
z
" transform="scale(0.015625)"/>
      <path id="DejaVuSerif-Bold-69" d="M 588 4263 
Q 588 4516 763 4689 
Q 938 4863 1191 4863 
Q 1438 4863 1611 4689 
Q 1784 4516 1784 4263 
Q 1784 4016 1611 3842 
Q 1438 3669 1191 3669 
Q 938 3669 763 3841 
Q 588 4013 588 4263 
z
M 1797 378 
L 2272 378 
L 2272 0 
L 219 0 
L 219 378 
L 691 378 
L 691 2944 
L 219 2944 
L 219 3322 
L 1797 3322 
L 1797 378 
z
" transform="scale(0.015625)"/>
      <path id="DejaVuSerif-Bold-6e" d="M 219 0 
L 219 378 
L 691 378 
L 691 2944 
L 219 2944 
L 219 3322 
L 1797 3322 
L 1797 2853 
Q 1997 3150 2253 3281 
Q 2509 3413 2900 3413 
Q 3459 3413 3745 3083 
Q 4031 2753 4031 2113 
L 4031 378 
L 4506 378 
L 4506 0 
L 2522 0 
L 2522 378 
L 2925 378 
L 2925 2144 
Q 2925 2566 2817 2730 
Q 2709 2894 2444 2894 
Q 2109 2894 1953 2648 
Q 1797 2403 1797 1869 
L 1797 378 
L 2203 378 
L 2203 0 
L 219 0 
z
" transform="scale(0.015625)"/>
      <path id="DejaVuSerif-Bold-2d" d="M 347 2138 
L 2309 2138 
L 2309 1294 
L 347 1294 
L 347 2138 
z
" transform="scale(0.015625)"/>
      <path id="DejaVuSerif-Bold-62" d="M 622 378 
L 622 4488 
L 147 4488 
L 147 4863 
L 1728 4863 
L 1728 2900 
Q 1869 3159 2106 3286 
Q 2344 3413 2694 3413 
Q 3403 3413 3811 2945 
Q 4219 2478 4219 1663 
Q 4219 847 3811 378 
Q 3403 -91 2694 -91 
Q 2344 -91 2106 36 
Q 1869 163 1728 422 
L 1728 0 
L 147 0 
L 147 378 
L 622 378 
z
M 1728 1497 
Q 1728 916 1876 656 
Q 2025 397 2356 397 
Q 2697 397 2836 672 
Q 2975 947 2975 1663 
Q 2975 2378 2836 2651 
Q 2697 2925 2356 2925 
Q 2025 2925 1876 2665 
Q 1728 2406 1728 1825 
L 1728 1497 
z
" transform="scale(0.015625)"/>
      <path id="DejaVuSerif-Bold-61" d="M 3525 2041 
L 3525 378 
L 4000 378 
L 4000 0 
L 2419 0 
L 2419 422 
Q 2200 159 1931 34 
Q 1663 -91 1319 -91 
Q 809 -91 536 182 
Q 263 456 263 966 
Q 263 1525 655 1803 
Q 1047 2081 1838 2081 
L 2419 2081 
L 2419 2278 
Q 2419 2681 2228 2873 
Q 2038 3066 1638 3066 
Q 1306 3066 1126 2930 
Q 947 2794 872 2484 
L 519 2484 
L 519 3200 
Q 816 3306 1134 3359 
Q 1453 3413 1806 3413 
Q 2697 3413 3111 3081 
Q 3525 2750 3525 2041 
z
M 2419 1044 
L 2419 1709 
L 2003 1709 
Q 1694 1709 1528 1540 
Q 1363 1372 1363 1056 
Q 1363 741 1483 584 
Q 1603 428 1850 428 
Q 2106 428 2262 597 
Q 2419 766 2419 1044 
z
" transform="scale(0.015625)"/>
      <path id="DejaVuSerif-Bold-74" d="M 634 2944 
L 153 2944 
L 153 3322 
L 634 3322 
L 634 4353 
L 1741 4353 
L 1741 3322 
L 2663 3322 
L 2663 2944 
L 1741 2944 
L 1741 909 
Q 1741 475 1809 369 
Q 1878 263 2059 263 
Q 2259 263 2356 397 
Q 2453 531 2459 813 
L 2925 813 
Q 2897 313 2651 111 
Q 2406 -91 1806 -91 
Q 1122 -91 878 123 
Q 634 338 634 909 
L 634 2944 
z
" transform="scale(0.015625)"/>
      <path id="DejaVuSerif-Bold-63" d="M 3609 1038 
Q 3491 469 3123 189 
Q 2756 -91 2125 -91 
Q 1238 -91 750 368 
Q 263 828 263 1663 
Q 263 2488 744 2950 
Q 1225 3413 2081 3413 
Q 2428 3413 2781 3347 
Q 3134 3281 3500 3150 
L 3500 2228 
L 3150 2228 
Q 3100 2650 2903 2854 
Q 2706 3059 2350 3059 
Q 1888 3059 1692 2746 
Q 1497 2434 1497 1663 
Q 1497 909 1687 586 
Q 1878 263 2309 263 
Q 2644 263 2845 463 
Q 3047 663 3091 1038 
L 3609 1038 
z
" transform="scale(0.015625)"/>
      <path id="DejaVuSerif-Bold-68" d="M 219 0 
L 219 378 
L 691 378 
L 691 4488 
L 197 4488 
L 197 4863 
L 1797 4863 
L 1797 2853 
Q 1997 3150 2253 3281 
Q 2509 3413 2900 3413 
Q 3459 3413 3745 3083 
Q 4031 2753 4031 2113 
L 4031 378 
L 4506 378 
L 4506 0 
L 2522 0 
L 2522 378 
L 2925 378 
L 2925 2144 
Q 2925 2566 2817 2730 
Q 2709 2894 2444 2894 
Q 2109 2894 1953 2648 
Q 1797 2403 1797 1869 
L 1797 378 
L 2203 378 
L 2203 0 
L 219 0 
z
" transform="scale(0.015625)"/>
     </defs>
     <use xlink:href="#DejaVuSerif-Bold-6d"/>
     <use xlink:href="#DejaVuSerif-Bold-69" transform="translate(105.810547 0)"/>
     <use xlink:href="#DejaVuSerif-Bold-6e" transform="translate(143.798828 0)"/>
     <use xlink:href="#DejaVuSerif-Bold-69" transform="translate(216.503906 0)"/>
     <use xlink:href="#DejaVuSerif-Bold-2d" transform="translate(254.492188 0)"/>
     <use xlink:href="#DejaVuSerif-Bold-62" transform="translate(295.996094 0)"/>
     <use xlink:href="#DejaVuSerif-Bold-61" transform="translate(365.917969 0)"/>
     <use xlink:href="#DejaVuSerif-Bold-74" transform="translate(430.712891 0)"/>
     <use xlink:href="#DejaVuSerif-Bold-63" transform="translate(476.904297 0)"/>
     <use xlink:href="#DejaVuSerif-Bold-68" transform="translate(537.792969 0)"/>
    </g>
   </g>
   <g id="text_2">
    <!-- $(z_0, p, m) \sim \mathcal{D}_\mathrm{cache}$ -->
    <g style="fill: #5a6a7a" transform="translate(33.248571 165.6081) scale(0.09 -0.09)">
     <defs>
      <path id="DejaVuSans-28" d="M 1984 4856 
Q 1566 4138 1362 3434 
Q 1159 2731 1159 2009 
Q 1159 1288 1364 580 
Q 1569 -128 1984 -844 
L 1484 -844 
Q 1016 -109 783 600 
Q 550 1309 550 2009 
Q 550 2706 781 3412 
Q 1013 4119 1484 4856 
L 1984 4856 
z
" transform="scale(0.015625)"/>
      <path id="DejaVuSans-Oblique-7a" d="M 744 3500 
L 3475 3500 
L 3372 2975 
L 738 459 
L 2913 459 
L 2822 0 
L -19 0 
L 84 525 
L 2719 3041 
L 653 3041 
L 744 3500 
z
" transform="scale(0.015625)"/>
      <path id="DejaVuSans-30" d="M 2034 4250 
Q 1547 4250 1301 3770 
Q 1056 3291 1056 2328 
Q 1056 1369 1301 889 
Q 1547 409 2034 409 
Q 2525 409 2770 889 
Q 3016 1369 3016 2328 
Q 3016 3291 2770 3770 
Q 2525 4250 2034 4250 
z
M 2034 4750 
Q 2819 4750 3233 4129 
Q 3647 3509 3647 2328 
Q 3647 1150 3233 529 
Q 2819 -91 2034 -91 
Q 1250 -91 836 529 
Q 422 1150 422 2328 
Q 422 3509 836 4129 
Q 1250 4750 2034 4750 
z
" transform="scale(0.015625)"/>
      <path id="DejaVuSans-2c" d="M 750 794 
L 1409 794 
L 1409 256 
L 897 -744 
L 494 -744 
L 750 256 
L 750 794 
z
" transform="scale(0.015625)"/>
      <path id="DejaVuSans-Oblique-70" d="M 3175 2156 
Q 3175 2616 2975 2859 
Q 2775 3103 2400 3103 
Q 2144 3103 1911 2972 
Q 1678 2841 1497 2591 
Q 1319 2344 1212 1994 
Q 1106 1644 1106 1300 
Q 1106 863 1306 627 
Q 1506 391 1875 391 
Q 2147 391 2380 519 
Q 2613 647 2778 891 
Q 2956 1147 3065 1494 
Q 3175 1841 3175 2156 
z
M 1394 2969 
Q 1625 3272 1939 3428 
Q 2253 3584 2638 3584 
Q 3175 3584 3472 3232 
Q 3769 2881 3769 2247 
Q 3769 1728 3584 1258 
Q 3400 788 3053 416 
Q 2822 169 2531 39 
Q 2241 -91 1919 -91 
Q 1547 -91 1294 64 
Q 1041 219 916 525 
L 556 -1331 
L -19 -1331 
L 922 3500 
L 1497 3500 
L 1394 2969 
z
" transform="scale(0.015625)"/>
      <path id="DejaVuSans-Oblique-6d" d="M 5747 2113 
L 5338 0 
L 4763 0 
L 5166 2094 
Q 5191 2228 5203 2325 
Q 5216 2422 5216 2491 
Q 5216 2772 5059 2928 
Q 4903 3084 4622 3084 
Q 4203 3084 3875 2770 
Q 3547 2456 3450 1953 
L 3066 0 
L 2491 0 
L 2900 2094 
Q 2925 2209 2937 2307 
Q 2950 2406 2950 2484 
Q 2950 2769 2794 2926 
Q 2638 3084 2363 3084 
Q 1938 3084 1609 2770 
Q 1281 2456 1184 1953 
L 800 0 
L 225 0 
L 909 3500 
L 1484 3500 
L 1375 2956 
Q 1609 3263 1923 3423 
Q 2238 3584 2597 3584 
Q 2978 3584 3223 3384 
Q 3469 3184 3519 2828 
Q 3781 3197 4126 3390 
Q 4472 3584 4856 3584 
Q 5306 3584 5551 3325 
Q 5797 3066 5797 2591 
Q 5797 2488 5784 2364 
Q 5772 2241 5747 2113 
z
" transform="scale(0.015625)"/>
      <path id="DejaVuSans-29" d="M 513 4856 
L 1013 4856 
Q 1481 4119 1714 3412 
Q 1947 2706 1947 2009 
Q 1947 1309 1714 600 
Q 1481 -109 1013 -844 
L 513 -844 
Q 928 -128 1133 580 
Q 1338 1288 1338 2009 
Q 1338 2731 1133 3434 
Q 928 4138 513 4856 
z
" transform="scale(0.015625)"/>
      <path id="DejaVuSans-223c" d="M 4684 2556 
L 4684 1997 
Q 4356 1753 4076 1645 
Q 3797 1538 3494 1538 
Q 3150 1538 2694 1722 
Q 2663 1734 2641 1744 
Q 2622 1750 2575 1769 
Q 2091 1959 1797 1959 
Q 1522 1959 1253 1840 
Q 984 1722 678 1459 
L 678 2019 
Q 1006 2263 1286 2370 
Q 1566 2478 1869 2478 
Q 2213 2478 2672 2294 
Q 2706 2278 2722 2272 
Q 2741 2266 2788 2247 
Q 3272 2056 3566 2056 
Q 3834 2056 4098 2173 
Q 4363 2291 4684 2556 
z
" transform="scale(0.015625)"/>
      <path id="STIXNonUnicode-Italic-e230" d="M 314 3418 
L 218 3539 
Q 621 3923 1126 4083 
Q 1619 4237 2490 4237 
Q 3475 4237 4028 4080 
Q 4582 3923 4812 3596 
Q 5043 3270 5043 2701 
Q 5043 2349 4950 1993 
Q 4858 1638 4634 1273 
Q 4410 909 4070 630 
Q 3731 352 3190 176 
Q 2650 0 1978 0 
L 333 0 
L 378 154 
Q 576 154 678 275 
Q 781 397 870 710 
L 1491 2867 
Q 1517 2957 1581 3155 
Q 1645 3354 1673 3466 
Q 1702 3578 1702 3642 
Q 1702 3878 1414 3878 
Q 877 3878 314 3418 
z
M 2438 3750 
L 1510 557 
Q 1478 454 1478 390 
Q 1478 307 1568 281 
Q 1658 256 1856 256 
Q 2093 256 2355 297 
Q 2618 339 2989 489 
Q 3360 640 3645 886 
Q 3930 1133 4134 1597 
Q 4339 2061 4339 2675 
Q 4339 3328 3977 3654 
Q 3616 3981 2758 3981 
Q 2643 3981 2553 3913 
Q 2464 3846 2438 3750 
z
" transform="scale(0.015625)"/>
      <path id="DejaVuSans-63" d="M 3122 3366 
L 3122 2828 
Q 2878 2963 2633 3030 
Q 2388 3097 2138 3097 
Q 1578 3097 1268 2742 
Q 959 2388 959 1747 
Q 959 1106 1268 751 
Q 1578 397 2138 397 
Q 2388 397 2633 464 
Q 2878 531 3122 666 
L 3122 134 
Q 2881 22 2623 -34 
Q 2366 -91 2075 -91 
Q 1284 -91 818 406 
Q 353 903 353 1747 
Q 353 2603 823 3093 
Q 1294 3584 2113 3584 
Q 2378 3584 2631 3529 
Q 2884 3475 3122 3366 
z
" transform="scale(0.015625)"/>
      <path id="DejaVuSans-61" d="M 2194 1759 
Q 1497 1759 1228 1600 
Q 959 1441 959 1056 
Q 959 750 1161 570 
Q 1363 391 1709 391 
Q 2188 391 2477 730 
Q 2766 1069 2766 1631 
L 2766 1759 
L 2194 1759 
z
M 3341 1997 
L 3341 0 
L 2766 0 
L 2766 531 
Q 2569 213 2275 61 
Q 1981 -91 1556 -91 
Q 1019 -91 701 211 
Q 384 513 384 1019 
Q 384 1609 779 1909 
Q 1175 2209 1959 2209 
L 2766 2209 
L 2766 2266 
Q 2766 2663 2505 2880 
Q 2244 3097 1772 3097 
Q 1472 3097 1187 3025 
Q 903 2953 641 2809 
L 641 3341 
Q 956 3463 1253 3523 
Q 1550 3584 1831 3584 
Q 2591 3584 2966 3190 
Q 3341 2797 3341 1997 
z
" transform="scale(0.015625)"/>
      <path id="DejaVuSans-68" d="M 3513 2113 
L 3513 0 
L 2938 0 
L 2938 2094 
Q 2938 2591 2744 2837 
Q 2550 3084 2163 3084 
Q 1697 3084 1428 2787 
Q 1159 2491 1159 1978 
L 1159 0 
L 581 0 
L 581 4863 
L 1159 4863 
L 1159 2956 
Q 1366 3272 1645 3428 
Q 1925 3584 2291 3584 
Q 2894 3584 3203 3211 
Q 3513 2838 3513 2113 
z
" transform="scale(0.015625)"/>
      <path id="DejaVuSans-65" d="M 3597 1894 
L 3597 1613 
L 953 1613 
Q 991 1019 1311 708 
Q 1631 397 2203 397 
Q 2534 397 2845 478 
Q 3156 559 3463 722 
L 3463 178 
Q 3153 47 2828 -22 
Q 2503 -91 2169 -91 
Q 1331 -91 842 396 
Q 353 884 353 1716 
Q 353 2575 817 3079 
Q 1281 3584 2069 3584 
Q 2775 3584 3186 3129 
Q 3597 2675 3597 1894 
z
M 3022 2063 
Q 3016 2534 2758 2815 
Q 2500 3097 2075 3097 
Q 1594 3097 1305 2825 
Q 1016 2553 972 2059 
L 3022 2063 
z
" transform="scale(0.015625)"/>
     </defs>
     <use xlink:href="#DejaVuSans-28" transform="translate(0 0.125)"/>
     <use xlink:href="#DejaVuSans-Oblique-7a" transform="translate(39.013672 0.125)"/>
     <use xlink:href="#DejaVuSans-30" transform="translate(91.503906 -16.28125) scale(0.7)"/>
     <use xlink:href="#DejaVuSans-2c" transform="translate(138.774414 0.125)"/>
     <use xlink:href="#DejaVuSans-Oblique-70" transform="translate(190.043945 0.125)"/>
     <use xlink:href="#DejaVuSans-2c" transform="translate(253.520508 0.125)"/>
     <use xlink:href="#DejaVuSans-Oblique-6d" transform="translate(304.790039 0.125)"/>
     <use xlink:href="#DejaVuSans-29" transform="translate(402.202148 0.125)"/>
     <use xlink:href="#DejaVuSans-223c" transform="translate(460.698242 0.125)"/>
     <use xlink:href="#STIXNonUnicode-Italic-e230" transform="translate(563.969727 0.125)"/>
     <use xlink:href="#DejaVuSans-63" transform="translate(645.026749 -16.28125) scale(0.7)"/>
     <use xlink:href="#DejaVuSans-61" transform="translate(683.513077 -16.28125) scale(0.7)"/>
     <use xlink:href="#DejaVuSans-63" transform="translate(726.408585 -16.28125) scale(0.7)"/>
     <use xlink:href="#DejaVuSans-68" transform="translate(764.894913 -16.28125) scale(0.7)"/>
     <use xlink:href="#DejaVuSans-65" transform="translate(809.260147 -16.28125) scale(0.7)"/>
    </g>
   </g>
   <g id="text_3">
    <!-- $t$ -->
    <g style="fill: #1f2c3a" transform="translate(165.07625 68.024184) scale(0.11 -0.11)">
     <defs>
      <path id="DejaVuSans-Oblique-74" d="M 2706 3500 
L 2619 3053 
L 1472 3053 
L 1100 1153 
Q 1081 1047 1072 975 
Q 1063 903 1063 863 
Q 1063 663 1183 572 
Q 1303 481 1569 481 
L 2150 481 
L 2053 0 
L 1503 0 
Q 991 0 739 200 
Q 488 400 488 806 
Q 488 878 497 964 
Q 506 1050 525 1153 
L 897 3053 
L 409 3053 
L 500 3500 
L 978 3500 
L 1172 4494 
L 1747 4494 
L 1556 3500 
L 2706 3500 
z
" transform="scale(0.015625)"/>
     </defs>
     <use xlink:href="#DejaVuSans-Oblique-74" transform="translate(0 0.78125)"/>
    </g>
   </g>
   <g id="text_4">
    <!-- $\mathcal{U}\{1{:}T\}$ -->
    <g style="fill: #5a6a7a" transform="translate(148.96125 82.538309) scale(0.09 -0.09)">
     <defs>
      <path id="STIXNonUnicode-Italic-e241" d="M 2272 3130 
L 1792 1485 
Q 1645 979 1645 781 
Q 1645 576 1763 406 
Q 1882 237 2106 237 
Q 2490 237 2787 381 
Q 3085 525 3280 774 
Q 3475 1024 3622 1334 
Q 3770 1645 3885 2000 
Q 4000 2355 4102 2675 
Q 4205 2995 4345 3308 
Q 4486 3622 4653 3814 
Q 4864 4064 5049 4182 
Q 5235 4301 5530 4301 
Q 5811 4301 5945 4169 
Q 6080 4038 6080 3834 
Q 6080 3616 5971 3453 
Q 5862 3290 5645 3290 
Q 5510 3290 5417 3366 
Q 5325 3443 5325 3552 
Q 5325 3680 5379 3747 
Q 5434 3814 5434 3827 
Q 5434 3942 5293 3942 
Q 4922 3942 4493 2963 
Q 4403 2752 4278 2368 
Q 4154 1984 4058 1689 
Q 3962 1395 3779 1043 
Q 3597 691 3382 460 
Q 3168 230 2816 73 
Q 2464 -83 2022 -83 
Q 1862 -83 1715 -60 
Q 1568 -38 1373 32 
Q 1178 102 1059 272 
Q 941 442 941 691 
Q 941 896 1005 1133 
L 1504 2906 
Q 1670 3462 1670 3629 
Q 1670 3750 1622 3814 
Q 1574 3878 1434 3878 
Q 941 3878 333 3424 
L 237 3546 
Q 1011 4237 1946 4237 
Q 2406 4237 2406 3808 
Q 2406 3578 2272 3130 
z
" transform="scale(0.015625)"/>
      <path id="DejaVuSans-7b" d="M 3272 -594 
L 3272 -1044 
L 3078 -1044 
Q 2300 -1044 2036 -812 
Q 1772 -581 1772 109 
L 1772 856 
Q 1772 1328 1603 1509 
Q 1434 1691 991 1691 
L 800 1691 
L 800 2138 
L 991 2138 
Q 1438 2138 1605 2317 
Q 1772 2497 1772 2963 
L 1772 3713 
Q 1772 4403 2036 4633 
Q 2300 4863 3078 4863 
L 3272 4863 
L 3272 4416 
L 3059 4416 
Q 2619 4416 2484 4278 
Q 2350 4141 2350 3700 
L 2350 2925 
Q 2350 2434 2208 2212 
Q 2066 1991 1722 1913 
Q 2069 1828 2209 1606 
Q 2350 1384 2350 897 
L 2350 122 
Q 2350 -319 2484 -456 
Q 2619 -594 3059 -594 
L 3272 -594 
z
" transform="scale(0.015625)"/>
      <path id="DejaVuSans-31" d="M 794 531 
L 1825 531 
L 1825 4091 
L 703 3866 
L 703 4441 
L 1819 4666 
L 2450 4666 
L 2450 531 
L 3481 531 
L 3481 0 
L 794 0 
L 794 531 
z
" transform="scale(0.015625)"/>
      <path id="DejaVuSans-3a" d="M 750 794 
L 1409 794 
L 1409 0 
L 750 0 
L 750 794 
z
M 750 3309 
L 1409 3309 
L 1409 2516 
L 750 2516 
L 750 3309 
z
" transform="scale(0.015625)"/>
      <path id="DejaVuSans-Oblique-54" d="M 378 4666 
L 4325 4666 
L 4225 4134 
L 2559 4134 
L 1759 0 
L 1125 0 
L 1925 4134 
L 275 4134 
L 378 4666 
z
" transform="scale(0.015625)"/>
      <path id="DejaVuSans-7d" d="M 800 -594 
L 1019 -594 
Q 1456 -594 1589 -459 
Q 1722 -325 1722 122 
L 1722 897 
Q 1722 1384 1862 1606 
Q 2003 1828 2350 1913 
Q 2003 1991 1862 2212 
Q 1722 2434 1722 2925 
L 1722 3700 
Q 1722 4144 1589 4280 
Q 1456 4416 1019 4416 
L 800 4416 
L 800 4863 
L 997 4863 
Q 1775 4863 2036 4633 
Q 2297 4403 2297 3713 
L 2297 2963 
Q 2297 2497 2465 2317 
Q 2634 2138 3078 2138 
L 3272 2138 
L 3272 1691 
L 3078 1691 
Q 2634 1691 2465 1509 
Q 2297 1328 2297 856 
L 2297 109 
Q 2297 -581 2036 -812 
Q 1775 -1044 997 -1044 
L 800 -1044 
L 800 -594 
z
" transform="scale(0.015625)"/>
     </defs>
     <use xlink:href="#STIXNonUnicode-Italic-e241" transform="translate(0 0.015625)"/>
     <use xlink:href="#DejaVuSans-7b" transform="translate(81.699982 0.015625)"/>
     <use xlink:href="#DejaVuSans-31" transform="translate(145.323029 0.015625)"/>
     <use xlink:href="#DejaVuSans-3a" transform="translate(228.428497 0.015625)"/>
     <use xlink:href="#DejaVuSans-Oblique-54" transform="translate(281.602325 0.015625)"/>
     <use xlink:href="#DejaVuSans-7d" transform="translate(342.68631 0.015625)"/>
    </g>
   </g>
   <g id="text_5">
    <!-- $\varepsilon$ -->
    <g style="fill: #1f2c3a" transform="translate(220.74875 68.024184) scale(0.11 -0.11)">
     <defs>
      <path id="DejaVuSans-Oblique-3b5" d="M 1263 1888 
Q 925 1963 778 2166 
Q 669 2309 669 2503 
Q 669 3034 1175 3344 
Q 1575 3588 2188 3588 
Q 2425 3588 2684 3550 
Q 2944 3513 3234 3438 
L 3134 2916 
Q 2847 3006 2606 3047 
Q 2359 3088 2138 3088 
Q 1766 3088 1522 2944 
Q 1228 2772 1228 2522 
Q 1228 2356 1381 2241 
Q 1563 2103 1925 2103 
L 2409 2103 
L 2319 1628 
L 1856 1628 
Q 1425 1628 1172 1469 
Q 828 1253 828 916 
Q 828 703 1013 563 
Q 1244 388 1716 388 
Q 2006 388 2284 444 
Q 2563 503 2806 619 
L 2700 84 
Q 2403 -3 2131 -47 
Q 1859 -91 1609 -91 
Q 866 -91 516 194 
Q 250 413 250 781 
Q 250 1278 600 1584 
Q 859 1813 1263 1888 
z
" transform="scale(0.015625)"/>
     </defs>
     <use xlink:href="#DejaVuSans-Oblique-3b5" transform="translate(0 0.9375)"/>
    </g>
   </g>
   <g id="text_6">
    <!-- $\mathcal{N}(0, I)$ -->
    <g style="fill: #5a6a7a" transform="translate(209.41875 82.538309) scale(0.09 -0.09)">
     <defs>
      <path id="STIXNonUnicode-Italic-e23a" d="M 4294 800 
L 4301 800 
Q 5293 4070 5408 4378 
Q 5472 4538 5523 4614 
Q 5830 5088 6253 5088 
Q 6490 5088 6650 4931 
Q 6810 4774 6810 4550 
Q 6810 4378 6720 4272 
Q 6630 4166 6470 4166 
Q 6368 4166 6297 4224 
Q 6227 4282 6198 4349 
Q 6170 4416 6118 4473 
Q 6067 4531 6003 4531 
Q 5939 4531 5881 4508 
Q 5824 4486 5785 4457 
Q 5747 4429 5705 4371 
Q 5664 4314 5638 4275 
Q 5613 4237 5584 4163 
Q 5555 4090 5545 4058 
Q 5536 4026 5510 3952 
Q 5485 3878 5485 3866 
L 4262 -154 
L 4134 -154 
Q 3078 1280 2483 2893 
L 2470 2893 
Q 2406 2579 2358 2361 
Q 2310 2144 2214 1792 
Q 2118 1440 2028 1190 
Q 1939 941 1804 653 
Q 1670 365 1529 185 
Q 1389 6 1203 -115 
Q 1018 -237 813 -237 
Q 576 -237 416 -80 
Q 256 77 256 301 
Q 256 474 345 579 
Q 435 685 595 685 
Q 698 685 768 627 
Q 838 570 867 502 
Q 896 435 947 377 
Q 998 320 1062 320 
Q 1222 320 1369 480 
Q 1517 640 1638 928 
Q 1760 1216 1862 1542 
Q 1965 1869 2057 2288 
Q 2150 2707 2214 3033 
Q 2278 3360 2348 3741 
Q 2419 4122 2458 4294 
L 2630 4294 
Q 2682 4166 2874 3680 
Q 3066 3194 3142 3008 
Q 3219 2822 3392 2422 
Q 3565 2022 3683 1798 
Q 3802 1574 3968 1292 
Q 4134 1011 4294 800 
z
" transform="scale(0.015625)"/>
      <path id="DejaVuSans-Oblique-49" d="M 1081 4666 
L 1716 4666 
L 806 0 
L 172 0 
L 1081 4666 
z
" transform="scale(0.015625)"/>
     </defs>
     <use xlink:href="#STIXNonUnicode-Italic-e23a" transform="translate(0 0.5)"/>
     <use xlink:href="#DejaVuSans-28" transform="translate(95.699982 0.5)"/>
     <use xlink:href="#DejaVuSans-30" transform="translate(134.713654 0.5)"/>
     <use xlink:href="#DejaVuSans-2c" transform="translate(198.3367 0.5)"/>
     <use xlink:href="#DejaVuSans-Oblique-49" transform="translate(249.606232 0.5)"/>
     <use xlink:href="#DejaVuSans-29" transform="translate(279.098419 0.5)"/>
    </g>
   </g>
   <g id="text_7">
    <!-- forward diffusion -->
    <g style="fill: #1f2c3a" transform="translate(265.87471 146.797841) scale(0.11 -0.11)">
     <defs>
      <path id="DejaVuSerif-Bold-66" d="M 3097 4031 
L 2747 4031 
Q 2722 4275 2605 4394 
Q 2488 4513 2272 4513 
Q 2022 4513 1909 4333 
Q 1797 4153 1797 3750 
L 1797 3322 
L 2631 3322 
L 2631 2944 
L 1797 2944 
L 1797 378 
L 2438 378 
L 2438 0 
L 219 0 
L 219 378 
L 691 378 
L 691 2944 
L 197 2944 
L 197 3322 
L 691 3322 
L 691 3738 
Q 691 4291 1044 4577 
Q 1397 4863 2081 4863 
Q 2347 4863 2600 4833 
Q 2853 4803 3097 4744 
L 3097 4031 
z
" transform="scale(0.015625)"/>
      <path id="DejaVuSerif-Bold-6f" d="M 2138 263 
Q 2488 263 2630 563 
Q 2772 863 2772 1663 
Q 2772 2463 2631 2761 
Q 2491 3059 2138 3059 
Q 1784 3059 1640 2757 
Q 1497 2456 1497 1663 
Q 1497 869 1640 566 
Q 1784 263 2138 263 
z
M 2138 -91 
Q 1259 -91 761 376 
Q 263 844 263 1663 
Q 263 2484 761 2948 
Q 1259 3413 2138 3413 
Q 3019 3413 3516 2948 
Q 4013 2484 4013 1663 
Q 4013 844 3514 376 
Q 3016 -91 2138 -91 
z
" transform="scale(0.015625)"/>
      <path id="DejaVuSerif-Bold-72" d="M 3438 3359 
L 3438 2369 
L 3084 2369 
Q 3066 2634 2941 2764 
Q 2816 2894 2578 2894 
Q 2216 2894 2006 2575 
Q 1797 2256 1797 1691 
L 1797 378 
L 2400 378 
L 2400 0 
L 219 0 
L 219 378 
L 691 378 
L 691 2944 
L 184 2944 
L 184 3322 
L 1797 3322 
L 1797 2731 
Q 1959 3078 2226 3245 
Q 2494 3413 2881 3413 
Q 2978 3413 3117 3398 
Q 3256 3384 3438 3359 
z
" transform="scale(0.015625)"/>
      <path id="DejaVuSerif-Bold-77" d="M 3450 3322 
L 4206 1106 
L 4831 2944 
L 4397 2944 
L 4397 3322 
L 5638 3322 
L 5638 2944 
L 5247 2944 
L 4244 0 
L 3481 0 
L 2778 2081 
L 2069 0 
L 1313 0 
L 306 2944 
L -56 2944 
L -56 3322 
L 1825 3322 
L 1825 2944 
L 1434 2944 
L 2047 1147 
L 2791 3322 
L 3450 3322 
z
" transform="scale(0.015625)"/>
      <path id="DejaVuSerif-Bold-64" d="M 2747 1497 
L 2747 1825 
Q 2747 2406 2597 2665 
Q 2447 2925 2119 2925 
Q 1775 2925 1636 2651 
Q 1497 2378 1497 1663 
Q 1497 947 1637 672 
Q 1778 397 2119 397 
Q 2447 397 2597 656 
Q 2747 916 2747 1497 
z
M 3853 378 
L 4325 378 
L 4325 0 
L 2747 0 
L 2747 422 
Q 2606 163 2367 36 
Q 2128 -91 1778 -91 
Q 1072 -91 667 378 
Q 263 847 263 1663 
Q 263 2481 667 2947 
Q 1072 3413 1778 3413 
Q 2128 3413 2367 3286 
Q 2606 3159 2747 2900 
L 2747 4488 
L 2272 4488 
L 2272 4863 
L 3853 4863 
L 3853 378 
z
" transform="scale(0.015625)"/>
      <path id="DejaVuSerif-Bold-20" transform="scale(0.015625)"/>
      <path id="DejaVuSerif-Bold-75" d="M 3963 3322 
L 3963 378 
L 4434 378 
L 4434 0 
L 2853 0 
L 2853 469 
Q 2656 172 2400 40 
Q 2144 -91 1753 -91 
Q 1194 -91 908 239 
Q 622 569 622 1209 
L 622 2944 
L 147 2944 
L 147 3322 
L 1728 3322 
L 1728 1381 
Q 1728 763 1831 595 
Q 1934 428 2209 428 
Q 2544 428 2698 675 
Q 2853 922 2853 1459 
L 2853 2944 
L 2450 2944 
L 2450 3322 
L 3963 3322 
z
" transform="scale(0.015625)"/>
      <path id="DejaVuSerif-Bold-73" d="M 300 97 
L 300 1025 
L 653 1025 
Q 697 653 931 458 
Q 1166 263 1569 263 
Q 1906 263 2086 380 
Q 2266 497 2266 716 
Q 2266 916 2152 1025 
Q 2038 1134 1709 1216 
L 1253 1331 
Q 738 1459 506 1698 
Q 275 1938 275 2344 
Q 275 2884 650 3148 
Q 1025 3413 1806 3413 
Q 2100 3413 2433 3364 
Q 2766 3316 3169 3213 
L 3169 2375 
L 2816 2375 
Q 2788 2716 2573 2887 
Q 2359 3059 1959 3059 
Q 1622 3059 1448 2951 
Q 1275 2844 1275 2638 
Q 1275 2469 1375 2372 
Q 1475 2275 1734 2209 
L 2188 2094 
Q 2841 1928 3091 1684 
Q 3341 1441 3341 1006 
Q 3341 444 2939 176 
Q 2538 -91 1691 -91 
Q 1381 -91 1034 -44 
Q 688 3 300 97 
z
" transform="scale(0.015625)"/>
     </defs>
     <use xlink:href="#DejaVuSerif-Bold-66"/>
     <use xlink:href="#DejaVuSerif-Bold-6f" transform="translate(43.017578 0)"/>
     <use xlink:href="#DejaVuSerif-Bold-72" transform="translate(109.716797 0)"/>
     <use xlink:href="#DejaVuSerif-Bold-77" transform="translate(162.402344 0)"/>
     <use xlink:href="#DejaVuSerif-Bold-61" transform="translate(248.486328 0)"/>
     <use xlink:href="#DejaVuSerif-Bold-72" transform="translate(313.28125 0)"/>
     <use xlink:href="#DejaVuSerif-Bold-64" transform="translate(365.966797 0)"/>
     <use xlink:href="#DejaVuSerif-Bold-20" transform="translate(435.888672 0)"/>
     <use xlink:href="#DejaVuSerif-Bold-64" transform="translate(470.703125 0)"/>
     <use xlink:href="#DejaVuSerif-Bold-69" transform="translate(540.625 0)"/>
     <use xlink:href="#DejaVuSerif-Bold-66" transform="translate(578.613281 0)"/>
     <use xlink:href="#DejaVuSerif-Bold-66" transform="translate(621.630859 0)"/>
     <use xlink:href="#DejaVuSerif-Bold-75" transform="translate(664.648438 0)"/>
     <use xlink:href="#DejaVuSerif-Bold-73" transform="translate(737.353516 0)"/>
     <use xlink:href="#DejaVuSerif-Bold-69" transform="translate(793.652344 0)"/>
     <use xlink:href="#DejaVuSerif-Bold-6f" transform="translate(831.640625 0)"/>
     <use xlink:href="#DejaVuSerif-Bold-6e" transform="translate(898.339844 0)"/>
    </g>
   </g>
   <g id="text_8">
    <!-- $z_t = \sqrt{\bar\alpha_t}\,z_0 + \sqrt{1-\bar\alpha_t}\,\varepsilon$ -->
    <g style="fill: #5a6a7a" transform="translate(270.366429 167.201381) scale(0.09 -0.09)">
     <defs>
      <path id="DejaVuSans-3d" d="M 678 2906 
L 4684 2906 
L 4684 2381 
L 678 2381 
L 678 2906 
z
M 678 1631 
L 4684 1631 
L 4684 1100 
L 678 1100 
L 678 1631 
z
" transform="scale(0.015625)"/>
      <path id="STIXSizeOneSym-Regular-221a" d="M 6970 9933 
L 3373 -1888 
L 3104 -1888 
L 1626 2918 
Q 1555 3149 1465 3251 
Q 1376 3354 1229 3354 
Q 1011 3354 794 3181 
L 717 3309 
L 1766 4115 
L 1926 4115 
L 3379 -602 
L 3405 -602 
L 6605 9933 
L 6970 9933 
z
" transform="scale(0.015625)"/>
      <path id="DejaVuSans-304" d="M -2518 4769 
L -650 4769 
L -650 4306 
L -2518 4306 
L -2518 4769 
z
" transform="scale(0.015625)"/>
      <path id="DejaVuSans-Oblique-3b1" d="M 2619 1628 
L 2622 2350 
Q 2625 3088 2069 3091 
Q 1653 3094 1394 2747 
Q 1069 2319 959 1747 
Q 825 1059 994 731 
Q 1169 397 1547 397 
Q 1966 397 2319 1063 
L 2619 1628 
z
M 2166 3578 
Q 3141 3594 3128 2584 
Q 3128 2584 3616 3500 
L 4128 3500 
L 3119 1603 
L 3109 919 
Q 3109 766 3194 638 
Q 3291 488 3391 488 
L 3669 488 
L 3575 0 
L 3228 0 
Q 2934 0 2722 263 
Q 2622 394 2619 669 
Q 2416 334 2066 50 
Q 1900 -81 1453 -78 
Q 722 -72 456 397 
Q 184 884 353 1747 
Q 534 2675 1009 3097 
Q 1544 3569 2166 3578 
z
" transform="scale(0.015625)"/>
      <path id="DejaVuSans-2b" d="M 2944 4013 
L 2944 2272 
L 4684 2272 
L 4684 1741 
L 2944 1741 
L 2944 0 
L 2419 0 
L 2419 1741 
L 678 1741 
L 678 2272 
L 2419 2272 
L 2419 4013 
L 2944 4013 
z
" transform="scale(0.015625)"/>
      <path id="DejaVuSans-2212" d="M 678 2272 
L 4684 2272 
L 4684 1741 
L 678 1741 
L 678 2272 
z
" transform="scale(0.015625)"/>
     </defs>
     <use xlink:href="#DejaVuSans-Oblique-7a" transform="translate(0 0.65625)"/>
     <use xlink:href="#DejaVuSans-Oblique-74" transform="translate(52.490234 -15.75) scale(0.7)"/>
     <use xlink:href="#DejaVuSans-3d" transform="translate(102.15332 0.65625)"/>
     <use xlink:href="#STIXSizeOneSym-Regular-221a" transform="translate(205.424805 4.015625) scale(0.668894)"/>
     <use xlink:href="#DejaVuSans-304" transform="translate(352.357773 2.234375)"/>
     <use xlink:href="#DejaVuSans-Oblique-3b1" transform="translate(288.611679 0.859375)"/>
     <use xlink:href="#DejaVuSans-Oblique-74" transform="translate(355.486679 -15.546875) scale(0.7)"/>
     <use xlink:href="#DejaVuSans-Oblique-7a" transform="translate(414.403019 0.65625)"/>
     <use xlink:href="#DejaVuSans-30" transform="translate(466.893254 -15.75) scale(0.7)"/>
     <use xlink:href="#DejaVuSans-2b" transform="translate(533.646183 0.65625)"/>
     <use xlink:href="#STIXSizeOneSym-Regular-221a" transform="translate(636.917668 4.015625) scale(0.668894)"/>
     <use xlink:href="#DejaVuSans-31" transform="translate(720.104542 0.859375)"/>
     <use xlink:href="#DejaVuSans-2212" transform="translate(803.210011 0.859375)"/>
     <use xlink:href="#DejaVuSans-304" transform="translate(970.227589 2.234375)"/>
     <use xlink:href="#DejaVuSans-Oblique-3b1" transform="translate(906.481495 0.859375)"/>
     <use xlink:href="#DejaVuSans-Oblique-74" transform="translate(973.356495 -15.546875) scale(0.7)"/>
     <use xlink:href="#DejaVuSans-Oblique-3b5" transform="translate(1032.272836 0.65625)"/>
     <path d="M 276.111679 101.5 
L 276.111679 107.75 
L 398.167343 107.75 
L 398.167343 101.5 
L 276.111679 101.5 
z
"/>
     <path d="M 707.604542 101.5 
L 707.604542 107.75 
L 1016.037159 107.75 
L 1016.037159 101.5 
L 707.604542 101.5 
z
"/>
    </g>
   </g>
   <g id="text_9">
    <!-- cfg-dropout -->
    <g style="fill: #1f2c3a" transform="translate(159.216406 228.398881) scale(0.11 -0.11)">
     <defs>
      <path id="DejaVuSerif-Bold-67" d="M 3853 2944 
L 3853 44 
Q 3853 -656 3354 -1039 
Q 2856 -1422 1947 -1422 
Q 1616 -1422 1275 -1370 
Q 934 -1319 575 -1216 
L 575 -422 
L 928 -422 
Q 975 -750 1192 -909 
Q 1409 -1069 1813 -1069 
Q 2325 -1069 2536 -823 
Q 2747 -578 2747 44 
L 2747 422 
Q 2606 163 2367 36 
Q 2128 -91 1778 -91 
Q 1072 -91 667 378 
Q 263 847 263 1663 
Q 263 2481 667 2947 
Q 1072 3413 1778 3413 
Q 2128 3413 2367 3286 
Q 2606 3159 2747 2900 
L 2747 3322 
L 4325 3322 
L 4325 2944 
L 3853 2944 
z
M 2747 1825 
Q 2747 2406 2597 2665 
Q 2447 2925 2119 2925 
Q 1775 2925 1636 2651 
Q 1497 2378 1497 1663 
Q 1497 947 1637 672 
Q 1778 397 2119 397 
Q 2447 397 2597 656 
Q 2747 916 2747 1497 
L 2747 1825 
z
" transform="scale(0.015625)"/>
      <path id="DejaVuSerif-Bold-70" d="M 1728 1825 
L 1728 1497 
Q 1728 916 1876 656 
Q 2025 397 2356 397 
Q 2697 397 2836 672 
Q 2975 947 2975 1663 
Q 2975 2378 2836 2651 
Q 2697 2925 2356 2925 
Q 2025 2925 1876 2665 
Q 1728 2406 1728 1825 
z
M 622 2944 
L 147 2944 
L 147 3322 
L 1728 3322 
L 1728 2900 
Q 1869 3159 2106 3286 
Q 2344 3413 2694 3413 
Q 3403 3413 3811 2945 
Q 4219 2478 4219 1663 
Q 4219 847 3811 378 
Q 3403 -91 2694 -91 
Q 2344 -91 2106 36 
Q 1869 163 1728 422 
L 1728 -953 
L 2241 -953 
L 2241 -1331 
L 147 -1331 
L 147 -953 
L 622 -953 
L 622 2944 
z
" transform="scale(0.015625)"/>
     </defs>
     <use xlink:href="#DejaVuSerif-Bold-63"/>
     <use xlink:href="#DejaVuSerif-Bold-66" transform="translate(60.888672 0)"/>
     <use xlink:href="#DejaVuSerif-Bold-67" transform="translate(103.90625 0)"/>
     <use xlink:href="#DejaVuSerif-Bold-2d" transform="translate(173.828125 0)"/>
     <use xlink:href="#DejaVuSerif-Bold-64" transform="translate(215.332031 0)"/>
     <use xlink:href="#DejaVuSerif-Bold-72" transform="translate(285.253906 0)"/>
     <use xlink:href="#DejaVuSerif-Bold-6f" transform="translate(337.939453 0)"/>
     <use xlink:href="#DejaVuSerif-Bold-70" transform="translate(404.638672 0)"/>
     <use xlink:href="#DejaVuSerif-Bold-6f" transform="translate(474.560547 0)"/>
     <use xlink:href="#DejaVuSerif-Bold-75" transform="translate(541.259766 0)"/>
     <use xlink:href="#DejaVuSerif-Bold-74" transform="translate(613.964844 0)"/>
    </g>
   </g>
   <g id="text_10">
    <!-- $(p, m) \to \varnothing$ w.p. 0.10 -->
    <g style="fill: #5a6a7a" transform="translate(150.525 245.135057) scale(0.09 -0.09)">
     <defs>
      <path id="DejaVuSans-2192" d="M 5050 2147 
L 5050 1866 
L 3822 638 
L 3447 1013 
L 4175 1741 
L 366 1741 
L 366 2272 
L 4175 2272 
L 3447 3000 
L 3822 3375 
L 5050 2147 
z
" transform="scale(0.015625)"/>
      <path id="DejaVuSans-2205" d="M 4025 4184 
L 4303 4528 
L 4634 4528 
L 4234 4038 
Q 4563 3778 4778 3397 
Q 5091 2841 5091 2241 
Q 5091 1641 4778 1086 
Q 4466 531 3916 234 
Q 3366 -63 2788 -63 
Q 2203 -63 1653 234 
Q 1478 328 1328 450 
L 934 -38 
L 606 -38 
L 1138 619 
Q 941 825 794 1088 
Q 484 1641 484 2241 
Q 484 2841 793 3395 
Q 1103 3950 1653 4247 
Q 2203 4544 2788 4544 
Q 3366 4544 3916 4247 
Q 3972 4216 4025 4184 
z
M 1400 944 
L 3763 3859 
L 3719 3884 
Q 3266 4128 2788 4128 
Q 2306 4128 1851 3883 
Q 1397 3638 1141 3178 
Q 888 2725 884 2241 
Q 888 1756 1141 1303 
Q 1253 1103 1400 944 
z
M 3975 3716 
L 1591 772 
Q 1713 675 1853 600 
Q 2306 353 2788 353 
Q 3266 353 3719 598 
Q 4172 844 4431 1303 
Q 4688 1756 4691 2241 
Q 4688 2725 4431 3178 
Q 4250 3500 3975 3716 
z
" transform="scale(0.015625)"/>
      <path id="DejaVuSerif-Italic-20" transform="scale(0.015625)"/>
      <path id="DejaVuSerif-Italic-77" d="M 3741 728 
Q 4156 1178 4250 1344 
Q 4594 1969 4931 2988 
L 4447 2984 
L 4513 3322 
L 5347 3322 
L 5281 2984 
L 5278 2984 
Q 4959 1825 4656 1266 
Q 4209 469 3719 0 
L 3241 0 
L 2900 2484 
L 1597 0 
L 1138 0 
L 734 2988 
L 359 2981 
L 425 3322 
L 1281 3322 
L 1631 728 
L 2991 3322 
L 3394 3322 
L 3741 728 
z
" transform="scale(0.015625)"/>
      <path id="DejaVuSerif-Italic-2e" d="M 664 29 
Q 569 150 603 325 
Q 638 500 780 622 
Q 922 744 1100 744 
Q 1272 744 1370 622 
Q 1469 500 1434 325 
Q 1400 153 1254 31 
Q 1109 -91 938 -91 
Q 759 -91 664 29 
z
" transform="scale(0.015625)"/>
      <path id="DejaVuSerif-Italic-70" d="M 1466 1825 
L 1400 1497 
Q 1353 1250 1353 1053 
Q 1353 769 1453 581 
Q 1622 269 2059 269 
Q 2500 269 2795 622 
Q 3091 975 3225 1663 
Q 3284 1978 3284 2225 
Q 3284 2513 3200 2703 
Q 3041 3053 2600 3053 
Q 2163 3053 1872 2737 
Q 1581 2422 1466 1825 
z
M 1116 2988 
L 563 2988 
L 628 3322 
L 1756 3322 
L 1656 2803 
Q 1884 3116 2175 3264 
Q 2466 3413 2850 3413 
Q 3463 3413 3753 2928 
Q 3947 2609 3947 2163 
Q 3947 1928 3897 1663 
Q 3744 881 3262 395 
Q 2781 -91 2169 -91 
Q 1784 -91 1551 57 
Q 1319 206 1213 519 
L 850 -1331 
L 275 -1331 
L 1116 2988 
z
" transform="scale(0.015625)"/>
      <path id="DejaVuSerif-Italic-30" d="M 1011 744 
Q 1147 219 1625 219 
Q 2103 219 2442 744 
Q 2781 1269 2988 2328 
Q 3194 3391 3058 3916 
Q 2922 4441 2444 4441 
Q 1966 4441 1627 3916 
Q 1288 3391 1081 2328 
Q 875 1269 1011 744 
z
M 1563 -91 
Q 803 -91 501 546 
Q 200 1184 422 2328 
Q 644 3475 1195 4112 
Q 1747 4750 2506 4750 
Q 3269 4750 3569 4112 
Q 3869 3475 3647 2328 
Q 3425 1184 2875 546 
Q 2325 -91 1563 -91 
z
" transform="scale(0.015625)"/>
      <path id="DejaVuSerif-Italic-31" d="M 447 0 
L 513 331 
L 1325 331 
L 2078 4213 
L 1019 3603 
L 1100 4013 
L 2381 4750 
L 2813 4750 
L 1953 331 
L 2766 331 
L 2700 0 
L 447 0 
z
" transform="scale(0.015625)"/>
     </defs>
     <use xlink:href="#DejaVuSans-28" transform="translate(0 0.125)"/>
     <use xlink:href="#DejaVuSans-Oblique-70" transform="translate(39.013672 0.125)"/>
     <use xlink:href="#DejaVuSans-2c" transform="translate(102.490234 0.125)"/>
     <use xlink:href="#DejaVuSans-Oblique-6d" transform="translate(153.759766 0.125)"/>
     <use xlink:href="#DejaVuSans-29" transform="translate(251.171875 0.125)"/>
     <use xlink:href="#DejaVuSans-2192" transform="translate(309.667969 0.125)"/>
     <use xlink:href="#DejaVuSans-2205" transform="translate(412.939453 0.125)"/>
     <use xlink:href="#DejaVuSerif-Italic-20" transform="translate(500.048828 0.125)"/>
     <use xlink:href="#DejaVuSerif-Italic-77" transform="translate(531.835938 0.125)"/>
     <use xlink:href="#DejaVuSerif-Italic-2e" transform="translate(617.431641 0.125)"/>
     <use xlink:href="#DejaVuSerif-Italic-70" transform="translate(649.21875 0.125)"/>
     <use xlink:href="#DejaVuSerif-Italic-2e" transform="translate(713.232422 0.125)"/>
     <use xlink:href="#DejaVuSerif-Italic-20" transform="translate(745.019531 0.125)"/>
     <use xlink:href="#DejaVuSerif-Italic-30" transform="translate(776.806641 0.125)"/>
     <use xlink:href="#DejaVuSerif-Italic-2e" transform="translate(840.429688 0.125)"/>
     <use xlink:href="#DejaVuSerif-Italic-31" transform="translate(872.216797 0.125)"/>
     <use xlink:href="#DejaVuSerif-Italic-30" transform="translate(935.839844 0.125)"/>
    </g>
   </g>
   <g id="text_11">
    <!-- noise predictor $\varepsilon_\theta$ -->
    <g style="fill: #1f2c3a" transform="translate(388.697857 146.787529) scale(0.11 -0.11)">
     <defs>
      <path id="DejaVuSerif-Bold-65" d="M 2566 1875 
Q 2566 2531 2444 2795 
Q 2322 3059 2028 3059 
Q 1744 3059 1620 2800 
Q 1497 2541 1497 1931 
L 1497 1875 
L 2566 1875 
z
M 3781 1503 
L 1497 1503 
L 1497 1478 
Q 1497 834 1690 548 
Q 1884 263 2316 263 
Q 2675 263 2897 453 
Q 3119 644 3181 1006 
L 3700 1006 
Q 3566 441 3166 175 
Q 2766 -91 2047 -91 
Q 1184 -91 723 364 
Q 263 819 263 1663 
Q 263 2488 734 2950 
Q 1206 3413 2047 3413 
Q 2872 3413 3312 2927 
Q 3753 2441 3781 1503 
z
" transform="scale(0.015625)"/>
      <path id="DejaVuSans-Oblique-3b8" d="M 2913 2219 
L 925 2219 
Q 791 1284 928 888 
Q 1100 400 1566 400 
Q 2034 400 2391 891 
Q 2703 1322 2913 2219 
z
M 3009 2750 
Q 3094 3638 2984 3950 
Q 2813 4444 2353 4444 
Q 1875 4444 1525 3956 
Q 1250 3563 1034 2750 
L 3009 2750 
z
M 2444 4913 
Q 3194 4913 3494 4250 
Q 3794 3591 3566 2422 
Q 3341 1256 2781 594 
Q 2225 -72 1475 -72 
Q 722 -72 425 594 
Q 128 1256 353 2422 
Q 581 3591 1134 4250 
Q 1691 4913 2444 4913 
z
" transform="scale(0.015625)"/>
     </defs>
     <use xlink:href="#DejaVuSerif-Bold-6e" transform="translate(0 0.015625)"/>
     <use xlink:href="#DejaVuSerif-Bold-6f" transform="translate(72.705078 0.015625)"/>
     <use xlink:href="#DejaVuSerif-Bold-69" transform="translate(139.404297 0.015625)"/>
     <use xlink:href="#DejaVuSerif-Bold-73" transform="translate(177.392578 0.015625)"/>
     <use xlink:href="#DejaVuSerif-Bold-65" transform="translate(233.691406 0.015625)"/>
     <use xlink:href="#DejaVuSerif-Bold-20" transform="translate(297.314453 0.015625)"/>
     <use xlink:href="#DejaVuSerif-Bold-70" transform="translate(332.128906 0.015625)"/>
     <use xlink:href="#DejaVuSerif-Bold-72" transform="translate(402.050781 0.015625)"/>
     <use xlink:href="#DejaVuSerif-Bold-65" transform="translate(454.736328 0.015625)"/>
     <use xlink:href="#DejaVuSerif-Bold-64" transform="translate(518.359375 0.015625)"/>
     <use xlink:href="#DejaVuSerif-Bold-69" transform="translate(588.28125 0.015625)"/>
     <use xlink:href="#DejaVuSerif-Bold-63" transform="translate(626.269531 0.015625)"/>
     <use xlink:href="#DejaVuSerif-Bold-74" transform="translate(687.158203 0.015625)"/>
     <use xlink:href="#DejaVuSerif-Bold-6f" transform="translate(733.349609 0.015625)"/>
     <use xlink:href="#DejaVuSerif-Bold-72" transform="translate(800.048828 0.015625)"/>
     <use xlink:href="#DejaVuSerif-Bold-20" transform="translate(852.734375 0.015625)"/>
     <use xlink:href="#DejaVuSans-Oblique-3b5" transform="translate(887.548828 0.015625)"/>
     <use xlink:href="#DejaVuSans-Oblique-3b8" transform="translate(941.601562 -16.390625) scale(0.7)"/>
    </g>
   </g>
   <g id="text_12">
    <!-- FiLM ResNet, 44.6 M params -->
    <g style="fill: #5a6a7a" transform="translate(375.357857 165.616537) scale(0.09 -0.09)">
     <defs>
      <path id="DejaVuSerif-Italic-46" d="M -97 0 
L -34 331 
L 559 331 
L 1338 4331 
L 744 4331 
L 809 4666 
L 4628 4666 
L 4428 3628 
L 4044 3628 
L 4169 4281 
L 1963 4281 
L 1659 2719 
L 3253 2719 
L 3366 3303 
L 3750 3303 
L 3450 1753 
L 3066 1753 
L 3178 2338 
L 1584 2338 
L 1194 331 
L 1941 331 
L 1878 0 
L -97 0 
z
" transform="scale(0.015625)"/>
      <path id="DejaVuSerif-Italic-69" d="M 1009 4353 
Q 1038 4497 1163 4603 
Q 1288 4709 1434 4709 
Q 1578 4709 1663 4603 
Q 1728 4522 1728 4422 
Q 1728 4388 1719 4353 
Q 1691 4206 1567 4103 
Q 1444 4000 1297 4000 
Q 1150 4000 1066 4103 
Q 1003 4181 1003 4281 
Q 1003 4316 1009 4353 
z
M 963 331 
L 1506 331 
L 1444 0 
L 325 0 
L 903 2988 
L 353 2988 
L 419 3322 
L 1544 3322 
L 963 331 
z
" transform="scale(0.015625)"/>
      <path id="DejaVuSerif-Italic-4c" d="M -97 0 
L -34 331 
L 559 331 
L 1338 4331 
L 744 4331 
L 809 4666 
L 2631 4666 
L 2566 4331 
L 1972 4331 
L 1206 384 
L 3338 384 
L 3488 1166 
L 3872 1166 
L 3647 0 
L -97 0 
z
" transform="scale(0.015625)"/>
      <path id="DejaVuSerif-Italic-4d" d="M -97 0 
L -34 331 
L 559 331 
L 1338 4331 
L 709 4331 
L 775 4666 
L 2134 4666 
L 3125 1344 
L 5409 4666 
L 6684 4666 
L 6619 4331 
L 5997 4331 
L 5222 331 
L 5816 331 
L 5753 0 
L 3928 0 
L 3991 331 
L 4584 331 
L 5288 3938 
L 3053 684 
L 2613 684 
L 1647 3938 
L 944 331 
L 1538 331 
L 1475 0 
L -97 0 
z
" transform="scale(0.015625)"/>
      <path id="DejaVuSerif-Italic-52" d="M 3066 2316 
Q 3272 2256 3403 2114 
Q 3534 1972 3609 1716 
L 4016 331 
L 4584 331 
L 4522 0 
L 3422 0 
L 2981 1484 
Q 2856 1916 2706 2042 
Q 2556 2169 2250 2169 
L 1553 2169 
L 1194 331 
L 1853 331 
L 1791 0 
L -97 0 
L -34 331 
L 559 331 
L 1338 4331 
L 744 4331 
L 809 4666 
L 3175 4666 
Q 3856 4666 4164 4341 
Q 4472 4016 4356 3419 
Q 4263 2938 3938 2661 
Q 3613 2384 3066 2316 
z
M 1619 2503 
L 2541 2503 
Q 3013 2503 3280 2726 
Q 3547 2950 3639 3419 
Q 3731 3888 3548 4109 
Q 3366 4331 2894 4331 
L 1972 4331 
L 1619 2503 
z
" transform="scale(0.015625)"/>
      <path id="DejaVuSerif-Italic-65" d="M 938 1275 
Q 925 1156 925 1050 
Q 925 756 1031 563 
Q 1216 219 1709 219 
Q 2072 219 2250 328 
Q 2569 525 2644 778 
L 3066 778 
Q 2941 381 2475 103 
Q 2150 -91 1506 -91 
Q 863 -91 516 388 
Q 272 722 272 1206 
Q 272 1419 319 1659 
Q 472 2450 1000 2931 
Q 1528 3413 2278 3413 
Q 3500 3413 3500 2547 
Q 3500 1913 2859 1603 
Q 2206 1288 938 1275 
z
M 2541 1975 
Q 2891 2181 2891 2569 
Q 2891 3103 2181 3103 
Q 1763 3103 1472 2784 
Q 1181 2466 1003 1606 
Q 2006 1653 2541 1975 
z
" transform="scale(0.015625)"/>
      <path id="DejaVuSerif-Italic-73" d="M 222 959 
L 553 959 
Q 541 869 541 788 
Q 541 219 1313 219 
Q 2088 219 2200 788 
Q 2209 844 2209 944 
Q 2209 1041 2103 1158 
Q 1997 1275 1550 1428 
L 1159 1569 
Q 759 1706 629 1882 
Q 500 2059 500 2263 
Q 500 2344 516 2438 
Q 606 2894 990 3153 
Q 1375 3413 1931 3413 
Q 2484 3413 3066 3144 
L 2925 2419 
L 2594 2419 
Q 2606 2491 2606 2553 
Q 2606 2781 2448 2942 
Q 2291 3103 1925 3103 
Q 1191 3103 1091 2591 
Q 1078 2538 1078 2444 
Q 1078 2347 1179 2237 
Q 1281 2128 1678 1997 
L 2106 1856 
Q 2550 1709 2716 1488 
Q 2831 1331 2831 1178 
Q 2831 522 2306 181 
Q 1894 -91 1262 -91 
Q 631 -91 72 184 
L 222 959 
z
" transform="scale(0.015625)"/>
      <path id="DejaVuSerif-Italic-4e" d="M -128 0 
L -66 331 
L 563 331 
L 1341 4331 
L 713 4331 
L 778 4666 
L 1975 4666 
L 4056 984 
L 4706 4331 
L 4081 4331 
L 4147 4666 
L 5784 4666 
L 5719 4331 
L 5091 4331 
L 4231 -91 
L 3853 -91 
L 1631 3841 
L 947 331 
L 1575 331 
L 1513 0 
L -128 0 
z
" transform="scale(0.015625)"/>
      <path id="DejaVuSerif-Italic-74" d="M 856 2988 
L 350 2988 
L 416 3322 
L 922 3322 
L 1122 4353 
L 1700 4353 
L 1500 3322 
L 2581 3322 
L 2516 2988 
L 1434 2988 
L 1025 878 
Q 978 631 978 488 
Q 978 388 1000 338 
Q 1059 219 1278 219 
Q 1503 219 1633 351 
Q 1763 484 1825 781 
L 2259 781 
Q 2147 328 1884 118 
Q 1622 -91 1169 -91 
Q 672 -91 506 131 
Q 406 266 406 516 
Q 406 675 447 878 
L 856 2988 
z
" transform="scale(0.015625)"/>
      <path id="DejaVuSerif-Italic-2c" d="M 125 -622 
Q 463 -406 656 -114 
Q 850 178 931 594 
L 953 709 
L 1569 709 
Q 1441 175 1139 -208 
Q 838 -591 328 -872 
L 125 -622 
z
" transform="scale(0.015625)"/>
      <path id="DejaVuSerif-Italic-34" d="M 2084 1581 
L 2566 4063 
L 491 1581 
L 2084 1581 
z
M 3150 0 
L 1025 0 
L 1091 331 
L 1841 331 
L 2019 1247 
L -19 1247 
L 47 1588 
L 2706 4750 
L 3325 4750 
L 2709 1581 
L 3600 1581 
L 3534 1247 
L 2644 1247 
L 2466 331 
L 3216 331 
L 3150 0 
z
" transform="scale(0.015625)"/>
      <path id="DejaVuSerif-Italic-36" d="M 1070 553 
Q 1244 219 1684 219 
Q 2125 219 2425 542 
Q 2725 866 2842 1472 
Q 2959 2078 2786 2401 
Q 2613 2725 2172 2725 
Q 1725 2725 1429 2412 
Q 1134 2100 1019 1509 
Q 897 888 1070 553 
z
M 1122 2569 
Q 1378 2803 1670 2918 
Q 1963 3034 2300 3034 
Q 2997 3034 3320 2615 
Q 3644 2197 3503 1472 
Q 3366 763 2845 336 
Q 2325 -91 1597 -91 
Q 806 -91 497 498 
Q 188 1088 400 2181 
Q 638 3406 1272 4078 
Q 1906 4750 2822 4750 
Q 3069 4750 3331 4703 
Q 3594 4656 3859 4563 
L 3709 3794 
L 3356 3794 
Q 3381 4109 3209 4275 
Q 3038 4441 2694 4441 
Q 2088 4441 1702 3981 
Q 1316 3522 1122 2569 
z
" transform="scale(0.015625)"/>
      <path id="DejaVuSerif-Italic-61" d="M 2325 519 
Q 1909 -91 1238 -91 
Q 688 -91 409 281 
Q 216 544 216 919 
Q 216 1078 250 1256 
Q 463 2359 1231 2928 
Q 1884 3413 2675 3413 
Q 3206 3413 3388 3322 
L 2806 331 
L 3300 331 
L 3238 0 
L 2225 0 
L 2325 519 
z
M 822 938 
Q 822 269 1469 269 
Q 1863 269 2130 583 
Q 2397 897 2516 1497 
L 2806 3003 
L 2806 3003 
Q 2806 3094 2556 3094 
Q 1956 3094 1491 2625 
Q 1028 2153 863 1297 
Q 822 1097 822 938 
z
" transform="scale(0.015625)"/>
      <path id="DejaVuSerif-Italic-72" d="M 3375 3328 
L 3213 2497 
L 2881 2497 
Q 2891 2559 2891 2613 
Q 2891 2775 2816 2866 
Q 2719 2988 2484 2988 
Q 2059 2988 1775 2694 
Q 1491 2400 1384 1850 
L 1025 0 
L 450 0 
L 1031 2994 
L 481 2994 
L 544 3322 
L 1669 3322 
L 1556 2731 
Q 1791 3078 2089 3245 
Q 2388 3413 2769 3413 
Q 2909 3413 3059 3391 
Q 3209 3369 3375 3328 
z
" transform="scale(0.015625)"/>
      <path id="DejaVuSerif-Italic-6d" d="M 3503 2675 
Q 3741 3041 4034 3227 
Q 4328 3413 4672 3413 
Q 5194 3413 5388 3088 
Q 5503 2894 5503 2578 
Q 5503 2372 5453 2113 
L 5106 331 
L 5625 331 
L 5563 0 
L 4469 0 
L 4866 2047 
Q 4913 2291 4913 2466 
Q 4913 2659 4856 2772 
Q 4750 2988 4403 2988 
Q 4019 2988 3761 2697 
Q 3503 2406 3394 1850 
L 3034 0 
L 2459 0 
L 2863 2069 
Q 2906 2303 2906 2472 
Q 2906 2666 2850 2775 
Q 2741 2988 2394 2988 
Q 2009 2988 1751 2697 
Q 1494 2406 1384 1850 
L 1025 0 
L 450 0 
L 1031 2994 
L 481 2994 
L 544 3322 
L 1669 3322 
L 1556 2731 
Q 1778 3063 2059 3238 
Q 2341 3413 2653 3413 
Q 3041 3413 3262 3220 
Q 3484 3028 3503 2675 
z
" transform="scale(0.015625)"/>
     </defs>
     <use xlink:href="#DejaVuSerif-Italic-46"/>
     <use xlink:href="#DejaVuSerif-Italic-69" transform="translate(69.384766 0)"/>
     <use xlink:href="#DejaVuSerif-Italic-4c" transform="translate(101.367188 0)"/>
     <use xlink:href="#DejaVuSerif-Italic-4d" transform="translate(167.773438 0)"/>
     <use xlink:href="#DejaVuSerif-Italic-20" transform="translate(270.166016 0)"/>
     <use xlink:href="#DejaVuSerif-Italic-52" transform="translate(301.953125 0)"/>
     <use xlink:href="#DejaVuSerif-Italic-65" transform="translate(377.246094 0)"/>
     <use xlink:href="#DejaVuSerif-Italic-73" transform="translate(436.425781 0)"/>
     <use xlink:href="#DejaVuSerif-Italic-4e" transform="translate(487.744141 0)"/>
     <use xlink:href="#DejaVuSerif-Italic-65" transform="translate(575.244141 0)"/>
     <use xlink:href="#DejaVuSerif-Italic-74" transform="translate(634.423828 0)"/>
     <use xlink:href="#DejaVuSerif-Italic-2c" transform="translate(674.609375 0)"/>
     <use xlink:href="#DejaVuSerif-Italic-20" transform="translate(706.396484 0)"/>
     <use xlink:href="#DejaVuSerif-Italic-34" transform="translate(738.183594 0)"/>
     <use xlink:href="#DejaVuSerif-Italic-34" transform="translate(801.806641 0)"/>
     <use xlink:href="#DejaVuSerif-Italic-2e" transform="translate(865.429688 0)"/>
     <use xlink:href="#DejaVuSerif-Italic-36" transform="translate(897.216797 0)"/>
     <use xlink:href="#DejaVuSerif-Italic-20" transform="translate(960.839844 0)"/>
     <use xlink:href="#DejaVuSerif-Italic-4d" transform="translate(992.626953 0)"/>
     <use xlink:href="#DejaVuSerif-Italic-20" transform="translate(1095.019531 0)"/>
     <use xlink:href="#DejaVuSerif-Italic-70" transform="translate(1126.806641 0)"/>
     <use xlink:href="#DejaVuSerif-Italic-61" transform="translate(1190.820312 0)"/>
     <use xlink:href="#DejaVuSerif-Italic-72" transform="translate(1250.439453 0)"/>
     <use xlink:href="#DejaVuSerif-Italic-61" transform="translate(1298.242188 0)"/>
     <use xlink:href="#DejaVuSerif-Italic-6d" transform="translate(1357.861328 0)"/>
     <use xlink:href="#DejaVuSerif-Italic-73" transform="translate(1452.685547 0)"/>
    </g>
   </g>
   <g id="text_13">
    <!-- masked MSE loss -->
    <g style="fill: #1f2c3a" transform="translate(513.127176 146.797841) scale(0.11 -0.11)">
     <defs>
      <path id="DejaVuSerif-Bold-6b" d="M 2216 0 
L 219 0 
L 219 378 
L 691 378 
L 691 4488 
L 219 4488 
L 219 4863 
L 1797 4863 
L 1797 1741 
L 3138 2944 
L 2741 2944 
L 2741 3322 
L 4256 3322 
L 4256 2944 
L 3641 2944 
L 2784 2175 
L 4184 378 
L 4544 378 
L 4544 0 
L 2638 0 
L 2638 378 
L 3028 378 
L 2106 1563 
L 1797 1288 
L 1797 378 
L 2216 378 
L 2216 0 
z
" transform="scale(0.015625)"/>
      <path id="DejaVuSerif-Bold-4d" d="M 269 0 
L 269 378 
L 863 378 
L 863 4288 
L 269 4288 
L 269 4666 
L 2194 4666 
L 3525 1672 
L 4863 4666 
L 6784 4666 
L 6784 4288 
L 6188 4288 
L 6188 378 
L 6784 378 
L 6784 0 
L 4384 0 
L 4384 378 
L 4978 378 
L 4978 3938 
L 3531 684 
L 2741 684 
L 1300 3938 
L 1300 378 
L 1894 378 
L 1894 0 
L 269 0 
z
" transform="scale(0.015625)"/>
      <path id="DejaVuSerif-Bold-53" d="M 494 225 
L 494 1331 
L 891 1331 
Q 981 806 1318 547 
Q 1656 288 2253 288 
Q 2738 288 2991 472 
Q 3244 656 3244 1013 
Q 3244 1294 3072 1450 
Q 2900 1606 2363 1741 
L 1663 1913 
Q 978 2088 700 2398 
Q 422 2709 422 3284 
Q 422 3978 883 4364 
Q 1344 4750 2175 4750 
Q 2584 4750 3026 4681 
Q 3469 4613 3944 4475 
L 3944 3444 
L 3547 3444 
Q 3456 3925 3150 4148 
Q 2844 4372 2278 4372 
Q 1816 4372 1580 4211 
Q 1344 4050 1344 3731 
Q 1344 3441 1506 3289 
Q 1669 3138 2303 2975 
L 3003 2803 
Q 3653 2641 3945 2297 
Q 4238 1953 4238 1350 
Q 4238 644 3750 276 
Q 3263 -91 2316 -91 
Q 1859 -91 1409 -12 
Q 959 66 494 225 
z
" transform="scale(0.015625)"/>
      <path id="DejaVuSerif-Bold-45" d="M 300 0 
L 300 378 
L 897 378 
L 897 4288 
L 300 4288 
L 300 4666 
L 4494 4666 
L 4494 3566 
L 4063 3566 
L 4063 4238 
L 2100 4238 
L 2100 2741 
L 3322 2741 
L 3322 3334 
L 3750 3334 
L 3750 1722 
L 3322 1722 
L 3322 2316 
L 2100 2316 
L 2100 428 
L 4122 428 
L 4122 1100 
L 4550 1100 
L 4550 0 
L 300 0 
z
" transform="scale(0.015625)"/>
      <path id="DejaVuSerif-Bold-6c" d="M 1797 378 
L 2272 378 
L 2272 0 
L 219 0 
L 219 378 
L 691 378 
L 691 4488 
L 219 4488 
L 219 4863 
L 1797 4863 
L 1797 378 
z
" transform="scale(0.015625)"/>
     </defs>
     <use xlink:href="#DejaVuSerif-Bold-6d"/>
     <use xlink:href="#DejaVuSerif-Bold-61" transform="translate(105.810547 0)"/>
     <use xlink:href="#DejaVuSerif-Bold-73" transform="translate(170.605469 0)"/>
     <use xlink:href="#DejaVuSerif-Bold-6b" transform="translate(226.904297 0)"/>
     <use xlink:href="#DejaVuSerif-Bold-65" transform="translate(296.191406 0)"/>
     <use xlink:href="#DejaVuSerif-Bold-64" transform="translate(359.814453 0)"/>
     <use xlink:href="#DejaVuSerif-Bold-20" transform="translate(429.736328 0)"/>
     <use xlink:href="#DejaVuSerif-Bold-4d" transform="translate(464.550781 0)"/>
     <use xlink:href="#DejaVuSerif-Bold-53" transform="translate(575.244141 0)"/>
     <use xlink:href="#DejaVuSerif-Bold-45" transform="translate(647.460938 0)"/>
     <use xlink:href="#DejaVuSerif-Bold-20" transform="translate(723.681641 0)"/>
     <use xlink:href="#DejaVuSerif-Bold-6c" transform="translate(758.496094 0)"/>
     <use xlink:href="#DejaVuSerif-Bold-6f" transform="translate(796.484375 0)"/>
     <use xlink:href="#DejaVuSerif-Bold-73" transform="translate(863.183594 0)"/>
     <use xlink:href="#DejaVuSerif-Bold-73" transform="translate(919.482422 0)"/>
    </g>
   </g>
   <g id="text_14">
    <!-- $\mathcal{L} = \Vert m\odot(\varepsilon - \hat\varepsilon)\Vert^2$ -->
    <g style="fill: #5a6a7a" transform="translate(525.469286 166.4106) scale(0.095 -0.095)">
     <defs>
      <path id="STIXNonUnicode-Italic-e238" d="M 4070 915 
L 4179 800 
Q 3347 -45 2413 -45 
Q 2157 -45 1850 26 
Q 1395 122 1146 122 
Q 1005 122 672 61 
Q 339 0 192 0 
L 230 154 
Q 582 154 730 749 
L 1178 2566 
Q 1286 3008 1516 3353 
Q 1747 3699 2025 3894 
Q 2304 4090 2585 4189 
Q 2867 4288 3123 4288 
Q 3443 4288 3593 4083 
Q 3744 3878 3744 3584 
Q 3744 3347 3593 3200 
Q 3443 3053 3226 3053 
Q 3085 3053 2995 3149 
Q 2906 3245 2906 3379 
Q 2906 3482 2957 3552 
Q 3008 3622 3065 3644 
Q 3123 3667 3174 3705 
Q 3226 3744 3226 3789 
Q 3226 4032 2854 4032 
Q 2522 4032 2310 3785 
Q 2099 3539 1990 3132 
Q 1882 2726 1795 2284 
Q 1709 1843 1549 1363 
Q 1389 883 1158 589 
L 1158 563 
Q 1363 704 1888 704 
Q 2227 704 2460 544 
Q 2694 384 2963 384 
Q 3507 384 4070 915 
z
" transform="scale(0.015625)"/>
      <path id="DejaVuSans-2016" d="M 1344 4891 
L 1344 -1509 
L 813 -1509 
L 813 4891 
L 1344 4891 
z
M 2376 4891 
L 2376 -1509 
L 1845 -1509 
L 1845 4891 
L 2376 4891 
z
" transform="scale(0.015625)"/>
      <path id="DejaVuSans-2299" d="M 2350 2403 
L 3013 2403 
L 3013 1609 
L 2350 1609 
L 2350 2403 
z
M 3306 3522 
Q 3016 3644 2681 3644 
Q 2347 3644 2056 3522 
Q 1769 3400 1531 3163 
Q 1291 2922 1172 2634 
Q 1053 2347 1053 2006 
Q 1053 1675 1172 1387 
Q 1291 1100 1531 859 
Q 1769 622 2056 500 
Q 2347 378 2681 378 
Q 3016 378 3306 500 
Q 3594 622 3831 859 
Q 4072 1100 4190 1387 
Q 4309 1675 4309 2006 
Q 4309 2347 4190 2634 
Q 4072 2922 3831 3163 
Q 3594 3400 3306 3522 
z
M 1878 3956 
Q 2250 4113 2681 4113 
Q 3113 4113 3484 3956 
Q 3856 3800 4163 3494 
Q 4472 3184 4625 2813 
Q 4778 2444 4778 2006 
Q 4778 1578 4625 1206 
Q 4472 838 4163 528 
Q 3856 222 3484 65 
Q 3113 -91 2681 -91 
Q 2250 -91 1878 65 
Q 1506 222 1200 528 
Q 891 838 738 1206 
Q 584 1578 584 2006 
Q 584 2444 738 2813 
Q 891 3184 1200 3494 
Q 1506 3800 1878 3956 
z
" transform="scale(0.015625)"/>
      <path id="DejaVuSans-302" d="M -1831 5119 
L -1369 5119 
L -603 3944 
L -1038 3944 
L -1600 4709 
L -2163 3944 
L -2597 3944 
L -1831 5119 
z
M -1600 3584 
L -1600 3584 
z
" transform="scale(0.015625)"/>
      <path id="DejaVuSans-32" d="M 1228 531 
L 3431 531 
L 3431 0 
L 469 0 
L 469 531 
Q 828 903 1448 1529 
Q 2069 2156 2228 2338 
Q 2531 2678 2651 2914 
Q 2772 3150 2772 3378 
Q 2772 3750 2511 3984 
Q 2250 4219 1831 4219 
Q 1534 4219 1204 4116 
Q 875 4013 500 3803 
L 500 4441 
Q 881 4594 1212 4672 
Q 1544 4750 1819 4750 
Q 2544 4750 2975 4387 
Q 3406 4025 3406 3419 
Q 3406 3131 3298 2873 
Q 3191 2616 2906 2266 
Q 2828 2175 2409 1742 
Q 1991 1309 1228 531 
z
" transform="scale(0.015625)"/>
     </defs>
     <use xlink:href="#STIXNonUnicode-Italic-e238" transform="translate(0 0.453125)"/>
     <use xlink:href="#DejaVuSans-3d" transform="translate(88.78241 0.453125)"/>
     <use xlink:href="#DejaVuSans-2016" transform="translate(192.053894 0.453125)"/>
     <use xlink:href="#DejaVuSans-Oblique-6d" transform="translate(242.053894 0.453125)"/>
     <use xlink:href="#DejaVuSans-2299" transform="translate(358.948425 0.453125)"/>
     <use xlink:href="#DejaVuSans-28" transform="translate(462.21991 0.453125)"/>
     <use xlink:href="#DejaVuSans-Oblique-3b5" transform="translate(501.233582 0.453125)"/>
     <use xlink:href="#DejaVuSans-2212" transform="translate(574.768738 0.453125)"/>
     <use xlink:href="#DejaVuSans-302" transform="translate(732.274597 13.015625)"/>
     <use xlink:href="#DejaVuSans-Oblique-3b5" transform="translate(678.040222 0.453125)"/>
     <use xlink:href="#DejaVuSans-29" transform="translate(732.092957 0.453125)"/>
     <use xlink:href="#DejaVuSans-2016" transform="translate(771.106628 0.453125)"/>
     <use xlink:href="#DejaVuSans-32" transform="translate(822.06366 38.734375) scale(0.7)"/>
    </g>
   </g>
   <g id="text_15">
    <!-- AdamW + EMA -->
    <g style="fill: #1f2c3a" transform="translate(649.271663 146.797841) scale(0.11 -0.11)">
     <defs>
      <path id="DejaVuSerif-Bold-41" d="M -50 0 
L -50 378 
L 331 378 
L 2088 4666 
L 2834 4666 
L 4594 378 
L 5038 378 
L 5038 0 
L 2853 0 
L 2853 378 
L 3309 378 
L 2925 1331 
L 1172 1331 
L 781 378 
L 1338 378 
L 1338 0 
L -50 0 
z
M 1325 1709 
L 2772 1709 
L 2053 3494 
L 1325 1709 
z
" transform="scale(0.015625)"/>
      <path id="DejaVuSerif-Bold-57" d="M 5453 0 
L 4647 0 
L 3591 3397 
L 2534 0 
L 1728 0 
L 397 4288 
L -56 4288 
L -56 4666 
L 2156 4666 
L 2156 4288 
L 1656 4288 
L 2547 1422 
L 3553 4666 
L 4441 4666 
L 5466 1369 
L 6375 4288 
L 5819 4288 
L 5819 4666 
L 7263 4666 
L 7263 4288 
L 6784 4288 
L 5453 0 
z
" transform="scale(0.015625)"/>
      <path id="DejaVuSerif-Bold-2b" d="M 3041 4013 
L 3041 2369 
L 4684 2369 
L 4684 1650 
L 3041 1650 
L 3041 6 
L 2322 6 
L 2322 1650 
L 678 1650 
L 678 2369 
L 2322 2369 
L 2322 4013 
L 3041 4013 
z
" transform="scale(0.015625)"/>
     </defs>
     <use xlink:href="#DejaVuSerif-Bold-41"/>
     <use xlink:href="#DejaVuSerif-Bold-64" transform="translate(77.587891 0)"/>
     <use xlink:href="#DejaVuSerif-Bold-61" transform="translate(147.509766 0)"/>
     <use xlink:href="#DejaVuSerif-Bold-6d" transform="translate(212.304688 0)"/>
     <use xlink:href="#DejaVuSerif-Bold-57" transform="translate(318.115234 0)"/>
     <use xlink:href="#DejaVuSerif-Bold-20" transform="translate(430.419922 0)"/>
     <use xlink:href="#DejaVuSerif-Bold-2b" transform="translate(465.234375 0)"/>
     <use xlink:href="#DejaVuSerif-Bold-20" transform="translate(549.023438 0)"/>
     <use xlink:href="#DejaVuSerif-Bold-45" transform="translate(583.837891 0)"/>
     <use xlink:href="#DejaVuSerif-Bold-4d" transform="translate(660.058594 0)"/>
     <use xlink:href="#DejaVuSerif-Bold-41" transform="translate(770.751953 0)"/>
    </g>
   </g>
   <g id="text_16">
    <!-- $\theta - \eta\nabla_\theta\mathcal{L}$ -->
    <g style="fill: #5a6a7a" transform="translate(675.458929 165.7931) scale(0.095 -0.095)">
     <defs>
      <path id="DejaVuSans-Oblique-3b7" d="M 3703 2113 
L 3034 -1331 
L 2459 -1331 
L 3125 2094 
Q 3222 2591 3075 2838 
Q 2931 3084 2544 3084 
Q 2078 3084 1750 2788 
Q 1425 2491 1325 1978 
L 941 0 
L 363 0 
L 1044 3500 
L 1622 3500 
L 1516 2956 
Q 1781 3272 2094 3428 
Q 2403 3584 2769 3584 
Q 3372 3584 3609 3213 
Q 3844 2838 3703 2113 
z
" transform="scale(0.015625)"/>
      <path id="DejaVuSans-2207" d="M 2138 659 
L 3444 4047 
L 831 4047 
L 2138 659 
z
M 1791 0 
L -19 4603 
L 4300 4603 
L 2491 0 
L 1791 0 
z
" transform="scale(0.015625)"/>
     </defs>
     <use xlink:href="#DejaVuSans-Oblique-3b8" transform="translate(0 0.234375)"/>
     <use xlink:href="#DejaVuSans-2212" transform="translate(80.664062 0.234375)"/>
     <use xlink:href="#DejaVuSans-Oblique-3b7" transform="translate(183.935547 0.234375)"/>
     <use xlink:href="#DejaVuSans-2207" transform="translate(247.314453 0.234375)"/>
     <use xlink:href="#DejaVuSans-Oblique-3b8" transform="translate(315.166016 -16.171875) scale(0.7)"/>
     <use xlink:href="#STIXNonUnicode-Italic-e238" transform="translate(360.727539 0.234375)"/>
    </g>
   </g>
   <g id="text_17">
    <!-- $z_0$ -->
    <g style="fill: #1f2c3a" transform="translate(190.275 143.270022) scale(0.105 -0.105)">
     <use xlink:href="#DejaVuSans-Oblique-7a" transform="translate(0 0.3125)"/>
     <use xlink:href="#DejaVuSans-30" transform="translate(52.490234 -16.09375) scale(0.7)"/>
    </g>
   </g>
   <g id="text_18">
    <!-- true $\varepsilon$ (target) -->
    <g style="fill: #6a4a8a" transform="translate(361.131518 40.656607) scale(0.095 -0.095)">
     <defs>
      <path id="DejaVuSerif-Italic-75" d="M 3097 3322 
L 3672 3322 
L 3091 331 
L 3634 331 
L 3572 0 
L 2453 0 
L 2566 588 
Q 2341 256 2055 82 
Q 1769 -91 1434 -91 
Q 881 -91 681 225 
Q 559 413 559 734 
Q 559 944 613 1209 
L 956 2988 
L 438 2988 
L 503 3322 
L 1600 3322 
L 1225 1388 
Q 1163 1066 1163 853 
Q 1163 663 1213 556 
Q 1316 331 1697 331 
Q 2097 331 2364 625 
Q 2631 919 2738 1478 
L 3097 3322 
z
" transform="scale(0.015625)"/>
      <path id="DejaVuSerif-Italic-28" d="M 1472 -997 
Q 778 -656 534 83 
Q 291 822 506 1931 
Q 722 3044 1253 3783 
Q 1784 4522 2609 4863 
L 2550 4556 
Q 2006 4225 1679 3623 
Q 1353 3022 1141 1931 
Q 928 844 1020 242 
Q 1113 -359 1531 -691 
L 1472 -997 
z
" transform="scale(0.015625)"/>
      <path id="DejaVuSerif-Italic-67" d="M 3822 3322 
L 3188 72 
Q 3044 -672 2581 -1031 
Q 2078 -1422 1381 -1422 
Q 1053 -1422 765 -1362 
Q 478 -1303 225 -1184 
L 363 -488 
L 663 -488 
Q 653 -813 834 -963 
Q 1016 -1113 1406 -1113 
Q 1913 -1113 2203 -825 
Q 2494 -544 2613 72 
L 2700 519 
Q 2472 206 2181 57 
Q 1891 -91 1525 -91 
Q 975 -91 697 281 
Q 522 516 503 841 
Q 491 1031 534 1256 
Q 750 2359 1516 2928 
Q 2169 3409 2931 3413 
Q 3631 3416 3822 3322 
z
M 3184 2988 
Q 3181 3094 2844 3094 
Q 2234 3094 1775 2625 
Q 1316 2153 1147 1297 
Q 1100 1044 1113 853 
Q 1125 659 1203 528 
Q 1356 269 1756 269 
Q 2194 269 2484 583 
Q 2775 897 2891 1497 
L 2953 1825 
L 3184 2988 
z
" transform="scale(0.015625)"/>
      <path id="DejaVuSerif-Italic-29" d="M -113 -997 
L -53 -691 
Q 491 -359 819 242 
Q 1147 844 1359 1931 
Q 1572 3022 1478 3623 
Q 1384 4225 966 4556 
L 1025 4863 
Q 1722 4522 1965 3783 
Q 2209 3044 1994 1931 
Q 1778 822 1247 83 
Q 716 -656 -113 -997 
z
" transform="scale(0.015625)"/>
     </defs>
     <use xlink:href="#DejaVuSerif-Italic-74" transform="translate(0 0.015625)"/>
     <use xlink:href="#DejaVuSerif-Italic-72" transform="translate(40.185547 0.015625)"/>
     <use xlink:href="#DejaVuSerif-Italic-75" transform="translate(87.988281 0.015625)"/>
     <use xlink:href="#DejaVuSerif-Italic-65" transform="translate(152.392578 0.015625)"/>
     <use xlink:href="#DejaVuSerif-Italic-20" transform="translate(211.572266 0.015625)"/>
     <use xlink:href="#DejaVuSans-Oblique-3b5" transform="translate(243.359375 0.015625)"/>
     <use xlink:href="#DejaVuSerif-Italic-20" transform="translate(297.412109 0.015625)"/>
     <use xlink:href="#DejaVuSerif-Italic-28" transform="translate(329.199219 0.015625)"/>
     <use xlink:href="#DejaVuSerif-Italic-74" transform="translate(368.212891 0.015625)"/>
     <use xlink:href="#DejaVuSerif-Italic-61" transform="translate(408.398438 0.015625)"/>
     <use xlink:href="#DejaVuSerif-Italic-72" transform="translate(468.017578 0.015625)"/>
     <use xlink:href="#DejaVuSerif-Italic-67" transform="translate(515.820312 0.015625)"/>
     <use xlink:href="#DejaVuSerif-Italic-65" transform="translate(579.833984 0.015625)"/>
     <use xlink:href="#DejaVuSerif-Italic-74" transform="translate(639.013672 0.015625)"/>
     <use xlink:href="#DejaVuSerif-Italic-29" transform="translate(679.199219 0.015625)"/>
    </g>
   </g>
   <g id="text_19">
    <!-- $p, m$ -->
    <g style="fill: #b88a25" transform="translate(82.53 194.228527) scale(0.1 -0.1)">
     <use xlink:href="#DejaVuSans-Oblique-70"/>
     <use xlink:href="#DejaVuSans-2c" transform="translate(63.476562 0)"/>
     <use xlink:href="#DejaVuSans-Oblique-6d" transform="translate(114.746094 0)"/>
    </g>
   </g>
   <g id="text_20">
    <!-- $p', m'$ -->
    <g style="fill: #b88a25" transform="translate(305.981429 225.278571) scale(0.1 -0.1)">
     <defs>
      <path id="Cmsy10-30" d="M 225 347 
Q 184 359 184 409 
L 966 3316 
Q 1003 3434 1093 3506 
Q 1184 3578 1300 3578 
Q 1450 3578 1564 3479 
Q 1678 3381 1678 3231 
Q 1678 3166 1644 3084 
L 488 319 
Q 466 275 428 275 
Q 394 275 320 306 
Q 247 338 225 347 
z
" transform="scale(0.015625)"/>
     </defs>
     <use xlink:href="#DejaVuSans-Oblique-70" transform="translate(0 0.584375)"/>
     <use xlink:href="#Cmsy10-30" transform="translate(68.126458 38.865625) scale(0.7)"/>
     <use xlink:href="#DejaVuSans-2c" transform="translate(90.103997 0.584375)"/>
     <use xlink:href="#DejaVuSans-Oblique-6d" transform="translate(141.373529 0.584375)"/>
     <use xlink:href="#Cmsy10-30" transform="translate(243.435534 38.865625) scale(0.7)"/>
    </g>
   </g>
   <g id="text_21">
    <!-- $z_t$ -->
    <g style="fill: #1f2c3a" transform="translate(376.802143 143.270022) scale(0.105 -0.105)">
     <use xlink:href="#DejaVuSans-Oblique-7a" transform="translate(0 0.3125)"/>
     <use xlink:href="#DejaVuSans-Oblique-74" transform="translate(52.490234 -16.09375) scale(0.7)"/>
    </g>
   </g>
   <g id="text_22">
    <!-- $\hat\varepsilon$ -->
    <g style="fill: #1f2c3a" transform="translate(502.028571 143.270022) scale(0.105 -0.105)">
     <use xlink:href="#DejaVuSans-302" transform="translate(54.234375 13.015625)"/>
     <use xlink:href="#DejaVuSans-Oblique-3b5" transform="translate(0 0.453125)"/>
    </g>
   </g>
   <g id="text_23">
    <!-- $\nabla_\theta\mathcal{L}$ -->
    <g style="fill: #aa3a3a" transform="translate(622.212857 143.132054) scale(0.1 -0.1)">
     <use xlink:href="#DejaVuSans-2207" transform="translate(0 0.078125)"/>
     <use xlink:href="#DejaVuSans-Oblique-3b8" transform="translate(67.851562 -16.328125) scale(0.7)"/>
     <use xlink:href="#STIXNonUnicode-Italic-e238" transform="translate(113.413086 0.078125)"/>
    </g>
   </g>
   <g id="text_24">
    <!-- update $\theta$  (EMA decay 0.999) -->
    <g style="fill: #6a4a8a" transform="translate(502.929643 300.188571) scale(0.09 -0.09)">
     <defs>
      <path id="DejaVuSerif-Italic-64" d="M 3841 4863 
L 2897 0 
L 2322 0 
L 2422 519 
Q 2191 206 1902 57 
Q 1613 -91 1228 -91 
Q 616 -91 322 394 
Q 125 716 125 1166 
Q 125 1397 178 1663 
Q 331 2444 812 2928 
Q 1294 3413 1909 3413 
Q 2294 3413 2525 3264 
Q 2756 3116 2866 2803 
L 3200 4531 
L 2656 4531 
L 2722 4863 
L 3841 4863 
z
M 2613 1497 
L 2675 1825 
Q 2722 2069 2722 2266 
Q 2722 2550 2622 2738 
Q 2456 3053 2019 3053 
Q 1575 3053 1279 2703 
Q 984 2353 850 1663 
Q 788 1347 788 1103 
Q 788 813 875 622 
Q 1031 269 1475 269 
Q 1913 269 2203 583 
Q 2494 897 2613 1497 
z
" transform="scale(0.015625)"/>
      <path id="DejaVuSerif-Italic-45" d="M -97 0 
L -34 331 
L 559 331 
L 1338 4331 
L 744 4331 
L 809 4666 
L 4566 4666 
L 4366 3628 
L 3981 3628 
L 4106 4281 
L 1963 4281 
L 1659 2719 
L 3188 2719 
L 3300 3303 
L 3684 3303 
L 3384 1753 
L 3000 1753 
L 3113 2338 
L 1584 2338 
L 1206 384 
L 3400 384 
L 3525 1038 
L 3909 1038 
L 3709 0 
L -97 0 
z
" transform="scale(0.015625)"/>
      <path id="DejaVuSerif-Italic-41" d="M 1159 1691 
L 2872 1691 
L 2447 3909 
L 1159 1691 
z
M -488 0 
L -425 331 
L -16 331 
L 2491 4666 
L 3016 4666 
L 3841 331 
L 4297 331 
L 4234 0 
L 2538 0 
L 2600 331 
L 3119 331 
L 2928 1356 
L 966 1356 
L 375 331 
L 888 331 
L 825 0 
L -488 0 
z
" transform="scale(0.015625)"/>
      <path id="DejaVuSerif-Italic-63" d="M 3163 997 
Q 2938 466 2536 187 
Q 2134 -91 1584 -91 
Q 859 -91 513 388 
Q 272 722 272 1203 
Q 272 1419 319 1663 
Q 475 2459 1008 2936 
Q 1541 3413 2266 3413 
Q 2581 3413 2879 3339 
Q 3178 3266 3463 3116 
L 3300 2266 
L 2966 2266 
Q 2966 2309 2966 2347 
Q 2966 2722 2803 2903 
Q 2622 3103 2213 3103 
Q 1747 3103 1439 2742 
Q 1131 2381 991 1663 
Q 928 1334 928 1078 
Q 928 778 1016 581 
Q 1181 219 1650 219 
Q 2022 219 2281 412 
Q 2541 606 2700 997 
L 3163 997 
z
" transform="scale(0.015625)"/>
      <path id="DejaVuSerif-Italic-79" d="M 3681 3294 
Q 3372 1506 2828 563 
Q 2031 -822 1391 -1238 
Q 1106 -1422 356 -1422 
Q 209 -1422 60 -1397 
Q -88 -1372 -238 -1325 
L -113 -691 
L 181 -691 
Q 175 -741 175 -788 
Q 175 -919 231 -994 
Q 309 -1100 513 -1100 
Q 1063 -1100 1541 -622 
L 756 2988 
L 378 2988 
L 444 3322 
L 1303 3322 
L 2041 25 
Q 2544 778 2666 1088 
Q 3059 2059 3138 2959 
L 2759 2959 
L 2825 3294 
L 3681 3294 
z
" transform="scale(0.015625)"/>
      <path id="DejaVuSerif-Italic-39" d="M 2947 2091 
Q 2694 1856 2398 1740 
Q 2103 1625 1763 1625 
Q 1069 1625 748 2044 
Q 428 2463 569 3188 
Q 706 3897 1226 4323 
Q 1747 4750 2475 4750 
Q 3266 4750 3573 4161 
Q 3881 3572 3669 2478 
Q 3431 1253 2797 581 
Q 2163 -91 1250 -91 
Q 1003 -91 740 -44 
Q 478 3 213 97 
L 363 872 
L 713 872 
Q 694 556 864 387 
Q 1034 219 1375 219 
Q 1981 219 2367 676 
Q 2753 1134 2947 2091 
z
M 2388 4441 
Q 1944 4441 1645 4117 
Q 1347 3794 1230 3187 
Q 1113 2581 1284 2256 
Q 1456 1931 1900 1931 
Q 2344 1931 2641 2245 
Q 2938 2559 3053 3150 
Q 3175 3772 3001 4106 
Q 2828 4441 2388 4441 
z
" transform="scale(0.015625)"/>
     </defs>
     <use xlink:href="#DejaVuSerif-Italic-75" transform="translate(0 0.234375)"/>
     <use xlink:href="#DejaVuSerif-Italic-70" transform="translate(64.404297 0.234375)"/>
     <use xlink:href="#DejaVuSerif-Italic-64" transform="translate(128.417969 0.234375)"/>
     <use xlink:href="#DejaVuSerif-Italic-61" transform="translate(192.431641 0.234375)"/>
     <use xlink:href="#DejaVuSerif-Italic-74" transform="translate(252.050781 0.234375)"/>
     <use xlink:href="#DejaVuSerif-Italic-65" transform="translate(292.236328 0.234375)"/>
     <use xlink:href="#DejaVuSerif-Italic-20" transform="translate(351.416016 0.234375)"/>
     <use xlink:href="#DejaVuSans-Oblique-3b8" transform="translate(383.203125 0.234375)"/>
     <use xlink:href="#DejaVuSerif-Italic-20" transform="translate(444.384766 0.234375)"/>
     <use xlink:href="#DejaVuSerif-Italic-20" transform="translate(476.171875 0.234375)"/>
     <use xlink:href="#DejaVuSerif-Italic-28" transform="translate(507.958984 0.234375)"/>
     <use xlink:href="#DejaVuSerif-Italic-45" transform="translate(546.972656 0.234375)"/>
     <use xlink:href="#DejaVuSerif-Italic-4d" transform="translate(619.970703 0.234375)"/>
     <use xlink:href="#DejaVuSerif-Italic-41" transform="translate(722.363281 0.234375)"/>
     <use xlink:href="#DejaVuSerif-Italic-20" transform="translate(794.580078 0.234375)"/>
     <use xlink:href="#DejaVuSerif-Italic-64" transform="translate(826.367188 0.234375)"/>
     <use xlink:href="#DejaVuSerif-Italic-65" transform="translate(890.380859 0.234375)"/>
     <use xlink:href="#DejaVuSerif-Italic-63" transform="translate(949.560547 0.234375)"/>
     <use xlink:href="#DejaVuSerif-Italic-61" transform="translate(1005.566406 0.234375)"/>
     <use xlink:href="#DejaVuSerif-Italic-79" transform="translate(1065.185547 0.234375)"/>
     <use xlink:href="#DejaVuSerif-Italic-20" transform="translate(1121.679688 0.234375)"/>
     <use xlink:href="#DejaVuSerif-Italic-30" transform="translate(1153.466797 0.234375)"/>
     <use xlink:href="#DejaVuSerif-Italic-2e" transform="translate(1217.089844 0.234375)"/>
     <use xlink:href="#DejaVuSerif-Italic-39" transform="translate(1248.876953 0.234375)"/>
     <use xlink:href="#DejaVuSerif-Italic-39" transform="translate(1312.5 0.234375)"/>
     <use xlink:href="#DejaVuSerif-Italic-39" transform="translate(1376.123047 0.234375)"/>
     <use xlink:href="#DejaVuSerif-Italic-29" transform="translate(1439.746094 0.234375)"/>
    </g>
   </g>
   <g id="patch_18">
    <path d="M 113.738143 152.479286 
Q 192.834643 152.479286 269.918682 152.479286 
" style="fill: none; stroke: #27445d; stroke-width: 1.8; stroke-linecap: round"/>
    <path d="M 265.118682 150.079286 
L 269.918682 152.479286 
L 265.118682 154.879286 
z
" style="fill: #27445d; stroke: #27445d; stroke-width: 1.8; stroke-linecap: round"/>
   </g>
   <g id="patch_19">
    <path d="M 168.890464 94.367571 
Q 233.862589 109.837125 297.529558 124.995927 
" style="fill: none; stroke-dasharray: 6,3.6; stroke-dashoffset: 0; stroke: #6a4a8a; stroke-width: 1.2; stroke-linecap: round"/>
    <path d="M 293.415977 121.549414 
L 297.529558 124.995927 
L 292.304199 126.218883 
z
" style="fill: #6a4a8a; stroke-dasharray: 6,3.6; stroke-dashoffset: 0; stroke: #6a4a8a; stroke-width: 1.2; stroke-linecap: round"/>
   </g>
   <g id="patch_20">
    <path d="M 225.387964 94.367571 
Q 271.527589 109.837125 316.395166 124.88019 
" style="fill: none; stroke-dasharray: 6,3.6; stroke-dashoffset: 0; stroke: #6a4a8a; stroke-width: 1.2; stroke-linecap: round"/>
    <path d="M 312.607072 121.078828 
L 316.395166 124.88019 
L 311.081221 125.629848 
z
" style="fill: #6a4a8a; stroke-dasharray: 6,3.6; stroke-dashoffset: 0; stroke: #6a4a8a; stroke-width: 1.2; stroke-linecap: round"/>
   </g>
   <g id="line2d_1">
    <path d="M 223.77375 50.783786 
L 223.77375 46.210179 
" clip-path="url(#p94de3fd3a1)" style="fill: none; stroke-dasharray: 4.8,3.6; stroke-dashoffset: 0; stroke: #6a4a8a; stroke-width: 1.2"/>
   </g>
   <g id="line2d_2">
    <path d="M 223.77375 46.210179 
L 566.794286 46.210179 
" clip-path="url(#p94de3fd3a1)" style="fill: none; stroke-dasharray: 4.8,3.6; stroke-dashoffset: 0; stroke: #6a4a8a; stroke-width: 1.2"/>
   </g>
   <g id="patch_21">
    <path d="M 566.794286 47.824393 
Q 566.794286 86.565536 566.794286 123.965038 
" style="fill: none; stroke-dasharray: 6,3.6; stroke-dashoffset: 0; stroke: #6a4a8a; stroke-width: 1.2; stroke-linecap: round"/>
    <path d="M 569.194286 119.165038 
L 566.794286 123.965038 
L 564.394286 119.165038 
z
" style="fill: #6a4a8a; stroke-dasharray: 6,3.6; stroke-dashoffset: 0; stroke: #6a4a8a; stroke-width: 1.2; stroke-linecap: round"/>
   </g>
   <g id="patch_22">
    <path d="M 86.834571 179.651893 
Q 119.522411 200.233125 150.885686 219.980372 
" style="fill: none; stroke-dasharray: 7,4.2; stroke-dashoffset: 0; stroke: #b88a25; stroke-width: 1.4; stroke-linecap: round"/>
    <path d="M 148.10252 215.39191 
L 150.885686 219.980372 
L 145.545017 219.453828 
z
" style="fill: #b88a25; stroke-dasharray: 7,4.2; stroke-dashoffset: 0; stroke: #b88a25; stroke-width: 1.4; stroke-linecap: round"/>
   </g>
   <g id="line2d_3">
    <path d="M 237.225536 233.19 
L 443.037857 233.19 
" clip-path="url(#p94de3fd3a1)" style="fill: none; stroke-dasharray: 7,4.2; stroke-dashoffset: 0; stroke: #b88a25; stroke-width: 1.4"/>
   </g>
   <g id="patch_23">
    <path d="M 443.037857 231.575786 
Q 443.037857 205.613839 443.037857 181.21714 
" style="fill: none; stroke-dasharray: 7,4.2; stroke-dashoffset: 0; stroke: #b88a25; stroke-width: 1.4; stroke-linecap: round"/>
    <path d="M 440.637857 186.01714 
L 443.037857 181.21714 
L 445.437857 186.01714 
z
" style="fill: #b88a25; stroke-dasharray: 7,4.2; stroke-dashoffset: 0; stroke: #b88a25; stroke-width: 1.4; stroke-linecap: round"/>
   </g>
   <g id="patch_24">
    <path d="M 366.631714 152.479286 
Q 381.159643 152.479286 393.67511 152.479286 
" style="fill: none; stroke: #27445d; stroke-width: 1.8; stroke-linecap: round"/>
    <path d="M 388.87511 150.079286 
L 393.67511 152.479286 
L 388.87511 154.879286 
z
" style="fill: #27445d; stroke: #27445d; stroke-width: 1.8; stroke-linecap: round"/>
   </g>
   <g id="patch_25">
    <path d="M 490.388143 152.479286 
Q 504.916071 152.479286 517.431539 152.479286 
" style="fill: none; stroke: #27445d; stroke-width: 1.8; stroke-linecap: round"/>
    <path d="M 512.631539 150.079286 
L 517.431539 152.479286 
L 512.631539 154.879286 
z
" style="fill: #27445d; stroke: #27445d; stroke-width: 1.8; stroke-linecap: round"/>
   </g>
   <g id="patch_26">
    <path d="M 614.144571 152.479286 
Q 633.380625 152.479286 650.604217 152.479286 
" style="fill: none; stroke: #aa3a3a; stroke-width: 1.8; stroke-linecap: round"/>
    <path d="M 645.804217 150.079286 
L 650.604217 152.479286 
L 645.804217 154.879286 
z
" style="fill: #aa3a3a; stroke: #aa3a3a; stroke-width: 1.8; stroke-linecap: round"/>
   </g>
   <g id="line2d_4">
    <path d="M 695.931429 178.037679 
L 695.931429 286.997143 
" clip-path="url(#p94de3fd3a1)" style="fill: none; stroke-dasharray: 5.2,3.9; stroke-dashoffset: 0; stroke: #6a4a8a; stroke-width: 1.3"/>
   </g>
   <g id="line2d_5">
    <path d="M 695.931429 286.997143 
L 443.037857 286.997143 
" clip-path="url(#p94de3fd3a1)" style="fill: none; stroke-dasharray: 5.2,3.9; stroke-dashoffset: 0; stroke: #6a4a8a; stroke-width: 1.3"/>
   </g>
   <g id="patch_27">
    <path d="M 443.037857 285.382929 
Q 443.037857 232.517411 443.037857 181.105337 
" style="fill: none; stroke-dasharray: 6.5,3.9; stroke-dashoffset: 0; stroke: #6a4a8a; stroke-width: 1.3; stroke-linecap: round"/>
    <path d="M 440.637857 185.905337 
L 443.037857 181.105337 
L 445.437857 185.905337 
z
" style="fill: #6a4a8a; stroke-dasharray: 6.5,3.9; stroke-dashoffset: 0; stroke: #6a4a8a; stroke-width: 1.3; stroke-linecap: round"/>
   </g>
  </g>
 </g>
 <defs>
  <clipPath id="p94de3fd3a1">
   <rect x="7.2" y="7.2" width="753.3" height="322.842857"/>
  </clipPath>
 </defs>
</svg>
