<?xml version="1.0" encoding="utf-8" standalone="no"?>
<!DOCTYPE svg PUBLIC "-//W3C//DTD SVG 1.1//EN"
  "http://www.w3.org/Graphics/SVG/1.1/DTD/svg11.dtd">
<svg xmlns:xlink="http://www.w3.org/1999/xlink" width="638.1pt" height="331.2pt" viewBox="0 0 638.1 331.2" xmlns="http://www.w3.org/2000/svg" version="1.1">
 <metadata>
  <rdf:RDF xmlns:dc="http://purl.org/dc/elements/1.1/" xmlns:cc="http://creativecommons.org/ns#" xmlns:rdf="http://www.w3.org/1999/02/22-rdf-syntax-ns#">
   <cc:Work>
    <dc:type rdf:resource="http://purl.org/dc/dcmitype/StillImage"/>
    <dc:date>2026-04-28T14:48:21.971968</dc:date>
    <dc:format>image/svg+xml</dc:format>
    <dc:creator>
     <cc:Agent>
      <dc:title>Matplotlib v3.10.8, https://matplotlib.org/</dc:title>
     </cc:Agent>
    </dc:creator>
   </cc:Work>
  </rdf:RDF>
 </metadata>
 <defs>
  <style type="text/css">*{stroke-linejoin: round; stroke-linecap: butt}</style>
 </defs>
 <g id="figure_1">
  <g id="patch_1">
   <path d="M 0 331.2 
L 638.1 331.2 
L 638.1 0 
L 0 0 
z
" style="fill: #ffffff"/>
  </g>
  <g id="axes_1">
   <g id="patch_2">
    <path d="M 92.5776 134.3952 
L 173.52 134.3952 
Q 177.9552 134.3952 177.9552 129.96 
L 177.9552 98.9136 
Q 177.9552 94.4784 173.52 94.4784 
L 92.5776 94.4784 
Q 88.1424 94.4784 88.1424 98.9136 
L 88.1424 129.96 
Q 88.1424 134.3952 92.5776 134.3952 
z
" clip-path="url(#p3d180adf9b)" style="fill: #0a1620; opacity: 0.1"/>
   </g>
   <g id="patch_3">
    <path d="M 203.4576 134.3952 
L 284.4 134.3952 
Q 288.8352 134.3952 288.8352 129.96 
L 288.8352 98.9136 
Q 288.8352 94.4784 284.4 94.4784 
L 203.4576 94.4784 
Q 199.0224 94.4784 199.0224 98.9136 
L 199.0224 129.96 
Q 199.0224 134.3952 203.4576 134.3952 
z
" clip-path="url(#p3d180adf9b)" style="fill: #0a1620; opacity: 0.1"/>
   </g>
   <g id="patch_4">
    <path d="M 314.3376 134.3952 
L 395.28 134.3952 
Q 399.7152 134.3952 399.7152 129.96 
L 399.7152 98.9136 
Q 399.7152 94.4784 395.28 94.4784 
L 314.3376 94.4784 
Q 309.9024 94.4784 309.9024 98.9136 
L 309.9024 129.96 
Q 309.9024 134.3952 314.3376 134.3952 
z
" clip-path="url(#p3d180adf9b)" style="fill: #0a1620; opacity: 0.1"/>
   </g>
   <g id="patch_5">
    <path d="M 425.2176 134.3952 
L 506.16 134.3952 
Q 510.5952 134.3952 510.5952 129.96 
L 510.5952 98.9136 
Q 510.5952 94.4784 506.16 94.4784 
L 425.2176 94.4784 
Q 420.7824 94.4784 420.7824 98.9136 
L 420.7824 129.96 
Q 420.7824 134.3952 425.2176 134.3952 
z
" clip-path="url(#p3d180adf9b)" style="fill: #0a1620; opacity: 0.1"/>
   </g>
   <g id="patch_6">
    <path d="M 39.9096 264.6792 
L 98.676 264.6792 
Q 103.1112 264.6792 103.1112 260.244 
L 103.1112 223.6536 
Q 103.1112 219.2184 98.676 219.2184 
L 39.9096 219.2184 
Q 35.4744 219.2184 35.4744 223.6536 
L 35.4744 260.244 
Q 35.4744 264.6792 39.9096 264.6792 
z
" clip-path="url(#p3d180adf9b)" style="fill: #0a1620; opacity: 0.1"/>
   </g>
   <g id="patch_7">
    <path d="M 211.7736 267.4512 
L 386.964 267.4512 
Q 391.3992 267.4512 391.3992 263.016 
L 391.3992 220.8816 
Q 391.3992 216.4464 386.964 216.4464 
L 211.7736 216.4464 
Q 207.3384 216.4464 207.3384 220.8816 
L 207.3384 263.016 
Q 207.3384 267.4512 211.7736 267.4512 
z
" clip-path="url(#p3d180adf9b)" style="fill: #0a1620; opacity: 0.1"/>
   </g>
   <g id="patch_8">
    <path d="M 516.6936 264.6792 
L 575.46 264.6792 
Q 579.8952 264.6792 579.8952 260.244 
L 579.8952 223.6536 
Q 579.8952 219.2184 575.46 219.2184 
L 516.6936 219.2184 
Q 512.2584 219.2184 512.2584 223.6536 
L 512.2584 260.244 
Q 512.2584 264.6792 516.6936 264.6792 
z
" clip-path="url(#p3d180adf9b)" style="fill: #0a1620; opacity: 0.1"/>
   </g>
   <g id="patch_9">
    <path d="M 91.4688 133.2864 
L 172.4112 133.2864 
Q 176.8464 133.2864 176.8464 128.8512 
L 176.8464 97.8048 
Q 176.8464 93.3696 172.4112 93.3696 
L 91.4688 93.3696 
Q 87.0336 93.3696 87.0336 97.8048 
L 87.0336 128.8512 
Q 87.0336 133.2864 91.4688 133.2864 
z
" clip-path="url(#p3d180adf9b)" style="fill: #e3f1e3; stroke: #3a7a4a; stroke-width: 1.5; stroke-linejoin: miter"/>
   </g>
   <g id="patch_10">
    <path d="M 202.3488 133.2864 
L 283.2912 133.2864 
Q 287.7264 133.2864 287.7264 128.8512 
L 287.7264 97.8048 
Q 287.7264 93.3696 283.2912 93.3696 
L 202.3488 93.3696 
Q 197.9136 93.3696 197.9136 97.8048 
L 197.9136 128.8512 
Q 197.9136 133.2864 202.3488 133.2864 
z
" clip-path="url(#p3d180adf9b)" style="fill: #e3f1e3; stroke: #3a7a4a; stroke-width: 1.5; stroke-linejoin: miter"/>
   </g>
   <g id="patch_11">
    <path d="M 313.2288 133.2864 
L 394.1712 133.2864 
Q 398.6064 133.2864 398.6064 128.8512 
L 398.6064 97.8048 
Q 398.6064 93.3696 394.1712 93.3696 
L 313.2288 93.3696 
Q 308.7936 93.3696 308.7936 97.8048 
L 308.7936 128.8512 
Q 308.7936 133.2864 313.2288 133.2864 
z
" clip-path="url(#p3d180adf9b)" style="fill: #e3f1e3; stroke: #3a7a4a; stroke-width: 1.5; stroke-linejoin: miter"/>
   </g>
   <g id="patch_12">
    <path d="M 424.1088 133.2864 
L 505.0512 133.2864 
Q 509.4864 133.2864 509.4864 128.8512 
L 509.4864 97.8048 
Q 509.4864 93.3696 505.0512 93.3696 
L 424.1088 93.3696 
Q 419.6736 93.3696 419.6736 97.8048 
L 419.6736 128.8512 
Q 419.6736 133.2864 424.1088 133.2864 
z
" clip-path="url(#p3d180adf9b)" style="fill: #e3f1e3; stroke: #3a7a4a; stroke-width: 1.5; stroke-linejoin: miter"/>
   </g>
   <g id="patch_13">
    <path d="M 38.8008 263.5704 
L 97.5672 263.5704 
Q 102.0024 263.5704 102.0024 259.1352 
L 102.0024 222.5448 
Q 102.0024 218.1096 97.5672 218.1096 
L 38.8008 218.1096 
Q 34.3656 218.1096 34.3656 222.5448 
L 34.3656 259.1352 
Q 34.3656 263.5704 38.8008 263.5704 
z
" clip-path="url(#p3d180adf9b)" style="fill: #f6f3ed; stroke: #27445d; stroke-width: 1.5; stroke-linejoin: miter"/>
   </g>
   <g id="patch_14">
    <path d="M 210.6648 266.3424 
L 385.8552 266.3424 
Q 390.2904 266.3424 390.2904 261.9072 
L 390.2904 219.7728 
Q 390.2904 215.3376 385.8552 215.3376 
L 210.6648 215.3376 
Q 206.2296 215.3376 206.2296 219.7728 
L 206.2296 261.9072 
Q 206.2296 266.3424 210.6648 266.3424 
z
" clip-path="url(#p3d180adf9b)" style="fill: #dde6e9; stroke: #27445d; stroke-width: 1.5; stroke-linejoin: miter"/>
   </g>
   <g id="patch_15">
    <path d="M 515.5848 263.5704 
L 574.3512 263.5704 
Q 578.7864 263.5704 578.7864 259.1352 
L 578.7864 222.5448 
Q 578.7864 218.1096 574.3512 218.1096 
L 515.5848 218.1096 
Q 511.1496 218.1096 511.1496 222.5448 
L 511.1496 259.1352 
Q 511.1496 263.5704 515.5848 263.5704 
z
" clip-path="url(#p3d180adf9b)" style="fill: #fdf3d8; stroke: #b88a25; stroke-width: 1.5; stroke-linejoin: miter"/>
   </g>
   <g id="text_1">
    <!-- Viability -->
    <g style="fill: #1f2c3a" transform="translate(107.433164 109.165255) scale(0.105 -0.105)">
     <defs>
      <path id="DejaVuSerif-Bold-56" d="M 5056 4666 
L 5056 4288 
L 4666 4288 
L 2906 0 
L 2163 0 
L 403 4288 
L -38 4288 
L -38 4666 
L 2150 4666 
L 2150 4288 
L 1697 4288 
L 2956 1197 
L 4225 4288 
L 3669 4288 
L 3669 4666 
L 5056 4666 
z
" transform="scale(0.015625)"/>
      <path id="DejaVuSerif-Bold-69" d="M 588 4263 
Q 588 4516 763 4689 
Q 938 4863 1191 4863 
Q 1438 4863 1611 4689 
Q 1784 4516 1784 4263 
Q 1784 4016 1611 3842 
Q 1438 3669 1191 3669 
Q 938 3669 763 3841 
Q 588 4013 588 4263 
z
M 1797 378 
L 2272 378 
L 2272 0 
L 219 0 
L 219 378 
L 691 378 
L 691 2944 
L 219 2944 
L 219 3322 
L 1797 3322 
L 1797 378 
z
" transform="scale(0.015625)"/>
      <path id="DejaVuSerif-Bold-61" d="M 3525 2041 
L 3525 378 
L 4000 378 
L 4000 0 
L 2419 0 
L 2419 422 
Q 2200 159 1931 34 
Q 1663 -91 1319 -91 
Q 809 -91 536 182 
Q 263 456 263 966 
Q 263 1525 655 1803 
Q 1047 2081 1838 2081 
L 2419 2081 
L 2419 2278 
Q 2419 2681 2228 2873 
Q 2038 3066 1638 3066 
Q 1306 3066 1126 2930 
Q 947 2794 872 2484 
L 519 2484 
L 519 3200 
Q 816 3306 1134 3359 
Q 1453 3413 1806 3413 
Q 2697 3413 3111 3081 
Q 3525 2750 3525 2041 
z
M 2419 1044 
L 2419 1709 
L 2003 1709 
Q 1694 1709 1528 1540 
Q 1363 1372 1363 1056 
Q 1363 741 1483 584 
Q 1603 428 1850 428 
Q 2106 428 2262 597 
Q 2419 766 2419 1044 
z
" transform="scale(0.015625)"/>
      <path id="DejaVuSerif-Bold-62" d="M 622 378 
L 622 4488 
L 147 4488 
L 147 4863 
L 1728 4863 
L 1728 2900 
Q 1869 3159 2106 3286 
Q 2344 3413 2694 3413 
Q 3403 3413 3811 2945 
Q 4219 2478 4219 1663 
Q 4219 847 3811 378 
Q 3403 -91 2694 -91 
Q 2344 -91 2106 36 
Q 1869 163 1728 422 
L 1728 0 
L 147 0 
L 147 378 
L 622 378 
z
M 1728 1497 
Q 1728 916 1876 656 
Q 2025 397 2356 397 
Q 2697 397 2836 672 
Q 2975 947 2975 1663 
Q 2975 2378 2836 2651 
Q 2697 2925 2356 2925 
Q 2025 2925 1876 2665 
Q 1728 2406 1728 1825 
L 1728 1497 
z
" transform="scale(0.015625)"/>
      <path id="DejaVuSerif-Bold-6c" d="M 1797 378 
L 2272 378 
L 2272 0 
L 219 0 
L 219 378 
L 691 378 
L 691 4488 
L 219 4488 
L 219 4863 
L 1797 4863 
L 1797 378 
z
" transform="scale(0.015625)"/>
      <path id="DejaVuSerif-Bold-74" d="M 634 2944 
L 153 2944 
L 153 3322 
L 634 3322 
L 634 4353 
L 1741 4353 
L 1741 3322 
L 2663 3322 
L 2663 2944 
L 1741 2944 
L 1741 909 
Q 1741 475 1809 369 
Q 1878 263 2059 263 
Q 2259 263 2356 397 
Q 2453 531 2459 813 
L 2925 813 
Q 2897 313 2651 111 
Q 2406 -91 1806 -91 
Q 1122 -91 878 123 
Q 634 338 634 909 
L 634 2944 
z
" transform="scale(0.015625)"/>
      <path id="DejaVuSerif-Bold-79" d="M 1997 -750 
Q 1847 -1116 1634 -1269 
Q 1422 -1422 1063 -1422 
Q 909 -1422 721 -1387 
Q 534 -1353 313 -1288 
L 313 -594 
L 666 -597 
Q 675 -838 779 -953 
Q 884 -1069 1094 -1069 
Q 1297 -1069 1422 -958 
Q 1547 -847 1672 -538 
L 1722 -422 
L 275 2944 
L -84 2944 
L -84 3322 
L 1831 3322 
L 1831 2944 
L 1434 2944 
L 2278 978 
L 3066 2944 
L 2625 2944 
L 2625 3322 
L 3872 3322 
L 3872 2944 
L 3469 2944 
L 1997 -750 
z
" transform="scale(0.015625)"/>
     </defs>
     <use xlink:href="#DejaVuSerif-Bold-56"/>
     <use xlink:href="#DejaVuSerif-Bold-69" transform="translate(75.837891 0)"/>
     <use xlink:href="#DejaVuSerif-Bold-61" transform="translate(113.826172 0)"/>
     <use xlink:href="#DejaVuSerif-Bold-62" transform="translate(178.621094 0)"/>
     <use xlink:href="#DejaVuSerif-Bold-69" transform="translate(248.542969 0)"/>
     <use xlink:href="#DejaVuSerif-Bold-6c" transform="translate(286.53125 0)"/>
     <use xlink:href="#DejaVuSerif-Bold-69" transform="translate(324.519531 0)"/>
     <use xlink:href="#DejaVuSerif-Bold-74" transform="translate(362.507812 0)"/>
     <use xlink:href="#DejaVuSerif-Bold-79" transform="translate(408.699219 0)"/>
    </g>
   </g>
   <g id="text_2">
    <!-- RandomForest on z -->
    <g style="fill: #5a6a7a" transform="translate(88.64125 124.29401) scale(0.088 -0.088)">
     <defs>
      <path id="DejaVuSerif-Italic-52" d="M 3066 2316 
Q 3272 2256 3403 2114 
Q 3534 1972 3609 1716 
L 4016 331 
L 4584 331 
L 4522 0 
L 3422 0 
L 2981 1484 
Q 2856 1916 2706 2042 
Q 2556 2169 2250 2169 
L 1553 2169 
L 1194 331 
L 1853 331 
L 1791 0 
L -97 0 
L -34 331 
L 559 331 
L 1338 4331 
L 744 4331 
L 809 4666 
L 3175 4666 
Q 3856 4666 4164 4341 
Q 4472 4016 4356 3419 
Q 4263 2938 3938 2661 
Q 3613 2384 3066 2316 
z
M 1619 2503 
L 2541 2503 
Q 3013 2503 3280 2726 
Q 3547 2950 3639 3419 
Q 3731 3888 3548 4109 
Q 3366 4331 2894 4331 
L 1972 4331 
L 1619 2503 
z
" transform="scale(0.015625)"/>
      <path id="DejaVuSerif-Italic-61" d="M 2325 519 
Q 1909 -91 1238 -91 
Q 688 -91 409 281 
Q 216 544 216 919 
Q 216 1078 250 1256 
Q 463 2359 1231 2928 
Q 1884 3413 2675 3413 
Q 3206 3413 3388 3322 
L 2806 331 
L 3300 331 
L 3238 0 
L 2225 0 
L 2325 519 
z
M 822 938 
Q 822 269 1469 269 
Q 1863 269 2130 583 
Q 2397 897 2516 1497 
L 2806 3003 
L 2806 3003 
Q 2806 3094 2556 3094 
Q 1956 3094 1491 2625 
Q 1028 2153 863 1297 
Q 822 1097 822 938 
z
" transform="scale(0.015625)"/>
      <path id="DejaVuSerif-Italic-6e" d="M 450 0 
L 1031 2988 
L 481 2988 
L 544 3322 
L 1669 3322 
L 1556 2731 
Q 1781 3069 2068 3241 
Q 2356 3413 2694 3413 
Q 3244 3413 3444 3097 
Q 3563 2906 3563 2588 
Q 3563 2378 3509 2113 
L 3163 331 
L 3675 331 
L 3613 0 
L 2522 0 
L 2897 1931 
Q 2959 2253 2959 2469 
Q 2959 2659 2909 2769 
Q 2803 2994 2425 2994 
Q 2025 2994 1759 2701 
Q 1494 2409 1384 1850 
L 1025 0 
L 450 0 
z
" transform="scale(0.015625)"/>
      <path id="DejaVuSerif-Italic-64" d="M 3841 4863 
L 2897 0 
L 2322 0 
L 2422 519 
Q 2191 206 1902 57 
Q 1613 -91 1228 -91 
Q 616 -91 322 394 
Q 125 716 125 1166 
Q 125 1397 178 1663 
Q 331 2444 812 2928 
Q 1294 3413 1909 3413 
Q 2294 3413 2525 3264 
Q 2756 3116 2866 2803 
L 3200 4531 
L 2656 4531 
L 2722 4863 
L 3841 4863 
z
M 2613 1497 
L 2675 1825 
Q 2722 2069 2722 2266 
Q 2722 2550 2622 2738 
Q 2456 3053 2019 3053 
Q 1575 3053 1279 2703 
Q 984 2353 850 1663 
Q 788 1347 788 1103 
Q 788 813 875 622 
Q 1031 269 1475 269 
Q 1913 269 2203 583 
Q 2494 897 2613 1497 
z
" transform="scale(0.015625)"/>
      <path id="DejaVuSerif-Italic-6f" d="M 1644 219 
Q 2106 219 2414 584 
Q 2722 950 2859 1663 
Q 2922 1988 2922 2241 
Q 2922 2541 2834 2738 
Q 2669 3103 2206 3103 
Q 1744 3103 1436 2739 
Q 1128 2375 991 1663 
Q 928 1338 928 1088 
Q 928 784 1019 584 
Q 1184 219 1644 219 
z
M 1584 -91 
Q 859 -91 513 388 
Q 272 722 272 1203 
Q 272 1419 319 1663 
Q 472 2456 1005 2934 
Q 1538 3413 2266 3413 
Q 2994 3413 3341 2934 
Q 3578 2603 3578 2122 
Q 3578 1906 3531 1663 
Q 3378 869 2845 389 
Q 2313 -91 1584 -91 
z
" transform="scale(0.015625)"/>
      <path id="DejaVuSerif-Italic-6d" d="M 3503 2675 
Q 3741 3041 4034 3227 
Q 4328 3413 4672 3413 
Q 5194 3413 5388 3088 
Q 5503 2894 5503 2578 
Q 5503 2372 5453 2113 
L 5106 331 
L 5625 331 
L 5563 0 
L 4469 0 
L 4866 2047 
Q 4913 2291 4913 2466 
Q 4913 2659 4856 2772 
Q 4750 2988 4403 2988 
Q 4019 2988 3761 2697 
Q 3503 2406 3394 1850 
L 3034 0 
L 2459 0 
L 2863 2069 
Q 2906 2303 2906 2472 
Q 2906 2666 2850 2775 
Q 2741 2988 2394 2988 
Q 2009 2988 1751 2697 
Q 1494 2406 1384 1850 
L 1025 0 
L 450 0 
L 1031 2994 
L 481 2994 
L 544 3322 
L 1669 3322 
L 1556 2731 
Q 1778 3063 2059 3238 
Q 2341 3413 2653 3413 
Q 3041 3413 3262 3220 
Q 3484 3028 3503 2675 
z
" transform="scale(0.015625)"/>
      <path id="DejaVuSerif-Italic-46" d="M -97 0 
L -34 331 
L 559 331 
L 1338 4331 
L 744 4331 
L 809 4666 
L 4628 4666 
L 4428 3628 
L 4044 3628 
L 4169 4281 
L 1963 4281 
L 1659 2719 
L 3253 2719 
L 3366 3303 
L 3750 3303 
L 3450 1753 
L 3066 1753 
L 3178 2338 
L 1584 2338 
L 1194 331 
L 1941 331 
L 1878 0 
L -97 0 
z
" transform="scale(0.015625)"/>
      <path id="DejaVuSerif-Italic-72" d="M 3375 3328 
L 3213 2497 
L 2881 2497 
Q 2891 2559 2891 2613 
Q 2891 2775 2816 2866 
Q 2719 2988 2484 2988 
Q 2059 2988 1775 2694 
Q 1491 2400 1384 1850 
L 1025 0 
L 450 0 
L 1031 2994 
L 481 2994 
L 544 3322 
L 1669 3322 
L 1556 2731 
Q 1791 3078 2089 3245 
Q 2388 3413 2769 3413 
Q 2909 3413 3059 3391 
Q 3209 3369 3375 3328 
z
" transform="scale(0.015625)"/>
      <path id="DejaVuSerif-Italic-65" d="M 938 1275 
Q 925 1156 925 1050 
Q 925 756 1031 563 
Q 1216 219 1709 219 
Q 2072 219 2250 328 
Q 2569 525 2644 778 
L 3066 778 
Q 2941 381 2475 103 
Q 2150 -91 1506 -91 
Q 863 -91 516 388 
Q 272 722 272 1206 
Q 272 1419 319 1659 
Q 472 2450 1000 2931 
Q 1528 3413 2278 3413 
Q 3500 3413 3500 2547 
Q 3500 1913 2859 1603 
Q 2206 1288 938 1275 
z
M 2541 1975 
Q 2891 2181 2891 2569 
Q 2891 3103 2181 3103 
Q 1763 3103 1472 2784 
Q 1181 2466 1003 1606 
Q 2006 1653 2541 1975 
z
" transform="scale(0.015625)"/>
      <path id="DejaVuSerif-Italic-73" d="M 222 959 
L 553 959 
Q 541 869 541 788 
Q 541 219 1313 219 
Q 2088 219 2200 788 
Q 2209 844 2209 944 
Q 2209 1041 2103 1158 
Q 1997 1275 1550 1428 
L 1159 1569 
Q 759 1706 629 1882 
Q 500 2059 500 2263 
Q 500 2344 516 2438 
Q 606 2894 990 3153 
Q 1375 3413 1931 3413 
Q 2484 3413 3066 3144 
L 2925 2419 
L 2594 2419 
Q 2606 2491 2606 2553 
Q 2606 2781 2448 2942 
Q 2291 3103 1925 3103 
Q 1191 3103 1091 2591 
Q 1078 2538 1078 2444 
Q 1078 2347 1179 2237 
Q 1281 2128 1678 1997 
L 2106 1856 
Q 2550 1709 2716 1488 
Q 2831 1331 2831 1178 
Q 2831 522 2306 181 
Q 1894 -91 1262 -91 
Q 631 -91 72 184 
L 222 959 
z
" transform="scale(0.015625)"/>
      <path id="DejaVuSerif-Italic-74" d="M 856 2988 
L 350 2988 
L 416 3322 
L 922 3322 
L 1122 4353 
L 1700 4353 
L 1500 3322 
L 2581 3322 
L 2516 2988 
L 1434 2988 
L 1025 878 
Q 978 631 978 488 
Q 978 388 1000 338 
Q 1059 219 1278 219 
Q 1503 219 1633 351 
Q 1763 484 1825 781 
L 2259 781 
Q 2147 328 1884 118 
Q 1622 -91 1169 -91 
Q 672 -91 506 131 
Q 406 266 406 516 
Q 406 675 447 878 
L 856 2988 
z
" transform="scale(0.015625)"/>
      <path id="DejaVuSerif-Italic-20" transform="scale(0.015625)"/>
      <path id="DejaVuSerif-Italic-7a" d="M 2550 3047 
Q 2888 3047 3216 3322 
L 3403 3322 
L 3353 3053 
L 1081 684 
Q 1113 675 1203 647 
Q 1309 613 1416 544 
L 1569 450 
Q 1863 272 2075 272 
Q 2484 272 2966 741 
L 2891 363 
Q 2356 -163 1950 -163 
Q 1703 -156 1356 59 
Q 1009 275 791 275 
Q 453 275 125 0 
L -63 0 
L -13 269 
L 2263 2634 
Q 2228 2647 2138 2675 
Q 2031 2709 1925 2778 
L 1772 2872 
Q 1478 3050 1266 3050 
Q 856 3050 375 2581 
L 450 2959 
Q 984 3484 1391 3484 
Q 1638 3478 1984 3262 
Q 2331 3047 2550 3047 
z
" transform="scale(0.015625)"/>
     </defs>
     <use xlink:href="#DejaVuSerif-Italic-52"/>
     <use xlink:href="#DejaVuSerif-Italic-61" transform="translate(77.542969 0)"/>
     <use xlink:href="#DejaVuSerif-Italic-6e" transform="translate(137.162109 0)"/>
     <use xlink:href="#DejaVuSerif-Italic-64" transform="translate(201.566406 0)"/>
     <use xlink:href="#DejaVuSerif-Italic-6f" transform="translate(265.580078 0)"/>
     <use xlink:href="#DejaVuSerif-Italic-6d" transform="translate(325.785156 0)"/>
     <use xlink:href="#DejaVuSerif-Italic-46" transform="translate(420.609375 0)"/>
     <use xlink:href="#DejaVuSerif-Italic-6f" transform="translate(484.494141 0)"/>
     <use xlink:href="#DejaVuSerif-Italic-72" transform="translate(544.699219 0)"/>
     <use xlink:href="#DejaVuSerif-Italic-65" transform="translate(592.501953 0)"/>
     <use xlink:href="#DejaVuSerif-Italic-73" transform="translate(651.681641 0)"/>
     <use xlink:href="#DejaVuSerif-Italic-74" transform="translate(703 0)"/>
     <use xlink:href="#DejaVuSerif-Italic-20" transform="translate(743.185547 0)"/>
     <use xlink:href="#DejaVuSerif-Italic-6f" transform="translate(774.972656 0)"/>
     <use xlink:href="#DejaVuSerif-Italic-6e" transform="translate(835.177734 0)"/>
     <use xlink:href="#DejaVuSerif-Italic-20" transform="translate(899.582031 0)"/>
     <use xlink:href="#DejaVuSerif-Italic-7a" transform="translate(931.369141 0)"/>
    </g>
   </g>
   <g id="text_3">
    <!-- Sensitivity -->
    <g style="fill: #1f2c3a" transform="translate(211.981992 109.165255) scale(0.105 -0.105)">
     <defs>
      <path id="DejaVuSerif-Bold-53" d="M 494 225 
L 494 1331 
L 891 1331 
Q 981 806 1318 547 
Q 1656 288 2253 288 
Q 2738 288 2991 472 
Q 3244 656 3244 1013 
Q 3244 1294 3072 1450 
Q 2900 1606 2363 1741 
L 1663 1913 
Q 978 2088 700 2398 
Q 422 2709 422 3284 
Q 422 3978 883 4364 
Q 1344 4750 2175 4750 
Q 2584 4750 3026 4681 
Q 3469 4613 3944 4475 
L 3944 3444 
L 3547 3444 
Q 3456 3925 3150 4148 
Q 2844 4372 2278 4372 
Q 1816 4372 1580 4211 
Q 1344 4050 1344 3731 
Q 1344 3441 1506 3289 
Q 1669 3138 2303 2975 
L 3003 2803 
Q 3653 2641 3945 2297 
Q 4238 1953 4238 1350 
Q 4238 644 3750 276 
Q 3263 -91 2316 -91 
Q 1859 -91 1409 -12 
Q 959 66 494 225 
z
" transform="scale(0.015625)"/>
      <path id="DejaVuSerif-Bold-65" d="M 2566 1875 
Q 2566 2531 2444 2795 
Q 2322 3059 2028 3059 
Q 1744 3059 1620 2800 
Q 1497 2541 1497 1931 
L 1497 1875 
L 2566 1875 
z
M 3781 1503 
L 1497 1503 
L 1497 1478 
Q 1497 834 1690 548 
Q 1884 263 2316 263 
Q 2675 263 2897 453 
Q 3119 644 3181 1006 
L 3700 1006 
Q 3566 441 3166 175 
Q 2766 -91 2047 -91 
Q 1184 -91 723 364 
Q 263 819 263 1663 
Q 263 2488 734 2950 
Q 1206 3413 2047 3413 
Q 2872 3413 3312 2927 
Q 3753 2441 3781 1503 
z
" transform="scale(0.015625)"/>
      <path id="DejaVuSerif-Bold-6e" d="M 219 0 
L 219 378 
L 691 378 
L 691 2944 
L 219 2944 
L 219 3322 
L 1797 3322 
L 1797 2853 
Q 1997 3150 2253 3281 
Q 2509 3413 2900 3413 
Q 3459 3413 3745 3083 
Q 4031 2753 4031 2113 
L 4031 378 
L 4506 378 
L 4506 0 
L 2522 0 
L 2522 378 
L 2925 378 
L 2925 2144 
Q 2925 2566 2817 2730 
Q 2709 2894 2444 2894 
Q 2109 2894 1953 2648 
Q 1797 2403 1797 1869 
L 1797 378 
L 2203 378 
L 2203 0 
L 219 0 
z
" transform="scale(0.015625)"/>
      <path id="DejaVuSerif-Bold-73" d="M 300 97 
L 300 1025 
L 653 1025 
Q 697 653 931 458 
Q 1166 263 1569 263 
Q 1906 263 2086 380 
Q 2266 497 2266 716 
Q 2266 916 2152 1025 
Q 2038 1134 1709 1216 
L 1253 1331 
Q 738 1459 506 1698 
Q 275 1938 275 2344 
Q 275 2884 650 3148 
Q 1025 3413 1806 3413 
Q 2100 3413 2433 3364 
Q 2766 3316 3169 3213 
L 3169 2375 
L 2816 2375 
Q 2788 2716 2573 2887 
Q 2359 3059 1959 3059 
Q 1622 3059 1448 2951 
Q 1275 2844 1275 2638 
Q 1275 2469 1375 2372 
Q 1475 2275 1734 2209 
L 2188 2094 
Q 2841 1928 3091 1684 
Q 3341 1441 3341 1006 
Q 3341 444 2939 176 
Q 2538 -91 1691 -91 
Q 1381 -91 1034 -44 
Q 688 3 300 97 
z
" transform="scale(0.015625)"/>
      <path id="DejaVuSerif-Bold-76" d="M 1428 0 
L 250 2944 
L -116 2944 
L -116 3322 
L 1791 3322 
L 1791 2944 
L 1388 2944 
L 2228 844 
L 3066 2944 
L 2631 2944 
L 2631 3322 
L 3878 3322 
L 3878 2944 
L 3494 2944 
L 2316 0 
L 1428 0 
z
" transform="scale(0.015625)"/>
     </defs>
     <use xlink:href="#DejaVuSerif-Bold-53"/>
     <use xlink:href="#DejaVuSerif-Bold-65" transform="translate(72.216797 0)"/>
     <use xlink:href="#DejaVuSerif-Bold-6e" transform="translate(135.839844 0)"/>
     <use xlink:href="#DejaVuSerif-Bold-73" transform="translate(208.544922 0)"/>
     <use xlink:href="#DejaVuSerif-Bold-69" transform="translate(264.84375 0)"/>
     <use xlink:href="#DejaVuSerif-Bold-74" transform="translate(302.832031 0)"/>
     <use xlink:href="#DejaVuSerif-Bold-69" transform="translate(349.023438 0)"/>
     <use xlink:href="#DejaVuSerif-Bold-76" transform="translate(387.011719 0)"/>
     <use xlink:href="#DejaVuSerif-Bold-69" transform="translate(445.117188 0)"/>
     <use xlink:href="#DejaVuSerif-Bold-74" transform="translate(483.105469 0)"/>
     <use xlink:href="#DejaVuSerif-Bold-79" transform="translate(529.296875 0)"/>
    </g>
   </g>
   <g id="text_4">
    <!-- $h_{50}$ on Huang-Massa -->
    <g style="fill: #5a6a7a" transform="translate(196.972 124.19776) scale(0.088 -0.088)">
     <defs>
      <path id="DejaVuSans-Oblique-68" d="M 3566 2113 
L 3156 0 
L 2578 0 
L 2988 2091 
Q 3016 2238 3031 2350 
Q 3047 2463 3047 2528 
Q 3047 2791 2881 2937 
Q 2716 3084 2419 3084 
Q 1956 3084 1617 2771 
Q 1278 2459 1178 1941 
L 800 0 
L 225 0 
L 1172 4863 
L 1747 4863 
L 1375 2950 
Q 1594 3244 1934 3414 
Q 2275 3584 2650 3584 
Q 3113 3584 3367 3334 
Q 3622 3084 3622 2631 
Q 3622 2519 3608 2391 
Q 3594 2263 3566 2113 
z
" transform="scale(0.015625)"/>
      <path id="DejaVuSans-35" d="M 691 4666 
L 3169 4666 
L 3169 4134 
L 1269 4134 
L 1269 2991 
Q 1406 3038 1543 3061 
Q 1681 3084 1819 3084 
Q 2600 3084 3056 2656 
Q 3513 2228 3513 1497 
Q 3513 744 3044 326 
Q 2575 -91 1722 -91 
Q 1428 -91 1123 -41 
Q 819 9 494 109 
L 494 744 
Q 775 591 1075 516 
Q 1375 441 1709 441 
Q 2250 441 2565 725 
Q 2881 1009 2881 1497 
Q 2881 1984 2565 2268 
Q 2250 2553 1709 2553 
Q 1456 2553 1204 2497 
Q 953 2441 691 2322 
L 691 4666 
z
" transform="scale(0.015625)"/>
      <path id="DejaVuSans-30" d="M 2034 4250 
Q 1547 4250 1301 3770 
Q 1056 3291 1056 2328 
Q 1056 1369 1301 889 
Q 1547 409 2034 409 
Q 2525 409 2770 889 
Q 3016 1369 3016 2328 
Q 3016 3291 2770 3770 
Q 2525 4250 2034 4250 
z
M 2034 4750 
Q 2819 4750 3233 4129 
Q 3647 3509 3647 2328 
Q 3647 1150 3233 529 
Q 2819 -91 2034 -91 
Q 1250 -91 836 529 
Q 422 1150 422 2328 
Q 422 3509 836 4129 
Q 1250 4750 2034 4750 
z
" transform="scale(0.015625)"/>
      <path id="DejaVuSerif-Italic-48" d="M -97 0 
L -34 331 
L 559 331 
L 1338 4331 
L 744 4331 
L 809 4666 
L 2631 4666 
L 2566 4331 
L 1972 4331 
L 1659 2719 
L 4078 2719 
L 4391 4331 
L 3797 4331 
L 3863 4666 
L 5684 4666 
L 5619 4331 
L 5025 4331 
L 4247 331 
L 4841 331 
L 4778 0 
L 2956 0 
L 3019 331 
L 3616 331 
L 4003 2338 
L 1584 2338 
L 1194 331 
L 1788 331 
L 1725 0 
L -97 0 
z
" transform="scale(0.015625)"/>
      <path id="DejaVuSerif-Italic-75" d="M 3097 3322 
L 3672 3322 
L 3091 331 
L 3634 331 
L 3572 0 
L 2453 0 
L 2566 588 
Q 2341 256 2055 82 
Q 1769 -91 1434 -91 
Q 881 -91 681 225 
Q 559 413 559 734 
Q 559 944 613 1209 
L 956 2988 
L 438 2988 
L 503 3322 
L 1600 3322 
L 1225 1388 
Q 1163 1066 1163 853 
Q 1163 663 1213 556 
Q 1316 331 1697 331 
Q 2097 331 2364 625 
Q 2631 919 2738 1478 
L 3097 3322 
z
" transform="scale(0.015625)"/>
      <path id="DejaVuSerif-Italic-67" d="M 3822 3322 
L 3188 72 
Q 3044 -672 2581 -1031 
Q 2078 -1422 1381 -1422 
Q 1053 -1422 765 -1362 
Q 478 -1303 225 -1184 
L 363 -488 
L 663 -488 
Q 653 -813 834 -963 
Q 1016 -1113 1406 -1113 
Q 1913 -1113 2203 -825 
Q 2494 -544 2613 72 
L 2700 519 
Q 2472 206 2181 57 
Q 1891 -91 1525 -91 
Q 975 -91 697 281 
Q 522 516 503 841 
Q 491 1031 534 1256 
Q 750 2359 1516 2928 
Q 2169 3409 2931 3413 
Q 3631 3416 3822 3322 
z
M 3184 2988 
Q 3181 3094 2844 3094 
Q 2234 3094 1775 2625 
Q 1316 2153 1147 1297 
Q 1100 1044 1113 853 
Q 1125 659 1203 528 
Q 1356 269 1756 269 
Q 2194 269 2484 583 
Q 2775 897 2891 1497 
L 2953 1825 
L 3184 2988 
z
" transform="scale(0.015625)"/>
      <path id="DejaVuSerif-Italic-2d" d="M 328 1959 
L 1928 1959 
L 1834 1472 
L 234 1472 
L 328 1959 
z
" transform="scale(0.015625)"/>
      <path id="DejaVuSerif-Italic-4d" d="M -97 0 
L -34 331 
L 559 331 
L 1338 4331 
L 709 4331 
L 775 4666 
L 2134 4666 
L 3125 1344 
L 5409 4666 
L 6684 4666 
L 6619 4331 
L 5997 4331 
L 5222 331 
L 5816 331 
L 5753 0 
L 3928 0 
L 3991 331 
L 4584 331 
L 5288 3938 
L 3053 684 
L 2613 684 
L 1647 3938 
L 944 331 
L 1538 331 
L 1475 0 
L -97 0 
z
" transform="scale(0.015625)"/>
     </defs>
     <use xlink:href="#DejaVuSans-Oblique-68" transform="translate(0 0.015625)"/>
     <use xlink:href="#DejaVuSans-35" transform="translate(63.378906 -16.390625) scale(0.7)"/>
     <use xlink:href="#DejaVuSans-30" transform="translate(107.915039 -16.390625) scale(0.7)"/>
     <use xlink:href="#DejaVuSerif-Italic-20" transform="translate(155.185547 0.015625)"/>
     <use xlink:href="#DejaVuSerif-Italic-6f" transform="translate(186.972656 0.015625)"/>
     <use xlink:href="#DejaVuSerif-Italic-6e" transform="translate(247.177734 0.015625)"/>
     <use xlink:href="#DejaVuSerif-Italic-20" transform="translate(311.582031 0.015625)"/>
     <use xlink:href="#DejaVuSerif-Italic-48" transform="translate(343.369141 0.015625)"/>
     <use xlink:href="#DejaVuSerif-Italic-75" transform="translate(430.576172 0.015625)"/>
     <use xlink:href="#DejaVuSerif-Italic-61" transform="translate(494.980469 0.015625)"/>
     <use xlink:href="#DejaVuSerif-Italic-6e" transform="translate(554.599609 0.015625)"/>
     <use xlink:href="#DejaVuSerif-Italic-67" transform="translate(619.003906 0.015625)"/>
     <use xlink:href="#DejaVuSerif-Italic-2d" transform="translate(683.017578 0.015625)"/>
     <use xlink:href="#DejaVuSerif-Italic-4d" transform="translate(716.806641 0.015625)"/>
     <use xlink:href="#DejaVuSerif-Italic-61" transform="translate(819.199219 0.015625)"/>
     <use xlink:href="#DejaVuSerif-Italic-73" transform="translate(878.818359 0.015625)"/>
     <use xlink:href="#DejaVuSerif-Italic-73" transform="translate(930.136719 0.015625)"/>
     <use xlink:href="#DejaVuSerif-Italic-61" transform="translate(981.455078 0.015625)"/>
    </g>
   </g>
   <g id="text_5">
    <!-- Performance -->
    <g style="fill: #1f2c3a" transform="translate(315.945938 109.239904) scale(0.105 -0.105)">
     <defs>
      <path id="DejaVuSerif-Bold-50" d="M 300 0 
L 300 378 
L 897 378 
L 897 4288 
L 300 4288 
L 300 4666 
L 2956 4666 
Q 3734 4666 4193 4295 
Q 4653 3925 4653 3303 
Q 4653 2678 4192 2304 
Q 3731 1931 2956 1931 
L 2100 1931 
L 2100 378 
L 2853 378 
L 2853 0 
L 300 0 
z
M 2100 2309 
L 2450 2309 
Q 2856 2309 3098 2579 
Q 3341 2850 3341 3303 
Q 3341 3753 3100 4020 
Q 2859 4288 2450 4288 
L 2100 4288 
L 2100 2309 
z
" transform="scale(0.015625)"/>
      <path id="DejaVuSerif-Bold-72" d="M 3438 3359 
L 3438 2369 
L 3084 2369 
Q 3066 2634 2941 2764 
Q 2816 2894 2578 2894 
Q 2216 2894 2006 2575 
Q 1797 2256 1797 1691 
L 1797 378 
L 2400 378 
L 2400 0 
L 219 0 
L 219 378 
L 691 378 
L 691 2944 
L 184 2944 
L 184 3322 
L 1797 3322 
L 1797 2731 
Q 1959 3078 2226 3245 
Q 2494 3413 2881 3413 
Q 2978 3413 3117 3398 
Q 3256 3384 3438 3359 
z
" transform="scale(0.015625)"/>
      <path id="DejaVuSerif-Bold-66" d="M 3097 4031 
L 2747 4031 
Q 2722 4275 2605 4394 
Q 2488 4513 2272 4513 
Q 2022 4513 1909 4333 
Q 1797 4153 1797 3750 
L 1797 3322 
L 2631 3322 
L 2631 2944 
L 1797 2944 
L 1797 378 
L 2438 378 
L 2438 0 
L 219 0 
L 219 378 
L 691 378 
L 691 2944 
L 197 2944 
L 197 3322 
L 691 3322 
L 691 3738 
Q 691 4291 1044 4577 
Q 1397 4863 2081 4863 
Q 2347 4863 2600 4833 
Q 2853 4803 3097 4744 
L 3097 4031 
z
" transform="scale(0.015625)"/>
      <path id="DejaVuSerif-Bold-6f" d="M 2138 263 
Q 2488 263 2630 563 
Q 2772 863 2772 1663 
Q 2772 2463 2631 2761 
Q 2491 3059 2138 3059 
Q 1784 3059 1640 2757 
Q 1497 2456 1497 1663 
Q 1497 869 1640 566 
Q 1784 263 2138 263 
z
M 2138 -91 
Q 1259 -91 761 376 
Q 263 844 263 1663 
Q 263 2484 761 2948 
Q 1259 3413 2138 3413 
Q 3019 3413 3516 2948 
Q 4013 2484 4013 1663 
Q 4013 844 3514 376 
Q 3016 -91 2138 -91 
z
" transform="scale(0.015625)"/>
      <path id="DejaVuSerif-Bold-6d" d="M 3884 2778 
Q 4116 3109 4384 3261 
Q 4653 3413 5013 3413 
Q 5584 3413 5867 3089 
Q 6150 2766 6150 2113 
L 6150 378 
L 6625 378 
L 6625 0 
L 4647 0 
L 4647 378 
L 5044 378 
L 5044 1947 
Q 5044 2569 4948 2731 
Q 4853 2894 4594 2894 
Q 4300 2894 4137 2667 
Q 3975 2441 3975 2022 
L 3975 378 
L 4372 378 
L 4372 0 
L 2472 0 
L 2472 378 
L 2869 378 
L 2869 1947 
Q 2869 2569 2772 2731 
Q 2675 2894 2419 2894 
Q 2122 2894 1959 2667 
Q 1797 2441 1797 2022 
L 1797 378 
L 2194 378 
L 2194 0 
L 219 0 
L 219 378 
L 691 378 
L 691 2944 
L 219 2944 
L 219 3322 
L 1797 3322 
L 1797 2853 
Q 1991 3144 2241 3278 
Q 2491 3413 2834 3413 
Q 3241 3413 3494 3258 
Q 3747 3103 3884 2778 
z
" transform="scale(0.015625)"/>
      <path id="DejaVuSerif-Bold-63" d="M 3609 1038 
Q 3491 469 3123 189 
Q 2756 -91 2125 -91 
Q 1238 -91 750 368 
Q 263 828 263 1663 
Q 263 2488 744 2950 
Q 1225 3413 2081 3413 
Q 2428 3413 2781 3347 
Q 3134 3281 3500 3150 
L 3500 2228 
L 3150 2228 
Q 3100 2650 2903 2854 
Q 2706 3059 2350 3059 
Q 1888 3059 1692 2746 
Q 1497 2434 1497 1663 
Q 1497 909 1687 586 
Q 1878 263 2309 263 
Q 2644 263 2845 463 
Q 3047 663 3091 1038 
L 3609 1038 
z
" transform="scale(0.015625)"/>
     </defs>
     <use xlink:href="#DejaVuSerif-Bold-50"/>
     <use xlink:href="#DejaVuSerif-Bold-65" transform="translate(72.570312 0)"/>
     <use xlink:href="#DejaVuSerif-Bold-72" transform="translate(136.193359 0)"/>
     <use xlink:href="#DejaVuSerif-Bold-66" transform="translate(188.878906 0)"/>
     <use xlink:href="#DejaVuSerif-Bold-6f" transform="translate(231.896484 0)"/>
     <use xlink:href="#DejaVuSerif-Bold-72" transform="translate(298.595703 0)"/>
     <use xlink:href="#DejaVuSerif-Bold-6d" transform="translate(351.28125 0)"/>
     <use xlink:href="#DejaVuSerif-Bold-61" transform="translate(457.091797 0)"/>
     <use xlink:href="#DejaVuSerif-Bold-6e" transform="translate(521.886719 0)"/>
     <use xlink:href="#DejaVuSerif-Bold-63" transform="translate(594.591797 0)"/>
     <use xlink:href="#DejaVuSerif-Bold-65" transform="translate(655.480469 0)"/>
    </g>
   </g>
   <g id="text_6">
    <!-- $\rho, D, P$ heads -->
    <g style="fill: #5a6a7a" transform="translate(325.804 124.28576) scale(0.088 -0.088)">
     <defs>
      <path id="DejaVuSans-Oblique-3c1" d="M 1203 2875 
Q 1453 3194 1981 3475 
Q 2188 3584 2756 3584 
Q 3394 3584 3694 3078 
Q 3994 2572 3834 1747 
Q 3672 922 3175 415 
Q 2678 -91 2041 -91 
Q 1656 -91 1409 63 
Q 1163 213 1044 525 
L 681 -1331 
L 103 -1331 
L 697 1716 
Q 838 2438 1203 2875 
z
M 3238 1747 
Q 3359 2381 3169 2744 
Q 2978 3103 2522 3103 
Q 2066 3103 1734 2744 
Q 1403 2381 1281 1747 
Q 1156 1113 1347 750 
Q 1538 391 1994 391 
Q 2450 391 2781 750 
Q 3113 1113 3238 1747 
z
" transform="scale(0.015625)"/>
      <path id="DejaVuSans-2c" d="M 750 794 
L 1409 794 
L 1409 256 
L 897 -744 
L 494 -744 
L 750 256 
L 750 794 
z
" transform="scale(0.015625)"/>
      <path id="DejaVuSans-Oblique-44" d="M 1081 4666 
L 2438 4666 
Q 3519 4666 4070 4208 
Q 4622 3750 4622 2847 
Q 4622 2250 4412 1698 
Q 4203 1147 3834 769 
Q 3463 381 2891 190 
Q 2319 0 1538 0 
L 172 0 
L 1081 4666 
z
M 1613 4147 
L 909 519 
L 1734 519 
Q 2794 519 3375 1128 
Q 3956 1738 3956 2847 
Q 3956 3519 3581 3833 
Q 3206 4147 2406 4147 
L 1613 4147 
z
" transform="scale(0.015625)"/>
      <path id="DejaVuSans-Oblique-50" d="M 1081 4666 
L 2541 4666 
Q 3178 4666 3512 4369 
Q 3847 4072 3847 3500 
Q 3847 2731 3353 2303 
Q 2859 1875 1966 1875 
L 1172 1875 
L 806 0 
L 172 0 
L 1081 4666 
z
M 1613 4147 
L 1275 2394 
L 2069 2394 
Q 2606 2394 2893 2669 
Q 3181 2944 3181 3456 
Q 3181 3784 2986 3965 
Q 2791 4147 2438 4147 
L 1613 4147 
z
" transform="scale(0.015625)"/>
      <path id="DejaVuSerif-Italic-68" d="M 309 0 
L 1191 4531 
L 641 4531 
L 703 4863 
L 1828 4863 
L 1416 2731 
Q 1641 3069 1928 3241 
Q 2216 3413 2553 3413 
Q 3103 3413 3300 3097 
Q 3422 2906 3422 2588 
Q 3422 2378 3369 2113 
L 3022 331 
L 3534 331 
L 3472 0 
L 2381 0 
L 2756 1931 
Q 2819 2253 2819 2469 
Q 2819 2659 2769 2763 
Q 2666 2988 2284 2988 
Q 1884 2988 1617 2697 
Q 1350 2406 1244 1850 
L 884 0 
L 309 0 
z
" transform="scale(0.015625)"/>
     </defs>
     <use xlink:href="#DejaVuSans-Oblique-3c1" transform="translate(0 0.015625)"/>
     <use xlink:href="#DejaVuSans-2c" transform="translate(63.476562 0.015625)"/>
     <use xlink:href="#DejaVuSans-Oblique-44" transform="translate(114.746094 0.015625)"/>
     <use xlink:href="#DejaVuSans-2c" transform="translate(191.748047 0.015625)"/>
     <use xlink:href="#DejaVuSans-Oblique-50" transform="translate(243.017578 0.015625)"/>
     <use xlink:href="#DejaVuSerif-Italic-20" transform="translate(303.320312 0.015625)"/>
     <use xlink:href="#DejaVuSerif-Italic-68" transform="translate(335.107422 0.015625)"/>
     <use xlink:href="#DejaVuSerif-Italic-65" transform="translate(399.511719 0.015625)"/>
     <use xlink:href="#DejaVuSerif-Italic-61" transform="translate(458.691406 0.015625)"/>
     <use xlink:href="#DejaVuSerif-Italic-64" transform="translate(518.310547 0.015625)"/>
     <use xlink:href="#DejaVuSerif-Italic-73" transform="translate(582.324219 0.015625)"/>
    </g>
   </g>
   <g id="text_7">
    <!-- Hazard -->
    <g style="fill: #1f2c3a" transform="translate(443.397891 109.239904) scale(0.105 -0.105)">
     <defs>
      <path id="DejaVuSerif-Bold-48" d="M 300 0 
L 300 378 
L 897 378 
L 897 4288 
L 300 4288 
L 300 4666 
L 2700 4666 
L 2700 4288 
L 2100 4288 
L 2100 2719 
L 3956 2719 
L 3956 4288 
L 3359 4288 
L 3359 4666 
L 5759 4666 
L 5759 4288 
L 5159 4288 
L 5159 378 
L 5759 378 
L 5759 0 
L 3359 0 
L 3359 378 
L 3956 378 
L 3956 2291 
L 2100 2291 
L 2100 378 
L 2700 378 
L 2700 0 
L 300 0 
z
" transform="scale(0.015625)"/>
      <path id="DejaVuSerif-Bold-7a" d="M 225 0 
L 225 378 
L 2131 2956 
L 697 2956 
L 697 2388 
L 325 2388 
L 325 3322 
L 3419 3322 
L 3419 2950 
L 1509 372 
L 3047 372 
L 3047 972 
L 3419 972 
L 3419 0 
L 225 0 
z
" transform="scale(0.015625)"/>
      <path id="DejaVuSerif-Bold-64" d="M 2747 1497 
L 2747 1825 
Q 2747 2406 2597 2665 
Q 2447 2925 2119 2925 
Q 1775 2925 1636 2651 
Q 1497 2378 1497 1663 
Q 1497 947 1637 672 
Q 1778 397 2119 397 
Q 2447 397 2597 656 
Q 2747 916 2747 1497 
z
M 3853 378 
L 4325 378 
L 4325 0 
L 2747 0 
L 2747 422 
Q 2606 163 2367 36 
Q 2128 -91 1778 -91 
Q 1072 -91 667 378 
Q 263 847 263 1663 
Q 263 2481 667 2947 
Q 1072 3413 1778 3413 
Q 2128 3413 2367 3286 
Q 2606 3159 2747 2900 
L 2747 4488 
L 2272 4488 
L 2272 4863 
L 3853 4863 
L 3853 378 
z
" transform="scale(0.015625)"/>
     </defs>
     <use xlink:href="#DejaVuSerif-Bold-48"/>
     <use xlink:href="#DejaVuSerif-Bold-61" transform="translate(94.482422 0)"/>
     <use xlink:href="#DejaVuSerif-Bold-7a" transform="translate(159.277344 0)"/>
     <use xlink:href="#DejaVuSerif-Bold-61" transform="translate(216.064453 0)"/>
     <use xlink:href="#DejaVuSerif-Bold-72" transform="translate(280.859375 0)"/>
     <use xlink:href="#DejaVuSerif-Bold-64" transform="translate(333.544922 0)"/>
    </g>
   </g>
   <g id="text_8">
    <!-- SMARTS-aware learned -->
    <g style="fill: #5a6a7a" transform="translate(410.939875 124.29401) scale(0.088 -0.088)">
     <defs>
      <path id="DejaVuSerif-Italic-53" d="M 184 225 
L 391 1288 
L 750 1284 
Q 663 753 905 498 
Q 1147 244 1744 244 
Q 2300 244 2636 464 
Q 2972 684 3053 1106 
Q 3119 1444 2976 1625 
Q 2834 1806 2300 1978 
L 1722 2163 
Q 1091 2366 877 2669 
Q 663 2972 766 3500 
Q 881 4094 1367 4422 
Q 1853 4750 2616 4750 
Q 2941 4750 3314 4679 
Q 3688 4609 4097 4475 
L 3906 3481 
L 3553 3481 
Q 3594 3975 3361 4195 
Q 3128 4416 2563 4416 
Q 2069 4416 1772 4214 
Q 1475 4013 1400 3628 
Q 1334 3294 1490 3103 
Q 1647 2913 2241 2725 
L 2784 2553 
Q 3381 2363 3593 2067 
Q 3806 1772 3709 1275 
Q 3578 597 3076 253 
Q 2575 -91 1716 -91 
Q 1331 -91 948 -12 
Q 566 66 184 225 
z
" transform="scale(0.015625)"/>
      <path id="DejaVuSerif-Italic-41" d="M 1159 1691 
L 2872 1691 
L 2447 3909 
L 1159 1691 
z
M -488 0 
L -425 331 
L -16 331 
L 2491 4666 
L 3016 4666 
L 3841 331 
L 4297 331 
L 4234 0 
L 2538 0 
L 2600 331 
L 3119 331 
L 2928 1356 
L 966 1356 
L 375 331 
L 888 331 
L 825 0 
L -488 0 
z
" transform="scale(0.015625)"/>
      <path id="DejaVuSerif-Italic-54" d="M 769 0 
L 831 331 
L 1428 331 
L 2200 4294 
L 828 4294 
L 688 3566 
L 303 3566 
L 516 4666 
L 4659 4666 
L 4447 3566 
L 4063 3566 
L 4203 4294 
L 2831 4294 
L 2059 331 
L 2656 331 
L 2594 0 
L 769 0 
z
" transform="scale(0.015625)"/>
      <path id="DejaVuSerif-Italic-77" d="M 3741 728 
Q 4156 1178 4250 1344 
Q 4594 1969 4931 2988 
L 4447 2984 
L 4513 3322 
L 5347 3322 
L 5281 2984 
L 5278 2984 
Q 4959 1825 4656 1266 
Q 4209 469 3719 0 
L 3241 0 
L 2900 2484 
L 1597 0 
L 1138 0 
L 734 2988 
L 359 2981 
L 425 3322 
L 1281 3322 
L 1631 728 
L 2991 3322 
L 3394 3322 
L 3741 728 
z
" transform="scale(0.015625)"/>
      <path id="DejaVuSerif-Italic-6c" d="M 903 331 
L 1447 331 
L 1384 0 
L 266 0 
L 1147 4531 
L 594 4531 
L 656 4863 
L 1784 4863 
L 903 331 
z
" transform="scale(0.015625)"/>
     </defs>
     <use xlink:href="#DejaVuSerif-Italic-53"/>
     <use xlink:href="#DejaVuSerif-Italic-4d" transform="translate(68.505859 0)"/>
     <use xlink:href="#DejaVuSerif-Italic-41" transform="translate(170.898438 0)"/>
     <use xlink:href="#DejaVuSerif-Italic-52" transform="translate(243.115234 0)"/>
     <use xlink:href="#DejaVuSerif-Italic-54" transform="translate(316.658203 0)"/>
     <use xlink:href="#DejaVuSerif-Italic-53" transform="translate(383.357422 0)"/>
     <use xlink:href="#DejaVuSerif-Italic-2d" transform="translate(455.488281 0)"/>
     <use xlink:href="#DejaVuSerif-Italic-61" transform="translate(489.277344 0)"/>
     <use xlink:href="#DejaVuSerif-Italic-77" transform="translate(548.896484 0)"/>
     <use xlink:href="#DejaVuSerif-Italic-61" transform="translate(634.492188 0)"/>
     <use xlink:href="#DejaVuSerif-Italic-72" transform="translate(694.111328 0)"/>
     <use xlink:href="#DejaVuSerif-Italic-65" transform="translate(741.914062 0)"/>
     <use xlink:href="#DejaVuSerif-Italic-20" transform="translate(801.09375 0)"/>
     <use xlink:href="#DejaVuSerif-Italic-6c" transform="translate(832.880859 0)"/>
     <use xlink:href="#DejaVuSerif-Italic-65" transform="translate(864.863281 0)"/>
     <use xlink:href="#DejaVuSerif-Italic-61" transform="translate(924.042969 0)"/>
     <use xlink:href="#DejaVuSerif-Italic-72" transform="translate(983.662109 0)"/>
     <use xlink:href="#DejaVuSerif-Italic-6e" transform="translate(1031.464844 0)"/>
     <use xlink:href="#DejaVuSerif-Italic-65" transform="translate(1095.869141 0)"/>
     <use xlink:href="#DejaVuSerif-Italic-64" transform="translate(1155.048828 0)"/>
    </g>
   </g>
   <g id="text_9">
    <!-- $z_T$ -->
    <g style="fill: #1f2c3a" transform="translate(62.549 236.029921) scale(0.115 -0.115)">
     <defs>
      <path id="DejaVuSans-Oblique-7a" d="M 744 3500 
L 3475 3500 
L 3372 2975 
L 738 459 
L 2913 459 
L 2822 0 
L -19 0 
L 84 525 
L 2719 3041 
L 653 3041 
L 744 3500 
z
" transform="scale(0.015625)"/>
      <path id="DejaVuSans-Oblique-54" d="M 378 4666 
L 4325 4666 
L 4225 4134 
L 2559 4134 
L 1759 0 
L 1125 0 
L 1925 4134 
L 275 4134 
L 378 4666 
z
" transform="scale(0.015625)"/>
     </defs>
     <use xlink:href="#DejaVuSans-Oblique-7a" transform="translate(0 0.3125)"/>
     <use xlink:href="#DejaVuSans-Oblique-54" transform="translate(52.490234 -16.09375) scale(0.7)"/>
    </g>
   </g>
   <g id="text_10">
    <!-- $\mathcal{N}(0, I_{1024})$ -->
    <g style="fill: #5a6a7a" transform="translate(45.729 253.135721) scale(0.09 -0.09)">
     <defs>
      <path id="STIXNonUnicode-Italic-e23a" d="M 4294 800 
L 4301 800 
Q 5293 4070 5408 4378 
Q 5472 4538 5523 4614 
Q 5830 5088 6253 5088 
Q 6490 5088 6650 4931 
Q 6810 4774 6810 4550 
Q 6810 4378 6720 4272 
Q 6630 4166 6470 4166 
Q 6368 4166 6297 4224 
Q 6227 4282 6198 4349 
Q 6170 4416 6118 4473 
Q 6067 4531 6003 4531 
Q 5939 4531 5881 4508 
Q 5824 4486 5785 4457 
Q 5747 4429 5705 4371 
Q 5664 4314 5638 4275 
Q 5613 4237 5584 4163 
Q 5555 4090 5545 4058 
Q 5536 4026 5510 3952 
Q 5485 3878 5485 3866 
L 4262 -154 
L 4134 -154 
Q 3078 1280 2483 2893 
L 2470 2893 
Q 2406 2579 2358 2361 
Q 2310 2144 2214 1792 
Q 2118 1440 2028 1190 
Q 1939 941 1804 653 
Q 1670 365 1529 185 
Q 1389 6 1203 -115 
Q 1018 -237 813 -237 
Q 576 -237 416 -80 
Q 256 77 256 301 
Q 256 474 345 579 
Q 435 685 595 685 
Q 698 685 768 627 
Q 838 570 867 502 
Q 896 435 947 377 
Q 998 320 1062 320 
Q 1222 320 1369 480 
Q 1517 640 1638 928 
Q 1760 1216 1862 1542 
Q 1965 1869 2057 2288 
Q 2150 2707 2214 3033 
Q 2278 3360 2348 3741 
Q 2419 4122 2458 4294 
L 2630 4294 
Q 2682 4166 2874 3680 
Q 3066 3194 3142 3008 
Q 3219 2822 3392 2422 
Q 3565 2022 3683 1798 
Q 3802 1574 3968 1292 
Q 4134 1011 4294 800 
z
" transform="scale(0.015625)"/>
      <path id="DejaVuSans-28" d="M 1984 4856 
Q 1566 4138 1362 3434 
Q 1159 2731 1159 2009 
Q 1159 1288 1364 580 
Q 1569 -128 1984 -844 
L 1484 -844 
Q 1016 -109 783 600 
Q 550 1309 550 2009 
Q 550 2706 781 3412 
Q 1013 4119 1484 4856 
L 1984 4856 
z
" transform="scale(0.015625)"/>
      <path id="DejaVuSans-Oblique-49" d="M 1081 4666 
L 1716 4666 
L 806 0 
L 172 0 
L 1081 4666 
z
" transform="scale(0.015625)"/>
      <path id="DejaVuSans-31" d="M 794 531 
L 1825 531 
L 1825 4091 
L 703 3866 
L 703 4441 
L 1819 4666 
L 2450 4666 
L 2450 531 
L 3481 531 
L 3481 0 
L 794 0 
L 794 531 
z
" transform="scale(0.015625)"/>
      <path id="DejaVuSans-32" d="M 1228 531 
L 3431 531 
L 3431 0 
L 469 0 
L 469 531 
Q 828 903 1448 1529 
Q 2069 2156 2228 2338 
Q 2531 2678 2651 2914 
Q 2772 3150 2772 3378 
Q 2772 3750 2511 3984 
Q 2250 4219 1831 4219 
Q 1534 4219 1204 4116 
Q 875 4013 500 3803 
L 500 4441 
Q 881 4594 1212 4672 
Q 1544 4750 1819 4750 
Q 2544 4750 2975 4387 
Q 3406 4025 3406 3419 
Q 3406 3131 3298 2873 
Q 3191 2616 2906 2266 
Q 2828 2175 2409 1742 
Q 1991 1309 1228 531 
z
" transform="scale(0.015625)"/>
      <path id="DejaVuSans-34" d="M 2419 4116 
L 825 1625 
L 2419 1625 
L 2419 4116 
z
M 2253 4666 
L 3047 4666 
L 3047 1625 
L 3713 1625 
L 3713 1100 
L 3047 1100 
L 3047 0 
L 2419 0 
L 2419 1100 
L 313 1100 
L 313 1709 
L 2253 4666 
z
" transform="scale(0.015625)"/>
      <path id="DejaVuSans-29" d="M 513 4856 
L 1013 4856 
Q 1481 4119 1714 3412 
Q 1947 2706 1947 2009 
Q 1947 1309 1714 600 
Q 1481 -109 1013 -844 
L 513 -844 
Q 928 -128 1133 580 
Q 1338 1288 1338 2009 
Q 1338 2731 1133 3434 
Q 928 4138 513 4856 
z
" transform="scale(0.015625)"/>
     </defs>
     <use xlink:href="#STIXNonUnicode-Italic-e23a" transform="translate(0 0.5)"/>
     <use xlink:href="#DejaVuSans-28" transform="translate(95.699982 0.5)"/>
     <use xlink:href="#DejaVuSans-30" transform="translate(134.713654 0.5)"/>
     <use xlink:href="#DejaVuSans-2c" transform="translate(198.3367 0.5)"/>
     <use xlink:href="#DejaVuSans-Oblique-49" transform="translate(249.606232 0.5)"/>
     <use xlink:href="#DejaVuSans-31" transform="translate(279.098419 -15.90625) scale(0.7)"/>
     <use xlink:href="#DejaVuSans-30" transform="translate(323.634552 -15.90625) scale(0.7)"/>
     <use xlink:href="#DejaVuSans-32" transform="translate(368.170685 -15.90625) scale(0.7)"/>
     <use xlink:href="#DejaVuSans-34" transform="translate(412.706818 -15.90625) scale(0.7)"/>
     <use xlink:href="#DejaVuSans-29" transform="translate(459.977325 0.5)"/>
    </g>
   </g>
   <g id="text_11">
    <!-- DDIM denoise -->
    <g style="fill: #1f2c3a" transform="translate(252.456758 235.032001) scale(0.115 -0.115)">
     <defs>
      <path id="DejaVuSerif-Bold-44" d="M 2100 378 
L 2534 378 
Q 3266 378 3605 847 
Q 3944 1316 3944 2338 
Q 3944 3353 3606 3820 
Q 3269 4288 2534 4288 
L 2100 4288 
L 2100 378 
z
M 300 0 
L 300 378 
L 897 378 
L 897 4288 
L 300 4288 
L 300 4666 
L 2694 4666 
Q 3950 4666 4615 4066 
Q 5281 3466 5281 2338 
Q 5281 1203 4614 601 
Q 3947 0 2694 0 
L 300 0 
z
" transform="scale(0.015625)"/>
      <path id="DejaVuSerif-Bold-49" d="M 300 0 
L 300 378 
L 897 378 
L 897 4288 
L 300 4288 
L 300 4666 
L 2700 4666 
L 2700 4288 
L 2100 4288 
L 2100 378 
L 2700 378 
L 2700 0 
L 300 0 
z
" transform="scale(0.015625)"/>
      <path id="DejaVuSerif-Bold-4d" d="M 269 0 
L 269 378 
L 863 378 
L 863 4288 
L 269 4288 
L 269 4666 
L 2194 4666 
L 3525 1672 
L 4863 4666 
L 6784 4666 
L 6784 4288 
L 6188 4288 
L 6188 378 
L 6784 378 
L 6784 0 
L 4384 0 
L 4384 378 
L 4978 378 
L 4978 3938 
L 3531 684 
L 2741 684 
L 1300 3938 
L 1300 378 
L 1894 378 
L 1894 0 
L 269 0 
z
" transform="scale(0.015625)"/>
      <path id="DejaVuSerif-Bold-20" transform="scale(0.015625)"/>
     </defs>
     <use xlink:href="#DejaVuSerif-Bold-44"/>
     <use xlink:href="#DejaVuSerif-Bold-44" transform="translate(86.71875 0)"/>
     <use xlink:href="#DejaVuSerif-Bold-49" transform="translate(173.4375 0)"/>
     <use xlink:href="#DejaVuSerif-Bold-4d" transform="translate(220.214844 0)"/>
     <use xlink:href="#DejaVuSerif-Bold-20" transform="translate(330.908203 0)"/>
     <use xlink:href="#DejaVuSerif-Bold-64" transform="translate(365.722656 0)"/>
     <use xlink:href="#DejaVuSerif-Bold-65" transform="translate(435.644531 0)"/>
     <use xlink:href="#DejaVuSerif-Bold-6e" transform="translate(499.267578 0)"/>
     <use xlink:href="#DejaVuSerif-Bold-6f" transform="translate(571.972656 0)"/>
     <use xlink:href="#DejaVuSerif-Bold-69" transform="translate(638.671875 0)"/>
     <use xlink:href="#DejaVuSerif-Bold-73" transform="translate(676.660156 0)"/>
     <use xlink:href="#DejaVuSerif-Bold-65" transform="translate(732.958984 0)"/>
    </g>
   </g>
   <g id="text_12">
    <!-- $t = T \to 1$ (40 steps) -->
    <g style="fill: #5a6a7a" transform="translate(255.735 254.29212) scale(0.09 -0.09)">
     <defs>
      <path id="DejaVuSans-Oblique-74" d="M 2706 3500 
L 2619 3053 
L 1472 3053 
L 1100 1153 
Q 1081 1047 1072 975 
Q 1063 903 1063 863 
Q 1063 663 1183 572 
Q 1303 481 1569 481 
L 2150 481 
L 2053 0 
L 1503 0 
Q 991 0 739 200 
Q 488 400 488 806 
Q 488 878 497 964 
Q 506 1050 525 1153 
L 897 3053 
L 409 3053 
L 500 3500 
L 978 3500 
L 1172 4494 
L 1747 4494 
L 1556 3500 
L 2706 3500 
z
" transform="scale(0.015625)"/>
      <path id="DejaVuSans-3d" d="M 678 2906 
L 4684 2906 
L 4684 2381 
L 678 2381 
L 678 2906 
z
M 678 1631 
L 4684 1631 
L 4684 1100 
L 678 1100 
L 678 1631 
z
" transform="scale(0.015625)"/>
      <path id="DejaVuSans-2192" d="M 5050 2147 
L 5050 1866 
L 3822 638 
L 3447 1013 
L 4175 1741 
L 366 1741 
L 366 2272 
L 4175 2272 
L 3447 3000 
L 3822 3375 
L 5050 2147 
z
" transform="scale(0.015625)"/>
      <path id="DejaVuSerif-Italic-28" d="M 1472 -997 
Q 778 -656 534 83 
Q 291 822 506 1931 
Q 722 3044 1253 3783 
Q 1784 4522 2609 4863 
L 2550 4556 
Q 2006 4225 1679 3623 
Q 1353 3022 1141 1931 
Q 928 844 1020 242 
Q 1113 -359 1531 -691 
L 1472 -997 
z
" transform="scale(0.015625)"/>
      <path id="DejaVuSerif-Italic-34" d="M 2084 1581 
L 2566 4063 
L 491 1581 
L 2084 1581 
z
M 3150 0 
L 1025 0 
L 1091 331 
L 1841 331 
L 2019 1247 
L -19 1247 
L 47 1588 
L 2706 4750 
L 3325 4750 
L 2709 1581 
L 3600 1581 
L 3534 1247 
L 2644 1247 
L 2466 331 
L 3216 331 
L 3150 0 
z
" transform="scale(0.015625)"/>
      <path id="DejaVuSerif-Italic-30" d="M 1011 744 
Q 1147 219 1625 219 
Q 2103 219 2442 744 
Q 2781 1269 2988 2328 
Q 3194 3391 3058 3916 
Q 2922 4441 2444 4441 
Q 1966 4441 1627 3916 
Q 1288 3391 1081 2328 
Q 875 1269 1011 744 
z
M 1563 -91 
Q 803 -91 501 546 
Q 200 1184 422 2328 
Q 644 3475 1195 4112 
Q 1747 4750 2506 4750 
Q 3269 4750 3569 4112 
Q 3869 3475 3647 2328 
Q 3425 1184 2875 546 
Q 2325 -91 1563 -91 
z
" transform="scale(0.015625)"/>
      <path id="DejaVuSerif-Italic-70" d="M 1466 1825 
L 1400 1497 
Q 1353 1250 1353 1053 
Q 1353 769 1453 581 
Q 1622 269 2059 269 
Q 2500 269 2795 622 
Q 3091 975 3225 1663 
Q 3284 1978 3284 2225 
Q 3284 2513 3200 2703 
Q 3041 3053 2600 3053 
Q 2163 3053 1872 2737 
Q 1581 2422 1466 1825 
z
M 1116 2988 
L 563 2988 
L 628 3322 
L 1756 3322 
L 1656 2803 
Q 1884 3116 2175 3264 
Q 2466 3413 2850 3413 
Q 3463 3413 3753 2928 
Q 3947 2609 3947 2163 
Q 3947 1928 3897 1663 
Q 3744 881 3262 395 
Q 2781 -91 2169 -91 
Q 1784 -91 1551 57 
Q 1319 206 1213 519 
L 850 -1331 
L 275 -1331 
L 1116 2988 
z
" transform="scale(0.015625)"/>
      <path id="DejaVuSerif-Italic-29" d="M -113 -997 
L -53 -691 
Q 491 -359 819 242 
Q 1147 844 1359 1931 
Q 1572 3022 1478 3623 
Q 1384 4225 966 4556 
L 1025 4863 
Q 1722 4522 1965 3783 
Q 2209 3044 1994 1931 
Q 1778 822 1247 83 
Q 716 -656 -113 -997 
z
" transform="scale(0.015625)"/>
     </defs>
     <use xlink:href="#DejaVuSans-Oblique-74" transform="translate(0 0.015625)"/>
     <use xlink:href="#DejaVuSans-3d" transform="translate(58.691406 0.015625)"/>
     <use xlink:href="#DejaVuSans-Oblique-54" transform="translate(161.962891 0.015625)"/>
     <use xlink:href="#DejaVuSans-2192" transform="translate(242.529297 0.015625)"/>
     <use xlink:href="#DejaVuSans-31" transform="translate(345.800781 0.015625)"/>
     <use xlink:href="#DejaVuSerif-Italic-20" transform="translate(409.423828 0.015625)"/>
     <use xlink:href="#DejaVuSerif-Italic-28" transform="translate(441.210938 0.015625)"/>
     <use xlink:href="#DejaVuSerif-Italic-34" transform="translate(480.224609 0.015625)"/>
     <use xlink:href="#DejaVuSerif-Italic-30" transform="translate(543.847656 0.015625)"/>
     <use xlink:href="#DejaVuSerif-Italic-20" transform="translate(607.470703 0.015625)"/>
     <use xlink:href="#DejaVuSerif-Italic-73" transform="translate(639.257812 0.015625)"/>
     <use xlink:href="#DejaVuSerif-Italic-74" transform="translate(690.576172 0.015625)"/>
     <use xlink:href="#DejaVuSerif-Italic-65" transform="translate(730.761719 0.015625)"/>
     <use xlink:href="#DejaVuSerif-Italic-70" transform="translate(789.941406 0.015625)"/>
     <use xlink:href="#DejaVuSerif-Italic-73" transform="translate(853.955078 0.015625)"/>
     <use xlink:href="#DejaVuSerif-Italic-29" transform="translate(905.273438 0.015625)"/>
    </g>
   </g>
   <g id="text_13">
    <!-- $z_0$ -->
    <g style="fill: #1f2c3a" transform="translate(539.218 236.029921) scale(0.115 -0.115)">
     <use xlink:href="#DejaVuSans-Oblique-7a" transform="translate(0 0.3125)"/>
     <use xlink:href="#DejaVuSans-30" transform="translate(52.490234 -16.09375) scale(0.7)"/>
    </g>
   </g>
   <g id="text_14">
    <!-- denoised latent -->
    <g style="fill: #5a6a7a" transform="translate(509.792766 253.080877) scale(0.09 -0.09)">
     <defs>
      <path id="DejaVuSerif-Italic-69" d="M 1009 4353 
Q 1038 4497 1163 4603 
Q 1288 4709 1434 4709 
Q 1578 4709 1663 4603 
Q 1728 4522 1728 4422 
Q 1728 4388 1719 4353 
Q 1691 4206 1567 4103 
Q 1444 4000 1297 4000 
Q 1150 4000 1066 4103 
Q 1003 4181 1003 4281 
Q 1003 4316 1009 4353 
z
M 963 331 
L 1506 331 
L 1444 0 
L 325 0 
L 903 2988 
L 353 2988 
L 419 3322 
L 1544 3322 
L 963 331 
z
" transform="scale(0.015625)"/>
     </defs>
     <use xlink:href="#DejaVuSerif-Italic-64"/>
     <use xlink:href="#DejaVuSerif-Italic-65" transform="translate(64.013672 0)"/>
     <use xlink:href="#DejaVuSerif-Italic-6e" transform="translate(123.193359 0)"/>
     <use xlink:href="#DejaVuSerif-Italic-6f" transform="translate(187.597656 0)"/>
     <use xlink:href="#DejaVuSerif-Italic-69" transform="translate(247.802734 0)"/>
     <use xlink:href="#DejaVuSerif-Italic-73" transform="translate(279.785156 0)"/>
     <use xlink:href="#DejaVuSerif-Italic-65" transform="translate(331.103516 0)"/>
     <use xlink:href="#DejaVuSerif-Italic-64" transform="translate(390.283203 0)"/>
     <use xlink:href="#DejaVuSerif-Italic-20" transform="translate(454.296875 0)"/>
     <use xlink:href="#DejaVuSerif-Italic-6c" transform="translate(486.083984 0)"/>
     <use xlink:href="#DejaVuSerif-Italic-61" transform="translate(518.066406 0)"/>
     <use xlink:href="#DejaVuSerif-Italic-74" transform="translate(577.685547 0)"/>
     <use xlink:href="#DejaVuSerif-Italic-65" transform="translate(617.871094 0)"/>
     <use xlink:href="#DejaVuSerif-Italic-6e" transform="translate(677.050781 0)"/>
     <use xlink:href="#DejaVuSerif-Italic-74" transform="translate(741.455078 0)"/>
    </g>
   </g>
   <g id="text_15">
    <!-- $\sum_h s_h\,\nabla_{z_t}\log p_h(c\!\mid\!z_t)$ -->
    <g style="fill: #b88a25" transform="translate(306.576 192.425) scale(0.095 -0.095)">
     <defs>
      <path id="DejaVuSansDisplay-2211" d="M 244 6509 
L 5803 6509 
L 5803 5656 
L 1566 5656 
L 4534 2488 
L 1469 -888 
L 5919 -888 
L 5919 -1738 
L 109 -1738 
L 109 -1078 
L 3316 2463 
L 244 5728 
L 244 6509 
z
" transform="scale(0.015625)"/>
      <path id="DejaVuSans-Oblique-73" d="M 3200 3397 
L 3091 2853 
Q 2863 2978 2609 3040 
Q 2356 3103 2088 3103 
Q 1634 3103 1373 2948 
Q 1113 2794 1113 2528 
Q 1113 2219 1719 2053 
Q 1766 2041 1788 2034 
L 1972 1978 
Q 2547 1819 2739 1644 
Q 2931 1469 2931 1166 
Q 2931 609 2489 259 
Q 2047 -91 1331 -91 
Q 1053 -91 747 -37 
Q 441 16 72 128 
L 184 722 
Q 500 559 806 475 
Q 1113 391 1394 391 
Q 1816 391 2080 572 
Q 2344 753 2344 1031 
Q 2344 1331 1650 1516 
L 1591 1531 
L 1394 1581 
Q 956 1697 753 1886 
Q 550 2075 550 2369 
Q 550 2928 970 3256 
Q 1391 3584 2113 3584 
Q 2397 3584 2667 3537 
Q 2938 3491 3200 3397 
z
" transform="scale(0.015625)"/>
      <path id="DejaVuSans-2207" d="M 2138 659 
L 3444 4047 
L 831 4047 
L 2138 659 
z
M 1791 0 
L -19 4603 
L 4300 4603 
L 2491 0 
L 1791 0 
z
" transform="scale(0.015625)"/>
      <path id="DejaVuSans-6c" d="M 603 4863 
L 1178 4863 
L 1178 0 
L 603 0 
L 603 4863 
z
" transform="scale(0.015625)"/>
      <path id="DejaVuSans-6f" d="M 1959 3097 
Q 1497 3097 1228 2736 
Q 959 2375 959 1747 
Q 959 1119 1226 758 
Q 1494 397 1959 397 
Q 2419 397 2687 759 
Q 2956 1122 2956 1747 
Q 2956 2369 2687 2733 
Q 2419 3097 1959 3097 
z
M 1959 3584 
Q 2709 3584 3137 3096 
Q 3566 2609 3566 1747 
Q 3566 888 3137 398 
Q 2709 -91 1959 -91 
Q 1206 -91 779 398 
Q 353 888 353 1747 
Q 353 2609 779 3096 
Q 1206 3584 1959 3584 
z
" transform="scale(0.015625)"/>
      <path id="DejaVuSans-67" d="M 2906 1791 
Q 2906 2416 2648 2759 
Q 2391 3103 1925 3103 
Q 1463 3103 1205 2759 
Q 947 2416 947 1791 
Q 947 1169 1205 825 
Q 1463 481 1925 481 
Q 2391 481 2648 825 
Q 2906 1169 2906 1791 
z
M 3481 434 
Q 3481 -459 3084 -895 
Q 2688 -1331 1869 -1331 
Q 1566 -1331 1297 -1286 
Q 1028 -1241 775 -1147 
L 775 -588 
Q 1028 -725 1275 -790 
Q 1522 -856 1778 -856 
Q 2344 -856 2625 -561 
Q 2906 -266 2906 331 
L 2906 616 
Q 2728 306 2450 153 
Q 2172 0 1784 0 
Q 1141 0 747 490 
Q 353 981 353 1791 
Q 353 2603 747 3093 
Q 1141 3584 1784 3584 
Q 2172 3584 2450 3431 
Q 2728 3278 2906 2969 
L 2906 3500 
L 3481 3500 
L 3481 434 
z
" transform="scale(0.015625)"/>
      <path id="DejaVuSans-Oblique-70" d="M 3175 2156 
Q 3175 2616 2975 2859 
Q 2775 3103 2400 3103 
Q 2144 3103 1911 2972 
Q 1678 2841 1497 2591 
Q 1319 2344 1212 1994 
Q 1106 1644 1106 1300 
Q 1106 863 1306 627 
Q 1506 391 1875 391 
Q 2147 391 2380 519 
Q 2613 647 2778 891 
Q 2956 1147 3065 1494 
Q 3175 1841 3175 2156 
z
M 1394 2969 
Q 1625 3272 1939 3428 
Q 2253 3584 2638 3584 
Q 3175 3584 3472 3232 
Q 3769 2881 3769 2247 
Q 3769 1728 3584 1258 
Q 3400 788 3053 416 
Q 2822 169 2531 39 
Q 2241 -91 1919 -91 
Q 1547 -91 1294 64 
Q 1041 219 916 525 
L 556 -1331 
L -19 -1331 
L 922 3500 
L 1497 3500 
L 1394 2969 
z
" transform="scale(0.015625)"/>
      <path id="DejaVuSans-Oblique-63" d="M 3431 3366 
L 3316 2797 
Q 3109 2947 2876 3022 
Q 2644 3097 2394 3097 
Q 2119 3097 1870 3000 
Q 1622 2903 1453 2725 
Q 1184 2453 1037 2087 
Q 891 1722 891 1331 
Q 891 859 1127 628 
Q 1363 397 1844 397 
Q 2081 397 2348 469 
Q 2616 541 2906 684 
L 2797 116 
Q 2547 13 2283 -39 
Q 2019 -91 1741 -91 
Q 1044 -91 669 257 
Q 294 606 294 1253 
Q 294 1797 489 2255 
Q 684 2713 1069 3078 
Q 1331 3328 1684 3456 
Q 2038 3584 2456 3584 
Q 2700 3584 2940 3529 
Q 3181 3475 3431 3366 
z
" transform="scale(0.015625)"/>
      <path id="DejaVuSans-2223" d="M 1350 4934 
L 1850 4934 
L 1850 -1369 
L 1350 -1369 
L 1350 4934 
z
" transform="scale(0.015625)"/>
     </defs>
     <use xlink:href="#DejaVuSansDisplay-2211" transform="translate(0 0.296875)"/>
     <use xlink:href="#DejaVuSans-Oblique-68" transform="translate(27 -98.798438) scale(0.7)"/>
     <use xlink:href="#DejaVuSans-Oblique-73" transform="translate(90.765625 0.296875)"/>
     <use xlink:href="#DejaVuSans-Oblique-68" transform="translate(142.865234 -16.109375) scale(0.7)"/>
     <use xlink:href="#DejaVuSans-2207" transform="translate(206.20052 0.296875)"/>
     <use xlink:href="#DejaVuSans-Oblique-7a" transform="translate(274.052083 -16.109375) scale(0.7)"/>
     <use xlink:href="#DejaVuSans-Oblique-74" transform="translate(310.795247 -27.59375) scale(0.49)"/>
     <use xlink:href="#DejaVuSans-6c" transform="translate(334.656086 0.296875)"/>
     <use xlink:href="#DejaVuSans-6f" transform="translate(362.43929 0.296875)"/>
     <use xlink:href="#DejaVuSans-67" transform="translate(423.62093 0.296875)"/>
     <use xlink:href="#DejaVuSans-Oblique-70" transform="translate(503.333169 0.296875)"/>
     <use xlink:href="#DejaVuSans-Oblique-68" transform="translate(566.809731 -16.109375) scale(0.7)"/>
     <use xlink:href="#DejaVuSans-28" transform="translate(613.909341 0.296875)"/>
     <use xlink:href="#DejaVuSans-Oblique-63" transform="translate(652.923013 0.296875)"/>
     <use xlink:href="#DejaVuSans-2223" transform="translate(711.150227 0.296875)"/>
     <use xlink:href="#DejaVuSans-Oblique-7a" transform="translate(764.396973 0.296875)"/>
     <use xlink:href="#DejaVuSans-Oblique-74" transform="translate(816.887207 -16.109375) scale(0.7)"/>
     <use xlink:href="#DejaVuSans-29" transform="translate(847.067871 0.296875)"/>
    </g>
   </g>
   <g id="text_16">
    <!-- FOUR CLASSIFIER-GUIDANCE HEADS -->
    <g style="fill: #8a9aaa" transform="translate(18.288 86.539875) scale(0.084 -0.084)">
     <defs>
      <path id="DejaVuSerif-Bold-46" d="M 300 0 
L 300 378 
L 897 378 
L 897 4288 
L 300 4288 
L 300 4666 
L 4459 4666 
L 4459 3566 
L 4031 3566 
L 4031 4238 
L 2106 4238 
L 2106 2741 
L 3291 2741 
L 3291 3334 
L 3719 3334 
L 3719 1722 
L 3291 1722 
L 3291 2316 
L 2106 2316 
L 2106 378 
L 2841 378 
L 2841 0 
L 300 0 
z
" transform="scale(0.015625)"/>
      <path id="DejaVuSerif-Bold-4f" d="M 2784 288 
Q 3381 288 3672 791 
Q 3963 1294 3963 2328 
Q 3963 3366 3672 3869 
Q 3381 4372 2784 4372 
Q 2191 4372 1898 3864 
Q 1606 3356 1606 2328 
Q 1606 1303 1898 795 
Q 2191 288 2784 288 
z
M 2784 -91 
Q 1606 -91 937 553 
Q 269 1197 269 2328 
Q 269 3459 939 4104 
Q 1609 4750 2784 4750 
Q 3963 4750 4631 4106 
Q 5300 3463 5300 2328 
Q 5300 1197 4629 553 
Q 3959 -91 2784 -91 
z
" transform="scale(0.015625)"/>
      <path id="DejaVuSerif-Bold-55" d="M 813 4288 
L 219 4288 
L 219 4666 
L 2619 4666 
L 2619 4288 
L 2022 4288 
L 2022 1953 
Q 2022 1081 2294 732 
Q 2566 384 3225 384 
Q 3869 384 4139 736 
Q 4409 1088 4409 1953 
L 4409 4288 
L 3816 4288 
L 3816 4666 
L 5441 4666 
L 5441 4288 
L 4844 4288 
L 4844 1888 
Q 4844 819 4381 364 
Q 3919 -91 2828 -91 
Q 1744 -91 1278 368 
Q 813 828 813 1894 
L 813 4288 
z
" transform="scale(0.015625)"/>
      <path id="DejaVuSerif-Bold-52" d="M 3397 2278 
Q 3675 2238 3865 2094 
Q 4056 1950 4197 1678 
L 4878 378 
L 5356 378 
L 5356 0 
L 3822 0 
L 3078 1409 
Q 2863 1847 2711 1967 
Q 2559 2088 2291 2088 
L 2100 2088 
L 2100 378 
L 2700 378 
L 2700 0 
L 300 0 
L 300 378 
L 897 378 
L 897 4288 
L 300 4288 
L 300 4666 
L 2963 4666 
Q 3775 4666 4217 4339 
Q 4659 4013 4659 3413 
Q 4659 2925 4345 2642 
Q 4031 2359 3397 2278 
z
M 2100 2463 
L 2509 2463 
Q 2947 2463 3183 2700 
Q 3419 2938 3419 3378 
Q 3419 3819 3183 4053 
Q 2947 4288 2509 4288 
L 2100 4288 
L 2100 2463 
z
" transform="scale(0.015625)"/>
      <path id="DejaVuSerif-Bold-43" d="M 4769 1331 
Q 4584 609 4106 259 
Q 3628 -91 2822 -91 
Q 1641 -91 955 561 
Q 269 1213 269 2328 
Q 269 3447 955 4098 
Q 1641 4750 2822 4750 
Q 3238 4750 3688 4650 
Q 4138 4550 4641 4347 
L 4641 3200 
L 4244 3200 
Q 4122 3788 3800 4080 
Q 3478 4372 2950 4372 
Q 2269 4372 1937 3870 
Q 1606 3369 1606 2328 
Q 1606 1288 1937 788 
Q 2269 288 2956 288 
Q 3422 288 3717 547 
Q 4013 806 4147 1331 
L 4769 1331 
z
" transform="scale(0.015625)"/>
      <path id="DejaVuSerif-Bold-4c" d="M 300 0 
L 300 378 
L 897 378 
L 897 4288 
L 300 4288 
L 300 4666 
L 2700 4666 
L 2700 4288 
L 2100 4288 
L 2100 428 
L 3938 428 
L 3938 1166 
L 4359 1166 
L 4359 0 
L 300 0 
z
" transform="scale(0.015625)"/>
      <path id="DejaVuSerif-Bold-41" d="M -50 0 
L -50 378 
L 331 378 
L 2088 4666 
L 2834 4666 
L 4594 378 
L 5038 378 
L 5038 0 
L 2853 0 
L 2853 378 
L 3309 378 
L 2925 1331 
L 1172 1331 
L 781 378 
L 1338 378 
L 1338 0 
L -50 0 
z
M 1325 1709 
L 2772 1709 
L 2053 3494 
L 1325 1709 
z
" transform="scale(0.015625)"/>
      <path id="DejaVuSerif-Bold-45" d="M 300 0 
L 300 378 
L 897 378 
L 897 4288 
L 300 4288 
L 300 4666 
L 4494 4666 
L 4494 3566 
L 4063 3566 
L 4063 4238 
L 2100 4238 
L 2100 2741 
L 3322 2741 
L 3322 3334 
L 3750 3334 
L 3750 1722 
L 3322 1722 
L 3322 2316 
L 2100 2316 
L 2100 428 
L 4122 428 
L 4122 1100 
L 4550 1100 
L 4550 0 
L 300 0 
z
" transform="scale(0.015625)"/>
      <path id="DejaVuSerif-Bold-2d" d="M 347 2138 
L 2309 2138 
L 2309 1294 
L 347 1294 
L 347 2138 
z
" transform="scale(0.015625)"/>
      <path id="DejaVuSerif-Bold-47" d="M 4403 3200 
Q 4263 3819 3934 4095 
Q 3606 4372 3009 4372 
Q 2284 4372 1945 3880 
Q 1606 3388 1606 2328 
Q 1606 1278 1931 783 
Q 2256 288 2944 288 
Q 3206 288 3431 347 
Q 3656 406 3841 525 
L 3841 1806 
L 3278 1806 
L 3278 2181 
L 4959 2181 
L 4959 391 
Q 4434 147 3911 28 
Q 3388 -91 2841 -91 
Q 1641 -91 955 556 
Q 269 1203 269 2328 
Q 269 3456 955 4103 
Q 1641 4750 2841 4750 
Q 3341 4750 3825 4650 
Q 4309 4550 4800 4347 
L 4800 3200 
L 4403 3200 
z
" transform="scale(0.015625)"/>
      <path id="DejaVuSerif-Bold-4e" d="M 281 0 
L 281 378 
L 878 378 
L 878 4288 
L 281 4288 
L 281 4666 
L 1741 4666 
L 4556 1363 
L 4556 4288 
L 3963 4288 
L 3963 4666 
L 5594 4666 
L 5594 4288 
L 4997 4288 
L 4997 0 
L 4178 0 
L 1319 3372 
L 1319 378 
L 1913 378 
L 1913 0 
L 281 0 
z
" transform="scale(0.015625)"/>
     </defs>
     <use xlink:href="#DejaVuSerif-Bold-46"/>
     <use xlink:href="#DejaVuSerif-Bold-4f" transform="translate(70.996094 0)"/>
     <use xlink:href="#DejaVuSerif-Bold-55" transform="translate(158.105469 0)"/>
     <use xlink:href="#DejaVuSerif-Bold-52" transform="translate(245.3125 0)"/>
     <use xlink:href="#DejaVuSerif-Bold-20" transform="translate(328.417969 0)"/>
     <use xlink:href="#DejaVuSerif-Bold-43" transform="translate(363.232422 0)"/>
     <use xlink:href="#DejaVuSerif-Bold-4c" transform="translate(442.822266 0)"/>
     <use xlink:href="#DejaVuSerif-Bold-41" transform="translate(513.134766 0)"/>
     <use xlink:href="#DejaVuSerif-Bold-53" transform="translate(590.722656 0)"/>
     <use xlink:href="#DejaVuSerif-Bold-53" transform="translate(660.689453 0)"/>
     <use xlink:href="#DejaVuSerif-Bold-49" transform="translate(732.90625 0)"/>
     <use xlink:href="#DejaVuSerif-Bold-46" transform="translate(779.683594 0)"/>
     <use xlink:href="#DejaVuSerif-Bold-49" transform="translate(850.679688 0)"/>
     <use xlink:href="#DejaVuSerif-Bold-45" transform="translate(897.457031 0)"/>
     <use xlink:href="#DejaVuSerif-Bold-52" transform="translate(973.677734 0)"/>
     <use xlink:href="#DejaVuSerif-Bold-2d" transform="translate(1056.783203 0)"/>
     <use xlink:href="#DejaVuSerif-Bold-47" transform="translate(1098.287109 0)"/>
     <use xlink:href="#DejaVuSerif-Bold-55" transform="translate(1183.6875 0)"/>
     <use xlink:href="#DejaVuSerif-Bold-49" transform="translate(1270.894531 0)"/>
     <use xlink:href="#DejaVuSerif-Bold-44" transform="translate(1317.671875 0)"/>
     <use xlink:href="#DejaVuSerif-Bold-41" transform="translate(1404.390625 0)"/>
     <use xlink:href="#DejaVuSerif-Bold-4e" transform="translate(1481.978516 0)"/>
     <use xlink:href="#DejaVuSerif-Bold-43" transform="translate(1573.384766 0)"/>
     <use xlink:href="#DejaVuSerif-Bold-45" transform="translate(1652.974609 0)"/>
     <use xlink:href="#DejaVuSerif-Bold-20" transform="translate(1729.195312 0)"/>
     <use xlink:href="#DejaVuSerif-Bold-48" transform="translate(1764.009766 0)"/>
     <use xlink:href="#DejaVuSerif-Bold-45" transform="translate(1858.492188 0)"/>
     <use xlink:href="#DejaVuSerif-Bold-41" transform="translate(1934.712891 0)"/>
     <use xlink:href="#DejaVuSerif-Bold-44" transform="translate(2012.300781 0)"/>
     <use xlink:href="#DejaVuSerif-Bold-53" transform="translate(2099.019531 0)"/>
    </g>
   </g>
   <g id="text_17">
    <!-- DDIM with $n=40$ steps; conditioning $c=(p_\mathrm{target},\,m=\mathbf{1})$.  per-head scales $s_h$ in Appendix C. -->
    <g style="fill: #8a9aaa" transform="translate(18.288 314.802) scale(0.084 -0.084)">
     <defs>
      <path id="DejaVuSerif-Italic-44" d="M 1194 331 
L 1775 331 
Q 2684 331 3271 850 
Q 3859 1369 4048 2337 
Q 4238 3306 3852 3818 
Q 3466 4331 2553 4331 
L 1972 4331 
L 1194 331 
z
M -97 0 
L -34 331 
L 559 331 
L 1338 4331 
L 744 4331 
L 809 4666 
L 2666 4666 
Q 3872 4666 4426 4050 
Q 4981 3434 4766 2338 
Q 4553 1238 3758 619 
Q 2963 0 1759 0 
L -97 0 
z
" transform="scale(0.015625)"/>
      <path id="DejaVuSerif-Italic-49" d="M 1194 331 
L 1788 331 
L 1725 0 
L -97 0 
L -34 331 
L 559 331 
L 1338 4331 
L 744 4331 
L 809 4666 
L 2631 4666 
L 2566 4331 
L 1972 4331 
L 1194 331 
z
" transform="scale(0.015625)"/>
      <path id="DejaVuSans-Oblique-6e" d="M 3566 2113 
L 3156 0 
L 2578 0 
L 2988 2091 
Q 3016 2238 3031 2350 
Q 3047 2463 3047 2528 
Q 3047 2791 2881 2937 
Q 2716 3084 2419 3084 
Q 1956 3084 1622 2776 
Q 1288 2469 1184 1941 
L 800 0 
L 225 0 
L 903 3500 
L 1478 3500 
L 1363 2950 
Q 1603 3253 1940 3418 
Q 2278 3584 2650 3584 
Q 3113 3584 3367 3334 
Q 3622 3084 3622 2631 
Q 3622 2519 3608 2391 
Q 3594 2263 3566 2113 
z
" transform="scale(0.015625)"/>
      <path id="DejaVuSerif-Italic-3b" d="M -72 -622 
Q 263 -406 458 -114 
Q 653 178 734 594 
L 756 709 
L 1372 709 
Q 1244 175 942 -208 
Q 641 -591 128 -872 
L -72 -622 
z
M 1019 2067 
Q 922 2188 956 2363 
Q 991 2538 1134 2658 
Q 1278 2778 1453 2778 
Q 1628 2778 1723 2656 
Q 1819 2534 1788 2363 
Q 1753 2188 1609 2067 
Q 1466 1947 1291 1947 
Q 1116 1947 1019 2067 
z
" transform="scale(0.015625)"/>
      <path id="DejaVuSerif-Italic-63" d="M 3163 997 
Q 2938 466 2536 187 
Q 2134 -91 1584 -91 
Q 859 -91 513 388 
Q 272 722 272 1203 
Q 272 1419 319 1663 
Q 475 2459 1008 2936 
Q 1541 3413 2266 3413 
Q 2581 3413 2879 3339 
Q 3178 3266 3463 3116 
L 3300 2266 
L 2966 2266 
Q 2966 2309 2966 2347 
Q 2966 2722 2803 2903 
Q 2622 3103 2213 3103 
Q 1747 3103 1439 2742 
Q 1131 2381 991 1663 
Q 928 1334 928 1078 
Q 928 778 1016 581 
Q 1181 219 1650 219 
Q 2022 219 2281 412 
Q 2541 606 2700 997 
L 3163 997 
z
" transform="scale(0.015625)"/>
      <path id="DejaVuSans-74" d="M 1172 4494 
L 1172 3500 
L 2356 3500 
L 2356 3053 
L 1172 3053 
L 1172 1153 
Q 1172 725 1289 603 
Q 1406 481 1766 481 
L 2356 481 
L 2356 0 
L 1766 0 
Q 1100 0 847 248 
Q 594 497 594 1153 
L 594 3053 
L 172 3053 
L 172 3500 
L 594 3500 
L 594 4494 
L 1172 4494 
z
" transform="scale(0.015625)"/>
      <path id="DejaVuSans-61" d="M 2194 1759 
Q 1497 1759 1228 1600 
Q 959 1441 959 1056 
Q 959 750 1161 570 
Q 1363 391 1709 391 
Q 2188 391 2477 730 
Q 2766 1069 2766 1631 
L 2766 1759 
L 2194 1759 
z
M 3341 1997 
L 3341 0 
L 2766 0 
L 2766 531 
Q 2569 213 2275 61 
Q 1981 -91 1556 -91 
Q 1019 -91 701 211 
Q 384 513 384 1019 
Q 384 1609 779 1909 
Q 1175 2209 1959 2209 
L 2766 2209 
L 2766 2266 
Q 2766 2663 2505 2880 
Q 2244 3097 1772 3097 
Q 1472 3097 1187 3025 
Q 903 2953 641 2809 
L 641 3341 
Q 956 3463 1253 3523 
Q 1550 3584 1831 3584 
Q 2591 3584 2966 3190 
Q 3341 2797 3341 1997 
z
" transform="scale(0.015625)"/>
      <path id="DejaVuSans-72" d="M 2631 2963 
Q 2534 3019 2420 3045 
Q 2306 3072 2169 3072 
Q 1681 3072 1420 2755 
Q 1159 2438 1159 1844 
L 1159 0 
L 581 0 
L 581 3500 
L 1159 3500 
L 1159 2956 
Q 1341 3275 1631 3429 
Q 1922 3584 2338 3584 
Q 2397 3584 2469 3576 
Q 2541 3569 2628 3553 
L 2631 2963 
z
" transform="scale(0.015625)"/>
      <path id="DejaVuSans-65" d="M 3597 1894 
L 3597 1613 
L 953 1613 
Q 991 1019 1311 708 
Q 1631 397 2203 397 
Q 2534 397 2845 478 
Q 3156 559 3463 722 
L 3463 178 
Q 3153 47 2828 -22 
Q 2503 -91 2169 -91 
Q 1331 -91 842 396 
Q 353 884 353 1716 
Q 353 2575 817 3079 
Q 1281 3584 2069 3584 
Q 2775 3584 3186 3129 
Q 3597 2675 3597 1894 
z
M 3022 2063 
Q 3016 2534 2758 2815 
Q 2500 3097 2075 3097 
Q 1594 3097 1305 2825 
Q 1016 2553 972 2059 
L 3022 2063 
z
" transform="scale(0.015625)"/>
      <path id="DejaVuSans-Oblique-6d" d="M 5747 2113 
L 5338 0 
L 4763 0 
L 5166 2094 
Q 5191 2228 5203 2325 
Q 5216 2422 5216 2491 
Q 5216 2772 5059 2928 
Q 4903 3084 4622 3084 
Q 4203 3084 3875 2770 
Q 3547 2456 3450 1953 
L 3066 0 
L 2491 0 
L 2900 2094 
Q 2925 2209 2937 2307 
Q 2950 2406 2950 2484 
Q 2950 2769 2794 2926 
Q 2638 3084 2363 3084 
Q 1938 3084 1609 2770 
Q 1281 2456 1184 1953 
L 800 0 
L 225 0 
L 909 3500 
L 1484 3500 
L 1375 2956 
Q 1609 3263 1923 3423 
Q 2238 3584 2597 3584 
Q 2978 3584 3223 3384 
Q 3469 3184 3519 2828 
Q 3781 3197 4126 3390 
Q 4472 3584 4856 3584 
Q 5306 3584 5551 3325 
Q 5797 3066 5797 2591 
Q 5797 2488 5784 2364 
Q 5772 2241 5747 2113 
z
" transform="scale(0.015625)"/>
      <path id="DejaVuSans-Bold-31" d="M 750 831 
L 1813 831 
L 1813 3847 
L 722 3622 
L 722 4441 
L 1806 4666 
L 2950 4666 
L 2950 831 
L 4013 831 
L 4013 0 
L 750 0 
L 750 831 
z
" transform="scale(0.015625)"/>
      <path id="DejaVuSerif-Italic-2e" d="M 664 29 
Q 569 150 603 325 
Q 638 500 780 622 
Q 922 744 1100 744 
Q 1272 744 1370 622 
Q 1469 500 1434 325 
Q 1400 153 1254 31 
Q 1109 -91 938 -91 
Q 759 -91 664 29 
z
" transform="scale(0.015625)"/>
      <path id="DejaVuSerif-Italic-78" d="M 409 0 
L 19 0 
L 1484 1594 
L 747 2988 
L 338 2988 
L 400 3322 
L 1244 3322 
L 1934 2028 
L 3125 3322 
L 3516 3322 
L 2078 1759 
L 2838 331 
L 3272 331 
L 3209 0 
L 2338 0 
L 1631 1325 
L 409 0 
z
" transform="scale(0.015625)"/>
      <path id="DejaVuSerif-Italic-43" d="M 4300 1234 
Q 3966 581 3414 245 
Q 2863 -91 2119 -91 
Q 1663 -91 1303 65 
Q 944 222 700 525 
Q 419 875 334 1320 
Q 250 1766 359 2328 
Q 572 3416 1330 4083 
Q 2088 4750 3116 4750 
Q 3497 4750 3908 4650 
Q 4319 4550 4775 4347 
L 4569 3272 
L 4216 3272 
Q 4213 3859 3919 4137 
Q 3625 4416 2997 4416 
Q 2250 4416 1762 3886 
Q 1275 3356 1075 2328 
Q 875 1303 1156 773 
Q 1438 244 2184 244 
Q 2706 244 3092 492 
Q 3478 741 3725 1234 
L 4300 1234 
z
" transform="scale(0.015625)"/>
     </defs>
     <use xlink:href="#DejaVuSerif-Italic-44" transform="translate(0 0.015625)"/>
     <use xlink:href="#DejaVuSerif-Italic-44" transform="translate(80.175781 0.015625)"/>
     <use xlink:href="#DejaVuSerif-Italic-49" transform="translate(160.351562 0.015625)"/>
     <use xlink:href="#DejaVuSerif-Italic-4d" transform="translate(199.853516 0.015625)"/>
     <use xlink:href="#DejaVuSerif-Italic-20" transform="translate(302.246094 0.015625)"/>
     <use xlink:href="#DejaVuSerif-Italic-77" transform="translate(334.033203 0.015625)"/>
     <use xlink:href="#DejaVuSerif-Italic-69" transform="translate(419.628906 0.015625)"/>
     <use xlink:href="#DejaVuSerif-Italic-74" transform="translate(451.611328 0.015625)"/>
     <use xlink:href="#DejaVuSerif-Italic-68" transform="translate(491.796875 0.015625)"/>
     <use xlink:href="#DejaVuSerif-Italic-20" transform="translate(556.201172 0.015625)"/>
     <use xlink:href="#DejaVuSans-Oblique-6e" transform="translate(587.988281 0.015625)"/>
     <use xlink:href="#DejaVuSans-3d" transform="translate(670.849609 0.015625)"/>
     <use xlink:href="#DejaVuSans-34" transform="translate(774.121094 0.015625)"/>
     <use xlink:href="#DejaVuSans-30" transform="translate(837.744141 0.015625)"/>
     <use xlink:href="#DejaVuSerif-Italic-20" transform="translate(901.367188 0.015625)"/>
     <use xlink:href="#DejaVuSerif-Italic-73" transform="translate(933.154297 0.015625)"/>
     <use xlink:href="#DejaVuSerif-Italic-74" transform="translate(984.472656 0.015625)"/>
     <use xlink:href="#DejaVuSerif-Italic-65" transform="translate(1024.658203 0.015625)"/>
     <use xlink:href="#DejaVuSerif-Italic-70" transform="translate(1083.837891 0.015625)"/>
     <use xlink:href="#DejaVuSerif-Italic-73" transform="translate(1147.851562 0.015625)"/>
     <use xlink:href="#DejaVuSerif-Italic-3b" transform="translate(1199.169922 0.015625)"/>
     <use xlink:href="#DejaVuSerif-Italic-20" transform="translate(1232.861328 0.015625)"/>
     <use xlink:href="#DejaVuSerif-Italic-63" transform="translate(1264.648438 0.015625)"/>
     <use xlink:href="#DejaVuSerif-Italic-6f" transform="translate(1320.654297 0.015625)"/>
     <use xlink:href="#DejaVuSerif-Italic-6e" transform="translate(1380.859375 0.015625)"/>
     <use xlink:href="#DejaVuSerif-Italic-64" transform="translate(1445.263672 0.015625)"/>
     <use xlink:href="#DejaVuSerif-Italic-69" transform="translate(1509.277344 0.015625)"/>
     <use xlink:href="#DejaVuSerif-Italic-74" transform="translate(1541.259766 0.015625)"/>
     <use xlink:href="#DejaVuSerif-Italic-69" transform="translate(1581.445312 0.015625)"/>
     <use xlink:href="#DejaVuSerif-Italic-6f" transform="translate(1613.427734 0.015625)"/>
     <use xlink:href="#DejaVuSerif-Italic-6e" transform="translate(1673.632812 0.015625)"/>
     <use xlink:href="#DejaVuSerif-Italic-69" transform="translate(1738.037109 0.015625)"/>
     <use xlink:href="#DejaVuSerif-Italic-6e" transform="translate(1770.019531 0.015625)"/>
     <use xlink:href="#DejaVuSerif-Italic-67" transform="translate(1834.423828 0.015625)"/>
     <use xlink:href="#DejaVuSerif-Italic-20" transform="translate(1898.4375 0.015625)"/>
     <use xlink:href="#DejaVuSans-Oblique-63" transform="translate(1930.224609 0.015625)"/>
     <use xlink:href="#DejaVuSans-3d" transform="translate(2004.6875 0.015625)"/>
     <use xlink:href="#DejaVuSans-28" transform="translate(2107.958984 0.015625)"/>
     <use xlink:href="#DejaVuSans-Oblique-70" transform="translate(2146.972656 0.015625)"/>
     <use xlink:href="#DejaVuSans-74" transform="translate(2210.449219 -16.390625) scale(0.7)"/>
     <use xlink:href="#DejaVuSans-61" transform="translate(2237.895508 -16.390625) scale(0.7)"/>
     <use xlink:href="#DejaVuSans-72" transform="translate(2280.791016 -16.390625) scale(0.7)"/>
     <use xlink:href="#DejaVuSans-67" transform="translate(2309.570312 -16.390625) scale(0.7)"/>
     <use xlink:href="#DejaVuSans-65" transform="translate(2354.003906 -16.390625) scale(0.7)"/>
     <use xlink:href="#DejaVuSans-74" transform="translate(2397.070312 -16.390625) scale(0.7)"/>
     <use xlink:href="#DejaVuSans-2c" transform="translate(2427.250977 0.015625)"/>
     <use xlink:href="#DejaVuSans-Oblique-6d" transform="translate(2494.756184 0.015625)"/>
     <use xlink:href="#DejaVuSans-3d" transform="translate(2611.650715 0.015625)"/>
     <use xlink:href="#DejaVuSans-Bold-31" transform="translate(2714.9222 0.015625)"/>
     <use xlink:href="#DejaVuSans-29" transform="translate(2784.502278 0.015625)"/>
     <use xlink:href="#DejaVuSerif-Italic-2e" transform="translate(2823.51595 0.015625)"/>
     <use xlink:href="#DejaVuSerif-Italic-20" transform="translate(2855.303059 0.015625)"/>
     <use xlink:href="#DejaVuSerif-Italic-20" transform="translate(2887.090168 0.015625)"/>
     <use xlink:href="#DejaVuSerif-Italic-70" transform="translate(2918.877278 0.015625)"/>
     <use xlink:href="#DejaVuSerif-Italic-65" transform="translate(2982.89095 0.015625)"/>
     <use xlink:href="#DejaVuSerif-Italic-72" transform="translate(3042.070637 0.015625)"/>
     <use xlink:href="#DejaVuSerif-Italic-2d" transform="translate(3089.873372 0.015625)"/>
     <use xlink:href="#DejaVuSerif-Italic-68" transform="translate(3123.662434 0.015625)"/>
     <use xlink:href="#DejaVuSerif-Italic-65" transform="translate(3188.066731 0.015625)"/>
     <use xlink:href="#DejaVuSerif-Italic-61" transform="translate(3247.246418 0.015625)"/>
     <use xlink:href="#DejaVuSerif-Italic-64" transform="translate(3306.865559 0.015625)"/>
     <use xlink:href="#DejaVuSerif-Italic-20" transform="translate(3370.879231 0.015625)"/>
     <use xlink:href="#DejaVuSerif-Italic-73" transform="translate(3402.66634 0.015625)"/>
     <use xlink:href="#DejaVuSerif-Italic-63" transform="translate(3453.9847 0.015625)"/>
     <use xlink:href="#DejaVuSerif-Italic-61" transform="translate(3509.990559 0.015625)"/>
     <use xlink:href="#DejaVuSerif-Italic-6c" transform="translate(3569.6097 0.015625)"/>
     <use xlink:href="#DejaVuSerif-Italic-65" transform="translate(3601.592122 0.015625)"/>
     <use xlink:href="#DejaVuSerif-Italic-73" transform="translate(3660.771809 0.015625)"/>
     <use xlink:href="#DejaVuSerif-Italic-20" transform="translate(3712.090168 0.015625)"/>
     <use xlink:href="#DejaVuSans-Oblique-73" transform="translate(3743.877278 0.015625)"/>
     <use xlink:href="#DejaVuSans-Oblique-68" transform="translate(3795.976887 -16.390625) scale(0.7)"/>
     <use xlink:href="#DejaVuSerif-Italic-20" transform="translate(3843.076497 0.015625)"/>
     <use xlink:href="#DejaVuSerif-Italic-69" transform="translate(3874.863606 0.015625)"/>
     <use xlink:href="#DejaVuSerif-Italic-6e" transform="translate(3906.846028 0.015625)"/>
     <use xlink:href="#DejaVuSerif-Italic-20" transform="translate(3971.250325 0.015625)"/>
     <use xlink:href="#DejaVuSerif-Italic-41" transform="translate(4003.037434 0.015625)"/>
     <use xlink:href="#DejaVuSerif-Italic-70" transform="translate(4075.254231 0.015625)"/>
     <use xlink:href="#DejaVuSerif-Italic-70" transform="translate(4139.267903 0.015625)"/>
     <use xlink:href="#DejaVuSerif-Italic-65" transform="translate(4203.281575 0.015625)"/>
     <use xlink:href="#DejaVuSerif-Italic-6e" transform="translate(4262.461262 0.015625)"/>
     <use xlink:href="#DejaVuSerif-Italic-64" transform="translate(4326.865559 0.015625)"/>
     <use xlink:href="#DejaVuSerif-Italic-69" transform="translate(4390.879231 0.015625)"/>
     <use xlink:href="#DejaVuSerif-Italic-78" transform="translate(4422.861653 0.015625)"/>
     <use xlink:href="#DejaVuSerif-Italic-20" transform="translate(4479.258137 0.015625)"/>
     <use xlink:href="#DejaVuSerif-Italic-43" transform="translate(4511.045247 0.015625)"/>
     <use xlink:href="#DejaVuSerif-Italic-2e" transform="translate(4587.558918 0.015625)"/>
    </g>
   </g>
   <g id="patch_16">
    <path d="M 103.1112 240.84 
Q 154.116 240.84 203.108339 240.84 
" style="fill: none; stroke: #27445d; stroke-width: 1.8; stroke-linecap: round"/>
    <path d="M 198.308339 238.44 
L 203.108339 240.84 
L 198.308339 243.24 
z
" style="fill: #27445d; stroke: #27445d; stroke-width: 1.8; stroke-linecap: round"/>
   </g>
   <g id="patch_17">
    <path d="M 391.3992 240.84 
Q 450.72 240.84 508.028339 240.84 
" style="fill: none; stroke: #27445d; stroke-width: 1.8; stroke-linecap: round"/>
    <path d="M 503.228339 238.44 
L 508.028339 240.84 
L 503.228339 243.24 
z
" style="fill: #27445d; stroke: #27445d; stroke-width: 1.8; stroke-linecap: round"/>
   </g>
   <g id="line2d_1">
    <path d="M 131.94 132.732 
L 131.94 168.2136 
" clip-path="url(#p3d180adf9b)" style="fill: none; stroke-dasharray: 5.2,3.9; stroke-dashoffset: 0; stroke: #b88a25; stroke-width: 1.3"/>
   </g>
   <g id="line2d_2">
    <path d="M 242.82 132.732 
L 242.82 168.2136 
" clip-path="url(#p3d180adf9b)" style="fill: none; stroke-dasharray: 5.2,3.9; stroke-dashoffset: 0; stroke: #b88a25; stroke-width: 1.3"/>
   </g>
   <g id="line2d_3">
    <path d="M 353.7 132.732 
L 353.7 168.2136 
" clip-path="url(#p3d180adf9b)" style="fill: none; stroke-dasharray: 5.2,3.9; stroke-dashoffset: 0; stroke: #b88a25; stroke-width: 1.3"/>
   </g>
   <g id="line2d_4">
    <path d="M 464.58 132.732 
L 464.58 168.2136 
" clip-path="url(#p3d180adf9b)" style="fill: none; stroke-dasharray: 5.2,3.9; stroke-dashoffset: 0; stroke: #b88a25; stroke-width: 1.3"/>
   </g>
   <g id="line2d_5">
    <path d="M 131.94 168.768 
L 464.58 168.768 
" clip-path="url(#p3d180adf9b)" style="fill: none; stroke: #b88a25; stroke-width: 2; stroke-linecap: square"/>
   </g>
   <g id="line2d_6">
    <path d="M 298.26 168.768 
L 298.26 169.3224 
" clip-path="url(#p3d180adf9b)" style="fill: none; stroke: #b88a25; stroke-width: 2; stroke-linecap: square"/>
   </g>
   <g id="patch_18">
    <path d="M 298.26 170.4312 
Q 298.26 191.637 298.26 210.606732 
" style="fill: none; stroke-dasharray: 10,6; stroke-dashoffset: 0; stroke: #b88a25; stroke-width: 2; stroke-linecap: round"/>
    <path d="M 300.66 205.806732 
L 298.26 210.606732 
L 295.86 205.806732 
z
" style="fill: #b88a25; stroke-dasharray: 10,6; stroke-dashoffset: 0; stroke: #b88a25; stroke-width: 2; stroke-linecap: round"/>
   </g>
   <g id="line2d_7">
    <path d="M 131.94 168.768 
" clip-path="url(#p3d180adf9b)" style="fill: none; stroke: #1f77b4; stroke-width: 1.5; stroke-linecap: square"/>
    <defs>
     <path id="ma8136e30c1" d="M 0 1.8 
C 0.477366 1.8 0.935244 1.610341 1.272792 1.272792 
C 1.610341 0.935244 1.8 0.477366 1.8 0 
C 1.8 -0.477366 1.610341 -0.935244 1.272792 -1.272792 
C 0.935244 -1.610341 0.477366 -1.8 0 -1.8 
C -0.477366 -1.8 -0.935244 -1.610341 -1.272792 -1.272792 
C -1.610341 -0.935244 -1.8 -0.477366 -1.8 0 
C -1.8 0.477366 -1.610341 0.935244 -1.272792 1.272792 
C -0.935244 1.610341 -0.477366 1.8 0 1.8 
z
" style="stroke: #b88a25"/>
    </defs>
    <g clip-path="url(#p3d180adf9b)">
     <use xlink:href="#ma8136e30c1" x="131.94" y="168.768" style="fill: #b88a25; stroke: #b88a25"/>
    </g>
   </g>
   <g id="line2d_8">
    <path d="M 242.82 168.768 
" clip-path="url(#p3d180adf9b)" style="fill: none; stroke: #ff7f0e; stroke-width: 1.5; stroke-linecap: square"/>
    <g clip-path="url(#p3d180adf9b)">
     <use xlink:href="#ma8136e30c1" x="242.82" y="168.768" style="fill: #b88a25; stroke: #b88a25"/>
    </g>
   </g>
   <g id="line2d_9">
    <path d="M 353.7 168.768 
" clip-path="url(#p3d180adf9b)" style="fill: none; stroke: #2ca02c; stroke-width: 1.5; stroke-linecap: square"/>
    <g clip-path="url(#p3d180adf9b)">
     <use xlink:href="#ma8136e30c1" x="353.7" y="168.768" style="fill: #b88a25; stroke: #b88a25"/>
    </g>
   </g>
   <g id="line2d_10">
    <path d="M 464.58 168.768 
" clip-path="url(#p3d180adf9b)" style="fill: none; stroke: #d62728; stroke-width: 1.5; stroke-linecap: square"/>
    <g clip-path="url(#p3d180adf9b)">
     <use xlink:href="#ma8136e30c1" x="464.58" y="168.768" style="fill: #b88a25; stroke: #b88a25"/>
    </g>
   </g>
  </g>
  <g id="text_18">
   <!-- Figure 4(c). Sampling: DDIM denoise with multi-head guidance -->
   <g style="fill: #1f2c3a" transform="translate(95.484375 16.318125) scale(0.12 -0.12)">
    <defs>
     <path id="DejaVuSans-Bold-46" d="M 588 4666 
L 3834 4666 
L 3834 3756 
L 1791 3756 
L 1791 2888 
L 3713 2888 
L 3713 1978 
L 1791 1978 
L 1791 0 
L 588 0 
L 588 4666 
z
" transform="scale(0.015625)"/>
     <path id="DejaVuSans-Bold-69" d="M 538 3500 
L 1656 3500 
L 1656 0 
L 538 0 
L 538 3500 
z
M 538 4863 
L 1656 4863 
L 1656 3950 
L 538 3950 
L 538 4863 
z
" transform="scale(0.015625)"/>
     <path id="DejaVuSans-Bold-67" d="M 2919 594 
Q 2688 288 2409 144 
Q 2131 0 1766 0 
Q 1125 0 706 504 
Q 288 1009 288 1791 
Q 288 2575 706 3076 
Q 1125 3578 1766 3578 
Q 2131 3578 2409 3434 
Q 2688 3291 2919 2981 
L 2919 3500 
L 4044 3500 
L 4044 353 
Q 4044 -491 3511 -936 
Q 2978 -1381 1966 -1381 
Q 1638 -1381 1331 -1331 
Q 1025 -1281 716 -1178 
L 716 -306 
Q 1009 -475 1290 -558 
Q 1572 -641 1856 -641 
Q 2406 -641 2662 -400 
Q 2919 -159 2919 353 
L 2919 594 
z
M 2181 2772 
Q 1834 2772 1640 2515 
Q 1447 2259 1447 1791 
Q 1447 1309 1634 1061 
Q 1822 813 2181 813 
Q 2531 813 2725 1069 
Q 2919 1325 2919 1791 
Q 2919 2259 2725 2515 
Q 2531 2772 2181 2772 
z
" transform="scale(0.015625)"/>
     <path id="DejaVuSans-Bold-75" d="M 500 1363 
L 500 3500 
L 1625 3500 
L 1625 3150 
Q 1625 2866 1622 2436 
Q 1619 2006 1619 1863 
Q 1619 1441 1641 1255 
Q 1663 1069 1716 984 
Q 1784 875 1895 815 
Q 2006 756 2150 756 
Q 2500 756 2700 1025 
Q 2900 1294 2900 1772 
L 2900 3500 
L 4019 3500 
L 4019 0 
L 2900 0 
L 2900 506 
Q 2647 200 2364 54 
Q 2081 -91 1741 -91 
Q 1134 -91 817 281 
Q 500 653 500 1363 
z
" transform="scale(0.015625)"/>
     <path id="DejaVuSans-Bold-72" d="M 3138 2547 
Q 2991 2616 2845 2648 
Q 2700 2681 2553 2681 
Q 2122 2681 1889 2404 
Q 1656 2128 1656 1613 
L 1656 0 
L 538 0 
L 538 3500 
L 1656 3500 
L 1656 2925 
Q 1872 3269 2151 3426 
Q 2431 3584 2822 3584 
Q 2878 3584 2943 3579 
Q 3009 3575 3134 3559 
L 3138 2547 
z
" transform="scale(0.015625)"/>
     <path id="DejaVuSans-Bold-65" d="M 4031 1759 
L 4031 1441 
L 1416 1441 
Q 1456 1047 1700 850 
Q 1944 653 2381 653 
Q 2734 653 3104 758 
Q 3475 863 3866 1075 
L 3866 213 
Q 3469 63 3072 -14 
Q 2675 -91 2278 -91 
Q 1328 -91 801 392 
Q 275 875 275 1747 
Q 275 2603 792 3093 
Q 1309 3584 2216 3584 
Q 3041 3584 3536 3087 
Q 4031 2591 4031 1759 
z
M 2881 2131 
Q 2881 2450 2695 2645 
Q 2509 2841 2209 2841 
Q 1884 2841 1681 2658 
Q 1478 2475 1428 2131 
L 2881 2131 
z
" transform="scale(0.015625)"/>
     <path id="DejaVuSans-Bold-20" transform="scale(0.015625)"/>
     <path id="DejaVuSans-Bold-34" d="M 2356 3675 
L 1038 1722 
L 2356 1722 
L 2356 3675 
z
M 2156 4666 
L 3494 4666 
L 3494 1722 
L 4159 1722 
L 4159 850 
L 3494 850 
L 3494 0 
L 2356 0 
L 2356 850 
L 288 850 
L 288 1881 
L 2156 4666 
z
" transform="scale(0.015625)"/>
     <path id="DejaVuSans-Bold-28" d="M 2413 -844 
L 1484 -844 
Q 1006 -72 778 623 
Q 550 1319 550 2003 
Q 550 2688 779 3389 
Q 1009 4091 1484 4856 
L 2413 4856 
Q 2013 4116 1813 3408 
Q 1613 2700 1613 2009 
Q 1613 1319 1811 609 
Q 2009 -100 2413 -844 
z
" transform="scale(0.015625)"/>
     <path id="DejaVuSans-Bold-63" d="M 3366 3391 
L 3366 2478 
Q 3138 2634 2908 2709 
Q 2678 2784 2431 2784 
Q 1963 2784 1702 2511 
Q 1441 2238 1441 1747 
Q 1441 1256 1702 982 
Q 1963 709 2431 709 
Q 2694 709 2930 787 
Q 3166 866 3366 1019 
L 3366 103 
Q 3103 6 2833 -42 
Q 2563 -91 2291 -91 
Q 1344 -91 809 395 
Q 275 881 275 1747 
Q 275 2613 809 3098 
Q 1344 3584 2291 3584 
Q 2566 3584 2833 3536 
Q 3100 3488 3366 3391 
z
" transform="scale(0.015625)"/>
     <path id="DejaVuSans-Bold-29" d="M 513 -844 
Q 913 -100 1113 609 
Q 1313 1319 1313 2009 
Q 1313 2700 1113 3408 
Q 913 4116 513 4856 
L 1441 4856 
Q 1916 4091 2145 3389 
Q 2375 2688 2375 2003 
Q 2375 1319 2147 623 
Q 1919 -72 1441 -844 
L 513 -844 
z
" transform="scale(0.015625)"/>
     <path id="DejaVuSans-Bold-2e" d="M 653 1209 
L 1778 1209 
L 1778 0 
L 653 0 
L 653 1209 
z
" transform="scale(0.015625)"/>
     <path id="DejaVuSans-Bold-53" d="M 3834 4519 
L 3834 3531 
Q 3450 3703 3084 3790 
Q 2719 3878 2394 3878 
Q 1963 3878 1756 3759 
Q 1550 3641 1550 3391 
Q 1550 3203 1689 3098 
Q 1828 2994 2194 2919 
L 2706 2816 
Q 3484 2659 3812 2340 
Q 4141 2022 4141 1434 
Q 4141 663 3683 286 
Q 3225 -91 2284 -91 
Q 1841 -91 1394 -6 
Q 947 78 500 244 
L 500 1259 
Q 947 1022 1364 901 
Q 1781 781 2169 781 
Q 2563 781 2772 912 
Q 2981 1044 2981 1288 
Q 2981 1506 2839 1625 
Q 2697 1744 2272 1838 
L 1806 1941 
Q 1106 2091 782 2419 
Q 459 2747 459 3303 
Q 459 4000 909 4375 
Q 1359 4750 2203 4750 
Q 2588 4750 2994 4692 
Q 3400 4634 3834 4519 
z
" transform="scale(0.015625)"/>
     <path id="DejaVuSans-Bold-61" d="M 2106 1575 
Q 1756 1575 1579 1456 
Q 1403 1338 1403 1106 
Q 1403 894 1545 773 
Q 1688 653 1941 653 
Q 2256 653 2472 879 
Q 2688 1106 2688 1447 
L 2688 1575 
L 2106 1575 
z
M 3816 1997 
L 3816 0 
L 2688 0 
L 2688 519 
Q 2463 200 2181 54 
Q 1900 -91 1497 -91 
Q 953 -91 614 226 
Q 275 544 275 1050 
Q 275 1666 698 1953 
Q 1122 2241 2028 2241 
L 2688 2241 
L 2688 2328 
Q 2688 2594 2478 2717 
Q 2269 2841 1825 2841 
Q 1466 2841 1156 2769 
Q 847 2697 581 2553 
L 581 3406 
Q 941 3494 1303 3539 
Q 1666 3584 2028 3584 
Q 2975 3584 3395 3211 
Q 3816 2838 3816 1997 
z
" transform="scale(0.015625)"/>
     <path id="DejaVuSans-Bold-6d" d="M 3781 2919 
Q 3994 3244 4286 3414 
Q 4578 3584 4928 3584 
Q 5531 3584 5847 3212 
Q 6163 2841 6163 2131 
L 6163 0 
L 5038 0 
L 5038 1825 
Q 5041 1866 5042 1909 
Q 5044 1953 5044 2034 
Q 5044 2406 4934 2573 
Q 4825 2741 4581 2741 
Q 4263 2741 4089 2478 
Q 3916 2216 3909 1719 
L 3909 0 
L 2784 0 
L 2784 1825 
Q 2784 2406 2684 2573 
Q 2584 2741 2328 2741 
Q 2006 2741 1831 2477 
Q 1656 2213 1656 1722 
L 1656 0 
L 531 0 
L 531 3500 
L 1656 3500 
L 1656 2988 
Q 1863 3284 2130 3434 
Q 2397 3584 2719 3584 
Q 3081 3584 3359 3409 
Q 3638 3234 3781 2919 
z
" transform="scale(0.015625)"/>
     <path id="DejaVuSans-Bold-70" d="M 1656 506 
L 1656 -1331 
L 538 -1331 
L 538 3500 
L 1656 3500 
L 1656 2988 
Q 1888 3294 2169 3439 
Q 2450 3584 2816 3584 
Q 3463 3584 3878 3070 
Q 4294 2556 4294 1747 
Q 4294 938 3878 423 
Q 3463 -91 2816 -91 
Q 2450 -91 2169 54 
Q 1888 200 1656 506 
z
M 2400 2772 
Q 2041 2772 1848 2508 
Q 1656 2244 1656 1747 
Q 1656 1250 1848 986 
Q 2041 722 2400 722 
Q 2759 722 2948 984 
Q 3138 1247 3138 1747 
Q 3138 2247 2948 2509 
Q 2759 2772 2400 2772 
z
" transform="scale(0.015625)"/>
     <path id="DejaVuSans-Bold-6c" d="M 538 4863 
L 1656 4863 
L 1656 0 
L 538 0 
L 538 4863 
z
" transform="scale(0.015625)"/>
     <path id="DejaVuSans-Bold-6e" d="M 4056 2131 
L 4056 0 
L 2931 0 
L 2931 347 
L 2931 1631 
Q 2931 2084 2911 2256 
Q 2891 2428 2841 2509 
Q 2775 2619 2662 2680 
Q 2550 2741 2406 2741 
Q 2056 2741 1856 2470 
Q 1656 2200 1656 1722 
L 1656 0 
L 538 0 
L 538 3500 
L 1656 3500 
L 1656 2988 
Q 1909 3294 2193 3439 
Q 2478 3584 2822 3584 
Q 3428 3584 3742 3212 
Q 4056 2841 4056 2131 
z
" transform="scale(0.015625)"/>
     <path id="DejaVuSans-Bold-3a" d="M 716 3500 
L 1844 3500 
L 1844 2291 
L 716 2291 
L 716 3500 
z
M 716 1209 
L 1844 1209 
L 1844 0 
L 716 0 
L 716 1209 
z
" transform="scale(0.015625)"/>
     <path id="DejaVuSans-Bold-44" d="M 1791 3756 
L 1791 909 
L 2222 909 
Q 2959 909 3348 1275 
Q 3738 1641 3738 2338 
Q 3738 3031 3350 3393 
Q 2963 3756 2222 3756 
L 1791 3756 
z
M 588 4666 
L 1856 4666 
Q 2919 4666 3439 4514 
Q 3959 4363 4331 4000 
Q 4659 3684 4818 3271 
Q 4978 2859 4978 2338 
Q 4978 1809 4818 1395 
Q 4659 981 4331 666 
Q 3956 303 3431 151 
Q 2906 0 1856 0 
L 588 0 
L 588 4666 
z
" transform="scale(0.015625)"/>
     <path id="DejaVuSans-Bold-49" d="M 588 4666 
L 1791 4666 
L 1791 0 
L 588 0 
L 588 4666 
z
" transform="scale(0.015625)"/>
     <path id="DejaVuSans-Bold-4d" d="M 588 4666 
L 2119 4666 
L 3181 2169 
L 4250 4666 
L 5778 4666 
L 5778 0 
L 4641 0 
L 4641 3413 
L 3566 897 
L 2803 897 
L 1728 3413 
L 1728 0 
L 588 0 
L 588 4666 
z
" transform="scale(0.015625)"/>
     <path id="DejaVuSans-Bold-64" d="M 2919 2988 
L 2919 4863 
L 4044 4863 
L 4044 0 
L 2919 0 
L 2919 506 
Q 2688 197 2409 53 
Q 2131 -91 1766 -91 
Q 1119 -91 703 423 
Q 288 938 288 1747 
Q 288 2556 703 3070 
Q 1119 3584 1766 3584 
Q 2128 3584 2408 3439 
Q 2688 3294 2919 2988 
z
M 2181 722 
Q 2541 722 2730 984 
Q 2919 1247 2919 1747 
Q 2919 2247 2730 2509 
Q 2541 2772 2181 2772 
Q 1825 2772 1636 2509 
Q 1447 2247 1447 1747 
Q 1447 1247 1636 984 
Q 1825 722 2181 722 
z
" transform="scale(0.015625)"/>
     <path id="DejaVuSans-Bold-6f" d="M 2203 2784 
Q 1831 2784 1636 2517 
Q 1441 2250 1441 1747 
Q 1441 1244 1636 976 
Q 1831 709 2203 709 
Q 2569 709 2762 976 
Q 2956 1244 2956 1747 
Q 2956 2250 2762 2517 
Q 2569 2784 2203 2784 
z
M 2203 3584 
Q 3106 3584 3614 3096 
Q 4122 2609 4122 1747 
Q 4122 884 3614 396 
Q 3106 -91 2203 -91 
Q 1297 -91 786 396 
Q 275 884 275 1747 
Q 275 2609 786 3096 
Q 1297 3584 2203 3584 
z
" transform="scale(0.015625)"/>
     <path id="DejaVuSans-Bold-73" d="M 3272 3391 
L 3272 2541 
Q 2913 2691 2578 2766 
Q 2244 2841 1947 2841 
Q 1628 2841 1473 2761 
Q 1319 2681 1319 2516 
Q 1319 2381 1436 2309 
Q 1553 2238 1856 2203 
L 2053 2175 
Q 2913 2066 3209 1816 
Q 3506 1566 3506 1031 
Q 3506 472 3093 190 
Q 2681 -91 1863 -91 
Q 1516 -91 1145 -36 
Q 775 19 384 128 
L 384 978 
Q 719 816 1070 734 
Q 1422 653 1784 653 
Q 2113 653 2278 743 
Q 2444 834 2444 1013 
Q 2444 1163 2330 1236 
Q 2216 1309 1875 1350 
L 1678 1375 
Q 931 1469 631 1722 
Q 331 1975 331 2491 
Q 331 3047 712 3315 
Q 1094 3584 1881 3584 
Q 2191 3584 2531 3537 
Q 2872 3491 3272 3391 
z
" transform="scale(0.015625)"/>
     <path id="DejaVuSans-Bold-77" d="M 225 3500 
L 1313 3500 
L 1900 1088 
L 2491 3500 
L 3425 3500 
L 4013 1113 
L 4603 3500 
L 5691 3500 
L 4769 0 
L 3547 0 
L 2956 2406 
L 2369 0 
L 1147 0 
L 225 3500 
z
" transform="scale(0.015625)"/>
     <path id="DejaVuSans-Bold-74" d="M 1759 4494 
L 1759 3500 
L 2913 3500 
L 2913 2700 
L 1759 2700 
L 1759 1216 
Q 1759 972 1856 886 
Q 1953 800 2241 800 
L 2816 800 
L 2816 0 
L 1856 0 
Q 1194 0 917 276 
Q 641 553 641 1216 
L 641 2700 
L 84 2700 
L 84 3500 
L 641 3500 
L 641 4494 
L 1759 4494 
z
" transform="scale(0.015625)"/>
     <path id="DejaVuSans-Bold-68" d="M 4056 2131 
L 4056 0 
L 2931 0 
L 2931 347 
L 2931 1625 
Q 2931 2084 2911 2256 
Q 2891 2428 2841 2509 
Q 2775 2619 2662 2680 
Q 2550 2741 2406 2741 
Q 2056 2741 1856 2470 
Q 1656 2200 1656 1722 
L 1656 0 
L 538 0 
L 538 4863 
L 1656 4863 
L 1656 2988 
Q 1909 3294 2193 3439 
Q 2478 3584 2822 3584 
Q 3428 3584 3742 3212 
Q 4056 2841 4056 2131 
z
" transform="scale(0.015625)"/>
     <path id="DejaVuSans-Bold-2d" d="M 347 2297 
L 2309 2297 
L 2309 1388 
L 347 1388 
L 347 2297 
z
" transform="scale(0.015625)"/>
    </defs>
    <use xlink:href="#DejaVuSans-Bold-46"/>
    <use xlink:href="#DejaVuSans-Bold-69" transform="translate(68.310547 0)"/>
    <use xlink:href="#DejaVuSans-Bold-67" transform="translate(102.587891 0)"/>
    <use xlink:href="#DejaVuSans-Bold-75" transform="translate(174.169922 0)"/>
    <use xlink:href="#DejaVuSans-Bold-72" transform="translate(245.361328 0)"/>
    <use xlink:href="#DejaVuSans-Bold-65" transform="translate(294.677734 0)"/>
    <use xlink:href="#DejaVuSans-Bold-20" transform="translate(362.5 0)"/>
    <use xlink:href="#DejaVuSans-Bold-34" transform="translate(397.314453 0)"/>
    <use xlink:href="#DejaVuSans-Bold-28" transform="translate(466.894531 0)"/>
    <use xlink:href="#DejaVuSans-Bold-63" transform="translate(512.597656 0)"/>
    <use xlink:href="#DejaVuSans-Bold-29" transform="translate(571.875 0)"/>
    <use xlink:href="#DejaVuSans-Bold-2e" transform="translate(617.578125 0)"/>
    <use xlink:href="#DejaVuSans-Bold-20" transform="translate(655.566406 0)"/>
    <use xlink:href="#DejaVuSans-Bold-53" transform="translate(690.380859 0)"/>
    <use xlink:href="#DejaVuSans-Bold-61" transform="translate(762.402344 0)"/>
    <use xlink:href="#DejaVuSans-Bold-6d" transform="translate(829.882812 0)"/>
    <use xlink:href="#DejaVuSans-Bold-70" transform="translate(934.082031 0)"/>
    <use xlink:href="#DejaVuSans-Bold-6c" transform="translate(1005.664062 0)"/>
    <use xlink:href="#DejaVuSans-Bold-69" transform="translate(1039.941406 0)"/>
    <use xlink:href="#DejaVuSans-Bold-6e" transform="translate(1074.21875 0)"/>
    <use xlink:href="#DejaVuSans-Bold-67" transform="translate(1145.410156 0)"/>
    <use xlink:href="#DejaVuSans-Bold-3a" transform="translate(1216.992188 0)"/>
    <use xlink:href="#DejaVuSans-Bold-20" transform="translate(1256.982422 0)"/>
    <use xlink:href="#DejaVuSans-Bold-44" transform="translate(1291.796875 0)"/>
    <use xlink:href="#DejaVuSans-Bold-44" transform="translate(1374.804688 0)"/>
    <use xlink:href="#DejaVuSans-Bold-49" transform="translate(1457.8125 0)"/>
    <use xlink:href="#DejaVuSans-Bold-4d" transform="translate(1495.019531 0)"/>
    <use xlink:href="#DejaVuSans-Bold-20" transform="translate(1594.53125 0)"/>
    <use xlink:href="#DejaVuSans-Bold-64" transform="translate(1629.345703 0)"/>
    <use xlink:href="#DejaVuSans-Bold-65" transform="translate(1700.927734 0)"/>
    <use xlink:href="#DejaVuSans-Bold-6e" transform="translate(1768.75 0)"/>
    <use xlink:href="#DejaVuSans-Bold-6f" transform="translate(1839.941406 0)"/>
    <use xlink:href="#DejaVuSans-Bold-69" transform="translate(1908.642578 0)"/>
    <use xlink:href="#DejaVuSans-Bold-73" transform="translate(1942.919922 0)"/>
    <use xlink:href="#DejaVuSans-Bold-65" transform="translate(2002.441406 0)"/>
    <use xlink:href="#DejaVuSans-Bold-20" transform="translate(2070.263672 0)"/>
    <use xlink:href="#DejaVuSans-Bold-77" transform="translate(2105.078125 0)"/>
    <use xlink:href="#DejaVuSans-Bold-69" transform="translate(2197.460938 0)"/>
    <use xlink:href="#DejaVuSans-Bold-74" transform="translate(2231.738281 0)"/>
    <use xlink:href="#DejaVuSans-Bold-68" transform="translate(2279.541016 0)"/>
    <use xlink:href="#DejaVuSans-Bold-20" transform="translate(2350.732422 0)"/>
    <use xlink:href="#DejaVuSans-Bold-6d" transform="translate(2385.546875 0)"/>
    <use xlink:href="#DejaVuSans-Bold-75" transform="translate(2489.746094 0)"/>
    <use xlink:href="#DejaVuSans-Bold-6c" transform="translate(2560.9375 0)"/>
    <use xlink:href="#DejaVuSans-Bold-74" transform="translate(2595.214844 0)"/>
    <use xlink:href="#DejaVuSans-Bold-69" transform="translate(2643.017578 0)"/>
    <use xlink:href="#DejaVuSans-Bold-2d" transform="translate(2677.294922 0)"/>
    <use xlink:href="#DejaVuSans-Bold-68" transform="translate(2718.798828 0)"/>
    <use xlink:href="#DejaVuSans-Bold-65" transform="translate(2789.990234 0)"/>
    <use xlink:href="#DejaVuSans-Bold-61" transform="translate(2857.8125 0)"/>
    <use xlink:href="#DejaVuSans-Bold-64" transform="translate(2925.292969 0)"/>
    <use xlink:href="#DejaVuSans-Bold-20" transform="translate(2996.875 0)"/>
    <use xlink:href="#DejaVuSans-Bold-67" transform="translate(3031.689453 0)"/>
    <use xlink:href="#DejaVuSans-Bold-75" transform="translate(3103.271484 0)"/>
    <use xlink:href="#DejaVuSans-Bold-69" transform="translate(3174.462891 0)"/>
    <use xlink:href="#DejaVuSans-Bold-64" transform="translate(3208.740234 0)"/>
    <use xlink:href="#DejaVuSans-Bold-61" transform="translate(3280.322266 0)"/>
    <use xlink:href="#DejaVuSans-Bold-6e" transform="translate(3347.802734 0)"/>
    <use xlink:href="#DejaVuSans-Bold-63" transform="translate(3418.994141 0)"/>
    <use xlink:href="#DejaVuSans-Bold-65" transform="translate(3478.271484 0)"/>
   </g>
  </g>
 </g>
 <defs>
  <clipPath id="p3d180adf9b">
   <rect x="7.2" y="46.8" width="623.7" height="277.2"/>
  </clipPath>
 </defs>
</svg>
