<?xml version="1.0" encoding="utf-8" standalone="no"?>
<!DOCTYPE svg PUBLIC "-//W3C//DTD SVG 1.1//EN"
  "http://www.w3.org/Graphics/SVG/1.1/DTD/svg11.dtd">
<svg xmlns:xlink="http://www.w3.org/1999/xlink" width="796.4pt" height="327.2pt" viewBox="0 0 796.4 327.2" xmlns="http://www.w3.org/2000/svg" version="1.1">
 <metadata>
  <rdf:RDF xmlns:dc="http://purl.org/dc/elements/1.1/" xmlns:cc="http://creativecommons.org/ns#" xmlns:rdf="http://www.w3.org/1999/02/22-rdf-syntax-ns#">
   <cc:Work>
    <dc:type rdf:resource="http://purl.org/dc/dcmitype/StillImage"/>
    <dc:date>2026-04-28T13:53:54.888659</dc:date>
    <dc:format>image/svg+xml</dc:format>
    <dc:creator>
     <cc:Agent>
      <dc:title>Matplotlib v3.10.8, https://matplotlib.org/</dc:title>
     </cc:Agent>
    </dc:creator>
   </cc:Work>
  </rdf:RDF>
 </metadata>
 <defs>
  <style type="text/css">*{stroke-linejoin: round; stroke-linecap: butt}</style>
 </defs>
 <g id="figure_1">
  <g id="patch_1">
   <path d="M 0 327.2 
L 796.4 327.2 
L 796.4 0 
L 0 0 
z
" style="fill: #ffffff"/>
  </g>
  <g id="axes_1">
   <g id="patch_2">
    <path d="M 36.525 124.01125 
L 147.96 124.01125 
Q 156.7575 124.01125 156.7575 115.21375 
L 156.7575 72.20375 
Q 156.7575 63.40625 147.96 63.40625 
L 36.525 63.40625 
Q 27.7275 63.40625 27.7275 72.20375 
L 27.7275 115.21375 
Q 27.7275 124.01125 36.525 124.01125 
z
" clip-path="url(#pdd19ba1a90)" style="fill: #0a1620; opacity: 0.13"/>
   </g>
   <g id="patch_3">
    <path d="M 183.15 124.01125 
L 294.585 124.01125 
Q 303.3825 124.01125 303.3825 115.21375 
L 303.3825 72.20375 
Q 303.3825 63.40625 294.585 63.40625 
L 183.15 63.40625 
Q 174.3525 63.40625 174.3525 72.20375 
L 174.3525 115.21375 
Q 174.3525 124.01125 183.15 124.01125 
z
" clip-path="url(#pdd19ba1a90)" style="fill: #0a1620; opacity: 0.13"/>
   </g>
   <g id="patch_4">
    <path d="M 334.6625 124.01125 
L 465.6475 124.01125 
Q 474.445 124.01125 474.445 115.21375 
L 474.445 72.20375 
Q 474.445 63.40625 465.6475 63.40625 
L 334.6625 63.40625 
Q 325.865 63.40625 325.865 72.20375 
L 325.865 115.21375 
Q 325.865 124.01125 334.6625 124.01125 
z
" clip-path="url(#pdd19ba1a90)" style="fill: #0a1620; opacity: 0.13"/>
   </g>
   <g id="patch_5">
    <path d="M 544.825 75.13625 
L 646.485 75.13625 
Q 655.2825 75.13625 655.2825 66.33875 
L 655.2825 33.10375 
Q 655.2825 24.30625 646.485 24.30625 
L 544.825 24.30625 
Q 536.0275 24.30625 536.0275 33.10375 
L 536.0275 66.33875 
Q 536.0275 75.13625 544.825 75.13625 
z
" clip-path="url(#pdd19ba1a90)" style="fill: #0a1620; opacity: 0.13"/>
   </g>
   <g id="patch_6">
    <path d="M 671.9 75.13625 
L 773.56 75.13625 
Q 782.3575 75.13625 782.3575 66.33875 
L 782.3575 33.10375 
Q 782.3575 24.30625 773.56 24.30625 
L 671.9 24.30625 
Q 663.1025 24.30625 663.1025 33.10375 
L 663.1025 66.33875 
Q 663.1025 75.13625 671.9 75.13625 
z
" clip-path="url(#pdd19ba1a90)" style="fill: #0a1620; opacity: 0.13"/>
   </g>
   <g id="patch_7">
    <path d="M 334.6625 275.52375 
L 465.6475 275.52375 
Q 474.445 275.52375 474.445 266.72625 
L 474.445 213.94125 
Q 474.445 205.14375 465.6475 205.14375 
L 334.6625 205.14375 
Q 325.865 205.14375 325.865 213.94125 
L 325.865 266.72625 
Q 325.865 275.52375 334.6625 275.52375 
z
" clip-path="url(#pdd19ba1a90)" style="fill: #0a1620; opacity: 0.13"/>
   </g>
   <g id="patch_8">
    <path d="M 530.1625 265.74875 
L 710.0225 265.74875 
Q 718.82 265.74875 718.82 256.95125 
L 718.82 223.71625 
Q 718.82 214.91875 710.0225 214.91875 
L 530.1625 214.91875 
Q 521.365 214.91875 521.365 223.71625 
L 521.365 256.95125 
Q 521.365 265.74875 530.1625 265.74875 
z
" clip-path="url(#pdd19ba1a90)" style="fill: #0a1620; opacity: 0.13"/>
   </g>
   <g id="patch_9">
    <path d="M 34.57 120.59 
L 146.005 120.59 
Q 154.8025 120.59 154.8025 111.7925 
L 154.8025 68.7825 
Q 154.8025 59.985 146.005 59.985 
L 34.57 59.985 
Q 25.7725 59.985 25.7725 68.7825 
L 25.7725 111.7925 
Q 25.7725 120.59 34.57 120.59 
z
" clip-path="url(#pdd19ba1a90)" style="fill: #f6f3ed; stroke: #27445d; stroke-width: 1.6; stroke-linejoin: miter"/>
   </g>
   <g id="patch_10">
    <path d="M 181.195 120.59 
L 292.63 120.59 
Q 301.4275 120.59 301.4275 111.7925 
L 301.4275 68.7825 
Q 301.4275 59.985 292.63 59.985 
L 181.195 59.985 
Q 172.3975 59.985 172.3975 68.7825 
L 172.3975 111.7925 
Q 172.3975 120.59 181.195 120.59 
z
" clip-path="url(#pdd19ba1a90)" style="fill: #dde6e9; stroke: #27445d; stroke-width: 1.6; stroke-linejoin: miter"/>
   </g>
   <g id="patch_11">
    <path d="M 332.7075 120.59 
L 463.6925 120.59 
Q 472.49 120.59 472.49 111.7925 
L 472.49 68.7825 
Q 472.49 59.985 463.6925 59.985 
L 332.7075 59.985 
Q 323.91 59.985 323.91 68.7825 
L 323.91 111.7925 
Q 323.91 120.59 332.7075 120.59 
z
" clip-path="url(#pdd19ba1a90)" style="fill: #fdf3d8; stroke: #b88a25; stroke-width: 1.6; stroke-linejoin: miter"/>
   </g>
   <g id="patch_12">
    <path d="M 542.87 71.715 
L 644.53 71.715 
Q 653.3275 71.715 653.3275 62.9175 
L 653.3275 29.6825 
Q 653.3275 20.885 644.53 20.885 
L 542.87 20.885 
Q 534.0725 20.885 534.0725 29.6825 
L 534.0725 62.9175 
Q 534.0725 71.715 542.87 71.715 
z
" clip-path="url(#pdd19ba1a90)" style="fill: #fdf3d8; stroke: #b88a25; stroke-width: 1.6; stroke-linejoin: miter"/>
   </g>
   <g id="patch_13">
    <path d="M 669.945 71.715 
L 771.605 71.715 
Q 780.4025 71.715 780.4025 62.9175 
L 780.4025 29.6825 
Q 780.4025 20.885 771.605 20.885 
L 669.945 20.885 
Q 661.1475 20.885 661.1475 29.6825 
L 661.1475 62.9175 
Q 661.1475 71.715 669.945 71.715 
z
" clip-path="url(#pdd19ba1a90)" style="fill: #fdf3d8; stroke: #b88a25; stroke-width: 1.6; stroke-linejoin: miter"/>
   </g>
   <g id="patch_14">
    <path d="M 332.7075 272.1025 
L 463.6925 272.1025 
Q 472.49 272.1025 472.49 263.305 
L 472.49 210.52 
Q 472.49 201.7225 463.6925 201.7225 
L 332.7075 201.7225 
Q 323.91 201.7225 323.91 210.52 
L 323.91 263.305 
Q 323.91 272.1025 332.7075 272.1025 
z
" clip-path="url(#pdd19ba1a90)" style="fill: #dde6e9; stroke: #27445d; stroke-width: 1.6; stroke-linejoin: miter"/>
   </g>
   <g id="patch_15">
    <path d="M 528.2075 262.3275 
L 708.0675 262.3275 
Q 716.865 262.3275 716.865 253.53 
L 716.865 220.295 
Q 716.865 211.4975 708.0675 211.4975 
L 528.2075 211.4975 
Q 519.41 211.4975 519.41 220.295 
L 519.41 253.53 
Q 519.41 262.3275 528.2075 262.3275 
z
" clip-path="url(#pdd19ba1a90)" style="fill: #f7e6e6; stroke: #aa3a3a; stroke-width: 1.6; stroke-linejoin: miter"/>
   </g>
   <g id="text_1">
    <!-- TRAINING -->
    <g style="fill: #8a9aaa" transform="translate(26.75 19.734375) scale(0.1 -0.1)">
     <defs>
      <path id="DejaVuSerif-Bold-54" d="M 1159 0 
L 1159 378 
L 1778 378 
L 1778 4238 
L 500 4238 
L 500 3500 
L 72 3500 
L 72 4666 
L 4697 4666 
L 4697 3500 
L 4275 3500 
L 4275 4238 
L 2988 4238 
L 2988 378 
L 3609 378 
L 3609 0 
L 1159 0 
z
" transform="scale(0.015625)"/>
      <path id="DejaVuSerif-Bold-52" d="M 3397 2278 
Q 3675 2238 3865 2094 
Q 4056 1950 4197 1678 
L 4878 378 
L 5356 378 
L 5356 0 
L 3822 0 
L 3078 1409 
Q 2863 1847 2711 1967 
Q 2559 2088 2291 2088 
L 2100 2088 
L 2100 378 
L 2700 378 
L 2700 0 
L 300 0 
L 300 378 
L 897 378 
L 897 4288 
L 300 4288 
L 300 4666 
L 2963 4666 
Q 3775 4666 4217 4339 
Q 4659 4013 4659 3413 
Q 4659 2925 4345 2642 
Q 4031 2359 3397 2278 
z
M 2100 2463 
L 2509 2463 
Q 2947 2463 3183 2700 
Q 3419 2938 3419 3378 
Q 3419 3819 3183 4053 
Q 2947 4288 2509 4288 
L 2100 4288 
L 2100 2463 
z
" transform="scale(0.015625)"/>
      <path id="DejaVuSerif-Bold-41" d="M -50 0 
L -50 378 
L 331 378 
L 2088 4666 
L 2834 4666 
L 4594 378 
L 5038 378 
L 5038 0 
L 2853 0 
L 2853 378 
L 3309 378 
L 2925 1331 
L 1172 1331 
L 781 378 
L 1338 378 
L 1338 0 
L -50 0 
z
M 1325 1709 
L 2772 1709 
L 2053 3494 
L 1325 1709 
z
" transform="scale(0.015625)"/>
      <path id="DejaVuSerif-Bold-49" d="M 300 0 
L 300 378 
L 897 378 
L 897 4288 
L 300 4288 
L 300 4666 
L 2700 4666 
L 2700 4288 
L 2100 4288 
L 2100 378 
L 2700 378 
L 2700 0 
L 300 0 
z
" transform="scale(0.015625)"/>
      <path id="DejaVuSerif-Bold-4e" d="M 281 0 
L 281 378 
L 878 378 
L 878 4288 
L 281 4288 
L 281 4666 
L 1741 4666 
L 4556 1363 
L 4556 4288 
L 3963 4288 
L 3963 4666 
L 5594 4666 
L 5594 4288 
L 4997 4288 
L 4997 0 
L 4178 0 
L 1319 3372 
L 1319 378 
L 1913 378 
L 1913 0 
L 281 0 
z
" transform="scale(0.015625)"/>
      <path id="DejaVuSerif-Bold-47" d="M 4403 3200 
Q 4263 3819 3934 4095 
Q 3606 4372 3009 4372 
Q 2284 4372 1945 3880 
Q 1606 3388 1606 2328 
Q 1606 1278 1931 783 
Q 2256 288 2944 288 
Q 3206 288 3431 347 
Q 3656 406 3841 525 
L 3841 1806 
L 3278 1806 
L 3278 2181 
L 4959 2181 
L 4959 391 
Q 4434 147 3911 28 
Q 3388 -91 2841 -91 
Q 1641 -91 955 556 
Q 269 1203 269 2328 
Q 269 3456 955 4103 
Q 1641 4750 2841 4750 
Q 3341 4750 3825 4650 
Q 4309 4550 4800 4347 
L 4800 3200 
L 4403 3200 
z
" transform="scale(0.015625)"/>
     </defs>
     <use xlink:href="#DejaVuSerif-Bold-54"/>
     <use xlink:href="#DejaVuSerif-Bold-52" transform="translate(74.414062 0)"/>
     <use xlink:href="#DejaVuSerif-Bold-41" transform="translate(157.519531 0)"/>
     <use xlink:href="#DejaVuSerif-Bold-49" transform="translate(235.107422 0)"/>
     <use xlink:href="#DejaVuSerif-Bold-4e" transform="translate(281.884766 0)"/>
     <use xlink:href="#DejaVuSerif-Bold-49" transform="translate(373.291016 0)"/>
     <use xlink:href="#DejaVuSerif-Bold-4e" transform="translate(420.068359 0)"/>
     <use xlink:href="#DejaVuSerif-Bold-47" transform="translate(511.474609 0)"/>
    </g>
   </g>
   <g id="text_2">
    <!-- (noise prediction in latent space; conditioning gated by trust mask) -->
    <g style="fill: #8a9aaa" transform="translate(26.75 48.585039) scale(0.085 -0.085)">
     <defs>
      <path id="DejaVuSerif-Italic-28" d="M 1472 -997 
Q 778 -656 534 83 
Q 291 822 506 1931 
Q 722 3044 1253 3783 
Q 1784 4522 2609 4863 
L 2550 4556 
Q 2006 4225 1679 3623 
Q 1353 3022 1141 1931 
Q 928 844 1020 242 
Q 1113 -359 1531 -691 
L 1472 -997 
z
" transform="scale(0.015625)"/>
      <path id="DejaVuSerif-Italic-6e" d="M 450 0 
L 1031 2988 
L 481 2988 
L 544 3322 
L 1669 3322 
L 1556 2731 
Q 1781 3069 2068 3241 
Q 2356 3413 2694 3413 
Q 3244 3413 3444 3097 
Q 3563 2906 3563 2588 
Q 3563 2378 3509 2113 
L 3163 331 
L 3675 331 
L 3613 0 
L 2522 0 
L 2897 1931 
Q 2959 2253 2959 2469 
Q 2959 2659 2909 2769 
Q 2803 2994 2425 2994 
Q 2025 2994 1759 2701 
Q 1494 2409 1384 1850 
L 1025 0 
L 450 0 
z
" transform="scale(0.015625)"/>
      <path id="DejaVuSerif-Italic-6f" d="M 1644 219 
Q 2106 219 2414 584 
Q 2722 950 2859 1663 
Q 2922 1988 2922 2241 
Q 2922 2541 2834 2738 
Q 2669 3103 2206 3103 
Q 1744 3103 1436 2739 
Q 1128 2375 991 1663 
Q 928 1338 928 1088 
Q 928 784 1019 584 
Q 1184 219 1644 219 
z
M 1584 -91 
Q 859 -91 513 388 
Q 272 722 272 1203 
Q 272 1419 319 1663 
Q 472 2456 1005 2934 
Q 1538 3413 2266 3413 
Q 2994 3413 3341 2934 
Q 3578 2603 3578 2122 
Q 3578 1906 3531 1663 
Q 3378 869 2845 389 
Q 2313 -91 1584 -91 
z
" transform="scale(0.015625)"/>
      <path id="DejaVuSerif-Italic-69" d="M 1009 4353 
Q 1038 4497 1163 4603 
Q 1288 4709 1434 4709 
Q 1578 4709 1663 4603 
Q 1728 4522 1728 4422 
Q 1728 4388 1719 4353 
Q 1691 4206 1567 4103 
Q 1444 4000 1297 4000 
Q 1150 4000 1066 4103 
Q 1003 4181 1003 4281 
Q 1003 4316 1009 4353 
z
M 963 331 
L 1506 331 
L 1444 0 
L 325 0 
L 903 2988 
L 353 2988 
L 419 3322 
L 1544 3322 
L 963 331 
z
" transform="scale(0.015625)"/>
      <path id="DejaVuSerif-Italic-73" d="M 222 959 
L 553 959 
Q 541 869 541 788 
Q 541 219 1313 219 
Q 2088 219 2200 788 
Q 2209 844 2209 944 
Q 2209 1041 2103 1158 
Q 1997 1275 1550 1428 
L 1159 1569 
Q 759 1706 629 1882 
Q 500 2059 500 2263 
Q 500 2344 516 2438 
Q 606 2894 990 3153 
Q 1375 3413 1931 3413 
Q 2484 3413 3066 3144 
L 2925 2419 
L 2594 2419 
Q 2606 2491 2606 2553 
Q 2606 2781 2448 2942 
Q 2291 3103 1925 3103 
Q 1191 3103 1091 2591 
Q 1078 2538 1078 2444 
Q 1078 2347 1179 2237 
Q 1281 2128 1678 1997 
L 2106 1856 
Q 2550 1709 2716 1488 
Q 2831 1331 2831 1178 
Q 2831 522 2306 181 
Q 1894 -91 1262 -91 
Q 631 -91 72 184 
L 222 959 
z
" transform="scale(0.015625)"/>
      <path id="DejaVuSerif-Italic-65" d="M 938 1275 
Q 925 1156 925 1050 
Q 925 756 1031 563 
Q 1216 219 1709 219 
Q 2072 219 2250 328 
Q 2569 525 2644 778 
L 3066 778 
Q 2941 381 2475 103 
Q 2150 -91 1506 -91 
Q 863 -91 516 388 
Q 272 722 272 1206 
Q 272 1419 319 1659 
Q 472 2450 1000 2931 
Q 1528 3413 2278 3413 
Q 3500 3413 3500 2547 
Q 3500 1913 2859 1603 
Q 2206 1288 938 1275 
z
M 2541 1975 
Q 2891 2181 2891 2569 
Q 2891 3103 2181 3103 
Q 1763 3103 1472 2784 
Q 1181 2466 1003 1606 
Q 2006 1653 2541 1975 
z
" transform="scale(0.015625)"/>
      <path id="DejaVuSerif-Italic-20" transform="scale(0.015625)"/>
      <path id="DejaVuSerif-Italic-70" d="M 1466 1825 
L 1400 1497 
Q 1353 1250 1353 1053 
Q 1353 769 1453 581 
Q 1622 269 2059 269 
Q 2500 269 2795 622 
Q 3091 975 3225 1663 
Q 3284 1978 3284 2225 
Q 3284 2513 3200 2703 
Q 3041 3053 2600 3053 
Q 2163 3053 1872 2737 
Q 1581 2422 1466 1825 
z
M 1116 2988 
L 563 2988 
L 628 3322 
L 1756 3322 
L 1656 2803 
Q 1884 3116 2175 3264 
Q 2466 3413 2850 3413 
Q 3463 3413 3753 2928 
Q 3947 2609 3947 2163 
Q 3947 1928 3897 1663 
Q 3744 881 3262 395 
Q 2781 -91 2169 -91 
Q 1784 -91 1551 57 
Q 1319 206 1213 519 
L 850 -1331 
L 275 -1331 
L 1116 2988 
z
" transform="scale(0.015625)"/>
      <path id="DejaVuSerif-Italic-72" d="M 3375 3328 
L 3213 2497 
L 2881 2497 
Q 2891 2559 2891 2613 
Q 2891 2775 2816 2866 
Q 2719 2988 2484 2988 
Q 2059 2988 1775 2694 
Q 1491 2400 1384 1850 
L 1025 0 
L 450 0 
L 1031 2994 
L 481 2994 
L 544 3322 
L 1669 3322 
L 1556 2731 
Q 1791 3078 2089 3245 
Q 2388 3413 2769 3413 
Q 2909 3413 3059 3391 
Q 3209 3369 3375 3328 
z
" transform="scale(0.015625)"/>
      <path id="DejaVuSerif-Italic-64" d="M 3841 4863 
L 2897 0 
L 2322 0 
L 2422 519 
Q 2191 206 1902 57 
Q 1613 -91 1228 -91 
Q 616 -91 322 394 
Q 125 716 125 1166 
Q 125 1397 178 1663 
Q 331 2444 812 2928 
Q 1294 3413 1909 3413 
Q 2294 3413 2525 3264 
Q 2756 3116 2866 2803 
L 3200 4531 
L 2656 4531 
L 2722 4863 
L 3841 4863 
z
M 2613 1497 
L 2675 1825 
Q 2722 2069 2722 2266 
Q 2722 2550 2622 2738 
Q 2456 3053 2019 3053 
Q 1575 3053 1279 2703 
Q 984 2353 850 1663 
Q 788 1347 788 1103 
Q 788 813 875 622 
Q 1031 269 1475 269 
Q 1913 269 2203 583 
Q 2494 897 2613 1497 
z
" transform="scale(0.015625)"/>
      <path id="DejaVuSerif-Italic-63" d="M 3163 997 
Q 2938 466 2536 187 
Q 2134 -91 1584 -91 
Q 859 -91 513 388 
Q 272 722 272 1203 
Q 272 1419 319 1663 
Q 475 2459 1008 2936 
Q 1541 3413 2266 3413 
Q 2581 3413 2879 3339 
Q 3178 3266 3463 3116 
L 3300 2266 
L 2966 2266 
Q 2966 2309 2966 2347 
Q 2966 2722 2803 2903 
Q 2622 3103 2213 3103 
Q 1747 3103 1439 2742 
Q 1131 2381 991 1663 
Q 928 1334 928 1078 
Q 928 778 1016 581 
Q 1181 219 1650 219 
Q 2022 219 2281 412 
Q 2541 606 2700 997 
L 3163 997 
z
" transform="scale(0.015625)"/>
      <path id="DejaVuSerif-Italic-74" d="M 856 2988 
L 350 2988 
L 416 3322 
L 922 3322 
L 1122 4353 
L 1700 4353 
L 1500 3322 
L 2581 3322 
L 2516 2988 
L 1434 2988 
L 1025 878 
Q 978 631 978 488 
Q 978 388 1000 338 
Q 1059 219 1278 219 
Q 1503 219 1633 351 
Q 1763 484 1825 781 
L 2259 781 
Q 2147 328 1884 118 
Q 1622 -91 1169 -91 
Q 672 -91 506 131 
Q 406 266 406 516 
Q 406 675 447 878 
L 856 2988 
z
" transform="scale(0.015625)"/>
      <path id="DejaVuSerif-Italic-6c" d="M 903 331 
L 1447 331 
L 1384 0 
L 266 0 
L 1147 4531 
L 594 4531 
L 656 4863 
L 1784 4863 
L 903 331 
z
" transform="scale(0.015625)"/>
      <path id="DejaVuSerif-Italic-61" d="M 2325 519 
Q 1909 -91 1238 -91 
Q 688 -91 409 281 
Q 216 544 216 919 
Q 216 1078 250 1256 
Q 463 2359 1231 2928 
Q 1884 3413 2675 3413 
Q 3206 3413 3388 3322 
L 2806 331 
L 3300 331 
L 3238 0 
L 2225 0 
L 2325 519 
z
M 822 938 
Q 822 269 1469 269 
Q 1863 269 2130 583 
Q 2397 897 2516 1497 
L 2806 3003 
L 2806 3003 
Q 2806 3094 2556 3094 
Q 1956 3094 1491 2625 
Q 1028 2153 863 1297 
Q 822 1097 822 938 
z
" transform="scale(0.015625)"/>
      <path id="DejaVuSerif-Italic-3b" d="M -72 -622 
Q 263 -406 458 -114 
Q 653 178 734 594 
L 756 709 
L 1372 709 
Q 1244 175 942 -208 
Q 641 -591 128 -872 
L -72 -622 
z
M 1019 2067 
Q 922 2188 956 2363 
Q 991 2538 1134 2658 
Q 1278 2778 1453 2778 
Q 1628 2778 1723 2656 
Q 1819 2534 1788 2363 
Q 1753 2188 1609 2067 
Q 1466 1947 1291 1947 
Q 1116 1947 1019 2067 
z
" transform="scale(0.015625)"/>
      <path id="DejaVuSerif-Italic-67" d="M 3822 3322 
L 3188 72 
Q 3044 -672 2581 -1031 
Q 2078 -1422 1381 -1422 
Q 1053 -1422 765 -1362 
Q 478 -1303 225 -1184 
L 363 -488 
L 663 -488 
Q 653 -813 834 -963 
Q 1016 -1113 1406 -1113 
Q 1913 -1113 2203 -825 
Q 2494 -544 2613 72 
L 2700 519 
Q 2472 206 2181 57 
Q 1891 -91 1525 -91 
Q 975 -91 697 281 
Q 522 516 503 841 
Q 491 1031 534 1256 
Q 750 2359 1516 2928 
Q 2169 3409 2931 3413 
Q 3631 3416 3822 3322 
z
M 3184 2988 
Q 3181 3094 2844 3094 
Q 2234 3094 1775 2625 
Q 1316 2153 1147 1297 
Q 1100 1044 1113 853 
Q 1125 659 1203 528 
Q 1356 269 1756 269 
Q 2194 269 2484 583 
Q 2775 897 2891 1497 
L 2953 1825 
L 3184 2988 
z
" transform="scale(0.015625)"/>
      <path id="DejaVuSerif-Italic-62" d="M 1153 4531 
L 600 4531 
L 666 4863 
L 1794 4863 
L 1394 2803 
Q 1622 3116 1912 3264 
Q 2203 3413 2588 3413 
Q 3200 3413 3494 2928 
Q 3688 2609 3688 2163 
Q 3688 1928 3634 1663 
Q 3481 881 3000 395 
Q 2519 -91 1906 -91 
Q 1522 -91 1289 57 
Q 1056 206 950 519 
L 850 0 
L 275 0 
L 1153 4531 
z
M 1141 1497 
Q 1091 1250 1091 1053 
Q 1091 769 1191 581 
Q 1359 269 1797 269 
Q 2238 269 2533 622 
Q 2828 975 2963 1663 
Q 3025 1978 3025 2225 
Q 3025 2513 2938 2703 
Q 2781 3053 2338 3053 
Q 1900 3053 1609 2737 
Q 1319 2422 1203 1825 
L 1141 1497 
z
" transform="scale(0.015625)"/>
      <path id="DejaVuSerif-Italic-79" d="M 3681 3294 
Q 3372 1506 2828 563 
Q 2031 -822 1391 -1238 
Q 1106 -1422 356 -1422 
Q 209 -1422 60 -1397 
Q -88 -1372 -238 -1325 
L -113 -691 
L 181 -691 
Q 175 -741 175 -788 
Q 175 -919 231 -994 
Q 309 -1100 513 -1100 
Q 1063 -1100 1541 -622 
L 756 2988 
L 378 2988 
L 444 3322 
L 1303 3322 
L 2041 25 
Q 2544 778 2666 1088 
Q 3059 2059 3138 2959 
L 2759 2959 
L 2825 3294 
L 3681 3294 
z
" transform="scale(0.015625)"/>
      <path id="DejaVuSerif-Italic-75" d="M 3097 3322 
L 3672 3322 
L 3091 331 
L 3634 331 
L 3572 0 
L 2453 0 
L 2566 588 
Q 2341 256 2055 82 
Q 1769 -91 1434 -91 
Q 881 -91 681 225 
Q 559 413 559 734 
Q 559 944 613 1209 
L 956 2988 
L 438 2988 
L 503 3322 
L 1600 3322 
L 1225 1388 
Q 1163 1066 1163 853 
Q 1163 663 1213 556 
Q 1316 331 1697 331 
Q 2097 331 2364 625 
Q 2631 919 2738 1478 
L 3097 3322 
z
" transform="scale(0.015625)"/>
      <path id="DejaVuSerif-Italic-6d" d="M 3503 2675 
Q 3741 3041 4034 3227 
Q 4328 3413 4672 3413 
Q 5194 3413 5388 3088 
Q 5503 2894 5503 2578 
Q 5503 2372 5453 2113 
L 5106 331 
L 5625 331 
L 5563 0 
L 4469 0 
L 4866 2047 
Q 4913 2291 4913 2466 
Q 4913 2659 4856 2772 
Q 4750 2988 4403 2988 
Q 4019 2988 3761 2697 
Q 3503 2406 3394 1850 
L 3034 0 
L 2459 0 
L 2863 2069 
Q 2906 2303 2906 2472 
Q 2906 2666 2850 2775 
Q 2741 2988 2394 2988 
Q 2009 2988 1751 2697 
Q 1494 2406 1384 1850 
L 1025 0 
L 450 0 
L 1031 2994 
L 481 2994 
L 544 3322 
L 1669 3322 
L 1556 2731 
Q 1778 3063 2059 3238 
Q 2341 3413 2653 3413 
Q 3041 3413 3262 3220 
Q 3484 3028 3503 2675 
z
" transform="scale(0.015625)"/>
      <path id="DejaVuSerif-Italic-6b" d="M 2113 2075 
L 3034 331 
L 3513 331 
L 3450 0 
L 2528 0 
L 1622 1697 
L 1088 1275 
L 841 0 
L 266 0 
L 1147 4531 
L 594 4531 
L 656 4863 
L 1784 4863 
L 1169 1697 
L 2822 2988 
L 2344 2988 
L 2406 3322 
L 3341 3322 
L 3278 2988 
L 2113 2075 
z
" transform="scale(0.015625)"/>
      <path id="DejaVuSerif-Italic-29" d="M -113 -997 
L -53 -691 
Q 491 -359 819 242 
Q 1147 844 1359 1931 
Q 1572 3022 1478 3623 
Q 1384 4225 966 4556 
L 1025 4863 
Q 1722 4522 1965 3783 
Q 2209 3044 1994 1931 
Q 1778 822 1247 83 
Q 716 -656 -113 -997 
z
" transform="scale(0.015625)"/>
     </defs>
     <use xlink:href="#DejaVuSerif-Italic-28"/>
     <use xlink:href="#DejaVuSerif-Italic-6e" transform="translate(39.013672 0)"/>
     <use xlink:href="#DejaVuSerif-Italic-6f" transform="translate(103.417969 0)"/>
     <use xlink:href="#DejaVuSerif-Italic-69" transform="translate(163.623047 0)"/>
     <use xlink:href="#DejaVuSerif-Italic-73" transform="translate(195.605469 0)"/>
     <use xlink:href="#DejaVuSerif-Italic-65" transform="translate(246.923828 0)"/>
     <use xlink:href="#DejaVuSerif-Italic-20" transform="translate(306.103516 0)"/>
     <use xlink:href="#DejaVuSerif-Italic-70" transform="translate(337.890625 0)"/>
     <use xlink:href="#DejaVuSerif-Italic-72" transform="translate(401.904297 0)"/>
     <use xlink:href="#DejaVuSerif-Italic-65" transform="translate(449.707031 0)"/>
     <use xlink:href="#DejaVuSerif-Italic-64" transform="translate(508.886719 0)"/>
     <use xlink:href="#DejaVuSerif-Italic-69" transform="translate(572.900391 0)"/>
     <use xlink:href="#DejaVuSerif-Italic-63" transform="translate(604.882812 0)"/>
     <use xlink:href="#DejaVuSerif-Italic-74" transform="translate(660.888672 0)"/>
     <use xlink:href="#DejaVuSerif-Italic-69" transform="translate(701.074219 0)"/>
     <use xlink:href="#DejaVuSerif-Italic-6f" transform="translate(733.056641 0)"/>
     <use xlink:href="#DejaVuSerif-Italic-6e" transform="translate(793.261719 0)"/>
     <use xlink:href="#DejaVuSerif-Italic-20" transform="translate(857.666016 0)"/>
     <use xlink:href="#DejaVuSerif-Italic-69" transform="translate(889.453125 0)"/>
     <use xlink:href="#DejaVuSerif-Italic-6e" transform="translate(921.435547 0)"/>
     <use xlink:href="#DejaVuSerif-Italic-20" transform="translate(985.839844 0)"/>
     <use xlink:href="#DejaVuSerif-Italic-6c" transform="translate(1017.626953 0)"/>
     <use xlink:href="#DejaVuSerif-Italic-61" transform="translate(1049.609375 0)"/>
     <use xlink:href="#DejaVuSerif-Italic-74" transform="translate(1109.228516 0)"/>
     <use xlink:href="#DejaVuSerif-Italic-65" transform="translate(1149.414062 0)"/>
     <use xlink:href="#DejaVuSerif-Italic-6e" transform="translate(1208.59375 0)"/>
     <use xlink:href="#DejaVuSerif-Italic-74" transform="translate(1272.998047 0)"/>
     <use xlink:href="#DejaVuSerif-Italic-20" transform="translate(1313.183594 0)"/>
     <use xlink:href="#DejaVuSerif-Italic-73" transform="translate(1344.970703 0)"/>
     <use xlink:href="#DejaVuSerif-Italic-70" transform="translate(1396.289062 0)"/>
     <use xlink:href="#DejaVuSerif-Italic-61" transform="translate(1460.302734 0)"/>
     <use xlink:href="#DejaVuSerif-Italic-63" transform="translate(1519.921875 0)"/>
     <use xlink:href="#DejaVuSerif-Italic-65" transform="translate(1575.927734 0)"/>
     <use xlink:href="#DejaVuSerif-Italic-3b" transform="translate(1635.107422 0)"/>
     <use xlink:href="#DejaVuSerif-Italic-20" transform="translate(1668.798828 0)"/>
     <use xlink:href="#DejaVuSerif-Italic-63" transform="translate(1700.585938 0)"/>
     <use xlink:href="#DejaVuSerif-Italic-6f" transform="translate(1756.591797 0)"/>
     <use xlink:href="#DejaVuSerif-Italic-6e" transform="translate(1816.796875 0)"/>
     <use xlink:href="#DejaVuSerif-Italic-64" transform="translate(1881.201172 0)"/>
     <use xlink:href="#DejaVuSerif-Italic-69" transform="translate(1945.214844 0)"/>
     <use xlink:href="#DejaVuSerif-Italic-74" transform="translate(1977.197266 0)"/>
     <use xlink:href="#DejaVuSerif-Italic-69" transform="translate(2017.382812 0)"/>
     <use xlink:href="#DejaVuSerif-Italic-6f" transform="translate(2049.365234 0)"/>
     <use xlink:href="#DejaVuSerif-Italic-6e" transform="translate(2109.570312 0)"/>
     <use xlink:href="#DejaVuSerif-Italic-69" transform="translate(2173.974609 0)"/>
     <use xlink:href="#DejaVuSerif-Italic-6e" transform="translate(2205.957031 0)"/>
     <use xlink:href="#DejaVuSerif-Italic-67" transform="translate(2270.361328 0)"/>
     <use xlink:href="#DejaVuSerif-Italic-20" transform="translate(2334.375 0)"/>
     <use xlink:href="#DejaVuSerif-Italic-67" transform="translate(2366.162109 0)"/>
     <use xlink:href="#DejaVuSerif-Italic-61" transform="translate(2430.175781 0)"/>
     <use xlink:href="#DejaVuSerif-Italic-74" transform="translate(2489.794922 0)"/>
     <use xlink:href="#DejaVuSerif-Italic-65" transform="translate(2529.980469 0)"/>
     <use xlink:href="#DejaVuSerif-Italic-64" transform="translate(2589.160156 0)"/>
     <use xlink:href="#DejaVuSerif-Italic-20" transform="translate(2653.173828 0)"/>
     <use xlink:href="#DejaVuSerif-Italic-62" transform="translate(2684.960938 0)"/>
     <use xlink:href="#DejaVuSerif-Italic-79" transform="translate(2748.974609 0)"/>
     <use xlink:href="#DejaVuSerif-Italic-20" transform="translate(2805.46875 0)"/>
     <use xlink:href="#DejaVuSerif-Italic-74" transform="translate(2837.255859 0)"/>
     <use xlink:href="#DejaVuSerif-Italic-72" transform="translate(2877.441406 0)"/>
     <use xlink:href="#DejaVuSerif-Italic-75" transform="translate(2925.244141 0)"/>
     <use xlink:href="#DejaVuSerif-Italic-73" transform="translate(2989.648438 0)"/>
     <use xlink:href="#DejaVuSerif-Italic-74" transform="translate(3040.966797 0)"/>
     <use xlink:href="#DejaVuSerif-Italic-20" transform="translate(3081.152344 0)"/>
     <use xlink:href="#DejaVuSerif-Italic-6d" transform="translate(3112.939453 0)"/>
     <use xlink:href="#DejaVuSerif-Italic-61" transform="translate(3207.763672 0)"/>
     <use xlink:href="#DejaVuSerif-Italic-73" transform="translate(3267.382812 0)"/>
     <use xlink:href="#DejaVuSerif-Italic-6b" transform="translate(3318.701172 0)"/>
     <use xlink:href="#DejaVuSerif-Italic-29" transform="translate(3379.296875 0)"/>
    </g>
   </g>
   <g id="text_3">
    <!-- SMILES -->
    <g style="fill: #1f2c3a" transform="translate(62.260156 82.984219) scale(0.125 -0.125)">
     <defs>
      <path id="DejaVuSerif-Bold-53" d="M 494 225 
L 494 1331 
L 891 1331 
Q 981 806 1318 547 
Q 1656 288 2253 288 
Q 2738 288 2991 472 
Q 3244 656 3244 1013 
Q 3244 1294 3072 1450 
Q 2900 1606 2363 1741 
L 1663 1913 
Q 978 2088 700 2398 
Q 422 2709 422 3284 
Q 422 3978 883 4364 
Q 1344 4750 2175 4750 
Q 2584 4750 3026 4681 
Q 3469 4613 3944 4475 
L 3944 3444 
L 3547 3444 
Q 3456 3925 3150 4148 
Q 2844 4372 2278 4372 
Q 1816 4372 1580 4211 
Q 1344 4050 1344 3731 
Q 1344 3441 1506 3289 
Q 1669 3138 2303 2975 
L 3003 2803 
Q 3653 2641 3945 2297 
Q 4238 1953 4238 1350 
Q 4238 644 3750 276 
Q 3263 -91 2316 -91 
Q 1859 -91 1409 -12 
Q 959 66 494 225 
z
" transform="scale(0.015625)"/>
      <path id="DejaVuSerif-Bold-4d" d="M 269 0 
L 269 378 
L 863 378 
L 863 4288 
L 269 4288 
L 269 4666 
L 2194 4666 
L 3525 1672 
L 4863 4666 
L 6784 4666 
L 6784 4288 
L 6188 4288 
L 6188 378 
L 6784 378 
L 6784 0 
L 4384 0 
L 4384 378 
L 4978 378 
L 4978 3938 
L 3531 684 
L 2741 684 
L 1300 3938 
L 1300 378 
L 1894 378 
L 1894 0 
L 269 0 
z
" transform="scale(0.015625)"/>
      <path id="DejaVuSerif-Bold-4c" d="M 300 0 
L 300 378 
L 897 378 
L 897 4288 
L 300 4288 
L 300 4666 
L 2700 4666 
L 2700 4288 
L 2100 4288 
L 2100 428 
L 3938 428 
L 3938 1166 
L 4359 1166 
L 4359 0 
L 300 0 
z
" transform="scale(0.015625)"/>
      <path id="DejaVuSerif-Bold-45" d="M 300 0 
L 300 378 
L 897 378 
L 897 4288 
L 300 4288 
L 300 4666 
L 4494 4666 
L 4494 3566 
L 4063 3566 
L 4063 4238 
L 2100 4238 
L 2100 2741 
L 3322 2741 
L 3322 3334 
L 3750 3334 
L 3750 1722 
L 3322 1722 
L 3322 2316 
L 2100 2316 
L 2100 428 
L 4122 428 
L 4122 1100 
L 4550 1100 
L 4550 0 
L 300 0 
z
" transform="scale(0.015625)"/>
     </defs>
     <use xlink:href="#DejaVuSerif-Bold-53"/>
     <use xlink:href="#DejaVuSerif-Bold-4d" transform="translate(72.216797 0)"/>
     <use xlink:href="#DejaVuSerif-Bold-49" transform="translate(182.910156 0)"/>
     <use xlink:href="#DejaVuSerif-Bold-4c" transform="translate(229.6875 0)"/>
     <use xlink:href="#DejaVuSerif-Bold-45" transform="translate(300 0)"/>
     <use xlink:href="#DejaVuSerif-Bold-53" transform="translate(376.220703 0)"/>
    </g>
   </g>
   <g id="text_4">
    <!-- SELFIES tokens -->
    <g style="fill: #5a6a7a" transform="translate(51.053984 106.593906) scale(0.095 -0.095)">
     <defs>
      <path id="DejaVuSerif-Italic-53" d="M 184 225 
L 391 1288 
L 750 1284 
Q 663 753 905 498 
Q 1147 244 1744 244 
Q 2300 244 2636 464 
Q 2972 684 3053 1106 
Q 3119 1444 2976 1625 
Q 2834 1806 2300 1978 
L 1722 2163 
Q 1091 2366 877 2669 
Q 663 2972 766 3500 
Q 881 4094 1367 4422 
Q 1853 4750 2616 4750 
Q 2941 4750 3314 4679 
Q 3688 4609 4097 4475 
L 3906 3481 
L 3553 3481 
Q 3594 3975 3361 4195 
Q 3128 4416 2563 4416 
Q 2069 4416 1772 4214 
Q 1475 4013 1400 3628 
Q 1334 3294 1490 3103 
Q 1647 2913 2241 2725 
L 2784 2553 
Q 3381 2363 3593 2067 
Q 3806 1772 3709 1275 
Q 3578 597 3076 253 
Q 2575 -91 1716 -91 
Q 1331 -91 948 -12 
Q 566 66 184 225 
z
" transform="scale(0.015625)"/>
      <path id="DejaVuSerif-Italic-45" d="M -97 0 
L -34 331 
L 559 331 
L 1338 4331 
L 744 4331 
L 809 4666 
L 4566 4666 
L 4366 3628 
L 3981 3628 
L 4106 4281 
L 1963 4281 
L 1659 2719 
L 3188 2719 
L 3300 3303 
L 3684 3303 
L 3384 1753 
L 3000 1753 
L 3113 2338 
L 1584 2338 
L 1206 384 
L 3400 384 
L 3525 1038 
L 3909 1038 
L 3709 0 
L -97 0 
z
" transform="scale(0.015625)"/>
      <path id="DejaVuSerif-Italic-4c" d="M -97 0 
L -34 331 
L 559 331 
L 1338 4331 
L 744 4331 
L 809 4666 
L 2631 4666 
L 2566 4331 
L 1972 4331 
L 1206 384 
L 3338 384 
L 3488 1166 
L 3872 1166 
L 3647 0 
L -97 0 
z
" transform="scale(0.015625)"/>
      <path id="DejaVuSerif-Italic-46" d="M -97 0 
L -34 331 
L 559 331 
L 1338 4331 
L 744 4331 
L 809 4666 
L 4628 4666 
L 4428 3628 
L 4044 3628 
L 4169 4281 
L 1963 4281 
L 1659 2719 
L 3253 2719 
L 3366 3303 
L 3750 3303 
L 3450 1753 
L 3066 1753 
L 3178 2338 
L 1584 2338 
L 1194 331 
L 1941 331 
L 1878 0 
L -97 0 
z
" transform="scale(0.015625)"/>
      <path id="DejaVuSerif-Italic-49" d="M 1194 331 
L 1788 331 
L 1725 0 
L -97 0 
L -34 331 
L 559 331 
L 1338 4331 
L 744 4331 
L 809 4666 
L 2631 4666 
L 2566 4331 
L 1972 4331 
L 1194 331 
z
" transform="scale(0.015625)"/>
     </defs>
     <use xlink:href="#DejaVuSerif-Italic-53"/>
     <use xlink:href="#DejaVuSerif-Italic-45" transform="translate(68.505859 0)"/>
     <use xlink:href="#DejaVuSerif-Italic-4c" transform="translate(141.503906 0)"/>
     <use xlink:href="#DejaVuSerif-Italic-46" transform="translate(207.910156 0)"/>
     <use xlink:href="#DejaVuSerif-Italic-49" transform="translate(277.294922 0)"/>
     <use xlink:href="#DejaVuSerif-Italic-45" transform="translate(316.796875 0)"/>
     <use xlink:href="#DejaVuSerif-Italic-53" transform="translate(389.794922 0)"/>
     <use xlink:href="#DejaVuSerif-Italic-20" transform="translate(458.300781 0)"/>
     <use xlink:href="#DejaVuSerif-Italic-74" transform="translate(490.087891 0)"/>
     <use xlink:href="#DejaVuSerif-Italic-6f" transform="translate(530.273438 0)"/>
     <use xlink:href="#DejaVuSerif-Italic-6b" transform="translate(590.478516 0)"/>
     <use xlink:href="#DejaVuSerif-Italic-65" transform="translate(651.074219 0)"/>
     <use xlink:href="#DejaVuSerif-Italic-6e" transform="translate(710.253906 0)"/>
     <use xlink:href="#DejaVuSerif-Italic-73" transform="translate(774.658203 0)"/>
    </g>
   </g>
   <g id="text_5">
    <!-- LIMO encoder -->
    <g style="fill: #1f2c3a" transform="translate(186.921289 82.984219) scale(0.125 -0.125)">
     <defs>
      <path id="DejaVuSerif-Bold-4f" d="M 2784 288 
Q 3381 288 3672 791 
Q 3963 1294 3963 2328 
Q 3963 3366 3672 3869 
Q 3381 4372 2784 4372 
Q 2191 4372 1898 3864 
Q 1606 3356 1606 2328 
Q 1606 1303 1898 795 
Q 2191 288 2784 288 
z
M 2784 -91 
Q 1606 -91 937 553 
Q 269 1197 269 2328 
Q 269 3459 939 4104 
Q 1609 4750 2784 4750 
Q 3963 4750 4631 4106 
Q 5300 3463 5300 2328 
Q 5300 1197 4629 553 
Q 3959 -91 2784 -91 
z
" transform="scale(0.015625)"/>
      <path id="DejaVuSerif-Bold-20" transform="scale(0.015625)"/>
      <path id="DejaVuSerif-Bold-65" d="M 2566 1875 
Q 2566 2531 2444 2795 
Q 2322 3059 2028 3059 
Q 1744 3059 1620 2800 
Q 1497 2541 1497 1931 
L 1497 1875 
L 2566 1875 
z
M 3781 1503 
L 1497 1503 
L 1497 1478 
Q 1497 834 1690 548 
Q 1884 263 2316 263 
Q 2675 263 2897 453 
Q 3119 644 3181 1006 
L 3700 1006 
Q 3566 441 3166 175 
Q 2766 -91 2047 -91 
Q 1184 -91 723 364 
Q 263 819 263 1663 
Q 263 2488 734 2950 
Q 1206 3413 2047 3413 
Q 2872 3413 3312 2927 
Q 3753 2441 3781 1503 
z
" transform="scale(0.015625)"/>
      <path id="DejaVuSerif-Bold-6e" d="M 219 0 
L 219 378 
L 691 378 
L 691 2944 
L 219 2944 
L 219 3322 
L 1797 3322 
L 1797 2853 
Q 1997 3150 2253 3281 
Q 2509 3413 2900 3413 
Q 3459 3413 3745 3083 
Q 4031 2753 4031 2113 
L 4031 378 
L 4506 378 
L 4506 0 
L 2522 0 
L 2522 378 
L 2925 378 
L 2925 2144 
Q 2925 2566 2817 2730 
Q 2709 2894 2444 2894 
Q 2109 2894 1953 2648 
Q 1797 2403 1797 1869 
L 1797 378 
L 2203 378 
L 2203 0 
L 219 0 
z
" transform="scale(0.015625)"/>
      <path id="DejaVuSerif-Bold-63" d="M 3609 1038 
Q 3491 469 3123 189 
Q 2756 -91 2125 -91 
Q 1238 -91 750 368 
Q 263 828 263 1663 
Q 263 2488 744 2950 
Q 1225 3413 2081 3413 
Q 2428 3413 2781 3347 
Q 3134 3281 3500 3150 
L 3500 2228 
L 3150 2228 
Q 3100 2650 2903 2854 
Q 2706 3059 2350 3059 
Q 1888 3059 1692 2746 
Q 1497 2434 1497 1663 
Q 1497 909 1687 586 
Q 1878 263 2309 263 
Q 2644 263 2845 463 
Q 3047 663 3091 1038 
L 3609 1038 
z
" transform="scale(0.015625)"/>
      <path id="DejaVuSerif-Bold-6f" d="M 2138 263 
Q 2488 263 2630 563 
Q 2772 863 2772 1663 
Q 2772 2463 2631 2761 
Q 2491 3059 2138 3059 
Q 1784 3059 1640 2757 
Q 1497 2456 1497 1663 
Q 1497 869 1640 566 
Q 1784 263 2138 263 
z
M 2138 -91 
Q 1259 -91 761 376 
Q 263 844 263 1663 
Q 263 2484 761 2948 
Q 1259 3413 2138 3413 
Q 3019 3413 3516 2948 
Q 4013 2484 4013 1663 
Q 4013 844 3514 376 
Q 3016 -91 2138 -91 
z
" transform="scale(0.015625)"/>
      <path id="DejaVuSerif-Bold-64" d="M 2747 1497 
L 2747 1825 
Q 2747 2406 2597 2665 
Q 2447 2925 2119 2925 
Q 1775 2925 1636 2651 
Q 1497 2378 1497 1663 
Q 1497 947 1637 672 
Q 1778 397 2119 397 
Q 2447 397 2597 656 
Q 2747 916 2747 1497 
z
M 3853 378 
L 4325 378 
L 4325 0 
L 2747 0 
L 2747 422 
Q 2606 163 2367 36 
Q 2128 -91 1778 -91 
Q 1072 -91 667 378 
Q 263 847 263 1663 
Q 263 2481 667 2947 
Q 1072 3413 1778 3413 
Q 2128 3413 2367 3286 
Q 2606 3159 2747 2900 
L 2747 4488 
L 2272 4488 
L 2272 4863 
L 3853 4863 
L 3853 378 
z
" transform="scale(0.015625)"/>
      <path id="DejaVuSerif-Bold-72" d="M 3438 3359 
L 3438 2369 
L 3084 2369 
Q 3066 2634 2941 2764 
Q 2816 2894 2578 2894 
Q 2216 2894 2006 2575 
Q 1797 2256 1797 1691 
L 1797 378 
L 2400 378 
L 2400 0 
L 219 0 
L 219 378 
L 691 378 
L 691 2944 
L 184 2944 
L 184 3322 
L 1797 3322 
L 1797 2731 
Q 1959 3078 2226 3245 
Q 2494 3413 2881 3413 
Q 2978 3413 3117 3398 
Q 3256 3384 3438 3359 
z
" transform="scale(0.015625)"/>
     </defs>
     <use xlink:href="#DejaVuSerif-Bold-4c"/>
     <use xlink:href="#DejaVuSerif-Bold-49" transform="translate(70.3125 0)"/>
     <use xlink:href="#DejaVuSerif-Bold-4d" transform="translate(117.089844 0)"/>
     <use xlink:href="#DejaVuSerif-Bold-4f" transform="translate(227.783203 0)"/>
     <use xlink:href="#DejaVuSerif-Bold-20" transform="translate(314.892578 0)"/>
     <use xlink:href="#DejaVuSerif-Bold-65" transform="translate(349.707031 0)"/>
     <use xlink:href="#DejaVuSerif-Bold-6e" transform="translate(413.330078 0)"/>
     <use xlink:href="#DejaVuSerif-Bold-63" transform="translate(486.035156 0)"/>
     <use xlink:href="#DejaVuSerif-Bold-6f" transform="translate(546.923828 0)"/>
     <use xlink:href="#DejaVuSerif-Bold-64" transform="translate(613.623047 0)"/>
     <use xlink:href="#DejaVuSerif-Bold-65" transform="translate(683.544922 0)"/>
     <use xlink:href="#DejaVuSerif-Bold-72" transform="translate(747.167969 0)"/>
    </g>
   </g>
   <g id="text_6">
    <!-- frozen, fine-tuned -->
    <g style="fill: #5a6a7a" transform="translate(193.998477 106.593906) scale(0.095 -0.095)">
     <defs>
      <path id="DejaVuSerif-Italic-66" d="M 3191 4078 
L 2888 4078 
Q 2900 4144 2900 4203 
Q 2900 4347 2825 4434 
Q 2719 4556 2472 4556 
Q 2150 4556 1984 4379 
Q 1819 4203 1731 3750 
L 1647 3322 
L 2575 3322 
L 2509 2988 
L 1581 2988 
L 963 -206 
Q 853 -763 509 -1047 
Q 166 -1331 -394 -1331 
L -356 -1025 
Q -28 -1025 131 -850 
Q 297 -663 388 -206 
L 1006 2988 
L 456 2988 
L 522 3322 
L 1072 3322 
L 1153 3738 
Q 1263 4297 1606 4578 
Q 1950 4863 2509 4863 
Q 2719 4863 2920 4825 
Q 3122 4788 3316 4709 
L 3191 4078 
z
" transform="scale(0.015625)"/>
      <path id="DejaVuSerif-Italic-7a" d="M 2550 3047 
Q 2888 3047 3216 3322 
L 3403 3322 
L 3353 3053 
L 1081 684 
Q 1113 675 1203 647 
Q 1309 613 1416 544 
L 1569 450 
Q 1863 272 2075 272 
Q 2484 272 2966 741 
L 2891 363 
Q 2356 -163 1950 -163 
Q 1703 -156 1356 59 
Q 1009 275 791 275 
Q 453 275 125 0 
L -63 0 
L -13 269 
L 2263 2634 
Q 2228 2647 2138 2675 
Q 2031 2709 1925 2778 
L 1772 2872 
Q 1478 3050 1266 3050 
Q 856 3050 375 2581 
L 450 2959 
Q 984 3484 1391 3484 
Q 1638 3478 1984 3262 
Q 2331 3047 2550 3047 
z
" transform="scale(0.015625)"/>
      <path id="DejaVuSerif-Italic-2c" d="M 125 -622 
Q 463 -406 656 -114 
Q 850 178 931 594 
L 953 709 
L 1569 709 
Q 1441 175 1139 -208 
Q 838 -591 328 -872 
L 125 -622 
z
" transform="scale(0.015625)"/>
      <path id="DejaVuSerif-Italic-2d" d="M 328 1959 
L 1928 1959 
L 1834 1472 
L 234 1472 
L 328 1959 
z
" transform="scale(0.015625)"/>
     </defs>
     <use xlink:href="#DejaVuSerif-Italic-66"/>
     <use xlink:href="#DejaVuSerif-Italic-72" transform="translate(37.011719 0)"/>
     <use xlink:href="#DejaVuSerif-Italic-6f" transform="translate(84.814453 0)"/>
     <use xlink:href="#DejaVuSerif-Italic-7a" transform="translate(145.019531 0)"/>
     <use xlink:href="#DejaVuSerif-Italic-65" transform="translate(197.705078 0)"/>
     <use xlink:href="#DejaVuSerif-Italic-6e" transform="translate(256.884766 0)"/>
     <use xlink:href="#DejaVuSerif-Italic-2c" transform="translate(321.289062 0)"/>
     <use xlink:href="#DejaVuSerif-Italic-20" transform="translate(353.076172 0)"/>
     <use xlink:href="#DejaVuSerif-Italic-66" transform="translate(384.863281 0)"/>
     <use xlink:href="#DejaVuSerif-Italic-69" transform="translate(421.875 0)"/>
     <use xlink:href="#DejaVuSerif-Italic-6e" transform="translate(453.857422 0)"/>
     <use xlink:href="#DejaVuSerif-Italic-65" transform="translate(518.261719 0)"/>
     <use xlink:href="#DejaVuSerif-Italic-2d" transform="translate(577.441406 0)"/>
     <use xlink:href="#DejaVuSerif-Italic-74" transform="translate(611.230469 0)"/>
     <use xlink:href="#DejaVuSerif-Italic-75" transform="translate(651.416016 0)"/>
     <use xlink:href="#DejaVuSerif-Italic-6e" transform="translate(715.820312 0)"/>
     <use xlink:href="#DejaVuSerif-Italic-65" transform="translate(780.224609 0)"/>
     <use xlink:href="#DejaVuSerif-Italic-64" transform="translate(839.404297 0)"/>
    </g>
   </g>
   <g id="text_7">
    <!-- Latent z (1024-d) -->
    <g style="fill: #1f2c3a" transform="translate(337.288867 82.984219) scale(0.125 -0.125)">
     <defs>
      <path id="DejaVuSerif-Bold-61" d="M 3525 2041 
L 3525 378 
L 4000 378 
L 4000 0 
L 2419 0 
L 2419 422 
Q 2200 159 1931 34 
Q 1663 -91 1319 -91 
Q 809 -91 536 182 
Q 263 456 263 966 
Q 263 1525 655 1803 
Q 1047 2081 1838 2081 
L 2419 2081 
L 2419 2278 
Q 2419 2681 2228 2873 
Q 2038 3066 1638 3066 
Q 1306 3066 1126 2930 
Q 947 2794 872 2484 
L 519 2484 
L 519 3200 
Q 816 3306 1134 3359 
Q 1453 3413 1806 3413 
Q 2697 3413 3111 3081 
Q 3525 2750 3525 2041 
z
M 2419 1044 
L 2419 1709 
L 2003 1709 
Q 1694 1709 1528 1540 
Q 1363 1372 1363 1056 
Q 1363 741 1483 584 
Q 1603 428 1850 428 
Q 2106 428 2262 597 
Q 2419 766 2419 1044 
z
" transform="scale(0.015625)"/>
      <path id="DejaVuSerif-Bold-74" d="M 634 2944 
L 153 2944 
L 153 3322 
L 634 3322 
L 634 4353 
L 1741 4353 
L 1741 3322 
L 2663 3322 
L 2663 2944 
L 1741 2944 
L 1741 909 
Q 1741 475 1809 369 
Q 1878 263 2059 263 
Q 2259 263 2356 397 
Q 2453 531 2459 813 
L 2925 813 
Q 2897 313 2651 111 
Q 2406 -91 1806 -91 
Q 1122 -91 878 123 
Q 634 338 634 909 
L 634 2944 
z
" transform="scale(0.015625)"/>
      <path id="DejaVuSerif-Bold-7a" d="M 225 0 
L 225 378 
L 2131 2956 
L 697 2956 
L 697 2388 
L 325 2388 
L 325 3322 
L 3419 3322 
L 3419 2950 
L 1509 372 
L 3047 372 
L 3047 972 
L 3419 972 
L 3419 0 
L 225 0 
z
" transform="scale(0.015625)"/>
      <path id="DejaVuSerif-Bold-28" d="M 2694 -997 
Q 1641 -606 1122 122 
Q 603 850 603 1931 
Q 603 3013 1115 3731 
Q 1628 4450 2694 4863 
L 2694 4488 
Q 2200 4188 1983 3598 
Q 1766 3009 1766 1931 
Q 1766 856 1983 267 
Q 2200 -322 2694 -622 
L 2694 -997 
z
" transform="scale(0.015625)"/>
      <path id="DejaVuSerif-Bold-31" d="M 878 0 
L 878 378 
L 1753 378 
L 1753 4153 
L 781 3578 
L 781 4044 
L 1953 4750 
L 2938 4750 
L 2938 378 
L 3816 378 
L 3816 0 
L 878 0 
z
" transform="scale(0.015625)"/>
      <path id="DejaVuSerif-Bold-30" d="M 2228 275 
Q 2603 275 2742 615 
Q 2881 956 2881 2328 
Q 2881 3691 2742 4037 
Q 2603 4384 2228 4384 
Q 1853 4384 1714 4043 
Q 1575 3703 1575 2328 
Q 1575 956 1714 615 
Q 1853 275 2228 275 
z
M 2228 -91 
Q 1294 -91 797 532 
Q 300 1156 300 2328 
Q 300 3500 797 4125 
Q 1294 4750 2228 4750 
Q 3159 4750 3656 4125 
Q 4153 3500 4153 2328 
Q 4153 1156 3656 532 
Q 3159 -91 2228 -91 
z
" transform="scale(0.015625)"/>
      <path id="DejaVuSerif-Bold-32" d="M 844 3513 
L 469 3513 
L 469 4519 
Q 850 4634 1223 4692 
Q 1597 4750 1978 4750 
Q 2869 4750 3367 4386 
Q 3866 4022 3866 3372 
Q 3866 2909 3591 2542 
Q 3316 2175 2541 1672 
L 1241 819 
L 3450 819 
L 3450 1369 
L 3878 1369 
L 3878 0 
L 428 0 
L 428 763 
L 1119 1241 
Q 2003 1850 2297 2278 
Q 2591 2706 2591 3278 
Q 2591 3819 2367 4101 
Q 2144 4384 1716 4384 
Q 1347 4384 1125 4161 
Q 903 3938 844 3513 
z
" transform="scale(0.015625)"/>
      <path id="DejaVuSerif-Bold-34" d="M 4084 0 
L 1516 0 
L 1516 378 
L 2209 378 
L 2209 1228 
L 263 1228 
L 263 1588 
L 2216 4750 
L 3391 4750 
L 3391 1631 
L 4191 1631 
L 4191 1228 
L 3391 1228 
L 3391 378 
L 4084 378 
L 4084 0 
z
M 2209 1631 
L 2209 3897 
L 819 1631 
L 2209 1631 
z
" transform="scale(0.015625)"/>
      <path id="DejaVuSerif-Bold-2d" d="M 347 2138 
L 2309 2138 
L 2309 1294 
L 347 1294 
L 347 2138 
z
" transform="scale(0.015625)"/>
      <path id="DejaVuSerif-Bold-29" d="M 325 -997 
L 325 -622 
Q 819 -322 1036 267 
Q 1253 856 1253 1931 
Q 1253 3009 1036 3598 
Q 819 4188 325 4488 
L 325 4863 
Q 1391 4450 1905 3731 
Q 2419 3013 2419 1931 
Q 2419 850 1898 122 
Q 1378 -606 325 -997 
z
" transform="scale(0.015625)"/>
     </defs>
     <use xlink:href="#DejaVuSerif-Bold-4c"/>
     <use xlink:href="#DejaVuSerif-Bold-61" transform="translate(70.3125 0)"/>
     <use xlink:href="#DejaVuSerif-Bold-74" transform="translate(135.107422 0)"/>
     <use xlink:href="#DejaVuSerif-Bold-65" transform="translate(181.298828 0)"/>
     <use xlink:href="#DejaVuSerif-Bold-6e" transform="translate(244.921875 0)"/>
     <use xlink:href="#DejaVuSerif-Bold-74" transform="translate(317.626953 0)"/>
     <use xlink:href="#DejaVuSerif-Bold-20" transform="translate(363.818359 0)"/>
     <use xlink:href="#DejaVuSerif-Bold-7a" transform="translate(398.632812 0)"/>
     <use xlink:href="#DejaVuSerif-Bold-20" transform="translate(455.419922 0)"/>
     <use xlink:href="#DejaVuSerif-Bold-28" transform="translate(490.234375 0)"/>
     <use xlink:href="#DejaVuSerif-Bold-31" transform="translate(537.548828 0)"/>
     <use xlink:href="#DejaVuSerif-Bold-30" transform="translate(607.128906 0)"/>
     <use xlink:href="#DejaVuSerif-Bold-32" transform="translate(676.708984 0)"/>
     <use xlink:href="#DejaVuSerif-Bold-34" transform="translate(746.289062 0)"/>
     <use xlink:href="#DejaVuSerif-Bold-2d" transform="translate(815.869141 0)"/>
     <use xlink:href="#DejaVuSerif-Bold-64" transform="translate(857.373047 0)"/>
     <use xlink:href="#DejaVuSerif-Bold-29" transform="translate(927.294922 0)"/>
    </g>
   </g>
   <g id="text_8">
    <!-- cached, deterministic μ -->
    <g style="fill: #5a6a7a" transform="translate(341.550313 106.593906) scale(0.095 -0.095)">
     <defs>
      <path id="DejaVuSerif-Italic-68" d="M 309 0 
L 1191 4531 
L 641 4531 
L 703 4863 
L 1828 4863 
L 1416 2731 
Q 1641 3069 1928 3241 
Q 2216 3413 2553 3413 
Q 3103 3413 3300 3097 
Q 3422 2906 3422 2588 
Q 3422 2378 3369 2113 
L 3022 331 
L 3534 331 
L 3472 0 
L 2381 0 
L 2756 1931 
Q 2819 2253 2819 2469 
Q 2819 2659 2769 2763 
Q 2666 2988 2284 2988 
Q 1884 2988 1617 2697 
Q 1350 2406 1244 1850 
L 884 0 
L 309 0 
z
" transform="scale(0.015625)"/>
      <path id="DejaVuSerif-Italic-3bc" d="M 284 -1331 
L 1125 2988 
L 606 2988 
L 672 3322 
L 1766 3322 
L 1388 1388 
Q 1272 781 1378 556 
Q 1484 331 1863 331 
Q 2263 331 2528 625 
Q 2794 919 2903 1478 
L 3197 2988 
L 2697 2988 
L 2763 3322 
L 3838 3322 
L 3253 325 
L 3797 325 
L 3734 0 
L 2616 0 
L 2731 588 
Q 2503 256 2239 82 
Q 1975 -91 1694 -91 
Q 1516 -91 1380 -34 
Q 1244 22 1144 134 
L 859 -1331 
L 284 -1331 
z
" transform="scale(0.015625)"/>
     </defs>
     <use xlink:href="#DejaVuSerif-Italic-63"/>
     <use xlink:href="#DejaVuSerif-Italic-61" transform="translate(56.005859 0)"/>
     <use xlink:href="#DejaVuSerif-Italic-63" transform="translate(115.625 0)"/>
     <use xlink:href="#DejaVuSerif-Italic-68" transform="translate(171.630859 0)"/>
     <use xlink:href="#DejaVuSerif-Italic-65" transform="translate(236.035156 0)"/>
     <use xlink:href="#DejaVuSerif-Italic-64" transform="translate(295.214844 0)"/>
     <use xlink:href="#DejaVuSerif-Italic-2c" transform="translate(359.228516 0)"/>
     <use xlink:href="#DejaVuSerif-Italic-20" transform="translate(391.015625 0)"/>
     <use xlink:href="#DejaVuSerif-Italic-64" transform="translate(422.802734 0)"/>
     <use xlink:href="#DejaVuSerif-Italic-65" transform="translate(486.816406 0)"/>
     <use xlink:href="#DejaVuSerif-Italic-74" transform="translate(545.996094 0)"/>
     <use xlink:href="#DejaVuSerif-Italic-65" transform="translate(586.181641 0)"/>
     <use xlink:href="#DejaVuSerif-Italic-72" transform="translate(645.361328 0)"/>
     <use xlink:href="#DejaVuSerif-Italic-6d" transform="translate(693.164062 0)"/>
     <use xlink:href="#DejaVuSerif-Italic-69" transform="translate(787.988281 0)"/>
     <use xlink:href="#DejaVuSerif-Italic-6e" transform="translate(819.970703 0)"/>
     <use xlink:href="#DejaVuSerif-Italic-69" transform="translate(884.375 0)"/>
     <use xlink:href="#DejaVuSerif-Italic-73" transform="translate(916.357422 0)"/>
     <use xlink:href="#DejaVuSerif-Italic-74" transform="translate(967.675781 0)"/>
     <use xlink:href="#DejaVuSerif-Italic-69" transform="translate(1007.861328 0)"/>
     <use xlink:href="#DejaVuSerif-Italic-63" transform="translate(1039.84375 0)"/>
     <use xlink:href="#DejaVuSerif-Italic-20" transform="translate(1095.849609 0)"/>
     <use xlink:href="#DejaVuSerif-Italic-3bc" transform="translate(1127.636719 0)"/>
    </g>
   </g>
   <g id="text_9">
    <!-- Target props p -->
    <g style="fill: #1f2c3a" transform="translate(542.631641 38.818984) scale(0.125 -0.125)">
     <defs>
      <path id="DejaVuSerif-Bold-67" d="M 3853 2944 
L 3853 44 
Q 3853 -656 3354 -1039 
Q 2856 -1422 1947 -1422 
Q 1616 -1422 1275 -1370 
Q 934 -1319 575 -1216 
L 575 -422 
L 928 -422 
Q 975 -750 1192 -909 
Q 1409 -1069 1813 -1069 
Q 2325 -1069 2536 -823 
Q 2747 -578 2747 44 
L 2747 422 
Q 2606 163 2367 36 
Q 2128 -91 1778 -91 
Q 1072 -91 667 378 
Q 263 847 263 1663 
Q 263 2481 667 2947 
Q 1072 3413 1778 3413 
Q 2128 3413 2367 3286 
Q 2606 3159 2747 2900 
L 2747 3322 
L 4325 3322 
L 4325 2944 
L 3853 2944 
z
M 2747 1825 
Q 2747 2406 2597 2665 
Q 2447 2925 2119 2925 
Q 1775 2925 1636 2651 
Q 1497 2378 1497 1663 
Q 1497 947 1637 672 
Q 1778 397 2119 397 
Q 2447 397 2597 656 
Q 2747 916 2747 1497 
L 2747 1825 
z
" transform="scale(0.015625)"/>
      <path id="DejaVuSerif-Bold-70" d="M 1728 1825 
L 1728 1497 
Q 1728 916 1876 656 
Q 2025 397 2356 397 
Q 2697 397 2836 672 
Q 2975 947 2975 1663 
Q 2975 2378 2836 2651 
Q 2697 2925 2356 2925 
Q 2025 2925 1876 2665 
Q 1728 2406 1728 1825 
z
M 622 2944 
L 147 2944 
L 147 3322 
L 1728 3322 
L 1728 2900 
Q 1869 3159 2106 3286 
Q 2344 3413 2694 3413 
Q 3403 3413 3811 2945 
Q 4219 2478 4219 1663 
Q 4219 847 3811 378 
Q 3403 -91 2694 -91 
Q 2344 -91 2106 36 
Q 1869 163 1728 422 
L 1728 -953 
L 2241 -953 
L 2241 -1331 
L 147 -1331 
L 147 -953 
L 622 -953 
L 622 2944 
z
" transform="scale(0.015625)"/>
      <path id="DejaVuSerif-Bold-73" d="M 300 97 
L 300 1025 
L 653 1025 
Q 697 653 931 458 
Q 1166 263 1569 263 
Q 1906 263 2086 380 
Q 2266 497 2266 716 
Q 2266 916 2152 1025 
Q 2038 1134 1709 1216 
L 1253 1331 
Q 738 1459 506 1698 
Q 275 1938 275 2344 
Q 275 2884 650 3148 
Q 1025 3413 1806 3413 
Q 2100 3413 2433 3364 
Q 2766 3316 3169 3213 
L 3169 2375 
L 2816 2375 
Q 2788 2716 2573 2887 
Q 2359 3059 1959 3059 
Q 1622 3059 1448 2951 
Q 1275 2844 1275 2638 
Q 1275 2469 1375 2372 
Q 1475 2275 1734 2209 
L 2188 2094 
Q 2841 1928 3091 1684 
Q 3341 1441 3341 1006 
Q 3341 444 2939 176 
Q 2538 -91 1691 -91 
Q 1381 -91 1034 -44 
Q 688 3 300 97 
z
" transform="scale(0.015625)"/>
     </defs>
     <use xlink:href="#DejaVuSerif-Bold-54"/>
     <use xlink:href="#DejaVuSerif-Bold-61" transform="translate(64.789062 0)"/>
     <use xlink:href="#DejaVuSerif-Bold-72" transform="translate(129.583984 0)"/>
     <use xlink:href="#DejaVuSerif-Bold-67" transform="translate(182.269531 0)"/>
     <use xlink:href="#DejaVuSerif-Bold-65" transform="translate(252.191406 0)"/>
     <use xlink:href="#DejaVuSerif-Bold-74" transform="translate(315.814453 0)"/>
     <use xlink:href="#DejaVuSerif-Bold-20" transform="translate(362.005859 0)"/>
     <use xlink:href="#DejaVuSerif-Bold-70" transform="translate(396.820312 0)"/>
     <use xlink:href="#DejaVuSerif-Bold-72" transform="translate(466.742188 0)"/>
     <use xlink:href="#DejaVuSerif-Bold-6f" transform="translate(519.427734 0)"/>
     <use xlink:href="#DejaVuSerif-Bold-70" transform="translate(586.126953 0)"/>
     <use xlink:href="#DejaVuSerif-Bold-73" transform="translate(656.048828 0)"/>
     <use xlink:href="#DejaVuSerif-Bold-20" transform="translate(712.347656 0)"/>
     <use xlink:href="#DejaVuSerif-Bold-70" transform="translate(747.162109 0)"/>
    </g>
   </g>
   <g id="text_10">
    <!-- ρ, HOF, D, P (z-scored) -->
    <g style="fill: #5a6a7a" transform="translate(539.023789 62.606406) scale(0.095 -0.095)">
     <defs>
      <path id="DejaVuSerif-Italic-3c1" d="M 1134 1825 
L 1069 1497 
Q 953 897 1122 583 
Q 1291 269 1728 269 
Q 2169 269 2464 622 
Q 2759 975 2894 1663 
Q 3031 2378 2869 2703 
Q 2675 3084 2275 3084 
Q 1859 3084 1541 2738 
Q 1250 2422 1134 1825 
z
M 519 -1331 
L -56 -1331 
L 522 1638 
Q 675 2422 1022 2803 
Q 1394 3159 1622 3269 
Q 1928 3413 2331 3413 
Q 3131 3413 3423 2928 
Q 3716 2444 3564 1662 
Q 3413 881 2931 395 
Q 2450 -91 1838 -91 
Q 1453 -91 1220 57 
Q 988 206 881 519 
L 519 -1331 
z
" transform="scale(0.015625)"/>
      <path id="DejaVuSerif-Italic-48" d="M -97 0 
L -34 331 
L 559 331 
L 1338 4331 
L 744 4331 
L 809 4666 
L 2631 4666 
L 2566 4331 
L 1972 4331 
L 1659 2719 
L 4078 2719 
L 4391 4331 
L 3797 4331 
L 3863 4666 
L 5684 4666 
L 5619 4331 
L 5025 4331 
L 4247 331 
L 4841 331 
L 4778 0 
L 2956 0 
L 3019 331 
L 3616 331 
L 4003 2338 
L 1584 2338 
L 1194 331 
L 1788 331 
L 1725 0 
L -97 0 
z
" transform="scale(0.015625)"/>
      <path id="DejaVuSerif-Italic-4f" d="M 2219 244 
Q 2984 244 3478 770 
Q 3972 1297 4172 2328 
Q 4372 3363 4084 3889 
Q 3797 4416 3031 4416 
Q 2263 4416 1769 3889 
Q 1275 3363 1075 2328 
Q 875 1297 1162 770 
Q 1450 244 2219 244 
z
M 2153 -91 
Q 1678 -91 1311 65 
Q 944 222 700 525 
Q 419 875 334 1319 
Q 250 1763 359 2328 
Q 469 2894 725 3339 
Q 981 3784 1400 4134 
Q 1766 4441 2191 4595 
Q 2616 4750 3097 4750 
Q 4113 4750 4608 4084 
Q 5103 3419 4891 2328 
Q 4781 1769 4522 1320 
Q 4263 872 3847 525 
Q 3481 219 3056 64 
Q 2631 -91 2153 -91 
z
" transform="scale(0.015625)"/>
      <path id="DejaVuSerif-Italic-44" d="M 1194 331 
L 1775 331 
Q 2684 331 3271 850 
Q 3859 1369 4048 2337 
Q 4238 3306 3852 3818 
Q 3466 4331 2553 4331 
L 1972 4331 
L 1194 331 
z
M -97 0 
L -34 331 
L 559 331 
L 1338 4331 
L 744 4331 
L 809 4666 
L 2666 4666 
Q 3872 4666 4426 4050 
Q 4981 3434 4766 2338 
Q 4553 1238 3758 619 
Q 2963 0 1759 0 
L -97 0 
z
" transform="scale(0.015625)"/>
      <path id="DejaVuSerif-Italic-50" d="M 1594 2375 
L 2419 2375 
Q 2884 2375 3176 2626 
Q 3469 2878 3559 3353 
Q 3653 3831 3458 4081 
Q 3263 4331 2797 4331 
L 1972 4331 
L 1594 2375 
z
M -97 0 
L -34 331 
L 559 331 
L 1338 4331 
L 744 4331 
L 809 4666 
L 3016 4666 
Q 3716 4666 4056 4311 
Q 4397 3956 4278 3353 
Q 4163 2753 3684 2397 
Q 3206 2041 2506 2041 
L 1528 2041 
L 1194 331 
L 1916 331 
L 1853 0 
L -97 0 
z
" transform="scale(0.015625)"/>
     </defs>
     <use xlink:href="#DejaVuSerif-Italic-3c1"/>
     <use xlink:href="#DejaVuSerif-Italic-2c" transform="translate(58.789062 0)"/>
     <use xlink:href="#DejaVuSerif-Italic-20" transform="translate(90.576172 0)"/>
     <use xlink:href="#DejaVuSerif-Italic-48" transform="translate(122.363281 0)"/>
     <use xlink:href="#DejaVuSerif-Italic-4f" transform="translate(209.570312 0)"/>
     <use xlink:href="#DejaVuSerif-Italic-46" transform="translate(291.552734 0)"/>
     <use xlink:href="#DejaVuSerif-Italic-2c" transform="translate(345.3125 0)"/>
     <use xlink:href="#DejaVuSerif-Italic-20" transform="translate(377.099609 0)"/>
     <use xlink:href="#DejaVuSerif-Italic-44" transform="translate(408.886719 0)"/>
     <use xlink:href="#DejaVuSerif-Italic-2c" transform="translate(485.4375 0)"/>
     <use xlink:href="#DejaVuSerif-Italic-20" transform="translate(517.224609 0)"/>
     <use xlink:href="#DejaVuSerif-Italic-50" transform="translate(549.011719 0)"/>
     <use xlink:href="#DejaVuSerif-Italic-20" transform="translate(616.296875 0)"/>
     <use xlink:href="#DejaVuSerif-Italic-28" transform="translate(648.083984 0)"/>
     <use xlink:href="#DejaVuSerif-Italic-7a" transform="translate(687.097656 0)"/>
     <use xlink:href="#DejaVuSerif-Italic-2d" transform="translate(739.783203 0)"/>
     <use xlink:href="#DejaVuSerif-Italic-73" transform="translate(773.572266 0)"/>
     <use xlink:href="#DejaVuSerif-Italic-63" transform="translate(824.890625 0)"/>
     <use xlink:href="#DejaVuSerif-Italic-6f" transform="translate(880.896484 0)"/>
     <use xlink:href="#DejaVuSerif-Italic-72" transform="translate(941.101562 0)"/>
     <use xlink:href="#DejaVuSerif-Italic-65" transform="translate(988.904297 0)"/>
     <use xlink:href="#DejaVuSerif-Italic-64" transform="translate(1048.083984 0)"/>
     <use xlink:href="#DejaVuSerif-Italic-29" transform="translate(1112.097656 0)"/>
    </g>
   </g>
   <g id="text_11">
    <!-- Trust mask m -->
    <g style="fill: #1f2c3a" transform="translate(672.858008 38.996719) scale(0.125 -0.125)">
     <defs>
      <path id="DejaVuSerif-Bold-75" d="M 3963 3322 
L 3963 378 
L 4434 378 
L 4434 0 
L 2853 0 
L 2853 469 
Q 2656 172 2400 40 
Q 2144 -91 1753 -91 
Q 1194 -91 908 239 
Q 622 569 622 1209 
L 622 2944 
L 147 2944 
L 147 3322 
L 1728 3322 
L 1728 1381 
Q 1728 763 1831 595 
Q 1934 428 2209 428 
Q 2544 428 2698 675 
Q 2853 922 2853 1459 
L 2853 2944 
L 2450 2944 
L 2450 3322 
L 3963 3322 
z
" transform="scale(0.015625)"/>
      <path id="DejaVuSerif-Bold-6d" d="M 3884 2778 
Q 4116 3109 4384 3261 
Q 4653 3413 5013 3413 
Q 5584 3413 5867 3089 
Q 6150 2766 6150 2113 
L 6150 378 
L 6625 378 
L 6625 0 
L 4647 0 
L 4647 378 
L 5044 378 
L 5044 1947 
Q 5044 2569 4948 2731 
Q 4853 2894 4594 2894 
Q 4300 2894 4137 2667 
Q 3975 2441 3975 2022 
L 3975 378 
L 4372 378 
L 4372 0 
L 2472 0 
L 2472 378 
L 2869 378 
L 2869 1947 
Q 2869 2569 2772 2731 
Q 2675 2894 2419 2894 
Q 2122 2894 1959 2667 
Q 1797 2441 1797 2022 
L 1797 378 
L 2194 378 
L 2194 0 
L 219 0 
L 219 378 
L 691 378 
L 691 2944 
L 219 2944 
L 219 3322 
L 1797 3322 
L 1797 2853 
Q 1991 3144 2241 3278 
Q 2491 3413 2834 3413 
Q 3241 3413 3494 3258 
Q 3747 3103 3884 2778 
z
" transform="scale(0.015625)"/>
      <path id="DejaVuSerif-Bold-6b" d="M 2216 0 
L 219 0 
L 219 378 
L 691 378 
L 691 4488 
L 219 4488 
L 219 4863 
L 1797 4863 
L 1797 1741 
L 3138 2944 
L 2741 2944 
L 2741 3322 
L 4256 3322 
L 4256 2944 
L 3641 2944 
L 2784 2175 
L 4184 378 
L 4544 378 
L 4544 0 
L 2638 0 
L 2638 378 
L 3028 378 
L 2106 1563 
L 1797 1288 
L 1797 378 
L 2216 378 
L 2216 0 
z
" transform="scale(0.015625)"/>
     </defs>
     <use xlink:href="#DejaVuSerif-Bold-54"/>
     <use xlink:href="#DejaVuSerif-Bold-72" transform="translate(67.164062 0)"/>
     <use xlink:href="#DejaVuSerif-Bold-75" transform="translate(119.849609 0)"/>
     <use xlink:href="#DejaVuSerif-Bold-73" transform="translate(192.554688 0)"/>
     <use xlink:href="#DejaVuSerif-Bold-74" transform="translate(248.853516 0)"/>
     <use xlink:href="#DejaVuSerif-Bold-20" transform="translate(295.044922 0)"/>
     <use xlink:href="#DejaVuSerif-Bold-6d" transform="translate(329.859375 0)"/>
     <use xlink:href="#DejaVuSerif-Bold-61" transform="translate(435.669922 0)"/>
     <use xlink:href="#DejaVuSerif-Bold-73" transform="translate(500.464844 0)"/>
     <use xlink:href="#DejaVuSerif-Bold-6b" transform="translate(556.763672 0)"/>
     <use xlink:href="#DejaVuSerif-Bold-20" transform="translate(626.050781 0)"/>
     <use xlink:href="#DejaVuSerif-Bold-6d" transform="translate(660.865234 0)"/>
    </g>
   </g>
   <g id="text_12">
    <!-- Tier-A/B → 1, else 0 -->
    <g style="fill: #5a6a7a" transform="translate(673.726992 62.606406) scale(0.095 -0.095)">
     <defs>
      <path id="DejaVuSerif-Italic-54" d="M 769 0 
L 831 331 
L 1428 331 
L 2200 4294 
L 828 4294 
L 688 3566 
L 303 3566 
L 516 4666 
L 4659 4666 
L 4447 3566 
L 4063 3566 
L 4203 4294 
L 2831 4294 
L 2059 331 
L 2656 331 
L 2594 0 
L 769 0 
z
" transform="scale(0.015625)"/>
      <path id="DejaVuSerif-Italic-41" d="M 1159 1691 
L 2872 1691 
L 2447 3909 
L 1159 1691 
z
M -488 0 
L -425 331 
L -16 331 
L 2491 4666 
L 3016 4666 
L 3841 331 
L 4297 331 
L 4234 0 
L 2538 0 
L 2600 331 
L 3119 331 
L 2928 1356 
L 966 1356 
L 375 331 
L 888 331 
L 825 0 
L -488 0 
z
" transform="scale(0.015625)"/>
      <path id="DejaVuSerif-Italic-2f" d="M 2172 4666 
L 2672 4666 
L -9 -594 
L -509 -594 
L 2172 4666 
z
" transform="scale(0.015625)"/>
      <path id="DejaVuSerif-Italic-42" d="M 1194 331 
L 2128 331 
Q 2691 331 2998 575 
Q 3306 819 3409 1350 
Q 3513 1878 3302 2120 
Q 3091 2363 2525 2363 
L 1591 2363 
L 1194 331 
z
M 1653 2694 
L 2447 2694 
Q 2959 2694 3234 2891 
Q 3509 3088 3591 3513 
Q 3675 3941 3476 4136 
Q 3278 4331 2766 4331 
L 1972 4331 
L 1653 2694 
z
M -97 0 
L -34 331 
L 559 331 
L 1338 4331 
L 744 4331 
L 809 4666 
L 3113 4666 
Q 3819 4666 4120 4377 
Q 4422 4088 4309 3513 
Q 4231 3097 3934 2850 
Q 3638 2603 3147 2547 
Q 3728 2472 3976 2167 
Q 4225 1863 4125 1350 
Q 3991 656 3489 328 
Q 2988 0 2059 0 
L -97 0 
z
" transform="scale(0.015625)"/>
      <path id="DejaVuSerif-Italic-2192" d="M 366 2322 
L 4391 2322 
L 3788 3375 
L 3822 3375 
L 5125 2084 
L 5125 2053 
L 3822 763 
L 3788 763 
L 4391 1816 
L 366 1816 
L 366 2322 
z
" transform="scale(0.015625)"/>
      <path id="DejaVuSerif-Italic-31" d="M 447 0 
L 513 331 
L 1325 331 
L 2078 4213 
L 1019 3603 
L 1100 4013 
L 2381 4750 
L 2813 4750 
L 1953 331 
L 2766 331 
L 2700 0 
L 447 0 
z
" transform="scale(0.015625)"/>
      <path id="DejaVuSerif-Italic-30" d="M 1011 744 
Q 1147 219 1625 219 
Q 2103 219 2442 744 
Q 2781 1269 2988 2328 
Q 3194 3391 3058 3916 
Q 2922 4441 2444 4441 
Q 1966 4441 1627 3916 
Q 1288 3391 1081 2328 
Q 875 1269 1011 744 
z
M 1563 -91 
Q 803 -91 501 546 
Q 200 1184 422 2328 
Q 644 3475 1195 4112 
Q 1747 4750 2506 4750 
Q 3269 4750 3569 4112 
Q 3869 3475 3647 2328 
Q 3425 1184 2875 546 
Q 2325 -91 1563 -91 
z
" transform="scale(0.015625)"/>
     </defs>
     <use xlink:href="#DejaVuSerif-Italic-54"/>
     <use xlink:href="#DejaVuSerif-Italic-69" transform="translate(66.699219 0)"/>
     <use xlink:href="#DejaVuSerif-Italic-65" transform="translate(98.681641 0)"/>
     <use xlink:href="#DejaVuSerif-Italic-72" transform="translate(157.861328 0)"/>
     <use xlink:href="#DejaVuSerif-Italic-2d" transform="translate(205.664062 0)"/>
     <use xlink:href="#DejaVuSerif-Italic-41" transform="translate(239.453125 0)"/>
     <use xlink:href="#DejaVuSerif-Italic-2f" transform="translate(311.669922 0)"/>
     <use xlink:href="#DejaVuSerif-Italic-42" transform="translate(345.361328 0)"/>
     <use xlink:href="#DejaVuSerif-Italic-20" transform="translate(418.847656 0)"/>
     <use xlink:href="#DejaVuSerif-Italic-2192" transform="translate(450.634766 0)"/>
     <use xlink:href="#DejaVuSerif-Italic-20" transform="translate(534.423828 0)"/>
     <use xlink:href="#DejaVuSerif-Italic-31" transform="translate(566.210938 0)"/>
     <use xlink:href="#DejaVuSerif-Italic-2c" transform="translate(629.833984 0)"/>
     <use xlink:href="#DejaVuSerif-Italic-20" transform="translate(661.621094 0)"/>
     <use xlink:href="#DejaVuSerif-Italic-65" transform="translate(693.408203 0)"/>
     <use xlink:href="#DejaVuSerif-Italic-6c" transform="translate(752.587891 0)"/>
     <use xlink:href="#DejaVuSerif-Italic-73" transform="translate(784.570312 0)"/>
     <use xlink:href="#DejaVuSerif-Italic-65" transform="translate(835.888672 0)"/>
     <use xlink:href="#DejaVuSerif-Italic-20" transform="translate(895.068359 0)"/>
     <use xlink:href="#DejaVuSerif-Italic-30" transform="translate(926.855469 0)"/>
    </g>
   </g>
   <g id="text_13">
    <!-- Conditional DDPM $\varepsilon_\theta$ -->
    <g style="fill: #1f2c3a" transform="translate(324.325 229.609219) scale(0.125 -0.125)">
     <defs>
      <path id="DejaVuSerif-Bold-43" d="M 4769 1331 
Q 4584 609 4106 259 
Q 3628 -91 2822 -91 
Q 1641 -91 955 561 
Q 269 1213 269 2328 
Q 269 3447 955 4098 
Q 1641 4750 2822 4750 
Q 3238 4750 3688 4650 
Q 4138 4550 4641 4347 
L 4641 3200 
L 4244 3200 
Q 4122 3788 3800 4080 
Q 3478 4372 2950 4372 
Q 2269 4372 1937 3870 
Q 1606 3369 1606 2328 
Q 1606 1288 1937 788 
Q 2269 288 2956 288 
Q 3422 288 3717 547 
Q 4013 806 4147 1331 
L 4769 1331 
z
" transform="scale(0.015625)"/>
      <path id="DejaVuSerif-Bold-69" d="M 588 4263 
Q 588 4516 763 4689 
Q 938 4863 1191 4863 
Q 1438 4863 1611 4689 
Q 1784 4516 1784 4263 
Q 1784 4016 1611 3842 
Q 1438 3669 1191 3669 
Q 938 3669 763 3841 
Q 588 4013 588 4263 
z
M 1797 378 
L 2272 378 
L 2272 0 
L 219 0 
L 219 378 
L 691 378 
L 691 2944 
L 219 2944 
L 219 3322 
L 1797 3322 
L 1797 378 
z
" transform="scale(0.015625)"/>
      <path id="DejaVuSerif-Bold-6c" d="M 1797 378 
L 2272 378 
L 2272 0 
L 219 0 
L 219 378 
L 691 378 
L 691 4488 
L 219 4488 
L 219 4863 
L 1797 4863 
L 1797 378 
z
" transform="scale(0.015625)"/>
      <path id="DejaVuSerif-Bold-44" d="M 2100 378 
L 2534 378 
Q 3266 378 3605 847 
Q 3944 1316 3944 2338 
Q 3944 3353 3606 3820 
Q 3269 4288 2534 4288 
L 2100 4288 
L 2100 378 
z
M 300 0 
L 300 378 
L 897 378 
L 897 4288 
L 300 4288 
L 300 4666 
L 2694 4666 
Q 3950 4666 4615 4066 
Q 5281 3466 5281 2338 
Q 5281 1203 4614 601 
Q 3947 0 2694 0 
L 300 0 
z
" transform="scale(0.015625)"/>
      <path id="DejaVuSerif-Bold-50" d="M 300 0 
L 300 378 
L 897 378 
L 897 4288 
L 300 4288 
L 300 4666 
L 2956 4666 
Q 3734 4666 4193 4295 
Q 4653 3925 4653 3303 
Q 4653 2678 4192 2304 
Q 3731 1931 2956 1931 
L 2100 1931 
L 2100 378 
L 2853 378 
L 2853 0 
L 300 0 
z
M 2100 2309 
L 2450 2309 
Q 2856 2309 3098 2579 
Q 3341 2850 3341 3303 
Q 3341 3753 3100 4020 
Q 2859 4288 2450 4288 
L 2100 4288 
L 2100 2309 
z
" transform="scale(0.015625)"/>
      <path id="DejaVuSans-Oblique-3b5" d="M 1263 1888 
Q 925 1963 778 2166 
Q 669 2309 669 2503 
Q 669 3034 1175 3344 
Q 1575 3588 2188 3588 
Q 2425 3588 2684 3550 
Q 2944 3513 3234 3438 
L 3134 2916 
Q 2847 3006 2606 3047 
Q 2359 3088 2138 3088 
Q 1766 3088 1522 2944 
Q 1228 2772 1228 2522 
Q 1228 2356 1381 2241 
Q 1563 2103 1925 2103 
L 2409 2103 
L 2319 1628 
L 1856 1628 
Q 1425 1628 1172 1469 
Q 828 1253 828 916 
Q 828 703 1013 563 
Q 1244 388 1716 388 
Q 2006 388 2284 444 
Q 2563 503 2806 619 
L 2700 84 
Q 2403 -3 2131 -47 
Q 1859 -91 1609 -91 
Q 866 -91 516 194 
Q 250 413 250 781 
Q 250 1278 600 1584 
Q 859 1813 1263 1888 
z
" transform="scale(0.015625)"/>
      <path id="DejaVuSans-Oblique-3b8" d="M 2913 2219 
L 925 2219 
Q 791 1284 928 888 
Q 1100 400 1566 400 
Q 2034 400 2391 891 
Q 2703 1322 2913 2219 
z
M 3009 2750 
Q 3094 3638 2984 3950 
Q 2813 4444 2353 4444 
Q 1875 4444 1525 3956 
Q 1250 3563 1034 2750 
L 3009 2750 
z
M 2444 4913 
Q 3194 4913 3494 4250 
Q 3794 3591 3566 2422 
Q 3341 1256 2781 594 
Q 2225 -72 1475 -72 
Q 722 -72 425 594 
Q 128 1256 353 2422 
Q 581 3591 1134 4250 
Q 1691 4913 2444 4913 
z
" transform="scale(0.015625)"/>
     </defs>
     <use xlink:href="#DejaVuSerif-Bold-43" transform="translate(0 0.015625)"/>
     <use xlink:href="#DejaVuSerif-Bold-6f" transform="translate(79.589844 0.015625)"/>
     <use xlink:href="#DejaVuSerif-Bold-6e" transform="translate(146.289062 0.015625)"/>
     <use xlink:href="#DejaVuSerif-Bold-64" transform="translate(218.994141 0.015625)"/>
     <use xlink:href="#DejaVuSerif-Bold-69" transform="translate(288.916016 0.015625)"/>
     <use xlink:href="#DejaVuSerif-Bold-74" transform="translate(326.904297 0.015625)"/>
     <use xlink:href="#DejaVuSerif-Bold-69" transform="translate(373.095703 0.015625)"/>
     <use xlink:href="#DejaVuSerif-Bold-6f" transform="translate(411.083984 0.015625)"/>
     <use xlink:href="#DejaVuSerif-Bold-6e" transform="translate(477.783203 0.015625)"/>
     <use xlink:href="#DejaVuSerif-Bold-61" transform="translate(550.488281 0.015625)"/>
     <use xlink:href="#DejaVuSerif-Bold-6c" transform="translate(615.283203 0.015625)"/>
     <use xlink:href="#DejaVuSerif-Bold-20" transform="translate(653.271484 0.015625)"/>
     <use xlink:href="#DejaVuSerif-Bold-44" transform="translate(688.085938 0.015625)"/>
     <use xlink:href="#DejaVuSerif-Bold-44" transform="translate(774.804688 0.015625)"/>
     <use xlink:href="#DejaVuSerif-Bold-50" transform="translate(861.523438 0.015625)"/>
     <use xlink:href="#DejaVuSerif-Bold-4d" transform="translate(936.71875 0.015625)"/>
     <use xlink:href="#DejaVuSerif-Bold-20" transform="translate(1047.412109 0.015625)"/>
     <use xlink:href="#DejaVuSans-Oblique-3b5" transform="translate(1082.226562 0.015625)"/>
     <use xlink:href="#DejaVuSans-Oblique-3b8" transform="translate(1136.279297 -16.390625) scale(0.7)"/>
    </g>
   </g>
   <g id="text_14">
    <!-- FiLM ResNet, $\varepsilon_\theta(z_t, t, p, m)$ -->
    <g style="fill: #5a6a7a" transform="translate(333.9325 253.21) scale(0.095 -0.095)">
     <defs>
      <path id="DejaVuSerif-Italic-4d" d="M -97 0 
L -34 331 
L 559 331 
L 1338 4331 
L 709 4331 
L 775 4666 
L 2134 4666 
L 3125 1344 
L 5409 4666 
L 6684 4666 
L 6619 4331 
L 5997 4331 
L 5222 331 
L 5816 331 
L 5753 0 
L 3928 0 
L 3991 331 
L 4584 331 
L 5288 3938 
L 3053 684 
L 2613 684 
L 1647 3938 
L 944 331 
L 1538 331 
L 1475 0 
L -97 0 
z
" transform="scale(0.015625)"/>
      <path id="DejaVuSerif-Italic-52" d="M 3066 2316 
Q 3272 2256 3403 2114 
Q 3534 1972 3609 1716 
L 4016 331 
L 4584 331 
L 4522 0 
L 3422 0 
L 2981 1484 
Q 2856 1916 2706 2042 
Q 2556 2169 2250 2169 
L 1553 2169 
L 1194 331 
L 1853 331 
L 1791 0 
L -97 0 
L -34 331 
L 559 331 
L 1338 4331 
L 744 4331 
L 809 4666 
L 3175 4666 
Q 3856 4666 4164 4341 
Q 4472 4016 4356 3419 
Q 4263 2938 3938 2661 
Q 3613 2384 3066 2316 
z
M 1619 2503 
L 2541 2503 
Q 3013 2503 3280 2726 
Q 3547 2950 3639 3419 
Q 3731 3888 3548 4109 
Q 3366 4331 2894 4331 
L 1972 4331 
L 1619 2503 
z
" transform="scale(0.015625)"/>
      <path id="DejaVuSerif-Italic-4e" d="M -128 0 
L -66 331 
L 563 331 
L 1341 4331 
L 713 4331 
L 778 4666 
L 1975 4666 
L 4056 984 
L 4706 4331 
L 4081 4331 
L 4147 4666 
L 5784 4666 
L 5719 4331 
L 5091 4331 
L 4231 -91 
L 3853 -91 
L 1631 3841 
L 947 331 
L 1575 331 
L 1513 0 
L -128 0 
z
" transform="scale(0.015625)"/>
      <path id="DejaVuSans-28" d="M 1984 4856 
Q 1566 4138 1362 3434 
Q 1159 2731 1159 2009 
Q 1159 1288 1364 580 
Q 1569 -128 1984 -844 
L 1484 -844 
Q 1016 -109 783 600 
Q 550 1309 550 2009 
Q 550 2706 781 3412 
Q 1013 4119 1484 4856 
L 1984 4856 
z
" transform="scale(0.015625)"/>
      <path id="DejaVuSans-Oblique-7a" d="M 744 3500 
L 3475 3500 
L 3372 2975 
L 738 459 
L 2913 459 
L 2822 0 
L -19 0 
L 84 525 
L 2719 3041 
L 653 3041 
L 744 3500 
z
" transform="scale(0.015625)"/>
      <path id="DejaVuSans-Oblique-74" d="M 2706 3500 
L 2619 3053 
L 1472 3053 
L 1100 1153 
Q 1081 1047 1072 975 
Q 1063 903 1063 863 
Q 1063 663 1183 572 
Q 1303 481 1569 481 
L 2150 481 
L 2053 0 
L 1503 0 
Q 991 0 739 200 
Q 488 400 488 806 
Q 488 878 497 964 
Q 506 1050 525 1153 
L 897 3053 
L 409 3053 
L 500 3500 
L 978 3500 
L 1172 4494 
L 1747 4494 
L 1556 3500 
L 2706 3500 
z
" transform="scale(0.015625)"/>
      <path id="DejaVuSans-2c" d="M 750 794 
L 1409 794 
L 1409 256 
L 897 -744 
L 494 -744 
L 750 256 
L 750 794 
z
" transform="scale(0.015625)"/>
      <path id="DejaVuSans-Oblique-70" d="M 3175 2156 
Q 3175 2616 2975 2859 
Q 2775 3103 2400 3103 
Q 2144 3103 1911 2972 
Q 1678 2841 1497 2591 
Q 1319 2344 1212 1994 
Q 1106 1644 1106 1300 
Q 1106 863 1306 627 
Q 1506 391 1875 391 
Q 2147 391 2380 519 
Q 2613 647 2778 891 
Q 2956 1147 3065 1494 
Q 3175 1841 3175 2156 
z
M 1394 2969 
Q 1625 3272 1939 3428 
Q 2253 3584 2638 3584 
Q 3175 3584 3472 3232 
Q 3769 2881 3769 2247 
Q 3769 1728 3584 1258 
Q 3400 788 3053 416 
Q 2822 169 2531 39 
Q 2241 -91 1919 -91 
Q 1547 -91 1294 64 
Q 1041 219 916 525 
L 556 -1331 
L -19 -1331 
L 922 3500 
L 1497 3500 
L 1394 2969 
z
" transform="scale(0.015625)"/>
      <path id="DejaVuSans-Oblique-6d" d="M 5747 2113 
L 5338 0 
L 4763 0 
L 5166 2094 
Q 5191 2228 5203 2325 
Q 5216 2422 5216 2491 
Q 5216 2772 5059 2928 
Q 4903 3084 4622 3084 
Q 4203 3084 3875 2770 
Q 3547 2456 3450 1953 
L 3066 0 
L 2491 0 
L 2900 2094 
Q 2925 2209 2937 2307 
Q 2950 2406 2950 2484 
Q 2950 2769 2794 2926 
Q 2638 3084 2363 3084 
Q 1938 3084 1609 2770 
Q 1281 2456 1184 1953 
L 800 0 
L 225 0 
L 909 3500 
L 1484 3500 
L 1375 2956 
Q 1609 3263 1923 3423 
Q 2238 3584 2597 3584 
Q 2978 3584 3223 3384 
Q 3469 3184 3519 2828 
Q 3781 3197 4126 3390 
Q 4472 3584 4856 3584 
Q 5306 3584 5551 3325 
Q 5797 3066 5797 2591 
Q 5797 2488 5784 2364 
Q 5772 2241 5747 2113 
z
" transform="scale(0.015625)"/>
      <path id="DejaVuSans-29" d="M 513 4856 
L 1013 4856 
Q 1481 4119 1714 3412 
Q 1947 2706 1947 2009 
Q 1947 1309 1714 600 
Q 1481 -109 1013 -844 
L 513 -844 
Q 928 -128 1133 580 
Q 1338 1288 1338 2009 
Q 1338 2731 1133 3434 
Q 928 4138 513 4856 
z
" transform="scale(0.015625)"/>
     </defs>
     <use xlink:href="#DejaVuSerif-Italic-46" transform="translate(0 0.125)"/>
     <use xlink:href="#DejaVuSerif-Italic-69" transform="translate(69.384766 0.125)"/>
     <use xlink:href="#DejaVuSerif-Italic-4c" transform="translate(101.367188 0.125)"/>
     <use xlink:href="#DejaVuSerif-Italic-4d" transform="translate(167.773438 0.125)"/>
     <use xlink:href="#DejaVuSerif-Italic-20" transform="translate(270.166016 0.125)"/>
     <use xlink:href="#DejaVuSerif-Italic-52" transform="translate(301.953125 0.125)"/>
     <use xlink:href="#DejaVuSerif-Italic-65" transform="translate(377.246094 0.125)"/>
     <use xlink:href="#DejaVuSerif-Italic-73" transform="translate(436.425781 0.125)"/>
     <use xlink:href="#DejaVuSerif-Italic-4e" transform="translate(487.744141 0.125)"/>
     <use xlink:href="#DejaVuSerif-Italic-65" transform="translate(575.244141 0.125)"/>
     <use xlink:href="#DejaVuSerif-Italic-74" transform="translate(634.423828 0.125)"/>
     <use xlink:href="#DejaVuSerif-Italic-2c" transform="translate(674.609375 0.125)"/>
     <use xlink:href="#DejaVuSerif-Italic-20" transform="translate(706.396484 0.125)"/>
     <use xlink:href="#DejaVuSans-Oblique-3b5" transform="translate(738.183594 0.125)"/>
     <use xlink:href="#DejaVuSans-Oblique-3b8" transform="translate(792.236328 -16.28125) scale(0.7)"/>
     <use xlink:href="#DejaVuSans-28" transform="translate(837.797852 0.125)"/>
     <use xlink:href="#DejaVuSans-Oblique-7a" transform="translate(876.811523 0.125)"/>
     <use xlink:href="#DejaVuSans-Oblique-74" transform="translate(929.301758 -16.28125) scale(0.7)"/>
     <use xlink:href="#DejaVuSans-2c" transform="translate(959.482422 0.125)"/>
     <use xlink:href="#DejaVuSans-Oblique-74" transform="translate(1010.751953 0.125)"/>
     <use xlink:href="#DejaVuSans-2c" transform="translate(1049.960938 0.125)"/>
     <use xlink:href="#DejaVuSans-Oblique-70" transform="translate(1101.230469 0.125)"/>
     <use xlink:href="#DejaVuSans-2c" transform="translate(1164.707031 0.125)"/>
     <use xlink:href="#DejaVuSans-Oblique-6d" transform="translate(1215.976562 0.125)"/>
     <use xlink:href="#DejaVuSans-29" transform="translate(1313.388672 0.125)"/>
    </g>
   </g>
   <g id="text_15">
    <!-- Training loss -->
    <g style="fill: #1f2c3a" transform="translate(576.274805 229.251523) scale(0.115 -0.115)">
     <use xlink:href="#DejaVuSerif-Bold-54"/>
     <use xlink:href="#DejaVuSerif-Bold-72" transform="translate(67.164062 0)"/>
     <use xlink:href="#DejaVuSerif-Bold-61" transform="translate(119.849609 0)"/>
     <use xlink:href="#DejaVuSerif-Bold-69" transform="translate(184.644531 0)"/>
     <use xlink:href="#DejaVuSerif-Bold-6e" transform="translate(222.632812 0)"/>
     <use xlink:href="#DejaVuSerif-Bold-69" transform="translate(295.337891 0)"/>
     <use xlink:href="#DejaVuSerif-Bold-6e" transform="translate(333.326172 0)"/>
     <use xlink:href="#DejaVuSerif-Bold-67" transform="translate(406.03125 0)"/>
     <use xlink:href="#DejaVuSerif-Bold-20" transform="translate(475.953125 0)"/>
     <use xlink:href="#DejaVuSerif-Bold-6c" transform="translate(510.767578 0)"/>
     <use xlink:href="#DejaVuSerif-Bold-6f" transform="translate(548.755859 0)"/>
     <use xlink:href="#DejaVuSerif-Bold-73" transform="translate(615.455078 0)"/>
     <use xlink:href="#DejaVuSerif-Bold-73" transform="translate(671.753906 0)"/>
    </g>
   </g>
   <g id="text_16">
    <!-- $\mathbb{E}\,\Vert\varepsilon - \varepsilon_\theta(z_t, t, p, m)\Vert^2$ -->
    <g style="fill: #5a6a7a" transform="translate(569.6875 253.78) scale(0.095 -0.095)">
     <defs>
      <path id="STIXNonUnicode-Italic-e156" d="M 4250 4179 
L 4192 3942 
L 2150 3942 
L 1709 2266 
L 3514 2266 
L 3443 2029 
L 1645 2029 
L 1165 237 
L 3443 237 
L 3392 0 
L 109 0 
L 1229 4179 
L 4250 4179 
z
M 1914 3942 
L 1414 3942 
L 416 237 
L 928 237 
L 1914 3942 
z
" transform="scale(0.015625)"/>
      <path id="DejaVuSans-2016" d="M 1344 4891 
L 1344 -1509 
L 813 -1509 
L 813 4891 
L 1344 4891 
z
M 2376 4891 
L 2376 -1509 
L 1845 -1509 
L 1845 4891 
L 2376 4891 
z
" transform="scale(0.015625)"/>
      <path id="DejaVuSans-2212" d="M 678 2272 
L 4684 2272 
L 4684 1741 
L 678 1741 
L 678 2272 
z
" transform="scale(0.015625)"/>
      <path id="DejaVuSans-32" d="M 1228 531 
L 3431 531 
L 3431 0 
L 469 0 
L 469 531 
Q 828 903 1448 1529 
Q 2069 2156 2228 2338 
Q 2531 2678 2651 2914 
Q 2772 3150 2772 3378 
Q 2772 3750 2511 3984 
Q 2250 4219 1831 4219 
Q 1534 4219 1204 4116 
Q 875 4013 500 3803 
L 500 4441 
Q 881 4594 1212 4672 
Q 1544 4750 1819 4750 
Q 2544 4750 2975 4387 
Q 3406 4025 3406 3419 
Q 3406 3131 3298 2873 
Q 3191 2616 2906 2266 
Q 2828 2175 2409 1742 
Q 1991 1309 1228 531 
z
" transform="scale(0.015625)"/>
     </defs>
     <use xlink:href="#STIXNonUnicode-Italic-e156" transform="translate(0 0.765625)"/>
     <use xlink:href="#DejaVuSans-2016" transform="translate(80.13567 0.765625)"/>
     <use xlink:href="#DejaVuSans-Oblique-3b5" transform="translate(130.13567 0.765625)"/>
     <use xlink:href="#DejaVuSans-2212" transform="translate(203.670826 0.765625)"/>
     <use xlink:href="#DejaVuSans-Oblique-3b5" transform="translate(306.942311 0.765625)"/>
     <use xlink:href="#DejaVuSans-Oblique-3b8" transform="translate(360.995045 -15.640625) scale(0.7)"/>
     <use xlink:href="#DejaVuSans-28" transform="translate(406.556569 0.765625)"/>
     <use xlink:href="#DejaVuSans-Oblique-7a" transform="translate(445.57024 0.765625)"/>
     <use xlink:href="#DejaVuSans-Oblique-74" transform="translate(498.060475 -15.640625) scale(0.7)"/>
     <use xlink:href="#DejaVuSans-2c" transform="translate(528.241139 0.765625)"/>
     <use xlink:href="#DejaVuSans-Oblique-74" transform="translate(579.51067 0.765625)"/>
     <use xlink:href="#DejaVuSans-2c" transform="translate(618.719655 0.765625)"/>
     <use xlink:href="#DejaVuSans-Oblique-70" transform="translate(669.989186 0.765625)"/>
     <use xlink:href="#DejaVuSans-2c" transform="translate(733.465748 0.765625)"/>
     <use xlink:href="#DejaVuSans-Oblique-6d" transform="translate(784.73528 0.765625)"/>
     <use xlink:href="#DejaVuSans-29" transform="translate(882.147389 0.765625)"/>
     <use xlink:href="#DejaVuSans-2016" transform="translate(921.161061 0.765625)"/>
     <use xlink:href="#DejaVuSans-32" transform="translate(972.118092 39.046875) scale(0.7)"/>
    </g>
   </g>
   <g id="text_17">
    <!-- Tier-C/D rows: m = 0 (loss enters unconditional branch via cfg-dropout) -->
    <g style="fill: #8a9aaa" transform="translate(349.325 295.403789) scale(0.085 -0.085)">
     <defs>
      <path id="DejaVuSerif-Italic-43" d="M 4300 1234 
Q 3966 581 3414 245 
Q 2863 -91 2119 -91 
Q 1663 -91 1303 65 
Q 944 222 700 525 
Q 419 875 334 1320 
Q 250 1766 359 2328 
Q 572 3416 1330 4083 
Q 2088 4750 3116 4750 
Q 3497 4750 3908 4650 
Q 4319 4550 4775 4347 
L 4569 3272 
L 4216 3272 
Q 4213 3859 3919 4137 
Q 3625 4416 2997 4416 
Q 2250 4416 1762 3886 
Q 1275 3356 1075 2328 
Q 875 1303 1156 773 
Q 1438 244 2184 244 
Q 2706 244 3092 492 
Q 3478 741 3725 1234 
L 4300 1234 
z
" transform="scale(0.015625)"/>
      <path id="DejaVuSerif-Italic-77" d="M 3741 728 
Q 4156 1178 4250 1344 
Q 4594 1969 4931 2988 
L 4447 2984 
L 4513 3322 
L 5347 3322 
L 5281 2984 
L 5278 2984 
Q 4959 1825 4656 1266 
Q 4209 469 3719 0 
L 3241 0 
L 2900 2484 
L 1597 0 
L 1138 0 
L 734 2988 
L 359 2981 
L 425 3322 
L 1281 3322 
L 1631 728 
L 2991 3322 
L 3394 3322 
L 3741 728 
z
" transform="scale(0.015625)"/>
      <path id="DejaVuSerif-Italic-3a" d="M 529 29 
Q 434 150 468 325 
Q 503 500 647 622 
Q 791 744 966 744 
Q 1141 744 1237 622 
Q 1334 500 1300 325 
Q 1266 150 1123 29 
Q 981 -91 803 -91 
Q 625 -91 529 29 
z
M 926 2067 
Q 828 2188 862 2363 
Q 897 2538 1040 2658 
Q 1184 2778 1359 2778 
Q 1538 2778 1633 2659 
Q 1728 2541 1693 2362 
Q 1659 2184 1518 2065 
Q 1378 1947 1200 1947 
Q 1025 1947 926 2067 
z
" transform="scale(0.015625)"/>
      <path id="DejaVuSerif-Italic-3d" d="M 678 2894 
L 4684 2894 
L 4684 2394 
L 678 2394 
L 678 2894 
z
M 678 1619 
L 4684 1619 
L 4684 1119 
L 678 1119 
L 678 1619 
z
" transform="scale(0.015625)"/>
      <path id="DejaVuSerif-Italic-76" d="M 1681 0 
L 1259 0 
L 619 2988 
L 241 2988 
L 303 3322 
L 1163 3322 
L 1725 703 
Q 2084 1016 2325 1413 
Q 2825 2238 3003 2988 
L 2622 2988 
L 2688 3322 
L 3547 3322 
Q 3206 2034 2775 1313 
Q 2400 688 1681 0 
z
" transform="scale(0.015625)"/>
     </defs>
     <use xlink:href="#DejaVuSerif-Italic-54"/>
     <use xlink:href="#DejaVuSerif-Italic-69" transform="translate(66.699219 0)"/>
     <use xlink:href="#DejaVuSerif-Italic-65" transform="translate(98.681641 0)"/>
     <use xlink:href="#DejaVuSerif-Italic-72" transform="translate(157.861328 0)"/>
     <use xlink:href="#DejaVuSerif-Italic-2d" transform="translate(205.664062 0)"/>
     <use xlink:href="#DejaVuSerif-Italic-43" transform="translate(239.453125 0)"/>
     <use xlink:href="#DejaVuSerif-Italic-2f" transform="translate(315.966797 0)"/>
     <use xlink:href="#DejaVuSerif-Italic-44" transform="translate(349.658203 0)"/>
     <use xlink:href="#DejaVuSerif-Italic-20" transform="translate(429.833984 0)"/>
     <use xlink:href="#DejaVuSerif-Italic-72" transform="translate(461.621094 0)"/>
     <use xlink:href="#DejaVuSerif-Italic-6f" transform="translate(509.423828 0)"/>
     <use xlink:href="#DejaVuSerif-Italic-77" transform="translate(569.628906 0)"/>
     <use xlink:href="#DejaVuSerif-Italic-73" transform="translate(655.224609 0)"/>
     <use xlink:href="#DejaVuSerif-Italic-3a" transform="translate(706.542969 0)"/>
     <use xlink:href="#DejaVuSerif-Italic-20" transform="translate(740.234375 0)"/>
     <use xlink:href="#DejaVuSerif-Italic-6d" transform="translate(772.021484 0)"/>
     <use xlink:href="#DejaVuSerif-Italic-20" transform="translate(866.845703 0)"/>
     <use xlink:href="#DejaVuSerif-Italic-3d" transform="translate(898.632812 0)"/>
     <use xlink:href="#DejaVuSerif-Italic-20" transform="translate(982.421875 0)"/>
     <use xlink:href="#DejaVuSerif-Italic-30" transform="translate(1014.208984 0)"/>
     <use xlink:href="#DejaVuSerif-Italic-20" transform="translate(1077.832031 0)"/>
     <use xlink:href="#DejaVuSerif-Italic-28" transform="translate(1109.619141 0)"/>
     <use xlink:href="#DejaVuSerif-Italic-6c" transform="translate(1148.632812 0)"/>
     <use xlink:href="#DejaVuSerif-Italic-6f" transform="translate(1180.615234 0)"/>
     <use xlink:href="#DejaVuSerif-Italic-73" transform="translate(1240.820312 0)"/>
     <use xlink:href="#DejaVuSerif-Italic-73" transform="translate(1292.138672 0)"/>
     <use xlink:href="#DejaVuSerif-Italic-20" transform="translate(1343.457031 0)"/>
     <use xlink:href="#DejaVuSerif-Italic-65" transform="translate(1375.244141 0)"/>
     <use xlink:href="#DejaVuSerif-Italic-6e" transform="translate(1434.423828 0)"/>
     <use xlink:href="#DejaVuSerif-Italic-74" transform="translate(1498.828125 0)"/>
     <use xlink:href="#DejaVuSerif-Italic-65" transform="translate(1539.013672 0)"/>
     <use xlink:href="#DejaVuSerif-Italic-72" transform="translate(1598.193359 0)"/>
     <use xlink:href="#DejaVuSerif-Italic-73" transform="translate(1645.996094 0)"/>
     <use xlink:href="#DejaVuSerif-Italic-20" transform="translate(1697.314453 0)"/>
     <use xlink:href="#DejaVuSerif-Italic-75" transform="translate(1729.101562 0)"/>
     <use xlink:href="#DejaVuSerif-Italic-6e" transform="translate(1793.505859 0)"/>
     <use xlink:href="#DejaVuSerif-Italic-63" transform="translate(1857.910156 0)"/>
     <use xlink:href="#DejaVuSerif-Italic-6f" transform="translate(1913.916016 0)"/>
     <use xlink:href="#DejaVuSerif-Italic-6e" transform="translate(1974.121094 0)"/>
     <use xlink:href="#DejaVuSerif-Italic-64" transform="translate(2038.525391 0)"/>
     <use xlink:href="#DejaVuSerif-Italic-69" transform="translate(2102.539062 0)"/>
     <use xlink:href="#DejaVuSerif-Italic-74" transform="translate(2134.521484 0)"/>
     <use xlink:href="#DejaVuSerif-Italic-69" transform="translate(2174.707031 0)"/>
     <use xlink:href="#DejaVuSerif-Italic-6f" transform="translate(2206.689453 0)"/>
     <use xlink:href="#DejaVuSerif-Italic-6e" transform="translate(2266.894531 0)"/>
     <use xlink:href="#DejaVuSerif-Italic-61" transform="translate(2331.298828 0)"/>
     <use xlink:href="#DejaVuSerif-Italic-6c" transform="translate(2390.917969 0)"/>
     <use xlink:href="#DejaVuSerif-Italic-20" transform="translate(2422.900391 0)"/>
     <use xlink:href="#DejaVuSerif-Italic-62" transform="translate(2454.6875 0)"/>
     <use xlink:href="#DejaVuSerif-Italic-72" transform="translate(2518.701172 0)"/>
     <use xlink:href="#DejaVuSerif-Italic-61" transform="translate(2566.503906 0)"/>
     <use xlink:href="#DejaVuSerif-Italic-6e" transform="translate(2626.123047 0)"/>
     <use xlink:href="#DejaVuSerif-Italic-63" transform="translate(2690.527344 0)"/>
     <use xlink:href="#DejaVuSerif-Italic-68" transform="translate(2746.533203 0)"/>
     <use xlink:href="#DejaVuSerif-Italic-20" transform="translate(2810.9375 0)"/>
     <use xlink:href="#DejaVuSerif-Italic-76" transform="translate(2842.724609 0)"/>
     <use xlink:href="#DejaVuSerif-Italic-69" transform="translate(2899.21875 0)"/>
     <use xlink:href="#DejaVuSerif-Italic-61" transform="translate(2931.201172 0)"/>
     <use xlink:href="#DejaVuSerif-Italic-20" transform="translate(2990.820312 0)"/>
     <use xlink:href="#DejaVuSerif-Italic-63" transform="translate(3022.607422 0)"/>
     <use xlink:href="#DejaVuSerif-Italic-66" transform="translate(3078.613281 0)"/>
     <use xlink:href="#DejaVuSerif-Italic-67" transform="translate(3115.625 0)"/>
     <use xlink:href="#DejaVuSerif-Italic-2d" transform="translate(3179.638672 0)"/>
     <use xlink:href="#DejaVuSerif-Italic-64" transform="translate(3213.427734 0)"/>
     <use xlink:href="#DejaVuSerif-Italic-72" transform="translate(3277.441406 0)"/>
     <use xlink:href="#DejaVuSerif-Italic-6f" transform="translate(3325.244141 0)"/>
     <use xlink:href="#DejaVuSerif-Italic-70" transform="translate(3385.449219 0)"/>
     <use xlink:href="#DejaVuSerif-Italic-6f" transform="translate(3449.462891 0)"/>
     <use xlink:href="#DejaVuSerif-Italic-75" transform="translate(3509.667969 0)"/>
     <use xlink:href="#DejaVuSerif-Italic-74" transform="translate(3574.072266 0)"/>
     <use xlink:href="#DejaVuSerif-Italic-29" transform="translate(3614.257812 0)"/>
    </g>
   </g>
   <g id="patch_16">
    <path d="M 136.71875 90.2875 
Q 170.93125 90.2875 202.907682 90.2875 
" style="fill: none; stroke: #27445d; stroke-width: 2; stroke-linecap: round"/>
    <path d="M 198.107682 87.8875 
L 202.907682 90.2875 
L 198.107682 92.6875 
z
" style="fill: #27445d; stroke: #27445d; stroke-width: 2; stroke-linecap: round"/>
   </g>
   <g id="patch_17">
    <path d="M 268.68125 90.2875 
Q 317.55625 90.2875 364.195182 90.2875 
" style="fill: none; stroke: #27445d; stroke-width: 2; stroke-linecap: round"/>
    <path d="M 359.395182 87.8875 
L 364.195182 90.2875 
L 359.395182 92.6875 
z
" style="fill: #27445d; stroke: #27445d; stroke-width: 2; stroke-linecap: round"/>
   </g>
   <g id="patch_18">
    <path d="M 398.2 126.94375 
Q 398.2 159.934375 398.2 190.688932 
" style="fill: none; stroke: #27445d; stroke-width: 2; stroke-linecap: round"/>
    <path d="M 400.6 185.888932 
L 398.2 190.688932 
L 395.8 185.888932 
z
" style="fill: #27445d; stroke: #27445d; stroke-width: 2; stroke-linecap: round"/>
   </g>
   <g id="patch_19">
    <path d="M 566.81875 46.3 
Q 500.8375 134.275 436.197891 220.461146 
" style="fill: none; stroke-dasharray: 10,6; stroke-dashoffset: 0; stroke: #b88a25; stroke-width: 2; stroke-linecap: round"/>
    <path d="M 440.997891 218.061146 
L 436.197891 220.461146 
L 437.157891 215.181146 
z
" style="fill: #b88a25; stroke-dasharray: 10,6; stroke-dashoffset: 0; stroke: #b88a25; stroke-width: 2; stroke-linecap: round"/>
   </g>
   <g id="patch_20">
    <path d="M 693.89375 46.3 
Q 564.375 141.60625 436.657263 235.587226 
" style="fill: none; stroke-dasharray: 10,6; stroke-dashoffset: 0; stroke: #b88a25; stroke-width: 2; stroke-linecap: round"/>
    <path d="M 441.945797 234.67541 
L 436.657263 235.587226 
L 439.100931 230.809309 
z
" style="fill: #b88a25; stroke-dasharray: 10,6; stroke-dashoffset: 0; stroke: #b88a25; stroke-width: 2; stroke-linecap: round"/>
   </g>
   <g id="patch_21">
    <path d="M 434.85625 236.9125 
Q 513.05625 236.9125 589.243789 236.9125 
" style="fill: none; stroke: #aa3a3a; stroke-width: 1.8; stroke-linecap: round"/>
    <path d="M 584.443789 234.5125 
L 589.243789 236.9125 
L 584.443789 239.3125 
z
" style="fill: #aa3a3a; stroke: #aa3a3a; stroke-width: 1.8; stroke-linecap: round"/>
   </g>
  </g>
 </g>
 <defs>
  <clipPath id="pdd19ba1a90">
   <rect x="7.2" y="7.2" width="782" height="312.8"/>
  </clipPath>
 </defs>
</svg>
