<?xml version="1.0" encoding="utf-8" standalone="no"?>
<!DOCTYPE svg PUBLIC "-//W3C//DTD SVG 1.1//EN"
  "http://www.w3.org/Graphics/SVG/1.1/DTD/svg11.dtd">
<svg xmlns:xlink="http://www.w3.org/1999/xlink" width="648pt" height="504pt" viewBox="0 0 648 504" xmlns="http://www.w3.org/2000/svg" version="1.1">
 <metadata>
  <rdf:RDF xmlns:dc="http://purl.org/dc/elements/1.1/" xmlns:cc="http://creativecommons.org/ns#" xmlns:rdf="http://www.w3.org/1999/02/22-rdf-syntax-ns#">
   <cc:Work>
    <dc:type rdf:resource="http://purl.org/dc/dcmitype/StillImage"/>
    <dc:date>2026-04-26T20:21:12.434146</dc:date>
    <dc:format>image/svg+xml</dc:format>
    <dc:creator>
     <cc:Agent>
      <dc:title>Matplotlib v3.10.8, https://matplotlib.org/</dc:title>
     </cc:Agent>
    </dc:creator>
   </cc:Work>
  </rdf:RDF>
 </metadata>
 <defs>
  <style type="text/css">*{stroke-linejoin: round; stroke-linecap: butt}</style>
 </defs>
 <g id="figure_1">
  <g id="patch_1">
   <path d="M 0 504 
L 648 504 
L 648 0 
L 0 0 
z
" style="fill: #ffffff"/>
  </g>
  <g id="axes_1">
   <g id="patch_2">
    <path d="M 170.080991 67.486154 
C 155.013107 67.486154 140.217744 71.529795 127.24441 79.193591 
C 114.271077 86.857387 103.589051 97.864117 96.317054 111.061056 
C 89.045056 124.257995 85.446133 139.167776 85.897198 154.228908 
C 86.348263 169.290039 90.832999 183.957723 98.881724 196.695822 
L 170.080991 151.707692 
z
" style="fill: #2ca02c"/>
   </g>
   <g id="patch_3">
    <path d="M 98.881726 196.695827 
C 106.70212 209.072559 117.616217 219.198858 130.543105 226.071818 
C 143.469994 232.944779 157.968356 236.329756 172.602219 235.891485 
C 187.236083 235.453215 201.505848 231.206676 213.998261 223.572433 
C 226.490674 215.93819 236.779239 205.176868 243.844937 192.354312 
C 250.910635 179.531757 254.512255 165.085728 254.293092 150.446943 
C 254.073934 135.808159 250.041478 121.476422 242.595099 108.871127 
C 235.148719 96.265835 224.54262 85.817328 211.827271 78.560473 
C 199.111923 71.303619 184.721427 67.486154 170.081003 67.486154 
L 170.080991 151.707692 
z
" style="fill: #d62728"/>
   </g>
   <g id="matplotlib.axis_1"/>
   <g id="matplotlib.axis_2"/>
   <g id="text_1">
    <!-- A: 19176 -->
    <g transform="translate(52.920654 109.203903) scale(0.08 -0.08)">
     <defs>
      <path id="DejaVuSans-41" d="M 2188 4044 
L 1331 1722 
L 3047 1722 
L 2188 4044 
z
M 1831 4666 
L 2547 4666 
L 4325 0 
L 3669 0 
L 3244 1197 
L 1141 1197 
L 716 0 
L 50 0 
L 1831 4666 
z
" transform="scale(0.015625)"/>
      <path id="DejaVuSans-3a" d="M 750 794 
L 1409 794 
L 1409 0 
L 750 0 
L 750 794 
z
M 750 3309 
L 1409 3309 
L 1409 2516 
L 750 2516 
L 750 3309 
z
" transform="scale(0.015625)"/>
      <path id="DejaVuSans-20" transform="scale(0.015625)"/>
      <path id="DejaVuSans-31" d="M 794 531 
L 1825 531 
L 1825 4091 
L 703 3866 
L 703 4441 
L 1819 4666 
L 2450 4666 
L 2450 531 
L 3481 531 
L 3481 0 
L 794 0 
L 794 531 
z
" transform="scale(0.015625)"/>
      <path id="DejaVuSans-39" d="M 703 97 
L 703 672 
Q 941 559 1184 500 
Q 1428 441 1663 441 
Q 2288 441 2617 861 
Q 2947 1281 2994 2138 
Q 2813 1869 2534 1725 
Q 2256 1581 1919 1581 
Q 1219 1581 811 2004 
Q 403 2428 403 3163 
Q 403 3881 828 4315 
Q 1253 4750 1959 4750 
Q 2769 4750 3195 4129 
Q 3622 3509 3622 2328 
Q 3622 1225 3098 567 
Q 2575 -91 1691 -91 
Q 1453 -91 1209 -44 
Q 966 3 703 97 
z
M 1959 2075 
Q 2384 2075 2632 2365 
Q 2881 2656 2881 3163 
Q 2881 3666 2632 3958 
Q 2384 4250 1959 4250 
Q 1534 4250 1286 3958 
Q 1038 3666 1038 3163 
Q 1038 2656 1286 2365 
Q 1534 2075 1959 2075 
z
" transform="scale(0.015625)"/>
      <path id="DejaVuSans-37" d="M 525 4666 
L 3525 4666 
L 3525 4397 
L 1831 0 
L 1172 0 
L 2766 4134 
L 525 4134 
L 525 4666 
z
" transform="scale(0.015625)"/>
      <path id="DejaVuSans-36" d="M 2113 2584 
Q 1688 2584 1439 2293 
Q 1191 2003 1191 1497 
Q 1191 994 1439 701 
Q 1688 409 2113 409 
Q 2538 409 2786 701 
Q 3034 994 3034 1497 
Q 3034 2003 2786 2293 
Q 2538 2584 2113 2584 
z
M 3366 4563 
L 3366 3988 
Q 3128 4100 2886 4159 
Q 2644 4219 2406 4219 
Q 1781 4219 1451 3797 
Q 1122 3375 1075 2522 
Q 1259 2794 1537 2939 
Q 1816 3084 2150 3084 
Q 2853 3084 3261 2657 
Q 3669 2231 3669 1497 
Q 3669 778 3244 343 
Q 2819 -91 2113 -91 
Q 1303 -91 875 529 
Q 447 1150 447 2328 
Q 447 3434 972 4092 
Q 1497 4750 2381 4750 
Q 2619 4750 2861 4703 
Q 3103 4656 3366 4563 
z
" transform="scale(0.015625)"/>
     </defs>
     <use xlink:href="#DejaVuSans-41"/>
     <use xlink:href="#DejaVuSans-3a" transform="translate(66.658203 0)"/>
     <use xlink:href="#DejaVuSans-20" transform="translate(100.349609 0)"/>
     <use xlink:href="#DejaVuSans-31" transform="translate(132.136719 0)"/>
     <use xlink:href="#DejaVuSans-39" transform="translate(195.759766 0)"/>
     <use xlink:href="#DejaVuSans-31" transform="translate(259.382812 0)"/>
     <use xlink:href="#DejaVuSans-37" transform="translate(323.005859 0)"/>
     <use xlink:href="#DejaVuSans-36" transform="translate(386.628906 0)"/>
    </g>
   </g>
   <g id="text_2">
    <!-- 34% -->
    <g transform="translate(116.932001 129.527216) scale(0.08 -0.08)">
     <defs>
      <path id="DejaVuSans-33" d="M 2597 2516 
Q 3050 2419 3304 2112 
Q 3559 1806 3559 1356 
Q 3559 666 3084 287 
Q 2609 -91 1734 -91 
Q 1441 -91 1130 -33 
Q 819 25 488 141 
L 488 750 
Q 750 597 1062 519 
Q 1375 441 1716 441 
Q 2309 441 2620 675 
Q 2931 909 2931 1356 
Q 2931 1769 2642 2001 
Q 2353 2234 1838 2234 
L 1294 2234 
L 1294 2753 
L 1863 2753 
Q 2328 2753 2575 2939 
Q 2822 3125 2822 3475 
Q 2822 3834 2567 4026 
Q 2313 4219 1838 4219 
Q 1578 4219 1281 4162 
Q 984 4106 628 3988 
L 628 4550 
Q 988 4650 1302 4700 
Q 1616 4750 1894 4750 
Q 2613 4750 3031 4423 
Q 3450 4097 3450 3541 
Q 3450 3153 3228 2886 
Q 3006 2619 2597 2516 
z
" transform="scale(0.015625)"/>
      <path id="DejaVuSans-34" d="M 2419 4116 
L 825 1625 
L 2419 1625 
L 2419 4116 
z
M 2253 4666 
L 3047 4666 
L 3047 1625 
L 3713 1625 
L 3713 1100 
L 3047 1100 
L 3047 0 
L 2419 0 
L 2419 1100 
L 313 1100 
L 313 1709 
L 2253 4666 
z
" transform="scale(0.015625)"/>
      <path id="DejaVuSans-25" d="M 4653 2053 
Q 4381 2053 4226 1822 
Q 4072 1591 4072 1178 
Q 4072 772 4226 539 
Q 4381 306 4653 306 
Q 4919 306 5073 539 
Q 5228 772 5228 1178 
Q 5228 1588 5073 1820 
Q 4919 2053 4653 2053 
z
M 4653 2450 
Q 5147 2450 5437 2106 
Q 5728 1763 5728 1178 
Q 5728 594 5436 251 
Q 5144 -91 4653 -91 
Q 4153 -91 3862 251 
Q 3572 594 3572 1178 
Q 3572 1766 3864 2108 
Q 4156 2450 4653 2450 
z
M 1428 4353 
Q 1159 4353 1004 4120 
Q 850 3888 850 3481 
Q 850 3069 1003 2837 
Q 1156 2606 1428 2606 
Q 1700 2606 1854 2837 
Q 2009 3069 2009 3481 
Q 2009 3884 1853 4118 
Q 1697 4353 1428 4353 
z
M 4250 4750 
L 4750 4750 
L 1831 -91 
L 1331 -91 
L 4250 4750 
z
M 1428 4750 
Q 1922 4750 2215 4408 
Q 2509 4066 2509 3481 
Q 2509 2891 2217 2550 
Q 1925 2209 1428 2209 
Q 931 2209 642 2551 
Q 353 2894 353 3481 
Q 353 4063 643 4406 
Q 934 4750 1428 4750 
z
" transform="scale(0.015625)"/>
     </defs>
     <use xlink:href="#DejaVuSans-33"/>
     <use xlink:href="#DejaVuSans-34" transform="translate(63.623047 0)"/>
     <use xlink:href="#DejaVuSans-25" transform="translate(127.246094 0)"/>
    </g>
   </g>
   <g id="text_3">
    <!-- D: 37276 -->
    <g transform="translate(251.221333 198.626474) scale(0.08 -0.08)">
     <defs>
      <path id="DejaVuSans-44" d="M 1259 4147 
L 1259 519 
L 2022 519 
Q 2988 519 3436 956 
Q 3884 1394 3884 2338 
Q 3884 3275 3436 3711 
Q 2988 4147 2022 4147 
L 1259 4147 
z
M 628 4666 
L 1925 4666 
Q 3281 4666 3915 4102 
Q 4550 3538 4550 2338 
Q 4550 1131 3912 565 
Q 3275 0 1925 0 
L 628 0 
L 628 4666 
z
" transform="scale(0.015625)"/>
      <path id="DejaVuSans-32" d="M 1228 531 
L 3431 531 
L 3431 0 
L 469 0 
L 469 531 
Q 828 903 1448 1529 
Q 2069 2156 2228 2338 
Q 2531 2678 2651 2914 
Q 2772 3150 2772 3378 
Q 2772 3750 2511 3984 
Q 2250 4219 1831 4219 
Q 1534 4219 1204 4116 
Q 875 4013 500 3803 
L 500 4441 
Q 881 4594 1212 4672 
Q 1544 4750 1819 4750 
Q 2544 4750 2975 4387 
Q 3406 4025 3406 3419 
Q 3406 3131 3298 2873 
Q 3191 2616 2906 2266 
Q 2828 2175 2409 1742 
Q 1991 1309 1228 531 
z
" transform="scale(0.015625)"/>
     </defs>
     <use xlink:href="#DejaVuSans-44"/>
     <use xlink:href="#DejaVuSans-3a" transform="translate(77.001953 0)"/>
     <use xlink:href="#DejaVuSans-20" transform="translate(110.693359 0)"/>
     <use xlink:href="#DejaVuSans-33" transform="translate(142.480469 0)"/>
     <use xlink:href="#DejaVuSans-37" transform="translate(206.103516 0)"/>
     <use xlink:href="#DejaVuSans-32" transform="translate(269.726562 0)"/>
     <use xlink:href="#DejaVuSans-37" transform="translate(333.349609 0)"/>
     <use xlink:href="#DejaVuSans-36" transform="translate(396.972656 0)"/>
    </g>
   </g>
   <g id="text_4">
    <!-- 66% -->
    <g transform="translate(205.448734 178.303164) scale(0.08 -0.08)">
     <use xlink:href="#DejaVuSans-36"/>
     <use xlink:href="#DejaVuSans-36" transform="translate(63.623047 0)"/>
     <use xlink:href="#DejaVuSans-25" transform="translate(127.246094 0)"/>
    </g>
   </g>
   <g id="text_5">
    <!-- density -->
    <g transform="translate(148.081616 40.430769) scale(0.12 -0.12)">
     <defs>
      <path id="DejaVuSans-64" d="M 2906 2969 
L 2906 4863 
L 3481 4863 
L 3481 0 
L 2906 0 
L 2906 525 
Q 2725 213 2448 61 
Q 2172 -91 1784 -91 
Q 1150 -91 751 415 
Q 353 922 353 1747 
Q 353 2572 751 3078 
Q 1150 3584 1784 3584 
Q 2172 3584 2448 3432 
Q 2725 3281 2906 2969 
z
M 947 1747 
Q 947 1113 1208 752 
Q 1469 391 1925 391 
Q 2381 391 2643 752 
Q 2906 1113 2906 1747 
Q 2906 2381 2643 2742 
Q 2381 3103 1925 3103 
Q 1469 3103 1208 2742 
Q 947 2381 947 1747 
z
" transform="scale(0.015625)"/>
      <path id="DejaVuSans-65" d="M 3597 1894 
L 3597 1613 
L 953 1613 
Q 991 1019 1311 708 
Q 1631 397 2203 397 
Q 2534 397 2845 478 
Q 3156 559 3463 722 
L 3463 178 
Q 3153 47 2828 -22 
Q 2503 -91 2169 -91 
Q 1331 -91 842 396 
Q 353 884 353 1716 
Q 353 2575 817 3079 
Q 1281 3584 2069 3584 
Q 2775 3584 3186 3129 
Q 3597 2675 3597 1894 
z
M 3022 2063 
Q 3016 2534 2758 2815 
Q 2500 3097 2075 3097 
Q 1594 3097 1305 2825 
Q 1016 2553 972 2059 
L 3022 2063 
z
" transform="scale(0.015625)"/>
      <path id="DejaVuSans-6e" d="M 3513 2113 
L 3513 0 
L 2938 0 
L 2938 2094 
Q 2938 2591 2744 2837 
Q 2550 3084 2163 3084 
Q 1697 3084 1428 2787 
Q 1159 2491 1159 1978 
L 1159 0 
L 581 0 
L 581 3500 
L 1159 3500 
L 1159 2956 
Q 1366 3272 1645 3428 
Q 1925 3584 2291 3584 
Q 2894 3584 3203 3211 
Q 3513 2838 3513 2113 
z
" transform="scale(0.015625)"/>
      <path id="DejaVuSans-73" d="M 2834 3397 
L 2834 2853 
Q 2591 2978 2328 3040 
Q 2066 3103 1784 3103 
Q 1356 3103 1142 2972 
Q 928 2841 928 2578 
Q 928 2378 1081 2264 
Q 1234 2150 1697 2047 
L 1894 2003 
Q 2506 1872 2764 1633 
Q 3022 1394 3022 966 
Q 3022 478 2636 193 
Q 2250 -91 1575 -91 
Q 1294 -91 989 -36 
Q 684 19 347 128 
L 347 722 
Q 666 556 975 473 
Q 1284 391 1588 391 
Q 1994 391 2212 530 
Q 2431 669 2431 922 
Q 2431 1156 2273 1281 
Q 2116 1406 1581 1522 
L 1381 1569 
Q 847 1681 609 1914 
Q 372 2147 372 2553 
Q 372 3047 722 3315 
Q 1072 3584 1716 3584 
Q 2034 3584 2315 3537 
Q 2597 3491 2834 3397 
z
" transform="scale(0.015625)"/>
      <path id="DejaVuSans-69" d="M 603 3500 
L 1178 3500 
L 1178 0 
L 603 0 
L 603 3500 
z
M 603 4863 
L 1178 4863 
L 1178 4134 
L 603 4134 
L 603 4863 
z
" transform="scale(0.015625)"/>
      <path id="DejaVuSans-74" d="M 1172 4494 
L 1172 3500 
L 2356 3500 
L 2356 3053 
L 1172 3053 
L 1172 1153 
Q 1172 725 1289 603 
Q 1406 481 1766 481 
L 2356 481 
L 2356 0 
L 1766 0 
Q 1100 0 847 248 
Q 594 497 594 1153 
L 594 3053 
L 172 3053 
L 172 3500 
L 594 3500 
L 594 4494 
L 1172 4494 
z
" transform="scale(0.015625)"/>
      <path id="DejaVuSans-79" d="M 2059 -325 
Q 1816 -950 1584 -1140 
Q 1353 -1331 966 -1331 
L 506 -1331 
L 506 -850 
L 844 -850 
Q 1081 -850 1212 -737 
Q 1344 -625 1503 -206 
L 1606 56 
L 191 3500 
L 800 3500 
L 1894 763 
L 2988 3500 
L 3597 3500 
L 2059 -325 
z
" transform="scale(0.015625)"/>
     </defs>
     <use xlink:href="#DejaVuSans-64"/>
     <use xlink:href="#DejaVuSans-65" transform="translate(63.476562 0)"/>
     <use xlink:href="#DejaVuSans-6e" transform="translate(125 0)"/>
     <use xlink:href="#DejaVuSans-73" transform="translate(188.378906 0)"/>
     <use xlink:href="#DejaVuSans-69" transform="translate(240.478516 0)"/>
     <use xlink:href="#DejaVuSans-74" transform="translate(268.261719 0)"/>
     <use xlink:href="#DejaVuSans-79" transform="translate(307.470703 0)"/>
    </g>
   </g>
  </g>
  <g id="axes_2">
   <g id="patch_4">
    <path d="M 477.919009 67.486154 
C 476.78009 67.486154 475.641289 67.509256 474.503308 67.555446 
C 473.365327 67.601636 472.2284 67.670905 471.093228 67.763209 
L 477.919009 151.707692 
z
" style="fill: #2ca02c"/>
   </g>
   <g id="patch_5">
    <path d="M 471.093232 67.763207 
C 467.982946 68.016115 464.889117 68.44169 461.826062 69.03796 
C 458.763007 69.63423 455.73546 70.400281 452.757424 71.332559 
L 477.919009 151.707692 
z
" style="fill: #1f77b4"/>
   </g>
   <g id="patch_6">
    <path d="M 452.757424 71.332559 
C 433.949832 77.22031 417.792622 89.526692 407.119059 106.093715 
C 396.445496 122.660734 391.918213 142.459905 394.331099 162.019278 
L 477.919009 151.707692 
z
" style="fill: #ff7f0e"/>
   </g>
   <g id="patch_7">
    <path d="M 394.331099 162.019278 
C 396.316457 178.113021 402.908157 193.296031 413.310505 205.735543 
C 423.712853 218.175055 437.489744 227.349563 452.978153 232.151594 
C 468.466562 236.953621 485.017136 237.18187 500.632073 232.808767 
C 516.247011 228.435669 530.271677 219.644543 541.013095 207.496612 
C 551.754514 195.348681 558.762382 180.353234 561.190784 164.320358 
C 563.619187 148.287481 561.366308 131.889364 554.704097 117.105412 
C 548.041886 102.32146 537.24963 89.771472 523.630103 80.970407 
C 510.010576 72.169342 494.134762 67.486154 477.91902 67.486154 
L 477.919009 151.707692 
z
" style="fill: #d62728"/>
   </g>
   <g id="matplotlib.axis_3"/>
   <g id="matplotlib.axis_4"/>
   <g id="text_6">
    <!-- A: 702 -->
    <g transform="translate(448.321722 61.347722) scale(0.08 -0.08)">
     <defs>
      <path id="DejaVuSans-30" d="M 2034 4250 
Q 1547 4250 1301 3770 
Q 1056 3291 1056 2328 
Q 1056 1369 1301 889 
Q 1547 409 2034 409 
Q 2525 409 2770 889 
Q 3016 1369 3016 2328 
Q 3016 3291 2770 3770 
Q 2525 4250 2034 4250 
z
M 2034 4750 
Q 2819 4750 3233 4129 
Q 3647 3509 3647 2328 
Q 3647 1150 3233 529 
Q 2819 -91 2034 -91 
Q 1250 -91 836 529 
Q 422 1150 422 2328 
Q 422 3509 836 4129 
Q 1250 4750 2034 4750 
z
" transform="scale(0.015625)"/>
     </defs>
     <use xlink:href="#DejaVuSans-41"/>
     <use xlink:href="#DejaVuSans-3a" transform="translate(66.658203 0)"/>
     <use xlink:href="#DejaVuSans-20" transform="translate(100.349609 0)"/>
     <use xlink:href="#DejaVuSans-37" transform="translate(132.136719 0)"/>
     <use xlink:href="#DejaVuSans-30" transform="translate(195.759766 0)"/>
     <use xlink:href="#DejaVuSans-32" transform="translate(259.382812 0)"/>
    </g>
   </g>
   <g id="text_7">
    <!-- 1% -->
    <g transform="translate(469.523954 103.423845) scale(0.08 -0.08)">
     <use xlink:href="#DejaVuSans-31"/>
     <use xlink:href="#DejaVuSans-25" transform="translate(63.623047 0)"/>
    </g>
   </g>
   <g id="text_8">
    <!-- B: 1923 -->
    <g transform="translate(429.130507 62.978489) scale(0.08 -0.08)">
     <defs>
      <path id="DejaVuSans-42" d="M 1259 2228 
L 1259 519 
L 2272 519 
Q 2781 519 3026 730 
Q 3272 941 3272 1375 
Q 3272 1813 3026 2020 
Q 2781 2228 2272 2228 
L 1259 2228 
z
M 1259 4147 
L 1259 2741 
L 2194 2741 
Q 2656 2741 2882 2914 
Q 3109 3088 3109 3444 
Q 3109 3797 2882 3972 
Q 2656 4147 2194 4147 
L 1259 4147 
z
M 628 4666 
L 2241 4666 
Q 2963 4666 3353 4366 
Q 3744 4066 3744 3513 
Q 3744 3084 3544 2831 
Q 3344 2578 2956 2516 
Q 3422 2416 3680 2098 
Q 3938 1781 3938 1306 
Q 3938 681 3513 340 
Q 3088 0 2303 0 
L 628 0 
L 628 4666 
z
" transform="scale(0.015625)"/>
     </defs>
     <use xlink:href="#DejaVuSans-42"/>
     <use xlink:href="#DejaVuSans-3a" transform="translate(68.603516 0)"/>
     <use xlink:href="#DejaVuSans-20" transform="translate(102.294922 0)"/>
     <use xlink:href="#DejaVuSans-31" transform="translate(134.082031 0)"/>
     <use xlink:href="#DejaVuSans-39" transform="translate(197.705078 0)"/>
     <use xlink:href="#DejaVuSans-32" transform="translate(261.328125 0)"/>
     <use xlink:href="#DejaVuSans-33" transform="translate(324.951172 0)"/>
    </g>
   </g>
   <g id="text_9">
    <!-- 4% -->
    <g transform="translate(461.91761 104.313354) scale(0.08 -0.08)">
     <use xlink:href="#DejaVuSans-34"/>
     <use xlink:href="#DejaVuSans-25" transform="translate(63.623047 0)"/>
    </g>
   </g>
   <g id="text_10">
    <!-- C: 12028 -->
    <g transform="translate(363.765303 103.739837) scale(0.08 -0.08)">
     <defs>
      <path id="DejaVuSans-43" d="M 4122 4306 
L 4122 3641 
Q 3803 3938 3442 4084 
Q 3081 4231 2675 4231 
Q 1875 4231 1450 3742 
Q 1025 3253 1025 2328 
Q 1025 1406 1450 917 
Q 1875 428 2675 428 
Q 3081 428 3442 575 
Q 3803 722 4122 1019 
L 4122 359 
Q 3791 134 3420 21 
Q 3050 -91 2638 -91 
Q 1578 -91 968 557 
Q 359 1206 359 2328 
Q 359 3453 968 4101 
Q 1578 4750 2638 4750 
Q 3056 4750 3426 4639 
Q 3797 4528 4122 4306 
z
" transform="scale(0.015625)"/>
      <path id="DejaVuSans-38" d="M 2034 2216 
Q 1584 2216 1326 1975 
Q 1069 1734 1069 1313 
Q 1069 891 1326 650 
Q 1584 409 2034 409 
Q 2484 409 2743 651 
Q 3003 894 3003 1313 
Q 3003 1734 2745 1975 
Q 2488 2216 2034 2216 
z
M 1403 2484 
Q 997 2584 770 2862 
Q 544 3141 544 3541 
Q 544 4100 942 4425 
Q 1341 4750 2034 4750 
Q 2731 4750 3128 4425 
Q 3525 4100 3525 3541 
Q 3525 3141 3298 2862 
Q 3072 2584 2669 2484 
Q 3125 2378 3379 2068 
Q 3634 1759 3634 1313 
Q 3634 634 3220 271 
Q 2806 -91 2034 -91 
Q 1263 -91 848 271 
Q 434 634 434 1313 
Q 434 1759 690 2068 
Q 947 2378 1403 2484 
z
M 1172 3481 
Q 1172 3119 1398 2916 
Q 1625 2713 2034 2713 
Q 2441 2713 2670 2916 
Q 2900 3119 2900 3481 
Q 2900 3844 2670 4047 
Q 2441 4250 2034 4250 
Q 1625 4250 1398 4047 
Q 1172 3844 1172 3481 
z
" transform="scale(0.015625)"/>
     </defs>
     <use xlink:href="#DejaVuSans-43"/>
     <use xlink:href="#DejaVuSans-3a" transform="translate(69.824219 0)"/>
     <use xlink:href="#DejaVuSans-20" transform="translate(103.515625 0)"/>
     <use xlink:href="#DejaVuSans-31" transform="translate(135.302734 0)"/>
     <use xlink:href="#DejaVuSans-32" transform="translate(198.925781 0)"/>
     <use xlink:href="#DejaVuSans-30" transform="translate(262.548828 0)"/>
     <use xlink:href="#DejaVuSans-32" transform="translate(326.171875 0)"/>
     <use xlink:href="#DejaVuSans-38" transform="translate(389.794922 0)"/>
    </g>
   </g>
   <g id="text_11">
    <!-- 22% -->
    <g transform="translate(426.548408 126.546817) scale(0.08 -0.08)">
     <use xlink:href="#DejaVuSans-32"/>
     <use xlink:href="#DejaVuSans-32" transform="translate(63.623047 0)"/>
     <use xlink:href="#DejaVuSans-25" transform="translate(127.246094 0)"/>
    </g>
   </g>
   <g id="text_12">
    <!-- D: 39711 -->
    <g transform="translate(547.322504 215.283006) scale(0.08 -0.08)">
     <use xlink:href="#DejaVuSans-44"/>
     <use xlink:href="#DejaVuSans-3a" transform="translate(77.001953 0)"/>
     <use xlink:href="#DejaVuSans-20" transform="translate(110.693359 0)"/>
     <use xlink:href="#DejaVuSans-33" transform="translate(142.480469 0)"/>
     <use xlink:href="#DejaVuSans-39" transform="translate(206.103516 0)"/>
     <use xlink:href="#DejaVuSans-37" transform="translate(269.726562 0)"/>
     <use xlink:href="#DejaVuSans-31" transform="translate(333.349609 0)"/>
     <use xlink:href="#DejaVuSans-31" transform="translate(396.972656 0)"/>
    </g>
   </g>
   <g id="text_13">
    <!-- 73% -->
    <g transform="translate(506.884835 187.388545) scale(0.08 -0.08)">
     <use xlink:href="#DejaVuSans-37"/>
     <use xlink:href="#DejaVuSans-33" transform="translate(63.623047 0)"/>
     <use xlink:href="#DejaVuSans-25" transform="translate(127.246094 0)"/>
    </g>
   </g>
   <g id="text_14">
    <!-- heat of formation -->
    <g transform="translate(425.639321 40.430769) scale(0.12 -0.12)">
     <defs>
      <path id="DejaVuSans-68" d="M 3513 2113 
L 3513 0 
L 2938 0 
L 2938 2094 
Q 2938 2591 2744 2837 
Q 2550 3084 2163 3084 
Q 1697 3084 1428 2787 
Q 1159 2491 1159 1978 
L 1159 0 
L 581 0 
L 581 4863 
L 1159 4863 
L 1159 2956 
Q 1366 3272 1645 3428 
Q 1925 3584 2291 3584 
Q 2894 3584 3203 3211 
Q 3513 2838 3513 2113 
z
" transform="scale(0.015625)"/>
      <path id="DejaVuSans-61" d="M 2194 1759 
Q 1497 1759 1228 1600 
Q 959 1441 959 1056 
Q 959 750 1161 570 
Q 1363 391 1709 391 
Q 2188 391 2477 730 
Q 2766 1069 2766 1631 
L 2766 1759 
L 2194 1759 
z
M 3341 1997 
L 3341 0 
L 2766 0 
L 2766 531 
Q 2569 213 2275 61 
Q 1981 -91 1556 -91 
Q 1019 -91 701 211 
Q 384 513 384 1019 
Q 384 1609 779 1909 
Q 1175 2209 1959 2209 
L 2766 2209 
L 2766 2266 
Q 2766 2663 2505 2880 
Q 2244 3097 1772 3097 
Q 1472 3097 1187 3025 
Q 903 2953 641 2809 
L 641 3341 
Q 956 3463 1253 3523 
Q 1550 3584 1831 3584 
Q 2591 3584 2966 3190 
Q 3341 2797 3341 1997 
z
" transform="scale(0.015625)"/>
      <path id="DejaVuSans-6f" d="M 1959 3097 
Q 1497 3097 1228 2736 
Q 959 2375 959 1747 
Q 959 1119 1226 758 
Q 1494 397 1959 397 
Q 2419 397 2687 759 
Q 2956 1122 2956 1747 
Q 2956 2369 2687 2733 
Q 2419 3097 1959 3097 
z
M 1959 3584 
Q 2709 3584 3137 3096 
Q 3566 2609 3566 1747 
Q 3566 888 3137 398 
Q 2709 -91 1959 -91 
Q 1206 -91 779 398 
Q 353 888 353 1747 
Q 353 2609 779 3096 
Q 1206 3584 1959 3584 
z
" transform="scale(0.015625)"/>
      <path id="DejaVuSans-66" d="M 2375 4863 
L 2375 4384 
L 1825 4384 
Q 1516 4384 1395 4259 
Q 1275 4134 1275 3809 
L 1275 3500 
L 2222 3500 
L 2222 3053 
L 1275 3053 
L 1275 0 
L 697 0 
L 697 3053 
L 147 3053 
L 147 3500 
L 697 3500 
L 697 3744 
Q 697 4328 969 4595 
Q 1241 4863 1831 4863 
L 2375 4863 
z
" transform="scale(0.015625)"/>
      <path id="DejaVuSans-72" d="M 2631 2963 
Q 2534 3019 2420 3045 
Q 2306 3072 2169 3072 
Q 1681 3072 1420 2755 
Q 1159 2438 1159 1844 
L 1159 0 
L 581 0 
L 581 3500 
L 1159 3500 
L 1159 2956 
Q 1341 3275 1631 3429 
Q 1922 3584 2338 3584 
Q 2397 3584 2469 3576 
Q 2541 3569 2628 3553 
L 2631 2963 
z
" transform="scale(0.015625)"/>
      <path id="DejaVuSans-6d" d="M 3328 2828 
Q 3544 3216 3844 3400 
Q 4144 3584 4550 3584 
Q 5097 3584 5394 3201 
Q 5691 2819 5691 2113 
L 5691 0 
L 5113 0 
L 5113 2094 
Q 5113 2597 4934 2840 
Q 4756 3084 4391 3084 
Q 3944 3084 3684 2787 
Q 3425 2491 3425 1978 
L 3425 0 
L 2847 0 
L 2847 2094 
Q 2847 2600 2669 2842 
Q 2491 3084 2119 3084 
Q 1678 3084 1418 2786 
Q 1159 2488 1159 1978 
L 1159 0 
L 581 0 
L 581 3500 
L 1159 3500 
L 1159 2956 
Q 1356 3278 1631 3431 
Q 1906 3584 2284 3584 
Q 2666 3584 2933 3390 
Q 3200 3197 3328 2828 
z
" transform="scale(0.015625)"/>
     </defs>
     <use xlink:href="#DejaVuSans-68"/>
     <use xlink:href="#DejaVuSans-65" transform="translate(63.378906 0)"/>
     <use xlink:href="#DejaVuSans-61" transform="translate(124.902344 0)"/>
     <use xlink:href="#DejaVuSans-74" transform="translate(186.181641 0)"/>
     <use xlink:href="#DejaVuSans-20" transform="translate(225.390625 0)"/>
     <use xlink:href="#DejaVuSans-6f" transform="translate(257.177734 0)"/>
     <use xlink:href="#DejaVuSans-66" transform="translate(318.359375 0)"/>
     <use xlink:href="#DejaVuSans-20" transform="translate(353.564453 0)"/>
     <use xlink:href="#DejaVuSans-66" transform="translate(385.351562 0)"/>
     <use xlink:href="#DejaVuSans-6f" transform="translate(420.556641 0)"/>
     <use xlink:href="#DejaVuSans-72" transform="translate(481.738281 0)"/>
     <use xlink:href="#DejaVuSans-6d" transform="translate(521.101562 0)"/>
     <use xlink:href="#DejaVuSans-61" transform="translate(618.513672 0)"/>
     <use xlink:href="#DejaVuSans-74" transform="translate(679.792969 0)"/>
     <use xlink:href="#DejaVuSans-69" transform="translate(719.001953 0)"/>
     <use xlink:href="#DejaVuSans-6f" transform="translate(746.785156 0)"/>
     <use xlink:href="#DejaVuSans-6e" transform="translate(807.966797 0)"/>
    </g>
   </g>
  </g>
  <g id="axes_3">
   <g id="patch_8">
    <path d="M 170.080991 303.701538 
C 169.031185 303.701538 167.98147 303.721167 166.932397 303.760414 
C 165.883325 303.79966 164.835078 303.858518 163.788206 303.936957 
L 170.080991 387.923077 
z
" style="fill: #2ca02c"/>
   </g>
   <g id="patch_9">
    <path d="M 163.788209 303.936956 
C 160.505233 304.182936 157.239504 304.621202 154.007835 305.249494 
C 150.776166 305.877787 147.584115 306.695027 144.448117 307.697003 
L 170.080991 387.923077 
z
" style="fill: #1f77b4"/>
   </g>
   <g id="patch_10">
    <path d="M 144.448117 307.697003 
C 124.765563 313.985736 108.069451 327.303049 97.56201 345.094755 
C 87.054568 362.88646 83.45344 383.937419 87.44929 404.210165 
L 170.080991 387.923077 
z
" style="fill: #ff7f0e"/>
   </g>
   <g id="patch_11">
    <path d="M 87.44929 404.210165 
C 90.535407 419.867418 98.00903 434.329692 108.995455 445.904324 
C 119.981879 457.478956 134.035074 465.696035 149.510243 469.59383 
C 164.985412 473.491621 181.25431 472.911891 196.412787 467.922478 
C 211.571264 462.933065 225.003917 453.73655 235.138609 441.40928 
C 245.273301 429.08201 251.698578 414.124433 253.6624 398.28723 
C 255.626222 382.450026 253.048877 366.376119 246.232015 351.946842 
C 239.415153 337.517564 228.635542 325.318716 215.154808 316.778023 
C 201.674073 308.23733 186.0395 303.701538 170.081003 303.701538 
L 170.080991 387.923077 
z
" style="fill: #d62728"/>
   </g>
   <g id="matplotlib.axis_5"/>
   <g id="matplotlib.axis_6"/>
   <g id="text_15">
    <!-- A: 614 -->
    <g transform="translate(140.777527 297.551648) scale(0.08 -0.08)">
     <use xlink:href="#DejaVuSans-41"/>
     <use xlink:href="#DejaVuSans-3a" transform="translate(66.658203 0)"/>
     <use xlink:href="#DejaVuSans-20" transform="translate(100.349609 0)"/>
     <use xlink:href="#DejaVuSans-36" transform="translate(132.136719 0)"/>
     <use xlink:href="#DejaVuSans-31" transform="translate(195.759766 0)"/>
     <use xlink:href="#DejaVuSans-34" transform="translate(259.382812 0)"/>
    </g>
   </g>
   <g id="text_16">
    <!-- 1% -->
    <g transform="translate(161.846204 339.632979) scale(0.08 -0.08)">
     <use xlink:href="#DejaVuSans-31"/>
     <use xlink:href="#DejaVuSans-25" transform="translate(63.623047 0)"/>
    </g>
   </g>
   <g id="text_17">
    <!-- B: 1925 -->
    <g transform="translate(121.314258 299.189639) scale(0.08 -0.08)">
     <defs>
      <path id="DejaVuSans-35" d="M 691 4666 
L 3169 4666 
L 3169 4134 
L 1269 4134 
L 1269 2991 
Q 1406 3038 1543 3061 
Q 1681 3084 1819 3084 
Q 2600 3084 3056 2656 
Q 3513 2228 3513 1497 
Q 3513 744 3044 326 
Q 2575 -91 1722 -91 
Q 1428 -91 1123 -41 
Q 819 9 494 109 
L 494 744 
Q 775 591 1075 516 
Q 1375 441 1709 441 
Q 2250 441 2565 725 
Q 2881 1009 2881 1497 
Q 2881 1984 2565 2268 
Q 2250 2553 1709 2553 
Q 1456 2553 1204 2497 
Q 953 2441 691 2322 
L 691 4666 
z
" transform="scale(0.015625)"/>
     </defs>
     <use xlink:href="#DejaVuSans-42"/>
     <use xlink:href="#DejaVuSans-3a" transform="translate(68.603516 0)"/>
     <use xlink:href="#DejaVuSans-20" transform="translate(102.294922 0)"/>
     <use xlink:href="#DejaVuSans-31" transform="translate(134.082031 0)"/>
     <use xlink:href="#DejaVuSans-39" transform="translate(197.705078 0)"/>
     <use xlink:href="#DejaVuSans-32" transform="translate(261.328125 0)"/>
     <use xlink:href="#DejaVuSans-35" transform="translate(324.951172 0)"/>
    </g>
   </g>
   <g id="text_18">
    <!-- 4% -->
    <g transform="translate(154.091467 340.526429) scale(0.08 -0.08)">
     <use xlink:href="#DejaVuSans-34"/>
     <use xlink:href="#DejaVuSans-25" transform="translate(63.623047 0)"/>
    </g>
   </g>
   <g id="text_19">
    <!-- C: 11955 -->
    <g transform="translate(54.036361 343.019428) scale(0.08 -0.08)">
     <use xlink:href="#DejaVuSans-43"/>
     <use xlink:href="#DejaVuSans-3a" transform="translate(69.824219 0)"/>
     <use xlink:href="#DejaVuSans-20" transform="translate(103.515625 0)"/>
     <use xlink:href="#DejaVuSans-31" transform="translate(135.302734 0)"/>
     <use xlink:href="#DejaVuSans-31" transform="translate(198.925781 0)"/>
     <use xlink:href="#DejaVuSans-39" transform="translate(262.548828 0)"/>
     <use xlink:href="#DejaVuSans-35" transform="translate(326.171875 0)"/>
     <use xlink:href="#DejaVuSans-35" transform="translate(389.794922 0)"/>
    </g>
   </g>
   <g id="text_20">
    <!-- 23% -->
    <g transform="translate(117.678977 364.433586) scale(0.08 -0.08)">
     <use xlink:href="#DejaVuSans-32"/>
     <use xlink:href="#DejaVuSans-33" transform="translate(63.623047 0)"/>
     <use xlink:href="#DejaVuSans-25" transform="translate(127.246094 0)"/>
    </g>
   </g>
   <g id="text_21">
    <!-- D: 37091 -->
    <g transform="translate(241.644397 448.965368) scale(0.08 -0.08)">
     <use xlink:href="#DejaVuSans-44"/>
     <use xlink:href="#DejaVuSans-3a" transform="translate(77.001953 0)"/>
     <use xlink:href="#DejaVuSans-20" transform="translate(110.693359 0)"/>
     <use xlink:href="#DejaVuSans-33" transform="translate(142.480469 0)"/>
     <use xlink:href="#DejaVuSans-37" transform="translate(206.103516 0)"/>
     <use xlink:href="#DejaVuSans-30" transform="translate(269.726562 0)"/>
     <use xlink:href="#DejaVuSans-39" transform="translate(333.349609 0)"/>
     <use xlink:href="#DejaVuSans-31" transform="translate(396.972656 0)"/>
    </g>
   </g>
   <g id="text_22">
    <!-- 72% -->
    <g transform="translate(200.224951 422.222281) scale(0.08 -0.08)">
     <use xlink:href="#DejaVuSans-37"/>
     <use xlink:href="#DejaVuSans-32" transform="translate(63.623047 0)"/>
     <use xlink:href="#DejaVuSans-25" transform="translate(127.246094 0)"/>
    </g>
   </g>
   <g id="text_23">
    <!-- detonation velocity -->
    <g transform="translate(112.226929 276.646154) scale(0.12 -0.12)">
     <defs>
      <path id="DejaVuSans-76" d="M 191 3500 
L 800 3500 
L 1894 563 
L 2988 3500 
L 3597 3500 
L 2284 0 
L 1503 0 
L 191 3500 
z
" transform="scale(0.015625)"/>
      <path id="DejaVuSans-6c" d="M 603 4863 
L 1178 4863 
L 1178 0 
L 603 0 
L 603 4863 
z
" transform="scale(0.015625)"/>
      <path id="DejaVuSans-63" d="M 3122 3366 
L 3122 2828 
Q 2878 2963 2633 3030 
Q 2388 3097 2138 3097 
Q 1578 3097 1268 2742 
Q 959 2388 959 1747 
Q 959 1106 1268 751 
Q 1578 397 2138 397 
Q 2388 397 2633 464 
Q 2878 531 3122 666 
L 3122 134 
Q 2881 22 2623 -34 
Q 2366 -91 2075 -91 
Q 1284 -91 818 406 
Q 353 903 353 1747 
Q 353 2603 823 3093 
Q 1294 3584 2113 3584 
Q 2378 3584 2631 3529 
Q 2884 3475 3122 3366 
z
" transform="scale(0.015625)"/>
     </defs>
     <use xlink:href="#DejaVuSans-64"/>
     <use xlink:href="#DejaVuSans-65" transform="translate(63.476562 0)"/>
     <use xlink:href="#DejaVuSans-74" transform="translate(125 0)"/>
     <use xlink:href="#DejaVuSans-6f" transform="translate(164.208984 0)"/>
     <use xlink:href="#DejaVuSans-6e" transform="translate(225.390625 0)"/>
     <use xlink:href="#DejaVuSans-61" transform="translate(288.769531 0)"/>
     <use xlink:href="#DejaVuSans-74" transform="translate(350.048828 0)"/>
     <use xlink:href="#DejaVuSans-69" transform="translate(389.257812 0)"/>
     <use xlink:href="#DejaVuSans-6f" transform="translate(417.041016 0)"/>
     <use xlink:href="#DejaVuSans-6e" transform="translate(478.222656 0)"/>
     <use xlink:href="#DejaVuSans-20" transform="translate(541.601562 0)"/>
     <use xlink:href="#DejaVuSans-76" transform="translate(573.388672 0)"/>
     <use xlink:href="#DejaVuSans-65" transform="translate(632.568359 0)"/>
     <use xlink:href="#DejaVuSans-6c" transform="translate(694.091797 0)"/>
     <use xlink:href="#DejaVuSans-6f" transform="translate(721.875 0)"/>
     <use xlink:href="#DejaVuSans-63" transform="translate(783.056641 0)"/>
     <use xlink:href="#DejaVuSans-69" transform="translate(838.037109 0)"/>
     <use xlink:href="#DejaVuSans-74" transform="translate(865.820312 0)"/>
     <use xlink:href="#DejaVuSans-79" transform="translate(905.029297 0)"/>
    </g>
   </g>
  </g>
  <g id="axes_4">
   <g id="patch_12">
    <path d="M 477.919009 303.701538 
C 477.058332 303.701538 476.197707 303.714732 475.337435 303.741113 
C 474.477163 303.767495 473.617347 303.807062 472.758288 303.8598 
L 477.919009 387.923077 
z
" style="fill: #2ca02c"/>
   </g>
   <g id="patch_13">
    <path d="M 472.758292 303.859799 
C 468.921863 304.095322 465.106051 304.593195 461.337628 305.349924 
C 457.569204 306.106653 453.857001 307.120471 450.227055 308.38426 
L 477.919009 387.923077 
z
" style="fill: #1f77b4"/>
   </g>
   <g id="patch_14">
    <path d="M 450.227055 308.38426 
C 438.93907 312.314243 428.615942 318.60253 419.945738 326.829975 
C 411.275534 335.05742 404.455264 345.03708 399.939533 356.103764 
C 395.423801 367.170449 393.315218 379.072697 393.754327 391.017174 
C 394.193436 402.961653 397.170257 414.676949 402.486377 425.382191 
L 477.919009 387.923077 
z
" style="fill: #ff7f0e"/>
   </g>
   <g id="patch_15">
    <path d="M 402.486377 425.382191 
C 409.160852 438.822798 419.307858 450.238397 431.873095 458.442871 
C 444.438333 466.647344 458.97098 471.346326 473.961017 472.05156 
C 488.951055 472.756794 503.860678 469.442985 517.1407 462.454454 
C 530.420725 455.465923 541.594692 445.053395 549.50157 432.298793 
C 557.408449 419.54419 561.764559 404.905118 562.117279 389.902645 
C 562.469999 374.900172 558.806673 360.072552 551.507942 346.960456 
C 544.209211 333.84836 533.536932 322.92221 520.600014 315.317295 
C 507.663096 307.712379 492.925638 303.701538 477.91902 303.701538 
L 477.919009 387.923077 
z
" style="fill: #d62728"/>
   </g>
   <g id="matplotlib.axis_7"/>
   <g id="matplotlib.axis_8"/>
   <g id="text_24">
    <!-- A: 433 -->
    <g transform="translate(449.239278 297.530417) scale(0.08 -0.08)">
     <use xlink:href="#DejaVuSans-41"/>
     <use xlink:href="#DejaVuSans-3a" transform="translate(66.658203 0)"/>
     <use xlink:href="#DejaVuSans-20" transform="translate(100.349609 0)"/>
     <use xlink:href="#DejaVuSans-34" transform="translate(132.136719 0)"/>
     <use xlink:href="#DejaVuSans-33" transform="translate(195.759766 0)"/>
     <use xlink:href="#DejaVuSans-33" transform="translate(259.382812 0)"/>
    </g>
   </g>
   <g id="text_25">
    <!-- 1% -->
    <g transform="translate(470.02444 339.621399) scale(0.08 -0.08)">
     <use xlink:href="#DejaVuSans-31"/>
     <use xlink:href="#DejaVuSans-25" transform="translate(63.623047 0)"/>
    </g>
   </g>
   <g id="text_26">
    <!-- B: 1933 -->
    <g transform="translate(428.593239 299.30011) scale(0.08 -0.08)">
     <use xlink:href="#DejaVuSans-42"/>
     <use xlink:href="#DejaVuSans-3a" transform="translate(68.603516 0)"/>
     <use xlink:href="#DejaVuSans-20" transform="translate(102.294922 0)"/>
     <use xlink:href="#DejaVuSans-31" transform="translate(134.082031 0)"/>
     <use xlink:href="#DejaVuSans-39" transform="translate(197.705078 0)"/>
     <use xlink:href="#DejaVuSans-33" transform="translate(261.328125 0)"/>
     <use xlink:href="#DejaVuSans-33" transform="translate(324.951172 0)"/>
    </g>
   </g>
   <g id="text_27">
    <!-- 4% -->
    <g transform="translate(461.624555 340.586686) scale(0.08 -0.08)">
     <use xlink:href="#DejaVuSans-34"/>
     <use xlink:href="#DejaVuSans-25" transform="translate(63.623047 0)"/>
    </g>
   </g>
   <g id="text_28">
    <!-- C: 11982 -->
    <g transform="translate(355.867826 355.129352) scale(0.08 -0.08)">
     <use xlink:href="#DejaVuSans-43"/>
     <use xlink:href="#DejaVuSans-3a" transform="translate(69.824219 0)"/>
     <use xlink:href="#DejaVuSans-20" transform="translate(103.515625 0)"/>
     <use xlink:href="#DejaVuSans-31" transform="translate(135.302734 0)"/>
     <use xlink:href="#DejaVuSans-31" transform="translate(198.925781 0)"/>
     <use xlink:href="#DejaVuSans-39" transform="translate(262.548828 0)"/>
     <use xlink:href="#DejaVuSans-38" transform="translate(326.171875 0)"/>
     <use xlink:href="#DejaVuSans-32" transform="translate(389.794922 0)"/>
    </g>
   </g>
   <g id="text_29">
    <!-- 27% -->
    <g transform="translate(422.240693 371.039) scale(0.08 -0.08)">
     <use xlink:href="#DejaVuSans-32"/>
     <use xlink:href="#DejaVuSans-37" transform="translate(63.623047 0)"/>
     <use xlink:href="#DejaVuSans-25" transform="translate(127.246094 0)"/>
    </g>
   </g>
   <g id="text_30">
    <!-- D: 30024 -->
    <g transform="translate(556.65985 438.943829) scale(0.08 -0.08)">
     <use xlink:href="#DejaVuSans-44"/>
     <use xlink:href="#DejaVuSans-3a" transform="translate(77.001953 0)"/>
     <use xlink:href="#DejaVuSans-20" transform="translate(110.693359 0)"/>
     <use xlink:href="#DejaVuSans-33" transform="translate(142.480469 0)"/>
     <use xlink:href="#DejaVuSans-30" transform="translate(206.103516 0)"/>
     <use xlink:href="#DejaVuSans-30" transform="translate(269.726562 0)"/>
     <use xlink:href="#DejaVuSans-32" transform="translate(333.349609 0)"/>
     <use xlink:href="#DejaVuSans-34" transform="translate(396.972656 0)"/>
    </g>
   </g>
   <g id="text_31">
    <!-- 68% -->
    <g transform="translate(511.977933 416.755987) scale(0.08 -0.08)">
     <use xlink:href="#DejaVuSans-36"/>
     <use xlink:href="#DejaVuSans-38" transform="translate(63.623047 0)"/>
     <use xlink:href="#DejaVuSans-25" transform="translate(127.246094 0)"/>
    </g>
   </g>
   <g id="text_32">
    <!-- detonation pressure -->
    <g transform="translate(417.605884 276.646154) scale(0.12 -0.12)">
     <defs>
      <path id="DejaVuSans-70" d="M 1159 525 
L 1159 -1331 
L 581 -1331 
L 581 3500 
L 1159 3500 
L 1159 2969 
Q 1341 3281 1617 3432 
Q 1894 3584 2278 3584 
Q 2916 3584 3314 3078 
Q 3713 2572 3713 1747 
Q 3713 922 3314 415 
Q 2916 -91 2278 -91 
Q 1894 -91 1617 61 
Q 1341 213 1159 525 
z
M 3116 1747 
Q 3116 2381 2855 2742 
Q 2594 3103 2138 3103 
Q 1681 3103 1420 2742 
Q 1159 2381 1159 1747 
Q 1159 1113 1420 752 
Q 1681 391 2138 391 
Q 2594 391 2855 752 
Q 3116 1113 3116 1747 
z
" transform="scale(0.015625)"/>
      <path id="DejaVuSans-75" d="M 544 1381 
L 544 3500 
L 1119 3500 
L 1119 1403 
Q 1119 906 1312 657 
Q 1506 409 1894 409 
Q 2359 409 2629 706 
Q 2900 1003 2900 1516 
L 2900 3500 
L 3475 3500 
L 3475 0 
L 2900 0 
L 2900 538 
Q 2691 219 2414 64 
Q 2138 -91 1772 -91 
Q 1169 -91 856 284 
Q 544 659 544 1381 
z
M 1991 3584 
L 1991 3584 
z
" transform="scale(0.015625)"/>
     </defs>
     <use xlink:href="#DejaVuSans-64"/>
     <use xlink:href="#DejaVuSans-65" transform="translate(63.476562 0)"/>
     <use xlink:href="#DejaVuSans-74" transform="translate(125 0)"/>
     <use xlink:href="#DejaVuSans-6f" transform="translate(164.208984 0)"/>
     <use xlink:href="#DejaVuSans-6e" transform="translate(225.390625 0)"/>
     <use xlink:href="#DejaVuSans-61" transform="translate(288.769531 0)"/>
     <use xlink:href="#DejaVuSans-74" transform="translate(350.048828 0)"/>
     <use xlink:href="#DejaVuSans-69" transform="translate(389.257812 0)"/>
     <use xlink:href="#DejaVuSans-6f" transform="translate(417.041016 0)"/>
     <use xlink:href="#DejaVuSans-6e" transform="translate(478.222656 0)"/>
     <use xlink:href="#DejaVuSans-20" transform="translate(541.601562 0)"/>
     <use xlink:href="#DejaVuSans-70" transform="translate(573.388672 0)"/>
     <use xlink:href="#DejaVuSans-72" transform="translate(636.865234 0)"/>
     <use xlink:href="#DejaVuSans-65" transform="translate(675.728516 0)"/>
     <use xlink:href="#DejaVuSans-73" transform="translate(737.251953 0)"/>
     <use xlink:href="#DejaVuSans-73" transform="translate(789.351562 0)"/>
     <use xlink:href="#DejaVuSans-75" transform="translate(841.451172 0)"/>
     <use xlink:href="#DejaVuSans-72" transform="translate(904.830078 0)"/>
     <use xlink:href="#DejaVuSans-65" transform="translate(943.693359 0)"/>
    </g>
   </g>
  </g>
  <g id="text_33">
   <!-- Label-tier composition by property (A: experimental; B: DFT; C: K-J; D: 3D-CNN smoke) -->
   <g transform="translate(108.028125 17.678437) scale(0.1 -0.1)">
    <defs>
     <path id="DejaVuSans-4c" d="M 628 4666 
L 1259 4666 
L 1259 531 
L 3531 531 
L 3531 0 
L 628 0 
L 628 4666 
z
" transform="scale(0.015625)"/>
     <path id="DejaVuSans-62" d="M 3116 1747 
Q 3116 2381 2855 2742 
Q 2594 3103 2138 3103 
Q 1681 3103 1420 2742 
Q 1159 2381 1159 1747 
Q 1159 1113 1420 752 
Q 1681 391 2138 391 
Q 2594 391 2855 752 
Q 3116 1113 3116 1747 
z
M 1159 2969 
Q 1341 3281 1617 3432 
Q 1894 3584 2278 3584 
Q 2916 3584 3314 3078 
Q 3713 2572 3713 1747 
Q 3713 922 3314 415 
Q 2916 -91 2278 -91 
Q 1894 -91 1617 61 
Q 1341 213 1159 525 
L 1159 0 
L 581 0 
L 581 4863 
L 1159 4863 
L 1159 2969 
z
" transform="scale(0.015625)"/>
     <path id="DejaVuSans-2d" d="M 313 2009 
L 1997 2009 
L 1997 1497 
L 313 1497 
L 313 2009 
z
" transform="scale(0.015625)"/>
     <path id="DejaVuSans-28" d="M 1984 4856 
Q 1566 4138 1362 3434 
Q 1159 2731 1159 2009 
Q 1159 1288 1364 580 
Q 1569 -128 1984 -844 
L 1484 -844 
Q 1016 -109 783 600 
Q 550 1309 550 2009 
Q 550 2706 781 3412 
Q 1013 4119 1484 4856 
L 1984 4856 
z
" transform="scale(0.015625)"/>
     <path id="DejaVuSans-78" d="M 3513 3500 
L 2247 1797 
L 3578 0 
L 2900 0 
L 1881 1375 
L 863 0 
L 184 0 
L 1544 1831 
L 300 3500 
L 978 3500 
L 1906 2253 
L 2834 3500 
L 3513 3500 
z
" transform="scale(0.015625)"/>
     <path id="DejaVuSans-3b" d="M 750 3309 
L 1409 3309 
L 1409 2516 
L 750 2516 
L 750 3309 
z
M 750 794 
L 1409 794 
L 1409 256 
L 897 -744 
L 494 -744 
L 750 256 
L 750 794 
z
" transform="scale(0.015625)"/>
     <path id="DejaVuSans-46" d="M 628 4666 
L 3309 4666 
L 3309 4134 
L 1259 4134 
L 1259 2759 
L 3109 2759 
L 3109 2228 
L 1259 2228 
L 1259 0 
L 628 0 
L 628 4666 
z
" transform="scale(0.015625)"/>
     <path id="DejaVuSans-54" d="M -19 4666 
L 3928 4666 
L 3928 4134 
L 2272 4134 
L 2272 0 
L 1638 0 
L 1638 4134 
L -19 4134 
L -19 4666 
z
" transform="scale(0.015625)"/>
     <path id="DejaVuSans-4b" d="M 628 4666 
L 1259 4666 
L 1259 2694 
L 3353 4666 
L 4166 4666 
L 1850 2491 
L 4331 0 
L 3500 0 
L 1259 2247 
L 1259 0 
L 628 0 
L 628 4666 
z
" transform="scale(0.015625)"/>
     <path id="DejaVuSans-4a" d="M 628 4666 
L 1259 4666 
L 1259 325 
Q 1259 -519 939 -900 
Q 619 -1281 -91 -1281 
L -331 -1281 
L -331 -750 
L -134 -750 
Q 284 -750 456 -515 
Q 628 -281 628 325 
L 628 4666 
z
" transform="scale(0.015625)"/>
     <path id="DejaVuSans-4e" d="M 628 4666 
L 1478 4666 
L 3547 763 
L 3547 4666 
L 4159 4666 
L 4159 0 
L 3309 0 
L 1241 3903 
L 1241 0 
L 628 0 
L 628 4666 
z
" transform="scale(0.015625)"/>
     <path id="DejaVuSans-6b" d="M 581 4863 
L 1159 4863 
L 1159 1991 
L 2875 3500 
L 3609 3500 
L 1753 1863 
L 3688 0 
L 2938 0 
L 1159 1709 
L 1159 0 
L 581 0 
L 581 4863 
z
" transform="scale(0.015625)"/>
     <path id="DejaVuSans-29" d="M 513 4856 
L 1013 4856 
Q 1481 4119 1714 3412 
Q 1947 2706 1947 2009 
Q 1947 1309 1714 600 
Q 1481 -109 1013 -844 
L 513 -844 
Q 928 -128 1133 580 
Q 1338 1288 1338 2009 
Q 1338 2731 1133 3434 
Q 928 4138 513 4856 
z
" transform="scale(0.015625)"/>
    </defs>
    <use xlink:href="#DejaVuSans-4c"/>
    <use xlink:href="#DejaVuSans-61" transform="translate(55.712891 0)"/>
    <use xlink:href="#DejaVuSans-62" transform="translate(116.992188 0)"/>
    <use xlink:href="#DejaVuSans-65" transform="translate(180.46875 0)"/>
    <use xlink:href="#DejaVuSans-6c" transform="translate(241.992188 0)"/>
    <use xlink:href="#DejaVuSans-2d" transform="translate(269.775391 0)"/>
    <use xlink:href="#DejaVuSans-74" transform="translate(305.859375 0)"/>
    <use xlink:href="#DejaVuSans-69" transform="translate(345.068359 0)"/>
    <use xlink:href="#DejaVuSans-65" transform="translate(372.851562 0)"/>
    <use xlink:href="#DejaVuSans-72" transform="translate(434.375 0)"/>
    <use xlink:href="#DejaVuSans-20" transform="translate(475.488281 0)"/>
    <use xlink:href="#DejaVuSans-63" transform="translate(507.275391 0)"/>
    <use xlink:href="#DejaVuSans-6f" transform="translate(562.255859 0)"/>
    <use xlink:href="#DejaVuSans-6d" transform="translate(623.4375 0)"/>
    <use xlink:href="#DejaVuSans-70" transform="translate(720.849609 0)"/>
    <use xlink:href="#DejaVuSans-6f" transform="translate(784.326172 0)"/>
    <use xlink:href="#DejaVuSans-73" transform="translate(845.507812 0)"/>
    <use xlink:href="#DejaVuSans-69" transform="translate(897.607422 0)"/>
    <use xlink:href="#DejaVuSans-74" transform="translate(925.390625 0)"/>
    <use xlink:href="#DejaVuSans-69" transform="translate(964.599609 0)"/>
    <use xlink:href="#DejaVuSans-6f" transform="translate(992.382812 0)"/>
    <use xlink:href="#DejaVuSans-6e" transform="translate(1053.564453 0)"/>
    <use xlink:href="#DejaVuSans-20" transform="translate(1116.943359 0)"/>
    <use xlink:href="#DejaVuSans-62" transform="translate(1148.730469 0)"/>
    <use xlink:href="#DejaVuSans-79" transform="translate(1212.207031 0)"/>
    <use xlink:href="#DejaVuSans-20" transform="translate(1271.386719 0)"/>
    <use xlink:href="#DejaVuSans-70" transform="translate(1303.173828 0)"/>
    <use xlink:href="#DejaVuSans-72" transform="translate(1366.650391 0)"/>
    <use xlink:href="#DejaVuSans-6f" transform="translate(1405.513672 0)"/>
    <use xlink:href="#DejaVuSans-70" transform="translate(1466.695312 0)"/>
    <use xlink:href="#DejaVuSans-65" transform="translate(1530.171875 0)"/>
    <use xlink:href="#DejaVuSans-72" transform="translate(1591.695312 0)"/>
    <use xlink:href="#DejaVuSans-74" transform="translate(1632.808594 0)"/>
    <use xlink:href="#DejaVuSans-79" transform="translate(1672.017578 0)"/>
    <use xlink:href="#DejaVuSans-20" transform="translate(1731.197266 0)"/>
    <use xlink:href="#DejaVuSans-28" transform="translate(1762.984375 0)"/>
    <use xlink:href="#DejaVuSans-41" transform="translate(1801.998047 0)"/>
    <use xlink:href="#DejaVuSans-3a" transform="translate(1868.65625 0)"/>
    <use xlink:href="#DejaVuSans-20" transform="translate(1902.347656 0)"/>
    <use xlink:href="#DejaVuSans-65" transform="translate(1934.134766 0)"/>
    <use xlink:href="#DejaVuSans-78" transform="translate(1993.908203 0)"/>
    <use xlink:href="#DejaVuSans-70" transform="translate(2053.087891 0)"/>
    <use xlink:href="#DejaVuSans-65" transform="translate(2116.564453 0)"/>
    <use xlink:href="#DejaVuSans-72" transform="translate(2178.087891 0)"/>
    <use xlink:href="#DejaVuSans-69" transform="translate(2219.201172 0)"/>
    <use xlink:href="#DejaVuSans-6d" transform="translate(2246.984375 0)"/>
    <use xlink:href="#DejaVuSans-65" transform="translate(2344.396484 0)"/>
    <use xlink:href="#DejaVuSans-6e" transform="translate(2405.919922 0)"/>
    <use xlink:href="#DejaVuSans-74" transform="translate(2469.298828 0)"/>
    <use xlink:href="#DejaVuSans-61" transform="translate(2508.507812 0)"/>
    <use xlink:href="#DejaVuSans-6c" transform="translate(2569.787109 0)"/>
    <use xlink:href="#DejaVuSans-3b" transform="translate(2597.570312 0)"/>
    <use xlink:href="#DejaVuSans-20" transform="translate(2631.261719 0)"/>
    <use xlink:href="#DejaVuSans-42" transform="translate(2663.048828 0)"/>
    <use xlink:href="#DejaVuSans-3a" transform="translate(2731.652344 0)"/>
    <use xlink:href="#DejaVuSans-20" transform="translate(2765.34375 0)"/>
    <use xlink:href="#DejaVuSans-44" transform="translate(2797.130859 0)"/>
    <use xlink:href="#DejaVuSans-46" transform="translate(2874.132812 0)"/>
    <use xlink:href="#DejaVuSans-54" transform="translate(2929.902344 0)"/>
    <use xlink:href="#DejaVuSans-3b" transform="translate(2990.986328 0)"/>
    <use xlink:href="#DejaVuSans-20" transform="translate(3024.677734 0)"/>
    <use xlink:href="#DejaVuSans-43" transform="translate(3056.464844 0)"/>
    <use xlink:href="#DejaVuSans-3a" transform="translate(3126.289062 0)"/>
    <use xlink:href="#DejaVuSans-20" transform="translate(3159.980469 0)"/>
    <use xlink:href="#DejaVuSans-4b" transform="translate(3191.767578 0)"/>
    <use xlink:href="#DejaVuSans-2d" transform="translate(3246.84375 0)"/>
    <use xlink:href="#DejaVuSans-4a" transform="translate(3288.552734 0)"/>
    <use xlink:href="#DejaVuSans-3b" transform="translate(3318.044922 0)"/>
    <use xlink:href="#DejaVuSans-20" transform="translate(3351.736328 0)"/>
    <use xlink:href="#DejaVuSans-44" transform="translate(3383.523438 0)"/>
    <use xlink:href="#DejaVuSans-3a" transform="translate(3460.525391 0)"/>
    <use xlink:href="#DejaVuSans-20" transform="translate(3494.216797 0)"/>
    <use xlink:href="#DejaVuSans-33" transform="translate(3526.003906 0)"/>
    <use xlink:href="#DejaVuSans-44" transform="translate(3589.626953 0)"/>
    <use xlink:href="#DejaVuSans-2d" transform="translate(3666.628906 0)"/>
    <use xlink:href="#DejaVuSans-43" transform="translate(3702.712891 0)"/>
    <use xlink:href="#DejaVuSans-4e" transform="translate(3772.537109 0)"/>
    <use xlink:href="#DejaVuSans-4e" transform="translate(3847.341797 0)"/>
    <use xlink:href="#DejaVuSans-20" transform="translate(3922.146484 0)"/>
    <use xlink:href="#DejaVuSans-73" transform="translate(3953.933594 0)"/>
    <use xlink:href="#DejaVuSans-6d" transform="translate(4006.033203 0)"/>
    <use xlink:href="#DejaVuSans-6f" transform="translate(4103.445312 0)"/>
    <use xlink:href="#DejaVuSans-6b" transform="translate(4164.626953 0)"/>
    <use xlink:href="#DejaVuSans-65" transform="translate(4218.912109 0)"/>
    <use xlink:href="#DejaVuSans-29" transform="translate(4280.435547 0)"/>
   </g>
  </g>
 </g>
</svg>
